<?xml version="1.0" encoding="UTF-8"?>
<svg id="Calque_1" data-name="Calque 1" xmlns="http://www.w3.org/2000/svg" viewBox="0 0 500 402.99">
  <defs>
    <style>
      .cls-1, .cls-2 {
        fill: none;
      }

      .cls-2, .cls-3, .cls-4 {
        opacity: .3;
      }

      .cls-5 {
        fill: #f4b585;
      }

      .cls-6 {
        fill: #f5f5f5;
      }

      .cls-7 {
        fill: #ebd3be;
      }

      .cls-8, .cls-9, .cls-3, .cls-10, .cls-11 {
        fill: #fff;
      }

      .cls-12 {
        fill: #eb9c57;
      }

      .cls-13 {
        fill: #e78454;
      }

      .cls-14 {
        fill: #f0cfaf;
      }

      .cls-15 {
        fill: #efeff6;
      }

      .cls-16 {
        fill: #f0a154;
      }

      .cls-17 {
        fill: #9da9c7;
      }

      .cls-18 {
        fill: #c1d0f5;
      }

      .cls-19 {
        fill: #c9ae93;
      }

      .cls-20 {
        fill: #d68c7f;
      }

      .cls-21 {
        fill: #263238;
      }

      .cls-22, .cls-23 {
        fill: #314686;
      }

      .cls-24 {
        fill: #2e353a;
      }

      .cls-25 {
        fill: #312e9e;
      }

      .cls-26 {
        fill: #7b99ea;
      }

      .cls-9, .cls-23, .cls-3, .cls-10, .cls-27, .cls-11, .cls-4, .cls-28 {
        isolation: isolate;
      }

      .cls-9, .cls-23, .cls-28 {
        opacity: .2;
      }

      .cls-10 {
        opacity: .5;
      }

      .cls-27 {
        fill: #f9f9f9;
        opacity: .4;
      }

      .cls-11 {
        opacity: .1;
      }
    </style>
  </defs>
  <path class="cls-15" d="m348.52,96.96c25.15,10.31,44.53,36.29,61.03,68.03,16.49,31.54,30.1,68.45,21.65,99.58-8.45,30.92-38.97,55.87-70.92,66.8-31.96,10.72-65.15,7.42-95.87,3.92-30.51-3.5-58.76-7.22-91.33-17.73-32.37-10.72-69.27-28.24-85.35-57.31-15.87-29.28-10.93-69.89,9.28-97.52,20-27.42,55.46-42.06,85.56-50.72,29.89-8.66,54.63-11.75,82.47-15.87,27.63-4.12,58.55-9.48,83.5.82Z"/>
  <g id="freepik--Shadow--inject-2">
    <path class="cls-6" d="m453.42,379.49c0,3.39-93.52,6.13-208.87,6.13s-208.87-2.75-208.87-6.13,93.52-6.13,208.87-6.13,208.87,2.75,208.87,6.13Z"/>
  </g>
  <g id="freepik--Rocket--inject-2">
    <g>
      <path class="cls-7" d="m197.51,363.73c-3.21-4.03-8.7-6.12-13.79-5.24.11-5.84-2.39-11.68-6.68-15.64s-10.31-5.98-16.12-5.41c-.2-9.36-9.37-17.45-18.66-16.68v-85.33h-49.89v85.33c-9.29-.77-18.46,7.32-18.66,16.68-5.81-.57-11.83,1.45-16.12,5.41s-6.78,9.8-6.68,15.64c-5.08-.88-10.57,1.2-13.79,5.24-3.21,4.03-4.02,9.85-2.02,14.61h164.44c2-4.76,1.19-10.57-2.02-14.61h-.01Z"/>
      <g id="freepik--freepik--Rocket--inject-2--inject-2">
        <path class="cls-18" d="m72.04,101.03s-24.26,12.23-31.56,42.86c-5.32,22.34-3.71,64.5,5.88,67.89s10.66-22.72,10.74-32,8.78-20.61,16.53-21.29c0,0,1.52-48.99-1.59-57.46Z"/>
        <path class="cls-28" d="m75.67,107.11c-5.74,2.19-10.45,6.38-14.27,11.08-4.07,5.16-7.42,10.86-9.95,16.92-2.81,6.48-4.86,13.27-6.1,20.22-1.16,7.33-1.73,14.73-1.7,22.15-.13,9.07-.35,18.52,3.19,27.07.14.34.7.19.56-.15-3.06-7.45-3.25-15.59-3.19-23.53.06-7.49.18-15.02,1.24-22.45,1.9-13.2,6.71-26.55,14.54-37.41,4.06-5.63,9.27-10.83,15.86-13.34.35-.14.2-.69-.15-.56h-.03Z"/>
        <path class="cls-18" d="m155.14,101.03s24.26,12.23,31.56,42.86c5.32,22.34,3.71,64.5-5.88,67.89-9.59,3.38-10.66-22.72-10.74-32s-8.78-20.61-16.52-21.29c0,0-1.52-48.99,1.59-57.46h0Z"/>
        <path class="cls-28" d="m151.36,107.66c5.77,2.2,10.48,6.48,14.28,11.26,3.97,5.13,7.23,10.76,9.7,16.76,2.77,6.45,4.78,13.2,5.99,20.11,1.27,7.28,1.52,14.67,1.6,22.05.12,8.91.31,18.16-3.14,26.56-.14.34.42.49.56.15,3.1-7.55,3.26-15.81,3.19-23.86-.06-7.59-.2-15.21-1.3-22.73-1.06-7.16-2.98-14.17-5.71-20.88-2.37-6.06-5.51-11.79-9.34-17.05-4.05-5.48-9.21-10.44-15.67-12.91-.35-.14-.5.42-.15.56h0v-.02h-.01Z"/>
        <path class="cls-25" d="m146.8,194.13h-67.02s-12.27-47.16-7.46-100.04c1.3-14.01,4.85-27.72,10.53-40.6.08-.2.17-.4.26-.59,1.4-3.19,2.88-6.2,4.4-9.06,5.95-11.27,13.38-21.7,22.08-31.02,1.93-2.2,5.28-2.42,7.49-.49.17.15.34.32.49.49,8.98,9.61,16.6,20.41,22.65,32.09,1.52,2.93,2.99,6.02,4.39,9.26l.25.57c5.35,12.52,8.73,25.79,9.99,39.35,4.8,52.91-8.03,100.04-8.03,100.04h-.02Z"/>
        <path class="cls-26" d="m146.8,194.13h-67.02s-12.27-47.16-7.46-100.04c1.3-14.01,4.85-27.72,10.53-40.6.08-.2.17-.4.26-.59,1.4-3.19,2.88-6.2,4.4-9.06,5.95-11.27,13.38-21.7,22.08-31.02,1.93-2.2,5.28-2.42,7.49-.49.17.15.34.32.49.49,8.98,9.61,16.6,20.41,22.65,32.09,1.52,2.93,2.99,6.02,4.39,9.26l.25.57c5.35,12.52,8.73,25.79,9.99,39.35,4.8,52.91-8.03,100.04-8.03,100.04h-.02Z"/>
        <rect class="cls-25" x="89.13" y="187.41" width="50.26" height=".77"/>
        <path class="cls-24" d="m148.33,212.08h-67.76c-4.83-6.95.28-17.95.28-17.95h66.1s5.08,8.98,1.37,17.95h.01Z"/>
        <path class="cls-24" d="m131.21,218.38h-33.88c-2.39-3.48.14-8.98.14-8.98h33.05s2.54,4.48.69,8.98Z"/>
        <path class="cls-18" d="m131.23,218.38h-33.78c-6.84,3.63-23.85,12.3-21.47,26.98h77.6c2.38-14.68-15.5-23.36-22.34-26.98h0Z"/>
        <rect class="cls-24" x="73.06" y="242.26" width="82.85" height="6.39"/>
        <path class="cls-13" d="m140.2,44.92c-6.11,4.37-15.46,9.27-26.63,9.27-9.69-.06-19-3.76-26.08-10.37.64-1.21,1.28-2.38,1.93-3.53l.31-.53c5.53-9.73,12.19-18.78,19.84-26.95,1.93-2.2,5.28-2.42,7.49-.49.17.15.34.32.49.49,7.67,8.19,14.34,17.27,19.88,27.03l.31.55c.84,1.47,1.65,2.99,2.46,4.54h0Z"/>
        <path class="cls-28" d="m137.75,40.4c-1.96,1.41-4.04,2.64-6.22,3.69-7.66,3.7-16.28,4.94-24.68,3.54-6.29-1.08-12.26-3.59-17.43-7.32l.31-.53c2.1,1.53,4.35,2.85,6.7,3.95,7.65,3.61,16.24,4.72,24.56,3.19,5.93-1.12,11.55-3.53,16.45-7.06l.31.54h0Z"/>
        <path class="cls-25" d="m145.69,102.53c-3.07-31.02-5.47-43.44-5.75-44.8,1.16-.63,2.24-1.27,3.19-1.89.58-.36,1.14-.73,1.68-1.09l-.25-.57c-.57.38-1.15.8-1.76,1.15-6.38,4.03-16.64,8.84-28.99,8.84-9.73,0-19.24-2.98-27.22-8.55-1.32-.91-2.49-1.83-3.53-2.7-.09.19-.18.39-.26.59,1.01.85,2.15,1.72,3.42,2.61.8.56,1.7,1.14,2.65,1.72-.34,1.72-2.71,14.24-5.73,44.68-2.39,23.78-.21,47.44,2.01,63.1,1.32,9.61,3.13,19.15,5.44,28.57.03.13.15.22.28.22h.07c.15-.04.24-.2.21-.35-2.3-9.41-4.11-18.92-5.43-28.52-2.22-15.62-4.36-39.23-2.01-62.95,2.92-29.48,5.23-42.12,5.68-44.46,7.4,4.39,15.84,6.71,24.45,6.7,8.94-.11,17.71-2.43,25.53-6.75.4,2.03,2.74,14.6,5.71,44.56,2.35,23.72.21,47.32-2.01,62.95-1.31,9.59-3.12,19.11-5.43,28.52-.04.15.06.31.21.35h.07c.13,0,.25-.09.28-.22,2.31-9.42,4.12-18.96,5.44-28.57,2.25-15.69,4.4-39.35,2.04-63.12v-.02h0Z"/>
        <path class="cls-25" d="m113.85,135.46c-12.26,0-22.21-9.93-22.21-22.2s9.93-22.21,22.2-22.21,22.21,9.93,22.21,22.2v.02c0,12.25-9.94,22.19-22.2,22.2h0Zm0-43.82c-11.94,0-21.62,9.68-21.62,21.62s9.68,21.62,21.62,21.62,21.62-9.68,21.62-21.62h0c0-11.94-9.69-21.61-21.62-21.62Z"/>
        <path class="cls-25" d="m130.66,113.26c0,9.29-7.53,16.81-16.81,16.81h-.39c-2.85-.06-5.63-.84-8.08-2.28-1.9-1.11-3.56-2.58-4.9-4.32-2.24-2.93-3.45-6.51-3.44-10.2,0-.65.04-1.31.11-1.95.92-7.73,7.01-13.82,14.74-14.74.65-.07,1.31-.11,1.96-.11,9.13,0,16.58,7.29,16.8,16.41v.38h.01Z"/>
        <path class="cls-11" d="m124.04,99.92l-23.56,23.56c-2.24-2.93-3.45-6.51-3.44-10.2,0-.65.04-1.31.11-1.95l14.74-14.74c.65-.07,1.31-.11,1.96-.11,3.68,0,7.26,1.2,10.19,3.44Z"/>
        <path class="cls-11" d="m130.65,112.87l-17.2,17.2c-2.85-.06-5.63-.84-8.08-2.28l22.99-22.98c1.44,2.45,2.23,5.23,2.29,8.07h0Z"/>
      </g>
    </g>
  </g>
  <g id="freepik--Bars--inject-2">
    <g>
      <rect class="cls-22" x="235.62" y="309.84" width="48.64" height="69.52"/>
      <rect class="cls-23" x="268.42" y="309.84" width="15.83" height="69.65"/>
    </g>
    <g>
      <rect class="cls-22" x="171.42" y="329.95" width="43.61" height="49.54"/>
      <rect class="cls-23" x="200.84" y="329.95" width="14.2" height="49.54"/>
    </g>
    <g>
      <rect class="cls-22" x="302.78" y="269.51" width="47.54" height="109.98"/>
      <rect class="cls-23" x="334.84" y="269.51" width="15.48" height="109.98"/>
    </g>
  </g>
  <g id="freepik--Tab_1--inject-2" data-name="freepik--Tab 1--inject-2">
    <g>
      <g>
        <path class="cls-8" d="m189.71,71.43v147.15c0,2.54,2.06,4.59,4.59,4.59h202.02V71.44c0-1.36-1.1-2.46-2.46-2.46h-201.7c-1.36,0-2.45,1.1-2.45,2.45h0Z"/>
        <path class="cls-22" d="m192.26,68.98h201.98c1.15,0,2.08.93,2.08,2.08v10.3h-206.61v-9.82c0-1.41,1.14-2.55,2.55-2.55h0Z"/>
        <path class="cls-10" d="m393.18,74.65c.35,1.85-1.24,3.45-3.09,3.1-1.03-.19-1.87-1.04-2.06-2.06-.35-1.85,1.24-3.45,3.09-3.1,1.03.2,1.87,1.04,2.06,2.06Z"/>
        <path class="cls-10" d="m385.72,74.65c.35,1.85-1.24,3.45-3.09,3.1-1.03-.19-1.87-1.04-2.06-2.06-.35-1.85,1.24-3.45,3.09-3.1,1.03.2,1.87,1.04,2.06,2.06Z"/>
        <path class="cls-10" d="m378.25,74.65c.35,1.85-1.24,3.45-3.09,3.1-1.03-.19-1.87-1.04-2.06-2.06-.35-1.85,1.24-3.45,3.09-3.1,1.03.2,1.87,1.04,2.06,2.07h0Z"/>
      </g>
      <g>
        <path class="cls-26" d="m381.13,157.44c-2.46-6.47-5.51-12.75-9.11-18.75-1.98-3.31-4.46-6.78-8.39-7.92-4.85-1.41-10.09,1.34-13.33,4.94-3.25,3.59-5.23,8.01-8.35,11.7s-8.07,6.72-13.04,5.74c-5.03-.99-9.09-5.85-14.14-4.93-4.98.91-7.46,7.08-12.52,7.48-3.71.29-6.67-2.7-8.71-5.55-3.64-5.07-6.55-10.65-11.06-15.1s-11.23-7.69-17.68-6.28c-4.41.96-7.97,3.91-10.91,7.08-4.77,5.14-8.45,11.12-10.78,17.52-.98,2.71-2.17,5.91-5.17,6.69-2.76.71-5.55-1.13-7.24-3.25s-2.84-4.65-5.02-6.35c-4.54-3.54-11.93-1.95-16.11,1.95s-5.95,9.39-7.58,14.64v22.93h179.22l-.06-32.53h-.02Z"/>
        <path class="cls-25" d="m381.49,157.34c-1.72-4.5-3.7-8.9-5.95-13.16-1.96-3.71-3.98-7.79-6.98-10.79-2.66-2.66-6.2-3.89-9.92-3.13-3.95.8-7.28,3.42-9.74,6.52-2.81,3.55-4.76,7.75-7.86,11.08s-7.61,5.88-12.21,4.89c-3.78-.81-6.72-3.63-10.41-4.67-3.3-.93-6.11.3-8.61,2.43-2.66,2.27-5.39,5.54-9.31,4.7-4.38-.93-7.02-5.69-9.27-9.13-4.65-7.09-9.56-14.54-18.09-17.2-3.84-1.2-7.92-1.09-11.6.59-3.86,1.76-6.97,4.87-9.66,8.07-2.85,3.38-5.29,7.12-7.2,11.11-.89,1.86-1.6,3.77-2.34,5.68-.68,1.78-1.55,3.78-3.24,4.82-2.23,1.36-4.83.45-6.68-1.11-1.66-1.4-2.7-3.33-3.95-5.07-2.1-2.93-4.91-4.73-8.57-4.85-3.39-.11-6.87,1.09-9.56,3.14-3.17,2.43-5.21,6.02-6.67,9.67-.79,1.97-1.42,3.99-2.05,6.01-.14.46.58.66.72.2,2.4-7.73,5.78-16.38,14.72-18.05,4.27-.8,8.07.59,10.65,4.1,2.14,2.91,3.98,6.52,7.88,7.29,3.45.67,5.74-1.89,7-4.77.76-1.75,1.34-3.57,2.11-5.32.9-2.03,1.93-3.99,3.09-5.89,2.33-3.83,5.16-7.46,8.46-10.5s7.32-5.26,11.91-5.19c9.43.14,15.9,7.75,20.67,14.98,3.28,4.98,8.37,15.13,15.94,11.6,2.95-1.37,4.84-4.23,7.61-5.86,3.71-2.18,7.32-.33,10.7,1.55s6.44,3.18,10.19,2.36,7.1-3.43,9.49-6.44c2.8-3.53,4.76-7.67,7.8-11.02,2.79-3.07,6.91-5.52,11.19-5.17s7.39,3.93,9.57,7.46c2.45,3.96,4.61,8.11,6.55,12.34,1.04,2.28,2.01,4.6,2.9,6.94.17.45.9.25.72-.2h0Z"/>
        <g>
          <path class="cls-4" d="m201.55,106.99v82.98c0,.2.17.38.38.38h172c2.3,0,4.68.19,6.97,0h.3c.48,0,.48-.75,0-.75h-176.59c-.73,0-1.67-.16-2.39,0-.09.02-.2,0-.3,0l.38.38v-82.98c0-.48-.75-.48-.75,0h0Z"/>
          <path class="cls-4" d="m234.97,105.26v84.71c0,.48.75.48.75,0v-84.71c0-.48-.75-.48-.75,0h0Z"/>
          <path class="cls-4" d="m264.11,105.26v84.71c0,.48.75.48.75,0v-84.71c0-.48-.75-.48-.75,0h0Z"/>
          <path class="cls-4" d="m293.25,105.26v84.71c0,.48.75.48.75,0v-84.71c0-.48-.75-.48-.75,0h0Z"/>
          <path class="cls-4" d="m322.39,105.26v84.71c0,.48.75.48.75,0v-84.71c0-.48-.75-.48-.75,0h0Z"/>
          <path class="cls-4" d="m351.52,105.26v84.71c0,.48.75.48.75,0v-84.71c0-.48-.75-.48-.75,0h0Z"/>
          <path class="cls-4" d="m380.82,105.26v84.71c0,.48.75.48.75,0v-84.71c0-.48-.75-.48-.75,0h0Z"/>
          <path class="cls-4" d="m201.5,171.72h179.7c.48,0,.48-.75,0-.75h-179.7c-.48,0-.48.75,0,.75h0Z"/>
          <path class="cls-4" d="m201.5,150.73h179.7c.48,0,.48-.75,0-.75h-179.7c-.48,0-.48.75,0,.75h0Z"/>
          <path class="cls-4" d="m201.5,129.74h179.7c.48,0,.48-.75,0-.75h-179.7c-.48,0-.48.75,0,.75h0Z"/>
          <path class="cls-4" d="m201.5,108.74h179.7c.48,0,.48-.75,0-.75h-179.7c-.48,0-.48.75,0,.75h0Z"/>
        </g>
        <circle class="cls-25" cx="212.88" cy="202.69" r="2.83"/>
        <path class="cls-21" d="m219.42,201.6h51.59c.48,0,.48-.75,0-.75h-51.59c-.48,0-.48.75,0,.75h0Z"/>
        <path class="cls-21" d="m219.42,205.04h28.41c.48,0,.48-.75,0-.75h-28.41c-.48,0-.48.75,0,.75h0Z"/>
        <circle class="cls-25" cx="293.76" cy="202.69" r="2.83"/>
        <path class="cls-21" d="m300.3,201.6h51.59c.48,0,.48-.75,0-.75h-51.59c-.48,0-.48.75,0,.75h0Z"/>
        <path class="cls-21" d="m300.3,205.04h28.41c.48,0,.48-.75,0-.75h-28.41c-.48,0-.48.75,0,.75h0Z"/>
      </g>
    </g>
  </g>
  <g id="freepik--Character_1--inject-2" data-name="freepik--Character 1--inject-2">
    <g>
      <g>
        <polygon class="cls-5" points="409.34 376.94 402.27 376.62 399.65 358.23 410.42 358.6 409.34 376.94"/>
        <g>
          <path class="cls-21" d="m401.41,373.4h2.51c.57,0,1.1.29,1.43.75,1.45,1.98,2.54,1.23,4.12-.63,1-.12,1.27,1.03,1.35,1.34l1.88,6.84c.16.57-.17,1.17-.74,1.33-.1.03-.21.04-.31.04h-19.92c-3.17,0-3.83-3.19-2.52-3.49,5.87-1.3,10.03-3.02,11.84-4.73.34-.3,0-.52.36-1.45h0Z"/>
          <path class="cls-25" d="m396.49,375.68c-.26-.19-.42-.49-.43-.82-.02-.17.06-.35.21-.44.79-.56,3.93.91,4.28,1.08.04.01.07.05.08.08.03.07,0,.15-.08.18-.77.18-1.56.28-2.36.3-.6.06-1.19-.08-1.71-.39h0Zm-.02-1.03c-.06.04-.1.11-.08.19,0,.24.13.45.31.6.71.53,2.44.3,3.37.13-1.31-.57-3.16-1.22-3.6-.92h0Z"/>
          <path class="cls-25" d="m400.45,375.8c-.94-.39-2.92-1.95-2.82-2.77.02-.17.14-.38.57-.44,1.72-.2,2.46,2.9,2.46,3.03.02.05,0,.11-.04.15h-.1l-.07.02h0Zm-2.19-2.95c-.32.03-.32.15-.32.19-.09.5,1.35,1.79,2.37,2.33-.21-.72-.85-2.53-1.94-2.53h-.11,0Z"/>
          <path class="cls-25" d="m402.34,377.3s.09-.01.13-.04c.12-.07.15-.23.08-.34-.51-.8-1.37-1.36-2.31-1.49-.13-.01-.26.08-.28.21s.08.26.21.28c.8.11,1.53.58,1.96,1.26.05.08.13.12.21.12h0Z"/>
          <path class="cls-25" d="m400.77,378.48s.09-.01.13-.04c.12-.07.15-.23.08-.34-.51-.8-1.37-1.36-2.31-1.49-.13-.01-.26.08-.28.21s.08.26.21.28c.8.11,1.53.58,1.96,1.26.05.08.13.12.21.12h0Z"/>
          <path class="cls-25" d="m398.83,379.47s.09-.01.13-.04c.12-.07.15-.23.08-.34-.51-.8-1.37-1.36-2.31-1.49-.13-.02-.26.08-.28.21-.02.14.08.26.21.28.8.11,1.53.58,1.96,1.26.05.08.13.12.21.12h0Z"/>
        </g>
        <polygon class="cls-4" points="401.08 368.26 401.42 370.62 409.72 370.48 409.85 368.26 401.08 368.26"/>
      </g>
      <g>
        <polygon class="cls-5" points="379.88 375.12 372.21 374.15 370.52 356.81 381.05 356.52 379.88 375.12"/>
        <g>
          <path class="cls-21" d="m371.82,372.7h2.51c.57,0,1.1.29,1.43.75,1.45,1.98,2.54,1.23,4.12-.63,1-.12,1.27,1.03,1.35,1.34l1.88,6.84c.16.57-.17,1.17-.74,1.33-.1.03-.21.04-.31.04h-19.92c-3.17,0-3.83-3.19-2.52-3.49,5.87-1.3,10.03-3.02,11.84-4.73.34-.3,0-.52.36-1.45h0Z"/>
          <path class="cls-25" d="m366.37,374.64c-.26-.19-.42-.5-.43-.82-.02-.17.06-.35.21-.44.79-.56,3.93.91,4.28,1.08.04.01.07.05.08.08.03.07,0,.15-.08.18-.77.18-1.56.28-2.36.3-.6.06-1.19-.08-1.71-.39h0Zm-.02-1.03c-.06.04-.1.11-.08.19,0,.24.13.45.31.6.71.53,2.44.3,3.37.13-1.31-.57-3.16-1.22-3.6-.92h0Z"/>
          <path class="cls-25" d="m370.32,374.76c-.94-.39-2.92-1.95-2.82-2.77.02-.17.14-.38.57-.43,1.72-.2,2.46,2.9,2.46,3.03.02.05,0,.11-.04.15h-.1l-.07.02Zm-2.19-2.95c-.32.03-.32.15-.32.19-.09.5,1.35,1.79,2.37,2.33-.21-.72-.85-2.53-1.94-2.53h-.11,0Z"/>
          <path class="cls-25" d="m372.21,376.27s.09-.01.13-.04c.12-.07.15-.23.08-.34-.51-.8-1.37-1.36-2.31-1.49-.13-.01-.26.08-.28.21s.08.26.21.28c.8.11,1.53.58,1.96,1.26.05.08.13.12.21.12h0Z"/>
          <path class="cls-25" d="m370.65,377.44s.09-.01.13-.04c.12-.07.15-.23.08-.34-.51-.8-1.37-1.36-2.31-1.49-.13-.01-.26.08-.28.21-.02.14.08.26.21.28.8.11,1.53.58,1.96,1.26.05.08.13.12.21.12h0Z"/>
          <path class="cls-25" d="m368.7,378.43s.09-.01.13-.04c.12-.07.15-.23.08-.34-.51-.81-1.37-1.36-2.31-1.49-.13-.01-.26.08-.28.21s.08.26.21.28c.8.11,1.53.58,1.96,1.26.05.08.13.12.21.12h0Z"/>
        </g>
        <polygon class="cls-4" points="371.54 367.22 371.77 369.59 380.23 369.54 380.38 367.22 371.54 367.22"/>
      </g>
      <g id="freepik--freepik--character-2--inject-2--inject-2">
        <path class="cls-21" d="m413.75,176.64c2.02-10.51-4.53-8.57-2.3-21.95,2.46-14.74-8.05-16.87-8.05-16.87,0,0-1.24-7.34-8.1-6.96-6.86.38-24.04,4.02-20.59,22.24,2.01,10.62-1.52,11.4-3.32,16.19-2.55,6.77,5.58,12.85.27,17.48,0,0,13.61,3.99,33.47,2.66,0,0,7.39-6.38,8.62-12.79h0Z"/>
        <path class="cls-25" d="m376.76,180.59s-9.34,23.37-10.82,23.51-20.43-7.24-20.43-7.24l-2.95,3.33s9.92,13.27,25.63,17.48c2.82.76,6.38-2.44,9.78-6.81.67-.85,1.32-1.75,1.96-2.67,3.49-5.18,6.63-10.6,9.38-16.21l-12.56-11.39h0Z"/>
        <path class="cls-12" d="m376.76,180.59s-9.34,23.37-10.82,23.51-20.43-7.24-20.43-7.24l-2.95,3.33s9.92,13.27,25.63,17.48c2.82.76,6.38-2.44,9.78-6.81.67-.85,1.32-1.75,1.96-2.67,3.49-5.18,6.63-10.6,9.38-16.21l-12.56-11.39h0Z"/>
        <path class="cls-28" d="m376.76,183.68c-.73,3.24-2.45,8.09-3.8,11.54-.44,1.12-.63,2.32-.43,3.51.58,3.4,3.52,4.49,4.5,7.2.55,1.59.86,3.25.94,4.93.67-.85,1.32-1.75,1.96-2.67l1.45-5.73-4.63-18.78h0Z"/>
        <path class="cls-21" d="m369.09,206.7c.88-.25,1.4-1.17,1.15-2.06l-6.33-26.64c-.38-1.26-1.51-2.15-2.83-2.2l-20.3-.42c-.22-.03-.44,0-.66.05-.88.25-1.4,1.17-1.15,2.06l6.33,26.64c.38,1.26,1.51,2.15,2.83,2.21l20.3.42c.22.03.44.01.66-.05h0Z"/>
        <path class="cls-9" d="m369.09,206.7c.88-.25,1.4-1.17,1.15-2.06l-6.33-26.64c-.38-1.26-1.51-2.15-2.83-2.2l-20.3-.42c-.22-.03-.44,0-.66.05-.88.25-1.4,1.17-1.15,2.06l6.33,26.64c.38,1.26,1.51,2.15,2.83,2.21l20.3.42c.22.03.44.01.66-.05h0Z"/>
        <path class="cls-21" d="m367,206.65c.88-.25,1.4-1.17,1.15-2.05l-6.33-26.64c-.38-1.26-1.51-2.14-2.82-2.21l-20.31-.42c-.22-.03-.44,0-.66.05-.88.25-1.4,1.17-1.15,2.06l6.34,26.64c.38,1.26,1.51,2.14,2.82,2.21l20.31.42c.22.03.44,0,.65-.05h0Z"/>
        <path class="cls-3" d="m367,206.65c.88-.25,1.4-1.17,1.15-2.05l-6.33-26.64c-.38-1.26-1.51-2.14-2.82-2.21l-20.31-.42c-.22-.03-.44,0-.66.05-.88.25-1.4,1.17-1.15,2.06l6.34,26.64c.38,1.26,1.51,2.14,2.82,2.21l20.31.42c.22.03.44,0,.65-.05h0Z"/>
        <path class="cls-9" d="m348.68,190.95c.11-1.17,1.15-2.02,2.31-1.91,1.65.09,3.06,1.23,3.5,2.82.08.26.1.54.08.81-.12,1.16-1.15,2-2.31,1.88-1.65-.09-3.07-1.22-3.51-2.81-.07-.26-.1-.53-.07-.79h0Z"/>
        <path class="cls-5" d="m341.82,192.22c.4-.03,2.1.81,2.9.25s.05-1.02.05-1.02c-1.46-.36-3.07-2.19-3.96-1.66-.89.52-2.36,1.18-2.15,2.01.24.77.54,1.52.88,2.26-.23.37-.26.83-.08,1.23.18.46.59.8,1.07.89-.28.28-.42.67-.4,1.07.07.63,1.73,1.46,1.73,1.46,0,0-.32.99.06,1.37.65.53,1.51.73,2.33.53.97-.23,1.64-.57,1.57-1.55-.07-.98-1.82-.98-1.82-.98,0,0,3.3-1,2.6-1.62-.7-.62-3.33-.55-3.33-.55,0,0,4.46-.88,3.75-1.8-.71-.92-5.15-.67-5.15-.67,0,0-.45-1.2-.05-1.23h0Z"/>
        <path class="cls-21" d="m396.16,229.88l-19.71.08s-6.89,34.67-6.48,73.54c-.8,22.82-.16,64.78-.16,64.78h12.82s8.17-34.08,4.9-61.08c1.19-4.66,2.78-12.72,3.71-16.83,2.62-11.09,4.59-22.33,5.9-33.65,2.25-21.22-.97-26.84-.97-26.84h0Z"/>
        <path class="cls-28" d="m394.41,243.49s-7.11,31.92-3.18,46.87c2.62-11.09,4.59-22.33,5.9-33.65l-2.72-13.23h0Z"/>
        <path class="cls-21" d="m412.73,220.8c1.72,7.7,8.46,17.11,9.83,26.96,2.33,16.83-7.79,37.76-10.43,57.5,4,29.2-2.13,64.61-1.32,63.84h-12.87c-.39-2.6-3.03-42.16-4.34-65.6-1.11-20.52-2.88-72.11-2.88-72.11l22.02-10.59h0Z"/>
        <path class="cls-25" d="m413.21,216.14c.02-1.38,2.69-11.29,2.76-12.75.33-7.07,1.12-14.1,2.36-21.07.05-.3.09-.61.11-.91.34-4.79-3.28-8.95-8.07-9.28-1.38-.1-2.83-.15-4.33-.19-1.5-.04-2.93-.04-4.31-.04-3.78-.07-7.56.11-11.31.53l-.83.11c-1.41.18-2.84.42-4.22.65-5.99,1.01-10.22,6.43-9.76,12.49.67,7.93-5.31,12.77,2.34,18.12.99,6.8-.48,21.33-3.33,31.35-1.01,3.56,27.82,3.09,44-2.26l-5.4-16.74"/>
        <path class="cls-12" d="m413.21,216.14c.02-1.38,2.69-11.29,2.76-12.75.33-7.07,1.12-14.1,2.36-21.07.05-.3.09-.61.11-.91.34-4.79-3.28-8.95-8.07-9.28-1.38-.1-2.83-.15-4.33-.19-1.5-.04-2.93-.04-4.31-.04-3.78-.07-7.56.11-11.31.53l-.83.11c-1.41.18-2.84.42-4.22.65-5.99,1.01-10.22,6.43-9.76,12.49.67,7.93-5.31,12.77,2.34,18.12.99,6.8-.48,21.33-3.33,31.35-1.01,3.56,27.82,3.09,44-2.26l-5.4-16.74"/>
        <g>
          <g>
            <path class="cls-5" d="m403.15,171.95s-3.01,2.32-6.89,5.66c-.81.7-1.7,1.3-2.64,1.8-2.54,1.35-4.86,2.12-5.48.9-.14-.27-.25-.56-.33-.87-.53-2.05-.31-4.93,1.34-6.25,1.87-1.49,2.77-2.76,2.43-4.77-.18-1.14-.59-2.32-1.07-3.47l2.16-1.3,7.69-7.76c-.88,4.76-1.27,13.26,2.78,16.07h.01Z"/>
            <path class="cls-28" d="m391.66,168.85c2.12-1.26,4.44-3.43,4.16-5.92-.12-1.05-.35-2.04-.6-2.68l-4.3,5.69c.35.92.48,1.52.74,2.91h0Z"/>
            <path class="cls-5" d="m401.87,147.13c-.72,7.9-.86,11.26-4.94,15.4-6.14,6.23-15.58,4.14-17.2-3.7-1.46-7.05-.03-18.79,7.73-22.12,7.65-3.27,15.14,2.51,14.42,10.41h0Z"/>
          </g>
          <path class="cls-21" d="m399.12,149.86s-4.08-6.14-3.87-11.11c0,0-7.8-2.03-14.03,6.28-.99,1.32-1.58,3.53-2.47,5.44,0,0-1.49-15.04,11.86-16.27,13.33-1.23,15.94,17.5,9.44,23.81,0,0,1.59-4.3-.93-8.14h0Z"/>
          <path class="cls-5" d="m404.26,153.57c-.93,1.62-2.45,2.64-3.84,2.99-2.09.52-3.17-2.84-2.46-4.94.64-1.89,2.7-3.14,4.74-2.72,2.01.41,2.63,2.82,1.57,4.67h-.01Z"/>
          <path class="cls-28" d="m399.83,153.4c.13,0,.24-.1.25-.23.05-.69.37-1.34.89-1.8.52-.45,1.21-.69,1.9-.65.13.02.26-.1.27-.23,0-.14-.1-.26-.23-.27-.82-.05-1.64.23-2.26.77-.62.54-1,1.32-1.06,2.14,0,.14.1.26.23.27h.02-.01Z"/>
        </g>
        <path class="cls-28" d="m415,221.7l1.75,5.44s-19.62-3.45-29.46-12.24c-7-6.26-5.91-8.9-5.91-8.9l7.93.77,25.68,14.94h.01Z"/>
        <path class="cls-28" d="m407.14,193.71l1.07,17.74c2.96,1.88,4.92-.73,5.37-3.43v-5.11l-6.44-9.21h0Z"/>
        <path class="cls-25" d="m406.08,191.02s7.43,18.4,6.09,19.25-22.73-5-22.73-5l-3.37,4.84c.72,3.18,37.63,23.21,40.64,6.46,1.83-10.18-9.24-39.77-9.24-39.77-9.1-3.56-11.39,14.23-11.39,14.23h0Z"/>
        <path class="cls-12" d="m406.08,191.02s7.43,18.4,6.09,19.25-22.73-5-22.73-5l-3.37,4.84c.72,3.18,37.63,23.21,40.64,6.46,1.83-10.18-9.24-39.77-9.24-39.77-9.1-3.56-11.39,14.23-11.39,14.23h0Z"/>
        <path class="cls-5" d="m385.75,210.58c-2.53.2-2.62-3.61-3.93-3.76-.77-.07-1.51-.26-2.22-.57,0,0,.83,2.29,0,2.11-.83-.18-3.5-.32-4.16-2.5s1.72-6.84,2.26-7.49,3.39-.45,3.39-.45c0,0-3.06-.79-4.74-1.02-1.68-.23-2-2.15.35-1.73.96.17,8.57.23,9.39,1.01.82.78,3.88,8.47,3.88,8.47,1.13.65-1.74,7.1-4.21,5.92h0Z"/>
        <g class="cls-2">
          <path class="cls-1" d="m381.11,197.68c.78-.05,1.56,0,2.33.15.12.03.18.15.15.27-.03.1-.12.17-.23.16-.73-.15-1.47-.2-2.21-.15-.27,0-.32-.41-.05-.42h.01Z"/>
          <path class="cls-1" d="m377.19,199.99c-.24.12-.49-.22-.25-.35,1.42-.76,2.92-.33,4.36.15.26.08.07.47-.18.39-1.27-.42-2.66-.83-3.93-.19h0Z"/>
          <path class="cls-1" d="m376.07,201.87c1.23-.73,2.74-.8,4.03-.17.1.06.13.2.07.3-.05.08-.15.12-.24.09-1.15-.56-2.51-.51-3.61.13-.23.14-.48-.21-.24-.35h0Z"/>
          <path class="cls-1" d="m378.12,205.06c-.11-.22-.2-.46-.26-.7-.06-.27.34-.42.41-.15.18.82.69,1.53,1.41,1.96.24.13.06.52-.17.39h.02c-.45-.25-.83-.61-1.12-1.03-.03,0-.05.01-.09,0-.45-.16-.95-.03-1.26.33-.18.21-.51-.07-.32-.27.35-.4.87-.59,1.38-.53h0Z"/>
        </g>
      </g>
    </g>
  </g>
  <g id="freepik--Character--inject-221">
    <path class="cls-20" d="m239.12,269.5l1-2.51-3.15-.11c-.42.95-.17,2.07.61,2.75l1.55-.13Z"/>
    <polygon class="cls-20" points="240.46 265.3 237.99 265.78 236.97 266.88 240.12 266.99 240.46 265.3"/>
    <path class="cls-16" d="m220.55,241.07c-4.59-1.99-9.53-3.02-14.53-3.03-17.64,0-31.59,12.83-33.51,29.66l2.19-1.05,33.24,7.01,12.61-32.59Z"/>
    <path class="cls-19" d="m220.55,241.07c-4.59-1.99-9.53-3.02-14.53-3.03-17.64,0-31.59,12.83-33.51,29.66l2.19-1.05,33.24,7.01,12.61-32.59Z"/>
    <path class="cls-14" d="m222.73,240.01c-4.59-1.99-9.54-3.02-14.54-3.03-17.64,0-31.59,12.83-33.51,29.66l35.44,5.95,12.61-32.59Z"/>
    <path class="cls-16" d="m227.38,238.59l-12.62,32.59,31.34,18.65,2.19-1.05s2.42-11.32,2.08-17.61c-.76-14.04-20.81-33.64-20.81-33.64l-2.18,1.07Z"/>
    <path class="cls-17" d="m227.38,238.59l-12.62,32.59,31.34,18.65,2.19-1.05s2.42-11.32,2.08-17.61c-.76-14.04-20.81-33.64-20.81-33.64l-2.18,1.07Z"/>
    <path class="cls-18" d="m229.56,237.52l-12.61,32.59,31.34,18.65c3.17-5.68,4.65-12.16,4.27-18.65-.79-14.55-10.2-27.06-23-32.59Z"/>
    <path class="cls-27" d="m247.48,286.02s-.03,0-.04,0l-28.01-16.68s-.05-.07-.03-.11l11.19-28.95s.06-.07.11-.05c0,0,0,0,.01,0,5.66,2.86,10.48,7.14,14,12.42,3.5,5.23,5.54,11.3,5.9,17.59.31,5.42-.74,10.83-3.05,15.74-.01.02-.03.04-.05.05h-.02Zm-27.9-16.81l27.87,16.6c2.28-4.86,3.3-10.22,2.99-15.58-.68-12.58-8.24-24-19.73-29.82l-11.14,28.8Z"/>
    <path class="cls-27" d="m208.82,270.4h0l-31.86-5.35s-.04-.02-.05-.03c0-.02,0-.04,0-.06,1.24-7.31,5.04-13.94,10.71-18.7,5.79-4.77,13.07-7.35,20.58-7.31,4.08,0,8.12.72,11.95,2.14.02,0,.04.02.05.04,0,.02,0,.05,0,.07l-11.29,29.17s-.05.05-.09.05Zm-31.74-5.5l31.69,5.32,11.23-29.02c-3.78-1.39-7.78-2.1-11.81-2.1-15.65,0-28.43,10.6-31.11,25.79Z"/>
    <path class="cls-16" d="m207.93,273.65l-33.24-7.01-2.2,1.06c-.22,1.98-.28,3.97-.17,5.95,1.06,19.67,17.87,35.61,37.54,35.61,12.82,0,23.69-6.78,29.41-16.96l-31.34-18.66Z"/>
    <path class="cls-28" d="m207.93,273.65l-33.24-7.01-2.2,1.06c-.22,1.98-.28,3.97-.17,5.95,1.06,19.67,17.87,35.61,37.54,35.61,12.82,0,23.69-6.78,29.41-16.96l-31.34-18.66Z"/>
    <path class="cls-16" d="m210.12,272.6l-35.44-5.95c-.22,1.98-.28,3.97-.18,5.95,1.07,19.67,17.87,35.61,37.54,35.61,12.82,0,23.69-6.78,29.41-16.96l-31.34-18.65Z"/>
    <path class="cls-27" d="m212.05,306.26c-18.62,0-34.59-15.15-35.61-33.77-.06-1.16-.06-2.32,0-3.48,0-.02.01-.05.03-.06.02-.02.04-.02.07-.02l32.87,5.52h.03l29.26,17.43s.04.03.04.05c0,.02,0,.04,0,.06-2.85,4.4-6.76,8-11.37,10.48-4.72,2.49-9.98,3.79-15.31,3.77Zm-35.44-37.14c-.05,1.12-.05,2.25,0,3.36,1.02,18.53,16.9,33.61,35.42,33.61,11.01,0,20.66-5.14,26.49-14.1l-29.17-17.37-32.75-5.5Z"/>
  </g>
</svg>