<?xml version="1.0" encoding="UTF-8" standalone="no"?>
<svg
   viewBox="0 0 387.78 317.47998"
   version="1.1"
   id="svg148"
   sodipodi:docname="error.svg"
   width="387.78"
   height="317.47998"
   inkscape:version="1.2.2 (732a01da63, 2022-12-09)"
   xmlns:inkscape="http://www.inkscape.org/namespaces/inkscape"
   xmlns:sodipodi="http://sodipodi.sourceforge.net/DTD/sodipodi-0.dtd"
   xmlns="http://www.w3.org/2000/svg"
   xmlns:svg="http://www.w3.org/2000/svg">
  <defs
     id="defs152" />
  <sodipodi:namedview
     id="namedview150"
     pagecolor="#ffffff"
     bordercolor="#000000"
     borderopacity="0.25"
     inkscape:showpageshadow="2"
     inkscape:pageopacity="0.0"
     inkscape:pagecheckerboard="0"
     inkscape:deskcolor="#d1d1d1"
     showgrid="false"
     inkscape:zoom="2.054"
     inkscape:cx="182.08374"
     inkscape:cy="33.106134"
     inkscape:window-width="3840"
     inkscape:window-height="2054"
     inkscape:window-x="2549"
     inkscape:window-y="-11"
     inkscape:window-maximized="1"
     inkscape:current-layer="freepik--Character--inject-2" />
  <g
     id="freepik--Shadow--inject-2"
     transform="translate(-56.110001,-110.08)">
    <ellipse
       id="freepik--path--inject-2"
       cx="250"
       cy="416.23999"
       rx="193.89"
       ry="11.32"
       style="fill:#f5f5f5" />
  </g>
  <g
     id="freepik--Character--inject-2"
     transform="translate(-56.110001,-110.08)">
    <path
       d="m 360.6,263.05 h -0.36 c -26.64,-2.18 -45,-25 -45.74,-25.92 a 4.47,4.47 0 0 1 7,-5.55 c 0.21,0.27 15.9,19.61 37.63,22.37 7,-7 13,-25.48 12.33,-31.07 0,-0.06 0,-0.11 0,-0.16 -0.14,-1.8 -0.48,-8 1.29,-11.65 a 4.47,4.47 0 0 1 8,3.88 c -0.44,0.92 -0.65,4.23 -0.44,7 1,9.2 -7,32.42 -17,40.19 a 4.47,4.47 0 0 1 -2.71,0.91 z"
       style="fill:#263238"
       id="path51" />
    <path
       d="M 148.82,238.82 A 65.8,65.8 0 0 1 100.26,216.54 4.46,4.46 0 0 1 100,210.9 c 7.22,-9.71 20,-32.64 22,-40.11 a 10.91,10.91 0 0 0 -4.14,-4.33 4.45,4.45 0 0 1 -2.55,-3.61 l -0.72,-7.32 a 4.47,4.47 0 0 1 8.89,-0.88 l 0.5,5.09 a 22.34,22.34 0 0 1 6.81,8.65 4.48,4.48 0 0 1 0.32,2.26 c -0.92,7.93 -13.79,30.9 -21.71,42.51 18.49,18.43 40.59,16.75 41.56,16.66 a 4.47,4.47 0 0 1 0.82,8.9 c -0.26,0.02 -1.29,0.1 -2.96,0.1 z"
       style="fill:#263238"
       id="path53" />
    <path
       d="m 292.87,416.09 h -12 a 4.47,4.47 0 0 1 -4.31,-5.66 c 3.13,-11.24 4.67,-20.39 5.82,-34.71 -4.24,-20 -8.23,-38.21 -8.27,-38.39 a 4.47,4.47 0 0 1 8.73,-1.91 c 0,0.18 4.12,18.86 8.41,39.08 a 4.23,4.23 0 0 1 0.08,1.28 c -1,12.86 -2.31,21.75 -4.67,31.38 h 6.18 a 4.47,4.47 0 0 1 0,8.93 z"
       style="fill:#263238"
       id="path55" />
    <path
       d="m 200.32,416.09 h -6.76 a 4.45,4.45 0 0 1 -4.42,-5.08 c 1.15,-8.2 7,-23.13 13.3,-38.14 2.23,-19.8 4.05,-36.8 4.07,-37 a 4.47,4.47 0 1 1 8.88,1 c 0,0.17 -1.88,17.56 -4.15,37.65 a 4.31,4.31 0 0 1 -0.32,1.22 c -4.43,10.63 -9.49,23.15 -11.8,31.44 h 1.2 a 4.47,4.47 0 1 1 0,8.93 z"
       style="fill:#263238"
       id="path57" />
    <path
       d="m 204.21,111 -52.06,52.07 c -2.62,57.71 -2.41,118.33 0,181.18 h 172.16 c -3.41,-81.1 -3.73,-159.17 0,-233.25 z"
       style="display:inline;fill:#ffffff"
       id="path59"
       sodipodi:insensitive="true" />
    <path
       d="M 324.31,345.13 H 152.15 a 0.9,0.9 0 0 1 -0.9,-0.86 C 148.76,279 148.76,218 151.25,163 a 0.9,0.9 0 0 1 0.27,-0.59 l 52.06,-52.07 a 0.89,0.89 0 0 1 0.63,-0.26 h 120.1 a 0.9,0.9 0 0 1 0.65,0.28 0.87,0.87 0 0 1 0.24,0.66 c -3.59,71.34 -3.59,147.61 0,233.17 a 0.89,0.89 0 0 1 -0.25,0.65 0.86,0.86 0 0 1 -0.64,0.29 z M 153,343.34 h 170.38 c -3.54,-84.86 -3.55,-160.59 0,-231.47 H 204.58 L 153,163.43 c -2.45,54.64 -2.45,115.16 0,179.91 z"
       style="fill:#263238"
       id="path61" />
    <path
       d="m 214.28,219.19 c -0.2,-4.36 -2.67,-7.8 -5.53,-7.7 -2.86,0.1 -5,3.71 -4.82,8.07 0.18,4.36 2.67,7.8 5.53,7.69 2.86,-0.11 5.02,-3.71 4.82,-8.06 z"
       style="fill:#191558"
       id="path103" />
    <path
       d="m 274.65,217.82 c -0.2,-4.35 -2.67,-7.79 -5.53,-7.69 -2.86,0.1 -5,3.71 -4.82,8.07 0.18,4.36 2.68,7.8 5.53,7.69 2.85,-0.11 5.02,-3.71 4.82,-8.07 z"
       style="fill:#191558"
       id="path105" />
    <path
       d="m 229.35,237 a 36.55,36.55 0 0 1 28.63,1.3 1.27,1.27 0 0 1 0.49,1.74 1.3,1.3 0 0 1 -1.75,0.49 c -0.15,-0.08 -14.4,-7.76 -31.41,1 a 1.31,1.31 0 0 1 -1.74,-0.54 1.27,1.27 0 0 1 0.55,-1.72 41.73,41.73 0 0 1 5.23,-2.27 z"
       style="fill:#191558"
       id="path107" />
    <path
       d="m 205.64,178.34 a 2.64,2.64 0 0 1 1.26,0.36 2.58,2.58 0 0 1 0.92,3.51 25.29,25.29 0 0 1 -19.55,12.79 2.59,2.59 0 0 1 -2.69,-2.45 2.55,2.55 0 0 1 2.44,-2.66 v 0 c 0.39,0 9.62,-0.58 15.36,-10.27 a 2.52,2.52 0 0 1 2.26,-1.28 z"
       style="fill:#191558"
       id="path109" />
    <path
       d="m 266.05,176.87 a 2.57,2.57 0 0 1 2.33,0.72 c 8,8 17.14,6.39 17.52,6.32 a 2.6,2.6 0 0 1 3,2 2.54,2.54 0 0 1 -2,3 c -0.5,0.09 -12.14,2.31 -22.21,-7.75 a 2.54,2.54 0 0 1 1.31,-4.3 z"
       style="fill:#191558"
       id="path111" />
    <path
       d="m 209,167.69 c -5.09,-13.89 -10.18,-36.12 -4.81,-56.71 l -52.06,52.07 c 14.73,4.95 38.19,7.06 56.87,4.64 z"
       style="opacity:0.2"
       id="path115" />
    <path
       d="m 204.21,163.05 c -5.71,-16.86 -3.38,-39.78 0,-52.07 l -52.06,52.07 c 15.76,2.87 33.37,2.41 52.06,0 z"
       style="fill:#ffffff"
       id="path117" />
    <path
       d="m 176,165.92 a 133.14,133.14 0 0 1 -24,-2 0.88,0.88 0 0 1 -0.47,-1.5 l 52.06,-52.07 a 0.89,0.89 0 0 1 1.49,0.87 c -3.14,11.44 -5.75,34.6 0,51.54 a 0.93,0.93 0 0 1 -0.09,0.76 0.87,0.87 0 0 1 -0.64,0.41 221.85,221.85 0 0 1 -28.35,1.99 z m -22,-3.46 c 13.84,2.29 29.91,2.24 49,-0.16 -4.71,-14.94 -3.64,-34.71 -0.48,-48.4 z"
       style="fill:#263238"
       id="path119" />
  </g>
</svg>
