<?xml version="1.0" encoding="UTF-8" standalone="no"?>
<svg
   viewBox="0 0 467.97238 316.44565"
   version="1.1"
   id="svg20"
   width="467.97238"
   height="316.44565"
   xml:space="preserve"
   xmlns="http://www.w3.org/2000/svg"
   xmlns:svg="http://www.w3.org/2000/svg"><defs
     id="defs24" /><g
     id="freepik--background-simple--inject-6"
     transform="translate(-149.38598,-71.457181)"><path
       d="m 150.68,164.37 c -8.53,67.1 25.89,135.89 80.27,176.12 54.38,40.23 125.94,53.51 192.9,43.87 47.8,-6.85 95.21,-25.59 128.9,-60.18 33.69,-34.59 51.45,-86.56 37.88,-132.9 -5.13,-17.5 -15.2,-34.46 -31.18,-43.25 -25.52,-14 -57,-3.74 -84.18,6.78 -27.18,10.52 -58.61,20.88 -84.19,7 -19.65,-10.69 -29.75,-32.7 -44.15,-49.82 -24.49,-29.11 -64.28,-44.57 -102,-39.62 a 108.44,108.44 0 0 0 -14,2.79 C 190.8,85.93 160.46,118.9 151.7,159.52 Z"
       style="fill:#ededff;fill-opacity:1"
       id="path2" /></g><g
     id="freepik--Folder--inject-6"
     transform="translate(-92.910798,-124.52437)"><path
       d="m 299,234.54 -35.4,181.8 -4.6,23.8 236,-1.14 c 10.6,-0.05 20,-9.46 23.39,-23.44 l 41.86,-171.63 c 2.59,-10.61 -3.09,-21.65 -11.13,-21.64 l -238.92,0.25 c -5.2,-0.01 -9.86,4.91 -11.2,12 z"
       style="fill:#ff725e"
       id="path5" /><g
       style="opacity:0.5"
       id="g9"><path
         d="m 299,234.54 -35.4,181.8 -4.6,23.8 236,-1.14 c 10.6,-0.05 20,-9.46 23.39,-23.44 l 41.86,-171.63 c 2.59,-10.61 -3.09,-21.65 -11.13,-21.64 l -238.92,0.25 c -5.2,-0.01 -9.86,4.91 -11.2,12 z"
         id="path7"
         style="fill:#fa595f;fill-opacity:1" /></g><path
       d="m 472.39,404 -25,-201.41 c -1,-8.25 -7.59,-14.41 -15.36,-14.38 l -54.8,0.17 a 15,15 0 0 0 -10.83,4.8 l -26,27.67 -152.4,0.82 c -9.31,0.05 -16.47,8.87 -15.24,18.77 l 23.21,186.15 c 1,8.24 7.59,14.39 15.34,14.38 l 265.65,-0.53 c 29.58,0.61 32.41,-8.12 32.41,-8.12 -33.96,7.51 -36.98,-28.27 -36.98,-28.32 z"
       style="fill:#fa595f;fill-opacity:1"
       id="path11" /><g
       style="opacity:0.902637;fill:#ffffff;fill-opacity:1"
       id="g17"><polygon
         points="357.84,363.72 348.88,373.34 279.88,311.26 288.84,301.64 "
         style="fill:#ffffff;fill-opacity:1"
         id="polygon13" /><polygon
         points="345.13,299.51 355.03,308.42 292.6,375.47 282.69,366.56 "
         style="fill:#ffffff;fill-opacity:1"
         id="polygon15" /></g></g></svg>
