<?xml version="1.0" encoding="UTF-8" standalone="no"?>
<svg
   viewBox="0 0 368.4238 222.13804"
   version="1.1"
   id="svg2596"
   sodipodi:docname="sync-success.svg"
   width="368.4238"
   height="222.13803"
   inkscape:version="1.2.2 (732a01da63, 2022-12-09)"
   inkscape:export-filename="..\Desktop\LSN\LaSocieteNouvelle-METRIZ-WebApp\public\illus\sync.svg"
   inkscape:export-xdpi="36.099998"
   inkscape:export-ydpi="36.099998"
   xmlns:inkscape="http://www.inkscape.org/namespaces/inkscape"
   xmlns:sodipodi="http://sodipodi.sourceforge.net/DTD/sodipodi-0.dtd"
   xmlns="http://www.w3.org/2000/svg"
   xmlns:svg="http://www.w3.org/2000/svg">
  <defs
     id="defs2600">
					
					
				</defs>
  <sodipodi:namedview
     id="namedview2598"
     pagecolor="#ffffff"
     bordercolor="#000000"
     borderopacity="0.25"
     inkscape:showpageshadow="2"
     inkscape:pageopacity="0.0"
     inkscape:pagecheckerboard="0"
     inkscape:deskcolor="#d1d1d1"
     showgrid="false"
     showguides="false"
     inkscape:zoom="2.8284271"
     inkscape:cx="155.91705"
     inkscape:cy="149.19953"
     inkscape:window-width="2560"
     inkscape:window-height="1334"
     inkscape:window-x="2389"
     inkscape:window-y="-11"
     inkscape:window-maximized="1"
     inkscape:current-layer="svg2596" />
  <g
     id="freepik--background-simple--inject-21-4"
     transform="translate(-80.860606,-106.66721)"
     style="display:inline;fill:#ededff;fill-opacity:1">
    <path
       d="m 443.79,238.57 c -6.7,-15.91 -30.47,-35.84 -48.87,-39.39 -23.51,-4.54 -32.28,10.29 -52.1,11.14 -53.52,2.27 -81.22,-36.15 -114.29,-69.64 -73.29,-74.24 -186.12,-18.5 -134.65,85.75 30.94,62.67 125,149.86 193.68,71 29.67,-34.08 12.26,-48.07 62.32,-30.25 19.75,7.03 124.28,43.48 93.91,-28.61 z"
       style="fill:#ededff;fill-opacity:1"
       id="path2553-9" />
    <path
       d="m 443.79,238.57 c -6.7,-15.91 -30.47,-35.84 -48.87,-39.39 -23.51,-4.54 -32.28,10.29 -52.1,11.14 -53.52,2.27 -81.22,-36.15 -114.29,-69.64 -73.29,-74.24 -186.12,-18.5 -134.65,85.75 30.94,62.67 125,149.86 193.68,71 29.67,-34.08 12.26,-48.07 62.32,-30.25 19.75,7.03 124.28,43.48 93.91,-28.61 z"
       style="opacity:0.844;fill:#ededff;fill-opacity:1;stroke:none;stroke-opacity:1"
       id="path2555-4" />
  </g>
  <g
     id="freepik--Notebook--inject-21-7"
     transform="translate(-64.091371,-134.8779)"
     style="display:inline">
    <path
       d="M 343.13,348.35 H 177.66 a 3.82,3.82 0 0 1 -3.85,-4 l 4.76,-108.14 a 4.27,4.27 0 0 1 4.21,-4 h 165.48 a 3.84,3.84 0 0 1 3.85,4 l -4.77,108.14 a 4.26,4.26 0 0 1 -4.21,4 z"
       style="fill:#263238"
       id="path2571-9" />
    <path
       d="M 341.23,348.35 H 175.75 a 3.82,3.82 0 0 1 -3.85,-4 l 4.77,-108.14 a 4.27,4.27 0 0 1 4.2,-4 h 165.48 a 3.83,3.83 0 0 1 3.85,4 l -4.77,108.14 a 4.26,4.26 0 0 1 -4.2,4 z"
       style="fill:#191558"
       id="path2573-0" />
    <path
       d="M 343.06,350.11 H 177.58 a 4.26,4.26 0 0 0 -4,2.77 0.93,0.93 0 0 0 0.89,1.25 h 171.29 a 1,1 0 0 0 1,-1.25 3.82,3.82 0 0 0 -3.7,-2.77 z"
       style="fill:#263238"
       id="path2575-7" />
    <path
       d="M 314,350.11 H 148.55 a 4.26,4.26 0 0 0 -4,2.77 0.93,0.93 0 0 0 0.88,1.25 h 171.3 a 1,1 0 0 0 1,-1.25 3.82,3.82 0 0 0 -3.73,-2.77 z"
       style="fill:#191558"
       id="path2577-0" />
    <path
       d="m 246.15,352.37 h -29.93 a 1.9,1.9 0 0 0 -1.58,1.76 h 32.94 a 1.7,1.7 0 0 0 -1.43,-1.76 z"
       style="opacity:0.8;fill:#ffffff"
       id="path2579-8" />
    <path
       d="m 180,342 a 1.51,1.51 0 0 1 -1.52,-1.59 l 4.42,-100.3 a 1.69,1.69 0 0 1 1.66,-1.59 h 157.59 a 1.52,1.52 0 0 1 1.52,1.59 l -4.42,100.3 a 1.69,1.69 0 0 1 -1.66,1.59 z"
       style="opacity:1;fill:#ffffff;fill-opacity:1"
       id="path2581-1" />
    <polygon
       points="188.93,348.36 214.96,348.36 236.69,232.16 210.66,232.16 "
       style="opacity:0.2;fill:#ffffff"
       id="polygon2587-0" />
    <polygon
       points="221.53,348.36 224.59,348.36 246.32,232.16 243.26,232.16 "
       style="opacity:0.2;fill:#ffffff"
       id="polygon2589-1" />
    <polygon
       points="300.12,348.36 312.12,348.36 333.84,232.16 321.85,232.16 "
       style="opacity:0.3;fill:#ffffff"
       id="polygon2591-6" />
    <path
       d="m 264.64,235.52 a 1.24,1.24 0 0 1 -1.23,1.17 1.11,1.11 0 0 1 -1.12,-1.17 1.25,1.25 0 0 1 1.23,-1.18 1.12,1.12 0 0 1 1.12,1.18 z"
       style="opacity:0.3"
       id="path2593-0" />
  </g>
  <g
     id="g315"
     style="fill:#09e665;fill-opacity:1"
     transform="matrix(0.34205967,0,0,0.34205967,-287.91201,-469.82929)">
						<g
   id="g293"
   style="fill:#09e665;fill-opacity:1">
							
							
						</g>

						
					</g>
  <ellipse
     style="display:inline;opacity:0.703854;fill:#36e775;fill-opacity:1;stroke:none;stroke-width:16.372;stroke-dasharray:none;stroke-opacity:1"
     id="path49449"
     cx="198.653"
     cy="156.05193"
     rx="23.88356"
     ry="23.799017" />
  <g
     id="g282"
     style="fill:#332f6c;fill-opacity:0.956863;stroke:#191558;stroke-opacity:0"
     transform="matrix(0.13433494,0,0,0.13433494,71.858802,-129.22403)">
								
									<linearGradient
   id="linearGradient1047"
   gradientUnits="userSpaceOnUse"
   x1="1347.7524"
   y1="2063.0613"
   x2="1685.313"
   y2="2063.0613">
									<stop
   offset="0"
   style="stop-color:#FB6FBB"
   id="stop1043" />

									<stop
   offset="1"
   style="stop-color:#FF9085"
   id="stop1045" />

								</linearGradient>

								<path
   style="fill:#332f6c;fill-opacity:0.956863;stroke:#191558;stroke-opacity:0"
   d="m 776.94409,2198.8568 c -3.369,0 -6.559,-2.013 -7.898,-5.33 -8.936,-22.133 -13.467,-45.561 -13.467,-69.632 0,-102.617 83.485,-186.102 186.102,-186.102 58.81101,0 114.80801,28.279 149.79301,75.648 2.794,3.782 1.992,9.113 -1.791,11.907 -3.782,2.794 -9.113,1.992 -11.907,-1.791 -31.788,-43.039 -82.66401,-68.734 -136.09501,-68.734 -93.227,0 -169.073,75.846 -169.073,169.073 0,21.876 4.115,43.159 12.229,63.258 1.76,4.359 -0.348,9.322 -4.708,11.083 -1.044,0.421 -2.123,0.62 -3.185,0.62 z"
   id="path280" />

							</g>
  <g
     id="g291"
     style="fill:#332f6c;fill-opacity:0.956863;stroke:#191558;stroke-opacity:0"
     transform="matrix(0.13433494,0,0,0.13433494,71.858802,-129.22403)">
								
									<linearGradient
   id="linearGradient1055"
   gradientUnits="userSpaceOnUse"
   x1="1641.5015"
   y1="2000.3108"
   x2="1691.6765"
   y2="2000.3108">
									<stop
   offset="0"
   style="stop-color:#FB6FBB"
   id="stop1051" />

									<stop
   offset="1"
   style="stop-color:#FF9085"
   id="stop1053" />

								</linearGradient>

								<path
   style="fill:#332f6c;fill-opacity:0.956863;stroke:#191558;stroke-opacity:0"
   d="m 1057.8391,2028.5148 c -4.618,0 -8.41,-3.515 -8.508,-8.155 -0.101,-4.702 3.628,-8.506 8.329,-8.607 l 21.287,-0.413 3.646,-21.616 c 0.78,-4.636 5.184,-7.748 9.81,-6.97 4.637,0.78 7.762,5.179 6.981,9.816 l -4.815,28.587 c -0.678,4.03 -4.126,6.836 -8.213,6.923 l -28.33,0.434 c -0.062,10e-4 -0.125,10e-4 -0.187,10e-4 z"
   id="path289" />

							</g>
  <g
     id="g313"
     style="fill:#3b3872;fill-opacity:1;stroke:#191558;stroke-opacity:0"
     transform="matrix(0.13433494,0,0,0.13433494,71.858802,-129.22403)">
							<g
   id="g302"
   style="fill:#3b3872;fill-opacity:1;stroke:#191558;stroke-opacity:0">
								
									<linearGradient
   id="linearGradient1064"
   gradientUnits="userSpaceOnUse"
   x1="1385.5562"
   y1="2178.127"
   x2="1719.9557"
   y2="2178.127">
									<stop
   offset="0"
   style="stop-color:#FB6FBB"
   id="stop1060" />

									<stop
   offset="1"
   style="stop-color:#FF9085"
   id="stop1062" />

								</linearGradient>

								<path
   style="fill:#3b3872;fill-opacity:1;stroke:#191558;stroke-opacity:0"
   d="m 941.68109,2309.9968 c -57.531,0 -110.921,-25.987 -146.481,-71.297 -2.903,-3.699 -2.258,-9.051 1.442,-11.954 3.7,-2.903 9.052,-2.256 11.954,1.442 32.31,41.168 80.818,64.78 133.085,64.78 93.22701,0 169.07301,-75.846 169.07301,-169.073 0,-19.133 -3.168,-37.901 -9.417,-55.786 -1.551,-4.439 0.79,-9.295 5.23,-10.846 4.439,-1.549 9.295,0.791 10.846,5.23 6.881,19.695 10.37,40.352 10.37,61.402 0,102.617 -83.485,186.102 -186.10201,186.102 z"
   id="path300" />

							</g>

							<g
   id="g311"
   style="fill:#3b3872;fill-opacity:1;stroke:#191558;stroke-opacity:0">
								
									<linearGradient
   id="linearGradient1072"
   gradientUnits="userSpaceOnUse"
   x1="1375.6094"
   y1="2236.2188"
   x2="1427.2375"
   y2="2236.2188">
									<stop
   offset="0"
   style="stop-color:#FB6FBB"
   id="stop1068" />

									<stop
   offset="1"
   style="stop-color:#FF9085"
   id="stop1070" />

								</linearGradient>

								<path
   style="fill:#3b3872;fill-opacity:1;stroke:#191558;stroke-opacity:0"
   d="m 791.96209,2263.9718 c -0.56,0 -1.126,-0.055 -1.695,-0.17 -4.61,-0.931 -7.592,-5.422 -6.66,-10.031 l 5.611,-27.862 c 0.803,-3.976 4.298,-6.916 8.345,-6.916 0.032,0 0.063,0 0.095,0 l 28.986,0.406 c 4.703,0.052 8.472,3.949 8.421,8.652 -0.052,4.701 -3.947,8.534 -8.608,8.442 l -21.941,-0.231 -4.217,20.875 c -0.817,4.041 -4.368,6.835 -8.337,6.835 z"
   id="path309" />

							</g>

						</g>
  <g
     id="g324"
     style="fill:#ffffff;fill-opacity:1;stroke:#191558;stroke-opacity:0"
     transform="matrix(0.13433494,0,0,0.13433494,71.858797,-129.22403)">
						
							<linearGradient
   id="linearGradient1082"
   gradientUnits="userSpaceOnUse"
   x1="1444.6312"
   y1="2128.3274"
   x2="1643.2765"
   y2="2128.3274">
							<stop
   offset="0"
   style="stop-color:#FB6FBB"
   id="stop1078" />

							<stop
   offset="1"
   style="stop-color:#FF9085"
   id="stop1080" />

						</linearGradient>

						<path
   style="fill:#ffffff;fill-opacity:1;stroke:#191558;stroke-opacity:0"
   d="m 924.35309,2213.8408 c -2.687,0 -5.394,-0.721 -7.824,-2.21 l -56.916,-34.891 c -7.055,-4.324 -9.269,-13.551 -4.943,-20.608 4.328,-7.05 13.555,-9.26 20.608,-4.943 l 46.014,28.21 103.44201,-120.82 c 5.383,-6.282 14.842,-7.024 21.129,-1.635 6.287,5.382 7.019,14.842 1.637,21.128 l -111.75801,130.529 c -2.936,3.429 -7.134,5.24 -11.389,5.24 z"
   id="path322" />

					</g>
  <g
     id="g55594"
     transform="matrix(0.7427429,0,0,0.7427429,63.80073,3.1447672)">
    <path
       d="m 221.08147,65.519021 a 17.53,17.53 0 0 0 -23.45,-15.46 23.84,23.84 0 0 0 -43.31999,7.66 h -0.83001 a 24.1,24.1 0 0 0 0,48.189999 h 58.94 a 21.11,21.11 0 0 0 8.66,-40.369999 z"
       style="display:inline;fill:#342f6c;fill-opacity:0.956863;stroke:#191558;stroke-width:0.5;stroke-dasharray:none;stroke-opacity:1"
       id="path2564-7" />
    <path
       d="m 182.30148,74.109021 -9.40001,-9.39 a 0.82,0.82 0 0 0 -1.16999,0 l -9.40001,9.39 a 0.83,0.83 0 0 0 0.59001,1.42 h 4 a 0.84,0.84 0 0 1 0.83,0.84 v 13.11 a 0.83,0.83 0 0 0 0.83,0.83 h 7.53 a 0.83,0.83 0 0 0 0.83,-0.83 v -13.11 a 0.84,0.84 0 0 1 0.83,-0.84 h 4 a 0.83,0.83 0 0 0 0.53,-1.42 z"
       style="display:inline;fill:#ededff;fill-opacity:1;stroke:none;stroke-opacity:1"
       id="path2566-4" />
    <path
       d="m 180.62148,80.669021 9.39999,9.4 a 0.85,0.85 0 0 0 1.18,0 l 9.39,-9.4 a 0.83,0.83 0 0 0 -0.58,-1.42 h -4 a 0.84,0.84 0 0 1 -0.83999,-0.83 v -13.12 a 0.83,0.83 0 0 0 -0.83,-0.83 h -7.52 a 0.84,0.84 0 0 0 -0.84,0.83 v 13.12 a 0.83,0.83 0 0 1 -0.83,0.83 h -4 a 0.83,0.83 0 0 0 -0.53,1.42 z"
       style="display:inline;fill:#ededff;fill-opacity:1;stroke:none;stroke-opacity:1"
       id="path2568-3" />
  </g>
</svg>
