<?xml version="1.0" encoding="UTF-8" standalone="no"?>
<svg
   viewBox="0 0 368.4238 239.4384"
   version="1.1"
   id="svg2596"
   width="368.4238"
   height="239.4384"
   xmlns="http://www.w3.org/2000/svg"
   xmlns:svg="http://www.w3.org/2000/svg">
  <defs
     id="defs2600" />
  <g
     id="freepik--background-simple--inject-21"
     transform="translate(-80.860606,-106.66721)"
     style="opacity:1;fill:#ededff;fill-opacity:1">
    <path
       d="m 443.79,238.57 c -6.7,-15.91 -30.47,-35.84 -48.87,-39.39 -23.51,-4.54 -32.28,10.29 -52.1,11.14 -53.52,2.27 -81.22,-36.15 -114.29,-69.64 -73.29,-74.24 -186.12,-18.5 -134.65,85.75 30.94,62.67 125,149.86 193.68,71 29.67,-34.08 12.26,-48.07 62.32,-30.25 19.75,7.03 124.28,43.48 93.91,-28.61 z"
       style="fill:#ededff;fill-opacity:1"
       id="path2553" />
    <path
       d="m 443.79,238.57 c -6.7,-15.91 -30.47,-35.84 -48.87,-39.39 -23.51,-4.54 -32.28,10.29 -52.1,11.14 -53.52,2.27 -81.22,-36.15 -114.29,-69.64 -73.29,-74.24 -186.12,-18.5 -134.65,85.75 30.94,62.67 125,149.86 193.68,71 29.67,-34.08 12.26,-48.07 62.32,-30.25 19.75,7.03 124.28,43.48 93.91,-28.61 z"
       style="opacity:0.844;fill:#ededff;fill-opacity:1;stroke:none;stroke-opacity:1"
       id="path2555" />
  </g>
  <g
     id="freepik--Notebook--inject-21"
     transform="translate(-68.222203,-114.69212)">
    <path
       d="M 343.13,348.35 H 177.66 a 3.82,3.82 0 0 1 -3.85,-4 l 4.76,-108.14 a 4.27,4.27 0 0 1 4.21,-4 h 165.48 a 3.84,3.84 0 0 1 3.85,4 l -4.77,108.14 a 4.26,4.26 0 0 1 -4.21,4 z"
       style="fill:#263238"
       id="path2571" />
    <path
       d="M 341.23,348.35 H 175.75 a 3.82,3.82 0 0 1 -3.85,-4 l 4.77,-108.14 a 4.27,4.27 0 0 1 4.2,-4 h 165.48 a 3.83,3.83 0 0 1 3.85,4 l -4.77,108.14 a 4.26,4.26 0 0 1 -4.2,4 z"
       style="fill:#191558"
       id="path2573" />
    <path
       d="M 343.06,350.11 H 177.58 a 4.26,4.26 0 0 0 -4,2.77 0.93,0.93 0 0 0 0.89,1.25 h 171.29 a 1,1 0 0 0 1,-1.25 3.82,3.82 0 0 0 -3.7,-2.77 z"
       style="fill:#263238"
       id="path2575" />
    <path
       d="M 314,350.11 H 148.55 a 4.26,4.26 0 0 0 -4,2.77 0.93,0.93 0 0 0 0.88,1.25 h 171.3 a 1,1 0 0 0 1,-1.25 3.82,3.82 0 0 0 -3.73,-2.77 z"
       style="fill:#191558"
       id="path2577" />
    <path
       d="m 246.15,352.37 h -29.93 a 1.9,1.9 0 0 0 -1.58,1.76 h 32.94 a 1.7,1.7 0 0 0 -1.43,-1.76 z"
       style="opacity:0.8;fill:#ffffff"
       id="path2579" />
    <path
       d="m 180,342 a 1.51,1.51 0 0 1 -1.52,-1.59 l 4.42,-100.3 a 1.69,1.69 0 0 1 1.66,-1.59 h 157.59 a 1.52,1.52 0 0 1 1.52,1.59 l -4.42,100.3 a 1.69,1.69 0 0 1 -1.66,1.59 z"
       style="opacity:1;fill:#ffffff"
       id="path2581" />
    <ellipse
       style="display:inline;opacity:1;fill:#191558;fill-opacity:1;stroke:none;stroke-width:16.372;stroke-dasharray:none;stroke-opacity:1"
       id="path49449"
       cx="261.07474"
       cy="290.26001"
       rx="23.88356"
       ry="23.799017" />
    <polygon
       points="188.93,348.36 214.96,348.36 236.69,232.16 210.66,232.16 "
       style="opacity:0.2;fill:#ffffff"
       id="polygon2587" />
    <polygon
       points="221.53,348.36 224.59,348.36 246.32,232.16 243.26,232.16 "
       style="opacity:0.2;fill:#ffffff"
       id="polygon2589" />
    <polygon
       points="300.12,348.36 312.12,348.36 333.84,232.16 321.85,232.16 "
       style="opacity:0.3;fill:#ffffff"
       id="polygon2591" />
    <path
       d="m 264.64,235.52 a 1.24,1.24 0 0 1 -1.23,1.17 1.11,1.11 0 0 1 -1.12,-1.17 1.25,1.25 0 0 1 1.23,-1.18 1.12,1.12 0 0 1 1.12,1.18 z"
       style="opacity:0.3"
       id="path2593" />
  </g>
  <g
     id="g55594"
     transform="matrix(0.7427429,0,0,0.7427429,59.862784,9.1856715)">
    <path
       d="m 221.08147,65.519021 a 17.53,17.53 0 0 0 -23.45,-15.46 23.84,23.84 0 0 0 -43.31999,7.66 h -0.83001 a 24.1,24.1 0 0 0 0,48.189999 h 58.94 a 21.11,21.11 0 0 0 8.66,-40.369999 z"
       style="display:inline;fill:#342f6c;fill-opacity:0.956863;stroke:#191558;stroke-width:0.5;stroke-dasharray:none;stroke-opacity:1"
       id="path2564-7" />
    <path
       d="m 182.30148,74.109021 -9.40001,-9.39 a 0.82,0.82 0 0 0 -1.16999,0 l -9.40001,9.39 a 0.83,0.83 0 0 0 0.59001,1.42 h 4 a 0.84,0.84 0 0 1 0.83,0.84 v 13.11 a 0.83,0.83 0 0 0 0.83,0.83 h 7.53 a 0.83,0.83 0 0 0 0.83,-0.83 v -13.11 a 0.84,0.84 0 0 1 0.83,-0.84 h 4 a 0.83,0.83 0 0 0 0.53,-1.42 z"
       style="display:inline;fill:#ededff;fill-opacity:1;stroke:none;stroke-opacity:1"
       id="path2566-4" />
    <path
       d="m 180.62148,80.669021 9.39999,9.4 a 0.85,0.85 0 0 0 1.18,0 l 9.39,-9.4 a 0.83,0.83 0 0 0 -0.58,-1.42 h -4 a 0.84,0.84 0 0 1 -0.83999,-0.83 v -13.12 a 0.83,0.83 0 0 0 -0.83,-0.83 h -7.52 a 0.84,0.84 0 0 0 -0.84,0.83 v 13.12 a 0.83,0.83 0 0 1 -0.83,0.83 h -4 a 0.83,0.83 0 0 0 -0.53,1.42 z"
       style="display:inline;fill:#ededff;fill-opacity:1;stroke:none;stroke-opacity:1"
       id="path2568-3" />
  </g>
  <g
     id="g54805"
     transform="translate(-10.509864,15.245765)">
    <path
       d="m 204.1439,157.27064 -8.74518,-8.73586 a 0.76287923,0.76287923 0 0 0 -1.08853,0 l -8.74522,8.73586 a 0.77218264,0.77218264 0 0 0 0.54893,1.32098 h 3.7214 a 0.78148604,0.78148604 0 0 1 0.77216,0.7815 v 12.19684 a 0.77218264,0.77218264 0 0 0 0.77218,0.77217 h 7.00539 a 0.77218264,0.77218264 0 0 0 0.77223,-0.77217 v -12.19684 a 0.78148604,0.78148604 0 0 1 0.77222,-0.7815 h 3.72139 a 0.77218264,0.77218264 0 0 0 0.49303,-1.32098 z"
       style="display:inline;fill:#ededff;fill-opacity:1;stroke:none;stroke-width:0.93034;stroke-opacity:1"
       id="path2566-4-0" />
    <path
       d="m 202.58109,163.37362 8.74497,8.74516 a 0.7907894,0.7907894 0 0 0 1.09784,0 l 8.73594,-8.74516 a 0.77218264,0.77218264 0 0 0 -0.53966,-1.32098 h -3.72139 a 0.78148604,0.78148604 0 0 1 -0.78148,-0.77219 V 149.0743 a 0.77218264,0.77218264 0 0 0 -0.77212,-0.77217 h -6.99612 a 0.78148604,0.78148604 0 0 0 -0.7815,0.77217 v 12.20615 a 0.77218264,0.77218264 0 0 1 -0.77217,0.77219 h -3.72136 a 0.77218264,0.77218264 0 0 0 -0.49295,1.32098 z"
       style="display:inline;fill:#ededff;fill-opacity:1;stroke:none;stroke-width:0.93034;stroke-opacity:1"
       id="path2568-3-7" />
  </g>
</svg>
