<?xml version="1.0" encoding="UTF-8" standalone="no"?>
<svg
   viewBox="0 0 368.4238 265.94742"
   version="1.1"
   id="svg2596"
   sodipodi:docname="In sync-rafiki.svg"
   width="368.4238"
   height="265.94742"
   inkscape:version="1.2.2 (732a01da63, 2022-12-09)"
   inkscape:export-filename="..\Desktop\LSN\LaSocieteNouvelle-METRIZ-WebApp\public\illus\sync.svg"
   inkscape:export-xdpi="36.099998"
   inkscape:export-ydpi="36.099998"
   xmlns:inkscape="http://www.inkscape.org/namespaces/inkscape"
   xmlns:sodipodi="http://sodipodi.sourceforge.net/DTD/sodipodi-0.dtd"
   xmlns="http://www.w3.org/2000/svg"
   xmlns:svg="http://www.w3.org/2000/svg">
  <defs
     id="defs2600" />
  <sodipodi:namedview
     id="namedview2598"
     pagecolor="#ffffff"
     bordercolor="#000000"
     borderopacity="0.25"
     inkscape:showpageshadow="2"
     inkscape:pageopacity="0.0"
     inkscape:pagecheckerboard="0"
     inkscape:deskcolor="#d1d1d1"
     showgrid="false"
     showguides="false"
     inkscape:zoom="2.054"
     inkscape:cx="167.47809"
     inkscape:cy="161.63583"
     inkscape:window-width="2560"
     inkscape:window-height="1334"
     inkscape:window-x="-11"
     inkscape:window-y="-11"
     inkscape:window-maximized="1"
     inkscape:current-layer="svg2596" />
  <g
     id="freepik--background-simple--inject-21"
     transform="translate(-80.860606,-88.183095)"
     style="opacity:0.494012">
    <path
       d="m 443.79,238.57 c -6.7,-15.91 -30.47,-35.84 -48.87,-39.39 -23.51,-4.54 -32.28,10.29 -52.1,11.14 -53.52,2.27 -81.22,-36.15 -114.29,-69.64 -73.29,-74.24 -186.12,-18.5 -134.65,85.75 30.94,62.67 125,149.86 193.68,71 29.67,-34.08 12.26,-48.07 62.32,-30.25 19.75,7.03 124.28,43.48 93.91,-28.61 z"
       style="fill:#191558"
       id="path2553" />
    <path
       d="m 443.79,238.57 c -6.7,-15.91 -30.47,-35.84 -48.87,-39.39 -23.51,-4.54 -32.28,10.29 -52.1,11.14 -53.52,2.27 -81.22,-36.15 -114.29,-69.64 -73.29,-74.24 -186.12,-18.5 -134.65,85.75 30.94,62.67 125,149.86 193.68,71 29.67,-34.08 12.26,-48.07 62.32,-30.25 19.75,7.03 124.28,43.48 93.91,-28.61 z"
       style="opacity:0.844;fill:#ffffff;stroke:none;stroke-opacity:1"
       id="path2555" />
  </g>
  <g
     id="freepik--Cloud--inject-21"
     transform="translate(-81.347461,-80.880271)">
    <path
       d="m 298.32,114.6 a 17.53,17.53 0 0 0 -23.45,-15.46 23.84,23.84 0 0 0 -43.32,7.66 h -0.83 a 24.1,24.1 0 1 0 0,48.19 h 58.94 a 21.11,21.11 0 0 0 8.66,-40.37 z"
       style="fill:#263238"
       id="path2558" />
    <path
       d="m 233.15,93.27 -0.7,-0.71 a 27.8,27.8 0 0 1 4.33,-3.47 l 0.54,0.84 a 26.79,26.79 0 0 0 -4.17,3.34 z"
       style="fill:#191558"
       id="path2560" />
    <path
       d="m 217.42,106.26 -0.38,-0.93 a 27.42,27.42 0 0 1 8.61,-2 27.11,27.11 0 0 1 4,-7.56 l 0.8,0.6 A 26,26 0 0 0 226.5,104 l -0.11,0.33 h -0.34 a 26.35,26.35 0 0 0 -8.63,1.93 z"
       style="fill:#191558"
       id="path2562" />
    <path
       d="m 295.08,114.6 a 17.53,17.53 0 0 0 -23.45,-15.46 23.84,23.84 0 0 0 -43.32,7.66 h -0.83 a 24.1,24.1 0 0 0 0,48.19 h 58.94 a 21.11,21.11 0 0 0 8.66,-40.37 z"
       style="fill:#191558"
       id="path2564" />
    <path
       d="m 256.3,123.19 -9.4,-9.39 a 0.82,0.82 0 0 0 -1.17,0 l -9.4,9.39 a 0.83,0.83 0 0 0 0.59,1.42 h 4 a 0.84,0.84 0 0 1 0.83,0.84 v 13.11 a 0.83,0.83 0 0 0 0.83,0.83 h 7.53 a 0.83,0.83 0 0 0 0.83,-0.83 v -13.11 a 0.84,0.84 0 0 1 0.83,-0.84 h 4 a 0.83,0.83 0 0 0 0.53,-1.42 z"
       style="fill:#ffffff"
       id="path2566" />
    <path
       d="m 254.62,129.75 9.4,9.4 a 0.85,0.85 0 0 0 1.18,0 l 9.39,-9.4 a 0.83,0.83 0 0 0 -0.58,-1.42 h -4 a 0.84,0.84 0 0 1 -0.84,-0.83 v -13.12 a 0.83,0.83 0 0 0 -0.83,-0.83 h -7.52 a 0.84,0.84 0 0 0 -0.84,0.83 v 13.12 a 0.83,0.83 0 0 1 -0.83,0.83 h -4 a 0.83,0.83 0 0 0 -0.53,1.42 z"
       style="fill:#ffffff"
       id="path2568" />
  </g>
  <g
     id="freepik--Notebook--inject-21"
     transform="translate(-80.860606,-92.183095)">
    <path
       d="M 343.13,348.35 H 177.66 a 3.82,3.82 0 0 1 -3.85,-4 l 4.76,-108.14 a 4.27,4.27 0 0 1 4.21,-4 h 165.48 a 3.84,3.84 0 0 1 3.85,4 l -4.77,108.14 a 4.26,4.26 0 0 1 -4.21,4 z"
       style="fill:#263238"
       id="path2571" />
    <path
       d="M 341.23,348.35 H 175.75 a 3.82,3.82 0 0 1 -3.85,-4 l 4.77,-108.14 a 4.27,4.27 0 0 1 4.2,-4 h 165.48 a 3.83,3.83 0 0 1 3.85,4 l -4.77,108.14 a 4.26,4.26 0 0 1 -4.2,4 z"
       style="fill:#191558"
       id="path2573" />
    <path
       d="M 343.06,350.11 H 177.58 a 4.26,4.26 0 0 0 -4,2.77 0.93,0.93 0 0 0 0.89,1.25 h 171.29 a 1,1 0 0 0 1,-1.25 3.82,3.82 0 0 0 -3.7,-2.77 z"
       style="fill:#263238"
       id="path2575" />
    <path
       d="M 314,350.11 H 148.55 a 4.26,4.26 0 0 0 -4,2.77 0.93,0.93 0 0 0 0.88,1.25 h 171.3 a 1,1 0 0 0 1,-1.25 3.82,3.82 0 0 0 -3.73,-2.77 z"
       style="fill:#191558"
       id="path2577" />
    <path
       d="m 246.15,352.37 h -29.93 a 1.9,1.9 0 0 0 -1.58,1.76 h 32.94 a 1.7,1.7 0 0 0 -1.43,-1.76 z"
       style="opacity:0.8;fill:#ffffff"
       id="path2579" />
    <path
       d="m 180,342 a 1.51,1.51 0 0 1 -1.52,-1.59 l 4.42,-100.3 a 1.69,1.69 0 0 1 1.66,-1.59 h 157.59 a 1.52,1.52 0 0 1 1.52,1.59 l -4.42,100.3 a 1.69,1.69 0 0 1 -1.66,1.59 z"
       style="opacity:0.9;fill:#ffffff"
       id="path2581" />
    <path
       d="m 252.55,309.19 h -10.73 a 1.62,1.62 0 0 1 -1.64,-1.71 l 0.83,-18.71 a 0.63,0.63 0 0 0 -0.18,-0.47 0.63,0.63 0 0 0 -0.46,-0.19 h -5.66 a 1.61,1.61 0 0 1 -1.52,-1 1.71,1.71 0 0 1 0.42,-1.87 l 14,-13.41 a 1.7,1.7 0 0 1 2.39,0 l 12.81,13.41 a 1.63,1.63 0 0 1 0.31,1.8 1.73,1.73 0 0 1 -1.6,1.07 h -5.66 a 0.75,0.75 0 0 0 -0.74,0.71 l -0.83,18.71 a 1.76,1.76 0 0 1 -1.74,1.66 z m -3.74,-36.86 a 0.75,0.75 0 0 0 -0.51,0.21 l -14,13.4 a 0.72,0.72 0 0 0 -0.18,0.78 0.61,0.61 0 0 0 0.59,0.39 h 5.66 a 1.64,1.64 0 0 1 1.19,0.5 1.62,1.62 0 0 1 0.45,1.21 l -0.83,18.71 a 0.62,0.62 0 0 0 0.64,0.66 h 10.73 a 0.75,0.75 0 0 0 0.74,-0.71 l 0.83,-18.71 a 1.75,1.75 0 0 1 1.74,-1.66 h 5.66 a 0.73,0.73 0 0 0 0.68,-0.46 0.64,0.64 0 0 0 -0.11,-0.72 l -12.82,-13.41 a 0.62,0.62 0 0 0 -0.46,-0.19 z"
       style="fill:#191558"
       id="path2583" />
    <path
       d="m 273.29,309.19 a 1.64,1.64 0 0 1 -1.19,-0.5 l -12.81,-13.41 a 1.65,1.65 0 0 1 -0.32,-1.8 1.75,1.75 0 0 1 1.61,-1.07 h 5.66 a 0.75,0.75 0 0 0 0.74,-0.71 l 0.83,-18.71 a 1.75,1.75 0 0 1 1.73,-1.66 h 10.74 a 1.64,1.64 0 0 1 1.19,0.5 1.62,1.62 0 0 1 0.45,1.21 l -0.83,18.71 a 0.62,0.62 0 0 0 0.17,0.47 0.67,0.67 0 0 0 0.47,0.19 h 5.66 a 1.61,1.61 0 0 1 1.52,1 1.71,1.71 0 0 1 -0.42,1.87 l -14,13.4 a 1.72,1.72 0 0 1 -1.2,0.51 z M 260,294.59 272.82,308 a 0.71,0.71 0 0 0 1,0 l 14,-13.4 a 0.71,0.71 0 0 0 0.19,-0.78 0.61,0.61 0 0 0 -0.59,-0.39 h -5.66 a 1.64,1.64 0 0 1 -1.19,-0.5 1.62,1.62 0 0 1 -0.45,-1.21 l 0.83,-18.71 a 0.67,0.67 0 0 0 -0.18,-0.47 0.63,0.63 0 0 0 -0.46,-0.19 h -10.77 a 0.74,0.74 0 0 0 -0.73,0.71 L 268,291.75 a 1.76,1.76 0 0 1 -1.74,1.66 h -5.66 a 0.76,0.76 0 0 0 -0.69,0.46 0.66,0.66 0 0 0 0.12,0.72 z"
       style="fill:#191558"
       id="path2585" />
    <polygon
       points="236.69,232.16 210.66,232.16 188.93,348.36 214.96,348.36 "
       style="opacity:0.2;fill:#ffffff"
       id="polygon2587" />
    <polygon
       points="246.32,232.16 243.26,232.16 221.53,348.36 224.59,348.36 "
       style="opacity:0.2;fill:#ffffff"
       id="polygon2589" />
    <polygon
       points="333.84,232.16 321.85,232.16 300.12,348.36 312.12,348.36 "
       style="opacity:0.3;fill:#ffffff"
       id="polygon2591" />
    <path
       d="m 264.64,235.52 a 1.24,1.24 0 0 1 -1.23,1.17 1.11,1.11 0 0 1 -1.12,-1.17 1.25,1.25 0 0 1 1.23,-1.18 1.12,1.12 0 0 1 1.12,1.18 z"
       style="opacity:0.3"
       id="path2593" />
  </g>
</svg>
