<?xml version="1.0" encoding="UTF-8" standalone="no"?>
<svg
   viewBox="0 0 258.83264 271.09787"
   version="1.1"
   id="svg50"
   sodipodi:docname="Image upload-rafiki.svg"
   width="258.83264"
   height="271.09787"
   xmlns:inkscape="http://www.inkscape.org/namespaces/inkscape"
   xmlns:sodipodi="http://sodipodi.sourceforge.net/DTD/sodipodi-0.dtd"
   xmlns="http://www.w3.org/2000/svg"
   xmlns:svg="http://www.w3.org/2000/svg">
  <defs
     id="defs54" />
  <sodipodi:namedview
     id="namedview52"
     pagecolor="#ffffff"
     bordercolor="#000000"
     borderopacity="0.25"
     inkscape:showpageshadow="2"
     inkscape:pageopacity="0.0"
     inkscape:pagecheckerboard="0"
     inkscape:deskcolor="#d1d1d1"
     showgrid="false"
     inkscape:zoom="2.054"
     inkscape:cx="27.020448"
     inkscape:cy="99.805258"
     inkscape:window-width="2560"
     inkscape:window-height="1334"
     inkscape:window-x="-11"
     inkscape:window-y="-11"
     inkscape:window-maximized="1"
     inkscape:current-layer="svg50" />
  <g
     id="freepik--background-simple--inject-3"
     transform="translate(-125.77254,-74.970098)"
     inkscape:export-filename="..\Desktop\LSN\LaSocieteNouvelle-METRIZ-WebApp\public\illus\upload.svg"
     inkscape:export-xdpi="53.117348"
     inkscape:export-ydpi="53.117348">
    <path
       d="m 350.08,175.25 c -4.14,35 20.94,88.69 -22.3,107.61 -36.27,15.86 -66.57,-7.09 -96.07,24.65 -21.5,23.13 -58.77,60.53 -86.9,21.78 -22,-30.31 -23.14,-75.54 -12.51,-109.86 8.35,-27 35.42,-82.38 70.69,-87 39.63,-5.22 64.74,46.76 86.5,-5.7 13.09,-31.56 40.71,-68.87 83.8,-43.21 17,10.12 12.11,22.68 3.1,35.75 -13.29,19.27 -23.47,31.92 -26.31,55.98 z"
       style="fill:#191558"
       id="path2" />
    <path
       d="m 350.08,175.25 c -4.14,35 20.94,88.69 -22.3,107.61 -36.27,15.86 -66.57,-7.09 -96.07,24.65 -21.5,23.13 -58.77,60.53 -86.9,21.78 -22,-30.31 -23.14,-75.54 -12.51,-109.86 8.35,-27 35.42,-82.38 70.69,-87 39.63,-5.22 64.74,46.76 86.5,-5.7 13.09,-31.56 40.71,-68.87 83.8,-43.21 17,10.12 12.11,22.68 3.1,35.75 -13.29,19.27 -23.47,31.92 -26.31,55.98 z"
       style="opacity:0.9;fill:#ffffff"
       id="path4" />
  </g>
  <g
     id="g2365"
     transform="translate(-7.0700041,-6.1367023)">
    <g
       id="freepik--upload-window--inject-3"
       transform="translate(-68.000657,-47.219368)">
      <rect
         x="98.300003"
         y="177"
         width="1"
         height="13.33"
         transform="rotate(-1.87,99.045326,183.95357)"
         style="fill:#191558"
         id="rect7" />
      <rect
         x="97.809998"
         y="165.50999"
         width="1"
         height="6.3400002"
         transform="rotate(-1.87,98.371224,168.92657)"
         style="fill:#191558"
         id="rect9" />
      <path
         d="m 112.2,261.87 h 190.86 a 7.56,7.56 0 0 0 7.59,-7.85 L 306.4,123.79 a 8.18,8.18 0 0 0 -8.1,-7.85 H 107.44 a 7.57,7.57 0 0 0 -7.6,7.85 L 104.09,254 a 8.19,8.19 0 0 0 8.11,7.87 z"
         style="fill:#191558"
         id="path11" />
      <path
         d="m 112.81,261.87 h 190.86 a 7.57,7.57 0 0 0 7.6,-7.85 L 307,123.79 a 8.19,8.19 0 0 0 -8.11,-7.85 H 108.05 a 7.56,7.56 0 0 0 -7.59,7.85 L 104.71,254 a 8.18,8.18 0 0 0 8.1,7.87 z"
         style="fill:#191558"
         id="path13" />
      <path
         d="m 112.81,261.87 h 190.86 a 7.57,7.57 0 0 0 7.6,-7.85 L 307,123.79 a 8.19,8.19 0 0 0 -8.11,-7.85 H 108.05 a 7.56,7.56 0 0 0 -7.59,7.85 L 104.71,254 a 8.18,8.18 0 0 0 8.1,7.87 z"
         style="opacity:0.5;fill:#ffffff"
         id="path15" />
      <path
         d="m 298.43,119.86 h -190.87 -0.64 c -4.89,0.4 -4.19,7.82 0.74,7.82 h 191.19 c 4.92,0 5.14,-7.42 0.22,-7.82 -0.21,0.01 -0.43,0 -0.64,0 z"
         style="opacity:0.5;fill:#191558"
         id="path17" />
      <path
         d="m 112.38,123.79 a 1.73,1.73 0 0 1 -1.74,1.79 1.87,1.87 0 0 1 -1.86,-1.79 1.73,1.73 0 0 1 1.74,-1.8 1.86,1.86 0 0 1 1.86,1.8 z"
         style="fill:#fafafa"
         id="path19" />
      <path
         d="m 118.5,123.79 a 1.72,1.72 0 0 1 -1.74,1.79 1.88,1.88 0 0 1 -1.86,-1.79 1.73,1.73 0 0 1 1.74,-1.8 1.86,1.86 0 0 1 1.86,1.8 z"
         style="fill:#fafafa"
         id="path21" />
      <ellipse
         cx="122.82"
         cy="123.79"
         rx="1.77"
         ry="1.83"
         transform="rotate(-45.49,122.83,123.78144)"
         style="fill:#fafafa"
         id="ellipse23" />
      <path
         d="m 116.51,248.87 h 182.62 a 2.73,2.73 0 0 0 2.75,-2.84 l -3.5,-107.11 a 3,3 0 0 0 -2.94,-2.84 H 112.83 a 2.73,2.73 0 0 0 -2.75,2.84 L 113.57,246 a 3,3 0 0 0 2.94,2.87 z"
         style="fill:#ffffff"
         id="path25" />
      <g
         style="opacity:0.3"
         id="g43">
        <polygon
           points="249.47,232.31 250.42,232.28 250.53,235.62 247.19,235.62 247.19,234.67 249.55,234.67 "
           style="fill:#191558"
           id="polygon27" />
        <path
           d="m 241.88,235.62 h -5.31 v -1 h 5.31 z m -10.62,0 H 226 v -1 h 5.31 z m -10.62,0 h -5.31 v -1 h 5.31 z m -10.62,0 h -5.31 v -1 H 210 Z m -10.61,0 h -5.32 v -1 h 5.32 z m -10.62,0 h -5.31 v -1 h 5.31 z m -10.62,0 h -5.31 v -1 h 5.31 z"
           style="fill:#191558"
           id="path29" />
        <polygon
           points="165.16,234.67 167.55,234.67 167.55,235.62 164.24,235.62 164.14,232.31 165.08,232.28 "
           style="fill:#191558"
           id="polygon31" />
        <path
           d="m 164,227 -0.17,-5.31 h 1 L 165,227 Z m -0.34,-10.62 -0.18,-5.31 h 0.95 l 0.17,5.31 z m -0.35,-10.62 -0.17,-5.31 h 0.94 l 0.18,5.31 z m -0.35,-10.61 -0.17,-5.31 h 0.95 l 0.17,5.31 z m -0.34,-10.62 -0.18,-5.31 h 0.95 l 0.17,5.31 z m -0.35,-10.63 -0.17,-5.3 h 0.94 l 0.18,5.31 z m -0.35,-10.61 -0.17,-5.31 h 0.95 l 0.17,5.31 z"
           style="fill:#191558"
           id="path33" />
        <polygon
           points="162.41,150.28 162.48,152.63 161.54,152.66 161.43,149.33 164.76,149.33 164.76,150.28 "
           style="fill:#191558"
           id="polygon35" />
        <path
           d="m 239.1,150.28 h -5.31 v -0.95 h 5.31 z m -10.62,0 h -5.31 v -0.95 h 5.31 z m -10.62,0 h -5.31 v -0.95 h 5.31 z m -10.62,0 h -5.31 v -0.95 h 5.31 z m -10.62,0 h -5.31 v -0.95 h 5.31 z m -10.62,0 h -5.31 v -0.95 H 186 Z m -10.62,0 h -5.31 v -0.95 h 5.31 z"
           style="fill:#191558"
           id="path37" />
        <polygon
           points="247.71,149.33 247.82,152.63 246.87,152.66 246.79,150.28 244.41,150.28 244.41,149.33 "
           style="fill:#191558"
           id="polygon39" />
        <path
           d="m 249.3,227 -0.17,-5.31 h 0.94 l 0.18,5.31 z m -0.3,-10.62 -0.17,-5.31 h 0.95 l 0.17,5.31 z m -0.34,-10.61 -0.18,-5.31 h 0.95 l 0.17,5.31 z m -0.35,-10.62 -0.17,-5.31 h 0.94 l 0.18,5.31 z m -0.35,-10.62 -0.17,-5.31 h 0.95 l 0.17,5.31 z m -0.34,-10.62 -0.18,-5.31 h 1 l 0.17,5.31 z m -0.35,-10.62 -0.17,-5.31 h 0.94 l 0.18,5.31 z"
           style="fill:#191558"
           id="path41" />
      </g>
      <path
         d="m 224.82,206 h -34.91 a 12.6,12.6 0 0 1 -12.49,-12.1 11.71,11.71 0 0 1 10.11,-12.06 13.48,13.48 0 0 1 13.07,-10.07 14.31,14.31 0 0 1 12.22,6.9 11.37,11.37 0 0 1 3.39,-0.51 12.19,12.19 0 0 1 12,10.83 9.33,9.33 0 0 1 5.3,8 8.66,8.66 0 0 1 -8.69,9 z M 200.6,174.1 a 11.14,11.14 0 0 0 -11,9 l -0.17,0.89 -0.9,0.06 a 9.39,9.39 0 0 0 -8.81,9.74 10.24,10.24 0 0 0 10.16,9.84 h 34.91 a 6.31,6.31 0 0 0 6.36,-6.57 7,7 0 0 0 -4.49,-6.21 l -0.72,-0.28 v -0.77 a 9.84,9.84 0 0 0 -9.73,-9.34 9.14,9.14 0 0 0 -3.48,0.68 l -1,0.4 -0.49,-0.94 a 12,12 0 0 0 -10.64,-6.48 z"
         style="fill:#191558"
         id="path45" />
      <polygon
         points="196.11,194.68 201.39,194.68 201.71,204.32 209.8,204.32 209.48,194.68 214.76,194.68 205.13,185.35 "
         style="fill:#191558"
         id="polygon47" />
    </g>
  </g>
</svg>
