<?xml version="1.0" encoding="UTF-8" standalone="no"?>
<svg
   viewBox="0 0 268.73767 193.17514"
   version="1.1"
   id="svg50"
   width="268.73767"
   height="193.17514"
   xmlns="http://www.w3.org/2000/svg"
   xmlns:svg="http://www.w3.org/2000/svg">
  <defs
     id="defs54" />
  <g
     id="g43849"
     transform="translate(-5.67242,-41.830195)">
    <g
       id="freepik--background-simple--inject-3"
       transform="matrix(0.89587085,0,0,0.89587085,-93.644987,-51.097859)">
      <path
         d="m 356.13549,202.90255 c -13.66902,32.48534 -4.43536,91.02048 -51.22345,97.22839 -39.24334,5.19742 -62.00428,-25.24486 -99.13919,-2.9138 -27.06371,16.27274 -73.232,41.89114 -89.53304,-3.13258 -12.74758,-35.2164 -1.31963,-78.99373 18.39738,-109.02869 15.49937,-23.63244 56.84478,-69.35209 92.01505,-64.02583 39.52595,5.95692 49.2619,62.85722 84.69641,18.47316 21.31664,-26.70174 58.18728,-54.905572 92.48783,-18.31792 13.53332,14.43134 5.35685,25.14634 -6.91974,35.21065 -18.10593,14.83685 -31.3905,24.17362 -40.78125,46.50662 z"
         style="fill:#ededff;fill-opacity:1"
         id="path2" />
      <path
         d="m 350.08,175.25 c -4.14,35 20.94,88.69 -22.3,107.61 -36.27,15.86 -66.57,-7.09 -96.07,24.65 -21.5,23.13 -58.77,60.53 -86.9,21.78 -22,-30.31 -23.14,-75.54 -12.51,-109.86 8.35,-27 35.42,-82.38 70.69,-87 39.63,-5.22 64.74,46.76 86.5,-5.7 13.09,-31.56 40.71,-68.87 83.8,-43.21 17,10.12 12.11,22.68 3.1,35.75 -13.29,19.27 -23.47,31.92 -26.31,55.98 z"
         style="opacity:0;fill:#ededff;fill-opacity:1;stroke:none;stroke-width:0;stroke-dasharray:none;stroke-opacity:1"
         id="path4" />
    </g>
    <g
       id="g2365"
       transform="translate(12.445657,-4.185632)">
      <g
         id="freepik--upload-window--inject-3"
         transform="translate(-68.000657,-47.219368)">
        <path
           d="m 112.2,261.87 h 190.86 a 7.56,7.56 0 0 0 7.59,-7.85 L 306.4,123.79 a 8.18,8.18 0 0 0 -8.1,-7.85 H 107.44 a 7.57,7.57 0 0 0 -7.6,7.85 L 104.09,254 a 8.19,8.19 0 0 0 8.11,7.87 z"
           style="fill:#191558"
           id="path11" />
        <path
           d="m 112.81,261.87 h 190.86 a 7.57,7.57 0 0 0 7.6,-7.85 L 307,123.79 a 8.19,8.19 0 0 0 -8.11,-7.85 H 108.05 a 7.56,7.56 0 0 0 -7.59,7.85 L 104.71,254 a 8.18,8.18 0 0 0 8.1,7.87 z"
           style="fill:#191558"
           id="path13" />
        <path
           d="m 298.43,119.86 h -190.87 -0.64 c -4.89,0.4 -4.19,7.82 0.74,7.82 h 191.19 c 4.92,0 5.14,-7.42 0.22,-7.82 -0.21,0.01 -0.43,0 -0.64,0 z"
           style="opacity:0.665314;fill:#191558"
           id="path17" />
        <path
           d="m 112.38,123.79 a 1.73,1.73 0 0 1 -1.74,1.79 1.87,1.87 0 0 1 -1.86,-1.79 1.73,1.73 0 0 1 1.74,-1.8 1.86,1.86 0 0 1 1.86,1.8 z"
           style="fill:#fafafa"
           id="path19" />
        <path
           d="m 118.5,123.79 a 1.72,1.72 0 0 1 -1.74,1.79 1.88,1.88 0 0 1 -1.86,-1.79 1.73,1.73 0 0 1 1.74,-1.8 1.86,1.86 0 0 1 1.86,1.8 z"
           style="fill:#fafafa"
           id="path21" />
        <ellipse
           cx="122.82"
           cy="123.79"
           rx="1.77"
           ry="1.83"
           transform="rotate(-45.49,122.83,123.78144)"
           style="fill:#fafafa"
           id="ellipse23" />
        <path
           d="m 116.51,248.87 h 182.62 a 2.73,2.73 0 0 0 2.75,-2.84 l -3.5,-107.11 a 3,3 0 0 0 -2.94,-2.84 H 112.83 a 2.73,2.73 0 0 0 -2.75,2.84 L 113.57,246 a 3,3 0 0 0 2.94,2.87 z"
           style="fill:#ffffff"
           id="path25" />
        <g
           style="opacity:0.3"
           id="g43">
          <polygon
             points="250.42,232.28 250.53,235.62 247.19,235.62 247.19,234.67 249.55,234.67 249.47,232.31 "
             style="fill:#191558"
             id="polygon27" />
          <path
             d="m 241.88,235.62 h -5.31 v -1 h 5.31 z m -10.62,0 H 226 v -1 h 5.31 z m -10.62,0 h -5.31 v -1 h 5.31 z m -10.62,0 h -5.31 v -1 H 210 Z m -10.61,0 h -5.32 v -1 h 5.32 z m -10.62,0 h -5.31 v -1 h 5.31 z m -10.62,0 h -5.31 v -1 h 5.31 z"
             style="fill:#191558"
             id="path29" />
          <polygon
             points="167.55,234.67 167.55,235.62 164.24,235.62 164.14,232.31 165.08,232.28 165.16,234.67 "
             style="fill:#191558"
             id="polygon31" />
          <path
             d="m 164,227 -0.17,-5.31 h 1 L 165,227 Z m -0.34,-10.62 -0.18,-5.31 h 0.95 l 0.17,5.31 z m -0.35,-10.62 -0.17,-5.31 h 0.94 l 0.18,5.31 z m -0.35,-10.61 -0.17,-5.31 h 0.95 l 0.17,5.31 z m -0.34,-10.62 -0.18,-5.31 h 0.95 l 0.17,5.31 z m -0.35,-10.63 -0.17,-5.3 h 0.94 l 0.18,5.31 z m -0.35,-10.61 -0.17,-5.31 h 0.95 l 0.17,5.31 z"
             style="fill:#191558"
             id="path33" />
          <polygon
             points="162.48,152.63 161.54,152.66 161.43,149.33 164.76,149.33 164.76,150.28 162.41,150.28 "
             style="fill:#191558"
             id="polygon35" />
          <path
             d="m 239.1,150.28 h -5.31 v -0.95 h 5.31 z m -10.62,0 h -5.31 v -0.95 h 5.31 z m -10.62,0 h -5.31 v -0.95 h 5.31 z m -10.62,0 h -5.31 v -0.95 h 5.31 z m -10.62,0 h -5.31 v -0.95 h 5.31 z m -10.62,0 h -5.31 v -0.95 H 186 Z m -10.62,0 h -5.31 v -0.95 h 5.31 z"
             style="fill:#191558"
             id="path37" />
          <polygon
             points="247.82,152.63 246.87,152.66 246.79,150.28 244.41,150.28 244.41,149.33 247.71,149.33 "
             style="fill:#191558"
             id="polygon39" />
          <path
             d="m 249.3,227 -0.17,-5.31 h 0.94 l 0.18,5.31 z m -0.3,-10.62 -0.17,-5.31 h 0.95 l 0.17,5.31 z m -0.34,-10.61 -0.18,-5.31 h 0.95 l 0.17,5.31 z m -0.35,-10.62 -0.17,-5.31 h 0.94 l 0.18,5.31 z m -0.35,-10.62 -0.17,-5.31 h 0.95 l 0.17,5.31 z m -0.34,-10.62 -0.18,-5.31 h 1 l 0.17,5.31 z m -0.35,-10.62 -0.17,-5.31 h 0.94 l 0.18,5.31 z"
             style="fill:#191558"
             id="path41" />
        </g>
        <path
           d="m 224.82,206 h -34.91 a 12.6,12.6 0 0 1 -12.49,-12.1 11.71,11.71 0 0 1 10.11,-12.06 13.48,13.48 0 0 1 13.07,-10.07 14.31,14.31 0 0 1 12.22,6.9 11.37,11.37 0 0 1 3.39,-0.51 12.19,12.19 0 0 1 12,10.83 9.33,9.33 0 0 1 5.3,8 8.66,8.66 0 0 1 -8.69,9 z M 200.6,174.1 a 11.14,11.14 0 0 0 -11,9 l -0.17,0.89 -0.9,0.06 a 9.39,9.39 0 0 0 -8.81,9.74 10.24,10.24 0 0 0 10.16,9.84 h 34.91 a 6.31,6.31 0 0 0 6.36,-6.57 7,7 0 0 0 -4.49,-6.21 l -0.72,-0.28 v -0.77 a 9.84,9.84 0 0 0 -9.73,-9.34 9.14,9.14 0 0 0 -3.48,0.68 l -1,0.4 -0.49,-0.94 a 12,12 0 0 0 -10.64,-6.48 z"
           style="fill:#191558"
           id="path45" />
        <polygon
           points="209.48,194.68 214.76,194.68 205.13,185.35 196.11,194.68 201.39,194.68 201.71,204.32 209.8,204.32 "
           style="fill:#191558"
           id="polygon47" />
      </g>
    </g>
  </g>
  <ellipse
     style="opacity:0.665314;fill:#36e775;fill-opacity:1;stroke:none;stroke-width:6.4;stroke-dasharray:none;stroke-opacity:1"
     id="path49449"
     cx="170.4178"
     cy="71.237381"
     rx="9.3363771"
     ry="9.3033285" />
  <g
     id="g6538"
     transform="matrix(0.06734655,0,0,0.06734655,73.725007,-66.130233)"
     style="display:inline;fill:#36e775;fill-opacity:1;stroke:#191558;stroke-opacity:0">
    <g
       id="g282"
       style="fill:#332f6c;fill-opacity:0.956863;stroke:#191558;stroke-opacity:0"
       transform="translate(-97.8578,-74.4888)">
								
									<linearGradient
   id="linearGradient1047"
   gradientUnits="userSpaceOnUse"
   x1="1347.7524"
   y1="2063.0613"
   x2="1685.313"
   y2="2063.0613">
									<stop
   offset="0"
   style="stop-color:#FB6FBB"
   id="stop1043" />

									<stop
   offset="1"
   style="stop-color:#FF9085"
   id="stop1045" />

								</linearGradient>

								<path
   style="fill:#36e775;fill-opacity:1;stroke:#191558;stroke-opacity:0"
   d="m 1369.117,2193.593 c -3.369,0 -6.559,-2.013 -7.898,-5.33 -8.936,-22.133 -13.467,-45.561 -13.467,-69.632 0,-102.617 83.485,-186.102 186.102,-186.102 58.811,0 114.808,28.279 149.793,75.648 2.794,3.782 1.992,9.113 -1.791,11.907 -3.782,2.794 -9.113,1.992 -11.907,-1.791 -31.788,-43.039 -82.664,-68.734 -136.095,-68.734 -93.227,0 -169.073,75.846 -169.073,169.073 0,21.876 4.115,43.159 12.229,63.258 1.76,4.359 -0.348,9.322 -4.708,11.083 -1.044,0.421 -2.123,0.62 -3.185,0.62 z"
   id="path280" />

							</g>
    <g
       id="g291"
       style="fill:#36e775;fill-opacity:1;stroke:#191558;stroke-opacity:0"
       transform="translate(-97.8578,-74.4888)">
								
									<linearGradient
   id="linearGradient1055"
   gradientUnits="userSpaceOnUse"
   x1="1641.5015"
   y1="2000.3108"
   x2="1691.6765"
   y2="2000.3108">
									<stop
   offset="0"
   style="stop-color:#FB6FBB"
   id="stop1051" />

									<stop
   offset="1"
   style="stop-color:#FF9085"
   id="stop1053" />

								</linearGradient>

								<path
   style="fill:#36e775;fill-opacity:1;stroke:#191558;stroke-opacity:0"
   d="m 1650.012,2023.251 c -4.618,0 -8.41,-3.515 -8.508,-8.155 -0.101,-4.702 3.628,-8.506 8.329,-8.607 l 21.287,-0.413 3.646,-21.616 c 0.78,-4.636 5.184,-7.748 9.81,-6.97 4.637,0.78 7.762,5.179 6.981,9.816 l -4.815,28.587 c -0.678,4.03 -4.126,6.836 -8.213,6.923 l -28.33,0.434 c -0.062,10e-4 -0.125,10e-4 -0.187,10e-4 z"
   id="path289" />

							</g>
    <g
       id="g313"
       style="fill:#36e775;fill-opacity:1;stroke:#191558;stroke-opacity:0"
       transform="translate(-97.8578,-74.4888)">
							<g
   id="g302"
   style="fill:#36e775;fill-opacity:1;stroke:#191558;stroke-opacity:0">
								
									<linearGradient
   id="linearGradient1064"
   gradientUnits="userSpaceOnUse"
   x1="1385.5562"
   y1="2178.127"
   x2="1719.9557"
   y2="2178.127">
									<stop
   offset="0"
   style="stop-color:#FB6FBB"
   id="stop1060" />

									<stop
   offset="1"
   style="stop-color:#FF9085"
   id="stop1062" />

								</linearGradient>

								<path
   style="fill:#36e775;fill-opacity:1;stroke:#191558;stroke-opacity:0"
   d="m 1533.854,2304.733 c -57.531,0 -110.921,-25.987 -146.481,-71.297 -2.903,-3.699 -2.258,-9.051 1.442,-11.954 3.7,-2.903 9.052,-2.256 11.954,1.442 32.31,41.168 80.818,64.78 133.085,64.78 93.227,0 169.073,-75.846 169.073,-169.073 0,-19.133 -3.168,-37.901 -9.417,-55.786 -1.551,-4.439 0.79,-9.295 5.23,-10.846 4.439,-1.549 9.295,0.791 10.846,5.23 6.881,19.695 10.37,40.352 10.37,61.402 0,102.617 -83.485,186.102 -186.102,186.102 z"
   id="path300" />

							</g>

							<g
   id="g311"
   style="fill:#36e775;fill-opacity:1;stroke:#191558;stroke-opacity:0">
								
									<linearGradient
   id="linearGradient1072"
   gradientUnits="userSpaceOnUse"
   x1="1375.6094"
   y1="2236.2188"
   x2="1427.2375"
   y2="2236.2188">
									<stop
   offset="0"
   style="stop-color:#FB6FBB"
   id="stop1068" />

									<stop
   offset="1"
   style="stop-color:#FF9085"
   id="stop1070" />

								</linearGradient>

								<path
   style="fill:#36e775;fill-opacity:1;stroke:#191558;stroke-opacity:0"
   d="m 1384.135,2258.708 c -0.56,0 -1.126,-0.055 -1.695,-0.17 -4.61,-0.931 -7.592,-5.422 -6.66,-10.031 l 5.611,-27.862 c 0.803,-3.976 4.298,-6.916 8.345,-6.916 0.032,0 0.063,0 0.095,0 l 28.986,0.406 c 4.703,0.052 8.472,3.949 8.421,8.652 -0.052,4.701 -3.947,8.534 -8.608,8.442 l -21.941,-0.231 -4.217,20.875 c -0.817,4.041 -4.368,6.835 -8.337,6.835 z"
   id="path309" />

							</g>

						</g>
    <g
       id="g324"
       style="display:inline;fill:#36e775;fill-opacity:1;stroke:#191558;stroke-opacity:0"
       transform="translate(-97.857838,-74.488802)">
						
							<linearGradient
   id="linearGradient1082"
   gradientUnits="userSpaceOnUse"
   x1="1444.6312"
   y1="2128.3274"
   x2="1643.2765"
   y2="2128.3274">
							<stop
   offset="0"
   style="stop-color:#FB6FBB"
   id="stop1078" />

							<stop
   offset="1"
   style="stop-color:#FF9085"
   id="stop1080" />

						</linearGradient>

						<path
   style="fill:#f2f2f2;fill-opacity:1;stroke:#191558;stroke-opacity:0"
   d="m 1516.526,2208.577 c -2.687,0 -5.394,-0.721 -7.824,-2.21 l -56.916,-34.891 c -7.055,-4.324 -9.269,-13.551 -4.943,-20.608 4.328,-7.05 13.555,-9.26 20.608,-4.943 l 46.014,28.21 103.442,-120.82 c 5.383,-6.282 14.842,-7.024 21.129,-1.635 6.287,5.382 7.019,14.842 1.637,21.128 l -111.758,130.529 c -2.936,3.429 -7.134,5.24 -11.389,5.24 z"
   id="path322" />

					</g>
  </g>
</svg>
