<?xml version="1.0" encoding="UTF-8" standalone="no"?>
<svg
   viewBox="0 0 295.63068 212.5065"
   version="1.1"
   id="svg128"
   width="295.63068"
   height="212.5065"
   xmlns="http://www.w3.org/2000/svg"
   xmlns:svg="http://www.w3.org/2000/svg">
  <defs
     id="defs132" />
  <g
     id="freepik--Warning--inject-3"
     transform="translate(-63.707006,-114.47262)">
    <path
       d="m 305.43014,212.21005 c -13.47111,32.01503 -4.37114,89.70271 -50.48183,95.82073 -38.67519,5.12218 -61.1066,-24.87936 -97.70387,-2.8716 -26.67188,16.03714 -72.171762,41.28464 -88.23679,-3.08723 -12.563028,-34.70655 -1.300527,-77.85007 18.131017,-107.45019 15.274983,-23.29029 56.021803,-68.34803 90.682863,-63.09888 38.95371,5.87069 48.54871,61.94719 83.4702,18.20571 21.00802,-26.31515 57.34485,-54.110653 91.1488,-18.05271 13.33739,14.2224 5.2793,24.78227 -6.81956,34.70088 -17.8438,14.62204 -30.93603,23.82363 -40.19083,45.83329 z"
       style="fill:#ededff;fill-opacity:1;stroke-width:0.985522"
       id="path2" />
    <g
       id="g59999"
       transform="translate(17.784094,-11.711476)">
      <path
         d="M 303.56,313.37 H 97.08 A 10.63,10.63 0 0 1 86.71,303.79 L 75.08,164 a 8.7,8.7 0 0 1 8.78,-9.58 h 206.47 a 10.64,10.64 0 0 1 10.38,9.58 l 11.63,139.77 a 8.71,8.71 0 0 1 -8.78,9.6 z"
         style="fill:#ffffff"
         id="path97" />
      <path
         d="M 303.56,313.77 H 97.08 A 11,11 0 0 1 86.31,303.83 L 74.68,164.05 a 9.2,9.2 0 0 1 2.37,-7.05 9.1,9.1 0 0 1 6.81,-3 h 206.47 a 11,11 0 0 1 10.78,10 l 11.62,139.77 a 9.09,9.09 0 0 1 -9.17,10 z M 83.86,154.84 A 8.3,8.3 0 0 0 75.47,164 L 87.1,303.76 a 10.22,10.22 0 0 0 10,9.21 h 206.46 a 8.3,8.3 0 0 0 8.38,-9.14 L 300.31,164.05 a 10.21,10.21 0 0 0 -10,-9.21 z"
         style="fill:#191558"
         id="path99" />
      <path
         d="M 290.33,154.44 H 83.86 A 8.7,8.7 0 0 0 75.08,164 h 225.63 a 10.64,10.64 0 0 0 -10.38,-9.56 z"
         style="fill:#191558"
         id="path101" />
      <path
         d="m 88.69,159.23 a 1.87,1.87 0 0 1 -1.89,2.07 2.3,2.3 0 0 1 -2.24,-2.07 1.88,1.88 0 0 1 1.89,-2.07 2.28,2.28 0 0 1 2.24,2.07 z"
         style="fill:#ffffff"
         id="path103" />
      <path
         d="m 97.09,159.23 a 1.87,1.87 0 0 1 -1.89,2.07 2.3,2.3 0 0 1 -2.2,-2.07 1.88,1.88 0 0 1 1.89,-2.07 2.28,2.28 0 0 1 2.2,2.07 z"
         style="fill:#ffffff"
         id="path105" />
      <path
         d="m 105.49,159.23 a 1.87,1.87 0 0 1 -1.89,2.07 2.3,2.3 0 0 1 -2.24,-2.07 1.88,1.88 0 0 1 1.89,-2.07 2.28,2.28 0 0 1 2.24,2.07 z"
         style="fill:#ffffff"
         id="path107" />
      <path
         d="m 231.92,199.41 -53.8,64.78 a 15.39,15.39 0 0 0 8.58,24.88 l 87.3,18.87 a 15.39,15.39 0 0 0 17.55,-20.76 l -33.47,-83.66 a 15.39,15.39 0 0 0 -26.16,-4.11 z"
         style="fill:#fefaf0;fill-opacity:1"
         id="path111" />
      <path
         d="m 111.85329,208.18329 -18.740003,50.51 a 9.72,9.72 0 0 0 10.060003,13 l 54.73,-5.37 a 9.72,9.72 0 0 0 6.65,-15.74 l -36,-45.1 a 9.72,9.72 0 0 0 -16.7,2.7 z"
         style="opacity:0.1;fill:#f0cf69;fill-opacity:1"
         id="path113" />
      <path
         d="m 250.48,183.1 -50.3,73 a 16.18,16.18 0 0 0 11.2,25.22 l 92.46,12.31 a 16.18,16.18 0 0 0 16.64,-23.21 l -42.16,-85.34 a 16.18,16.18 0 0 0 -27.84,-1.98 z"
         style="fill:#f0cf69;fill-opacity:1"
         id="path115" />
      <path
         d="m 213.57,274.8 a 10.22,10.22 0 0 1 -7.82,-5.67 9,9 0 0 1 0.47,-9.2 l 50.43,-73.22 a 8.48,8.48 0 0 1 8.29,-3.52 10.2,10.2 0 0 1 7.82,5.67 L 315,274.41 a 9,9 0 0 1 -0.47,9.2 8.47,8.47 0 0 1 -8.29,3.53 z"
         style="fill:#ffffff"
         id="path117" />
      <path
         d="m 260.65,209.07 5.89,0.78 a 7.57,7.57 0 0 1 6.51,7.7 l -0.4,7.68 a 5.7,5.7 0 0 1 -0.09,0.83 l -4.19,23.15 a 6.23,6.23 0 0 1 -7.11,5 v 0 a 7.61,7.61 0 0 1 -6.51,-6.87 l -1.69,-23.92 a 5.77,5.77 0 0 1 0,-0.83 l 0.39,-7.69 a 6.21,6.21 0 0 1 7.2,-5.83 z m -0.47,51.56 1.6,0.21 a 6.78,6.78 0 0 1 5.83,6.89 v 0 a 5.57,5.57 0 0 1 -6.45,5.25 l -1.6,-0.22 a 6.77,6.77 0 0 1 -5.83,-6.88 v 0 a 5.56,5.56 0 0 1 6.45,-5.25 z"
         style="fill:#f0cf69;fill-opacity:1"
         id="path119" />
      <path
         d="m 131.5,194.26 -13.81,52.37 a 9.72,9.72 0 0 0 11.27,12 l 53.57,-10.45 A 9.72,9.72 0 0 0 187.72,232 L 148,190.05 a 9.73,9.73 0 0 0 -16.5,4.21 z"
         style="fill:#f0cf69;fill-opacity:1"
         id="path121" />
      <path
         d="m 128.85,254.41 a 5.93,5.93 0 0 1 -5.42,-1.82 5.81,5.81 0 0 1 -1.5,-5.48 l 13.84,-52.51 a 5,5 0 0 1 3.92,-3.65 5.94,5.94 0 0 1 5.42,1.83 l 39.86,42 a 5.82,5.82 0 0 1 1.51,5.48 5,5 0 0 1 -3.92,3.64 z"
         style="fill:#ffffff"
         id="path123" />
      <path
         d="m 142.29,206.93 3.41,-0.67 a 4.52,4.52 0 0 1 5.08,3.27 l 1.22,4.57 a 4.64,4.64 0 0 1 0.11,0.51 l 2.17,14.39 a 3.73,3.73 0 0 1 -3,4.31 v 0 a 4.5,4.5 0 0 1 -4.92,-2.78 l -5.54,-13.68 a 4,4 0 0 1 -0.17,-0.49 l -1.26,-4.58 a 3.76,3.76 0 0 1 2.9,-4.85 z m 9.65,30.28 0.93,-0.18 a 4,4 0 0 1 4.55,2.92 v 0 a 3.36,3.36 0 0 1 -2.56,4.3 l -0.93,0.18 a 4,4 0 0 1 -4.55,-2.91 v 0 a 3.37,3.37 0 0 1 2.56,-4.31 z"
         style="fill:#f0cf69;fill-opacity:1"
         id="path125" />
    </g>
  </g>
</svg>
