<?xml version="1.0" encoding="UTF-8"?><svg id="a" xmlns="http://www.w3.org/2000/svg" viewBox="0 0 815.21 785.03"><defs><style>.b{fill:none;stroke:#d96664;stroke-miterlimit:10;stroke-width:12px;}.c{fill:#e9aeb6;}.d{fill:#d96664;}</style></defs><circle class="c" cx="433.45" cy="403.26" r="381.76"/><circle class="b" cx="387.76" cy="387.76" r="381.76"/><g><path class="d" d="M288.1,569.67c33.72-4.77,67.57-5.83,101.51-6,33.94,.14,67.79,1.2,101.51,6-33.72,4.79-67.57,5.86-101.51,6-33.94-.16-67.79-1.23-101.51-6h0Z"/><line class="b" x1="389.61" y1="256.24" x2="385.21" y2="569.67"/><circle class="d" cx="387.41" cy="256.24" r="20.94"/><path class="d" d="M491.13,206.76c-32.52,20.96-66.75,38.63-101.45,55.53-34.83,16.62-69.98,32.38-106.65,44.72,32.51-20.99,66.74-38.65,101.45-55.53,34.84-16.6,69.99-32.35,106.66-44.72h0Z"/><path class="d" d="M483.08,256.24c-15.32,34.15-28.36,68.6-43.95,102.33l.14-4.26c7.04,14.64,16.23,30.26,29.56,39.74,25.87,18.01,45.86-20.57,55.72-39.93v4.36c-14.77-33.75-26.96-68.09-41.46-102.24h0Zm0,0c16.96,33.13,35.76,66.13,51.93,99.94-8.52,19.42-21.14,44.99-42.32,52.8-30.81,10.16-53.18-26.82-63.09-50.7l-.89-2.25,1.03-2.02c16.73-33.09,35.94-65.34,53.35-97.77h0Z"/><line class="b" x1="529.27" y1="356.29" x2="434.43" y2="356.29"/><path class="d" d="M289.33,330.51c-15.32,34.15-28.36,68.6-43.95,102.33l.14-4.26c7.04,14.64,16.23,30.26,29.56,39.74,25.87,18.01,45.86-20.57,55.72-39.93v4.36c-14.77-33.75-26.96-68.09-41.46-102.24h0Zm0,0c16.96,33.13,35.76,66.13,51.93,99.94-8.52,19.42-21.14,44.99-42.32,52.8-30.81,10.16-53.18-26.82-63.09-50.7l-.89-2.25,1.03-2.02c16.73-33.09,35.94-65.34,53.35-97.77h0Z"/><line class="b" x1="335.52" y1="430.56" x2="240.68" y2="430.56"/></g></svg>