<?xml version="1.0" encoding="UTF-8"?><svg id="a" xmlns="http://www.w3.org/2000/svg" viewBox="0 0 815.21 785.03"><defs><style>.b{fill:none;stroke:#d96664;stroke-miterlimit:10;stroke-width:12px;}.c{fill:#e9aeb6;}.d{fill:#d96664;}</style></defs><circle class="c" cx="433.45" cy="403.26" r="381.76"/><circle class="b" cx="387.76" cy="387.76" r="381.76"/><g><path class="d" d="M342.98,408.19c.37,35.62-29.03,66.38-64.71,67.7-38.26,1.99-70.89-29.34-70.71-67.7-.26-38.31,32.5-69.79,70.71-67.73,35.69,1.33,65.09,32.11,64.71,67.73h0Zm0,0c.27-25.46-16.63-49.75-40.64-58.13-40.03-14.55-82.92,15.68-82.79,58.13-.23,42.31,42.7,72.79,82.8,58.15,24-8.39,40.91-32.68,40.63-58.15h0Z"/><polyline class="b" points="315.69 355.7 366.66 308.37 315.69 308.37"/><line class="b" x1="375.47" y1="302.63" x2="366.66" y2="352.24"/></g><g><path class="d" d="M563.84,337.24c.38,35.95-29.18,67.1-65.2,68.68-39,2.3-72.37-29.56-72.19-68.68,0-50.45,52.45-83.76,97.95-62.19,23.73,11.03,39.71,36.08,39.44,62.19h0Zm0,0c.28-25.62-16.84-50.05-41.05-58.29-39.94-14.28-82.61,16.32-82.35,58.29-.24,42.07,42.31,72.6,82.36,58.32,24.21-8.26,41.32-32.69,41.04-58.32h0Z"/><line class="b" x1="498.65" y1="402.44" x2="498.65" y2="472.6"/><line class="b" x1="457.26" y1="429.6" x2="538.05" y2="429.6"/></g></svg>