<?xml version="1.0" encoding="UTF-8"?><svg id="a" xmlns="http://www.w3.org/2000/svg" viewBox="0 0 815.21 785.03"><defs><style>.b{fill:none;stroke:#d96664;stroke-miterlimit:10;stroke-width:12px;}.c{fill:#e9aeb6;}.d{fill:#d96664;}</style></defs><circle class="c" cx="433.45" cy="403.26" r="381.76"/><circle class="b" cx="387.76" cy="387.76" r="381.76"/><g><path class="d" d="M389.69,474.9c-.44-53.36-3.37-106.87-3.82-160.38,5.03-3.26,10.13-6.2,15.37-9,26.02-13.63,62.02-28.68,91.47-18.85,5.96,2.05,11.56,5.47,16.24,9.81v2.03c-.08,34.9-.25,77.48-.66,112.37l-.54,37.46-.06,3.9-3.77-.64c-30.99-4.77-98.57-10.83-114.23,23.31h0Zm0,0c12.43-33.17,69.81-33.29,99.51-31.44,5.27,.38,10.46,.88,15.78,1.61l-3.83,3.26c-.58-34.85-1-77.72-1.08-112.37l-.11-37.46,1.52,3.37c-3.44-2.96-7.41-5.26-11.75-6.81-29.09-10.05-72.62,9.83-98,24.7l1.76-3.2c-.55,52.74-3.49,105.43-3.79,158.33h0Z"/><path class="d" d="M534.83,308.07c-9.62,.21-19.18,.69-28.69,.95l.95-.95c.26,8.78,.74,26.3,.92,35.07,.83,33.48,1.39,71.56,1.81,105.2l.06,4.79c-6.35-1.79-13.1-3.27-19.66-4.25-24.66-3.65-51.32-2.98-73.6,9.13-8.59,4.77-15.92,11.46-21.6,19.45l-4.99-6.8c24.39-7.18,49.81-10.79,75.24-10.13,25.49,.71,52.24,7.23,72.04,24.21l-6.29,2.91c.66-57.16,2.32-122.34,3.82-179.58h0Zm0,0c1.57,57.31,3.19,122.27,3.82,179.58l.12,8.13c-6.54-5.47-13.64-11.15-21.28-14.94-21.74-10.81-46.8-12.7-70.75-11.23-18.22,1.24-36.48,4.47-54.01,9.54l-12.93,3.95,7.94-10.74c12.77-18.32,33.89-29.08,55.67-32.12,21.39-3.02,43.03-1.08,63.76,4.58l-4.71,3.53c.3-27.37,.87-60.5,1.4-87.66,.36-15.6,.85-37,1.33-52.6l.03-.97c9.91,.24,19.81,.73,29.61,.97h0Z"/><path class="d" d="M277.15,455.78c-1.21-49.47-3.49-116.69-3.86-165.57,3.44-.82,7.06-1.75,10.44-2.3,32.1-5.53,68.05-4.09,95.51,15.3,4.71,3.35,8.96,7.35,12.93,11.56-.04,14.21-.15,47.36-.19,61.17-.18,28.42-.64,70.43-1.13,98.95l-.13,8.35-5.46-6.26c-13.19-13.74-31.64-21.27-50.24-24.41-19.23-3.1-38.95-1.28-57.86,3.19h0Zm0,0c34.92-11.73,76.81-11.53,107.05,11.77,2.08,1.65,4.02,3.3,5.87,5.27l-5.59,2.09c-.63-36.45-1.1-82.45-1.19-118.75l-.12-39.58,1.19,3.05c-3.2-3.32-6.58-6.47-10.34-9.18-26.64-19.06-64.81-19.77-95.93-13.53l2.9-3.72c-.62,46.62-2.53,115.21-3.83,162.58h0Z"/><path class="d" d="M244.31,308.07c10.21-.25,20.49-.75,30.82-1.01l.98-.03,.03,1.04c.73,24.61,1.27,49.23,1.71,73.85,.41,20.59,.82,53.01,1.09,73.85l-5.09-3.59c19.22-6.21,39.74-8.02,59.79-5.32,20.12,2.78,39.51,11.36,54.92,24.67l15.87,13.12-20.03-5.47c-11.35-2.93-23.1-4.65-34.79-5.66-35.24-2.84-71.62,1.99-103.58,17.55l-5.62,2.64c.66-59.46,2.25-126.18,3.91-185.64h0Zm0,0c1.52,57.27,3.16,122.39,3.83,179.58l-5.54-3.42c22-11.15,46.3-17.6,70.86-19.54,23.01-1.75,46.29-.38,68.8,4.75,1.53,.36,2.98,.72,4.62,1.18l-4.16,7.65c-3.58-2.99-7.23-5.91-11.2-8.38-27.8-17.94-63.89-19.8-95.12-10.53l-5.16,1.7c.03-1.76,.52-39.13,.56-42.22,.51-36.65,1.24-74.19,2.31-110.78l1.01,1.01c-10.22-.27-20.48-.77-30.82-1.01h0Z"/></g></svg>