<?xml version="1.0" encoding="utf-8"?>
<!-- Generator: $$$/GeneralStr/196=Adobe Illustrator 27.6.0, SVG Export Plug-In . SVG Version: 6.00 Build 0)  -->
<svg version="1.1" id="a" xmlns="http://www.w3.org/2000/svg" xmlns:xlink="http://www.w3.org/1999/xlink" x="0px" y="0px"
	 viewBox="0 0 468.6 274.1" style="enable-background:new 0 0 468.6 274.1;" xml:space="preserve">
<style type="text/css">
	.st0{fill:#FA595F;}
	.st1{fill:none;stroke:#FA595F;stroke-width:12;stroke-miterlimit:10;}
	.st2{fill:#FA595F;stroke:#FA595F;stroke-width:12;stroke-miterlimit:10;}
</style>
<path class="st0" d="M177,184.9c0.5,47-38.2,87.9-85.4,89.1c-42.6,1.9-81.6-29.4-89.7-71.3c-8.9-42.1,14.9-86.2,55.2-101.3
	C115,79.1,177.3,123.4,177,184.9L177,184.9L177,184.9z M177,184.9c0.3-33.9-21.6-66.1-53.3-77.9C69.6,86.3,11.8,127.7,12.1,184.9
	c-0.2,57.3,57.4,98.5,111.6,77.9C155.4,251,177.3,218.8,177,184.9L177,184.9z"/>
<polyline class="st1" points="140.9,115 208.2,52 140.9,52 "/>
<line class="st2" x1="219.9" y1="44.3" x2="208.2" y2="110.4"/>
<path class="st0" d="M468.6,90.4c0.5,47.4-38.4,88.8-86.1,90.3c-50.7,2.3-93.4-39.6-93.1-90.3c-0.4-50.6,42.4-92.7,93.1-90.3
	C430.2,1.6,469.1,43,468.6,90.4L468.6,90.4z M468.6,90.4c0.4-34-21.9-66.7-53.8-78.2C360.7-8,303.2,33.2,303.4,90.4
	c-0.2,57.3,57.2,98.5,111.4,78.2C446.8,157.1,469,124.4,468.6,90.4C468.6,90.4,468.6,90.4,468.6,90.4z"/>
<line class="st2" x1="382.5" y1="177.2" x2="382.5" y2="270.6"/>
<line class="st2" x1="327.9" y1="213.4" x2="434.5" y2="213.4"/>
</svg>
