<?xml version="1.0" encoding="UTF-8"?><svg id="a" xmlns="http://www.w3.org/2000/svg" viewBox="0 0 468.61 274.11"><defs><style>.b{fill:none;stroke:#191558;stroke-miterlimit:10;stroke-width:12px;}.c{fill:#191558;}</style></defs><g><path class="c" d="M176.96,184.88c.49,47.02-38.17,87.93-85.45,89.15-42.64,1.91-81.6-29.36-89.66-71.26-8.87-42.05,14.89-86.24,55.2-101.34,57.99-22.34,120.24,22.01,119.91,83.45h0Zm0,0c.32-33.89-21.56-66.13-53.33-77.9C69.58,86.34,11.76,127.7,12.05,184.88c-.24,57.29,57.41,98.55,111.58,77.91,31.77-11.78,53.65-44.03,53.33-77.91h0Z"/><polyline class="b" points="140.93 115 208.23 51.98 140.93 51.98"/><line class="b" x1="219.87" y1="44.33" x2="208.23" y2="110.39"/></g><g><path class="c" d="M468.61,90.42c.51,47.43-38.4,88.79-86.09,90.29-50.71,2.34-93.36-39.65-93.09-90.29C289.06,39.86,331.87-2.32,382.52,.1c47.69,1.51,86.6,42.89,86.09,90.32h0Zm0,0c.36-34.01-21.85-66.66-53.84-78.22-54.06-20.23-111.56,20.99-111.35,78.22-.18,57.33,57.19,98.47,111.36,78.24,31.99-11.58,54.19-44.23,53.83-78.24h0Z"/><line class="b" x1="382.52" y1="177.23" x2="382.52" y2="270.64"/><line class="b" x1="327.87" y1="213.39" x2="434.55" y2="213.39"/></g></svg>