<?xml version="1.0" encoding="utf-8"?>
<!-- Generator: $$$/GeneralStr/196=Adobe Illustrator 27.6.0, SVG Export Plug-In . SVG Version: 6.00 Build 0)  -->
<svg version="1.1" id="a" xmlns="http://www.w3.org/2000/svg" xmlns:xlink="http://www.w3.org/1999/xlink" x="0px" y="0px"
	 viewBox="0 0 271.6 337" style="enable-background:new 0 0 271.6 337;" xml:space="preserve">
<style type="text/css">
	.st0{fill:#FA595F;}
</style>
<path class="st0" d="M0,69.2c86.2-1.8,185.1-2.9,271.6-3.8v7.6l-21.4,0.2l4-3.7c-5.7,68.5-14,173.9-19.9,241.5l-0.3-2.3
	c1.2,3.3,1.4,7.3,0.2,10.8c-3.3,9.4-12.6,14.3-21.2,17.2H212l-38.1,0c-22.6,0-93.6,0.1-113.5-0.1c-3.4,0.5-7.1,0.5-10.9-0.4
	c-7.5-1.7-13.7-8.1-16.2-15c-1.3-3.4-2.1-6.6-2.4-10.2C24.4,236.4,16.3,144.4,10,69.6l-0.5-6l6,0C90,64,178.9,64.6,253.4,65.2
	l-3.9,3.7l1.3-15.5l0-0.2l0-0.1c0.1-0.3,0.1-0.7,0.1-1.1c0-1.9-0.8-3.8-2.5-4.8c-0.6-0.4-1.4-0.7-2.1-0.8l0.5,0
	C176,45.6,90.7,44.5,20.3,43.2c-5,1-7.6,5.3-7,10.3l0.2,14.3l-0.7-14.3c-0.2-2.4-0.2-5,1.2-7.1c1.4-2.2,3.7-3.7,6.2-4.2
	c71-1.3,155.6-2.4,226.6-3.1c8.2,0.7,12.5,8.5,11.5,14.8c-0.1,3-1.1,16.6-1.2,19.2l-3.7,0l-59.5,0.5c-53,0.4-125.5,0.8-178.4,1.1
	l5.5-6c7,74.8,15.2,166.8,22,241.6c0.6,5.9,3.2,13,9.5,14.5c1.9,0.5,4.4,0.5,6.7,0.1h0.4l76.2,0.3c19,0,57.2,0.3,76.2,0.3l-1.7,0.3
	c4.9-1.7,11.2-4.8,13.2-9.6c0.6-1.6,0-3.4-0.5-5c6.5-69.4,16.5-175.8,23.4-245.9c2.8-0.1,21.9,0.3,25.1,0.3V73
	C185.1,72.2,86.3,70.9,0,69.2L0,69.2L0,69.2z"/>
<path class="st0" d="M86.6,42.7c1.3-13.9,4.1-27.6,7.3-41.2c18.7-1.5,37.6-1.8,56.4-1.2c7.1,0.2,14.2,0.6,21.3,1.1l0.8,3
	c3.2,12.6,6,25.2,7.6,38.2c-6.5-11.3-11.8-23.1-16.8-35.2l4.6,3.3c-17.5,1.2-35,1.4-52.5,0.9c-5.8-0.2-11.7-0.5-17.5-0.9l4.6-3.4
	C97.8,19.4,92.8,31.3,86.6,42.7L86.6,42.7L86.6,42.7z"/>
<path class="st0" d="M73.9,95.5c6.9,34.7,10.1,69.8,12.4,105c2,35.2,3.1,70.4,0.4,105.8c-6.9-34.7-10.1-69.8-12.4-105
	C72.3,166,71.2,130.8,73.9,95.5L73.9,95.5z"/>
<path class="st0" d="M133.3,100.1c4.8,33.3,5.8,66.7,6,100.2c-0.1,33.5-1.2,66.9-6,100.2c-4.8-33.3-5.9-66.7-6-100.2
	C127.4,166.8,128.5,133.4,133.3,100.1C133.3,100.1,133.3,100.1,133.3,100.1z"/>
<path class="st0" d="M190.2,100.1c3.1,33.5,2.4,67,0.9,100.5c-1.9,33.5-4.6,66.9-11.1,99.9c-3.1-33.5-2.4-67-0.9-100.5
	C181,166.5,183.7,133.2,190.2,100.1L190.2,100.1L190.2,100.1z"/>
</svg>
