<?xml version="1.0" encoding="utf-8"?>
<!-- Generator: $$$/GeneralStr/196=Adobe Illustrator 27.6.0, SVG Export Plug-In . SVG Version: 6.00 Build 0)  -->
<svg version="1.1" id="a" xmlns="http://www.w3.org/2000/svg" xmlns:xlink="http://www.w3.org/1999/xlink" x="0px" y="0px"
	 viewBox="0 0 413.7 435.1" style="enable-background:new 0 0 413.7 435.1;" xml:space="preserve">
<style type="text/css">
	.st0{fill:#FA595F;}
</style>
<g>
	<polygon class="st0" points="207.1,144.1 200.1,276.4 193.1,144.1 207.1,144.1 	"/>
	<ellipse class="st0" cx="200.1" cy="302.5" rx="11.7" ry="12.1"/>
</g>
<path class="st0" d="M0,218.4C58.2,156.3,142.1,65.1,200.5,4.7l4.4-4.7c14.7,15.1,40,41.3,54.6,56.5
	C306,105,367.5,169.6,413.7,218.4c-56.6,58.4-125.3,128.7-182.4,186.4c-2.6,2.5-28,28.3-30.1,30.3l-4.4-4.6
	C139.9,371,56.6,279.6,0,218.4L0,218.4z M0,218.4c59.5,58.1,147.9,145.3,205.8,203.5h-9c62.8-66.6,136.2-143.1,200-209.1l-0.1,11.1
	c-44-46.6-103.9-110.7-147.6-157.6c-12.2-13.1-36.7-39.7-48.8-52.9l9,0.1C150.7,71.8,60.3,160,0,218.4L0,218.4z"/>
</svg>
