<?xml version="1.0" encoding="utf-8"?>
<!-- Generator: $$$/GeneralStr/196=Adobe Illustrator 27.6.0, SVG Export Plug-In . SVG Version: 6.00 Build 0)  -->
<svg version="1.1" id="a" xmlns="http://www.w3.org/2000/svg" xmlns:xlink="http://www.w3.org/1999/xlink" x="0px" y="0px"
	 viewBox="0 0 382.3 284.5" style="enable-background:new 0 0 382.3 284.5;" xml:space="preserve">
<style type="text/css">
	.st0{fill:#FA595F;}
</style>
<path class="st0" d="M191.3,258.7c-0.4-72.3-3.4-144.9-3.8-217.3c6.2-4.2,12.6-8,19.1-11.7c32.9-18.1,79.9-38.8,117.4-25.4
	c7.4,2.7,14.2,7.1,19.8,12.6v2l-0.1,50.9c0,47-0.6,105.5-1.1,152.8l0,3.9l-3.8-0.7C297.4,219.2,211,212.2,191.3,258.7L191.3,258.7z
	 M191.3,258.7c17.8-49,105.9-45.2,148.5-39.3l-3.8,3.2l-0.6-50.9c-0.4-47.4-0.6-105.4-0.7-152.8l1.4,3.3c-4.5-4.1-9.7-7.4-15.4-9.5
	c-38.1-13.9-94.7,13.6-127.3,34l1.7-3.2C194.6,115,191.6,186.9,191.3,258.7L191.3,258.7L191.3,258.7z"/>
<path class="st0" d="M378.4,31.8c-12.4,0.2-24.7,0.7-37,0.9l0.9-0.9c0.5,21.3,1,50.3,1.4,71.5c0.6,36.8,1.1,82.1,1.4,119.2l0,4.9
	l-4.9-1.4c-39.6-10.3-89.2-11.7-123.4,13.9c-5.8,4.3-10.9,9.6-15.5,15.2c-1.4,1.9-3,4.1-4.3,5.9l-5.1-6.7
	c23.5-7.4,47.8-11.7,72.3-13.4c16.3-1.1,33-0.6,49.2,1.9c24.6,3.9,48.8,13.3,67.4,30.2l-6.4,2.9C375.1,197.3,376.8,110.8,378.4,31.8
	L378.4,31.8L378.4,31.8z M378.4,31.8c1.6,82.2,3.4,170.6,3.9,252.6c-7.9-7-16.3-13.9-25.5-18.9c-42.3-22-93.6-18.5-138.9-8.8
	c-11.7,2.5-24.6,6.5-35.9,10.2c3.2-4.5,9.4-13,12.6-17.3c1.7-2,3.5-4.1,5.2-6.1l3.8-3.8c15.3-14.7,35.8-23.4,56.6-26.8
	c27.6-4.3,55.7-1.7,82.4,5.9l-4.8,3.5c0.3-37.2,0.9-82.3,1.4-119.2c0.4-21.2,0.9-50.3,1.4-71.5l0-0.9l0.9,0
	C353.8,31.2,366.1,31.6,378.4,31.8C378.4,31.8,378.4,31.8,378.4,31.8z"/>
<path class="st0" d="M46.2,232.7c-1.1-66.8-3.6-158.1-3.9-224.1c7.4-2,14.7-3.4,22.2-4.4c38.1-5.3,80.1-1.6,111.9,21.8
	c2.7,2.1,6.1,4.9,8.6,7.2c2.1,1.8,5,5.1,7,7.2l1.1,1.2v1.8c-0.2,30.6-0.1,77.4-0.4,107.6c-0.2,30.9-0.7,85.2-1.1,116.2
	c-1.4-1.5-5.6-6.8-6.9-8.1c-21.3-21.9-52.2-32.2-82.3-33.3C83.6,225.2,64.6,227.8,46.2,232.7L46.2,232.7L46.2,232.7z M46.2,232.7
	c42.5-14.3,91.5-14.9,129.7,11.2c5.5,3.8,10.7,7.9,15.1,12.8l-5.6,2l-0.6-53.8c-0.4-49.6-0.7-111.9-0.8-161.5l1.1,3
	c-1.8-1.9-4.4-4.8-6.4-6.5c-2.2-2.2-5.4-4.7-7.8-6.7C138.7,9.3,94.8,7.2,56.3,13.5c-3,0.5-6.2,1.1-9.1,1.8l2.9-3.7
	C49.5,75.2,47.6,168.1,46.2,232.7L46.2,232.7L46.2,232.7z"/>
<path class="st0" d="M3.9,31.8c13.5-0.2,27.1-0.8,40.7-1C45,47.9,45.3,65,45.6,82c0.8,47.8,1.4,102.5,1.9,150.6l-5.2-3.6
	c12.3-4.3,25.1-6.7,38.1-8c29.1-2.8,59.4,2.3,84.9,17c13.7,7.4,27,20.3,38.8,30.5c-4.5-1.2-20.6-6.1-24.8-7
	c-13-3.1-26.3-5.1-39.7-6.3c-32.4-2.8-65.5-0.1-96.7,9.2C28,268.8,13.8,275.2,0,282.3C0.5,201.1,2.3,113.2,3.9,31.8L3.9,31.8z
	 M3.9,31.8C5.5,111,7.2,197.2,7.8,276l-5.7-3.4c42.1-22.6,91-30.2,138.3-26.3c15.9,1.4,31.6,3.7,47,8.1l-4.3,7.5
	c-9.1-8.2-19.2-15.3-30.2-20.5c-22.2-10.7-47.3-14.2-71.8-12.3c-14,1.1-28.2,3.9-41.3,8.9c0.5-50.1,1-106.2,1.9-156.1
	c0.3-16.7,0.6-33.5,1-50.2l1,1C30.5,32.5,17.2,32,3.9,31.8L3.9,31.8L3.9,31.8z"/>
</svg>
