<?xml version="1.0" encoding="utf-8"?>
<!-- Generator: $$$/GeneralStr/196=Adobe Illustrator 27.6.0, SVG Export Plug-In . SVG Version: 6.00 Build 0)  -->
<svg version="1.1" id="a" xmlns="http://www.w3.org/2000/svg" xmlns:xlink="http://www.w3.org/1999/xlink" x="0px" y="0px"
	 viewBox="0 0 421.6 289.3" style="enable-background:new 0 0 421.6 289.3;" xml:space="preserve">
<style type="text/css">
	.st0{fill:#FA595F;}
	.st1{font-family:'Roboto-Regular';}
	.st2{font-size:81.39px;}
</style>
<g>
	<path class="st0" d="M241.5,281.4c10.3-5.7,43.7-25.1,40.3-38.5l2.6-0.9c8.8,19.1,26.4,34.6,47.2,38.8c15.6,3.5,32.3,0.4,46.3-7.1
		c8.6-4.7,15.9-11.5,21.8-19.1c16.6-21.9,18.1-51.3,1.7-73.7c-2.8-3.9-6-7.5-9.5-10.7c2,1.5-17.1-13-16.5-12.5l-2.6-2l0.9-3.3
		c5.1-18.3-0.1-39.2-14.4-51.9c-11.6-10.5-28.4-14.2-43.6-11.5l-4.8,0.9l-1.7-4.9c-5.1-14.7-16.8-29.5-33.4-30.2
		c-5.2-0.2-10.5,0.8-15.7,2.6l-7.1,2.5l-0.7-7.5c-0.5-5.7-2.1-11.2-4.6-16.3c-7.5-15.1-24.3-25.6-41.3-23.8
		c-17,1.7-31.7,15.1-36.2,31.4c-1.6,5.5-2.1,11.2-1.5,16.9l0.9,9.5l-8.9-3.5c-11.2-4.4-23.7-5.5-35.5-3.1
		c-37.7,7.2-60,47.9-46.4,83.7l2.7,7.3l-7.8-0.3c-10.1-0.4-20.4,1.3-29.7,5.5c-27.7,12-40.8,45.4-34,74c2.9,11.3,8.7,21.8,16.8,30.3
		c18.9,19.6,47.4,25,72.5,14.8c5-2,9.9-4.4,14.2-7.4c7.7-4.5,14.7-10.9,18.9-18.9l1-2c0.4-1,0.9-2.1,1.2-3.1
		c0.1-0.5,0.8-2.6,0.9-3.2l0.6-2.1l1.5,1.3l20,18l19.9,18.1c-10.3-8.5-31.2-25.6-41.6-34.2l2.1-0.7l-0.6,2.4l-0.3,1.2
		c-3.4,11.3-11.8,20.5-21.7,26.7c-3.2,2.5-9.8,6.2-14.5,8.2c-41,18.3-86.6-4.4-98.8-47.2c-5.4-21.1-1.5-44.4,10.9-62.5
		c13.4-19.6,37.4-30.5,60.9-29.4l-5.1,7c-10.5-26.6-3.8-58.7,16.7-78.7c20.1-20.5,52.5-27,79.2-16.4l-7.9,6.1
		c-0.7-7.1-0.1-14.4,1.8-21.3c5.8-20.9,24.5-37.9,46.3-40.1c21.9-2.3,43.6,10.9,53.1,30.4c3.2,6.4,5.1,13.5,5.7,20.6l-7.8-5
		c29.7-10.5,53.3,6,63.4,34c0.1,0.4,0.3,0.8,0.4,1.3l-6.5-3.9c15.5-2.6,31.9,0.2,45.2,8.7c22.5,14.3,32.1,43.4,24.5,68.6l-1.7-5.3
		l16.5,13.1l0.2,0.2l0.1,0.1c20.4,18.8,28.9,48.6,19.1,74.9c-7.4,20.1-23.6,37.1-43.8,44.8c-25.4,10-54.3,5-74.2-14
		c-7.6-7.3-13.7-16-17.6-25.8l2.6-0.9c0.3,1.4,0.4,2.9,0.1,4.3C281.9,260.5,253.9,275.2,241.5,281.4L241.5,281.4L241.5,281.4z"/>
	<circle class="st0" cx="209.3" cy="281.7" r="4.2"/>
</g>
<text transform="matrix(1.08 0 0 1 150.3901 194)" class="st0 st1 st2">CO₂</text>
</svg>
