<?xml version="1.0" encoding="UTF-8"?><svg id="a" xmlns="http://www.w3.org/2000/svg" viewBox="0 0 401.58 401.92"><defs><style>.b{fill:#fff;}.c{fill:#191558;}.d{fill:none;stroke:#191558;stroke-miterlimit:10;stroke-width:4px;}</style></defs><polygon class="c" points="173.31 170.48 315.32 89.47 238.12 231.48 93.26 312.48 173.31 170.48"/><path class="c" d="M401.57,200.98c.87,78.35-48.77,153.75-120.98,184.22C148.41,442.57-.04,345.22,.01,200.98-.86,120.14,51.52,43.1,126.9,14.15c131.32-51.98,274.87,45.74,274.67,186.83h0Zm0,0c.83-78.06-49.79-152.43-122.59-180.33C152.1-29.32,13.98,64.72,14,200.98c-.36,135.97,138.47,230.53,264.99,180.35,72.8-27.92,123.41-102.29,122.58-180.35h0Z"/><circle class="b" cx="204.29" cy="200.98" r="17"/><line class="d" x1="204.29" y1="31.34" x2="204.29" y2="49.44"/><line class="d" x1="375.36" y1="200.98" x2="357.25" y2="200.98"/><line class="d" x1="204.29" y1="350.61" x2="204.29" y2="368.71"/><line class="d" x1="35.12" y1="198.12" x2="51.32" y2="198.12"/></svg>