<?xml version="1.0" encoding="utf-8"?>
<!-- Generator: $$$/GeneralStr/196=Adobe Illustrator 27.6.0, SVG Export Plug-In . SVG Version: 6.00 Build 0)  -->
<svg version="1.1" id="a" xmlns="http://www.w3.org/2000/svg" xmlns:xlink="http://www.w3.org/1999/xlink" x="0px" y="0px"
	 viewBox="0 0 395.8 297.7" style="enable-background:new 0 0 395.8 297.7;" xml:space="preserve">
<style type="text/css">
	.st0{fill:#FA595F;}
</style>
<path class="st0" d="M4.2,95.2c112.9-2.4,279.8-6.4,391.6-6.8c-19,53.5-41.4,115.7-60.8,169.1l-1.7,4.6l-4.9,0
	c-62-0.3-138.3-0.7-199.9-1.6c-23.2-0.3-46.5-0.6-69.7-1.1l-0.9-2.8C40.7,206.1,21.2,145.7,4.2,95.2L4.2,95.2z M4.2,95.2
	C23.4,144.9,47,203.9,66,253.7l-4-2.8c86-1.6,180.2-2.3,266.5-2.6l-6.5,4.6c18-50.1,39.6-109.8,58-159.8l6.3,9
	C280.1,101.3,111.7,97.6,4.2,95.2L4.2,95.2L4.2,95.2z"/>
<path class="st0" d="M81.1,280.4c14,6.7,29.5,14.1,44.8,8.3c4.8-1.8,9.2-4.8,13.8-8.3c-1.2,2.6-2.7,5.1-4.6,7.4
	C120.2,305.4,92.9,297.4,81.1,280.4L81.1,280.4z"/>
<path class="st0" d="M247.9,280.4c13.8,7.2,29.6,14.8,45,8.6c4.8-1.9,9.2-5,13.7-8.6c-1.2,2.5-2.8,5-4.8,7.2
	C286.7,304.8,260.2,296.7,247.9,280.4L247.9,280.4z"/>
<path class="st0" d="M66.4,73.8c10.2-15.2,21.4-30.6,32.3-45.3c9.1-0.5,18.2-0.9,27.3-1.3l1.8-0.1l1.7,1.5
	c7.5,6.6,14.9,13.3,22.3,20l-8.9,0.6c11.1-15,23.9-31.9,35.4-46.6l2.1-2.7c8.7,0,17.4-0.1,26.1,0c15,14.8,31.2,30.8,45.8,45.8
	l-8.6,0c5.6-5.2,15.4-14,21.1-19.1c7.1,0.3,16.6,0.6,23.7,0.9l1.8,0.1l1,0.9c8.7,7.3,17.4,14.7,25.9,22.2
	c8.6,7.5,17.1,15.1,25.4,22.9c-14.5-9-28.8-18.5-42.9-28.2c-4.7-3.2-9.4-6.5-14-9.7l2.8,1c-3.6,0.2-7.2,0.3-10.8,0.5l-10.8,0.4
	l3.8-1.5c-6.4,6.6-15.9,16.3-22.4,22.8c-5.2-4.8-10.7-9.9-15.9-14.8C221.8,34.4,209,22,198.7,12l4.9,2c-6.6,0-13.2,0-19.9,0l5.5-2.7
	c-11.5,14.6-24.9,31.1-36.8,45.4l-4.3,5.2c-8.6-8.6-17.2-17.4-25.6-26.1l3.5,1.4c-8.4-0.3-16.8-0.7-25.3-1.2l3-1.4
	C91.7,47.7,79,61.3,66.4,73.8L66.4,73.8L66.4,73.8z"/>
</svg>
