<?xml version="1.0" encoding="utf-8"?>
<!-- Generator: $$$/GeneralStr/196=Adobe Illustrator 27.6.0, SVG Export Plug-In . SVG Version: 6.00 Build 0)  -->
<svg version="1.1" id="a" xmlns="http://www.w3.org/2000/svg" xmlns:xlink="http://www.w3.org/1999/xlink" x="0px" y="0px"
	 viewBox="0 0 401.6 401.9" style="enable-background:new 0 0 401.6 401.9;" xml:space="preserve">
<style type="text/css">
	.st0{fill:#FA595F;}
	.st1{fill:#FFFFFF;}
	.st2{fill:#FA595F;stroke:#FA595F;stroke-width:4;stroke-miterlimit:10;}
</style>
<polygon class="st0" points="173.3,170.5 315.3,89.5 238.1,231.5 93.3,312.5 "/>
<path class="st0" d="M401.6,201c0.9,78.3-48.8,153.7-121,184.2C148.4,442.6,0,345.2,0,201C-0.9,120.1,51.5,43.1,126.9,14.1
	C258.2-37.8,401.8,59.9,401.6,201L401.6,201z M401.6,201c0.8-78.1-49.8-152.4-122.6-180.3C152.1-29.3,14,64.7,14,201
	c-0.4,136,138.5,230.5,265,180.4C351.8,353.4,402.4,279,401.6,201L401.6,201L401.6,201z"/>
<circle class="st1" cx="204.3" cy="201" r="17"/>
<line class="st2" x1="204.3" y1="31.3" x2="204.3" y2="49.4"/>
<line class="st2" x1="375.4" y1="201" x2="357.2" y2="201"/>
<line class="st2" x1="204.3" y1="350.6" x2="204.3" y2="368.7"/>
<line class="st2" x1="35.1" y1="198.1" x2="51.3" y2="198.1"/>
</svg>
