<?xml version="1.0" encoding="utf-8"?>
<!-- Generator: $$$/GeneralStr/196=Adobe Illustrator 27.6.0, SVG Export Plug-In . SVG Version: 6.00 Build 0)  -->
<svg version="1.1" id="a" xmlns="http://www.w3.org/2000/svg" xmlns:xlink="http://www.w3.org/1999/xlink" x="0px" y="0px"
	 viewBox="0 0 360 416.9" style="enable-background:new 0 0 360 416.9;" xml:space="preserve">
<style type="text/css">
	.st0{fill:#FA595F;}
</style>
<path class="st0" d="M142.3,0c7.6,8.5,14.1,18,20.9,27.1c33.2,45.3,59.6,94.9,84.9,144.9c25.7,52.5,65.1,135.4,30.8,190.9
	c-27.2,43.1-87.9,54.2-135.4,54c-37.5-0.6-76.9-9.5-105.4-35.3C5.2,352.9-2.5,309.9,0.6,268.5c0.6-11.6,2.6-23.6,6.1-34.7
	c8.9-27.3,22.7-52.1,36.5-76.9C68.2,113,94.9,70.1,122.8,28.1C128.2,20.3,136.6,7.4,142.3,0L142.3,0L142.3,0z M142.4,1.4
	c-2.5,4.9-5,9.6-7.7,14.3C104.4,69.1,74,122.7,46,177.3c-12,24.3-24.8,49.2-29.4,76c-0.9,5.2-1.3,10.5-1.5,15.9
	c-0.5,11-0.8,21.7,0.2,32.5c4.7,59.7,46.8,93.9,104,101.7c32.3,4.5,66,2.4,97.2-7.2c25.6-8.2,49.3-23.2,60.4-48.6
	c22-51.6-11.7-125.2-33.9-173.1c-26.5-55.3-55-110.2-91.3-159.9C148.7,10.2,145.2,6,142.4,1.4L142.4,1.4L142.4,1.4z"/>
<path class="st0" d="M48.3,268.3c3.9,40.5,23.2,70,61.6,84.8c8.8,3.6,18,6.1,27.2,8.5c2.7,0.6,6.8,1.5,9.5,2.2
	c-13,1.3-26.3,0.2-39.2-3.2c-13.1-3.5-25.5-9.8-35.6-18.8C51.6,323.6,42.3,294.5,48.3,268.3L48.3,268.3L48.3,268.3z"/>
</svg>
