<?xml version="1.0" encoding="UTF-8"?><svg id="a" xmlns="http://www.w3.org/2000/svg" viewBox="0 0 413.67 435.15"><defs><style>.b{fill:#191558;}</style></defs><g><polygon class="b" points="207.08 144.07 200.08 276.39 193.08 144.07 207.08 144.07 207.08 144.07"/><ellipse class="b" cx="200.08" cy="302.52" rx="11.67" ry="12.09"/></g><path class="b" d="M0,218.36C58.23,156.26,142.07,65.11,200.46,4.66l4.43-4.66c14.69,15.07,39.97,41.31,54.58,56.52,46.57,48.51,108.08,113.05,154.2,161.91-56.6,58.38-125.27,128.71-182.4,186.44-2.63,2.46-27.98,28.28-30.09,30.28l-4.36-4.62C139.9,370.97,56.62,279.63,0,218.36H0Zm0,0c59.55,58.1,147.93,145.3,205.77,203.49h-8.96c62.81-66.61,136.23-143.13,200.03-209.05l-.07,11.06c-44.04-46.61-103.93-110.66-147.56-157.65-12.22-13.06-36.71-39.72-48.84-52.88l9.02,.08C150.72,71.76,60.3,160,0,218.36H0Z"/></svg>