<?xml version="1.0" encoding="UTF-8"?><svg id="a" xmlns="http://www.w3.org/2000/svg" viewBox="0 0 434.49 453.01"><defs><style>.b{fill:#191558;}</style></defs><path class="b" d="M248.41,0c-11.92,3.17-31.25,10.41-33.44,24.2-.45,2.64,.17,5.33,.81,7.89,.95,4.61,1.18,9.39-.03,14.05-1.33,5.79-5.93,10.51-11.62,12.15-1.85,.62-3.76,.88-5.65,1.11l.5-.14c-6.06,3.32-12.07,6.91-17.73,10.87-2.79,1.99-5.58,4.09-7.76,6.47-.72,.77-1.39,1.66-1.67,2.57-.05,.21-.03,.32-.01,.34,.47,.62,1.99,.83,2.97,.98l.98,.12c.59,1.14,.98,2.13,.94,3.34-.08,5.12-6.09,7.38-10.13,8.24-4.49,1.06-9.2,1.21-13.77,1.34-8.6-2.16-31.2-7.93-27.13-20l.85-1.1c-.15,.11-.08,.07-.14,.11-.02,.02-.07,.07-.11,.15-.1,.14-.29,.66-.15,1.19,.07,.26,.15,.43,.26,.57,.05,.1,.17,.19,.17,.2-5.22-1.35-11.93-.77-17.63-.53l-1.54,.09-.88-1.34-3.55-5.41,5.13-1.62c.27,3.74,.96,7.69,1.99,11.33,1.07,3.7,2.62,7.37,4.95,10.37,3.06,10.29,5.93,20.49,5.04,31.42-.34,4.34-2.74,9.62-7.52,10.78l-1.38,.49c-4.53-3.42-10.27-5.74-15.95-5.87-5.09-.15-9.87,1.72-13.79,4.96l-3.97,3.23-1.81-4.89c-3.86-9.75-11.78-20.07-22.76-11.83l-3.28,.58c-7.45,.33-18.26,2.93-26.52,5.06-2.82,.81-6.36,2.29-8.1,4.54-.32,.52-.29,.64-.25,.97,.8,2.56,3.55,4.38,6.11,6.21,3.7,2.5,12.01,6.52,16.14,8.74-6.22,1.95-18.96,6.23-25.2,8.2l1.07-8.11c3.37,2.26,6.29,4.67,8.98,7.75,2.99,3.43,5.36,7.43,5.51,12.4l-6.14-4.4c9.62-2.88,20.17-4.09,29.65,.38,3.71,1.82,7.45,5.2,9.16,8.66,4.85,7.34,14.07,10.19,22.42,11.6l4.16,.5,2.97,8.77c.08-.08-.06,.07-.11,.13-.07,.09-.15,.17-.22,.27-.14,.18-.28,.37-.38,.55-.21,.35-.32,.65-.35,.77-.01,.12,.03,0,0-.06-.07-.09,.03-.02,.14,.16l-2.71-1.47c6.63,1.5,12.83,5.78,14.99,12.61,1.97,6.12,.13,12.92-2.56,18.32l.24-4.06c.55,1.32,1.17,2.91,1.86,4.24,4.92,10.13,12.41,19.78,23.01,24.13,1.68,2.31,2.93,4.66,3.71,7.36,2.51,8.05-1.5,15.47-9.17,18.79l2.85-6.98c1.4,3.17,2.92,6.81,5.25,9.36-.05-.07-.13-.12-.21-.13l2.91,5.64-6.51,48.14-6.59,48.13-.12,.9-.39,.81c-2.73,5.43-5.29,10.39-9.15,15.24-.74,.88-1.53,1.79-2.87,2.84l-.59,.41c-1.66,1.11-3.79,1.77-5.85,1.35-1.34-.24-2.41-.84-3.34-1.61l7.74-8.65,10.48,9.67,2.29,2.11c-.61,3.62-1.11,7.09-1.65,10.35l-2.15-5.5,.26,.18c.76,.56,1.96,1.16,2.74,1.3-.48-.04-1.26,.39-1.44,.75l7.94-1.26,7.99,5.46-5.44-.62c.62-.22,1.28-.43,1.91-.55,8.13-1.87,14.96,3.4,17.03,10.99l.64,2.64-7.12-4.63c9.03-1.87,19.47-.17,25.76,7.19l.62,.82,1.2,1.66-5-2.76,25.31-.03-5.78,7.31c-.8-4.1-1.25-8.34,1.48-12.26,2.51-3.43,7.25-4.05,10.97-2.48,4.62,1.91,8.07,4.99,11.6,8.19l-4.59-1.58c2.43-.26,10.06-.87,12.3-1.1,1.76,2.22,4.62,5.62,6.3,7.73l-5.81-2.09c7.25-1.38,16.71,.42,19.42,8.54,.44,1.1,.58,2.35,.76,3.51l-.71-2.37c.06,.1,.26,.44,.4,.67,.16,.26,.33,.51,.5,.76,.35,.5,.71,.97,1.06,1.38,.68,.83,1.5,1.45,1.57,1.45,.03,.01-.32-.15-.89-.09-.58,.05-1.03,.35-1.08,.42-.07,.09,.54-.63,.94-1.65l.35-.88c4.59-5.68,11.17-1.73,15.64,1.71,.79,.59,1.51,1.19,2.26,1.79l-6.08-.92c8.82-3.26,23.6-8.62,32.25-2.67l-9.14,6.57c-3.59-12.97-7.22-29.51-1.98-42.58,4.68-5.47,11.47-9.77,19-9.01l-5.86,3.12c8.12-14.78,23.54-22.75,38.16-11.22l-4.99-1.04c3.23-.85,10.44-2.61,13.64-3.44,.49,2.06,2.04,8.12,2.57,10.3l-5.49-4.39,8.57,.21c3.29,.29,16.57,2.11,19.79,2.46l.44,4.95,.04,.45c.02,.2,.05,.4,.08,.6,.07,.4,.15,.78,.24,1.12,.17,.67,.47,1.14,.44,1.08-.02-.03-.18-.19-.46-.33-.27-.14-.63-.19-.77-.19-.29,.01,.13,0,.72-.33l2.46-1.39c3.59,1.74,14.08,6.55,17.46,8.17l-4.04-.3c6.98-1.88,13.74-3.98,21.03-4.49,1.45-.04,3.03,.08,4.42,.73,.29,.13,.57,.28,.83,.44l-7.51,1.33,23.48-30.5,4.53-2.16c-.1,0,.01,0,.04,0h.17l.38-.03c.73-.05,1.55-.21,2.18-.43,.83-.29,1.25-.64,1.39-.82,.62-1.05,.17-2.7-.3-4.25l-1.36-4.01,3.56-2.29c.12-.08,.43-.29,.65-.45,1.39-.93,3.19-2.65,3.89-3.84,.15-.26,.18-.42,.17-.33-.02,.07,0,.45,.11,.7,.31,.53,.08,.04-.7-.35l4.49,.25-.72,.26c-15.79,5.41-30.73,.1-32.33-17.94l-.17-1.72c1.29-2.14,2.65-4.53,3.59-6.9,.97-2.31,1.75-4.77,1.52-6.84-.09-.28,0-.07,.1,0-1.09-.48-4.4-.06-5.84-.02-2.57-3.28-4.81-6.48-6.28-10.39-3.03-7.81,1.68-13.95,9.87-13.38,.56,.04,1.13,.08,1.68,.15l1.58,.23-3.31,.57c-.11,.06-.04,.03-.02,0l.11-.07,.26-.19c.18-.14,.37-.29,.55-.45,7.52-7.23-4.45-18.32-9.96-23.4-.92-8.32,3.57-15.5,12.38-15.76,.86,0,1.69,.05,2.53,.09l-4.22,7.56-10.93-14.57-.85-1.13c-.03-.94-.13-1.97-.23-2.95-.29-2.51-1.05-6.34-2.44-8.02,.04-.01,.11,.07,.18,.04,.04,.05,.14,0,.14,.02-2.5,1.06-4.51,3.87-6.38,6.3l-7.86,10.72c-.08-8.41-.47-19.59,.31-27.86,.48-4.5,.79-9.37,3.15-13.57,1.07-1.78,2.93-3.16,5.06-3.31l-3.14,1.71,17.24-22.96-.13,4.67c-.19-.3-.26-.43-.37-.63-3.65-6.38-.12-12.44,7.19-12.4,2.77-.07,5.15,.39,7.73,.92-.03,0,.13,.02,.26,.03,.14,0,.29,.02,.44,0,3.5-.11,4.31-4.22,4.48-7.48,.23-6.63-1.43-13.28-3.28-19.75,1.45-8.35,3.23-16.48,5.58-24.62,2.22-7.04,4.32-14.59,9.29-20.41,.85-.93,1.96-1.87,3.44-2.58l-1.87,3.39c-1.64-6.32-8.28-9.44-14.48-10.04-5.41-.75-11.38,0-16.75,.93l-1.22,.19-.89-.59-9.18-6.11,.84,.36-7.49-1.88-1.48-4.13-.07,.1v.02s0,0,0,0c.09-.22,.11-.36,0-.65-.1-.38-.57-.95-1.16-1.46-4.65-3.45-10.96-4.65-16.74-5.85-8.59-1.6-17.37-2.39-26.1-2.99-5.97-8.52-11.36-17.67-12.17-28.35l1.9,1.63c-4.41,.51-9.81,3.06-9.08,8.31l.21,6.14-3.02-5.18c-3.93-6.43-12.45-20.31-19.72-21.77-1.16-.12-2.19,.29-3.01,1.25l-.89,1.04c-2.29-3.28-5.34-7.26-9.55-7.75-1.96-.22-3.76,1.85-5.14,2.97l.69-2.56c3.14-12.47-1.2-18.47-14.33-12.57-4.66-5.54-10.48-13.2-8.73-20.78h0Zm0,0c-.92,3.79,.52,7.64,2.31,10.94,1.83,3.33,4.18,6.4,6.77,9.16l-.41-.08c3.31-1.49,6.96-2.93,10.7-2.41,7.21,1.43,6.54,10.62,5.25,16.18l-1.34-.81c5.1-4.73,11.57,1.09,14.7,5.41l-1.67-.07c8.16-9.21,23.06,14.35,26.95,20.34l-2.8,.96-.07-1.18c-.08-.79,.08-1.62,.18-2.41,1.26-5.25,6.68-7.82,11.61-8.53l1.76-.25c.17,5.27,1.87,10.35,4.2,15.08,2.07,4.19,4.63,8.35,7.42,12.07l-1.53-.81c8.56,.42,17.13,1.03,25.7,2.44,7.03,1.18,26.43,4.76,21.51,15.37-.04,.06-.08,.12-.18,.26l-1.48-4.13,7.53,1.72,.43,.1,.42,.27,9.31,5.91-2.1-.4,5.18-.93c1.73-.29,3.52-.38,5.28-.58,.88-.12,1.79-.07,2.69-.09l2.7-.02c5.7,.33,11.24,1.44,16.07,5.04,3.9,2.95,6.66,7.35,7.11,12.29l-2.2,1.41c-.99,.56-2.01,1.89-2.7,3.04-2.86,4.86-4.49,10.42-6.06,15.94-2.05,7.55-3.64,15.41-4.87,23.13l-.11-1.6c3.39,11.03,9.08,34.31-8.01,36.28-2.72,.13-5.81-1.03-8.5-.81-.78,.01-1.53,.23-1.43,.24,.03,0,.31-.21,.45-.52,.15-.3,.12-.5,.13-.42,0,.06,.06,.28,.17,.55,.05,.13,.12,.28,.19,.42l.11,.21s.1,.17,.06,.1l-.13,4.67-16.94,23.17-3.14,1.71c.26,0,.54-.05,.78-.16,.21-.08,.38-.14,.53-.27,.09-.08,.13-.1,.16-.12,.07-.04,.13-.11,.17-.18h.01c-.1,.14-.15,.34-.26,.57-2.11,7.22-1.79,15.47-1.79,23l-8.03-2.46c1.57-2.18,3.23-4.34,5.47-6.42,3.84-3.81,10.19-5.62,14.48-.89,3.73,4.29,4.54,9.76,5.12,15.12l-.93-2.51c3.48,4.64,13.4,17.32,16.84,21.88l-9.95,.11c-3.14-.21-4.37,.61-4.46,3.75l-1.59-3.26c5.06,4.64,9.82,9.5,12.67,16.15,3.52,7.66,1.46,17.1-5.73,21.96l-.37,.25-.21,.13-.3,.18-1.39,.83-1.92-.26c-.52-.08-1.48-.19-2-.21-.54,0-1.12,.02-1.26,.08-.1,0-.05,.04-.04,0,.44-.16,.77-.61,.97-1.03,.06-.14,.11-.22,.11-.35,.03-.04,.02-.13,.03-.14,.02,.02,0-.02,0,.04,.36,2.21,2.19,4.81,3.51,6.65l-4.56-1.96c5.66-.79,12.45,1.44,13.86,8.02,1.08,4.72-.44,9.18-1.93,13.14-1.03,2.45-2,4.56-3.38,6.89l.73-3.23c.54,4.2,1.69,8.02,5.6,9.57,4.62,1.81,10.95,.13,15.58-1.69l2,1.13c.95,.53,1.91,1.09,2.92,2.01,7.75,7.17,.81,16.41-6.2,20.85l2.2-6.31c4.07,11.09-2.45,20.03-14.45,20l4.53-2.16-23.25,30.67-7.52,1.33c.43,.3,.91,.5,1.42,.59,.04,.03,.16,.01,.05,.02h-.1c-6.13,.55-12.36,2.52-18.31,4.18l-2.07,.62-1.97-.91-14.81-6.85,5.13-.14c-9.83,5.2-16.92-2.35-17.23-12.18l5.05,5.54-14.61-1.81,.58,.04-8.57-.19-4.41-.1c-.57-2.23-1.69-6.71-2.25-8.95l7.06,4.22c-2.08,.51-8.78,2.25-10.71,2.73-2.31-1.82-5.35-4.16-7.93-4.59-6.57-1.31-11.89,5.05-14.97,10.28l-1.86,3.24-4-.12c-2.69-.19-5.27,1.62-7.25,3.41-.18,.16-.34,.32-.5,.49l-.36,.37,.97-1.6c-1.75,4.65-1.52,10.86-.94,16.09,.66,5.87,1.99,11.97,3.67,17.63l-9.14,6.56c-2.54-.76-5.76-.21-8.67,.37-5.14,1.1-10.46,3-15.31,5.07-2.07-1.56-4.32-3.62-6.45-4.98-.67-.47-1.19-.72-1.69-.94-.01,0-.05-.03-.04-.02,.02,0,.04,.02,.06,.02,1.32,.25,2.83-.22,3.91-1.11,.22-.18,.43-.37,.62-.58l1.11-1.69c-2.38,6.01-8.24,10.6-14.97,7.43-4.22-2.09-6.69-5.52-9-9.35l-.2-.35-.52-2.02c-.12-.49-.17-.75-.2-.73-1.26-.99-4-.81-5.71-.59l-3.7,.5c-1.17-1.5-5.12-6.26-6.38-7.86l5.16,2.18c-1.79,.2-10.1,.85-11.77,1.03-3.02-2.7-6.18-6.01-9.8-7.66-.03,0-.04,0-.06,0-.03,0-.08-.04,.01,0,.35,.03,.65,0,1.11-.14,.86-.17,2.06-1.3,2.18-1.96,.01,0-.03,.1-.04,.33-.05,.79,.07,1.88,.25,2.7l1.4,7.32c-7.02,.02-28.24-.06-35.42-.04-1.4-1.66-2.78-4.22-4.56-5.39-3.15-2.26-7.6-2.52-11.44-2.03-.34,.05-.83,.13-.94,.16l-5.61,1.15-1.51-5.78c-.18-.74-.47-1.96-.8-2.69-.73-1.61-1.54-2.01-3.1-1.61l.12-.05-5.44-.62-7.98-5.48,7.94-1.26c-4.67,6-12.79,3.98-18.04-.2l-2.7-2.09,.55-3.42,1.17-7.26,1.8,5.2-10.46-9.7,7.74-8.65c-1.06-1.03-3.1-1.43-4.48-.81-.08,.03-.16,.06-.23,.11-.09,.07-.07,.04-.09,.05-.01,0-.02,.02-.03,.03,.1-.07,.56-.51,.98-1.02,2.98-3.72,5.47-8.51,7.64-12.81l-.52,1.71c3.43-24.01,10.18-72.2,13.66-96.19l2.91,5.64c-.3-.17-.6-.36-.89-.55-1.13-.7-1.98-1.7-2.83-2.66-3.75-4.76-5.83-10.48-8.08-16.02l4.55-2.73c2.7-1.29,4.21-2.66,3.25-5.86-.32-.97-.77-2.18-1.34-3l2.24,1.82c-13.24-6.06-22.16-18.36-27.86-31.31-.74-1.51-1.2-3.19-1.84-4.79,2.49-4.96,5.91-11.9,.55-16.08-1.78-1.44-4.23-2.15-6.44-2.72-5.47-5.23-4.76-12.15,.56-17.3l2.97,8.77c-6.4-.71-13.03-2.05-18.96-4.77-6.44-2.9-12.88-7.57-15.92-14.24l.48,.92c-5.46-7.88-16.88-6.8-25.24-4.86-.62,.15-1.34,.36-1.81,.5l-6.01,1.89-.13-6.3c.06-2.16-1.66-4.6-3.16-6.42-3.84-4.64-10.04-8.11-14.87-11.41l9.03-2.82,15.22-4.75-.67,8.15c-2.57-1.37-5.12-2.77-7.63-4.49-11.74-7.5-14.51-19.08,.44-25.5,2.26-1.07,6.13-2,8.66-2.58,2.74-.64,5.48-1.25,8.26-1.82,5.6-1.04,11.33-2.27,17.11-2.05,.34,.04,.37,0,1.2,.19l-3.28,.58c2.96-1.99,6.46-3.73,10.52-4.17,12.08-1.27,20.13,10.2,23.74,20.18l-5.78-1.67c5.14-4.16,11.96-6.65,18.63-6.3,6.65,.31,12.91,2.66,18.29,6.45l-2.88-.57c.14-.09,.33-.1,.47-.18,.12-.11,.29-.12,.4-.27,.06-.06,.13-.11,.2-.16,4.58-6.5-.39-25.14-2.53-32.72l.47,.9c-1.36-1.89-2.44-3.87-3.33-5.9-2.48-6.04-3.65-12.31-4.02-18.82l-.48-10.58c2.29,3.67,6.85,10.93,9.05,14.45l-2.42-1.25c3.65-.13,7.3-.21,11.03-.06,3.13,.23,6.59,.18,9.52,1.77,2.45,1.41,2.38,4.54,.24,6.04l.85-1.09c-2.12,6.67,18.13,12.69,23.18,13.95l-.48-.05c2.67-.03,5.39-.05,8.04-.28,3.48-.38,7.6-.92,10.44-2.82l.22-.2c.79-.56,1.41-1.54,1.25-2.51-.02-.12-.09-.35-.06-.3l1.39,.99c-2.21-.36-5.1-1.05-5.88-3.63-1.79-6.55,15.39-15.55,20.09-18.52,3.06-1.75,6.14-3.43,9.29-5.04l.24-.12,.25-.02c7.14-.3,13.65-3.99,15.52-11.21,1.21-4.2,1.15-8.84,.38-13.19-.6-2.75-1.13-5.62-.57-8.41,2.73-14.37,22.29-21.05,34.8-24h0Z"/></svg>