<?xml version="1.0" encoding="UTF-8"?><svg id="a" xmlns="http://www.w3.org/2000/svg" viewBox="0 0 421.56 289.31"><defs><style>.b,.c{fill:#191558;}.c{font-family:Roboto-Regular, Roboto;font-size:81.39px;}</style></defs><g><path class="b" d="M241.54,281.36c10.26-5.69,43.67-25.14,40.34-38.49l2.58-.91c8.77,19.14,26.4,34.6,47.23,38.81,15.6,3.46,32.32,.44,46.29-7.12,8.59-4.67,15.87-11.45,21.82-19.13,16.57-21.87,18.07-51.33,1.69-73.73-2.81-3.88-6-7.51-9.53-10.7,2.01,1.54-17.15-13.04-16.48-12.54l-2.6-1.99,.88-3.29c5.09-18.3-.12-39.25-14.42-51.95-11.62-10.47-28.37-14.23-43.6-11.49l-4.81,.93-1.67-4.86c-5.14-14.68-16.8-29.54-33.39-30.16-5.17-.18-10.52,.77-15.74,2.59l-7.1,2.47-.66-7.51c-.5-5.68-2.05-11.25-4.61-16.33-7.47-15.15-24.34-25.63-41.33-23.77-16.98,1.66-31.68,15.1-36.22,31.39-1.57,5.46-2.07,11.2-1.52,16.88l.93,9.53-8.87-3.47c-11.22-4.38-23.69-5.47-35.5-3.07-37.67,7.18-60,47.92-46.4,83.7l2.72,7.32-7.78-.33c-10.11-.44-20.43,1.33-29.69,5.47-27.69,11.97-40.79,45.45-33.96,74.02,2.91,11.28,8.66,21.83,16.78,30.27,18.9,19.6,47.42,25.04,72.53,14.84,4.99-1.97,9.88-4.42,14.24-7.41,7.73-4.47,14.66-10.92,18.89-18.86l1-2.01c.36-.96,.87-2.15,1.23-3.13,.12-.52,.75-2.65,.9-3.24l.57-2.05,1.49,1.34,19.97,18.04,19.93,18.09c-10.34-8.54-31.24-25.64-41.55-34.22l2.05-.7-.55,2.36-.28,1.18c-3.44,11.26-11.77,20.5-21.65,26.66-3.25,2.54-9.82,6.2-14.5,8.16-41.04,18.27-86.59-4.35-98.79-47.25-5.45-21.11-1.54-44.43,10.89-62.49,13.38-19.61,37.38-30.48,60.93-29.39l-5.05,6.99c-10.45-26.55-3.8-58.7,16.65-78.74,20.13-20.55,52.5-26.99,79.17-16.44l-7.94,6.06c-.73-7.12-.13-14.41,1.84-21.32C164.65,19.44,183.35,2.46,205.18,.27c21.91-2.33,43.57,10.91,53.11,30.44,3.21,6.43,5.15,13.48,5.74,20.62l-7.75-5.04c29.67-10.54,53.27,5.97,63.36,34.03,.15,.43,.27,.78,.44,1.34l-6.49-3.93c15.49-2.6,31.86,.16,45.16,8.67,22.52,14.26,32.15,43.39,24.55,68.59l-1.73-5.27,16.54,13.12,.2,.16,.11,.1c20.36,18.83,28.88,48.59,19.08,74.88-7.42,20.15-23.64,37.15-43.77,44.8-25.42,10.02-54.32,4.95-74.17-13.99-7.58-7.29-13.66-16.02-17.64-25.76l2.58-.91c.31,1.42,.44,2.9,.15,4.27-2.73,14.16-30.79,28.85-43.12,34.99h0Z"/><circle class="b" cx="209.27" cy="281.7" r="4.18"/></g><text class="c" transform="translate(150.39 194) scale(1.08 1)"><tspan x="0" y="0">CO₂</tspan></text></svg>