<?xml version="1.0" encoding="utf-8"?>
<!-- Generator: $$$/GeneralStr/196=Adobe Illustrator 27.6.0, SVG Export Plug-In . SVG Version: 6.00 Build 0)  -->
<svg version="1.1" id="a" xmlns="http://www.w3.org/2000/svg" xmlns:xlink="http://www.w3.org/1999/xlink" x="0px" y="0px"
	 viewBox="0 0 266.8 477.4" style="enable-background:new 0 0 266.8 477.4;" xml:space="preserve">
<style type="text/css">
	.st0{fill:#FA595F;}
</style>
<path class="st0" d="M218.1,3c-23.8,0.5-48.7,2.1-72.3,3l2.6-1.6c-11.6,23.6-23.8,47.6-35.6,71.2c-15,29.3-67,123.2-83.3,153.8
	l-5.3-8.9h106.3l-3.9,8.5L29.7,441.2l-10.1-6.3l230.4-278l4.2,9.8l-54.4-3.7c-19.7-1.5-44.1-2.7-63.7-4.3l4.1-8
	C165.6,102.1,193.3,52,218.1,3L218.1,3z M218.1,3c-22.5,49.7-44.5,103-66.8,153l-5.1-8.8c31,2.2,77.5,5.3,108.9,7.4l11.7,0.8
	C242.7,184.6,18.9,454.6,0,477.4C10.2,454.9,103,252.1,115.7,224l5.5,8.5c-2.5,0.1-109.5-0.1-107,0l4.8-8.9
	c11.6-21.4,65.6-120.3,75.8-139.8c4.4-8.2,11.4-19.3,16-27.5C122,37.6,133,18.7,144.2,0C167.9,0.9,194.7,2.4,218.1,3L218.1,3
	L218.1,3z"/>
</svg>
