<?xml version="1.0" encoding="UTF-8"?><svg id="a" xmlns="http://www.w3.org/2000/svg" viewBox="0 0 382.26 284.48"><defs><style>.b{fill:#191558;}</style></defs><path class="b" d="M191.27,258.69c-.41-72.27-3.42-144.93-3.84-217.32,6.24-4.19,12.59-8.04,19.05-11.67,32.85-18.14,79.87-38.77,117.38-25.44,7.36,2.72,14.17,7.11,19.82,12.63v1.95l-.12,50.93c-.01,47.04-.59,105.5-1.13,152.8l-.04,3.86-3.76-.66c-41.23-6.57-127.63-13.59-147.36,32.92h0Zm0,0c17.81-48.96,105.94-45.16,148.47-39.33l-3.8,3.2-.57-50.93c-.42-47.44-.61-105.36-.68-152.8l1.43,3.29c-4.47-4.1-9.68-7.35-15.4-9.52-38.15-13.88-94.7,13.63-127.32,33.97l1.69-3.17c-.52,71.57-3.51,143.52-3.82,215.29h0Z"/><path class="b" d="M378.35,31.84c-12.38,.21-24.71,.67-36.98,.92l.92-.92c.48,21.26,1,50.26,1.36,71.52,.6,36.84,1.07,82.08,1.43,119.2l.05,4.93-4.85-1.39c-39.63-10.32-89.25-11.67-123.37,13.95-5.8,4.3-10.93,9.62-15.49,15.2-1.4,1.87-2.96,4.13-4.26,5.89l-5.12-6.68c23.49-7.39,47.76-11.72,72.3-13.36,16.3-1.06,33-.65,49.18,1.88,24.57,3.85,48.76,13.32,67.4,30.17l-6.43,2.87c.62-78.69,2.31-165.17,3.85-244.18h0Zm0,0c1.6,82.23,3.42,170.63,3.91,252.64-7.86-6.98-16.29-13.89-25.55-18.87-42.29-21.99-93.57-18.54-138.91-8.75-11.7,2.46-24.6,6.46-35.95,10.25,3.25-4.51,9.45-13.02,12.61-17.34,1.72-1.99,3.48-4.13,5.23-6.05l3.78-3.77c15.34-14.72,35.8-23.44,56.6-26.82,27.57-4.28,55.68-1.7,82.39,5.89l-4.8,3.54c.29-37.2,.9-82.27,1.43-119.2,.36-21.21,.87-50.3,1.36-71.52l.02-.94,.9,.02c12.38,.24,24.71,.7,36.98,.92h0Z"/><path class="b" d="M46.23,232.68c-1.13-66.77-3.59-158.13-3.88-224.05,7.36-1.99,14.69-3.37,22.16-4.42,38.1-5.27,80.09-1.62,111.94,21.83,2.72,2.13,6.14,4.86,8.6,7.25,2.14,1.85,5.03,5.07,7,7.15l1.12,1.19v1.77c-.18,30.56-.05,77.45-.36,107.64-.2,30.95-.68,85.24-1.1,116.15-1.37-1.54-5.61-6.82-6.89-8.11-21.3-21.89-52.2-32.18-82.3-33.29-18.96-.59-37.93,2.03-56.29,6.89h0Zm0,0c42.54-14.32,91.5-14.85,129.74,11.2,5.46,3.75,10.67,7.85,15.12,12.82l-5.56,1.99-.61-53.82c-.45-49.6-.69-111.87-.75-161.46l1.11,2.96c-1.8-1.86-4.41-4.84-6.37-6.53-2.18-2.25-5.39-4.65-7.81-6.65C138.73,9.3,94.8,7.2,56.28,13.5c-3.05,.54-6.2,1.14-9.07,1.84l2.88-3.73c-.63,63.55-2.52,156.53-3.86,221.07h0Z"/><path class="b" d="M3.9,31.84c13.49-.25,27.07-.75,40.68-1.01,.4,17.07,.7,34.14,1,51.21,.85,47.82,1.43,102.52,1.87,150.63l-5.18-3.58c12.32-4.32,25.14-6.74,38.11-8,29.08-2.79,59.44,2.29,84.93,17.01,13.67,7.43,27.04,20.3,38.81,30.45-4.5-1.23-20.62-6.12-24.77-7.02-13.04-3.1-26.33-5.14-39.69-6.31-32.43-2.75-65.51-.12-96.74,9.23-14.9,4.3-29.14,10.75-42.91,17.84C.49,201.12,2.29,113.22,3.9,31.84h0Zm0,0c1.56,79.12,3.25,165.41,3.86,244.18l-5.66-3.42c42.08-22.57,90.99-30.22,138.3-26.26,15.86,1.35,31.61,3.72,46.97,8.07l-4.31,7.55c-9.08-8.19-19.17-15.26-30.22-20.5-22.2-10.68-47.27-14.21-71.75-12.28-14.04,1.14-28.15,3.93-41.34,8.91,.5-50.08,.99-106.21,1.92-156.05,.3-16.74,.59-33.47,.98-50.21l.98,.98c-13.18-.26-26.41-.76-39.72-.98h0Z"/></svg>