<?xml version="1.0" encoding="UTF-8"?><svg id="a" xmlns="http://www.w3.org/2000/svg" viewBox="0 0 359.96 416.89"><defs><style>.b{fill:#191558;}</style></defs><path class="b" d="M142.34,0c7.55,8.51,14.05,17.97,20.85,27.09,33.17,45.3,59.57,94.93,84.93,144.93,25.68,52.53,65.15,135.41,30.79,190.86-27.21,43.14-87.94,54.25-135.42,54-37.49-.59-76.94-9.47-105.41-35.31C5.24,352.93-2.52,309.88,.65,268.45c.6-11.59,2.56-23.58,6.12-34.67,8.92-27.28,22.66-52.07,36.53-76.93,24.89-43.9,51.56-86.77,79.53-128.77,5.36-7.8,13.72-20.69,19.5-28.09h0Zm.07,1.4c-2.49,4.92-5.04,9.59-7.74,14.28-30.31,53.38-60.69,107.04-88.62,161.66-11.99,24.31-24.78,49.16-29.44,75.96-.85,5.2-1.26,10.46-1.52,15.86-.51,10.96-.77,21.71,.25,32.53,4.67,59.74,46.77,93.88,103.98,101.68,32.33,4.46,66.01,2.43,97.22-7.21,25.58-8.17,49.31-23.21,60.38-48.56,22.03-51.62-11.74-125.19-33.88-173.11-26.53-55.34-54.99-110.15-91.28-159.86-3.1-4.44-6.52-8.59-9.35-13.24h0Z"/><path class="b" d="M48.28,268.27c3.91,40.5,23.23,69.96,61.58,84.77,8.75,3.6,18.04,6.06,27.21,8.46,2.69,.59,6.8,1.52,9.47,2.24-12.99,1.26-26.27,.25-39.15-3.24-13.05-3.45-25.48-9.78-35.56-18.81-20.2-18.05-29.49-47.15-23.55-73.42h0Z"/></svg>