<?xml version="1.0" encoding="utf-8"?>
<!-- Generator: $$$/GeneralStr/196=Adobe Illustrator 27.6.0, SVG Export Plug-In . SVG Version: 6.00 Build 0)  -->
<svg version="1.1" id="a" xmlns="http://www.w3.org/2000/svg" xmlns:xlink="http://www.w3.org/1999/xlink" x="0px" y="0px"
	 viewBox="0 0 390.8 413.7" style="enable-background:new 0 0 390.8 413.7;" xml:space="preserve">
<style type="text/css">
	.st0{fill:#FA595F;}
</style>
<path class="st0" d="M5.7,166.8c2,49.2,4.2,101.9,5.3,150.8c0.2,7,0.3,14,0.4,21l-5.7-5.7c34.1-0.5,74.7-0.8,108.8-0.8l-6.5,6.5
	c0-42.1,0.4-86.6,1.2-128.9c0.3-14.3,0.6-28.6,1-42.9l4.4,4.4C83.9,170.2,36.9,168.2,5.7,166.8L5.7,166.8L5.7,166.8z M5.7,166.8
	c35.2-1.6,73.6-3.4,108.8-4.4l4.2-0.1c0.6,22.2,1.1,46.6,1.4,68.9c0.6,37.3,0.8,76.7,0.8,113.9c-16.6,0-44.3-0.1-60.9-0.2
	c-16.3-0.2-43.9-0.4-60.2-0.7l0.1-5.6C0.9,282.1,3.3,223.2,5.7,166.8L5.7,166.8L5.7,166.8z"/>
<path class="st0" d="M114.6,181.2c11.7-0.4,27.3-1,38.7-1.4l-1.3,1c7-22.5,20.2-44.1,41-56.4c11.9-6.7,26-9.2,39.4-7.4
	c5.3,0.5,10.7,2,15.8,3.4l-0.9-0.2c0.6,0.1,1,0.1,1.5,0.2c10.7,1.6,21.9,8.6,23.4,20.2c0.5,4,0.1,7.8-0.8,11.3l0.2-1.6l1.2,16.1
	l-5.1-4.8c11.5-0.2,34.8-0.5,46.3-0.5l46.3-0.4h0.5l0.6,0.1c13.2,2.1,24.1,13.9,24.2,27.6c0.3,13.8-10.9,25.8-24.2,27.9l-0.2-12.7
	c13.3,1.8,26.5,10.5,29.4,24.4c2.4,11.8-5,23.3-14.4,29.6c-5.4,3.7-12.2,5.7-18.5,6.1c-4.4,0.2-8.4,0-12.8-1l2.3-12.7
	c20.8,2.3,38.5,22.7,34,44c-3.9,18.5-24.8,29.3-42.5,26.1l3.6-11.1c2.9,1.5,5.9,3.3,8.7,5.4c7,5.1,12.7,14.1,7.1,23.1
	c-6.1,9.3-17,13.2-26.7,16.1c-6.4,1.8-12.9,2.8-19.4,3.5h-0.2l-28-0.4c-17.7-0.2-67.8-1.1-83.4-1.7c-5.6,1-11,0.8-16.5-0.4
	c-16.6-3.4-28.5-18.1-29.2-34.9l1.4,1.4c-10.2-0.4-31.1-1-41.4-1.5c10.4-0.5,31-1.1,41.4-1.5l1.3,0c0.4,5.4,2,10.7,4.6,15.3
	c5.9,10.7,17.9,16.9,30,16.4c2.5-0.1,5-0.3,7.3-0.9h0.4c19.8-0.4,64.9-1.4,84-1.6l28-0.4l-0.6,0c5.9-0.8,11.6-1.9,17.2-3.6
	c7-2.3,17.4-6,20.4-12.6c0.9-4.3-8.4-9.4-11.9-11.2l-32.9-16.4l36.4,5.2c9.8,1.5,20.5-2.6,25.9-10.8c5.4-8.2,2.9-18.7-3.6-25.9
	c-4.4-5-10.6-8-17.2-8.9l2.3-12.7c7,1.5,15.1,0.8,21-3.4c4.4-3.1,8.3-7.8,9.1-13c0.9-9.9-9.7-16.4-18.5-17.5l-42.1-6.2l42-6.5
	c7.3-1,13.8-7.7,13.7-15.1c0.1-7.5-6.3-14.4-13.7-15.7c-20.2,0.1-67.4-0.5-91.5-0.9l-4.9-0.1l-0.2-4.7l-0.8-16.1l0-0.9
	c4.3-12.9-4.2-19.4-16-21.4c-15.2-5.4-31.3-6.7-46.3-0.1c-21.8,9.7-36.4,31.2-44.8,53l-0.4,1l-0.9,0
	C141.8,182.2,126.1,181.7,114.6,181.2L114.6,181.2L114.6,181.2z"/>
<path class="st0" d="M263,352.1c5.1,9.5,9.3,19,13.8,28.1c2.2,4.5,4.5,9,7,13.1c1.9,2.8,3.8,6,6.4,7.5c-0.1,0-0.5,0.1-0.3,0
	c0,0,0.1,0,0.2-0.1c0.2-0.1,0.5-0.3,0.6-0.5c4.5-4.9,7-12.6,9.6-18.8c3.7-9.7,6.9-19.6,11.2-29.3c1.7,15.5-0.4,53.2-16.5,60.6
	c-13.5,5.1-21.5-11-25.2-21.1C265.3,378.9,262.8,365.6,263,352.1L263,352.1L263,352.1z"/>
<path class="st0" d="M267.6,166.8c-1-14.8-1.8-31.7-2.5-46.6l0.9,1.9c-17.1-13.6-30.1-34.5-29.1-57c0-1.2,0.1-3,0.3-4.2
	c0.2-1.2,0.3-3,0.6-4.2c0.5-2.9,1.6-6.5,2.5-9.2c1.8-4.8,4.2-9.8,7-14.2c7.9-13.2,19.9-23.4,31.2-33.3l0.2,13
	c0.2,11.2,0.4,33.8,0.4,45l-2-4.7c7.9,7.1,15.6,14.3,23.5,21.5l-8.6-0.2l22.5-18.9l-2.3,4.9c0.1-17.7,0.2-39.6,0.5-57.2
	c5.2,2.4,12.4,5.7,17.1,8.9c13.7,8.8,26,20.7,32.3,36c10,24.1-0.5,49-16.7,67.4c-4.6,5.6-11,11.5-16.4,16.5l0.6-1.5l-0.5,18
	c-0.2,5.1-0.4,12.9-0.6,18c-0.5-5.1-1.1-12.8-1.5-18l-1.4-18l-0.1-0.8l0.7-0.7c31.3-32.6,47.1-70.9,4.5-102.2
	c-4.6-3.3-9.5-6.3-14.6-8.7l8.6-5.5c0.1,7.9,0.2,15.9,0.2,23.8c0,1.5,0.2,26.4,0.2,26.8l-2.3,1.9l-22.5,18.9l-4.4,3.7
	c-9.1-8.5-18.4-17-27.5-25.6l-2.1-2l0-2.7c0.1-11.2,0.3-33.8,0.4-45l9.8,4.5c-14.7,12.2-28.7,28.7-30.5,48.3
	c-2,20.3,9.2,40,23.8,53.4C269.4,134.4,268.5,151.6,267.6,166.8L267.6,166.8L267.6,166.8z"/>
</svg>
