<?xml version="1.0" encoding="UTF-8"?><svg id="a" xmlns="http://www.w3.org/2000/svg" viewBox="0 0 300.06 368.91"><defs><style>.b{fill:none;stroke:#191558;stroke-miterlimit:10;stroke-width:12px;}.c{fill:#191558;}</style></defs><path class="c" d="M53.15,362.91c33.72-4.77,67.57-5.83,101.51-6,33.94,.14,67.79,1.2,101.51,6-33.72,4.79-67.57,5.86-101.51,6-33.94-.16-67.79-1.23-101.51-6h0Z"/><line class="b" x1="154.66" y1="49.49" x2="150.26" y2="362.91"/><circle class="c" cx="152.46" cy="49.49" r="20.94"/><path class="c" d="M256.17,0c-32.52,20.96-66.75,38.63-101.45,55.53-34.83,16.62-69.98,32.38-106.65,44.72,32.51-20.99,66.74-38.65,101.45-55.53C184.36,28.12,219.51,12.37,256.17,0h0Z"/><path class="c" d="M248.13,49.49c-15.32,34.15-28.36,68.6-43.95,102.33l.14-4.26c7.04,14.64,16.23,30.26,29.56,39.74,25.87,18.01,45.86-20.57,55.72-39.93v4.36c-14.77-33.75-26.96-68.09-41.46-102.24h0Zm0,0c16.96,33.13,35.76,66.13,51.93,99.94-8.52,19.42-21.14,44.99-42.32,52.8-30.81,10.16-53.18-26.82-63.09-50.7l-.89-2.25,1.03-2.02c16.73-33.09,35.94-65.34,53.35-97.77h0Z"/><line class="b" x1="294.32" y1="149.54" x2="199.48" y2="149.54"/><path class="c" d="M54.38,123.76c-15.32,34.15-28.36,68.6-43.95,102.34l.14-4.26c7.04,14.64,16.23,30.26,29.56,39.74,25.87,18.01,45.86-20.57,55.72-39.93v4.36c-14.77-33.75-26.96-68.09-41.46-102.24h0Zm0,0c16.96,33.13,35.76,66.13,51.93,99.94-8.52,19.42-21.14,44.99-42.32,52.8-30.81,10.16-53.18-26.82-63.09-50.7l-.89-2.25,1.03-2.02c16.73-33.09,35.94-65.34,53.35-97.77h0Z"/><line class="b" x1="100.57" y1="223.81" x2="5.72" y2="223.81"/></svg>