<?xml version="1.0" encoding="UTF-8"?><svg id="a" xmlns="http://www.w3.org/2000/svg" viewBox="0 0 815.21 785.03"><defs><style>.b{fill:none;stroke:#d96664;stroke-miterlimit:10;stroke-width:12px;}.c{fill:#e9aeb6;}.d{fill:#d96664;}</style></defs><circle class="c" cx="433.45" cy="403.26" r="381.76"/><circle class="b" cx="387.76" cy="387.76" r="381.76"/><g><path class="d" d="M214.24,347.83c112.95-2.44,279.77-6.41,391.56-6.79-19.03,53.51-41.35,115.66-60.77,169.06l-1.67,4.59-4.85-.02c-61.99-.3-138.26-.66-199.9-1.6-23.25-.3-46.5-.59-69.74-1.08l-.94-2.78c-17.24-50.42-36.77-110.87-53.7-161.38h0Zm0,0c19.18,49.74,42.79,108.67,61.8,158.46l-4.05-2.84c85.99-1.56,180.21-2.31,266.53-2.62l-6.51,4.57c17.97-50.14,39.63-109.83,57.96-159.84l6.3,8.97c-106.19-.61-274.61-4.28-382.03-6.7h0Z"/><path class="d" d="M291.08,533c13.96,6.73,29.5,14.13,44.77,8.26,4.77-1.79,9.25-4.81,13.84-8.26-1.17,2.61-2.67,5.13-4.6,7.35-14.92,17.71-42.15,9.66-54.01-7.35h0Z"/><path class="d" d="M457.93,533c13.75,7.25,29.64,14.78,44.95,8.61,4.8-1.89,9.23-5.04,13.66-8.61-1.25,2.55-2.8,5-4.76,7.16-15.08,17.25-41.57,9.22-53.85-7.16h0Z"/><path class="d" d="M276.45,326.4c10.22-15.16,21.38-30.63,32.27-45.28,9.09-.5,18.19-.92,27.28-1.27l1.82-.07,1.66,1.47c7.49,6.63,14.95,13.31,22.34,20.04l-8.91,.63c11.12-14.95,23.95-31.91,35.37-46.57l2.08-2.65c8.68,0,17.43-.1,26.11-.03,15.03,14.75,31.17,30.77,45.81,45.83l-8.65-.04c5.61-5.19,15.44-14.01,21.11-19.12,7.08,.29,16.62,.59,23.66,.94l1.77,.09,1.02,.86c8.72,7.33,17.36,14.74,25.94,22.24,8.57,7.53,17.08,15.12,25.4,22.93-14.53-9.04-28.76-18.52-42.88-28.18-4.7-3.21-9.38-6.45-14.05-9.71l2.79,.95c-3.61,.18-7.22,.32-10.83,.46l-10.83,.41,3.78-1.52c-6.41,6.56-15.95,16.31-22.39,22.77-5.25-4.81-10.7-9.93-15.85-14.79-10.42-9.8-23.26-22.13-33.57-32.16l4.88,1.99c-6.62,.04-13.23-.03-19.85-.04l5.46-2.66c-11.53,14.56-24.93,31.1-36.81,45.44l-4.32,5.23c-8.57-8.57-17.16-17.36-25.56-26.09l3.48,1.4c-8.42-.32-16.84-.71-25.26-1.16l2.98-1.4c-11.98,13.03-24.7,26.57-37.27,39.06h0Z"/></g></svg>