<?xml version="1.0" encoding="UTF-8"?><svg id="a" xmlns="http://www.w3.org/2000/svg" viewBox="0 0 815.21 785.03"><defs><style>.b{fill:none;stroke:#d96664;stroke-miterlimit:10;stroke-width:12px;}.c{fill:#e9aeb6;}.d{fill:#d96664;}</style></defs><circle class="c" cx="433.45" cy="403.26" r="381.76"/><circle class="b" cx="387.76" cy="387.76" r="381.76"/><path class="d" d="M492.35,185.44c-23.8,.48-48.67,2.07-72.31,2.97l2.61-1.55c-11.65,23.59-23.77,47.6-35.55,71.17-15.03,29.35-67.04,123.22-83.34,153.78l-5.27-8.87h106.27l-3.88,8.49-96.93,212.15-10.08-6.32,230.43-277.98,4.22,9.82-54.44-3.66c-19.74-1.47-44.14-2.7-63.67-4.27l4.12-8.02c25.29-48.63,53-98.7,77.82-147.7h0Zm0,0c-22.47,49.67-44.49,103.03-66.8,153l-5.1-8.75c31,2.25,77.47,5.31,108.88,7.43l11.7,.79c-24.08,29.07-247.92,299.06-266.81,321.86,10.21-22.43,102.97-225.31,115.74-253.32l5.46,8.49c-2.5,.09-109.51-.06-107.02,0l4.82-8.87c11.57-21.38,65.56-120.31,75.83-139.77,4.41-8.17,11.37-19.32,16.03-27.48,11.1-18.81,22.11-37.68,33.32-56.43,23.75,.9,50.49,2.39,73.95,3.04h0Z"/></svg>