<?xml version="1.0" encoding="UTF-8"?><svg id="a" xmlns="http://www.w3.org/2000/svg" viewBox="0 0 815.21 785.03"><defs><style>.b{fill:none;stroke:#d96664;stroke-miterlimit:10;stroke-width:12px;}.c{fill:#e9aeb6;}.d{fill:#d96664;}</style></defs><circle class="c" cx="433.45" cy="403.26" r="381.76"/><circle class="b" cx="387.76" cy="387.76" r="381.76"/><g><path class="d" d="M268.33,303.87c86.21-1.75,185.15-2.92,271.61-3.78v7.56l-21.44,.22,3.98-3.65c-5.67,68.46-14.03,173.86-19.93,241.51l-.28-2.28c1.17,3.33,1.37,7.34,.21,10.76-3.3,9.37-12.58,14.26-21.2,17.25h-.92l-38.12,.05c-22.55-.04-93.63,.06-113.49-.11-3.41,.5-7.13,.53-10.91-.38-7.49-1.67-13.66-8.15-16.16-15.05-1.29-3.35-2.08-6.58-2.39-10.17-6.57-74.65-14.65-166.65-20.94-241.45l-.51-5.99,5.96,.03c74.55,.29,163.39,.88,237.93,1.53l-3.93,3.65,1.31-15.54,.02-.23,.02-.13c.05-.26,.09-.73,.08-1.13-.01-1.91-.82-3.77-2.47-4.76-.62-.39-1.39-.68-2.15-.8l.53,.04c-70.8-.67-156.15-1.8-226.48-3.09-4.97,1.02-7.58,5.28-6.98,10.26l.17,14.35-.72-14.33c-.22-2.38-.17-5.04,1.25-7.13,1.35-2.17,3.66-3.69,6.15-4.22,70.99-1.26,155.6-2.42,226.6-3.08,8.21,.69,12.52,8.51,11.51,14.83-.15,3.02-1.09,16.59-1.22,19.18l-3.7,.03-59.48,.48c-52.98,.45-125.47,.83-178.45,1.05l5.46-5.96c7.05,74.84,15.24,166.83,21.97,241.57,.58,5.91,3.25,13,9.5,14.53,1.94,.49,4.39,.48,6.74,.11h.43l76.24,.26c18.99-.02,57.25,.26,76.24,.32l-1.7,.26c4.9-1.73,11.25-4.78,13.25-9.64,.63-1.61,.02-3.41-.46-5.03,6.49-69.42,16.52-175.81,23.4-245.92,2.8-.07,21.93,.3,25.07,.26v7.56c-86.53-.8-185.32-2.08-271.61-3.78h0Z"/><path class="d" d="M354.97,277.4c1.31-13.93,4.11-27.64,7.31-41.21,18.75-1.45,37.56-1.77,56.35-1.2,7.06,.24,14.23,.61,21.3,1.15l.8,3.05c3.2,12.62,6.03,25.22,7.55,38.21-6.54-11.32-11.79-23.13-16.76-35.16l4.6,3.32c-17.47,1.2-34.99,1.41-52.49,.86-5.83-.21-11.66-.47-17.5-.89l4.6-3.41c-4.63,12.01-9.6,23.93-15.77,35.28h0Z"/><path class="d" d="M342.2,330.23c6.88,34.74,10.07,69.82,12.37,105.04,1.99,35.25,3.06,70.45,.4,105.77-6.91-34.74-10.1-69.82-12.37-105.04-1.97-35.25-3.04-70.45-.4-105.77h0Z"/><path class="d" d="M401.63,334.84c4.77,33.29,5.83,66.71,6,100.22-.14,33.51-1.2,66.93-6,100.22-4.79-33.29-5.86-66.71-6-100.22,.16-33.51,1.23-66.93,6-100.22h0Z"/><path class="d" d="M458.55,334.84c3.06,33.54,2.41,67.01,.85,100.53-1.86,33.51-4.63,66.87-11.13,99.92-3.08-33.54-2.43-67.01-.86-100.53,1.88-33.51,4.66-66.87,11.13-99.92h0Z"/></g></svg>