<?xml version="1.0" encoding="UTF-8"?><svg id="a" xmlns="http://www.w3.org/2000/svg" viewBox="0 0 815.21 785.03"><defs><style>.b{fill:none;stroke:#d96664;stroke-miterlimit:10;stroke-width:12px;}.c{fill:#e9aeb6;}.d{fill:#d96664;}</style></defs><circle class="c" cx="433.45" cy="403.26" r="381.76"/><circle class="b" cx="387.76" cy="387.76" r="381.76"/><g><path class="d" d="M379.94,236.81c1.41,1.49,2.9,3.41,4.07,5.15,26.81,37.19,47.44,78.21,66.69,119.71,17.98,39.94,45.05,101.38,20.56,142.99-18.72,30.45-57.58,39.13-91.02,38.98-32.24-.35-64.27-11.73-82.43-39.88-11.72-18-15.33-39.91-14.8-60.93,.09-12.46,1.36-25.23,5.11-37.14,7.49-23.28,18.9-44.53,30.26-65.97,16.96-31.5,35.15-62.46,54.46-92.58,1.7-2.67,5.2-7.89,7.11-10.34h0Zm.06,1.4c-1.03,2.31-1.71,4.28-2.72,6.34-.37,.7-1.57,3.24-1.96,4.02-19.02,38.61-39.09,78.62-56.91,117.71-6.17,13.89-12.9,28.8-16.85,43.33-2.64,9.03-3.68,18.32-3.87,27.68-.52,13.08,.03,26.56,3.43,39.12,9.18,35.23,38.8,53.07,73.76,55.51,31.04,2.28,70.55-4.1,88.58-32.04,23.19-37.4-2.48-98.56-17.92-135.9-17.21-39.96-35.69-79.64-59.58-116.13-1.4-2.22-4.84-7.06-5.95-9.63h0Z"/><path class="d" d="M317.44,433.35c3.48,21.76,12.14,42.97,30.83,55.26,10.59,7,21.94,10.77,34.47,14.62-11.37,1.84-23.63,.33-34.45-4.25-6.65-2.92-12.87-7.14-17.84-12.45-13.21-14.01-18.24-34.84-13.02-53.18h0Z"/></g></svg>