<?xml version="1.0" encoding="UTF-8" standalone="no"?>
<!-- Created with Inkscape (http://www.inkscape.org/) -->

<svg
   width="200.18987"
   height="199.99998"
   viewBox="0 0 52.966901 52.916662"
   version="1.1"
   id="svg5"
   xml:space="preserve"
   inkscape:export-filename="earth-metriz.svg"
   inkscape:export-xdpi="54.860001"
   inkscape:export-ydpi="54.860001"
   xmlns:inkscape="http://www.inkscape.org/namespaces/inkscape"
   xmlns:sodipodi="http://sodipodi.sourceforge.net/DTD/sodipodi-0.dtd"
   xmlns="http://www.w3.org/2000/svg"
   xmlns:svg="http://www.w3.org/2000/svg"><sodipodi:namedview
     id="namedview7"
     pagecolor="#ffffff"
     bordercolor="#000000"
     borderopacity="0.25"
     inkscape:showpageshadow="2"
     inkscape:pageopacity="0.0"
     inkscape:pagecheckerboard="0"
     inkscape:deskcolor="#d1d1d1"
     inkscape:document-units="mm"
     showgrid="false" /><defs
     id="defs2"><style
       id="style2">
      .cls-1 {
        fill: #f0f0f8;
      }

      .cls-2 {
        fill: #8b9dc9;
      }

      .cls-3 {
        fill: #cecfd9;
      }

      .cls-4 {
        fill: #cddffc;
      }

      .cls-5 {
        fill: #d8d7df;
      }

      .cls-6 {
        fill: #e0ebf8;
      }

      .cls-7 {
        fill: #364590;
      }

      .cls-8 {
        fill: #94b1f9;
      }

      .cls-9 {
        fill: #5765a7;
      }
    </style></defs><g
     inkscape:label="Calque 1"
     inkscape:groupmode="layer"
     id="layer1"
     transform="translate(98.382516,22.78326)"><g
       id="Calque_1-2"
       data-name="Calque 1"
       style="display:inline"
       transform="matrix(0.05529432,0,0,0.05529432,-98.382956,-22.783813)"><path
         class="cls-2"
         d="m 710.59,482.82 v -0.05 c 0,0 0,0.04 0,0.06 0,0 0,0 0,0 z"
         id="path6" /><path
         class="cls-2"
         d="m 729.14,447.56 c 2.08,-1.86 1.14,-11.68 -3.43,-13.82 -5.02,-11.9 -13.67,-9.58 -14.26,-9.53 -0.24,-0.34 -0.49,-0.67 -0.78,-0.98 -1.3,-1.42 -2.98,-2.34 -4.72,-2.97 -1.72,-0.62 -3.57,-0.99 -5.38,-1.13 -1.75,-0.14 -3.62,0.03 -5.26,0.73 -1.54,0.65 -2.95,1.64 -3.94,3.04 -0.24,-0.06 -4.28,-0.53 -6.11,-0.26 -3.16,0.48 -6.13,2.06 -8.44,4.43 -2.36,2.43 -4.07,5.76 -4.61,9.25 -0.02,0 -0.03,0.01 -0.05,0.02 -0.8,-0.19 -1.64,-0.36 -2.45,-0.28 -1.85,0.18 -3.48,1.36 -4.67,2.87 -1.04,1.31 -1.77,2.93 -2.22,4.55 -1.88,6.77 -0.29,9.25 0.12,10.71 0.42,1.49 1.78,3.05 2.94,4.05 0.64,0.56 1.33,0.97 2.07,1.3 0.01,0.01 0.03,0.03 0.04,0.04 -0.06,0.41 -0.08,0.83 -0.05,1.24 0.09,1.22 0.54,2.28 1.08,3.34 0.36,0.7 0.73,1.39 1.18,2.02 0.62,0.88 1.31,1.69 2.23,2.24 1.02,0.62 2.11,0.83 3.25,0.95 1.74,0.19 3.54,0 5.23,-0.47 0.57,-0.16 2.65,-0.73 3.36,-0.97 0.91,1.05 2.49,1.7 3.82,2.14 1.6,0.53 3.43,0.44 5.02,-0.08 0.3,-0.1 0.59,-0.21 0.88,-0.34 0.87,-0.19 1.72,-0.5 2.41,-1.01 0.14,-0.1 0.27,-0.21 0.4,-0.33 0.85,0.68 1.9,1.07 2.96,1.12 0.42,0.02 0.84,-0.13 1.19,-0.38 0.87,0.96 2.19,1.23 3.39,1.25 1.05,0.02 2.11,0.06 3.16,-0.01 0.73,-0.05 1.4,-0.19 2.07,-0.49 0.65,-0.29 1.16,-0.69 1.71,-1.16 0.31,-0.26 0.61,-0.53 0.9,-0.81 1.31,0.01 2.63,-0.06 3.92,-0.23 1.66,-0.22 3.19,-0.59 4.73,-1.3 1.39,-0.65 2.63,-1.65 3.68,-2.82 1.07,-1.18 7.93,-10.05 4.8,-15.69 0,-0.01 -0.15,-0.25 -0.15,-0.26 z"
         id="path8" /><g
         id="_2hItr9.tif"
         data-name="2hItr9.tif"><g
           id="g26"><path
             class="cls-2"
             d="m 714.57,445.87 c 0,0 -0.2,0 -0.2,0 0.08,0 0.14,0 0.2,0 z"
             id="path10" /><path
             class="cls-2"
             d="m 702.43,454.04 c 0,0 0.04,0.05 0.05,0.07"
             id="path12" /><path
             class="cls-2"
             d="m 702.38,454.17 c 0,0 0,0.03 0,0.05 l -0.05,-0.12 c 0,0 0.03,0.05 0.05,0.07 z"
             id="path14" /><path
             class="cls-2"
             d="m 702.57,454.67 c -0.11,-0.15 -0.2,-0.3 -0.19,-0.46 z"
             id="path16" /><path
             class="cls-2"
             d="m 702.6,454.43 c -0.01,0.08 -0.02,0.17 -0.02,0.25"
             id="path18" /><path
             class="cls-2"
             d="m 714.23,448.68 c -0.56,0.31 -3.31,1.45 -5.01,2.39 -1.7,0.94 -0.53,0.3 -2.14,1.2 -1.37,0.76 -1.78,1.01 -4.1,3.7 0,0 -0.77,-3.23 -0.77,-3.23 l -0.04,-0.16 c 0,-0.41 0.1,-0.8 0.28,-1.17 0.31,-0.62 0.79,-1.14 1.23,-1.68 0.23,-0.28 0.46,-0.55 0.65,-0.84 0.48,-0.72 0.79,-1.51 1.07,-2.31 0.08,-0.24 0.19,-0.47 0.29,-0.7 0.07,-0.16 0.17,-0.32 0.22,-0.49 0.08,-0.27 0.16,-0.54 0.21,-0.82 0.12,-0.73 0.25,-1.46 0.33,-2.19 0.09,-0.86 0.1,-1.72 0,-2.58 -0.09,-0.8 -0.13,-1.6 0.16,-2.38 0.24,-0.63 0.57,-1.3 1.1,-1.78 0.26,-0.24 0.61,-0.43 0.98,-0.49 0.43,-0.08 0.84,-0.13 1.26,-0.2 0.31,-0.05 0.47,-0.08 0.73,-0.19 0.1,-0.04 0.69,-0.4 0.57,-0.46 -0.09,-0.05 -0.95,0.19 -1.06,0.2 -0.4,0 -0.81,-0.01 -1.2,-0.11 -0.06,-0.01 0.56,-0.74 0.71,-0.83 0.37,-0.21 0.76,-0.4 1.17,-0.55 0.38,-0.15 0.75,-0.3 1.17,-0.21 0.26,0.05 0.5,0.19 0.77,0.2 0.75,0.04 1.05,0.16 0.17,-0.57 -0.42,-0.35 -1.04,-0.45 -1.61,-0.35 -1.33,0.23 -2.58,1.04 -3.51,1.87 -0.44,0.4 -0.84,0.83 -1.18,1.3 -0.18,0.24 -0.34,0.49 -0.49,0.74 -0.07,0.12 -0.16,0.25 -0.21,0.39 -0.04,0.09 -0.04,0.23 -0.16,0.27 -0.18,0.07 -0.27,-0.47 -0.3,-0.56 -0.09,-0.27 -0.18,-0.53 -0.31,-0.78 -0.54,-1.09 -1.31,-2.11 -1.48,-3.31 -0.03,-0.22 -0.05,-0.45 -0.06,-0.68 -0.02,-0.37 0,-0.69 0.08,-1.05 0.08,-0.36 0.06,-0.74 0.13,-1.11 0.09,-0.43 0.27,-0.84 0.51,-1.22 0.24,-0.38 0.58,-0.69 0.76,-1.08 0.1,-0.21 0.07,-0.5 -0.15,-0.61 -0.32,0.92 -1.11,1.65 -1.6,2.51 -0.53,0.91 -0.71,1.96 -0.62,2.98 0.06,0.65 0.22,1.28 0.45,1.9 0.26,0.69 0.64,1.33 0.91,2.02 0.43,1.07 0.74,2.22 0.81,3.36 0.05,0.82 0.06,1.64 0.02,2.47 -0.03,0.73 -0.05,1.46 -0.09,2.18 -0.01,0.23 -0.05,0.46 -0.21,0.66 -0.03,-0.04 -0.06,-0.06 -0.07,-0.09 -0.2,-0.26 -0.39,-0.52 -0.6,-0.77 -0.55,-0.67 -1.12,-1.34 -1.68,-2.01 -0.15,-0.18 -0.31,-0.36 -0.39,-0.56 -0.2,-0.5 -0.38,-1.01 -0.54,-1.53 -0.12,-0.41 -0.15,-0.84 -0.03,-1.27 0.13,-0.47 0.4,-0.87 0.65,-1.28 0.11,-0.19 0.2,-0.39 0.3,-0.58 -0.02,-0.01 -0.03,-0.03 -0.05,-0.04 -0.05,0.02 -0.1,0.04 -0.14,0.06 -0.35,0.21 -0.65,0.48 -0.93,0.77 -0.28,0.3 -0.53,0.61 -0.53,1.04 0,0.01 0,0.02 0,0.03 -0.08,0.55 -0.16,1.1 -0.22,1.65 -0.02,0.2 0,0.42 0.07,0.61 0.2,0.56 0.53,1.05 0.87,1.54 0.5,0.73 1.01,1.45 1.5,2.18 0.23,0.35 0.43,0.72 0.53,1.12 0.06,0.23 0.13,0.45 0.11,0.69 -0.02,0.24 -0.11,0.48 -0.22,0.7 -0.15,0.32 -0.36,0.62 -0.52,0.94 -0.21,0.42 -0.58,0.76 -0.93,1.1 -0.18,0.17 -0.36,0.34 -0.51,0.53 -0.17,0.2 -0.3,0.43 -0.45,0.65 -0.14,0.2 -0.3,0.39 -0.39,0.61 -0.09,0.2 -0.11,0.42 -0.18,0.63 -0.11,0.3 -0.32,0.59 -0.29,0.91 0,0.05 0.01,0.09 0,0.14 -0.08,0.24 -0.35,-0.18 -0.4,-0.25 -0.5,-0.72 -0.85,-1.51 -1.24,-2.29 -0.41,-0.83 -0.86,-1.66 -1.34,-2.47 -0.07,-0.12 -0.14,-0.24 -0.23,-0.35 -0.08,-0.1 -0.17,-0.2 -0.27,-0.3 -0.44,-0.45 -0.88,-0.9 -1.32,-1.35 -0.22,-0.19 -0.4,-0.37 -0.62,-0.51 -0.57,-0.39 -1.14,-0.78 -1.72,-1.15 -0.51,-0.32 -1.03,-0.61 -1.55,-0.92 -0.18,-0.11 -0.39,-0.2 -0.53,-0.35 -0.36,-0.4 -0.48,-0.89 -0.44,-1.42 0.04,-0.5 0.2,-0.97 0.4,-1.44 0.08,-0.19 0.17,-0.39 0.31,-0.53 0.44,-0.43 0.88,-0.86 1.36,-1.25 0.54,-0.44 1.09,-0.85 1.67,-1.24 0.43,-0.29 0.92,-0.51 1.37,-0.78 0.35,-0.22 0.65,-0.5 0.76,-0.92 0.1,-0.36 0.07,-0.71 -0.07,-1.06 -0.07,-0.17 -0.14,-0.34 -0.33,-0.46 -0.02,0.09 -0.05,0.16 -0.06,0.23 -0.03,0.19 -0.05,0.37 -0.07,0.56 -0.05,0.35 -0.14,0.69 -0.49,0.89 -0.12,0.07 -0.25,0.13 -0.38,0.2 -1.27,0.67 -2.61,1.27 -3.63,2.24 -0.49,0.46 -0.91,0.98 -1.31,1.51 -0.36,0.49 -0.79,0.99 -0.79,1.6 0,0.11 -0.05,0.22 -0.09,0.32 -0.05,0.1 -0.11,0.1 -0.18,0 -0.21,-0.25 -0.43,-0.49 -0.64,-0.74 -0.29,-0.35 -0.58,-0.7 -0.73,-1.12 -0.1,-0.27 -0.17,-0.55 -0.24,-0.84 -0.12,-0.51 -0.25,-1.01 -0.33,-1.53 -0.13,-0.88 0.1,-1.72 0.32,-2.55 0.14,-0.52 0.29,-1.04 0.43,-1.57 0.18,-0.7 0.2,-1.41 0.05,-2.11 -0.11,-0.49 -0.25,-0.96 -0.55,-1.37 -0.03,-0.04 -0.06,-0.07 -0.1,-0.11 -0.01,0 -0.02,0.01 -0.04,0.02 0,0.07 0.02,0.14 0.03,0.22 0.05,0.29 0.13,0.58 0.16,0.87 0.1,0.92 -0.09,1.8 -0.4,2.67 -0.24,0.66 -0.48,1.32 -0.72,1.98 -0.03,0.09 -0.09,0.14 -0.18,0.09 -0.17,-0.08 -0.37,-0.15 -0.52,-0.26 -0.31,-0.23 -0.59,-0.49 -0.9,-0.73 -0.53,-0.41 -0.84,-0.93 -0.9,-1.58 -0.02,-0.19 -0.08,-0.38 -0.15,-0.55 -0.04,-0.1 -0.12,-0.18 -0.2,-0.31 -0.03,0.08 -0.04,0.1 -0.05,0.13 -0.02,0.3 -0.06,0.61 -0.07,0.91 0,0.56 0.09,1.09 0.44,1.55 0.14,0.19 0.29,0.36 0.45,0.53 0.3,0.31 0.6,0.62 0.94,0.9 0.22,0.18 0.4,0.37 0.54,0.62 0.16,0.31 0.2,0.64 0.23,0.97 0.05,0.56 0.26,1.07 0.43,1.6 0.18,0.56 0.35,1.12 0.6,1.67 0.19,0.42 0.42,0.83 0.72,1.19 0.31,0.37 0.69,0.69 1.04,1.03 0.44,0.42 0.83,0.88 1.31,1.26 0.45,0.36 0.97,0.64 1.48,0.93 0.26,0.15 0.52,0.3 0.77,0.46 0.12,0.08 0.25,0.15 0.35,0.24 0.09,0.08 0.14,0.18 0.27,0.24 0.38,0.17 0.73,0.38 1.01,0.67 0.35,0.35 0.68,0.73 0.98,1.12 0.59,0.73 1.15,1.49 1.46,2.38 0.02,0.04 0.03,0.08 0.05,0.16 -0.1,-0.03 -0.17,-0.04 -0.24,-0.06 -0.81,-0.22 -1.65,-0.26 -2.48,-0.24 -1.15,0.03 -2.3,0.1 -3.44,0.15 -0.38,0.01 -1.18,0.38 -1.31,0.41 -0.32,0.12 -0.95,0.48 -2.3,1.29 -1.44,0.87 -3,1.8 -4.58,2.48 -1.48,0.63 -3.32,0.91 -4.75,0.19 -0.37,-0.19 -2.81,-2.27 -3.14,-1.72 -0.11,0.18 0.2,0.29 0.35,0.4 0.37,0.28 0.7,0.58 1.04,0.9 0.65,0.61 1.3,1.25 2.2,1.59 0.79,0.29 1.65,0.29 2.48,0.19 0.41,-0.05 0.82,-0.14 1.22,-0.23 0.06,-0.01 1.02,-0.15 1.02,-0.15 -0.61,1.01 -0.68,2.26 -1.47,3.18 -0.26,0.31 -0.6,0.57 -0.94,0.82 -0.25,0.19 -0.54,0.38 -0.86,0.37 -0.09,0 -0.92,0 -0.5,0.22 1.03,0.55 2.4,-0.27 3.06,-1 0.85,-0.94 1.06,-2.19 1.72,-3.23 0.65,-1.04 1.71,-1.83 2.88,-2.42 1.47,-0.74 3.25,-1.43 4.96,-1.57 0.8,-0.07 1.61,-0.13 2.42,-0.06 0.65,0.05 1.28,0.12 1.88,0.37 0.3,0.12 0.6,0.24 0.79,0.5 0.45,0.63 0.93,1.24 1.33,1.9 0.46,0.74 0.71,1.57 0.83,2.43 0.03,0.17 0.05,0.34 0.03,0.51 -0.07,0.54 -0.15,1.05 -0.17,1.6 -0.01,0.42 -0.07,0.86 -0.36,1.19 -0.17,0.2 -0.42,0.35 -0.66,0.5 -0.9,0.54 -1.77,1.12 -2.7,1.61 -0.42,0.22 -1.9,1.23 -1.99,1.27 -0.13,0.07 -1.85,0.64 -2.35,0.51 -3.23,-0.78 -6.65,0.94 -11.25,-2.22 -4.55,-3.14 -9.84,-1.24 -8.85,-1.15 2.03,0.2 2.63,-0.88 7.81,2.15 1.94,1.13 4.16,2.17 5,2.29 4.44,0.63 1.29,0.16 4.04,0.62 2.75,0.45 6.46,5.89 6.46,5.89 l -0.33,43.88 h 7.24 c 0,0 -0.27,-5.94 -0.27,-6.03 0,-0.3 -0.01,-0.59 -0.02,-0.89 -0.02,-0.81 -0.04,-1.61 -0.06,-2.42 -0.03,-1.21 -0.06,-2.43 -0.09,-3.64 -0.04,-1.52 -0.07,-3.03 -0.11,-4.55 -0.04,-1.72 -0.08,-3.44 -0.12,-5.16 -0.04,-1.82 -0.08,-3.64 -0.13,-5.46 -0.05,-1.82 -0.08,-3.63 -0.12,-5.45 -0.04,-1.71 -0.08,-3.42 -0.11,-5.13 -0.03,-1.5 -0.06,-3.01 -0.09,-4.51 -0.02,-1.19 -0.05,-2.39 -0.07,-3.58 -0.02,-1.19 -0.03,-2.4 -0.04,-3.6 0,-0.22 0,-0.44 0.06,-0.65 0.18,-0.55 0.78,-0.99 1.18,-1.42 0.51,-0.54 0.99,-1.1 1.45,-1.67 1.32,-1.61 2.77,-3.58 3.9,-5.11 0.73,-0.98 1.83,-1.77 2.87,-2.49 1.52,-1.06 3.15,-1.98 4.77,-2.91 0.23,-0.13 0.46,-0.27 0.65,-0.45 0.27,-0.27 0.42,-0.61 0.56,-0.94 0.1,-0.24 0.06,-0.44 -0.26,-0.26 z m -11.85,5.49 c 0,0 0,0.03 0,0.05 l 0.19,0.46 c -0.11,-0.15 -0.2,-0.3 -0.19,-0.46 l -0.05,-0.12 c 0,0 0.03,0.05 0.05,0.07 z"
             id="path20" /><path
             class="cls-2"
             d="m 702.38,454.17 c 0,0 0,0.03 0,0.05 l -0.05,-0.12 c 0,0 0.03,0.05 0.05,0.07 z"
             id="path22" /><path
             class="cls-2"
             d="m 702.57,454.67 c -0.11,-0.15 -0.2,-0.3 -0.19,-0.46 z"
             id="path24" /></g></g><path
         class="cls-2"
         d="m 446.11,571.6 c 6.68,-4.89 13.4,-9.74 19.95,-14.82 2.73,-2.12 5.37,-4.39 8.2,-6.37 4.63,-3.23 9.94,-5.33 14.95,-7.87 5.83,-2.96 11.45,-6 17.57,-8.38 3.52,-1.37 7.09,-2.6 10.55,-4.12 4.63,-2.03 9.07,-4.54 13.76,-6.44 7.61,-3.08 15.78,-4.82 23.92,-5.84 7.2,-0.91 14.03,-2.85 21.08,-4.54 6.57,-1.58 13.2,-3.01 19.86,-4.13 3.32,-0.56 6.62,-1.09 9.92,-1.84 4.69,-1.06 9.18,-2.45 14.05,-2.3 6.43,0.2 12.82,1.43 19.25,1.84 12.1,0.78 24.36,-0.39 36.48,-0.45 10.18,-0.05 20.01,-0.35 30.11,-1.53 8.42,-0.99 16.64,-1.05 25.03,0.02 10.49,1.33 20.87,1.09 31.41,1.13 3.72,0.01 7.38,0.64 11.09,0.68 2.92,0.04 4.45,-1.04 6.92,-2.07 1.73,1.69 2.12,5.63 2.8,7.8 1.45,4.6 3.21,9.13 5.41,13.43 1.78,3.48 3.66,7.21 5.89,10.45 2.18,3.17 5.21,5.84 7.63,8.85 1.04,1.29 1.56,2.58 2.21,4.15 0.89,2.17 1.64,6.31 3.77,7.85 1.95,1.4 4,0.25 5.95,-0.04 1.81,-0.28 3.12,1.74 4.25,3.18 0.77,0.99 1.7,2.12 2.17,3.28 0.53,1.3 0.5,2.63 1.22,3.79 0.3,0.48 0.81,0.84 1.14,1.3 0.41,0.58 0.57,1.57 1.03,2.05 0.58,0.61 1.55,1.14 2.33,0.25 1.31,-1.49 -1.8,-3.85 -1.25,-5.91 0.5,0.52 0.11,2 0.42,2.83 0.97,2.63 2.59,2.2 5.99,2.18 -0.24,-0.41 1.13,-2.92 0,0"
         id="path29" /><path
         class="cls-5"
         d="M 842.61,571.92 H 702.97 V 388.06 c 0,-0.79 0.56,-1.43 1.25,-1.43 h 137.12 c 0.7,0 1.25,0.64 1.25,1.43 v 183.86 h 0.01 z"
         id="path31" /><path
         class="cls-5"
         d="M 910.79,571.92 H 867.76 V 345.6 c 0,-0.7 0.57,-1.26 1.27,-1.26 h 40.48 c 0.71,0 1.27,0.56 1.27,1.26 v 226.32 z"
         id="path33" /><path
         class="cls-5"
         d="M 769.7,571.92 H 739.62 V 362.87 c 0,-0.79 0.31,-1.43 0.71,-1.43 h 28.66 c 0.39,0 0.71,0.64 0.71,1.43 z"
         id="path35" /><path
         class="cls-5"
         d="M 801.84,571.92 H 769.71 V 334.57 c 0,-0.79 0.42,-1.43 0.95,-1.43 h 30.22 c 0.53,0 0.95,0.64 0.95,1.43 v 237.35 z"
         id="path37" /><path
         class="cls-6"
         d="m 244.22,297.56 c 5.47,-3.17 10.92,2.55 11.92,-7.57 0,0 11.28,-2.1 10.81,-10.12 -0.47,-8.02 7.23,-3.02 4.35,-13.41 -2.88,-10.39 7.65,-0.1 4.64,-18.47 -0.1,-0.61 7.73,-3.07 10.01,-18.35 2.28,-15.28 6.88,-14.52 9.03,-14.52 0,0 2.56,-0.02 4.22,-0.22 0.46,-0.06 0.89,-0.18 1.32,-0.37 1.81,-0.79 6.97,-3.26 6.74,-5.71 -0.28,-2.97 0,-6.57 -5.76,-12.16 -5.76,-5.59 -0.82,-15.67 -12.71,-22.43 0,0 -4.19,-19 -19.1,-13.6 0,0 -14.18,-12.77 -19.81,2.03 0,0 -12.29,2.78 -8.73,11.06 0.24,0.55 0.55,1.13 0.93,1.73 6.19,9.63 -1.88,13.34 -4.22,17.15 0,0 -9.73,12.65 -2.15,17.77 7.58,5.12 32.79,10.98 25.87,17.8 -8.03,7.91 -14.97,2.44 -13.04,12.15 1.93,9.71 12.22,4.57 7.56,9.38 -4.66,4.81 -15.11,9.97 -11.29,15.13 3.82,5.16 13.62,5.54 9.31,8.7 0,0 -13.52,3.91 -8.89,8.1 5.52,5 7.83,4.63 3.86,9.02 -3.97,4.39 -6.64,7.96 -4.88,6.94 z"
         id="path39" /><path
         class="cls-1"
         d="m 743.51,595.07 c -129.86,3.3 -259.79,4.16 -389.68,2.34 -113.86,-1.59 -220.22,-8.94 -334.66,-8.94 25.91,209.57 226.42,368.54 449.83,368.54 223.41,0 408.74,-157.36 456,-368.16 -60.48,2.59 -120.98,4.67 -181.5,6.21 z"
         id="path41" /><path
         class="cls-6"
         d="m 83.2,450.4 c 4.42,-9.65 10.02,-14.06 9.7,-22.12 -0.45,-11.45 6.11,-10.78 6.6,-11.5 0.57,-0.83 -4.64,-4.41 -3.75,-9.82 0.88,-5.37 8.42,-6.26 11.03,-12.38 3.81,-8.93 -0.89,-11.78 -0.62,-15.23 0.39,-5.06 9.56,-4.21 9.56,-4.21 -16.47,-11.92 -5.19,-17.45 -5.19,-17.45 -9.07,-7.41 -9.07,-14.2 -9.07,-14.2 -17.38,0.45 -9.63,-17.35 -9.63,-17.35 -5,-9.95 2.63,-14.13 11.67,-12.3 9.04,1.83 10.17,-3.41 10.17,-3.41 14.16,-17.78 23.47,8.26 23.47,8.26 0.55,7.76 -15.72,1.5 -13.86,8.7 0.62,2.4 9.41,5.3 9.41,5.3 8.41,-1.62 12.07,7.96 12.07,7.96 5.94,2.64 1.85,9.67 1.85,9.67 6.33,-7.94 13.86,1.21 13.86,1.21 9.21,-15.47 26.66,-5.3 26.66,-5.3 16.83,-5.76 21.33,5.83 21.33,5.83 40.64,1.82 23.69,30.8 23.69,30.8 23.85,3.96 11.19,19.65 11.19,19.65 0,0 16.15,19.31 11.83,33.83 -6.34,21.28 -25.72,1.36 2.45,111.26 1.9,7.42 -34.53,9.28 -34.53,9.28 l -119.16,6.92 c -1.24,-19.55 -6.22,-33.9 -10.5,-43.35 -6.62,-14.59 -10.85,-15.91 -13.59,-27.99 -0.93,-4.12 -5.25,-23.2 3.38,-42.06 z"
         id="path43" /><path
         id="Nuages"
         class="cls-6"
         d="m 801.5,281.24 c 0,0 -39.6,0.71 -11.82,-12.08 1.63,-0.75 7.78,-0.3 7.78,-0.3 0,0 1.34,-9.53 9.31,-12.18 7.97,-2.64 3.11,-12.33 15.13,-15.43 6.01,-1.55 6.32,-4.74 5.13,-7.54 -2.48,-5.82 -2.37,-12.67 1.08,-17.85 4.96,-7.44 14.61,-14.08 32.99,-6.64 2.68,1.08 20.52,17.66 0.51,29.64 -16.2,9.7 44.29,4.87 10.54,42.23 -1.37,1.51 -70.84,0.29 -70.41,0.19" /><ellipse
         id="Son"
         class="cls-8"
         cx="569.92999"
         cy="204.36"
         rx="56.700001"
         ry="57.970001" /><path
         class="cls-6"
         d="m 178.25,149.43 c -5.72,0.16 -5.71,9.44 0,9.61 5.72,-0.16 5.71,-9.44 0,-9.61 z"
         id="path47" /><path
         class="cls-3"
         d="m 194.4,82.54 c 0,0 -11.12,-3.09 -10.13,-23.5 0.99,-20.41 20.51,-33.28 20.51,-33.28 0,0 6.55,7.68 8.73,28.52 2.18,20.84 -14.27,27.84 -15.87,29.16 -1.59,1.31 -1.43,13.74 -1.89,15.13 -0.46,1.39 -2.25,0.69 -2.59,0.24 -0.34,-0.45 1.61,-16.46 1.24,-16.27 z"
         id="path49" /><path
         class="cls-9"
         d="m 216.27,57.09 c 1.78,17.78 -20.37,27.36 -20.44,26.62 -0.14,-1.43 -2.47,-20.33 4.02,-38.41 6.49,-18.08 4.79,-19.34 4.99,-19.48 0,0 9.51,12.16 11.43,31.27 z"
         id="path51" /><path
         class="cls-3"
         d="m 850,121.99 c 0,0 14.05,-3.09 12.8,-23.5 -1.25,-20.41 -25.93,-33.28 -25.93,-33.28 0,0 -8.28,7.68 -11.03,28.52 -2.75,20.84 18.04,27.84 20.06,29.16 2.02,1.31 1.81,13.74 2.39,15.13 0.58,1.39 2.84,0.69 3.28,0.24 0.44,-0.45 -2.03,-16.46 -1.56,-16.27 z"
         id="path53" /><path
         class="cls-9"
         d="m 822.48,96.79 c -2.26,17.78 25.74,27.36 25.84,26.62 0.18,-1.43 3.12,-20.33 -5.08,-38.41 -8.2,-18.08 -6.05,-19.34 -6.31,-19.48 0,0 -12.03,12.16 -14.45,31.27 z"
         id="path55" /><path
         class="cls-5"
         d="m 551.55,571.92 c 0,0 8.1,7.26 -83.39,-48.51 -6.08,-3.71 -68.33,-6.98 -75.85,-6.37 -86.81,7 -33.84,-3 -84.96,-11.66 0,0 20,19.88 -13.63,6.54 -20.07,-7.96 21.81,44.32 24.52,59.26"
         id="path57" /><path
         class="cls-3"
         d="m 26.73,278.39 c 0,0 -11.78,5.05 -22.16,-13.58 -10.38,-18.62 0.2,-43.57 0.2,-43.57 0,0 10.18,2.17 23.67,18.96 13.49,16.79 2.45,34.44 1.73,36.7 -0.72,2.27 6.3,13.08 6.65,14.62 0.35,1.54 -1.65,2.18 -2.22,2.02 -0.57,-0.16 -7.64,-15.58 -7.87,-15.16 z"
         id="path59" /><path
         class="cls-9"
         d="m 32.48,240.75 c 11.44,14.38 -3.34,38.27 -3.82,37.67 -0.92,-1.16 -13.47,-16.14 -17.59,-36.56 -4.12,-20.42 -6.35,-20.34 -6.24,-20.6 0,0 15.34,4.04 27.64,19.49 z"
         id="path61" /><path
         class="cls-3"
         d="m 684.81,101.8 c 0,0 -5,1.34 -10.4,-9.06 -5.4,-10.4 -1.79,-21.85 -1.79,-21.85 0,0 4.6,2.12 11.3,11.92 6.7,9.8 2.57,17.54 2.35,18.6 -0.22,1.06 3.35,7.2 3.58,8.01 0.23,0.81 -0.64,0.93 -0.89,0.79 -0.25,-0.14 -4.06,-8.6 -4.14,-8.41 z"
         id="path63" /><path
         class="cls-3"
         d="m 685.74,83.49 c 5.69,8.38 0.17,18.88 -0.07,18.52 -0.46,-0.67 -6.66,-9.47 -9.37,-20.14 -2.7,-10.67 -3.69,-10.85 -3.65,-10.98 0,0 6.97,3.58 13.09,12.59 z"
         id="path65" /><g
         id="g75"><path
           class="cls-2"
           d="m 650.06,513.64 v 0 c -3.37,0 -8.33,-2.33 -8.33,-5.45 l 4.97,-204.12 c 0,-3.12 -0.58,-5.91 2.8,-5.91 h 0.56 c 2.51,0 2.43,2.19 2.59,5.27 l 6.2,205.7 c 0,3.12 -5.42,4.51 -8.79,4.51 z"
           id="path67" /><path
           class="cls-2"
           d="m 650.3,271.78 c 0,0 4.15,17.99 0,17.99 -4.15,0 -14.09,-8.23 -10.53,-22.85 3,-12.31 7.75,-27.8 11.9,-27.8 4.15,0 -0.87,19.94 -1.37,32.67 z"
           id="path69" /><path
           class="cls-2"
           d="m 665.6,303.89 c 0,0 -18.23,-7.37 -15.81,-10.48 2.42,-3.12 15.45,-5.79 26.22,5.41 9.07,9.43 19.92,22.03 17.5,25.15 -2.42,3.12 -17.02,-12.27 -27.91,-20.07 z"
           id="path71" /><path
           class="cls-2"
           d="m 627.09,296.86 c 0,0 18.07,-7.7 18.98,-3.95 0.91,3.74 -5.59,14.52 -21.8,14.52 -13.65,0 -31.04,-0.88 -31.95,-4.63 -0.91,-3.74 21.23,-3.6 34.77,-5.94 z"
           id="path73" /></g><g
         id="g85"><path
           class="cls-2"
           d="m 573.05,526.49 v 0 c -2.69,0 -6.64,-1.9 -6.64,-4.45 l 3.97,-166.6 c 0,-2.55 -0.46,-4.82 2.23,-4.82 h 0.45 c 2,0 1.94,1.79 2.07,4.3 l 4.95,167.89 c 0,2.55 -4.32,3.68 -7.01,3.68 z"
           id="path77" /><path
           class="cls-2"
           d="m 573.24,329.09 c 0,0 3.31,14.68 0,14.68 -3.31,0 -11.24,-6.72 -8.4,-18.65 2.39,-10.05 6.18,-22.69 9.5,-22.69 3.32,0 -0.69,16.28 -1.09,26.66 z"
           id="path79" /><path
           class="cls-2"
           d="m 585.45,355.3 c 0,0 -14.55,-6.01 -12.62,-8.56 1.93,-2.55 12.33,-4.73 20.92,4.41 7.24,7.7 15.89,17.98 13.96,20.52 -1.93,2.55 -13.58,-10.02 -22.27,-16.38 z"
           id="path81" /><path
           class="cls-2"
           d="m 554.72,349.55 c 0,0 14.42,-6.28 15.15,-3.23 0.73,3.06 -4.46,11.85 -17.39,11.85 -10.89,0 -24.76,-0.72 -25.49,-3.78 -0.73,-3.06 16.94,-2.93 27.74,-4.85 z"
           id="path83" /></g><path
         id="_sol"
         data-name="&amp;lt;sol"
         class="cls-3"
         d="m 19.17,588.48 c 0,0 0.48,34.61 21.22,84.45 1.73,4.17 44.25,-0.43 58.17,6.6 13.91,7.02 25.22,34.61 72.91,35.76 47.69,1.15 31.06,30.83 52.69,49.36 22.56,19.33 45.9,6.93 74.77,2.13 32.31,-5.37 35.6,2.55 52.11,-0.39 17.47,-3.1 21.58,10.54 25.79,23.67 4.21,13.14 -25.03,7.55 -21.86,21 3.17,13.45 36.09,11.27 38.69,11.15 2.6,-0.12 14.23,3.6 12.98,13.17 -1.55,11.86 109.65,-11.72 99.75,-44.56 -9.9,-32.85 109.02,-133.38 109.02,-133.38 0,0 42.08,-65.1 42.08,-68.96 0,-5.83 -638.73,1.34 -638.32,0 z" /><path
         id="Sol"
         class="cls-4"
         d="m 522.1,586.27 409.32,-0.15 c 0,0 2.85,65.53 -52.68,150.68 -1.53,2.34 -41.34,51.44 -64.02,77.87 -4.87,5.68 -21.21,24.59 -44.58,42.68 -6.49,5.03 -39.07,34.02 -61.74,-10.83 -6.51,-12.87 -68.3,-34.1 -92.35,-27.04 -32.42,9.52 -28.98,10.41 -112.74,73.52 -24.7,18.61 -78.27,-2.36 -85.07,-54.02 -3.45,-26.18 -7.48,-40.68 31.46,-54.89 62.67,-22.88 40.33,-25.09 49.41,-56.41 9.08,-31.31 19.79,-38.67 62.34,-57.49 31.83,-14.08 25.18,-40.47 14.95,-47.85 -29.93,-21.58 -53.22,-6.99 -54.39,-28.42 l 0.09,-7.66 z" /><rect
         class="cls-5"
         x="328.78"
         y="383.42001"
         width="20.82"
         height="158.36"
         id="rect89" /><ellipse
         class="cls-6"
         cx="125.42"
         cy="84.639999"
         rx="3.9300001"
         ry="4.3600001"
         id="ellipse91" /><ellipse
         class="cls-6"
         cx="175.33"
         cy="218.25"
         rx="2.1700001"
         ry="2.4000001"
         id="ellipse93" /><ellipse
         class="cls-6"
         cx="273.48999"
         cy="123.45"
         rx="4.9699998"
         ry="5.5"
         id="ellipse95" /><ellipse
         class="cls-6"
         cx="318.72"
         cy="151.39999"
         rx="2.5599999"
         ry="2.8399999"
         id="ellipse97" /><ellipse
         class="cls-4"
         cx="814.85999"
         cy="860.23999"
         rx="8.9099998"
         ry="7.8899999"
         id="ellipse99" /><ellipse
         class="cls-3"
         cx="188.3"
         cy="734.25"
         rx="8.9099998"
         ry="7.8899999"
         id="ellipse101" /><ellipse
         class="cls-3"
         cx="374.37"
         cy="836.54999"
         rx="9.0600004"
         ry="4.8200002"
         id="ellipse103" /><ellipse
         class="cls-4"
         cx="909.37"
         cy="763.04999"
         rx="7.0799999"
         ry="6.27"
         id="ellipse105" /><path
         class="cls-6"
         d="m 776.96,172.77 c 0,0 20.99,0.62 27.96,0.09 4.44,-0.34 14.23,-6.13 -3.34,-15.41 -0.76,-0.4 -10.59,-10.43 -18.76,-1.38 -3.7,4.09 -5.64,5.08 -7.18,5.75 -3.57,1.56 -4.48,6.68 -1.7,9.61 v 0 c 0.82,0.86 1.9,1.34 3.02,1.35 z"
         id="path107" /><path
         class="cls-5"
         d="m 236.79,512.01 c -11.64,3.15 -18.96,6.89 -23.56,10.43 v -83.2 H 193.69 V 339.23 h -32.67 v 187.79 c -5.16,0.28 -10.24,0.84 -15.11,1.56 v -66.45 h -10.85 v 68.37 c -2.27,0.46 -4.44,0.94 -6.51,1.43 v -69.8 H 117.7 v 72.63 c -6.29,1.81 -10.12,3.21 -10.12,3.21 -80,3.82 -87.93,33.96 -87.93,33.96 l 233.32,-0.51 c 2.7,-10.2 3.9,-64.84 -16.17,-59.41 z"
         id="path109" /><rect
         class="cls-8"
         x="303.14001"
         y="407.82999"
         width="23.719999"
         height="82.75"
         id="rect111" /><rect
         class="cls-8"
         x="318.64001"
         y="373.54999"
         width="14.42"
         height="120.92"
         id="rect113" /><path
         class="cls-9"
         d="m 611.24,65.39 c 0,0 9.51,9.18 -0.09,26.17 -9.6,16.99 -34.05,16.63 -34.05,16.63 0,0 -3.13,-10.45 3.57,-29.67 6.7,-19.22 25.68,-15.61 27.79,-15.8 2.11,-0.2 7.21,-10.99 8.25,-11.92 1.04,-0.93 2.48,0.72 2.63,1.31 0.15,0.59 -8.53,13.23 -8.09,13.28 z"
         id="path115" /><path
         class="cls-3"
         d="m 579.43,74.87 c 5.86,-16.18 30.43,-11.91 30.19,-11.23 -0.47,1.3 -6.3,18.74 -19.96,30.52 -13.65,11.79 -12.61,13.81 -12.86,13.82 0,0 -3.67,-15.73 2.63,-33.12 z"
         id="path117" /><path
         class="cls-3"
         d="m 851.49,346.76 c 0,0 10.65,4.34 20.28,-11.02 9.63,-15.36 0.29,-36.23 0.29,-36.23 0,0 -9.27,1.68 -21.7,15.48 -12.43,13.8 -2.6,28.6 -1.97,30.49 0.63,1.89 -5.86,10.79 -6.2,12.07 -0.34,1.28 1.48,1.83 1.99,1.71 0.51,-0.12 7.1,-12.86 7.31,-12.51 z"
         id="path119" /><path
         class="cls-9"
         d="m 846.67,315.4 c -10.55,11.81 2.62,31.86 3.06,31.36 0.85,-0.95 12.41,-13.25 16.36,-30.18 3.96,-16.93 5.98,-16.83 5.89,-17.05 0,0 -13.98,3.17 -25.32,15.87 z"
         id="path121" /><path
         class="cls-9"
         d="m 924.13,503.17 c 0,0 -9.03,7.88 0.08,22.45 9.12,14.58 32.34,14.26 32.34,14.26 0,0 2.97,-8.97 -3.39,-25.46 -6.36,-16.49 -24.39,-13.39 -26.39,-13.56 -2,-0.17 -6.85,-9.43 -7.83,-10.23 -0.98,-0.8 -2.36,0.62 -2.49,1.13 -0.13,0.51 8.1,11.35 7.68,11.4 z"
         id="path123" /><path
         class="cls-3"
         d="m 954.28,511.21 c -5.61,-13.92 -28.57,-10.53 -28.33,-9.94 0.45,1.12 6.05,16.12 18.92,26.36 12.87,10.24 11.91,11.97 12.14,11.98 0,0 3.31,-13.43 -2.72,-28.39 z"
         id="path125" /><path
         class="cls-8"
         d="M 811.12,571.92 H 772.86 V 417.91 c 0,-0.79 0.5,-1.43 1.13,-1.43 h 35.98 c 0.63,0 1.13,0.64 1.13,1.43 v 154.01 h 0.01 z"
         id="path127" /><path
         class="cls-8"
         d="m 754.66,571.92 h -29.8 V 461.39 c 0,-0.79 0.39,-1.43 0.88,-1.43 h 28.04 c 0.49,0 0.88,0.64 0.88,1.43 z"
         id="path129" /><path
         class="cls-8"
         d="M 902.25,571.92 H 859.14 V 387.97 c 0,-0.79 0.51,-1.43 1.15,-1.43 h 40.81 c 0.64,0 1.15,0.64 1.15,1.43 z"
         id="path131" /><path
         class="cls-8"
         d="M 866.5,571.92 H 830.8 V 448.11 c 0,-0.79 0.47,-1.43 1.06,-1.43 h 33.58 c 0.59,0 1.06,0.64 1.06,1.43 z"
         id="path133" /><path
         class="cls-8"
         d="m 842.61,571.92 h -95.62 v -65.91 c 0,-0.47 1.26,-0.85 2.83,-0.85 h 89.96 c 1.57,0 2.83,0.38 2.83,0.85 z"
         id="path135" /><path
         class="cls-4"
         d="m 542.84,571.91 c 0,0 44.63,-12.39 96.72,-22.1 33.17,-6.18 74.97,17.44 74.97,17.44 l 36.46,-0.42 c 9.48,-0.11 18.76,-2.61 27.09,-7.19 15.88,-8.72 39.72,-15.15 77.52,-4.91 66.76,18.08 74.41,17.19 74.41,17.19 H 542.84 Z"
         id="path137" /><rect
         class="cls-9"
         x="270.04001"
         y="390.98999"
         width="15.45"
         height="140.84"
         rx="0.87"
         ry="0.87"
         id="rect139" /><path
         class="cls-9"
         d="M 280.25,571.92 H 525.8 c 0,0 -75.65,-19.81 -89.27,-23.14 -21.05,-5.15 -67.07,-9.63 -87.8,-10.57 -28.73,-1.31 -67,-5.97 -67,-5.97"
         id="path141" /><path
         class="cls-8"
         d="m 136.14,435.93 c -2.39,-17.14 -17.68,-14.37 -18.78,-15.77 -25.59,-32.62 -42.92,0.86 -43.36,0.79 -17.99,-2.74 -24.08,15.6 -24.92,16.4 -15.98,15.29 -9.98,27.66 -9.8,28.4 3.32,13.59 10.93,14.53 11.86,15.2 9.72,7.09 17.41,3.85 21.83,4.93 8.42,2.07 4.19,-10.48 25.25,10.92 2.99,3.04 4,-20.44 20.23,-12.69 16.24,7.74 26.26,-8.66 26.76,-9.4 17.13,-25.73 -8.92,-37.68 -9.07,-38.78 z m -37.52,34.61 c 0.72,1.5 -1.43,3.76 0.72,5.26 -2.15,-1.5 0,-3.76 -0.72,-5.26 z"
         id="path143" /><g
         id="_2hItr9.tif-2"
         data-name="2hItr9.tif"><g
           id="g161"><path
             class="cls-8"
             d="m 124.74,453.03 c 0,0 -0.31,0 -0.3,0 0.13,0 0.22,0 0.3,0 z"
             id="path145" /><path
             class="cls-8"
             d="m 106.13,465.54 c 0,0 0.05,0.07 0.08,0.11"
             id="path147" /><path
             class="cls-8"
             d="m 106.07,465.75 c 0,0 0,0.05 0,0.07 l -0.08,-0.18 c 0,0 0.05,0.07 0.08,0.11 z"
             id="path149" /><path
             class="cls-8"
             d="m 106.35,466.52 c -0.17,-0.24 -0.31,-0.46 -0.29,-0.7 z"
             id="path151" /><path
             class="cls-8"
             d="m 106.39,466.15 c -0.02,0.13 -0.03,0.25 -0.04,0.38"
             id="path153" /><path
             class="cls-8"
             d="m 124.23,457.33 c -0.86,0.48 -5.08,2.23 -7.68,3.67 -2.6,1.44 -0.8,0.46 -3.28,1.84 -2.1,1.16 -2.73,1.55 -6.29,5.67 0,0 -1.18,-4.95 -1.18,-4.96 l -0.06,-0.25 c 0,-0.63 0.15,-1.23 0.43,-1.8 0.48,-0.96 1.21,-1.74 1.88,-2.57 0.34,-0.43 0.7,-0.84 1,-1.29 0.74,-1.1 1.21,-2.32 1.64,-3.55 0.13,-0.36 0.29,-0.72 0.44,-1.07 0.11,-0.25 0.26,-0.49 0.34,-0.74 0.13,-0.41 0.24,-0.83 0.32,-1.25 0.19,-1.11 0.38,-2.23 0.5,-3.36 0.14,-1.31 0.16,-2.64 0.01,-3.96 -0.14,-1.23 -0.2,-2.45 0.25,-3.65 0.36,-0.96 0.87,-2 1.69,-2.73 0.41,-0.36 0.93,-0.65 1.51,-0.75 0.66,-0.12 1.28,-0.21 1.93,-0.31 0.47,-0.08 0.72,-0.12 1.12,-0.28 0.16,-0.06 1.06,-0.61 0.88,-0.71 -0.14,-0.08 -1.45,0.3 -1.63,0.3 -0.62,0.01 -1.24,-0.02 -1.83,-0.17 -0.08,-0.02 0.86,-1.14 1.09,-1.27 0.57,-0.32 1.17,-0.61 1.8,-0.85 0.58,-0.22 1.14,-0.45 1.8,-0.33 0.4,0.08 0.77,0.29 1.18,0.31 1.14,0.07 1.61,0.25 0.25,-0.88 -0.64,-0.54 -1.6,-0.7 -2.47,-0.54 -2.04,0.36 -3.96,1.59 -5.38,2.87 -0.68,0.61 -1.28,1.28 -1.81,1.99 -0.27,0.37 -0.53,0.75 -0.76,1.14 -0.11,0.19 -0.25,0.39 -0.33,0.59 -0.06,0.14 -0.06,0.35 -0.25,0.42 -0.28,0.11 -0.42,-0.71 -0.47,-0.86 -0.14,-0.41 -0.28,-0.81 -0.47,-1.2 -0.82,-1.67 -2,-3.23 -2.27,-5.07 -0.05,-0.34 -0.07,-0.69 -0.1,-1.04 -0.03,-0.56 0,-1.06 0.12,-1.61 0.12,-0.55 0.08,-1.14 0.2,-1.7 0.14,-0.66 0.42,-1.28 0.79,-1.87 0.37,-0.59 0.89,-1.06 1.16,-1.65 0.15,-0.32 0.11,-0.76 -0.23,-0.94 -0.49,1.41 -1.7,2.53 -2.46,3.85 -0.81,1.4 -1.09,3.01 -0.95,4.57 0.09,0.99 0.34,1.97 0.7,2.9 0.41,1.05 0.98,2.04 1.4,3.09 0.66,1.64 1.14,3.41 1.24,5.15 0.07,1.26 0.1,2.52 0.03,3.78 -0.05,1.11 -0.08,2.23 -0.14,3.35 -0.02,0.35 -0.08,0.7 -0.32,1.02 -0.05,-0.06 -0.09,-0.1 -0.11,-0.13 -0.31,-0.4 -0.59,-0.8 -0.91,-1.19 -0.85,-1.03 -1.72,-2.05 -2.57,-3.08 -0.22,-0.27 -0.47,-0.55 -0.6,-0.86 -0.31,-0.77 -0.58,-1.55 -0.82,-2.34 -0.19,-0.63 -0.24,-1.29 -0.05,-1.95 0.2,-0.72 0.62,-1.33 0.99,-1.97 0.17,-0.3 0.31,-0.6 0.46,-0.9 -0.03,-0.02 -0.04,-0.04 -0.07,-0.06 -0.07,0.03 -0.15,0.06 -0.22,0.1 -0.54,0.32 -1,0.73 -1.42,1.19 -0.43,0.46 -0.82,0.94 -0.82,1.6 0,0.02 0,0.03 -0.01,0.04 -0.12,0.84 -0.25,1.69 -0.33,2.53 -0.03,0.31 0.01,0.64 0.11,0.93 0.31,0.86 0.81,1.62 1.33,2.37 0.77,1.12 1.55,2.22 2.31,3.35 0.36,0.53 0.66,1.11 0.82,1.71 0.09,0.36 0.2,0.69 0.17,1.05 -0.03,0.36 -0.17,0.74 -0.33,1.08 -0.24,0.49 -0.55,0.95 -0.79,1.44 -0.33,0.65 -0.89,1.17 -1.43,1.69 -0.27,0.26 -0.55,0.52 -0.79,0.81 -0.26,0.31 -0.45,0.67 -0.69,0.99 -0.22,0.31 -0.46,0.6 -0.6,0.94 -0.13,0.31 -0.17,0.65 -0.28,0.96 -0.16,0.47 -0.49,0.91 -0.45,1.4 0,0.07 0.02,0.14 0,0.21 -0.12,0.37 -0.53,-0.27 -0.61,-0.38 -0.77,-1.11 -1.31,-2.32 -1.9,-3.51 -0.63,-1.28 -1.32,-2.54 -2.05,-3.78 -0.11,-0.18 -0.21,-0.36 -0.35,-0.53 -0.12,-0.16 -0.27,-0.31 -0.41,-0.45 -0.67,-0.69 -1.35,-1.38 -2.02,-2.08 -0.34,-0.29 -0.62,-0.57 -0.95,-0.79 -0.87,-0.6 -1.74,-1.2 -2.63,-1.76 -0.78,-0.49 -1.58,-0.93 -2.38,-1.41 -0.27,-0.16 -0.59,-0.31 -0.8,-0.54 -0.56,-0.62 -0.73,-1.36 -0.67,-2.17 0.06,-0.77 0.31,-1.49 0.61,-2.2 0.12,-0.29 0.26,-0.6 0.48,-0.81 0.67,-0.67 1.35,-1.31 2.08,-1.91 0.82,-0.67 1.67,-1.31 2.56,-1.9 0.66,-0.44 1.41,-0.78 2.1,-1.19 0.54,-0.34 1,-0.77 1.16,-1.4 0.15,-0.55 0.1,-1.09 -0.11,-1.62 -0.1,-0.26 -0.21,-0.51 -0.5,-0.71 -0.03,0.14 -0.07,0.25 -0.09,0.35 -0.04,0.29 -0.07,0.57 -0.11,0.86 -0.08,0.54 -0.21,1.06 -0.75,1.37 -0.19,0.11 -0.39,0.2 -0.58,0.3 -1.95,1.03 -4,1.95 -5.57,3.43 -0.76,0.71 -1.4,1.51 -2.01,2.32 -0.56,0.75 -1.22,1.52 -1.22,2.45 0,0.16 -0.08,0.34 -0.14,0.49 -0.07,0.15 -0.17,0.15 -0.28,0.01 -0.32,-0.38 -0.66,-0.74 -0.98,-1.13 -0.44,-0.53 -0.88,-1.07 -1.12,-1.72 -0.15,-0.42 -0.26,-0.85 -0.36,-1.29 -0.18,-0.78 -0.38,-1.56 -0.5,-2.34 -0.2,-1.34 0.15,-2.63 0.49,-3.91 0.22,-0.8 0.45,-1.6 0.65,-2.41 0.27,-1.07 0.31,-2.15 0.07,-3.23 -0.17,-0.74 -0.39,-1.47 -0.85,-2.1 -0.04,-0.06 -0.1,-0.11 -0.15,-0.17 -0.02,0.01 -0.04,0.02 -0.06,0.03 0.01,0.11 0.03,0.22 0.04,0.33 0.08,0.44 0.19,0.89 0.24,1.34 0.16,1.41 -0.13,2.76 -0.61,4.09 -0.37,1.01 -0.73,2.02 -1.1,3.03 -0.05,0.14 -0.13,0.21 -0.28,0.14 -0.27,-0.12 -0.56,-0.22 -0.79,-0.39 -0.47,-0.35 -0.91,-0.76 -1.37,-1.11 -0.82,-0.63 -1.28,-1.43 -1.39,-2.43 -0.03,-0.29 -0.13,-0.58 -0.23,-0.85 -0.06,-0.15 -0.19,-0.28 -0.31,-0.47 -0.04,0.12 -0.06,0.16 -0.07,0.2 -0.04,0.46 -0.1,0.93 -0.11,1.4 -0.01,0.86 0.13,1.67 0.67,2.38 0.21,0.29 0.44,0.55 0.69,0.81 0.47,0.48 0.93,0.95 1.44,1.38 0.33,0.28 0.62,0.57 0.82,0.95 0.25,0.47 0.31,0.98 0.36,1.49 0.07,0.85 0.4,1.64 0.66,2.46 0.27,0.86 0.54,1.72 0.92,2.55 0.29,0.64 0.64,1.27 1.1,1.82 0.47,0.57 1.06,1.06 1.59,1.58 0.67,0.65 1.27,1.35 2.01,1.94 0.69,0.55 1.49,0.99 2.28,1.43 0.4,0.23 0.8,0.45 1.18,0.7 0.18,0.12 0.38,0.23 0.53,0.37 0.14,0.13 0.22,0.28 0.41,0.37 0.59,0.26 1.12,0.59 1.55,1.03 0.54,0.54 1.03,1.12 1.51,1.71 0.91,1.12 1.77,2.28 2.24,3.65 0.03,0.06 0.04,0.13 0.07,0.24 -0.16,-0.04 -0.26,-0.06 -0.37,-0.09 -1.25,-0.34 -2.52,-0.4 -3.8,-0.37 -1.76,0.04 -3.52,0.15 -5.28,0.22 -0.58,0.02 -1.81,0.58 -2.01,0.62 -0.5,0.18 -1.46,0.73 -3.53,1.97 -2.21,1.33 -4.6,2.77 -7.02,3.8 -2.27,0.97 -5.09,1.4 -7.29,0.3 -0.57,-0.29 -4.31,-3.47 -4.82,-2.64 -0.17,0.28 0.31,0.44 0.54,0.61 0.57,0.43 1.08,0.9 1.59,1.37 1,0.93 2,1.92 3.37,2.43 1.2,0.45 2.53,0.45 3.8,0.29 0.63,-0.08 1.25,-0.21 1.87,-0.35 0.09,-0.02 1.57,-0.23 1.57,-0.23 -0.94,1.55 -1.05,3.46 -2.25,4.87 -0.41,0.47 -0.92,0.87 -1.43,1.25 -0.38,0.29 -0.82,0.58 -1.33,0.57 -0.14,0 -1.4,0 -0.76,0.34 1.58,0.85 3.67,-0.42 4.69,-1.53 1.3,-1.43 1.63,-3.35 2.63,-4.96 1,-1.59 2.63,-2.81 4.42,-3.72 2.26,-1.14 4.99,-2.19 7.6,-2.4 1.23,-0.1 2.47,-0.2 3.71,-0.1 0.99,0.08 1.97,0.19 2.88,0.57 0.45,0.18 0.92,0.36 1.21,0.76 0.7,0.96 1.42,1.91 2.04,2.91 0.71,1.14 1.09,2.41 1.28,3.72 0.04,0.26 0.08,0.53 0.05,0.78 -0.1,0.82 -0.23,1.61 -0.25,2.45 -0.02,0.64 -0.11,1.31 -0.55,1.82 -0.27,0.31 -0.64,0.54 -1.01,0.76 -1.38,0.83 -2.71,1.71 -4.14,2.47 -0.65,0.34 -1.29,0.76 -1.61,1.37 -0.25,0.49 -0.26,1.05 -0.32,1.58 -0.09,0.84 -0.33,1.68 -0.69,2.46 -0.06,0.12 -0.13,0.25 -0.26,0.32 -0.2,0.1 -0.46,0.02 -0.64,-0.12 -0.43,-0.33 -0.76,-0.75 -1.21,-1.07 -0.65,-0.46 -1.35,-0.86 -2.05,-1.25 -4.44,-2.5 -10.07,0.9 -17.11,-3.96 -6.98,-4.82 -15.09,-1.91 -13.57,-1.76 3.11,0.31 4.03,-1.35 11.98,3.29 2.98,1.74 6.38,3.33 7.66,3.51 6.81,0.97 1.98,0.25 6.2,0.95 4.21,0.69 9.9,9.03 9.9,9.03 l -0.51,67.27 h 11.1 c 0,0 -0.42,-9.11 -0.42,-9.24 0,-0.45 -0.02,-0.91 -0.03,-1.36 -0.03,-1.24 -0.06,-2.47 -0.09,-3.71 -0.04,-1.86 -0.09,-3.72 -0.13,-5.58 -0.06,-2.33 -0.11,-4.65 -0.17,-6.98 -0.06,-2.64 -0.12,-5.27 -0.19,-7.91 -0.07,-2.79 -0.13,-5.58 -0.19,-8.37 -0.06,-2.79 -0.13,-5.57 -0.19,-8.35 -0.06,-2.62 -0.12,-5.25 -0.17,-7.87 -0.05,-2.3 -0.1,-4.61 -0.14,-6.91 -0.04,-1.83 -0.07,-3.66 -0.1,-5.49 -0.03,-1.83 -0.05,-3.68 -0.07,-5.52 0,-0.33 0,-0.67 0.1,-0.99 0.28,-0.84 1.2,-1.51 1.81,-2.17 0.78,-0.83 1.51,-1.69 2.22,-2.56 2.02,-2.47 4.24,-5.48 5.98,-7.84 1.12,-1.51 2.81,-2.72 4.4,-3.82 2.33,-1.62 4.83,-3.03 7.31,-4.47 0.35,-0.2 0.71,-0.41 0.99,-0.68 0.42,-0.41 0.64,-0.93 0.86,-1.45 0.16,-0.37 0.1,-0.67 -0.4,-0.39 z m -18.17,8.42 c 0,0 0,0.05 0,0.07 l 0.29,0.7 c -0.17,-0.24 -0.31,-0.46 -0.29,-0.7 l -0.08,-0.18 c 0,0 0.05,0.07 0.08,0.11 z"
             id="path155" /><path
             class="cls-8"
             d="m 106.07,465.75 c 0,0 0,0.05 0,0.07 l -0.08,-0.18 c 0,0 0.05,0.07 0.08,0.11 z"
             id="path157" /><path
             class="cls-8"
             d="m 106.35,466.52 c -0.17,-0.24 -0.31,-0.46 -0.29,-0.7 z"
             id="path159" /></g></g><path
         id="path164"
         class="cls-7"
         d="m 591.84,545.51 c 0.27,1.24 0.57,2.45 0.77,3.63 h 0.13 l 0.64,-0.84 c 0.13,0.34 0.5,0.7 0.2,1.24 -0.07,0.07 0,0.2 0,0.34 0.07,0.2 0.07,0.4 0.2,0.77 l 0.27,-0.7 0.2,0.07 0.5,1.24 0.07,-0.34 c 0.07,0 0.13,0 0.13,0.07 0.13,0.13 0.27,0.34 0.4,0.57 0.57,0.7 1.31,1.04 2.08,1.24 0.7,0.2 1.48,0.27 2.22,0.4 0.07,0 0.13,0 0.2,0.07 0.13,0.2 0.34,0.34 0.64,0.34 0.2,0 0.4,0.34 0.7,0 0,0 0.13,-0.07 0.2,0 0.5,0.34 0.64,0 0.77,-0.34 l 0.7,0.2 0.2,-1.31 c 0.27,0.34 0.4,0.34 0.57,-0.07 0.07,-0.34 0.27,-0.64 0.34,-0.97 l 0.34,0.7 c 0.5,-0.4 0.64,-0.91 0.64,-1.54 q 0,-0.5 0.57,-0.4 c -0.2,-0.34 -0.27,-0.64 0.07,-0.97 0.13,-0.13 0,-0.5 0.07,-0.7 0.13,-0.57 0.13,-1.17 0.57,-1.75 0.2,-0.2 0,-0.77 0,-1.11 0,-0.84 -0.07,-1.68 -0.13,-2.52 0,-0.5 -0.13,-0.97 -0.13,-1.48 v -0.97 l 0.2,-0.07 c 0.2,0.5 0.4,1.04 0.64,1.54 0.7,1.68 1.48,3.36 2.01,5.1 1.11,3.36 2.65,6.48 4.03,9.7 0.5,1.17 0.84,2.52 1.31,3.76 0.07,0.27 0,0.5 -0.27,0.7 -0.27,0.2 -0.57,0.5 -0.64,0.84 -0.2,0.84 -1.11,1.11 -1.54,1.75 -0.07,0.07 -0.27,0 -0.34,0.07 -0.2,0.13 -0.4,0.27 -0.5,0.5 0,0.13 0.13,0.5 0.34,0.57 0.27,0.07 0.64,0.13 0.91,0.07 0.5,-0.13 0.91,-0.34 1.31,-0.64 0.84,-0.4 1.68,-0.84 2.52,-1.17 0.2,-0.07 0.64,-0.07 0.84,0.07 0.64,0.34 0.77,0.27 1.17,-0.27 0.07,-0.07 0.4,-0.13 0.57,-0.07 0.57,0.34 1.04,0.5 1.68,0.2 0.27,-0.13 0.7,0 1.04,0 0.2,0 0.34,-0.13 0.57,-0.13 -0.13,-0.13 -0.2,-0.34 -0.34,-0.4 -0.84,-0.5 -1.61,-0.91 -2.22,-1.68 -0.2,-0.27 -0.5,-0.5 -0.84,-0.7 -0.5,-0.27 -0.77,-0.7 -0.84,-1.24 -0.34,-2.01 -0.7,-3.96 -1.04,-5.91 -0.27,-1.75 -0.7,-3.49 -1.48,-5.1 -0.64,-1.24 -1.04,-2.65 -1.54,-3.96 -0.27,-0.7 -0.64,-1.41 -0.84,-2.08 -0.07,-0.2 -0.13,-0.5 -0.07,-0.7 0.27,-0.7 0,-1.31 -0.27,-2.01 -0.5,-0.91 -0.91,-1.81 -1.41,-2.79 -0.13,-0.27 -0.13,-0.64 -0.13,-0.91 0,-1.11 -0.34,-2.15 -0.97,-3.12 -0.13,-0.2 -0.27,-0.5 -0.27,-0.77 -0.2,-1.61 -0.77,-3.12 -1.41,-4.6 -0.27,-0.7 -0.5,-1.41 -0.5,-2.15 -0.07,-1.54 -0.07,-3.12 -0.7,-4.6 -0.2,-0.4 -0.4,-0.91 -0.57,-1.31 -0.2,-0.84 -0.5,-1.61 -0.57,-2.45 -0.07,-3.36 -0.7,-6.61 -2.15,-9.7 -0.13,-0.27 -0.13,-0.57 0.13,-0.77 0.7,-0.5 1.48,-1.04 2.22,-1.48 0.64,-0.34 1.11,-0.7 1.48,-1.31 0.13,-0.27 0.34,-0.5 0.5,-0.77 0.13,-0.13 0.2,-0.34 0.4,-0.34 0.91,-0.34 1.81,-0.7 2.72,-1.04 0.57,-0.2 0.84,-0.7 0.7,-1.24 0,-0.13 0.13,-0.34 0.27,-0.4 0.77,-0.5 1.61,-0.97 2.38,-1.48 0.5,-0.34 0.97,-0.7 0.91,-1.48 0,-0.13 0.2,-0.27 0.34,-0.34 0.34,-0.2 0.7,-0.4 1.11,-0.64 0.77,-0.4 0.97,-1.04 0.84,-1.88 -0.13,-0.57 -0.27,-1.04 -0.4,-1.54 0,-0.13 0,-0.4 0.07,-0.5 3.12,-2.79 6.08,-5.84 8.43,-9.33 0.64,-0.91 1.54,-1.31 2.32,-2.01 0.27,-0.2 0.77,-0.13 1.11,-0.2 0.84,-0.07 1.75,-0.2 2.58,-0.13 1.04,0.07 2.08,0.34 3.22,0.57 0.77,0.13 1.48,0.13 2.15,-0.2 0,0 0.07,0 0.07,-0.07 1.31,-0.57 1.54,-0.97 1.41,-2.38 -0.27,-1.95 -2.08,-3.63 -4.03,-3.69 -1.81,-0.07 -3.56,-0.4 -5.3,-0.97 -2.08,-0.7 -1.95,-0.5 -3.29,1.17 -0.34,0.4 -0.64,0.91 -0.91,1.41 -0.27,0.57 -0.5,1.11 -0.7,1.68 -0.27,0.64 -0.57,1.31 -1.11,1.75 -1.54,1.04 -2.99,2.08 -4.6,3.05 -2.08,1.31 -3.83,2.92 -5.37,4.8 -0.13,0.2 -0.5,0.27 -0.7,0.34 -0.4,0.2 -0.84,0.34 -1.17,0.64 -0.57,0.5 -1.11,0.84 -1.75,1.17 -0.77,0.4 -1.54,0.97 -2.22,1.61 -1.31,1.24 -2.79,2.15 -4.46,2.85 -0.97,0.4 -2.01,0.97 -2.79,1.68 -0.97,0.84 -2.15,1.41 -3.22,2.08 -1.54,0.97 -3.05,2.01 -4.53,3.05 -0.57,0.4 -1.17,0.57 -1.88,0.57 -1.41,-0.07 -2.79,-0.13 -4.2,-0.13 -2.52,-0.07 -4.93,0.2 -7.32,0.84 -1.31,0.34 -2.58,0.57 -3.96,0.5 -0.57,0 -1.17,0.13 -1.75,0.13 -0.7,0 -1.41,-0.13 -2.01,-0.27 -1.11,-0.2 -2.32,-0.27 -3.49,-0.27 -0.91,0 -1.81,0.2 -2.72,0.27 -0.34,0 -0.7,0 -1.04,-0.13 -2.38,-0.91 -4.87,-1.31 -7.45,-1.31 -2.45,-0.07 -4.8,0 -7.25,-0.07 -0.34,0 -0.7,-0.2 -1.04,-0.34 -0.13,-0.07 -0.34,-0.13 -0.5,-0.2 -0.07,-0.07 -0.2,-0.07 -0.27,-0.13 -0.34,-0.34 -0.7,-0.7 -1.04,-1.11 -0.2,-0.2 -0.34,-0.5 -0.64,-0.7 -0.5,-0.4 -0.97,-0.97 -1.54,-1.24 -0.34,-0.13 -0.91,0.07 -1.31,0.2 -1.04,0.4 -2.01,1.04 -3.05,1.41 -0.7,0.2 -1.41,0.2 -2.15,0.34 -1.31,0.2 -2.65,0.57 -3.76,1.31 -0.84,0.57 -1.41,1.24 -1.75,2.15 -0.57,1.81 0.27,2.79 2.15,3.42 1.81,0.64 3.42,-0.07 5,-0.7 0.57,-0.2 1.11,-0.27 1.61,-0.5 0.7,-0.27 1.48,-0.27 2.22,-0.34 0.97,-0.13 1.88,-0.07 2.79,0.13 0.91,0.2 1.88,0.07 2.72,0.34 1.61,0.4 3.12,1.04 4.8,1.48 2.22,0.57 4.46,1.04 6.68,1.48 1.11,0.2 2.22,0.2 3.36,0.27 q 0.77,0.07 0.84,0.84 c 0,0.57 0.07,1.04 0.13,1.61 0,0.57 0.34,0.84 0.84,0.91 0.97,0.13 1.88,0.4 2.85,0.13 h 0.4 c 1.11,0.57 2.32,0.5 3.42,0.4 0.34,0 0.57,0.07 0.64,0.4 0.07,0.27 0.27,0.34 0.57,0.34 0.64,-0.07 1.24,-0.07 1.88,-0.2 0.7,-0.13 1.31,-0.07 1.95,0.13 2.32,0.77 4.67,1.17 7.05,0.97 0.13,0 0.34,0.13 0.5,0.27 0.34,0.5 0.64,1.04 0.97,1.54 0.27,0.4 0.64,0.84 0.97,1.31 0.77,0.97 0.64,2.08 0.4,3.29 -0.2,0.91 -0.4,1.81 -0.57,2.72 -0.07,0.77 -0.13,1.54 0,2.22 0.13,0.77 0.07,1.54 -0.07,2.22 -0.4,2.08 -0.84,4.2 -1.11,6.34 -0.07,0.64 0.07,1.31 0.07,1.95 v 1.61 c 0,0.84 -0.13,1.81 0.07,2.58 0.4,1.31 0.2,2.58 -0.07,3.83 -0.13,0.84 -0.4,1.68 -0.07,2.52 0.13,0.34 -0.07,0.77 -0.13,1.17 -0.07,1.04 -0.27,2.15 -0.27,3.22 0,1.07 -0.13,2.15 -0.4,3.22 -0.57,1.88 -0.34,3.83 -0.27,5.71 0.07,1.48 0.2,2.99 0.27,4.46 0,0.57 0,1.11 -0.07,1.68 0,0.13 -0.13,0.34 -0.27,0.4 -0.34,0.34 -0.77,0.7 -1.17,1.04 -0.34,0.34 -0.84,0.57 -1.31,0.5 -0.27,0 -0.64,-0.13 -0.64,0.27 0,0.4 0.34,0.5 0.64,0.5 1.31,0 2.58,-0.07 3.83,-0.13 0.4,0 0.77,0.07 1.17,0.13 0.57,0.07 1.11,0.13 1.68,0.07 1.17,-0.13 2.45,-0.34 3.63,-0.57 0.27,-0.07 0.7,-0.2 0.84,-0.4 0.34,-0.4 0.07,-0.91 -0.5,-0.84 -1.24,0.07 -2.45,-0.5 -3.63,-0.7 -0.27,-0.07 -0.4,-0.2 -0.34,-0.57 0.4,-2.99 0.57,-6.01 1.31,-9 0.57,-2.08 0.77,-4.2 0.91,-6.28 0.07,-0.97 0.2,-1.88 0.4,-2.85 0.27,-0.23 0.57,-0.67 0.84,-1.21 v 0 z m 11.78,-8.36 v 0 c -0.4,-0.2 -0.84,-0.5 -1.24,-0.77 -0.07,-0.07 -0.13,-0.13 -0.2,-0.27 0.13,0 0.34,-0.07 0.34,0 0.4,0.34 0.77,0.67 1.11,1.04 v 0 z m -10.44,10.57 -0.13,0.07 -0.13,-0.97 h 0.2 l 0.07,0.91 z" /><rect
         class="cls-8"
         x="169.83"
         y="504.19"
         width="79.110001"
         height="44.610001"
         id="rect166" /><path
         class="cls-9"
         d="m 281.73,532.24 c -8.11,0.16 -16.13,0.71 -23.96,1.72 -128.89,16.68 -239.32,37.96 -239.32,37.96 h 261.8"
         id="path168" /><rect
         class="cls-9"
         x="239.3"
         y="296.10999"
         width="20.25"
         height="275.82001"
         rx="0.87"
         ry="0.87"
         id="rect170" /><rect
         class="cls-9"
         x="242.41"
         y="475.79999"
         width="96.779999"
         height="62.41"
         rx="0.87"
         ry="0.87"
         id="rect172" /><path
         class="cls-6"
         d="m 59.9,192.32 c 0,0 39.02,1.19 51.99,0.17 8.25,-0.65 26.46,-11.71 -6.21,-29.42 -1.42,-0.77 -19.68,-19.91 -34.89,-2.63 -6.87,7.81 -10.49,9.7 -13.34,10.98 -6.64,2.97 -8.33,12.75 -3.16,18.34 v 0 c 1.52,1.64 3.53,2.56 5.62,2.57 z"
         id="path174" /><circle
         class="cls-4"
         cx="615.33002"
         cy="850.91998"
         r="12.42"
         id="circle176" /><circle
         class="cls-3"
         cx="19.17"
         cy="672.72998"
         r="5.4400001"
         id="circle178" /><path
         class="cls-3"
         d="m 66.58,30.92 c 0,0 -5,1.34 -10.4,-9.06 -5.4,-10.4 -1.79,-21.85 -1.79,-21.85 0,0 4.6,2.12 11.3,11.92 6.7,9.8 2.57,17.54 2.35,18.6 -0.22,1.06 3.35,7.2 3.58,8.01 0.23,0.81 -0.64,0.93 -0.89,0.79 -0.25,-0.14 -4.06,-8.6 -4.14,-8.41 z"
         id="path180" /><path
         class="cls-3"
         d="M 67.51,12.61 C 73.2,20.99 67.68,31.49 67.44,31.13 66.98,30.46 60.78,21.66 58.07,10.99 55.37,0.32 54.39,0.14 54.42,0.02 c 0,0 6.97,3.58 13.09,12.59 z"
         id="path182" /></g></g></svg>
