<svg width="235" height="53" viewBox="0 0 235 53" fill="none" xmlns="http://www.w3.org/2000/svg">
<g filter="url(#filter0_bi_117_6307)">
<rect width="235" height="53" rx="6" fill="url(#paint0_linear_117_6307)"/>
</g>
<path d="M50.7783 19.3701H48.2148V17.8936H50.7783C51.1976 17.8936 51.5371 17.8252 51.7969 17.6885C52.0612 17.5472 52.2549 17.3558 52.3779 17.1143C52.501 16.8682 52.5625 16.5879 52.5625 16.2734C52.5625 15.9681 52.501 15.6833 52.3779 15.4189C52.2549 15.1546 52.0612 14.9404 51.7969 14.7764C51.5371 14.6123 51.1976 14.5303 50.7783 14.5303H48.8301V23H46.9502V13.0469H50.7783C51.5531 13.0469 52.2139 13.1859 52.7607 13.4639C53.3122 13.7373 53.7314 14.1178 54.0186 14.6055C54.3102 15.0885 54.4561 15.64 54.4561 16.2598C54.4561 16.9023 54.3102 17.4561 54.0186 17.9209C53.7314 18.3857 53.3122 18.7435 52.7607 18.9941C52.2139 19.2448 51.5531 19.3701 50.7783 19.3701ZM60.1982 21.2432V15.6035H62.0166V23H60.3076L60.1982 21.2432ZM60.4307 19.7119L60.9912 19.6982C60.9912 20.195 60.9365 20.653 60.8271 21.0723C60.7178 21.4915 60.5469 21.8561 60.3145 22.166C60.0866 22.4714 59.7972 22.7106 59.4463 22.8838C59.0954 23.0524 58.6807 23.1367 58.2021 23.1367C57.8376 23.1367 57.5049 23.0866 57.2041 22.9863C56.9033 22.8815 56.6436 22.7197 56.4248 22.501C56.2106 22.2777 56.0443 21.9928 55.9258 21.6465C55.8073 21.2956 55.748 20.874 55.748 20.3818V15.6035H57.5527V20.3955C57.5527 20.6416 57.5801 20.8467 57.6348 21.0107C57.694 21.1748 57.7738 21.3092 57.874 21.4141C57.9788 21.5143 58.0996 21.5872 58.2363 21.6328C58.3776 21.6738 58.528 21.6943 58.6875 21.6943C59.125 21.6943 59.4691 21.6077 59.7197 21.4346C59.9749 21.2568 60.1572 21.0199 60.2666 20.7236C60.376 20.4229 60.4307 20.0856 60.4307 19.7119ZM63.6094 12.5H65.4209V21.3662L65.2432 23H63.6094V12.5ZM70.1787 19.2266V19.3701C70.1787 19.9215 70.1172 20.4274 69.9941 20.8877C69.8757 21.348 69.6956 21.7467 69.4541 22.084C69.2126 22.4167 68.9118 22.6764 68.5518 22.8633C68.1963 23.0456 67.7793 23.1367 67.3008 23.1367C66.8451 23.1367 66.4486 23.0479 66.1113 22.8701C65.7786 22.6924 65.4984 22.4417 65.2705 22.1182C65.0426 21.79 64.8604 21.4049 64.7236 20.9629C64.5869 20.5163 64.4844 20.0286 64.416 19.5V19.1104C64.4844 18.5771 64.5869 18.0895 64.7236 17.6475C64.8604 17.2054 65.0426 16.8203 65.2705 16.4922C65.4984 16.1641 65.7786 15.9111 66.1113 15.7334C66.444 15.5557 66.8359 15.4668 67.2871 15.4668C67.7702 15.4668 68.1917 15.5602 68.5518 15.7471C68.9163 15.9294 69.2171 16.1891 69.4541 16.5264C69.6956 16.859 69.8757 17.2555 69.9941 17.7158C70.1172 18.1715 70.1787 18.6751 70.1787 19.2266ZM68.3672 19.3701V19.2266C68.3672 18.9121 68.3421 18.6159 68.292 18.3379C68.2419 18.0553 68.1598 17.807 68.0459 17.5928C67.932 17.3786 67.777 17.21 67.5811 17.0869C67.3851 16.9639 67.139 16.9023 66.8428 16.9023C66.5602 16.9023 66.3187 16.9502 66.1182 17.0459C65.9222 17.1416 65.7581 17.2738 65.626 17.4424C65.4984 17.611 65.3981 17.8092 65.3252 18.0371C65.2568 18.265 65.2113 18.5111 65.1885 18.7754V19.8418C65.2204 20.1927 65.2956 20.5094 65.4141 20.792C65.5326 21.07 65.708 21.291 65.9404 21.4551C66.1774 21.6191 66.4827 21.7012 66.8564 21.7012C67.1481 21.7012 67.3919 21.6442 67.5879 21.5303C67.7839 21.4118 67.9388 21.2477 68.0527 21.0381C68.1667 20.8239 68.2464 20.5755 68.292 20.293C68.3421 20.0104 68.3672 19.7028 68.3672 19.3701ZM73.4053 12.5V23H71.5938V12.5H73.4053ZM77.042 15.6035V23H75.2305V15.6035H77.042ZM75.1074 13.6689C75.1074 13.4001 75.1986 13.1768 75.3809 12.999C75.5677 12.8213 75.8184 12.7324 76.1328 12.7324C76.4473 12.7324 76.6956 12.8213 76.8779 12.999C77.0648 13.1768 77.1582 13.4001 77.1582 13.6689C77.1582 13.9333 77.0648 14.1543 76.8779 14.332C76.6956 14.5098 76.4473 14.5986 76.1328 14.5986C75.8184 14.5986 75.5677 14.5098 75.3809 14.332C75.1986 14.1543 75.1074 13.9333 75.1074 13.6689ZM82.0869 23.1367C81.5264 23.1367 81.0228 23.0456 80.5762 22.8633C80.1296 22.681 79.749 22.4281 79.4346 22.1045C79.1247 21.7764 78.8854 21.3958 78.7168 20.9629C78.5527 20.5254 78.4707 20.056 78.4707 19.5547V19.2812C78.4707 18.7116 78.5527 18.1943 78.7168 17.7295C78.8809 17.2601 79.1133 16.8568 79.4141 16.5195C79.7148 16.1823 80.0749 15.9225 80.4941 15.7402C80.9134 15.5579 81.376 15.4668 81.8818 15.4668C82.4059 15.4668 82.8685 15.5557 83.2695 15.7334C83.6706 15.9066 84.0055 16.1527 84.2744 16.4717C84.5433 16.7907 84.7461 17.1735 84.8828 17.6201C85.0195 18.0622 85.0879 18.5521 85.0879 19.0898V19.8486H79.291V18.6045H83.3105V18.4678C83.3014 18.1807 83.2467 17.9186 83.1465 17.6816C83.0462 17.4401 82.8913 17.2487 82.6816 17.1074C82.472 16.9616 82.2008 16.8887 81.8682 16.8887C81.5993 16.8887 81.3646 16.9479 81.1641 17.0664C80.9681 17.1803 80.804 17.3444 80.6719 17.5586C80.5443 17.7682 80.4486 18.0189 80.3848 18.3105C80.321 18.6022 80.2891 18.9258 80.2891 19.2812V19.5547C80.2891 19.8646 80.3301 20.1517 80.4121 20.416C80.4987 20.6803 80.624 20.9105 80.7881 21.1064C80.9567 21.2979 81.1572 21.4482 81.3896 21.5576C81.6266 21.6624 81.8955 21.7148 82.1963 21.7148C82.5745 21.7148 82.9163 21.6419 83.2217 21.4961C83.5316 21.3457 83.8005 21.1247 84.0283 20.833L84.9375 21.7764C84.7826 22.0042 84.5729 22.223 84.3086 22.4326C84.0488 22.6423 83.7344 22.8132 83.3652 22.9453C82.9961 23.0729 82.57 23.1367 82.0869 23.1367ZM92.0947 21.5781V23H86.5303V21.5781H92.0947ZM91.9648 16.6836L87.207 23H86.0176V21.8857L90.748 15.6035H91.9648V16.6836ZM91.3018 15.6035V17.0322H86.1133V15.6035H91.3018ZM99.3203 21.6328L101.043 15.6035H102.93L100.394 23H99.2451L99.3203 21.6328ZM98.0625 15.6035L99.8057 21.6465L99.8672 23H98.7119L96.1689 15.6035H98.0625ZM103.449 19.377V19.2334C103.449 18.6911 103.527 18.1921 103.682 17.7363C103.837 17.276 104.062 16.8773 104.358 16.54C104.655 16.2028 105.017 15.9408 105.445 15.7539C105.874 15.5625 106.361 15.4668 106.908 15.4668C107.464 15.4668 107.956 15.5625 108.385 15.7539C108.818 15.9408 109.182 16.2028 109.479 16.54C109.775 16.8773 110 17.276 110.155 17.7363C110.31 18.1921 110.388 18.6911 110.388 19.2334V19.377C110.388 19.9147 110.31 20.4137 110.155 20.874C110 21.3298 109.775 21.7285 109.479 22.0703C109.182 22.4076 108.82 22.6696 108.392 22.8564C107.963 23.0433 107.473 23.1367 106.922 23.1367C106.375 23.1367 105.885 23.0433 105.452 22.8564C105.019 22.6696 104.655 22.4076 104.358 22.0703C104.062 21.7285 103.837 21.3298 103.682 20.874C103.527 20.4137 103.449 19.9147 103.449 19.377ZM105.254 19.2334V19.377C105.254 19.7005 105.286 20.0036 105.35 20.2861C105.413 20.5687 105.511 20.8171 105.644 21.0312C105.776 21.2454 105.947 21.4141 106.156 21.5371C106.37 21.6556 106.626 21.7148 106.922 21.7148C107.214 21.7148 107.464 21.6556 107.674 21.5371C107.883 21.4141 108.054 21.2454 108.187 21.0312C108.323 20.8171 108.424 20.5687 108.487 20.2861C108.551 20.0036 108.583 19.7005 108.583 19.377V19.2334C108.583 18.9144 108.551 18.6159 108.487 18.3379C108.424 18.0553 108.323 17.807 108.187 17.5928C108.054 17.374 107.881 17.2031 107.667 17.0801C107.457 16.9525 107.204 16.8887 106.908 16.8887C106.617 16.8887 106.366 16.9525 106.156 17.0801C105.947 17.2031 105.776 17.374 105.644 17.5928C105.511 17.807 105.413 18.0553 105.35 18.3379C105.286 18.6159 105.254 18.9144 105.254 19.2334ZM115.768 20.9766C115.768 20.8216 115.727 20.6826 115.645 20.5596C115.562 20.4365 115.408 20.3249 115.18 20.2246C114.956 20.1198 114.628 20.0218 114.195 19.9307C113.812 19.8486 113.459 19.7461 113.136 19.623C112.812 19.5 112.534 19.3519 112.302 19.1787C112.069 19.001 111.887 18.7936 111.755 18.5566C111.627 18.3151 111.563 18.0371 111.563 17.7227C111.563 17.4173 111.63 17.1302 111.762 16.8613C111.894 16.5879 112.085 16.3486 112.336 16.1436C112.587 15.9339 112.892 15.7699 113.252 15.6514C113.612 15.5283 114.018 15.4668 114.469 15.4668C115.098 15.4668 115.638 15.5693 116.089 15.7744C116.545 15.9795 116.893 16.262 117.135 16.6221C117.376 16.9775 117.497 17.3786 117.497 17.8252H115.692C115.692 17.6292 115.647 17.4515 115.556 17.292C115.469 17.1325 115.335 17.0049 115.152 16.9092C114.97 16.8089 114.74 16.7588 114.462 16.7588C114.211 16.7588 113.999 16.7998 113.826 16.8818C113.658 16.9639 113.53 17.071 113.443 17.2031C113.357 17.3353 113.313 17.4811 113.313 17.6406C113.313 17.7591 113.336 17.8662 113.382 17.9619C113.432 18.0531 113.512 18.1374 113.621 18.2148C113.73 18.2923 113.879 18.363 114.065 18.4268C114.257 18.4906 114.492 18.5521 114.77 18.6113C115.321 18.7207 115.802 18.8665 116.212 19.0488C116.627 19.2266 116.95 19.4635 117.183 19.7598C117.415 20.056 117.531 20.4342 117.531 20.8945C117.531 21.2227 117.461 21.5234 117.319 21.7969C117.178 22.0658 116.973 22.3005 116.704 22.501C116.435 22.7015 116.114 22.8587 115.74 22.9727C115.367 23.082 114.945 23.1367 114.476 23.1367C113.797 23.1367 113.222 23.016 112.753 22.7744C112.284 22.5283 111.928 22.2184 111.687 21.8447C111.445 21.4665 111.324 21.0745 111.324 20.6689H113.054C113.067 20.9561 113.145 21.1862 113.286 21.3594C113.427 21.5326 113.605 21.6579 113.819 21.7354C114.038 21.8083 114.268 21.8447 114.51 21.8447C114.783 21.8447 115.013 21.8083 115.2 21.7354C115.387 21.6579 115.528 21.5553 115.624 21.4277C115.72 21.2956 115.768 21.1452 115.768 20.9766ZM124.196 17.1143V23H122.392V15.6035H124.101L124.196 17.1143ZM126.445 15.5557L126.418 17.2373C126.318 17.2191 126.204 17.2054 126.076 17.1963C125.953 17.1872 125.837 17.1826 125.728 17.1826C125.45 17.1826 125.206 17.2214 124.996 17.2988C124.786 17.3717 124.611 17.4788 124.47 17.6201C124.333 17.7614 124.228 17.9346 124.155 18.1396C124.082 18.3402 124.041 18.568 124.032 18.8232L123.643 18.7754C123.643 18.306 123.69 17.8708 123.786 17.4697C123.882 17.0687 124.021 16.7178 124.203 16.417C124.385 16.1162 124.613 15.8838 124.887 15.7197C125.165 15.5511 125.484 15.4668 125.844 15.4668C125.944 15.4668 126.051 15.4759 126.165 15.4941C126.284 15.5078 126.377 15.5283 126.445 15.5557ZM130.622 23.1367C130.062 23.1367 129.558 23.0456 129.111 22.8633C128.665 22.681 128.284 22.4281 127.97 22.1045C127.66 21.7764 127.421 21.3958 127.252 20.9629C127.088 20.5254 127.006 20.056 127.006 19.5547V19.2812C127.006 18.7116 127.088 18.1943 127.252 17.7295C127.416 17.2601 127.648 16.8568 127.949 16.5195C128.25 16.1823 128.61 15.9225 129.029 15.7402C129.449 15.5579 129.911 15.4668 130.417 15.4668C130.941 15.4668 131.404 15.5557 131.805 15.7334C132.206 15.9066 132.541 16.1527 132.81 16.4717C133.078 16.7907 133.281 17.1735 133.418 17.6201C133.555 18.0622 133.623 18.5521 133.623 19.0898V19.8486H127.826V18.6045H131.846V18.4678C131.837 18.1807 131.782 17.9186 131.682 17.6816C131.581 17.4401 131.426 17.2487 131.217 17.1074C131.007 16.9616 130.736 16.8887 130.403 16.8887C130.134 16.8887 129.9 16.9479 129.699 17.0664C129.503 17.1803 129.339 17.3444 129.207 17.5586C129.079 17.7682 128.984 18.0189 128.92 18.3105C128.856 18.6022 128.824 18.9258 128.824 19.2812V19.5547C128.824 19.8646 128.865 20.1517 128.947 20.416C129.034 20.6803 129.159 20.9105 129.323 21.1064C129.492 21.2979 129.692 21.4482 129.925 21.5576C130.162 21.6624 130.431 21.7148 130.731 21.7148C131.11 21.7148 131.451 21.6419 131.757 21.4961C132.067 21.3457 132.336 21.1247 132.563 20.833L133.473 21.7764C133.318 22.0042 133.108 22.223 132.844 22.4326C132.584 22.6423 132.27 22.8132 131.9 22.9453C131.531 23.0729 131.105 23.1367 130.622 23.1367ZM129.357 14.5713L130.697 12.4932H132.693L130.827 14.5713H129.357ZM138.9 20.9766C138.9 20.8216 138.859 20.6826 138.777 20.5596C138.695 20.4365 138.54 20.3249 138.312 20.2246C138.089 20.1198 137.761 20.0218 137.328 19.9307C136.945 19.8486 136.592 19.7461 136.269 19.623C135.945 19.5 135.667 19.3519 135.435 19.1787C135.202 19.001 135.02 18.7936 134.888 18.5566C134.76 18.3151 134.696 18.0371 134.696 17.7227C134.696 17.4173 134.762 17.1302 134.895 16.8613C135.027 16.5879 135.218 16.3486 135.469 16.1436C135.719 15.9339 136.025 15.7699 136.385 15.6514C136.745 15.5283 137.15 15.4668 137.602 15.4668C138.23 15.4668 138.771 15.5693 139.222 15.7744C139.677 15.9795 140.026 16.262 140.268 16.6221C140.509 16.9775 140.63 17.3786 140.63 17.8252H138.825C138.825 17.6292 138.78 17.4515 138.688 17.292C138.602 17.1325 138.467 17.0049 138.285 16.9092C138.103 16.8089 137.873 16.7588 137.595 16.7588C137.344 16.7588 137.132 16.7998 136.959 16.8818C136.79 16.9639 136.663 17.071 136.576 17.2031C136.49 17.3353 136.446 17.4811 136.446 17.6406C136.446 17.7591 136.469 17.8662 136.515 17.9619C136.565 18.0531 136.645 18.1374 136.754 18.2148C136.863 18.2923 137.011 18.363 137.198 18.4268C137.39 18.4906 137.624 18.5521 137.902 18.6113C138.454 18.7207 138.935 18.8665 139.345 19.0488C139.759 19.2266 140.083 19.4635 140.315 19.7598C140.548 20.056 140.664 20.4342 140.664 20.8945C140.664 21.2227 140.593 21.5234 140.452 21.7969C140.311 22.0658 140.106 22.3005 139.837 22.501C139.568 22.7015 139.247 22.8587 138.873 22.9727C138.499 23.082 138.078 23.1367 137.608 23.1367C136.929 23.1367 136.355 23.016 135.886 22.7744C135.416 22.5283 135.061 22.2184 134.819 21.8447C134.578 21.4665 134.457 21.0745 134.457 20.6689H136.187C136.2 20.9561 136.278 21.1862 136.419 21.3594C136.56 21.5326 136.738 21.6579 136.952 21.7354C137.171 21.8083 137.401 21.8447 137.643 21.8447C137.916 21.8447 138.146 21.8083 138.333 21.7354C138.52 21.6579 138.661 21.5553 138.757 21.4277C138.853 21.2956 138.9 21.1452 138.9 20.9766ZM146.44 21.2432V15.6035H148.259V23H146.55L146.44 21.2432ZM146.673 19.7119L147.233 19.6982C147.233 20.195 147.179 20.653 147.069 21.0723C146.96 21.4915 146.789 21.8561 146.557 22.166C146.329 22.4714 146.039 22.7106 145.688 22.8838C145.338 23.0524 144.923 23.1367 144.444 23.1367C144.08 23.1367 143.747 23.0866 143.446 22.9863C143.146 22.8815 142.886 22.7197 142.667 22.501C142.453 22.2777 142.286 21.9928 142.168 21.6465C142.049 21.2956 141.99 20.874 141.99 20.3818V15.6035H143.795V20.3955C143.795 20.6416 143.822 20.8467 143.877 21.0107C143.936 21.1748 144.016 21.3092 144.116 21.4141C144.221 21.5143 144.342 21.5872 144.479 21.6328C144.62 21.6738 144.77 21.6943 144.93 21.6943C145.367 21.6943 145.711 21.6077 145.962 21.4346C146.217 21.2568 146.399 21.0199 146.509 20.7236C146.618 20.4229 146.673 20.0856 146.673 19.7119ZM151.772 12.5V23H149.961V12.5H151.772ZM156.995 15.6035V16.9023H152.757V15.6035H156.995ZM153.892 13.7852H155.703V20.8672C155.703 21.0859 155.733 21.2546 155.792 21.373C155.851 21.4915 155.94 21.5713 156.059 21.6123C156.177 21.6533 156.318 21.6738 156.482 21.6738C156.601 21.6738 156.71 21.667 156.811 21.6533C156.911 21.6396 156.995 21.626 157.063 21.6123L157.07 22.9658C156.92 23.016 156.749 23.057 156.558 23.0889C156.371 23.1208 156.159 23.1367 155.922 23.1367C155.516 23.1367 155.161 23.0684 154.855 22.9316C154.55 22.7904 154.313 22.5648 154.145 22.2549C153.976 21.9404 153.892 21.5257 153.892 21.0107V13.7852ZM162.272 21.4277V18.0166C162.272 17.766 162.229 17.5495 162.143 17.3672C162.056 17.1849 161.924 17.0436 161.746 16.9434C161.568 16.8431 161.343 16.793 161.069 16.793C160.828 16.793 160.616 16.834 160.434 16.916C160.256 16.998 160.119 17.1143 160.023 17.2646C159.928 17.4105 159.88 17.5791 159.88 17.7705H158.068C158.068 17.4652 158.141 17.1758 158.287 16.9023C158.433 16.6243 158.64 16.3783 158.909 16.1641C159.183 15.9453 159.508 15.7744 159.887 15.6514C160.27 15.5283 160.698 15.4668 161.172 15.4668C161.732 15.4668 162.231 15.5625 162.669 15.7539C163.111 15.9408 163.457 16.2233 163.708 16.6016C163.963 16.9798 164.091 17.4561 164.091 18.0303V21.2568C164.091 21.626 164.114 21.9427 164.159 22.207C164.209 22.4668 164.282 22.6924 164.378 22.8838V23H162.539C162.452 22.8132 162.386 22.5762 162.341 22.2891C162.295 21.9974 162.272 21.7103 162.272 21.4277ZM162.525 18.4951L162.539 19.5684H161.397C161.115 19.5684 160.867 19.598 160.652 19.6572C160.438 19.7119 160.263 19.7939 160.126 19.9033C159.989 20.0081 159.887 20.1357 159.818 20.2861C159.75 20.432 159.716 20.5983 159.716 20.7852C159.716 20.9674 159.757 21.1315 159.839 21.2773C159.925 21.4232 160.049 21.5394 160.208 21.626C160.372 21.708 160.563 21.749 160.782 21.749C161.101 21.749 161.379 21.6852 161.616 21.5576C161.853 21.4255 162.038 21.266 162.17 21.0791C162.302 20.8923 162.373 20.7145 162.382 20.5459L162.901 21.3252C162.838 21.512 162.742 21.7103 162.614 21.9199C162.487 22.1296 162.323 22.3255 162.122 22.5078C161.922 22.6901 161.68 22.8405 161.397 22.959C161.115 23.0775 160.787 23.1367 160.413 23.1367C159.935 23.1367 159.506 23.041 159.128 22.8496C158.75 22.6582 158.451 22.3962 158.232 22.0635C158.014 21.7308 157.904 21.3525 157.904 20.9287C157.904 20.5368 157.977 20.1904 158.123 19.8896C158.269 19.5889 158.485 19.3359 158.772 19.1309C159.06 18.9212 159.415 18.764 159.839 18.6592C160.267 18.5498 160.757 18.4951 161.309 18.4951H162.525ZM169.218 15.6035V16.9023H164.979V15.6035H169.218ZM166.114 13.7852H167.926V20.8672C167.926 21.0859 167.955 21.2546 168.015 21.373C168.074 21.4915 168.163 21.5713 168.281 21.6123C168.4 21.6533 168.541 21.6738 168.705 21.6738C168.824 21.6738 168.933 21.667 169.033 21.6533C169.133 21.6396 169.218 21.626 169.286 21.6123L169.293 22.9658C169.143 23.016 168.972 23.057 168.78 23.0889C168.593 23.1208 168.382 23.1367 168.145 23.1367C167.739 23.1367 167.383 23.0684 167.078 22.9316C166.773 22.7904 166.536 22.5648 166.367 22.2549C166.199 21.9404 166.114 21.5257 166.114 21.0107V13.7852ZM174.488 20.9766C174.488 20.8216 174.447 20.6826 174.365 20.5596C174.283 20.4365 174.128 20.3249 173.9 20.2246C173.677 20.1198 173.349 20.0218 172.916 19.9307C172.533 19.8486 172.18 19.7461 171.856 19.623C171.533 19.5 171.255 19.3519 171.022 19.1787C170.79 19.001 170.608 18.7936 170.476 18.5566C170.348 18.3151 170.284 18.0371 170.284 17.7227C170.284 17.4173 170.35 17.1302 170.482 16.8613C170.615 16.5879 170.806 16.3486 171.057 16.1436C171.307 15.9339 171.613 15.7699 171.973 15.6514C172.333 15.5283 172.738 15.4668 173.189 15.4668C173.818 15.4668 174.358 15.5693 174.81 15.7744C175.265 15.9795 175.614 16.262 175.855 16.6221C176.097 16.9775 176.218 17.3786 176.218 17.8252H174.413C174.413 17.6292 174.368 17.4515 174.276 17.292C174.19 17.1325 174.055 17.0049 173.873 16.9092C173.691 16.8089 173.461 16.7588 173.183 16.7588C172.932 16.7588 172.72 16.7998 172.547 16.8818C172.378 16.9639 172.251 17.071 172.164 17.2031C172.077 17.3353 172.034 17.4811 172.034 17.6406C172.034 17.7591 172.057 17.8662 172.103 17.9619C172.153 18.0531 172.232 18.1374 172.342 18.2148C172.451 18.2923 172.599 18.363 172.786 18.4268C172.978 18.4906 173.212 18.5521 173.49 18.6113C174.042 18.7207 174.522 18.8665 174.933 19.0488C175.347 19.2266 175.671 19.4635 175.903 19.7598C176.136 20.056 176.252 20.4342 176.252 20.8945C176.252 21.2227 176.181 21.5234 176.04 21.7969C175.899 22.0658 175.694 22.3005 175.425 22.501C175.156 22.7015 174.835 22.8587 174.461 22.9727C174.087 23.082 173.666 23.1367 173.196 23.1367C172.517 23.1367 171.943 23.016 171.474 22.7744C171.004 22.5283 170.649 22.2184 170.407 21.8447C170.166 21.4665 170.045 21.0745 170.045 20.6689H171.774C171.788 20.9561 171.866 21.1862 172.007 21.3594C172.148 21.5326 172.326 21.6579 172.54 21.7354C172.759 21.8083 172.989 21.8447 173.23 21.8447C173.504 21.8447 173.734 21.8083 173.921 21.7354C174.108 21.6579 174.249 21.5553 174.345 21.4277C174.44 21.2956 174.488 21.1452 174.488 20.9766ZM179.684 13.0469L179.485 20.0127H177.961L177.763 13.0469H179.684ZM177.708 22.1592C177.708 21.8903 177.799 21.6647 177.981 21.4824C178.168 21.2956 178.419 21.2021 178.733 21.2021C179.048 21.2021 179.296 21.2956 179.479 21.4824C179.665 21.6647 179.759 21.8903 179.759 22.1592C179.759 22.4235 179.665 22.6468 179.479 22.8291C179.296 23.0114 179.048 23.1025 178.733 23.1025C178.419 23.1025 178.168 23.0114 177.981 22.8291C177.799 22.6468 177.708 22.4235 177.708 22.1592Z" fill="#504850"/>
<path d="M47.709 28.0469H49.2402L52.1182 35.7236L54.9893 28.0469H56.5205L52.7197 38H51.5029L47.709 28.0469ZM47.0117 28.0469H48.4678L48.7207 34.6914V38H47.0117V28.0469ZM55.7617 28.0469H57.2246V38H55.5088V34.6914L55.7617 28.0469ZM63.2676 36.5166V32.9893C63.2676 32.7249 63.2197 32.4971 63.124 32.3057C63.0283 32.1143 62.8825 31.9661 62.6865 31.8613C62.4951 31.7565 62.2536 31.7041 61.9619 31.7041C61.693 31.7041 61.4606 31.7497 61.2646 31.8408C61.0687 31.932 60.916 32.055 60.8066 32.21C60.6973 32.3649 60.6426 32.5404 60.6426 32.7363H59.002C59.002 32.4447 59.0726 32.1621 59.2139 31.8887C59.3551 31.6152 59.5602 31.3714 59.8291 31.1572C60.098 30.943 60.4193 30.7744 60.793 30.6514C61.1667 30.5283 61.5859 30.4668 62.0508 30.4668C62.6068 30.4668 63.099 30.5602 63.5273 30.7471C63.9603 30.9339 64.2998 31.2165 64.5459 31.5947C64.7965 31.9684 64.9219 32.4378 64.9219 33.0029V36.291C64.9219 36.6283 64.9447 36.9313 64.9902 37.2002C65.0404 37.4645 65.111 37.6947 65.2021 37.8906V38H63.5137C63.4362 37.8223 63.3747 37.5967 63.3291 37.3232C63.2881 37.0452 63.2676 36.7764 63.2676 36.5166ZM63.5068 33.502L63.5205 34.5205H62.3379C62.0326 34.5205 61.7637 34.5501 61.5312 34.6094C61.2988 34.6641 61.1051 34.7461 60.9502 34.8555C60.7952 34.9648 60.679 35.097 60.6016 35.252C60.5241 35.4069 60.4854 35.5824 60.4854 35.7783C60.4854 35.9743 60.5309 36.1543 60.6221 36.3184C60.7132 36.4779 60.8454 36.6032 61.0186 36.6943C61.1963 36.7855 61.4105 36.8311 61.6611 36.8311C61.9984 36.8311 62.2923 36.7627 62.543 36.626C62.7982 36.4847 62.9987 36.3138 63.1445 36.1133C63.2904 35.9082 63.3678 35.7145 63.377 35.5322L63.9102 36.2637C63.8555 36.4505 63.762 36.651 63.6299 36.8652C63.4977 37.0794 63.3245 37.2845 63.1104 37.4805C62.9007 37.6719 62.6478 37.8291 62.3516 37.9521C62.0599 38.0752 61.7227 38.1367 61.3398 38.1367C60.8568 38.1367 60.4261 38.041 60.0479 37.8496C59.6696 37.6536 59.3734 37.3916 59.1592 37.0635C58.945 36.7308 58.8379 36.3548 58.8379 35.9355C58.8379 35.5436 58.9108 35.1973 59.0566 34.8965C59.207 34.5911 59.4258 34.3359 59.7129 34.1309C60.0046 33.9258 60.36 33.7708 60.7793 33.666C61.1986 33.5566 61.6771 33.502 62.2148 33.502H63.5068ZM68.4082 30.6035V38H66.7539V30.6035H68.4082ZM66.6445 28.6621C66.6445 28.4115 66.7266 28.2041 66.8906 28.04C67.0592 27.8714 67.2917 27.7871 67.5879 27.7871C67.8796 27.7871 68.1097 27.8714 68.2783 28.04C68.4469 28.2041 68.5312 28.4115 68.5312 28.6621C68.5312 28.9082 68.4469 29.1133 68.2783 29.2773C68.1097 29.4414 67.8796 29.5234 67.5879 29.5234C67.2917 29.5234 67.0592 29.4414 66.8906 29.2773C66.7266 29.1133 66.6445 28.9082 66.6445 28.6621ZM71.8467 32.1826V38H70.1992V30.6035H71.751L71.8467 32.1826ZM71.5527 34.0283L71.0195 34.0215C71.0241 33.4974 71.097 33.0166 71.2383 32.5791C71.3841 32.1416 71.5846 31.7656 71.8398 31.4512C72.0996 31.1367 72.4095 30.8952 72.7695 30.7266C73.1296 30.5534 73.5306 30.4668 73.9727 30.4668C74.3281 30.4668 74.6494 30.5169 74.9365 30.6172C75.2282 30.7129 75.4766 30.8701 75.6816 31.0889C75.8913 31.3076 76.0508 31.5924 76.1602 31.9434C76.2695 32.2897 76.3242 32.7158 76.3242 33.2217V38H74.6699V33.2148C74.6699 32.8594 74.6175 32.5791 74.5127 32.374C74.4124 32.1644 74.2643 32.0163 74.0684 31.9297C73.877 31.8385 73.6377 31.793 73.3506 31.793C73.068 31.793 72.8151 31.8522 72.5918 31.9707C72.3685 32.0892 72.1794 32.251 72.0244 32.4561C71.874 32.6611 71.7578 32.8981 71.6758 33.167C71.5938 33.4359 71.5527 33.723 71.5527 34.0283ZM81.3965 30.6035V31.8066H77.2266V30.6035H81.3965ZM78.4297 28.792H80.0771V35.9561C80.0771 36.1839 80.109 36.3594 80.1729 36.4824C80.2412 36.6009 80.3346 36.6807 80.4531 36.7217C80.5716 36.7627 80.7106 36.7832 80.8701 36.7832C80.984 36.7832 81.0934 36.7764 81.1982 36.7627C81.3031 36.749 81.3874 36.7354 81.4512 36.7217L81.458 37.9795C81.3213 38.0205 81.1618 38.057 80.9795 38.0889C80.8018 38.1208 80.5967 38.1367 80.3643 38.1367C79.986 38.1367 79.651 38.0706 79.3594 37.9385C79.0677 37.8018 78.8398 37.5807 78.6758 37.2754C78.5117 36.9701 78.4297 36.5645 78.4297 36.0586V28.792ZM85.9287 38.1367C85.3818 38.1367 84.8874 38.0479 84.4453 37.8701C84.0078 37.6878 83.6341 37.4349 83.3242 37.1113C83.0189 36.7878 82.7842 36.4072 82.6201 35.9697C82.4561 35.5322 82.374 35.0605 82.374 34.5547V34.2812C82.374 33.7025 82.4583 33.1784 82.627 32.709C82.7956 32.2396 83.0303 31.8385 83.3311 31.5059C83.6318 31.1686 83.9873 30.9111 84.3975 30.7334C84.8076 30.5557 85.252 30.4668 85.7305 30.4668C86.2591 30.4668 86.7217 30.5557 87.1182 30.7334C87.5146 30.9111 87.8428 31.1618 88.1025 31.4854C88.3669 31.8044 88.5628 32.1849 88.6904 32.627C88.8226 33.069 88.8887 33.5566 88.8887 34.0898V34.7939H83.1738V33.6113H87.2617V33.4814C87.2526 33.1852 87.1934 32.9072 87.084 32.6475C86.9792 32.3877 86.8174 32.1781 86.5986 32.0186C86.3799 31.859 86.0882 31.7793 85.7236 31.7793C85.4502 31.7793 85.2064 31.8385 84.9922 31.957C84.7826 32.071 84.6071 32.2373 84.4658 32.4561C84.3245 32.6748 84.2152 32.9391 84.1377 33.249C84.0648 33.5544 84.0283 33.8984 84.0283 34.2812V34.5547C84.0283 34.8783 84.0716 35.179 84.1582 35.457C84.2493 35.7305 84.3815 35.9697 84.5547 36.1748C84.7279 36.3799 84.9375 36.5417 85.1836 36.6602C85.4297 36.7741 85.71 36.8311 86.0244 36.8311C86.4209 36.8311 86.7741 36.7513 87.084 36.5918C87.3939 36.4323 87.6628 36.2067 87.8906 35.915L88.7588 36.7559C88.5993 36.9883 88.3919 37.2116 88.1367 37.4258C87.8815 37.6354 87.5693 37.8063 87.2002 37.9385C86.8356 38.0706 86.4118 38.1367 85.9287 38.1367ZM91.8076 32.1826V38H90.1602V30.6035H91.7119L91.8076 32.1826ZM91.5137 34.0283L90.9805 34.0215C90.985 33.4974 91.0579 33.0166 91.1992 32.5791C91.3451 32.1416 91.5456 31.7656 91.8008 31.4512C92.0605 31.1367 92.3704 30.8952 92.7305 30.7266C93.0905 30.5534 93.4915 30.4668 93.9336 30.4668C94.2891 30.4668 94.6104 30.5169 94.8975 30.6172C95.1891 30.7129 95.4375 30.8701 95.6426 31.0889C95.8522 31.3076 96.0117 31.5924 96.1211 31.9434C96.2305 32.2897 96.2852 32.7158 96.2852 33.2217V38H94.6309V33.2148C94.6309 32.8594 94.5785 32.5791 94.4736 32.374C94.3734 32.1644 94.2253 32.0163 94.0293 31.9297C93.8379 31.8385 93.5986 31.793 93.3115 31.793C93.029 31.793 92.776 31.8522 92.5527 31.9707C92.3294 32.0892 92.1403 32.251 91.9854 32.4561C91.835 32.6611 91.7188 32.8981 91.6367 33.167C91.5547 33.4359 91.5137 33.723 91.5137 34.0283ZM102.137 36.5166V32.9893C102.137 32.7249 102.089 32.4971 101.993 32.3057C101.897 32.1143 101.752 31.9661 101.556 31.8613C101.364 31.7565 101.123 31.7041 100.831 31.7041C100.562 31.7041 100.33 31.7497 100.134 31.8408C99.9378 31.932 99.7852 32.055 99.6758 32.21C99.5664 32.3649 99.5117 32.5404 99.5117 32.7363H97.8711C97.8711 32.4447 97.9417 32.1621 98.083 31.8887C98.2243 31.6152 98.4294 31.3714 98.6982 31.1572C98.9671 30.943 99.2884 30.7744 99.6621 30.6514C100.036 30.5283 100.455 30.4668 100.92 30.4668C101.476 30.4668 101.968 30.5602 102.396 30.7471C102.829 30.9339 103.169 31.2165 103.415 31.5947C103.666 31.9684 103.791 32.4378 103.791 33.0029V36.291C103.791 36.6283 103.814 36.9313 103.859 37.2002C103.91 37.4645 103.98 37.6947 104.071 37.8906V38H102.383C102.305 37.8223 102.244 37.5967 102.198 37.3232C102.157 37.0452 102.137 36.7764 102.137 36.5166ZM102.376 33.502L102.39 34.5205H101.207C100.902 34.5205 100.633 34.5501 100.4 34.6094C100.168 34.6641 99.9743 34.7461 99.8193 34.8555C99.6644 34.9648 99.5482 35.097 99.4707 35.252C99.3932 35.4069 99.3545 35.5824 99.3545 35.7783C99.3545 35.9743 99.4001 36.1543 99.4912 36.3184C99.5824 36.4779 99.7145 36.6032 99.8877 36.6943C100.065 36.7855 100.28 36.8311 100.53 36.8311C100.868 36.8311 101.161 36.7627 101.412 36.626C101.667 36.4847 101.868 36.3138 102.014 36.1133C102.16 35.9082 102.237 35.7145 102.246 35.5322L102.779 36.2637C102.725 36.4505 102.631 36.651 102.499 36.8652C102.367 37.0794 102.194 37.2845 101.979 37.4805C101.77 37.6719 101.517 37.8291 101.221 37.9521C100.929 38.0752 100.592 38.1367 100.209 38.1367C99.7259 38.1367 99.2952 38.041 98.917 37.8496C98.5387 37.6536 98.2425 37.3916 98.0283 37.0635C97.8141 36.7308 97.707 36.3548 97.707 35.9355C97.707 35.5436 97.7799 35.1973 97.9258 34.8965C98.0762 34.5911 98.2949 34.3359 98.582 34.1309C98.8737 33.9258 99.2292 33.7708 99.6484 33.666C100.068 33.5566 100.546 33.502 101.084 33.502H102.376ZM107.147 32.1826V38H105.5V30.6035H107.052L107.147 32.1826ZM106.854 34.0283L106.32 34.0215C106.325 33.4974 106.398 33.0166 106.539 32.5791C106.685 32.1416 106.885 31.7656 107.141 31.4512C107.4 31.1367 107.71 30.8952 108.07 30.7266C108.43 30.5534 108.831 30.4668 109.273 30.4668C109.629 30.4668 109.95 30.5169 110.237 30.6172C110.529 30.7129 110.777 30.8701 110.982 31.0889C111.192 31.3076 111.352 31.5924 111.461 31.9434C111.57 32.2897 111.625 32.7158 111.625 33.2217V38H109.971V33.2148C109.971 32.8594 109.918 32.5791 109.813 32.374C109.713 32.1644 109.565 32.0163 109.369 31.9297C109.178 31.8385 108.938 31.793 108.651 31.793C108.369 31.793 108.116 31.8522 107.893 31.9707C107.669 32.0892 107.48 32.251 107.325 32.4561C107.175 32.6611 107.059 32.8981 106.977 33.167C106.895 33.4359 106.854 33.723 106.854 34.0283ZM116.697 30.6035V31.8066H112.527V30.6035H116.697ZM113.73 28.792H115.378V35.9561C115.378 36.1839 115.41 36.3594 115.474 36.4824C115.542 36.6009 115.635 36.6807 115.754 36.7217C115.872 36.7627 116.011 36.7832 116.171 36.7832C116.285 36.7832 116.394 36.7764 116.499 36.7627C116.604 36.749 116.688 36.7354 116.752 36.7217L116.759 37.9795C116.622 38.0205 116.463 38.057 116.28 38.0889C116.103 38.1208 115.897 38.1367 115.665 38.1367C115.287 38.1367 114.952 38.0706 114.66 37.9385C114.368 37.8018 114.141 37.5807 113.977 37.2754C113.812 36.9701 113.73 36.5645 113.73 36.0586V28.792Z" fill="#5B686C" fill-opacity="0.4"/>
<circle cx="212.065" cy="24.065" r="10.065" fill="#BAC1C9"/>
<circle cx="212.565" cy="23.565" r="1.565" fill="#7B7B7B"/>
<circle cx="212.565" cy="23.565" r="1.565" fill="#7B7B7B"/>
<circle cx="212.565" cy="23.565" r="1.565" fill="#73787D"/>
<circle cx="207.565" cy="23.565" r="1.565" fill="#7B7B7B"/>
<circle cx="207.565" cy="23.565" r="1.565" fill="#7B7B7B"/>
<circle cx="207.565" cy="23.565" r="1.565" fill="#73787D"/>
<circle cx="217.565" cy="23.565" r="1.565" fill="#7B7B7B"/>
<circle cx="217.565" cy="23.565" r="1.565" fill="#7B7B7B"/>
<circle cx="217.565" cy="23.565" r="1.565" fill="#73787D"/>
<circle cx="21.5" cy="24.5" r="13.5" fill="#BAC1C9"/>
<defs>
<filter id="filter0_bi_117_6307" x="-30" y="-30" width="295" height="113" filterUnits="userSpaceOnUse" color-interpolation-filters="sRGB">
<feFlood flood-opacity="0" result="BackgroundImageFix"/>
<feGaussianBlur in="BackgroundImage" stdDeviation="15"/>
<feComposite in2="SourceAlpha" operator="in" result="effect1_backgroundBlur_117_6307"/>
<feBlend mode="normal" in="SourceGraphic" in2="effect1_backgroundBlur_117_6307" result="shape"/>
<feColorMatrix in="SourceAlpha" type="matrix" values="0 0 0 0 0 0 0 0 0 0 0 0 0 0 0 0 0 0 127 0" result="hardAlpha"/>
<feOffset dx="5" dy="5"/>
<feGaussianBlur stdDeviation="5"/>
<feComposite in2="hardAlpha" operator="arithmetic" k2="-1" k3="1"/>
<feColorMatrix type="matrix" values="0 0 0 0 1 0 0 0 0 1 0 0 0 0 1 0 0 0 0.1 0"/>
<feBlend mode="normal" in2="shape" result="effect2_innerShadow_117_6307"/>
</filter>
<linearGradient id="paint0_linear_117_6307" x1="1.98869e-06" y1="1.00798" x2="3.05366" y2="65.3148" gradientUnits="userSpaceOnUse">
<stop stop-color="white" stop-opacity="0.46"/>
<stop offset="1" stop-color="white" stop-opacity="0.55"/>
</linearGradient>
</defs>
</svg>
