<svg width="44" height="65" viewBox="0 0 44 65" fill="none" xmlns="http://www.w3.org/2000/svg">
<path d="M25.547 41.3175C23.8275 41.3175 22.1347 40.8033 20.6591 39.7995C18.2085 41.4666 15.1593 41.7833 12.3849 40.6361C9.611 39.4867 7.67969 37.1051 7.12468 34.1933C4.21289 33.6388 1.83124 31.7075 0.68195 28.9331C-0.46689 26.1592 -0.148503 23.1089 1.51848 20.6589C-0.148531 18.2078 -0.466931 15.1581 0.682502 12.3836C1.83134 9.60971 4.21287 7.6784 7.12466 7.12452C7.67922 4.21273 9.61056 1.83108 12.3849 0.681793C15.1583 -0.467047 18.2086 -0.14811 20.6591 1.51832C23.1096 -0.148124 26.1589 -0.466524 28.9332 0.681793C31.7072 1.83118 33.6385 4.21273 34.1935 7.12452C37.1053 7.67853 39.4869 9.60985 40.6356 12.3836C41.785 15.1576 41.4666 18.2078 39.7997 20.6589C41.4667 23.1095 41.7851 26.1593 40.6362 28.9331C39.4868 31.707 37.1053 33.6383 34.1935 34.1933C33.6389 37.1051 31.7076 39.4868 28.9332 40.6361C27.8302 41.0924 26.6826 41.3175 25.547 41.3175ZM20.6591 38.0294C20.8312 38.0294 21.0029 38.0852 21.1458 38.1972C23.2161 39.8139 25.9023 40.1786 28.328 39.1744C30.7554 38.1685 32.3959 36.0114 32.7164 33.4042C32.7605 33.0444 33.0447 32.7597 33.4045 32.7161C36.0117 32.3955 38.1687 30.7544 39.1747 28.3277C40.1795 25.9014 39.8142 23.2158 38.1974 21.1455C37.9739 20.8597 37.9739 20.458 38.1974 20.1721C39.8141 18.1018 40.1794 15.4168 39.1741 12.9893C38.1693 10.5619 36.0123 8.92204 33.405 8.60153C33.0453 8.55738 32.7605 8.27321 32.717 7.91343C32.3964 5.3062 30.7553 3.14915 28.3286 2.14324C25.9034 1.13897 23.2178 1.50371 21.1463 3.12048C20.8605 3.3445 20.4588 3.3445 20.173 3.12048C18.1021 1.50263 15.4159 1.13846 12.9908 2.14324C10.5633 3.14917 8.92289 5.3062 8.60237 7.91343C8.55823 8.27321 8.27405 8.55793 7.91428 8.60153C5.30704 8.92212 3.15 10.5621 2.14522 12.9893C1.13929 15.4168 1.50458 18.1017 3.12191 20.1721C3.34538 20.458 3.34538 20.8597 3.12191 21.1455C1.50518 23.2158 1.13989 25.9009 2.14467 28.3277C3.1506 30.7551 5.30762 32.3956 7.91486 32.7161C8.27463 32.7603 8.55936 33.0444 8.60295 33.4042C8.92354 36.0114 10.5646 38.1685 12.9913 39.1744C15.4176 40.1792 18.1033 39.815 20.1736 38.1972C20.3154 38.0852 20.4869 38.0294 20.6591 38.0294Z" fill="#FFEBEC"/>
<path d="M8.37975 8.24727C-0.717802 10.9227 -0.570907 14.0682 3.24816 20.7911C-1.51939 26.6836 0.193239 29.9224 8.37975 33.335C9.8497 39.8883 13.5637 43.0361 20.6385 38.1815C28.5925 42.3328 31.8743 40.7242 33.7526 33.335C40.8798 29.6289 42.3575 27.4503 38.5991 20.7911C43.3138 13.0338 41.2889 10.8065 33.4675 8.24727C30.988 0.785702 28.4471 -0.484165 21.2087 2.8306C13.6781 -0.885431 10.3595 0.322835 8.37975 8.24727Z" fill="#FFEBEC"/>
<circle cx="23.0922" cy="22.5221" r="10.5483" fill="#FFB5B8"/>
<path d="M27.1758 41.052C25.5386 41.052 23.9267 40.5623 22.5217 39.6066C20.1883 41.1939 17.2849 41.4955 14.6432 40.4031C12.0019 39.3087 10.163 37.0411 9.63453 34.2685C6.86199 33.7405 4.59425 31.9015 3.49992 29.2599C2.40602 26.6186 2.70919 23.7142 4.29644 21.3814C2.70916 19.0475 2.40599 16.1437 3.50045 13.5019C4.59434 10.8606 6.86198 9.02164 9.63452 8.49425C10.1626 5.72171 12.0015 3.45396 14.6432 2.35964C17.2839 1.26574 20.1884 1.56942 22.5217 3.15616C24.855 1.56941 27.7584 1.26624 30.4001 2.35964C33.0414 3.45406 34.8803 5.72171 35.4088 8.49425C38.1813 9.02176 40.4491 10.8607 41.5429 13.5019C42.6373 16.1431 42.3341 19.0475 40.7469 21.3814C42.3341 23.7148 42.6373 26.6187 41.5434 29.2599C40.449 31.9011 38.1813 33.7401 35.4088 34.2685C34.8807 37.0411 33.0418 39.3088 30.4001 40.4031C29.3498 40.8377 28.2571 41.052 27.1758 41.052ZM22.5217 37.9212C22.6856 37.9212 22.849 37.9742 22.9851 38.0809C24.9564 39.6203 27.5141 39.9676 29.8238 39.0114C32.1351 38.0536 33.6971 35.9997 34.0023 33.5171C34.0444 33.1746 34.3149 32.9035 34.6575 32.8619C37.1401 32.5567 39.1939 30.9941 40.1517 28.6834C41.1085 26.3732 40.7607 23.816 39.2212 21.8447C39.0085 21.5725 39.0085 21.19 39.2212 20.9179C40.7607 18.9466 41.1085 16.3899 40.1512 14.0786C39.1945 11.7673 37.1406 10.2058 34.6581 9.90061C34.3155 9.85858 34.0444 9.588 34.0029 9.24543C33.6976 6.76288 32.135 4.709 29.8244 3.75119C27.5152 2.79495 24.958 3.14225 22.9856 4.68169C22.7135 4.895 22.331 4.895 22.0588 4.68169C20.087 3.14121 17.5292 2.79446 15.2201 3.75119C12.9087 4.70901 11.3467 6.76288 11.0416 9.24543C10.9995 9.588 10.7289 9.85911 10.3864 9.90061C7.90382 10.2059 5.84994 11.7674 4.89321 14.0786C3.93539 16.3899 4.28321 18.9464 5.82319 20.9179C6.03597 21.19 6.03597 21.5725 5.82319 21.8447C4.28379 23.816 3.93596 26.3726 4.89269 28.6834C5.85051 30.9948 7.90437 32.5568 10.3869 32.8619C10.7295 32.904 11.0006 33.1746 11.0421 33.5171C11.3474 35.9997 12.91 38.0536 15.2206 39.0114C17.5309 39.9681 20.0881 39.6214 22.0594 38.0809C22.1944 37.9742 22.3577 37.9212 22.5217 37.9212Z" fill="#FFEBEC"/>
<path d="M7.98242 65V36.4912C12.3132 40.9055 14.8205 41.2939 19.3859 39.5457V58.5516L7.98242 65Z" fill="#FFEBEC"/>
<path d="M37.6309 64.4298V36.4912C32.867 40.8172 30.109 41.1979 25.087 39.4846V58.1104L37.6309 64.4298Z" fill="#FFEBEC"/>
<path d="M33.6406 62.7192V38.2017C29.5264 41.998 27.1444 42.332 22.8073 40.8285V57.1736L33.6406 62.7192Z" fill="#FFB5B8"/>
<path d="M22.808 57.1736L12.2598 62.7192V50.4605V38.2017C16.374 41.998 18.4709 42.332 22.808 40.8285V57.1736Z" fill="#FFB5B8"/>
<path d="M10.096 64.4293C9.94697 64.4293 9.79853 64.3874 9.66942 64.3041C9.44263 64.159 9.30469 63.9079 9.30469 63.6381L9.30524 34.6416C9.30524 34.2046 9.66004 33.8503 10.0965 33.8503C10.5336 33.8503 10.8878 34.204 10.8878 34.6416L10.8873 62.402L22.608 56.9966C22.8183 56.8995 23.0605 56.8995 23.2707 56.9966L34.9898 62.402L34.9904 34.6416C34.9904 34.2046 35.3452 33.8503 35.7816 33.8503C36.2187 33.8503 36.5729 34.204 36.5729 34.6416L36.5718 63.6381C36.5718 63.9079 36.4344 64.159 36.2071 64.3041C35.9808 64.4509 35.6956 64.4702 35.4495 64.3565L22.9392 58.5869L10.4278 64.3571C10.3218 64.4056 10.2087 64.4293 10.0962 64.4293L10.096 64.4293Z" fill="#FF464D"/>
<path d="M22.9387 58.5066C22.5017 58.5066 22.1475 58.1529 22.1475 57.7153V40.531C22.1475 40.094 22.5012 39.7397 22.9387 39.7397C23.3758 39.7397 23.73 40.0934 23.73 40.531V57.7153C23.73 58.1523 23.3758 58.506 22.9387 58.506V58.5066Z" fill="#FF464D"/>
<path d="M27.8272 42.4579C26.1078 42.4579 24.415 41.9436 22.9394 40.9399C20.4888 42.6069 17.4395 42.9236 14.6652 41.7765C11.8913 40.6271 9.95996 38.2455 9.40495 35.3337C6.49316 34.7792 4.11151 32.8478 2.96222 30.0735C1.81338 27.2996 2.13177 24.2493 3.79875 21.7993C2.13174 19.3482 1.81334 16.2985 2.96278 13.524C4.11161 10.7501 6.49314 8.81879 9.40494 8.26491C9.9595 5.35311 11.8908 2.97147 14.6652 1.82217C17.4385 0.673334 20.4889 0.992271 22.9393 2.6587C25.3899 0.992257 28.4392 0.673857 31.2135 1.82217C33.9874 2.97156 35.9187 5.35311 36.4737 8.26491C39.3855 8.81891 41.7672 10.7502 42.9159 13.524C44.0653 16.2979 43.7469 19.3482 42.0799 21.7993C43.7469 24.2499 44.0653 27.2997 42.9165 30.0735C41.7671 32.8474 39.3855 34.7787 36.4737 35.3337C35.9192 38.2455 33.9878 40.6272 31.2135 41.7765C30.1105 42.2328 28.9627 42.4579 27.8271 42.4579L27.8272 42.4579ZM22.9394 39.1698C23.1115 39.1698 23.2831 39.2255 23.426 39.3376C25.4963 40.9543 28.1825 41.319 30.6083 40.3148C33.0357 39.3089 34.6761 37.1518 34.9966 34.5446C35.0408 34.1848 35.325 33.9001 35.6847 33.8565C38.292 33.5359 40.449 31.8948 41.4549 29.4681C42.4598 27.0418 42.0945 24.3562 40.4777 22.2859C40.2542 22.0001 40.2542 21.5983 40.4777 21.3125C42.0944 19.2422 42.4597 16.5571 41.4544 14.1297C40.4496 11.7023 38.2926 10.0624 35.6853 9.74191C35.3255 9.69776 35.0408 9.41359 34.9972 9.05382C34.6766 6.44658 33.0356 4.28954 30.6088 3.28362C28.1837 2.27935 25.4981 2.6441 23.4266 4.26086C23.1408 4.48488 22.7391 4.48488 22.4533 4.26086C20.3824 2.64301 17.6962 2.27884 15.271 3.28362C12.8436 4.28955 11.2032 6.44658 10.8826 9.05382C10.8385 9.41359 10.5543 9.69831 10.1946 9.74191C7.58732 10.0625 5.43028 11.7025 4.42549 14.1297C3.41957 16.5571 3.78485 19.2421 5.40218 21.3125C5.62565 21.5983 5.62565 22.0001 5.40218 22.2859C3.78546 24.3562 3.42016 27.0413 4.42494 29.4681C5.43087 31.8955 7.58789 33.536 10.1951 33.8565C10.5549 33.9006 10.8396 34.1848 10.8832 34.5446C11.2038 37.1518 12.8449 39.3089 15.2716 40.3148C17.6979 41.3196 20.3835 40.9554 22.4538 39.3376C22.5956 39.2255 22.7673 39.1698 22.9394 39.1698H22.9394Z" fill="#FF464D"/>
<path d="M19.9737 15.6872C19.9075 15.6872 19.8402 15.6789 19.7728 15.6618L15.39 14.5135C14.9684 14.4032 14.7157 13.9728 14.8238 13.5512L15.9572 9.14725C16.0659 8.72402 16.5024 8.46909 16.9206 8.5778C17.3439 8.68651 17.5988 9.11801 17.4901 9.54124L16.5531 13.1831L20.1741 14.131C20.5973 14.2425 20.85 14.674 20.7397 15.0967C20.6453 15.452 20.3247 15.6871 19.9738 15.6871L19.9737 15.6872Z" fill="#FF464D"/>
<path d="M30.237 33.8983C29.8121 33.8983 29.4612 33.5606 29.4474 33.1329L29.3243 29.3747L25.5832 29.4812C25.1357 29.4779 24.782 29.149 24.7698 28.7125C24.7577 28.2761 25.102 27.9113 25.5385 27.8992L30.0672 27.7712C30.5119 27.7618 30.8651 28.1012 30.88 28.5365L31.0284 33.0823C31.0433 33.5187 30.7006 33.884 30.2636 33.8978C30.2548 33.8984 30.2465 33.8984 30.2371 33.8984L30.237 33.8983Z" fill="#FF464D"/>
<path d="M32.6272 25.4608C32.5516 25.4608 32.4733 25.4497 32.3971 25.4266C31.9794 25.2991 31.7438 24.8571 31.8702 24.4394C32.1477 23.5295 32.2879 22.581 32.2879 21.6203C32.2879 16.2982 27.958 11.9683 22.6359 11.9683C20.3409 11.9683 18.1161 12.7877 16.3724 14.2764C16.0402 14.5584 15.5419 14.5214 15.2567 14.1882C14.973 13.856 15.0128 13.3561 15.3449 13.0724C17.3756 11.3403 19.9651 10.3862 22.6364 10.3862C28.8303 10.3862 33.8703 15.4264 33.8703 21.6202C33.8703 22.7365 33.7065 23.8407 33.3842 24.8996C33.2799 25.2411 32.9665 25.4607 32.6271 25.4607L32.6272 25.4608Z" fill="#FF464D"/>
<path d="M22.6373 32.8544C16.4433 32.8544 11.4033 27.8143 11.4033 21.6204C11.4033 20.1858 11.6704 18.7886 12.1974 17.4649C12.3579 17.0593 12.8192 16.8601 13.2248 17.0229C13.6304 17.1845 13.829 17.6442 13.6668 18.0503C13.2149 19.1859 12.9853 20.3872 12.9853 21.62C12.9853 26.9421 17.3152 31.272 22.6373 31.272C24.9996 31.272 27.2729 30.4101 29.0381 28.8446C29.3631 28.5549 29.8647 28.5824 30.1544 28.9119C30.4441 29.2385 30.4148 29.7385 30.0871 30.0282C28.0333 31.8507 25.3873 32.8545 22.6373 32.8545L22.6373 32.8544Z" fill="#FF464D"/>
</svg>
