<svg width="56" height="38" viewBox="0 0 56 38" fill="none" xmlns="http://www.w3.org/2000/svg">
<path d="M9.24805 35.6259V1.875H13.6232V35.6259H9.24805Z" fill="#FFEBEC"/>
<path d="M19.248 10.0002H23.6232V35.6259L19.248 35.6252V10.0002Z" fill="#FFEBEC"/>
<path d="M29.248 14.0627H33.6232V35.6258L29.248 35.6246V14.0627Z" fill="#FFEBEC"/>
<path d="M43.6232 11.875V35.6256H39.248V11.875H43.6232Z" fill="#FFEBEC"/>
<path d="M20.8105 22.1877H44.2487V23.7503H20.8105V22.1877Z" fill="#FF363D"/>
<path d="M20.8105 22.1877H44.2487V23.7503H20.8105V22.1877Z" fill="#FFB5B8"/>
<path d="M4.87305 6.87524H42.9636V8.43779H4.87305V6.87524Z" fill="#FF363D"/>
<path d="M4.87305 6.87524H42.9636V8.43779H4.87305V6.87524Z" fill="#FFB5B8"/>
<path d="M12.6865 17.188H36.1246V18.7505H12.6865V17.188Z" fill="#FF363D"/>
<path d="M12.6865 17.188H36.1246V18.7505H12.6865V17.188Z" fill="#FFB5B8"/>
<path d="M8.82227 12.0195H22.697V13.5821H8.82227V12.0195Z" fill="#FF363D"/>
<path d="M8.82227 12.0195H22.697V13.5821H8.82227V12.0195Z" fill="#FFB5B8"/>
<path d="M27.374 27.1882H44.8745V28.7508H27.374V27.1882Z" fill="#FF363D"/>
<path d="M27.374 27.1882H44.8745V28.7508H27.374V27.1882Z" fill="#FFB5B8"/>
<path d="M54.7581 37.5204L0 37.6863V0.211083L1.2445 0.185303V18.1061V36.5248L28.6235 36.2759H54.7581V37.5204Z" fill="#FF363D"/>
<path d="M54.7581 37.5204L0 37.6863V0.211083L1.2445 0.185303V18.1061V36.5248L28.6235 36.2759H54.7581V37.5204Z" fill="#FFB5B8"/>
<path d="M21.748 22.813H45.1862V24.3755H21.748V22.813Z" fill="#FF363D"/>
<path d="M21.748 22.813H45.1862V24.3755H21.748V22.813Z" fill="#FF363D"/>
<path d="M5.81055 7.50024H43.9011V9.06279H5.81055V7.50024Z" fill="#FF363D"/>
<path d="M5.81055 7.50024H43.9011V9.06279H5.81055V7.50024Z" fill="#FF363D"/>
<path d="M13.623 17.8127H37.0612V19.3753H13.623V17.8127Z" fill="#FF363D"/>
<path d="M13.623 17.8127H37.0612V19.3753H13.623V17.8127Z" fill="#FF363D"/>
<path d="M9.76074 12.6448H23.6355V14.2073H9.76074V12.6448Z" fill="#FF363D"/>
<path d="M9.76074 12.6448H23.6355V14.2073H9.76074V12.6448Z" fill="#FF363D"/>
<path d="M28.3105 27.8132H45.811V29.3758H28.3105V27.8132Z" fill="#FF363D"/>
<path d="M28.3105 27.8132H45.811V29.3758H28.3105V27.8132Z" fill="#FF363D"/>
<path d="M55.187 36.5635H1.12305V0H2.4892V8.64783V17.1104V35.0313H28.6237H55.187V36.5635Z" fill="#FF363D"/>
<path d="M55.187 36.5635H1.12305V0H2.4892V8.64783V17.1104V35.0313H28.6237H55.187V36.5635Z" fill="#FF363D"/>
</svg>
