<svg width="51" height="53" viewBox="0 0 51 53" fill="none" xmlns="http://www.w3.org/2000/svg">
<ellipse cx="25.5423" cy="26.6633" rx="23.7503" ry="23.9744" fill="#FFEBEC"/>
<path d="M16.8483 7.58756H16.847L10.559 7.57392C10.2113 7.57348 9.9301 7.29181 9.92922 6.94412L9.91602 0.63201C9.91514 0.283883 10.1968 0.000439413 10.5454 0H10.5467C10.8948 0 11.177 0.281675 11.1778 0.629802L11.1902 6.31344L16.8496 6.32576C17.1981 6.3262 17.4798 6.60963 17.4794 6.95777C17.4785 7.3059 17.1964 7.58757 16.8482 7.58757L16.8483 7.58756Z" fill="#FFEBEC"/>
<path d="M15.9538 8.4838H15.9525L9.66449 8.47016C9.3168 8.46972 9.03557 8.18805 9.03469 7.84036L9.02149 1.52825C9.02061 1.18012 9.30228 0.89668 9.65085 0.89624H9.65217C10.0003 0.89624 10.2824 1.17791 10.2833 1.52604L10.2956 7.20968L15.955 7.222C16.3036 7.22244 16.5853 7.50587 16.5848 7.85401C16.584 8.20214 16.3018 8.48381 15.9537 8.48381L15.9538 8.4838Z" fill="#FFB5B8"/>
<path d="M45.6434 40.0757C45.522 40.0757 45.3996 40.0405 45.2909 39.9679C45.0017 39.7724 44.926 39.3799 45.121 39.0916C47.7995 35.1266 49.2154 30.4913 49.2154 25.6861C49.2154 12.4654 38.4598 1.70997 25.2393 1.70997C19.5367 1.70997 14.011 3.74636 9.67955 7.44385C9.41504 7.66875 9.01718 7.63927 8.78964 7.37343C8.56342 7.10848 8.5951 6.70974 8.86006 6.48352C13.4192 2.59201 19.2358 0.448242 25.2389 0.448242C39.1548 0.448242 50.477 11.7704 50.477 25.6863C50.477 30.7437 48.9863 35.6237 46.1669 39.7982C46.045 39.9787 45.846 40.0759 45.6431 40.0759L45.6434 40.0757Z" fill="#FFB5B8"/>
<path d="M26.1355 51.3729C12.2197 51.3729 0.897461 40.0507 0.897461 26.1348C0.897461 21.0774 2.38808 16.1975 5.20754 12.0229C5.40295 11.7347 5.79333 11.6581 6.0838 11.8531C6.37296 12.0485 6.44866 12.4411 6.25369 12.7293C3.57519 16.6943 2.15926 21.3296 2.15926 26.1348C2.15926 39.3555 12.9149 50.1109 26.1354 50.1109C32.0031 50.1109 37.6503 47.9693 42.0354 44.0805C42.2955 43.849 42.6943 43.8715 42.9258 44.1342C43.1568 44.3948 43.1335 44.7935 42.8721 45.0246C38.2552 49.1181 32.3115 51.3728 26.1349 51.3728L26.1355 51.3729Z" fill="#FFB5B8"/>
<path d="M42.5807 51.3728C42.2326 51.3728 41.9504 51.0911 41.9495 50.7429L41.9377 45.0469H36.2786C35.93 45.0469 35.6475 44.7648 35.6475 44.4158C35.6475 44.0672 35.9296 43.7847 36.2786 43.7847H42.5669C42.9151 43.7847 43.1972 44.0663 43.1981 44.4145L43.2108 50.7399C43.2121 51.0889 42.9305 51.3723 42.5815 51.3728H42.5806H42.5807Z" fill="#FFB5B8"/>
<path d="M17.7013 36.7459C3.80962 25.5428 22.4712 9.11133 23.975 9.41052C25.4788 9.70972 43.2441 25.5428 30.9208 36.2977C26.102 40.5033 22.6801 40.761 17.7013 36.7459Z" fill="#FFB5B8"/>
<path d="M15.0564 9.38004H15.055L8.76703 9.3664C8.41934 9.36596 8.13811 9.08429 8.13723 8.7366L8.12403 2.42449C8.12315 2.07636 8.40482 1.79292 8.75339 1.79248H8.75471C9.10284 1.79248 9.38496 2.07416 9.38584 2.42228L9.39816 8.10592L15.0576 8.11824C15.4062 8.11868 15.6878 8.40211 15.6874 8.75025C15.6865 9.09838 15.4044 9.38005 15.0562 9.38005L15.0564 9.38004Z" fill="#FF363D"/>
<path d="M45.6434 41.4199C45.522 41.4199 45.3996 41.3847 45.2909 41.3121C45.0017 41.1167 44.926 40.7241 45.121 40.4358C47.7995 36.4709 49.2154 31.8355 49.2154 27.0304C49.2154 13.8097 38.4598 3.0542 25.2393 3.0542C19.5367 3.0542 14.011 5.0906 9.67955 8.78809C9.41504 9.01299 9.01718 8.9835 8.78964 8.71767C8.56342 8.45272 8.5951 8.05398 8.86006 7.82776C13.4192 3.93625 19.2358 1.79248 25.2389 1.79248C39.1548 1.79248 50.477 13.1147 50.477 27.0305C50.477 32.088 48.9863 36.9679 46.1669 41.1425C46.045 41.3229 45.846 41.4202 45.6431 41.4202L45.6434 41.4199Z" fill="#FF363D"/>
<path d="M25.2381 52.2691C11.3222 52.2691 0 40.9469 0 27.0311C0 21.9737 1.49062 17.0937 4.31008 12.9192C4.50549 12.6309 4.89587 12.5543 5.18634 12.7493C5.4755 12.9447 5.5512 13.3373 5.35623 13.6256C2.67772 17.5905 1.2618 22.2259 1.2618 27.031C1.2618 40.2517 12.0174 51.0072 25.238 51.0072C31.1056 51.0072 36.7528 48.8656 41.138 44.9768C41.3981 44.7453 41.7968 44.7677 42.0283 45.0304C42.2594 45.291 42.236 45.6898 41.9746 45.9208C37.3577 50.0143 31.4141 52.2691 25.2375 52.2691L25.2381 52.2691Z" fill="#FF363D"/>
<path d="M41.6832 52.269C41.3351 52.269 41.053 51.9873 41.0521 51.6392L41.0402 45.9432H35.3811C35.0326 45.9432 34.75 45.6611 34.75 45.312C34.75 44.9635 35.0321 44.6809 35.3811 44.6809H41.6695C42.0176 44.6809 42.2997 44.9626 42.3006 45.3107L42.3134 51.6361C42.3147 51.9851 42.033 52.2686 41.684 52.269H41.6831H41.6832Z" fill="#FF363D"/>
<path d="M25.2386 44.692C24.89 44.692 24.6074 44.4099 24.6074 44.0609V20.7866C24.6074 20.4381 24.8895 20.1555 25.2386 20.1555C25.5871 20.1555 25.8697 20.4376 25.8697 20.7866V44.062C25.8697 44.4106 25.5871 44.6927 25.2386 44.6927V44.692Z" fill="#FF363D"/>
<path d="M25.2384 34.5066C22.7936 34.5066 20.519 33.2871 19.1552 31.2454C18.9615 30.9553 19.0398 30.5641 19.3294 30.37C19.6195 30.1772 20.0107 30.2556 20.2048 30.5443C21.3338 32.2357 23.2157 33.2449 25.2385 33.2449C27.2612 33.2449 29.1432 32.2357 30.2721 30.5443C30.4658 30.2551 30.8561 30.1772 31.1475 30.37C31.4371 30.5641 31.5154 30.9553 31.3218 31.2454C29.9579 33.2875 27.6833 34.5066 25.2385 34.5066H25.2384Z" fill="#FF363D"/>
<path d="M25.2378 26.6366C23.4835 26.6366 21.8533 25.7621 20.8749 24.2982C20.6812 24.0082 20.7596 23.6169 21.0492 23.4229C21.3401 23.2292 21.7305 23.3084 21.9246 23.5971C22.6679 24.7106 23.9064 25.3747 25.2377 25.3747C26.569 25.3747 27.8076 24.7106 28.5509 23.5971C28.7446 23.308 29.1349 23.2292 29.4263 23.4229C29.7159 23.617 29.7942 24.0082 29.6006 24.2982C28.6222 25.7625 26.992 26.6366 25.2377 26.6366H25.2378Z" fill="#FF363D"/>
<path d="M25.2386 40.9422C18.3156 40.9422 12.6826 35.3091 12.6826 28.3862C12.6826 19.4276 24.3462 9.9106 24.8431 9.5095C25.0737 9.32333 25.4051 9.32333 25.6353 9.5095C26.1317 9.91044 37.7958 19.427 37.7958 28.3862C37.7958 35.3092 32.1627 40.9422 25.2398 40.9422H25.2386ZM25.2386 10.8244C23.1942 12.576 13.9445 20.9166 13.9445 28.3851C13.9445 34.6127 19.0112 39.6791 25.2386 39.6791C31.4659 39.6791 36.5326 34.6125 36.5326 28.3851C36.5326 20.9106 27.284 12.5752 25.2386 10.8244Z" fill="#FF363D"/>
</svg>
