<svg width="90" height="74" viewBox="0 0 90 74" fill="none" xmlns="http://www.w3.org/2000/svg">
<path d="M75.9466 62.6019L76.1714 63.6379H76.2164L76.3977 63.4064C76.4397 63.5026 76.5476 63.6048 76.4547 63.7567C76.4458 63.7877 76.4458 63.8205 76.4547 63.8514C76.4667 63.9116 76.4832 63.9717 76.5071 64.068L76.5866 63.868L76.6465 63.895L76.7859 64.2514L76.8099 64.1627C76.8294 64.1702 76.8443 64.1717 76.8518 64.1807C76.8893 64.2288 76.9238 64.28 76.9613 64.3311C77.1137 64.5162 77.3257 64.6422 77.5607 64.6874C77.7631 64.7446 77.9774 64.7656 78.1857 64.8032C78.2037 64.8032 78.2321 64.8032 78.2396 64.8168C78.257 64.8464 78.2814 64.8713 78.3107 64.8891C78.34 64.907 78.3733 64.9172 78.4075 64.919C78.4734 64.919 78.5334 65.0137 78.6053 64.919C78.6133 64.9145 78.6224 64.9122 78.6315 64.9122C78.6407 64.9122 78.6498 64.9145 78.6578 64.919C78.7882 65.0107 78.8316 64.919 78.8721 64.8258L79.0774 64.8904L79.1388 64.5205C79.2108 64.6243 79.2602 64.6168 79.2977 64.4905C79.3285 64.397 79.364 64.3051 79.4041 64.2153L79.512 64.4183C79.5699 64.364 79.6156 64.298 79.646 64.2246C79.6765 64.1512 79.6911 64.0722 79.6889 63.9928C79.6889 63.8605 79.6979 63.8605 79.8387 63.8755C79.7803 63.7763 79.7533 63.6921 79.8552 63.5958C79.8942 63.5597 79.8552 63.456 79.8822 63.3898C79.9302 63.2289 79.9137 63.0545 80.0321 62.9042C80.0845 62.8395 80.0321 62.6922 80.0321 62.5839C80.0216 62.3433 80.0141 62.1042 79.9991 61.8652C79.9916 61.7283 79.9676 61.5915 79.9586 61.4547C79.9586 61.366 79.9586 61.2757 79.9586 61.1855L80.0201 61.175C80.08 61.3254 80.1415 61.4667 80.1999 61.6126C80.3903 62.0907 80.6061 62.5598 80.7649 63.047C81.0737 63.9898 81.5143 64.8754 81.8994 65.7836C82.0493 66.1249 82.1422 66.4873 82.2651 66.8361C82.2951 66.9233 82.2651 66.9744 82.1962 67.0331C82.1173 67.094 82.0553 67.1742 82.0163 67.2661C81.9489 67.5082 81.7166 67.5864 81.5787 67.7623C81.5607 67.7849 81.5008 67.7714 81.4723 67.7909C81.4184 67.8285 81.3449 67.8721 81.3344 67.9232C81.3362 67.9544 81.346 67.9847 81.3628 68.011C81.3796 68.0374 81.4028 68.0589 81.4304 68.0736C81.514 68.1039 81.6048 68.1086 81.6911 68.0871C81.822 68.0424 81.9489 67.9866 82.0703 67.9202C82.3041 67.8059 82.5334 67.6796 82.7732 67.5789C82.8535 67.5531 82.9408 67.5601 83.016 67.5984C83.1928 67.6902 83.2393 67.6811 83.3442 67.5203C83.3649 67.5035 83.3897 67.4925 83.4161 67.4886C83.4424 67.4846 83.4693 67.4878 83.4941 67.4977C83.5593 67.5533 83.6394 67.5885 83.7243 67.5989C83.8093 67.6094 83.8955 67.5946 83.9721 67.5563C84.0501 67.5187 84.167 67.5654 84.2719 67.5563C84.3238 67.5473 84.3742 67.5311 84.4218 67.5082C84.3903 67.4676 84.3648 67.412 84.3228 67.3879C84.0857 67.2745 83.8733 67.1151 83.6979 66.9188C83.635 66.8404 83.557 66.7755 83.4686 66.7278C83.4031 66.6947 83.3471 66.6455 83.3057 66.5847C83.2643 66.524 83.2388 66.4538 83.2318 66.3805C83.1419 65.8197 83.031 65.2603 82.944 64.6995C82.8762 64.2018 82.7369 63.7166 82.5304 63.259C82.361 62.8966 82.2441 62.5072 82.0988 62.1373C82.0208 61.9373 81.9309 61.7419 81.8545 61.5359C81.8267 61.4768 81.8188 61.4103 81.832 61.3464C81.86 61.2525 81.867 61.1535 81.8525 61.0566C81.838 60.9596 81.8023 60.8671 81.7481 60.7856C81.6132 60.5284 81.4843 60.2668 81.3644 60.0022C81.338 59.9202 81.3273 59.834 81.3329 59.7481C81.3326 59.4307 81.2387 59.1205 81.0632 58.8564C81.0204 58.7931 80.9918 58.7213 80.9793 58.6459C80.9048 58.1976 80.7739 57.7605 80.5896 57.3453C80.5089 57.1513 80.4623 56.9448 80.4517 56.7348C80.4382 56.2973 80.4292 55.8537 80.2479 55.4402C80.1832 55.3177 80.1276 55.1905 80.0815 55.0598C80.004 54.8351 79.9537 54.6019 79.9317 54.3651C79.9184 53.4202 79.7097 52.4883 79.3187 51.6286C79.3066 51.6121 79.298 51.5933 79.2934 51.5734C79.2889 51.5534 79.2884 51.5328 79.292 51.5126C79.2957 51.4925 79.3034 51.4733 79.3147 51.4563C79.3259 51.4393 79.3406 51.4247 79.3577 51.4135C79.5597 51.2647 79.7703 51.1281 79.9886 51.0046C80.1621 50.9247 80.3088 50.7962 80.4112 50.6347C80.4562 50.561 80.5027 50.4843 80.5536 50.4196C80.5805 50.3744 80.6187 50.3371 80.6645 50.3114C80.9208 50.2061 81.1771 50.1039 81.4379 50.0107C81.5088 49.9874 81.5685 49.9385 81.6053 49.8734C81.6422 49.8084 81.6535 49.7318 81.6372 49.6588C81.6373 49.6341 81.6435 49.6097 81.6553 49.5879C81.6671 49.5662 81.684 49.5476 81.7046 49.534C81.9264 49.3942 82.1542 49.2694 82.376 49.1265C82.4551 49.0905 82.5221 49.0323 82.5689 48.9589C82.6157 48.8856 82.6403 48.8002 82.6398 48.713C82.6398 48.683 82.6908 48.6394 82.7267 48.6168C82.8286 48.5537 82.9335 48.498 83.037 48.4394C83.1318 48.3918 83.2068 48.3122 83.2487 48.2145C83.2907 48.1168 83.2969 48.0074 83.2663 47.9056C83.2333 47.7552 83.1808 47.6049 83.1479 47.4635C83.1427 47.4406 83.1424 47.4168 83.1471 47.3937C83.1517 47.3707 83.1612 47.3489 83.1748 47.3297C84.0764 46.5531 84.8783 45.6673 85.5623 44.6924C85.7331 44.4428 85.9999 44.3075 86.2157 44.112C86.2831 44.0503 86.427 44.0684 86.5379 44.0609C86.7767 44.0272 87.0178 44.0136 87.2588 44.0203C87.5615 44.0574 87.8618 44.1127 88.158 44.1857C88.3619 44.243 88.58 44.2204 88.768 44.1225C88.7767 44.1174 88.7857 44.1129 88.7949 44.109C89.1576 43.9586 89.2281 43.8338 89.1771 43.4429C89.1325 43.1634 88.9949 42.9072 88.7867 42.7161C88.5786 42.525 88.3121 42.4102 88.0306 42.3903C87.5203 42.3672 87.0158 42.272 86.5319 42.1077C85.9414 41.9047 85.9744 41.9738 85.6117 42.443C85.5143 42.566 85.4285 42.6979 85.3554 42.8369C85.2745 42.9873 85.2161 43.1557 85.1501 43.3181C85.0942 43.5115 84.982 43.6837 84.8279 43.8128C84.3993 44.1135 83.9751 44.4142 83.539 44.6909C82.967 45.0644 82.4551 45.5233 82.0208 46.0516C81.9759 46.1058 81.889 46.1208 81.8215 46.1554C81.7046 46.2007 81.5934 46.2597 81.4903 46.3313C81.3399 46.4615 81.1755 46.5745 81.0002 46.6681C80.7728 46.7898 80.5626 46.9415 80.3753 47.1192C80.0127 47.4656 79.5874 47.7392 79.1224 47.9251C78.8361 48.0422 78.5685 48.2008 78.3281 48.3958C78.0357 48.6075 77.7314 48.8023 77.4169 48.9792C76.9867 49.2634 76.5596 49.5506 76.14 49.8483C75.9876 49.9576 75.8023 50.0107 75.6154 49.9986C75.2258 49.9851 74.8361 49.958 74.4449 49.949C73.7479 49.9275 73.0514 50.0065 72.3767 50.1836C72.0152 50.2882 71.6393 50.3344 71.2632 50.3204C71.0984 50.3129 70.932 50.3685 70.7671 50.364C70.5733 50.3547 70.3805 50.331 70.1901 50.2933C69.8672 50.2359 69.5394 50.2107 69.2115 50.2182C68.9492 50.2182 68.6959 50.2723 68.4382 50.2888C68.3396 50.297 68.2404 50.2837 68.1474 50.2497C67.4746 50.0045 66.765 49.8763 66.0492 49.8708C65.3673 49.8558 64.6854 49.8708 64.0035 49.8543C63.8987 49.8368 63.7975 49.8022 63.7038 49.752C63.6558 49.734 63.6079 49.7099 63.5614 49.6874C63.5316 49.675 63.5039 49.6583 63.479 49.6378C63.3771 49.5355 63.2767 49.4318 63.1792 49.328C63.1208 49.2664 63.0713 49.1957 63.0084 49.1401C62.8798 49.002 62.7319 48.8835 62.5693 48.7882C62.4405 48.7659 62.308 48.7893 62.1946 48.8544C61.8949 48.9762 61.6236 49.1401 61.3254 49.2468C61.1291 49.2973 60.9282 49.3275 60.7259 49.337C60.3453 49.378 59.9792 49.5061 59.6558 49.7114C59.4253 49.8537 59.2539 50.0748 59.1732 50.3339C59.0234 50.8422 59.2437 51.1128 59.7727 51.2963C60.2808 51.4722 60.7349 51.2737 61.1965 51.1023C61.3463 51.0482 61.5097 51.0301 61.6551 50.9685C61.8584 50.906 62.069 50.8706 62.2815 50.8632C62.5462 50.8273 62.8152 50.839 63.0758 50.8978C63.3291 50.9519 63.6004 50.9279 63.8507 50.9925C64.3003 51.1113 64.7499 51.2932 65.1995 51.4075C65.8214 51.5669 66.4494 51.7082 67.0788 51.827C67.3947 51.872 67.7131 51.8966 68.032 51.9007C68.2418 51.9142 68.2568 51.9248 68.2718 52.1308C68.2823 52.2811 68.3018 52.4315 68.3093 52.5818C68.3076 52.6476 68.3316 52.7114 68.3761 52.7597C68.4206 52.808 68.4821 52.837 68.5476 52.8405C68.8128 52.8886 69.0781 52.9668 69.3524 52.8886C69.3887 52.8757 69.4284 52.8757 69.4648 52.8886C69.7735 53.0389 70.1047 53.0254 70.4329 53.0179C70.5274 53.0179 70.5918 53.0359 70.6113 53.1367C70.6308 53.2374 70.6877 53.2374 70.7611 53.2314C70.9374 53.2215 71.1129 53.2024 71.2872 53.1743C71.4699 53.1411 71.6582 53.1572 71.8327 53.2209C72.4719 53.4486 73.1508 53.5422 73.8275 53.496C73.8548 53.4987 73.8813 53.5071 73.905 53.5209C73.9288 53.5346 73.9494 53.5533 73.9654 53.5757C74.0643 53.7141 74.1497 53.8629 74.2471 54.0028C74.3445 54.1426 74.4314 54.2463 74.5229 54.3681C74.7327 54.6538 74.7042 54.9696 74.6413 55.2899C74.5918 55.5485 74.5259 55.8041 74.4914 56.0642C74.4607 56.2761 74.4607 56.4914 74.4914 56.7033C74.5208 56.9152 74.5117 57.1307 74.4644 57.3393C74.352 57.9407 74.2336 58.5301 74.1392 59.1286C74.129 59.3147 74.1345 59.5013 74.1557 59.6864C74.1557 59.8368 74.1467 59.9871 74.1557 60.1375C74.1557 60.3841 74.1167 60.6442 74.1842 60.8728C74.2936 61.2472 74.2351 61.5975 74.1707 61.9599C74.1287 62.1945 74.0583 62.4305 74.1542 62.6801C74.1887 62.7718 74.1257 62.9012 74.1152 63.0154C74.0741 63.3181 74.0501 63.6228 74.0433 63.9281C74.0471 64.2331 74.0067 64.537 73.9234 64.8303C73.7735 65.3641 73.826 65.9129 73.8515 66.4572C73.8709 66.8767 73.9084 67.2962 73.9294 67.7157C73.9354 67.8737 73.9309 68.032 73.9159 68.1894C73.9083 68.2387 73.8839 68.2838 73.847 68.3172C73.742 68.4209 73.6296 68.5171 73.5202 68.6179C73.4708 68.6666 73.4119 68.7044 73.3471 68.729C73.2824 68.7536 73.2132 68.7644 73.1441 68.7607C73.0751 68.7607 72.9717 68.7186 72.9612 68.8344C72.9507 68.9502 73.0512 68.9848 73.1381 68.9758C73.5023 68.9667 73.8649 68.9472 74.2276 68.9382C74.3385 68.9382 74.4509 68.9637 74.5618 68.9727C74.7191 68.9954 74.8781 69.004 75.0369 68.9983C75.3771 68.9637 75.7158 68.9096 76.0515 68.8479C76.1421 68.8355 76.2259 68.7931 76.2898 68.7277C76.3079 68.7044 76.3188 68.6764 76.3211 68.647C76.3234 68.6176 76.317 68.5882 76.3028 68.5624C76.2886 68.5366 76.2672 68.5156 76.2411 68.5019C76.2151 68.4883 76.1857 68.4826 76.1565 68.4856C75.7968 68.5006 75.4715 68.3442 75.1298 68.2811C75.1118 68.2789 75.0944 68.2729 75.079 68.2634C75.0635 68.2539 75.0502 68.2411 75.0401 68.226C75.03 68.2108 75.0233 68.1936 75.0204 68.1757C75.0175 68.1577 75.0186 68.1393 75.0234 68.1217C75.1433 67.2767 75.1733 66.4166 75.3966 65.5881C75.5382 65.011 75.622 64.4212 75.6469 63.8274C75.6671 63.556 75.7077 63.2866 75.7683 63.0214C75.8147 62.8764 75.8744 62.7359 75.9466 62.6019ZM79.2797 60.2503L79.2647 60.2668C79.1508 60.1886 79.0354 60.1165 78.923 60.0308C78.8995 60.0084 78.8788 59.9831 78.8616 59.9556C78.8991 59.9556 78.9515 59.93 78.971 59.9465C79.0744 60.0428 79.1733 60.1435 79.2752 60.2503H79.2797ZM76.3228 63.238L76.2793 63.25L76.2419 62.9808L76.3003 62.9733L76.3228 63.238Z" fill="#191558"/>
<path d="M36.495 38.5461C34.2756 38.6539 33.6561 36.7309 33.6561 36.7309C36.3626 36.2603 36.495 38.5461 36.495 38.5461ZM34.3411 38.6305C34.3411 38.6305 34.2436 40.6535 36.3519 41.3758C36.3519 41.3758 37.0323 39.1964 34.3487 38.6305H34.3411ZM32.2587 40.7692C32.2587 40.7692 32.1613 42.7923 34.268 43.5146C34.268 43.5224 34.9484 41.3336 32.2587 40.7692ZM31.563 41.8746C31.563 41.8746 30.5888 43.6365 32.1552 45.2562C32.1552 45.2562 33.717 43.624 31.563 41.8746ZM32.8417 37.3625C32.8417 37.3625 31.9284 39.1573 33.5495 40.7208C33.5495 40.7208 35.055 39.0323 32.8417 37.3625ZM59.0755 41.8964C59.0755 41.8964 59.695 43.8194 61.9159 43.7116C61.9159 43.7053 61.7835 41.4196 59.0755 41.8902V41.8964ZM59.7696 43.7882C59.7696 43.7882 59.6706 45.8112 61.7789 46.5351C61.7713 46.5351 62.4517 44.3541 59.7696 43.7882ZM73.2533 31.0276C73.2533 31.0276 73.8729 32.9506 76.0922 32.8427C76.0846 32.8427 75.9537 30.557 73.2457 31.0276H73.2533ZM73.9383 32.9256C73.9383 32.9256 73.8409 34.9486 75.9492 35.6725C75.9416 35.6725 76.622 33.4915 73.9261 32.9256H73.9383ZM61.1655 39.7514C61.1655 39.7514 61.785 41.6744 64.0059 41.5666C63.9983 41.5666 63.8659 39.2809 61.1578 39.7514H61.1655ZM61.8444 41.6463C61.8444 41.6463 61.7485 43.6787 63.8537 44.3948C63.8537 44.3948 64.5341 42.2154 61.8444 41.6463ZM58.2626 42.5218C58.2626 42.5218 57.3493 44.3166 58.9689 45.8785C58.9689 45.8785 60.4759 44.1915 58.2626 42.5218ZM70.8361 32.9568C70.8361 32.9568 71.4556 34.8798 73.6765 34.772C73.6765 34.7673 73.5441 32.4863 70.8361 32.9568ZM71.5226 34.8548C71.5226 34.8548 71.4251 36.8779 73.5319 37.6017C73.5319 37.6017 74.2123 35.4208 71.5226 34.8548ZM70.0232 33.5885C70.0232 33.5885 69.1099 35.3833 70.7295 36.9451C70.7295 36.9451 72.2365 35.2582 70.0232 33.5885ZM68.6639 34.9846C68.6639 34.9846 67.507 37.2562 69.5589 39.2355C69.5589 39.2355 71.4663 37.0983 68.6639 34.9846ZM62.3832 19.6819C62.3832 19.6819 63.0028 21.6049 65.2237 21.497C65.2237 21.497 65.0973 19.2113 62.3832 19.6819ZM63.0682 21.5815C63.0682 21.5815 62.9708 23.6045 65.0791 24.3268C65.0791 24.3268 65.7595 22.1474 63.0682 21.5815ZM61.5704 20.3135C61.5704 20.3135 60.657 22.1083 62.2767 23.6717C62.2767 23.667 63.7837 21.9832 61.5704 20.3135ZM57.8135 10.797C57.8135 10.797 58.7269 12.5934 60.8975 12.1259C60.8975 12.1259 60.415 9.89025 57.8135 10.797ZM58.7847 12.5668C58.7847 12.5668 59.0009 14.5805 61.1929 14.951C61.1929 14.9432 61.5277 12.6794 58.7847 12.5668ZM57.1103 11.56C57.1103 11.56 56.4862 13.4814 58.3281 14.7603C58.325 14.7556 59.5519 12.8404 57.1088 11.5522L57.1103 11.56ZM39.2548 19.2551C39.687 19.4247 40.1613 19.4452 40.6059 19.3135C41.0505 19.1818 41.4413 18.905 41.7192 18.525C41.7192 18.525 40.3812 17.4212 39.2532 19.2473L39.2548 19.2551ZM40.6598 19.8273C41.003 20.1458 41.4379 20.341 41.8987 20.3833C42.3595 20.4256 42.8212 20.3128 43.214 20.0618C43.214 20.0618 42.3525 18.5359 40.6582 19.8195L40.6598 19.8273ZM39.1878 20.054C39.3699 20.4907 39.6853 20.8546 40.0865 21.091C40.4877 21.3273 40.9528 21.4232 41.4117 21.3641C41.4117 21.3641 41.2473 19.6022 39.1863 20.0462L39.1878 20.054ZM40.6445 12.2369C40.5371 11.7742 40.2859 11.36 39.9288 11.0571C39.5718 10.7541 39.1284 10.5788 38.6657 10.5578C38.6657 10.5578 38.5393 12.2948 40.643 12.2229L40.6445 12.2369ZM40.3142 10.7235C40.3806 10.251 40.2947 9.76913 40.0696 9.35138C39.8445 8.93364 39.4926 8.60295 39.0675 8.4097C39.0675 8.4097 38.3247 9.995 40.3127 10.7095L40.3142 10.7235ZM41.325 11.8445C41.5735 11.444 41.6885 10.9713 41.6525 10.4978C41.6166 10.0243 41.4316 9.57562 41.1256 9.21954C41.1256 9.21954 39.8104 10.328 41.3234 11.8304L41.325 11.8445ZM43.1775 10.7548C43.6098 10.9244 44.084 10.9449 44.5286 10.8132C44.9733 10.6815 45.364 10.4047 45.642 10.0247C45.642 10.0247 44.3024 8.92875 43.1775 10.7548ZM44.5825 11.327C44.9258 11.645 45.3605 11.8396 45.821 11.8816C46.2814 11.9237 46.7427 11.8108 47.1352 11.56C47.1352 11.56 46.2722 10.0435 44.5779 11.327H44.5825ZM43.1105 11.5537C43.2926 11.9904 43.608 12.3543 44.0092 12.5907C44.4104 12.827 44.8756 12.9229 45.3345 12.8639C45.3345 12.8639 45.1685 11.116 43.106 11.5537H43.1105ZM45.0178 15.5029C45.4732 15.4184 45.8894 15.184 46.2035 14.8351C46.5177 14.4862 46.7128 14.0418 46.7593 13.569C46.7593 13.569 45.0605 13.3485 45.0133 15.5029H45.0178ZM46.5081 14.9964C46.9622 15.0858 47.4322 15.0212 47.8474 14.8122C48.2626 14.6032 48.6003 14.2613 48.8097 13.8379C48.8097 13.8379 47.3073 12.9967 46.5035 14.9964H46.5081ZM45.3634 16.2236C45.7394 16.5004 46.1928 16.6439 46.6553 16.6326C47.1177 16.6213 47.564 16.4558 47.9268 16.1611C47.9268 16.1611 46.9023 14.7556 45.3588 16.2236H45.3634ZM49.9209 21.9911C49.7652 21.6009 49.4902 21.2732 49.1374 21.0575C48.7846 20.8418 48.3731 20.7497 47.9649 20.7951C47.9649 20.7951 48.0805 22.3491 49.9163 21.9911H49.9209ZM49.3638 20.5402C49.3552 20.0647 49.196 19.605 48.9104 19.2307C48.6247 18.8564 48.2282 18.5878 47.7807 18.4656C47.7807 18.4656 47.2875 20.1494 49.3638 20.5402ZM50.5298 21.4876C50.7154 21.0526 50.7582 20.5673 50.6516 20.105C50.5451 19.6428 50.295 19.2287 49.9392 18.9252C49.9392 18.9252 48.8097 20.2432 50.5298 21.4892V21.4876ZM28.5491 12.1259C28.3165 12.5367 28.2204 13.0142 28.2753 13.486C28.3302 13.9579 28.5332 14.3986 28.8535 14.7415C28.8535 14.7415 30.123 13.5611 28.5491 12.1259ZM25.7771 11.2661C25.4166 11.5634 25.16 11.9731 25.046 12.4333C24.932 12.8936 24.9669 13.3794 25.1454 13.8175C25.1454 13.8175 26.7376 13.1922 25.7771 11.2661ZM25.7862 11.2973C25.3446 11.1555 24.8701 11.1651 24.4342 11.3247C23.9984 11.4844 23.625 11.7854 23.3705 12.1822C23.3705 12.1822 24.7694 13.1922 25.7862 11.2973ZM18.504 16.0485C18.9168 15.8337 19.2503 15.4866 19.4541 15.0599C19.6578 14.6331 19.7208 14.1499 19.6335 13.6831C19.6335 13.6831 17.9469 13.9614 18.504 16.0485ZM19.7842 14.9776C20.2471 14.9565 20.6907 14.781 21.0477 14.4777C21.4048 14.1745 21.6559 13.7599 21.763 13.2969C21.763 13.2969 20.1084 12.8404 19.7842 14.9776ZM17.6713 14.779C17.6301 14.3057 17.4399 13.8589 17.1296 13.5064C16.8193 13.1538 16.4057 12.9145 15.9512 12.8248C15.9512 12.8248 15.5798 14.5383 17.6713 14.779ZM18.4994 16.0157C18.903 16.2477 19.3692 16.3386 19.8275 16.2746C20.2858 16.2105 20.7114 15.9951 21.04 15.6608C21.04 15.6608 19.8755 14.3788 18.4994 16.0157ZM18.3548 19.3723C17.8979 19.2915 17.4277 19.3658 17.0156 19.5842C16.6036 19.8026 16.2721 20.1531 16.0715 20.5824C16.0715 20.5824 17.5952 21.3892 18.3548 19.3723ZM16.7047 19.4505C16.3204 19.1861 15.8628 19.0572 15.4009 19.0835C14.939 19.1097 14.498 19.2896 14.1444 19.5959C14.1444 19.5959 15.2084 20.9702 16.7047 19.4458V19.4505ZM18.3381 19.3989C18.3381 19.3989 17.7855 17.9559 16.0898 18.1326C16.0898 18.1326 16.2846 19.8773 18.3381 19.3989ZM19.1464 16.7411C19.2602 17.2018 19.5169 17.6119 19.8778 17.9095C20.2386 18.2071 20.684 18.3759 21.1465 18.3905C21.1465 18.3905 21.2577 16.6411 19.1464 16.7443V16.7411ZM23.1924 14.3428C23.3061 14.8033 23.5627 15.2132 23.9232 15.5108C24.2838 15.8083 24.7288 15.9773 25.1911 15.9922C25.1911 15.9922 25.2961 14.2428 23.1924 14.346V14.3428ZM27.791 11.9274C27.3422 12.0424 26.9421 12.3043 26.651 12.6735C26.36 13.0427 26.1937 13.4991 26.1775 13.9739C26.1775 13.9739 27.8823 14.0911 27.791 11.9305V11.9274ZM28.7987 43.6944C28.7987 43.6944 28.7393 45.719 30.8613 46.3975C30.8613 46.4006 31.4991 44.2072 28.7987 43.6975V43.6944ZM27.9387 45.3985C27.9387 45.3985 26.5489 46.8353 27.6464 48.8192C27.651 48.8208 29.572 47.667 27.9387 45.3985ZM27.1684 45.1139C27.1684 45.1139 25.2002 44.9826 24.4634 47.1354C24.4634 47.137 26.5763 47.8702 27.1684 45.1155V45.1139ZM27.6251 44.315C27.6251 44.315 26.3799 42.7438 24.3432 43.6553C24.3447 43.6568 25.2596 45.7456 27.6266 44.3166L27.6251 44.315ZM28.1457 42.0497C28.1457 42.0497 26.9005 40.4862 24.8638 41.3915C24.8653 41.393 25.7802 43.4802 28.1472 42.0512L28.1457 42.0497ZM29.9617 40.6113C29.6586 40.2661 29.2544 40.0315 28.8101 39.9429C28.3658 39.8544 27.9055 39.9167 27.4987 40.1204C27.4987 40.1204 28.1868 41.6854 29.9632 40.6129L29.9617 40.6113ZM30.7304 39.8531C30.7304 39.8531 30.4533 37.7628 28.1609 37.4376C28.1624 37.4391 27.8717 39.8046 30.7319 39.8546L30.7304 39.8531ZM30.6543 38.2787C30.6543 38.2787 31.321 36.2822 29.4121 34.9361C29.4137 34.9377 28.1228 36.917 30.6558 38.2803L30.6543 38.2787ZM27.8671 36.6027C27.8671 36.6027 28.377 35.0721 26.9142 34.0387C26.9157 34.0403 25.9248 35.5599 27.8686 36.6043L27.8671 36.6027ZM27.686 38.7321C27.8185 38.2578 27.7978 37.7521 27.6268 37.2909C27.4558 36.8297 27.1438 36.438 26.7376 36.1744C26.7376 36.1744 25.7436 37.6877 27.6875 38.7337L27.686 38.7321ZM25.4331 37.4438C25.4331 37.4438 26.8533 36.1134 25.8776 34.1278C25.8791 34.1294 23.952 35.1566 25.4346 37.4454L25.4331 37.4438ZM22.684 35.3176C22.684 35.3176 24.5791 35.6459 25.5016 33.6354C25.5031 33.6369 23.5273 32.7098 22.6855 35.3192L22.684 35.3176ZM20.4007 34.7032C20.4007 34.7032 19.3747 36.3729 20.8284 38.0223C20.8269 38.0239 22.4191 36.5074 20.3991 34.7047L20.4007 34.7032ZM17.9986 36.7356C17.9986 36.7356 17.8723 38.704 19.9151 39.4419C19.9136 39.4403 20.6092 37.3266 17.9971 36.7341L17.9986 36.7356ZM16.4855 39.1652C16.4855 39.1652 17.5024 40.8396 19.5802 40.2158C19.5832 40.2142 18.9454 38.0802 16.484 39.1636L16.4855 39.1652ZM17.4126 41.7948C17.4126 41.7948 18.8282 43.13 20.667 41.9512C20.6655 41.959 19.4995 40.0829 17.411 41.7933L17.4126 41.7948ZM17.3654 42.7454C17.3654 42.7454 17.6698 44.6934 19.8268 44.9342C19.8253 44.9373 20.0399 42.7188 17.3639 42.7407L17.3654 42.7454ZM16.8296 43.538C16.8296 43.538 15.9832 45.0577 17.3349 46.4632C17.3334 46.4616 18.6882 45.053 16.828 43.5365L16.8296 43.538ZM15.0029 45.1452C15.0029 45.1452 14.1566 46.6664 15.5083 48.0704C15.5037 48.0688 16.8585 46.6617 14.9983 45.1437L15.0029 45.1452ZM14.289 46.4131C13.9478 46.5968 13.674 46.8897 13.5093 47.2473C13.3445 47.605 13.2976 48.0081 13.3757 48.3956C13.3757 48.3956 14.7715 48.1423 14.2844 46.4116L14.289 46.4131ZM14.703 44.5761C14.703 44.5761 12.9966 44.598 12.5034 46.5069C12.4989 46.5054 14.3681 46.9916 14.6985 44.5746L14.703 44.5761ZM15.7001 42.6375C15.7001 42.6375 15.2434 40.9506 13.3193 40.9506C13.3148 40.949 13.3422 42.9283 15.6955 42.6359L15.7001 42.6375ZM13.6634 43.9523C13.6634 43.9523 14.6071 42.4937 13.3498 40.999C13.3422 40.9975 11.9006 42.3076 13.6588 43.9508L13.6634 43.9523ZM10.1927 45.794C10.1927 45.794 11.1365 44.3354 9.87915 42.8407C9.87458 42.8392 8.43 44.1478 10.1882 45.7925L10.1927 45.794ZM7.74653 45.6783C7.74653 45.6783 9.29005 44.9295 8.9643 42.983C8.96125 42.9814 7.06458 43.3379 7.74196 45.6768L7.74653 45.6783ZM5.76765 43.9773C5.76765 43.9773 7.45274 44.2463 8.24734 42.4483C8.24125 42.4468 6.47701 41.6463 5.76157 43.9758L5.76765 43.9773ZM6.73578 40.9803C6.73578 40.9803 7.5867 42.4999 9.44988 42.0121C9.44379 42.0106 8.94603 40.097 6.72969 40.9787L6.73578 40.9803ZM8.98865 38.779C8.98865 38.779 8.19863 40.3315 9.59754 41.6823C9.59449 41.6807 10.8975 40.222 8.98256 38.7774L8.98865 38.779ZM12.4669 37.139C12.4669 37.139 11.0969 38.1943 11.8093 40.0329C11.8032 40.0313 13.5888 39.2855 12.4608 37.1374L12.4669 37.139ZM15.7777 33.1898C15.7777 33.1898 14.4153 34.2451 15.1201 36.0837C15.1262 36.0837 16.9118 35.3379 15.7777 33.1898ZM15.0166 32.8912C15.0166 32.8912 13.3209 33.085 13.0119 35.0331C13.0119 35.0331 14.9177 35.3285 15.0166 32.8912ZM10.1455 33.8965C10.1455 33.8965 8.44979 34.0919 8.14078 36.0399C8.1423 36.0399 10.0481 36.3307 10.1455 33.8965ZM10.0664 33.9387C10.0664 33.9387 8.4848 33.2805 7.31118 34.8439C7.3127 34.8439 8.85318 36.0352 10.0679 33.9387H10.0664ZM8.23973 32.6958C8.23973 32.6958 6.65815 32.0376 5.48452 33.601C5.49061 33.601 7.02957 34.7923 8.24581 32.6958H8.23973ZM6.93215 30.0942C6.48838 30.1746 6.08213 30.4011 5.77482 30.7396C5.46751 31.078 5.27584 31.5101 5.22879 31.9703C5.22879 31.9703 6.88191 32.2002 6.93824 30.0942H6.93215ZM6.73426 29.7816C6.73426 29.7816 5.28512 28.5168 3.51022 29.7487C3.51631 29.7425 4.73864 31.5576 6.74035 29.7753L6.73426 29.7816ZM4.26067 27.5756C4.26067 27.5756 2.36856 27.3833 1.59375 29.436C1.59375 29.4282 3.60003 30.2037 4.26067 27.5756ZM6.55464 23.5107C6.55464 23.5107 4.80562 24.2752 5.08418 26.4577C5.08418 26.4468 7.21071 26.1357 6.55464 23.4998V23.5107ZM2.55427 23.5107C2.55427 23.5107 2.48425 25.4634 4.53314 26.131C4.52705 26.1185 5.15573 24.0094 2.55427 23.4982V23.5107ZM0.484063 26.9393C0.484063 26.9393 1.85405 28.2901 3.70202 27.1675C3.70202 27.155 2.58471 25.2695 0.484063 26.9268V26.9393ZM0 25.3071C0.339093 25.6168 0.767124 25.8048 1.21942 25.8426C1.67172 25.8803 2.1237 25.7659 2.50708 25.5166C2.50708 25.5166 1.65312 24.0235 0 25.2946V25.3071ZM6.32174 26.9064C6.77509 26.8892 7.21068 26.721 7.56273 26.4271C7.91477 26.1332 8.16416 25.7296 8.27321 25.2774C8.27321 25.2774 6.65967 24.8005 6.32174 26.8939V26.9064ZM8.00531 28.6356C8.45866 28.6184 8.89425 28.4501 9.24629 28.1562C9.59834 27.8623 9.84772 27.4588 9.95678 27.0065C9.95678 27.0065 8.34324 26.5312 8.00531 28.6231V28.6356ZM8.66138 29.583C8.66138 29.583 10.1988 30.5382 11.6738 29.114C11.6677 29.1015 10.2673 27.5975 8.66138 29.5705V29.583ZM13.3544 30.5461C13.3544 30.5461 14.9572 29.7128 14.5615 27.6725C14.5599 27.6741 12.5811 28.104 13.3544 30.5461ZM19.1007 32.333C19.1007 32.333 18.606 30.5586 16.5799 30.5742C16.5799 30.5758 16.618 32.6614 19.1007 32.3346V32.333ZM13.3574 30.5351C13.3574 30.5351 15.1353 30.7978 15.9452 28.892C15.9512 28.892 14.082 28.0759 13.3574 30.5351ZM22.8271 30.4382C22.8271 30.4382 21.5438 29.1468 19.7903 30.188C19.7903 30.188 20.8254 31.9813 22.8271 30.4382ZM22.8149 30.4382C22.8149 30.4382 22.4846 28.6246 20.4676 28.4433C20.4676 28.4448 20.3139 30.5242 22.8149 30.4398V30.4382ZM19.7507 31.8453C19.7507 31.8453 19.9638 30.3225 18.4172 29.6221C18.4172 29.619 17.7566 31.2183 19.7507 31.8421V31.8453ZM24.3173 30.9072C24.3173 30.9072 24.5319 29.3844 22.9854 28.684C22.9808 28.6809 22.3232 30.2803 24.3127 30.9041L24.3173 30.9072ZM31.7107 32.505C31.7107 32.505 32.0486 30.6899 30.2387 29.7644C30.2387 29.7644 29.3497 31.6405 31.7061 32.5019L31.7107 32.505ZM35.8694 32.5488C35.8694 32.5488 35.2955 30.8009 33.2725 30.9119C33.2679 30.9088 33.3988 32.9897 35.8709 32.5457L35.8694 32.5488ZM35.8587 32.5488C35.8587 32.5488 36.3656 30.779 34.6409 29.6784C34.6409 29.6705 33.5876 31.4528 35.8541 32.541L35.8587 32.5488ZM32.5098 32.3721C32.5098 32.3721 33.3714 31.1214 32.3028 29.7706C32.2967 29.7644 30.9998 30.8791 32.5038 32.3643L32.5098 32.3721ZM36.9867 33.6651C37.2084 33.3067 37.3102 32.8838 37.2767 32.4605C37.2432 32.0373 37.0762 31.6368 36.801 31.32C36.801 31.32 35.6273 32.3205 36.9806 33.6573L36.9867 33.6651ZM38.4586 34.4546C38.4586 34.4546 39.4983 32.9381 38.2105 31.3184C38.209 31.3184 36.6442 32.6645 38.4586 34.4546ZM31.5676 30.3741C31.8129 29.976 31.9255 29.5068 31.8884 29.0373C31.8514 28.5677 31.6666 28.1233 31.3621 27.771C31.3621 27.771 30.0606 28.8873 31.5661 30.3741H31.5676ZM27.0786 9.81677C27.0786 9.81677 27.651 8.06731 25.9765 6.901C25.9765 6.901 24.8516 8.64108 27.0786 9.81677ZM31.1886 10.4218C31.1886 10.4218 30.8476 8.61138 28.8291 8.44722C28.8291 8.44722 28.6937 10.5344 31.1947 10.4218H31.1886ZM31.1779 10.4218C31.1779 10.4218 31.9131 8.72863 30.3498 7.40755C30.3498 7.40755 29.0757 9.03037 31.184 10.4156L31.1779 10.4218ZM27.8793 9.79644C28.173 9.4348 28.3444 8.98488 28.3674 8.5145C28.3905 8.04412 28.2641 7.57879 28.0071 7.18867C28.0071 7.18867 26.5854 8.11108 27.8854 9.78863L27.8793 9.79644ZM32.1567 11.6725C32.4506 11.3113 32.622 10.8616 32.6451 10.3914C32.6681 9.92123 32.5416 9.45612 32.2846 9.06633C32.2846 9.06633 30.8598 9.99343 32.1628 11.6694L32.1567 11.6725ZM24.3127 25.6995C24.3127 25.6995 24.5274 24.1767 22.9808 23.4763C22.9808 23.4716 22.3232 25.0741 24.3127 25.6995ZM23.9505 23.5576C23.9846 23.1829 23.8991 22.807 23.7069 22.4866C23.5146 22.1662 23.2261 21.9187 22.8849 21.7816C22.8849 21.7816 22.3552 23.0557 23.9505 23.5529V23.5576ZM25.841 25.7605C25.841 25.7605 27.2932 25.3868 27.3389 23.6514C27.3465 23.6467 25.6462 23.6201 25.841 25.7558V25.7605ZM28.2203 27.6068C28.2689 28.0753 28.4647 28.5148 28.778 28.8589C29.0914 29.203 29.5052 29.433 29.9571 29.5142C29.9571 29.5142 30.2996 27.8054 28.2203 27.6022V27.6068ZM28.8291 27.1378C29.1577 27.4666 29.5815 27.6766 30.0366 27.7361C30.4916 27.7956 30.9531 27.7014 31.3514 27.4677C31.3514 27.4677 30.5599 25.9199 28.8322 27.1253L28.8291 27.1378ZM28.9646 26.4546C29.4225 26.4318 29.8607 26.2565 30.2131 25.9553C30.5654 25.6541 30.8127 25.2432 30.9176 24.7849C30.9176 24.7849 29.2843 24.3237 28.9677 26.4421L28.9646 26.4546ZM31.0531 26.2983C31.2549 26.5009 31.5156 26.6303 31.7955 26.667C32.0754 26.7037 32.3594 26.6456 32.6042 26.5015C32.6042 26.5015 32.1186 25.5431 31.0561 26.2795L31.0531 26.2983ZM31.1368 25.8793C31.4186 25.8649 31.6881 25.7567 31.9048 25.5711C32.1214 25.3856 32.2734 25.1326 32.3378 24.8505C32.3378 24.8505 31.3347 24.5566 31.1399 25.8558L31.1368 25.8793ZM33.86 30.2568C34.0804 30.0742 34.2368 29.8228 34.3055 29.5406C34.3742 29.2585 34.3514 28.9611 34.2406 28.6934C34.2406 28.6934 33.2725 29.0686 33.8631 30.2334L33.86 30.2568ZM33.4643 30.1224C33.4839 29.8335 33.4115 29.546 33.258 29.3031C33.1045 29.0603 32.8782 28.8754 32.6134 28.7763C32.6134 28.7763 32.2298 29.7518 33.4673 30.1052L33.4643 30.1224ZM34.5481 19.7554C34.8857 19.6353 35.176 19.4056 35.3752 19.1009C35.5743 18.7963 35.6714 18.4333 35.6517 18.0669C35.6517 18.0669 34.335 18.0825 34.5511 19.7382L34.5481 19.7554ZM35.7659 22.2365C36.0029 21.9608 36.146 21.6132 36.1735 21.2465C36.201 20.8797 36.1113 20.5138 35.9181 20.2041C35.9181 20.2041 34.7795 20.8873 35.7628 22.2193L35.7659 22.2365ZM35.7659 22.2287C36.113 22.1417 36.4232 21.9411 36.6495 21.6571C36.8757 21.373 37.0059 21.0211 37.0202 20.6543C37.0202 20.6543 35.7004 20.5402 35.7628 22.2115L35.7659 22.2287ZM34.8678 20.1869C35.1647 20.2143 35.4622 20.1416 35.7152 19.9796C35.9683 19.8177 36.1629 19.5754 36.2697 19.2895C36.2697 19.2895 35.2529 18.8345 34.8647 20.1697L34.8678 20.1869ZM35.9546 17.7808C36.2515 17.8083 36.5491 17.7355 36.8021 17.5735C37.0551 17.4116 37.2498 17.1693 37.3566 16.8834C37.3566 16.8834 36.3382 16.4269 35.9516 17.7636L35.9546 17.7808ZM45.167 27.9914C45.3595 27.8321 45.4962 27.6127 45.5563 27.3664C45.6165 27.1201 45.5968 26.8604 45.5004 26.6266C45.5004 26.6266 44.6464 26.9502 45.164 27.9742L45.167 27.9914ZM44.82 27.8742C44.8372 27.621 44.7738 27.3688 44.6392 27.1559C44.5047 26.9429 44.3063 26.7808 44.0741 26.6938C44.0741 26.6938 43.7331 27.5474 44.8169 27.857L44.82 27.8742ZM41.3737 23.3544C41.5566 23.5272 41.7896 23.6337 42.0371 23.6574C42.2846 23.6811 42.5328 23.6208 42.7437 23.4857C42.7437 23.4857 42.2824 22.6665 41.3737 23.3544ZM41.4346 22.9838C41.6812 22.9631 41.9146 22.8603 42.0992 22.691C42.2838 22.5217 42.4096 22.2952 42.4575 22.0458C42.4575 22.0458 41.5685 21.83 41.4346 22.9776V22.9838ZM41.6857 16.7177C41.5553 16.9349 41.4976 17.19 41.5215 17.4441C41.5454 17.6981 41.6496 17.9372 41.8182 18.1247C41.8182 18.1247 42.5092 17.4994 41.6857 16.7114V16.7177ZM42.0511 16.7177C42.1178 16.962 42.26 17.1773 42.4563 17.3313C42.6527 17.4853 42.8924 17.5695 43.1394 17.5713C43.1394 17.5713 43.1775 16.6207 42.0511 16.7036V16.7177ZM43.3297 14.3507C43.5671 14.2803 43.7756 14.1323 43.9237 13.9291C44.0718 13.726 44.1513 13.4788 44.1502 13.225C44.1502 13.225 43.2384 13.1922 43.3297 14.3366V14.3507ZM43.0527 14.3507C43.164 14.1239 43.2005 13.8661 43.1565 13.6162C43.1126 13.3663 42.9906 13.1379 42.8091 12.9655C42.8091 12.9655 42.1698 13.6252 43.0527 14.3413V14.3507ZM44.5977 24.0438C44.5977 24.0438 44.9691 22.0817 43.004 21.0733C43.004 21.0624 42.0434 23.0964 44.5977 24.0329V24.0438ZM49.105 24.0923C49.105 24.0923 48.4824 22.1974 46.2904 22.3178C46.2904 22.3069 46.432 24.5613 49.105 24.0813V24.0923ZM45.4608 23.8844C45.4608 23.8844 46.397 22.5211 45.237 21.0702C45.237 21.0655 43.829 22.274 45.4608 23.8844ZM44.4455 21.7268C44.4455 21.7268 45.3817 20.3636 44.2217 18.9127C44.2217 18.9065 42.8137 20.1165 44.4455 21.7268ZM46.9358 21.5815C47.1735 21.384 47.3422 21.1124 47.4163 20.8078C47.4905 20.5032 47.4661 20.1821 47.3468 19.893C47.3468 19.893 46.295 20.312 46.9358 21.5815ZM46.5066 21.4361C46.528 21.1228 46.4496 20.8109 46.2832 20.5474C46.1168 20.284 45.8714 20.0834 45.5841 19.9758C45.5841 19.9758 45.1655 21.053 46.5066 21.4361ZM52.8527 7.46383C52.8527 7.46383 51.6593 6.48826 50.2649 7.52637C50.2664 7.52637 51.2939 8.94751 52.8527 7.46383ZM54.5164 4.26509C54.5164 4.26509 53.0095 4.02276 52.2971 5.63151C52.2971 5.63151 53.8741 6.34599 54.5164 4.26509ZM53.0719 6.79469C52.8766 6.44876 52.577 6.17757 52.2183 6.02214C51.8596 5.86671 51.4614 5.8355 51.0839 5.93325C51.0839 5.93325 51.3853 7.37628 53.0719 6.79469ZM51.2452 6.73684C51.0493 6.39116 50.7494 6.12021 50.3905 5.96484C50.0317 5.80946 49.6334 5.77808 49.2557 5.8754C49.2557 5.8754 49.5571 7.31843 51.2452 6.73684ZM52.0413 4.90609C51.9936 4.66492 51.8708 4.44623 51.6915 4.28295C51.5123 4.11968 51.2862 4.02068 51.0473 4.00087C51.0473 4.00087 50.9499 4.90609 52.0413 4.90609ZM51.7871 5.16092C51.583 5.03242 51.3437 4.97559 51.1054 4.99899C50.867 5.0224 50.6426 5.12478 50.4658 5.29069C50.4658 5.29069 51.0428 5.98015 51.7871 5.16249V5.16092ZM50.2649 17.5979C49.9379 17.289 49.5217 17.098 49.0795 17.0537C48.6373 17.0094 48.1931 17.1143 47.8141 17.3524C47.8141 17.3524 48.6285 18.8205 50.268 17.5994L50.2649 17.5979ZM52.1951 14.7712C51.762 14.6687 51.3082 14.7137 50.9023 14.8996C50.4963 15.0855 50.1604 15.4021 49.9452 15.8015C49.9452 15.8015 51.3579 16.6645 52.1981 14.7728L52.1951 14.7712ZM50.5404 16.9913C50.3943 16.6412 50.1412 16.3495 49.8193 16.1602C49.4974 15.9709 49.1243 15.8944 48.7564 15.9422C48.7564 15.9422 48.8904 17.343 50.5435 16.9928L50.5404 16.9913ZM49.7793 15.087C49.7611 14.8534 49.6695 14.6323 49.5182 14.4569C49.3669 14.2814 49.1642 14.1613 48.9406 14.1146C48.9406 14.1146 48.7549 14.9588 49.7869 15.0886L49.7793 15.087ZM49.5099 15.2965C49.3311 15.1512 49.1112 15.0695 48.8833 15.0639C48.6553 15.0583 48.4318 15.1289 48.2465 15.2653C48.2465 15.2653 48.7229 15.9844 49.5175 15.2981L49.5099 15.2965ZM37.3733 30.9932C37.5937 30.8106 37.7501 30.5592 37.8188 30.277C37.8874 29.9949 37.8647 29.6974 37.7539 29.4298C37.7539 29.4298 36.7842 29.8238 37.3809 30.9948L37.3733 30.9932ZM36.9775 30.8587C36.9972 30.5695 36.9246 30.2816 36.7708 30.0384C36.6171 29.7953 36.3904 29.6102 36.1251 29.5111C36.1251 29.5111 35.7476 30.507 36.9851 30.8587H36.9775ZM28.3816 26.8674C28.3816 26.8674 29.3147 25.2695 27.9082 23.7405C27.9158 23.7452 26.4423 25.2117 28.3892 26.8689L28.3816 26.8674ZM16.3866 22.5211C16.2666 22.0665 16.0058 21.6643 15.6435 21.3755C15.2813 21.0867 14.8373 20.9268 14.3788 20.9201C14.3788 20.9201 14.2996 22.6586 16.3866 22.5211ZM15.8569 23.0917C15.4819 22.8205 15.0312 22.682 14.5728 22.6972C14.1145 22.7125 13.6734 22.8806 13.3163 23.1761C13.3163 23.1761 14.3347 24.5629 15.8538 23.0917H15.8569ZM11.9874 30.7978C11.6124 30.5268 11.1617 30.3885 10.7034 30.4037C10.2451 30.4189 9.80403 30.5869 9.44684 30.8822C9.44684 30.8822 10.4652 32.2658 11.9844 30.7978H11.9874ZM16.583 23.2215C16.1335 23.3176 15.7269 23.5616 15.4247 23.9165C15.1225 24.2715 14.9413 24.718 14.9085 25.1882C14.9085 25.1882 16.5951 25.3649 16.5799 23.2215H16.583ZM33.3136 24.8021C33.3136 24.8021 34.2467 23.2043 32.8402 21.6753C32.8402 21.6784 31.3667 23.1449 33.3136 24.8021ZM31.1657 23.5951C31.1657 23.5951 32.7534 22.693 32.28 20.6481C32.28 20.6481 30.2905 21.1656 31.1657 23.5951ZM29.1625 24.7114C29.1625 24.7114 30.7502 23.8078 30.2768 21.7628C30.2768 21.7628 28.2857 22.274 29.1625 24.7114ZM27.4561 23.1214C27.9048 23.1156 28.3394 22.9598 28.6942 22.6778C29.049 22.3957 29.3048 22.0026 29.4228 21.558C29.4228 21.558 27.8367 21.0593 27.4561 23.1214ZM26.66 22.0708C26.66 22.0708 28.2203 21.2484 27.8245 19.2567C27.8245 19.2598 25.8882 19.6897 26.66 22.0708ZM25.7375 21.5033C25.7375 21.5033 27.4789 21.2907 27.7803 19.2832C27.7803 19.2895 25.8243 18.9956 25.7375 21.5033ZM24.5304 20.2635C24.5304 20.2635 26.2718 20.0509 26.5732 18.0434C26.5732 18.0388 24.6065 17.7558 24.5304 20.2635ZM23.3812 20.029C23.3812 20.029 24.6157 18.7485 23.6338 16.9866C23.6338 16.9866 21.9259 18.0153 23.3888 20.029H23.3812ZM21.5134 17.1992C21.8091 17.3384 22.1409 17.375 22.4587 17.3033C22.7764 17.2317 23.0628 17.0557 23.2746 16.8021C23.2746 16.8021 22.3871 15.9688 21.5134 17.1992ZM19.9181 23.4138C19.9181 23.4138 21.5926 23.6561 22.3537 21.8582C22.3567 21.8582 20.594 21.0937 19.9181 23.4138ZM19.157 24.3815C19.157 24.3815 20.3002 25.662 22.002 24.7739C21.9959 24.7739 21.1054 23.0323 19.1509 24.3815H19.157ZM18.7004 23.5779C19.024 23.5232 19.3216 23.3619 19.5482 23.1182C19.7747 22.8745 19.9179 22.5618 19.9562 22.2271C19.9562 22.2271 18.746 22.0442 18.6897 23.5779H18.7004ZM15.9771 16.577C15.9771 16.577 14.6437 15.506 13.1062 16.6708C13.0956 16.6708 14.2555 18.2389 15.9665 16.577H15.9771ZM17.1112 16.133C17.1112 16.133 16.7458 14.4367 14.8385 14.3319C14.8279 14.3319 14.7472 16.2956 17.1005 16.133H17.1112ZM17.1203 17.071C16.8132 16.952 16.4767 16.9389 16.1617 17.0337C15.8468 17.1284 15.5704 17.3259 15.3743 17.5963C15.3743 17.5963 16.3135 18.3655 17.1096 17.0663L17.1203 17.071ZM21.0278 21.583C21.0278 21.583 22.2973 20.3823 21.4114 18.6031C21.4008 18.5985 19.6746 19.5303 21.0172 21.5783L21.0278 21.583ZM18.1356 13.5502C18.1356 13.5502 19.4036 12.3511 18.5177 10.5797C18.5009 10.5672 16.7748 11.4974 18.1189 13.5455L18.1356 13.5502ZM25.4285 25.5134C25.4285 25.5134 26.383 23.6842 24.7374 22.0645C24.7207 22.0599 23.1604 23.7734 25.4118 25.5087L25.4285 25.5134ZM0.52973 22.8853C0.580175 23.3474 0.775306 23.7801 1.08578 24.1184C1.39625 24.4567 1.80528 24.6824 2.25135 24.7614C2.25135 24.7614 2.58624 23.0839 0.52973 22.8853ZM10.281 34.0184C10.1863 34.3104 10.1868 34.6261 10.2824 34.9178C10.378 35.2094 10.5634 35.4612 10.8107 35.635C10.8107 35.635 11.4622 34.7188 10.281 34.02V34.0184ZM10.5641 33.8339C10.8006 34.1701 11.1372 34.4182 11.523 34.5406C11.9088 34.663 12.323 34.6531 12.7028 34.5124C12.7028 34.5124 12.2386 33.0569 10.5641 33.8292V33.8339ZM6.60639 39.3997C6.73187 39.7447 6.96289 40.0386 7.2648 40.2373C7.5667 40.4361 7.9232 40.5289 8.28082 40.5019C8.28082 40.5019 8.22755 39.1448 6.60944 39.4012L6.60639 39.3997ZM18.3274 26.2404C17.9742 26.541 17.7257 26.9513 17.6195 27.4096C17.5132 27.8678 17.5549 28.3492 17.7383 28.781C17.7383 28.781 19.3138 28.1337 18.3305 26.242L18.3274 26.2404ZM17.1096 28.0196C16.8264 28.2595 16.6271 28.5878 16.5422 28.9547C16.4573 29.3216 16.4914 29.7069 16.6393 30.052C16.6393 30.052 17.8966 29.5314 17.1127 28.0212L17.1096 28.0196ZM13.8932 27.3176C13.4509 27.1933 12.9812 27.2203 12.5552 27.3946C12.1292 27.569 11.7701 27.8811 11.5323 28.2838C11.5323 28.2838 12.9555 29.2328 13.8963 27.3192L13.8932 27.3176ZM11.7758 27.3176C11.4224 27.2185 11.0472 27.2403 10.707 27.3796C10.3667 27.519 10.0799 27.7683 9.8898 28.0899C9.8898 28.0899 11.0284 28.8482 11.7789 27.3192L11.7758 27.3176ZM17.3182 24.9991C16.8773 24.8697 16.4074 24.8913 15.9796 25.0606C15.5517 25.2298 15.1891 25.5375 14.9466 25.9371C14.9466 25.9371 16.3607 26.9033 17.3212 25.0006L17.3182 24.9991ZM17.4217 25.576C17.4217 25.576 15.487 26.1748 15.5357 28.5152C15.5387 28.5136 17.822 28.4401 17.4247 25.5775L17.4217 25.576ZM31.3043 17.4134C31.3043 17.4134 29.9845 16.6864 28.8139 17.9403C28.8139 17.9403 30.05 19.1331 31.3043 17.4134ZM27.9295 15.6936C27.5985 15.5325 27.2255 15.4863 26.8666 15.5619C26.5078 15.6374 26.1826 15.8307 25.94 16.1126C25.94 16.1126 26.9279 17.0616 27.9295 15.6936ZM31.974 15.9516C31.9016 15.4873 31.6844 15.0597 31.3549 14.7332C31.0255 14.4067 30.6017 14.1989 30.1474 14.1412C30.1474 14.1412 29.8871 15.8594 31.974 15.95V15.9516ZM31.5082 16.2909C31.5082 16.2909 30.1626 14.7446 28.1183 15.7781C28.1183 15.7765 29.1503 17.8699 31.5082 16.2893V16.2909ZM48.0212 26.131C47.6734 25.8237 47.2377 25.6411 46.7799 25.6106C46.3221 25.5801 45.8671 25.7035 45.4836 25.9621C45.4836 25.9621 46.3741 27.4427 48.0212 26.1294V26.131ZM46.1093 25.1929C45.8316 24.9476 45.4839 24.8017 45.1184 24.7771C44.7529 24.7526 44.3896 24.8508 44.0832 25.0569C44.0832 25.0569 44.791 26.2451 46.1093 25.1961V25.1929ZM43.7392 28.1447C43.6315 27.7852 43.4129 27.4715 43.1163 27.2509C42.8197 27.0304 42.4613 26.9149 42.0952 26.9221C42.0952 26.9221 42.08 28.3135 43.7392 28.1478V28.1447ZM40.5091 22.1584C40.4278 21.8863 40.2624 21.6488 40.0381 21.4818C39.8137 21.3148 39.5425 21.2274 39.2654 21.2328C39.2654 21.2328 39.2532 22.2866 40.5091 22.1615V22.1584ZM48.5052 25.1179C48.2805 24.7063 47.9313 24.3811 47.5105 24.1916C47.0897 24.002 46.6203 23.9584 46.1732 24.0673C46.1732 24.0673 46.5264 25.7745 48.5052 25.1179ZM45.5963 4.38391C45.3826 4.80548 45.3083 5.28704 45.3846 5.75582C45.461 6.22459 45.6838 6.65511 46.0195 6.9823C46.0195 6.9823 47.2327 5.74564 45.5963 4.38391ZM49.9726 5.57366C49.9641 5.09816 49.8049 4.63847 49.5193 4.26414C49.2336 3.88982 48.837 3.62123 48.3895 3.49902C48.3895 3.49902 47.8964 5.18125 49.9726 5.57366ZM43.4576 8.67079C43.4576 8.67079 43.8275 6.70714 41.8623 5.7003C41.8623 5.7003 40.9033 7.73274 43.4576 8.67079ZM42.013 8.61137C42.013 8.61137 41.3904 6.71495 39.1984 6.83534C39.1984 6.83534 39.34 9.09134 42.013 8.61137ZM44.4942 9.06164C44.4942 9.06164 45.4304 7.69834 44.2704 6.2475C44.2704 6.24124 42.8639 7.45132 44.4942 9.06164ZM47.7852 7.22619C47.7852 7.22619 48.7199 5.8629 47.5615 4.41205C47.5615 4.40579 46.1534 5.61588 47.7852 7.22619ZM46.5294 8.47692C46.7674 8.27966 46.9363 8.0082 47.0107 7.70357C47.0852 7.39894 47.061 7.07771 46.9419 6.78844C46.9419 6.78844 45.8886 7.21368 46.5264 8.48318L46.5294 8.47692ZM46.1001 8.3456C46.1215 8.03255 46.043 7.72087 45.8766 7.45769C45.7102 7.19452 45.4648 6.99416 45.1777 6.88693C45.1777 6.88693 44.7591 7.95474 46.1001 8.3456ZM43.7772 9.43998C43.4994 9.19489 43.1516 9.04922 42.7861 9.02497C42.4206 9.00072 42.0574 9.09919 41.7512 9.30553C41.7512 9.30553 42.459 10.4859 43.7772 9.43998ZM47.2631 9.79332C47.0382 9.38222 46.6893 9.0574 46.2689 8.86788C45.8485 8.67837 45.3794 8.63443 44.9326 8.7427C44.9326 8.7427 45.2721 10.4468 47.2631 9.79019V9.79332ZM47.531 12.867C47.531 12.867 49.6393 12.5981 49.994 10.1638C49.994 10.1607 47.6147 9.82458 47.531 12.8639V12.867ZM48.5311 8.90999C48.5311 8.90999 49.7489 10.2342 51.5146 9.28052C51.5146 9.28364 50.5633 7.46696 48.5311 8.90686V8.90999ZM48.4261 8.61607C48.7406 8.36505 48.9675 8.01605 49.0726 7.62143C49.1777 7.2268 49.1554 6.80781 49.0091 6.42729C49.0091 6.42729 47.6224 6.93852 48.4261 8.61294V8.61607ZM47.2388 11.0347C47.5205 10.9412 47.7652 10.7564 47.9362 10.5081C48.1071 10.2598 48.1952 9.96131 48.1871 9.6573C48.1871 9.6573 47.0926 9.65417 47.2388 11.0315V11.0347ZM54.0811 11.9868C54.0811 11.9868 52.3808 11.6507 51.5101 13.4454C51.5101 13.4423 53.2713 14.3194 54.0811 11.9837V11.9868ZM51.6532 12.2995C51.234 12.2384 50.8068 12.319 50.4361 12.5291C50.0654 12.7392 49.7713 13.0674 49.5982 13.4642C49.5982 13.4642 51.0062 14.1631 51.6532 12.2979V12.2995ZM54.3292 10.1341C54.3292 10.1341 53.6366 8.50194 51.7019 8.78179C51.7019 8.78179 51.9972 10.7689 54.3292 10.1326V10.1341ZM53.9304 10.6735C53.9304 10.6735 51.9272 9.44155 50.0168 11.2989C50.0168 11.302 51.8541 13.2469 53.9304 10.672V10.6735ZM37.9137 16.652C37.9137 16.652 37.9137 14.8728 36.0322 14.335C36.0322 14.335 35.5284 16.2784 37.9137 16.652ZM36.7446 14.0958C36.724 13.6615 36.5662 13.246 36.2951 12.912C36.0241 12.578 35.6544 12.3438 35.2422 12.2447C35.2422 12.2447 34.8403 13.7972 36.7446 14.0958ZM39.5683 15.7968C39.5683 15.7968 40.9946 14.7884 40.3599 12.8904C40.3599 12.8904 38.5165 13.5658 39.5683 15.7968ZM38.8072 15.9156C38.8072 15.9156 39.6049 13.6612 37.4616 12.0884C37.4677 12.0884 35.9576 14.3131 38.8133 15.9156H38.8072ZM55.2197 20.8076C55.2197 20.8076 56.0356 22.31 57.8714 21.8535C57.8775 21.8535 57.4117 19.9696 55.2258 20.8076H55.2197ZM56.9581 22.4585C57.1747 22.8151 57.4986 23.0895 57.8807 23.2401C58.2627 23.3908 58.6821 23.4095 59.0755 23.2934C59.0755 23.2934 58.704 21.7909 56.9642 22.4585H56.9581ZM53.8436 22.3913C53.8436 22.3913 53.1023 23.9328 54.5088 25.2289C54.5149 25.2305 55.7631 23.7655 53.8497 22.3913H53.8436ZM54.3673 21.7409C54.3673 21.7409 54.728 24.0298 57.2595 24.3205C57.2656 24.3205 57.5198 21.7112 54.3734 21.7409H54.3673ZM58.4133 33.8886C58.4133 33.8886 56.1619 33.5666 55.139 35.982C55.1451 35.982 57.5137 37.0061 58.4194 33.8886H58.4133ZM58.188 28.4886C58.188 28.4886 56.0752 29.3501 56.3477 31.9688C56.3537 31.9688 58.905 31.6592 58.1941 28.4886H58.188ZM58.188 28.5027C58.188 28.5027 55.9762 27.9649 54.7372 30.2693C54.7463 30.2693 57.0022 31.5201 58.1895 28.5027H58.188ZM58.1956 32.8646C58.1956 32.8646 56.5897 31.8296 55.0081 33.307C55.0096 33.307 56.4694 34.9236 58.1971 32.8646H58.1956ZM59.4834 26.9658C59.4834 26.9658 58.0404 26.0356 56.6186 27.3645C56.6201 27.3645 57.9338 28.8122 59.4849 26.9658H59.4834ZM60.3663 24.9944C60.3663 24.9944 58.43 23.7437 56.5242 25.5291C56.5258 25.5291 58.287 27.4708 60.3678 24.9944H60.3663ZM55.8073 34.2185C55.8073 34.2185 54.2013 33.1835 52.6198 34.661C52.6152 34.6563 54.0826 36.2682 55.8118 34.2138L55.8073 34.2185ZM50.513 41.959C50.513 41.959 49.9559 40.0985 47.8187 40.1564C47.8187 40.1532 47.8964 42.353 50.513 41.959ZM52.6259 38.7462C52.6259 38.7462 54.5104 38.532 54.8544 36.3635C54.8544 36.3604 52.7355 36.0305 52.6259 38.743V38.7462ZM51.9972 37.9832C51.9972 37.9832 53.3154 36.584 52.2331 34.6891C52.2331 34.686 50.3973 35.8195 51.9972 37.9801V37.9832ZM51.1478 37.855C51.1478 37.855 51.0488 35.9101 48.9619 35.4317C48.9619 35.4286 48.5189 37.5814 51.1478 37.8519V37.855ZM50.8068 35.1534C51.0446 34.8781 51.1881 34.5305 51.2156 34.1635C51.2431 33.7966 51.153 33.4305 50.959 33.121C50.959 33.121 49.8235 33.8292 50.8068 35.1503V35.1534ZM50.2847 35.0753C50.2486 34.7103 50.0978 34.3673 49.855 34.0982C49.6122 33.829 49.2907 33.6485 48.9391 33.5838C48.9391 33.5838 48.6666 34.9064 50.2847 35.08V35.0753ZM55.4907 31.2449C55.2517 30.9725 54.9329 30.7874 54.5824 30.7178C54.232 30.6481 53.869 30.6976 53.5483 30.8587C53.5483 30.8587 54.0887 32.0876 55.4907 31.2418V31.2449ZM55.3521 31.7671C54.9952 31.761 54.646 31.8744 54.3574 32.0902C54.0688 32.306 53.8564 32.6124 53.7523 32.9631C53.7523 32.9631 55.0005 33.3946 55.3552 31.764L55.3521 31.7671ZM56.1833 26.6281C55.9444 26.3557 55.6258 26.1703 55.2754 26.1001C54.9251 26.0299 54.562 26.0786 54.2409 26.2389C54.2409 26.2389 54.7813 27.4724 56.1833 26.625V26.6281ZM56.0447 27.1519C55.6877 27.1449 55.3381 27.2576 55.0489 27.4728C54.7597 27.688 54.5466 27.9941 54.4419 28.3448C54.4419 28.3448 55.6931 28.7778 56.0447 27.1488V27.1519ZM51.711 38.5757C51.711 38.5757 49.6819 37.472 47.9055 39.4012C47.8963 39.3981 49.8022 41.2117 51.711 38.5726V38.5757ZM48.8371 32.3221C48.8371 32.3221 46.808 31.2183 45.0315 33.1476C45.0255 33.146 46.9282 34.9596 48.8371 32.3205V32.3221ZM47.496 35.191C47.496 35.191 46.2782 33.1914 43.7955 33.9402C43.7955 33.9418 44.5566 36.487 47.496 35.1894V35.191ZM49.003 37.7159C49.003 37.7159 47.7852 35.7163 45.3025 36.4651C45.3086 36.4683 46.0697 39.0151 49.003 37.7143V37.7159ZM47.1642 40.0391C47.1642 40.0391 47.1307 38.1317 45.1046 37.5908C45.1046 37.5892 44.5992 39.6811 47.1642 40.0375V40.0391ZM50.1949 28.7325C50.1949 28.7325 48.694 29.9207 49.4947 31.9563C49.4947 31.9531 51.472 31.1073 50.1949 28.7309V28.7325ZM51.1189 29.0452C51.1189 29.0452 50.6987 30.9447 52.5817 31.9875C52.5817 31.9891 53.5772 30.0395 51.1189 29.0467V29.0452ZM51.5968 28.7106C51.5968 28.7106 52.5026 30.0755 54.2196 29.4783C54.2196 29.4798 53.6168 27.7194 51.5968 28.7122V28.7106ZM51.0625 28.3854C51.0625 28.3854 53.355 28.2478 53.9015 25.6479C53.9015 25.6495 51.3594 25.1148 51.0625 28.387V28.3854ZM59.6372 32.294C59.6372 32.294 61.2035 31.2465 60.5703 29.1812C60.5703 29.1796 58.5625 29.855 59.6372 32.2924V32.294ZM59.6372 32.2815C59.6372 32.2815 61.5064 32.3471 62.1412 30.2818C62.1412 30.2803 60.1182 29.6502 59.6372 32.2799V32.2815ZM58.943 28.7669C58.943 28.7669 60.4013 29.3329 61.4425 27.8773C61.444 27.8758 60.0116 26.8204 58.943 28.7653V28.7669ZM58.8349 33.737C59.2434 33.8722 59.6835 33.8674 60.089 33.7233C60.4946 33.5792 60.8435 33.3036 61.0833 32.9381C61.0833 32.9381 59.7955 31.9875 58.8349 33.7354V33.737ZM58.4346 35.4739C58.4346 35.4739 60.1928 36.1572 61.4486 34.403C61.444 34.4014 59.7224 33.1288 58.4346 35.4724V35.4739ZM61.3816 29.6236C61.6173 29.8039 61.9037 29.9005 62.1975 29.8988C62.4914 29.8971 62.7767 29.7972 63.0104 29.6143C63.0104 29.6143 62.3787 28.7059 61.3816 29.6221V29.6236ZM61.4105 29.1796C61.6993 29.1247 61.9628 28.9749 62.1613 28.7526C62.3599 28.5304 62.4826 28.2479 62.5111 27.9477C62.5111 27.9477 61.444 27.8038 61.4105 29.1781V29.1796ZM74.535 30.1255C74.7709 30.3056 75.0574 30.4019 75.3512 30.3999C75.645 30.3979 75.9303 30.2978 76.1638 30.1146C76.1638 30.1146 75.5275 29.2093 74.535 30.1255ZM74.5639 29.6815C74.8527 29.6266 75.1162 29.4767 75.3148 29.2545C75.5133 29.0322 75.6361 28.7497 75.6645 28.4495C75.6645 28.4495 74.5853 28.3073 74.5594 29.6815H74.5639ZM65.8737 38.4585C66.1566 38.6746 66.5004 38.7903 66.853 38.788C67.2056 38.7857 67.5479 38.6657 67.8282 38.446C67.8282 38.446 67.0762 37.3578 65.8737 38.4585ZM65.9087 37.9238C66.2553 37.8585 66.5718 37.679 66.8103 37.4124C67.0487 37.1458 67.196 36.8067 67.2299 36.4464C67.2299 36.4464 65.9391 36.276 65.9087 37.9238ZM69.1601 42.0403C69.1229 42.3993 69.2002 42.761 69.3802 43.0711C69.5603 43.3812 69.8334 43.623 70.1587 43.76C70.1587 43.76 70.6884 42.5453 69.1601 42.0403ZM69.6259 41.8011C69.8563 42.0753 70.1673 42.265 70.512 42.3414C70.8567 42.4179 71.2163 42.3769 71.5363 42.2248C71.5363 42.2248 71.0339 40.9944 69.6259 41.8026V41.8011ZM61.5582 33.4603C61.794 33.6403 62.0805 33.7366 62.3744 33.7347C62.6682 33.7327 62.9534 33.6325 63.187 33.4493C63.187 33.4493 62.5491 32.5441 61.5521 33.4603H61.5582ZM61.5871 33.0147C61.876 32.9604 62.1399 32.811 62.3387 32.589C62.5375 32.367 62.6606 32.0845 62.6892 31.7843C62.6892 31.7843 61.6069 31.6405 61.581 33.0147H61.5871ZM60.1745 23.7186C60.1745 23.7186 61.1974 22.5101 60.2293 21.0014C60.2262 21.0092 58.7634 22.0145 60.1684 23.7186H60.1745ZM65.2495 30.6633C65.2495 30.6633 65.2876 29.0608 63.604 28.534C63.6086 28.534 63.1185 30.2725 65.2495 30.6633ZM64.9207 31.0151C64.6178 30.7395 64.2357 30.5728 63.8322 30.5401C63.4288 30.5074 63.026 30.6104 62.6846 30.8337C62.6846 30.8337 63.4488 32.1501 64.9207 31.0151ZM65.4033 31.1886C65.4033 31.1886 63.5766 31.6827 63.5462 33.8699C63.5462 33.8668 65.6803 33.8746 65.4018 31.1855L65.4033 31.1886ZM63.2722 17.3321C63.3152 16.8631 63.2085 16.3924 62.9682 15.9911C62.728 15.5898 62.3672 15.2796 61.9403 15.1074C61.9403 15.1074 61.2735 16.7052 63.2707 17.329L63.2722 17.3321ZM62.9084 15.1887C62.9427 14.8141 62.8572 14.4383 62.6649 14.1181C62.4727 13.798 62.1841 13.5508 61.8428 13.4142C61.8428 13.4142 61.3116 14.6884 62.9069 15.1855L62.9084 15.1887ZM65.0867 17.4775C65.4872 17.2478 65.8041 16.8905 65.9895 16.4596C66.1749 16.0286 66.2186 15.5474 66.1142 15.0886C66.1142 15.0886 64.4534 15.4294 65.0852 17.4744L65.0867 17.4775ZM64.3697 17.1445C64.3697 17.1445 65.3257 15.3153 63.6801 13.6956C63.6786 13.6925 62.1168 15.406 64.3682 17.1414L64.3697 17.1445ZM26.1287 13.9739C25.8075 14.2053 25.5682 14.5376 25.4469 14.9208C25.3255 15.304 25.3287 15.7174 25.4559 16.0986C25.4559 16.0986 26.835 15.6592 26.1287 13.9739ZM36.0231 26.0528C35.7444 25.6785 35.3548 25.4075 34.913 25.2806C34.4712 25.1536 34.0012 25.1778 33.5739 25.3493C33.5739 25.3493 34.1356 26.9893 36.0231 26.0544V26.0528ZM35.74 26.7876C35.2933 26.6815 34.8251 26.7277 34.4062 26.9192C33.9874 27.1107 33.6407 27.4372 33.4186 27.8492C33.4186 27.8492 34.8662 28.7403 35.7324 26.7939L35.74 26.7876ZM35.9774 27.1894C35.6553 27.4129 35.4128 27.7382 35.2867 28.1159C35.1607 28.4937 35.1579 28.9033 35.2787 29.2828C35.2787 29.2828 36.6487 28.8701 35.9698 27.191L35.9774 27.1894ZM36.2499 26.7689C36.2499 26.7689 36.259 28.6324 38.2288 29.1859C38.2273 29.1875 38.7433 27.1488 36.2423 26.7704L36.2499 26.7689ZM40.573 26.2998C40.5694 26.7706 40.7151 27.2298 40.9881 27.608C41.2611 27.9863 41.6465 28.263 42.0861 28.3964C42.0861 28.3964 42.6082 26.7517 40.5654 26.3076L40.573 26.2998ZM41.2352 25.8965C41.5244 26.262 41.9217 26.5207 42.3669 26.6336C42.8122 26.7464 43.2811 26.7072 43.7027 26.5218C43.7027 26.5218 43.077 24.9084 41.2275 25.9043L41.2352 25.8965ZM41.2884 25.4274C41.6764 25.4539 42.0622 25.3498 42.3874 25.1309C42.7127 24.912 42.9595 24.5902 43.0907 24.2142C43.0907 24.2142 41.7481 23.6842 41.2808 25.4384L41.2884 25.4274ZM62.1168 9.56193C62.2143 9.79513 62.383 9.98944 62.5975 10.1155C62.812 10.2416 63.0605 10.2926 63.3057 10.2608C63.3057 10.2608 63.2189 9.32586 62.1168 9.56193ZM62.3208 9.24925C62.5536 9.33512 62.8072 9.34084 63.0434 9.26553C63.2796 9.19021 63.4854 9.03797 63.6299 8.83182C63.6299 8.83182 62.9053 8.26117 62.3208 9.24925ZM64.7777 11.5537C64.7777 11.5537 65.9041 9.92308 64.5219 8.17206C64.5219 8.17206 62.8292 9.61665 64.7777 11.5537ZM68.8617 13.5049C68.8617 13.5049 69.0581 11.5162 67.0123 10.6907C67.0123 10.7001 66.2344 12.8138 68.8617 13.5049ZM65.6225 11.7851C65.6225 11.7851 67.0229 10.9409 66.5541 9.1273C66.5541 9.1273 64.7929 9.62603 65.6225 11.7851ZM67.8921 10.3139C68.188 10.2353 68.451 10.0599 68.6413 9.81426C68.8316 9.5686 68.9389 9.26602 68.947 8.9522C68.947 8.9522 67.819 8.88654 67.8921 10.3139ZM67.5603 10.0012C67.7052 9.72517 67.759 9.40821 67.7134 9.09806C67.6678 8.78791 67.5254 8.50134 67.3076 8.2815C67.3076 8.2815 66.4932 9.08196 67.5603 9.99969V10.0012ZM65.6849 13.2547C65.5309 12.9135 65.2729 12.6331 64.9499 12.456C64.6269 12.2788 64.2565 12.2146 63.8948 12.2729C63.8948 12.2729 64.0622 13.6487 65.6849 13.2531V13.2547ZM67.9012 14.2037C67.8629 13.7333 67.6763 13.2885 67.3698 12.9367C67.0633 12.5849 66.6535 12.3453 66.2025 12.2541C66.2025 12.2541 65.8249 13.9551 67.9012 14.2021V14.2037ZM61.1898 11.4255C61.5326 11.6142 61.9259 11.6833 62.3103 11.6224C62.6947 11.5615 63.0494 11.3739 63.3209 11.0878C63.3209 11.0878 62.3223 10.0263 61.1898 11.424V11.4255ZM58.5214 17.7636C58.6897 17.5758 58.7935 17.3366 58.8168 17.0824C58.8402 16.8283 58.7819 16.5734 58.6508 16.3565C58.6508 16.3565 57.8592 16.8287 58.5214 17.7636ZM58.1606 17.7011C58.1403 17.4476 58.0401 17.2078 57.8754 17.018C57.7106 16.8282 57.4901 16.6986 57.2473 16.6489C57.2473 16.6489 57.0433 17.5697 58.1606 17.7011ZM60.5566 17.8574C60.5823 17.4593 60.4813 17.0635 60.2687 16.7296C60.0562 16.3957 59.7437 16.1418 59.3784 16.0063C59.3784 16.0063 58.8563 17.3806 60.5566 17.8621V17.8574ZM40.815 25.5979C40.815 25.5979 41.9202 24.1189 40.6917 22.4382C40.6917 22.4382 39.0675 23.7218 40.815 25.5979ZM56.5608 0.895932C56.9043 1.2146 57.3396 1.4097 57.8007 1.45173C58.2618 1.49376 58.7237 1.38043 59.1166 1.12888C59.1166 1.12888 58.2565 -0.38294 56.5608 0.900622V0.895932ZM55.0888 1.12263C55.2712 1.55928 55.587 1.92312 55.9884 2.15918C56.3899 2.39525 56.8553 2.49073 57.3143 2.4312C57.3143 2.4312 57.1514 0.684872 55.0888 1.12732V1.12263ZM57.2777 4.43706C57.4609 4.60945 57.6939 4.71559 57.9412 4.73931C58.1886 4.76302 58.4367 4.70299 58.6477 4.56839C58.6477 4.56839 58.1865 3.74603 57.2777 4.43706ZM57.3371 4.06653C57.5837 4.04556 57.8169 3.94267 58.0015 3.77341C58.186 3.60416 58.3119 3.37776 58.36 3.12849C58.36 3.12849 57.4711 2.90961 57.3341 4.05872L57.3371 4.06653ZM60.5018 5.12184C60.5018 5.12184 60.8717 3.15819 58.908 2.15135C58.908 2.14354 57.9429 4.17597 60.5018 5.11402V5.12184ZM65.0075 5.1703C65.0075 5.1703 64.3865 3.27545 62.193 3.39427C62.193 3.38645 62.336 5.64245 65.0075 5.16249V5.1703ZM61.3649 4.97331C61.3649 4.97331 62.2995 3.61002 61.1411 2.15917C61.1396 2.1451 59.7331 3.35518 61.3649 4.9655V4.97331ZM60.3496 2.81424C60.3496 2.81424 61.2842 1.45094 60.1258 9.61972e-05C60.1258 -0.0124111 58.7177 1.19611 60.3496 2.80642V2.81424ZM62.8399 2.67041C63.0776 2.47294 63.2462 2.20139 63.3204 1.89677C63.3945 1.59216 63.3701 1.27104 63.2509 0.98192C63.2509 0.98192 62.2051 1.3931 62.8399 2.66259V2.67041ZM62.4091 2.52501C62.4311 2.21166 62.3529 1.89951 62.1864 1.63596C62.0199 1.37241 61.7742 1.17187 61.4866 1.06478C61.4866 1.06478 61.068 2.13416 62.4091 2.51719V2.52501ZM67.1036 7.21525C67.1036 7.21525 66.0183 6.15525 64.5676 7.0464C64.5676 7.04171 65.4535 8.52382 67.1036 7.21056V7.21525ZM62.0118 6.2772C61.734 6.0321 61.3861 5.88644 61.0207 5.86219C60.6552 5.83793 60.292 5.93641 59.9857 6.14275C59.9857 6.14275 60.6936 7.32469 62.0118 6.27564V6.2772ZM56.4116 3.24105C56.3305 2.96926 56.1654 2.73202 55.9413 2.56529C55.7171 2.39855 55.4462 2.31141 55.1695 2.31708C55.1695 2.31708 55.1573 3.36769 56.4116 3.24105ZM57.1316 6.99324C57.4208 7.35875 57.8181 7.61751 58.2634 7.73035C58.7086 7.84319 59.1775 7.80396 59.5991 7.61861C59.5991 7.61861 58.9796 5.98953 57.1316 6.98543V6.99324ZM57.1834 6.52422C57.5713 6.55063 57.9571 6.44671 58.2825 6.22814C58.6079 6.00956 58.8552 5.68821 58.9872 5.31257C58.9872 5.31257 57.6507 4.76538 57.1818 6.51797L57.1834 6.52422ZM56.7191 6.68056C56.7191 6.68056 57.8242 5.20314 56.5943 3.52247C56.5943 3.51934 54.9685 4.8029 56.7252 6.67743L56.7191 6.68056ZM57.2701 45.2969C57.0676 44.995 56.7749 44.7691 56.4363 44.6532C56.0977 44.5372 55.7316 44.5376 55.3932 44.6543C55.3932 44.6543 55.7753 45.9551 57.2701 45.3V45.2969ZM57.0677 45.7972C56.7145 45.7441 56.3541 45.8104 56.0408 45.986C55.7275 46.1617 55.4783 46.4373 55.3308 46.7712C55.3308 46.7712 56.5151 47.3715 57.0677 45.8003V45.7972ZM50.8266 46.0051C50.8266 46.0051 49.1887 46.9854 49.7276 49.11C49.723 49.1132 51.7917 48.5331 50.8236 46.0082L50.8266 46.0051ZM51.539 46.9431C51.539 46.9431 50.8844 48.7708 52.6198 50.0543C52.6152 50.059 53.8497 48.258 51.536 46.9478L51.539 46.9431ZM52.4645 46.7587C52.4645 46.7587 53.1906 48.2314 54.9685 47.8671C54.9655 47.8718 54.5941 46.0457 52.463 46.7633L52.4645 46.7587ZM51.9744 46.3647C51.9744 46.3647 54.2653 46.532 55.1345 44.0196C55.1314 44.0305 52.6776 43.1644 51.9713 46.3694L51.9744 46.3647ZM66.0457 28.7638C66.0457 28.7638 66.6545 26.8376 64.8066 25.5728C64.8035 25.5775 63.5903 27.4974 66.0426 28.7685L66.0457 28.7638ZM66.0457 44.6168C66.0457 44.6168 66.6545 42.6907 64.8066 41.4259C64.8035 41.4305 63.5903 43.3504 66.0426 44.6168H66.0457ZM60.9371 26.1091C61.1855 26.3725 61.5106 26.5455 61.8634 26.6019C62.2161 26.6583 62.5771 26.5951 62.8916 26.4218C62.8916 26.4218 62.3056 25.2101 60.9371 26.1091ZM61.0559 25.5822C61.4121 25.5751 61.7565 25.4492 62.037 25.2236C62.3176 24.9981 62.5192 24.685 62.6116 24.3315C62.6116 24.3315 61.3481 23.9391 61.0559 25.5822ZM72.2335 27.5521C72.2335 27.5521 73.6917 26.3014 72.818 24.3034C72.818 24.3034 70.8726 25.2305 72.2335 27.5521ZM71.3003 27.2723C71.3003 27.2723 71.6504 25.3571 69.7325 24.3878C69.7325 24.3878 68.807 26.3733 71.3003 27.2723ZM70.8345 27.624C70.8345 27.624 69.8801 26.2951 68.1859 26.958C68.1859 26.958 68.8526 28.695 70.8345 27.624ZM71.3795 27.9289C71.3795 27.9289 69.0962 28.154 68.6395 30.7728C68.641 30.7728 71.2014 31.2105 71.3795 27.9289ZM25.3402 69.8284C23.6658 69.7643 22.477 70.0191 21.419 71.1698C20.8235 71.8424 20.0414 72.3112 19.1783 72.5128C19.1783 72.5128 19.9257 72.8974 22.6018 71.4903C25.2778 70.0832 27.2263 73.4148 31.3347 71.8155C35.4431 70.2161 34.3045 68.6136 34.9271 67.3347C35.5497 66.0559 36.1723 66.2403 36.9197 64.9693C37.6671 63.6982 37.7904 62.7305 38.9732 61.1968C40.1559 59.6631 39.098 55.0588 37.9152 53.0123C36.7325 50.9658 39.1604 44.19 39.41 42.1435C39.6597 40.097 39.783 38.3709 38.2897 36.2025C36.7964 34.034 34.3669 34.3358 32.624 34.1419C30.8811 33.948 29.6983 33.1835 28.8885 32.7348C28.0787 32.2861 27.8306 28.5793 27.1456 27.7491C26.4606 26.9189 25.7147 26.9174 23.0995 26.8533C20.4844 26.7892 19.2407 26.4061 18.3061 24.7427C17.3715 23.0792 19.8862 22.1912 19.9805 20.2088C20.0338 19.1769 18.673 17.9715 18.1143 17.3321C17.5557 16.6927 18.0519 14.3272 17.9271 14.7743C17.8022 15.2215 17.6226 16.1814 17.3669 16.9475C17.1112 17.7136 18.3624 18.7376 18.7369 19.7616C19.1114 20.7857 17.8647 21.5517 17.4293 22.1912C16.994 22.8306 16.6195 24.4925 18.3 26.9221C19.9805 29.3516 25.0236 27.6897 26.144 28.7122C27.2643 29.7347 27.2643 32.2924 27.2643 32.2924C27.2643 32.2924 25.5899 32.036 23.6536 31.653C21.7174 31.2699 18.9287 33.7604 18.3655 33.8871C17.8022 34.0137 15.6255 32.0329 14.3818 31.6498C13.1382 31.2668 11.7667 32.4175 10.7087 32.5457C9.65081 32.6739 8.59288 31.7139 8.27321 30.9463C7.88352 30.0865 7.40699 29.2712 6.85147 28.5136C6.54703 28.1306 5.95793 27.6631 4.9 27.4708C3.84206 27.2785 2.61668 26.4687 2.61668 26.4687C2.61668 26.4687 4.06582 27.8992 5.50888 28.5949C6.66119 29.1484 7.31118 31.1167 8.18188 32.7786C9.05259 34.4405 10.5809 33.4368 12.1396 33.2476C13.6984 33.0585 13.7577 32.5441 15.3758 33.5025C16.994 34.4608 17.4932 34.6531 17.4932 34.6531C17.3893 34.9714 17.2423 35.2729 17.0564 35.549C16.8082 35.8617 15.251 37.9144 14.8157 38.1067C14.3803 38.299 13.3848 39.384 13.3848 39.9609C13.3848 40.5378 12.3877 40.9834 11.5779 40.9193C10.7681 40.8552 10.3967 41.5587 10.2719 42.1982C10.1471 42.8376 8.77707 43.2207 8.77707 43.2207C8.77707 43.2207 8.2793 43.2848 9.02671 43.3489C9.77411 43.413 10.832 42.7735 10.8945 42.0059C10.9569 41.2382 12.4502 41.8136 13.3848 41.3664C14.3194 40.9193 14.1307 40.344 14.7548 40.344C15.3789 40.344 16.1948 42.0418 16.3029 42.8579C16.3638 43.316 15.7671 43.785 15.0851 44.2322C14.4032 44.6793 14.8202 45.6502 14.8202 45.6502C14.8065 44.6246 15.9406 44.4354 16.4947 44.0524C17.0488 43.6694 17.3045 42.1982 16.3074 41.0475C15.3104 39.8968 16.8691 38.4898 17.3045 37.5314C17.7398 36.573 21.1633 34.0778 22.1603 33.5666C23.1574 33.0553 25.8943 33.4384 26.5169 33.6948C27.1395 33.9512 29.6922 35.3567 30.4396 35.4849C31.187 35.6131 33.6134 35.6131 33.6134 35.6131C33.6134 35.6131 31.4976 36.5074 31.2479 37.0202C30.9983 37.533 30.875 38.4272 30.9998 39.5138C31.1246 40.6004 30.7563 41.9433 30.5081 42.2717C30.26 42.6 28.7652 42.5843 28.0802 43.5505C27.3952 44.5167 27.9554 45.7878 27.9554 45.7878V44.7012C27.9554 43.6146 28.7652 43.2941 29.948 42.9111C31.1307 42.5281 31.318 42.2717 31.4413 40.7364C31.5646 39.2011 31.8142 37.3485 32.9361 36.709C34.0579 36.0696 35.9805 35.7507 37.4175 38.6914C38.8544 41.6322 36.5452 45.2124 35.9226 47.1948C35.3001 49.1773 36.3595 51.4786 36.6076 53.0764C36.8558 54.6742 37.0445 54.9947 36.3595 56.9771C35.6745 58.9595 35.364 59.7913 35.6745 61.9644C35.9851 64.1376 34.8647 64.2658 33.4962 65.6072C32.1278 66.9486 32.0654 69.0529 32.0654 69.0529C31.6909 70.7148 27.0223 69.8847 25.3402 69.8206V69.8284ZM38.3506 51.9038C38.451 52.881 39.101 53.4469 39.9017 55.4997C40.3901 56.8281 40.6112 58.2444 40.5517 59.6631L41.2032 58.3264C41.8532 56.9912 40.952 53.8566 40.4512 51.6459C39.9504 49.4352 39.9793 48.2814 40.8028 46.0958C41.9521 43.0424 40.0022 39.4153 40.0022 39.4153C40.0022 39.4153 40.0828 41.5009 40.0326 43.0424C39.9824 44.5839 39.2015 46.1474 39.2015 46.1474C38.0507 49.0694 38.2501 50.9205 38.3506 51.896V51.9038ZM59.7163 73.7385C60.9676 74.4576 65.8706 73.4821 63.7197 73.3273L63.4153 73.3085C61.4714 73.2069 60.5231 73.4961 58.6629 71.7342C56.7115 69.8847 53.559 69.7299 49.7565 69.2671C45.954 68.8043 44.6525 66.5952 45.0529 64.6941C45.4532 62.793 43.552 60.2228 43.8518 58.5265C44.1517 56.8302 43.4515 55.5466 43.0009 54.5179C42.5503 53.4891 42.3509 51.3316 42.4012 48.8646C42.4514 46.3975 43.8518 43.5709 43.9523 41.8292C44.0528 40.0876 43.4515 39.3621 42.5503 35.9195C41.6492 32.4769 44.6023 31.6014 45.8033 31.3966C47.0043 31.1918 49.1522 29.1859 49.9559 28.6731C50.7596 28.1603 52.2072 24.7145 52.5086 24.1501C52.81 23.5857 53.0582 20.8091 52.6609 19.4224C52.2636 18.0356 54.7128 20.0384 54.8635 19.9868C55.0142 19.9352 57.0646 20.6043 58.4163 20.9639C59.7681 21.3235 61.167 20.5527 62.7683 19.5756C64.3697 18.5985 64.8705 18.908 64.8705 18.908C64.8705 18.908 65.1202 19.1644 64.7701 18.7032C64.4199 18.242 63.2189 18.3421 61.9677 19.0159C60.7164 19.6897 59.2657 20.1978 58.4163 19.7867C57.5669 19.3755 55.4633 18.6047 55.2638 18.6047C55.0644 18.6047 53.3124 17.7308 54.5621 16.4972C55.8118 15.2637 56.2137 12.0259 56.2137 12.0259C56.2137 12.0259 56.5638 10.8439 57.4147 10.3296C58.2656 9.8152 59.5671 10.5359 60.7179 10.4859C61.8687 10.4359 61.5688 9.35556 61.718 8.8412C61.8672 8.32683 62.0225 8.12203 62.8688 7.86563C63.7152 7.60923 63.9694 6.68369 63.9694 6.68369C63.8171 7.19649 62.368 7.40286 61.6678 7.60766C60.9676 7.81247 61.3177 8.8412 60.5672 9.30397C59.8168 9.76674 58.5153 9.14763 57.5654 9.20078C56.6156 9.25394 55.5074 10.0122 55.5074 10.0122C55.5074 10.0122 54.9564 8.88185 54.3064 8.21427C53.6564 7.54669 55.0568 7.28873 55.2578 6.72277C55.4587 6.15682 54.9533 5.4908 54.9533 5.4908C55.5044 6.05519 54.4967 6.92914 53.6031 7.4951C52.7096 8.06105 53.4022 8.88185 54.454 9.75579C55.5059 10.6297 54.7037 13.0968 54.7037 14.3288C54.7037 15.5607 52.6517 16.0251 51.9515 16.7958C51.2513 17.5666 50.4506 18.3374 50.9012 20.1369C51.3518 21.9363 50.1005 24.505 48.6498 26.5093C47.1992 28.5136 46.2569 28.67 44.0543 29.0796C41.8517 29.4892 42.0039 29.6956 41.0525 29.5924C40.1011 29.4892 39.5516 24.813 38.7509 21.422C37.9502 18.0309 41.4026 17.0022 42.0039 16.6942C42.6051 16.3862 43.2536 16.0689 43.6539 16.9506C44.0543 17.8324 44.6997 18.4921 45.4608 18.7485C46.2219 19.0049 46.811 19.7773 46.7623 19.5193C46.7136 19.2613 46.811 18.3374 45.6602 18.1326C44.5094 17.9278 44.6099 16.591 44.0086 15.7687C43.4073 14.9463 42.2581 15.9735 41.8577 15.8719C41.4574 15.7702 41.8075 15.2027 42.2581 13.4564C42.7087 11.7101 42.0084 11.0909 42.0084 11.0909C42.0084 11.0909 42.0587 13.6096 41.3569 15.2027C40.6552 16.7958 39.5059 16.4879 37.8041 17.8246C36.1023 19.1613 36.7538 20.1884 37.2043 21.6784C37.6549 23.1683 37.5088 24.197 36.3032 23.889C35.0976 23.5811 34.2513 20.2932 33.8524 19.0581C33.4536 17.823 32.9011 15.3059 32.9011 15.3059C32.9011 15.3059 32.6514 14.2787 32.8006 13.4564C32.9498 12.634 33.8022 12.4793 34.0016 11.4005C34.201 10.3217 33.6972 9.9606 33.6972 9.9606C34.0473 10.586 34.0016 11.4005 32.9467 12.1713C31.8918 12.942 32.0958 14.3288 32.0958 14.3288C32.0958 14.3288 32.0958 13.558 30.5447 12.2745C28.9935 10.9909 26.692 11.1425 25.841 10.9377C24.9901 10.7329 25.4407 9.4478 25.4407 9.4478C24.5898 11.091 24.841 11.8617 27.9432 12.1713C31.0455 12.4808 31.4961 14.74 31.9953 16.1799C32.2972 17.0521 32.4013 17.9835 32.2998 18.9033C30.4975 19.1081 30.0469 20.856 29.6466 20.9076C29.2462 20.9592 28.546 19.4177 28.2964 18.4406C28.0467 17.4634 25.6934 17.2586 24.3386 16.9506C22.9839 16.6426 22.9382 15.5623 22.9382 15.5623C22.1877 15.9735 22.6337 17.0522 23.9383 17.4634C25.2428 17.8746 25.7893 18.0294 27.2871 18.7485C28.785 19.4677 27.9387 20.4449 29.0894 21.4204C30.2402 22.396 31.5402 20.1884 32.3409 19.8789C33.1416 19.5693 33.2923 21.5752 33.8935 23.7874C34.4948 25.9997 36.5955 25.5854 37.6991 26.5109C38.8027 27.4364 39.6505 32.061 39.9504 34.7845C40.2503 37.5079 41.9019 41.6635 42.0023 43.2644C42.1028 44.8654 40.7009 48.6082 40.5502 49.7401C40.3995 50.872 42.1013 55.5982 42.2018 56.7285C42.3022 57.8589 41.602 59.2472 41.5518 60.5323C41.5015 61.8175 42.5016 62.7414 42.902 64.2845C43.3023 65.8276 42.5519 66.6484 42.9522 68.3963C43.3526 70.1442 45.3086 72.1954 48.6575 71.1166C52.0063 70.0379 55.7616 72.4533 55.7616 72.4533C57.2138 73.3836 58.4651 73.0193 59.7163 73.7385ZM43.004 50.8704C42.803 52.8231 43.6539 54.4663 44.6556 56.4721C45.6572 58.478 44.5033 59.3504 44.855 60.1212C45.2066 60.8919 45.7059 62.4334 45.7059 64.5925C45.7059 66.7516 46.0103 67.5208 48.3073 68.3947C50.6044 69.2687 53.6123 68.082 57.0646 68.2384C60.517 68.3947 61.9677 70.0363 63.0697 70.7039C64.1718 71.3715 68.3229 70.7039 69.7233 70.3912C71.1238 70.0785 74.1834 69.9816 74.1834 69.9816C74.1834 69.9816 75.4788 70.1864 74.3782 69.8252C73.2777 69.4641 68.9729 70.2943 66.2207 70.2943C63.4686 70.2943 62.8186 69.8252 60.8671 68.34C58.9156 66.8548 56.1132 67.6208 53.6625 67.4676C51.2117 67.3144 51.1097 66.9533 49.4597 66.5421C47.8096 66.1309 46.7075 61.3516 46.6573 59.6553C46.607 57.959 45.9571 56.5722 45.5567 54.6195C45.1564 52.6668 47.3575 49.7886 47.8081 47.9375C48.2586 46.0864 48.9086 47.2183 51.0595 45.2656C53.2104 43.3129 53.8117 44.3401 56.3142 43.5693C58.8167 42.7985 58.7665 42.0293 59.7696 40.0829C60.7727 38.1364 63.6725 38.5929 63.6725 38.5929C63.6725 38.5929 63.8248 39.3121 63.773 39.6201C63.7212 39.9281 64.0774 40.2877 64.3225 41.2132C64.5676 42.1388 66.3745 41.5728 67.5192 41.2132C68.6639 40.8536 69.0703 41.984 69.0703 41.984C69.0017 41.4323 68.7756 40.9138 68.4203 40.4941C67.8114 39.7749 67.2695 40.3909 65.8173 40.4941C64.3651 40.5972 65.4185 39.8265 65.1673 39.3121C64.9162 38.7978 64.767 37.461 64.9679 36.8451C65.1689 36.2291 66.7185 35.4067 67.5694 34.7892C68.4203 34.1716 70.422 33.2476 71.2729 32.8365C72.1238 32.4253 72.923 31.3981 73.4238 30.2162C73.9246 29.0342 74.7755 28.5715 74.4239 28.6231C74.0723 28.6747 72.8728 28.9826 72.5729 30.0614C72.273 31.1402 71.072 32.1173 69.8207 32.4769C68.5695 32.8365 68.3198 33.0929 68.3198 33.0929C68.0175 32.5804 67.6277 32.1281 67.1691 31.7577C66.3684 31.0886 66.2177 31.3981 66.618 30.9354C67.0184 30.4726 66.5693 29.2906 66.5693 29.2906C66.5693 29.2906 66.169 30.6774 65.8173 31.1402C65.4657 31.6029 67.37 32.7849 67.5192 33.2992C67.6683 33.8136 68.0702 33.9668 65.7184 34.686C63.3666 35.4052 63.7669 36.6402 62.6161 36.9482C61.4653 37.2562 60.8138 37.153 59.3129 37.8222C57.812 38.4913 56.7617 41.2617 55.0599 42.0872C53.358 42.9127 49.8554 43.2691 48.0577 43.5771C46.26 43.8851 44.5247 47.8999 44.5247 47.8999C44.5247 47.8999 44.4196 47.4309 44.7697 45.8863C45.1198 44.3416 45.0057 41.6651 45.0057 41.6651C44.7845 42.9339 44.3437 44.1518 43.7042 45.2609C42.7117 46.9807 43.004 50.8626 43.004 50.8626V50.8704ZM36.8725 70.1708C37.7036 69.8987 38.4678 70.2052 38.8346 70.6492C39.2015 71.0932 39.2 71.8108 39.2 71.8108C39.7997 70.6492 38.5682 69.0092 38.2029 68.2587C37.8376 67.5083 38.7342 65.4227 38.964 64.8755C39.1939 64.3283 39.031 63.9531 39.031 63.4684C39.031 62.9838 40.2625 60.4979 40.2625 60.4979C40.0647 60.8827 39.8185 61.2391 39.5303 61.5579C38.9975 62.1723 38.3993 62.8556 38.3993 63.778C38.3993 64.7004 37.1008 66.1012 36.4371 66.614C35.7735 67.1268 35.1722 67.81 35.2057 68.5948C35.2392 69.3797 34.6075 70.8165 34.6075 70.8165C35.2422 70.5819 36.0399 70.4444 36.8725 70.1708ZM40.5639 61.0154C40.5639 61.0154 39.7662 62.4835 39.6992 63.1338C39.6323 63.7842 39.8317 64.9443 39.3339 65.9683C38.8362 66.9923 38.7022 67.5755 39.1345 68.3603C39.5668 69.1452 39.7997 70.3756 39.7997 70.3756C39.7997 70.3756 41.462 70.1035 42.5275 70.4444C43.5931 70.7852 43.9904 70.7868 43.9904 70.7868C43.9904 70.7868 42.494 70.2052 42.3266 69.3797C42.1591 68.5542 42.427 66.578 42.3936 65.7573C42.3601 64.9365 41.7953 62.8196 41.5624 62.6148C41.3295 62.41 40.9962 61.5626 40.5639 61.0154Z" fill="#191558"/>
</svg>
