<?xml version="1.0" encoding="UTF-8" standalone="no"?>
<svg
   id="a"
   viewBox="0 0 481.66513 360.91653"
   version="1.1"
   sodipodi:docname="logo.svg"
   width="481.66513"
   height="360.91653"
   inkscape:version="1.1 (c68e22c387, 2021-05-23)"
   xmlns:inkscape="http://www.inkscape.org/namespaces/inkscape"
   xmlns:sodipodi="http://sodipodi.sourceforge.net/DTD/sodipodi-0.dtd"
   xmlns="http://www.w3.org/2000/svg"
   xmlns:svg="http://www.w3.org/2000/svg">
  <sodipodi:namedview
     id="namedview80"
     pagecolor="#ffffff"
     bordercolor="#666666"
     borderopacity="1.0"
     inkscape:pageshadow="2"
     inkscape:pageopacity="0.0"
     inkscape:pagecheckerboard="0"
     showgrid="false"
     inkscape:zoom="1.2329942"
     inkscape:cx="439.17483"
     inkscape:cy="248.58187"
     inkscape:window-width="1920"
     inkscape:window-height="1001"
     inkscape:window-x="-9"
     inkscape:window-y="-9"
     inkscape:window-maximized="1"
     inkscape:current-layer="a" />
  <defs
     id="defs7">
    <style
       id="style2">.c{fill:#fff;}.d{fill:#272652;}.e{clip-path:url(#b);}</style>
    <clipPath
       id="b">
      <path
         class="d"
         d="m 275.3,220.84 c -11.12,0.52 -14.22,-8.85 -14.22,-8.85 13.56,-2.29 14.22,8.85 14.22,8.85 z m -10.79,0.41 c 0,0 -0.49,9.86 10.07,13.39 0,0 3.41,-10.63 -10.07,-13.39 z m -10.43,10.43 c 0,0 -0.49,9.86 10.07,13.39 0,0 3.41,-10.63 -10.07,-13.39 z m -3.48,5.39 c 0,0 -4.88,8.59 2.96,16.49 0,0 7.83,-7.96 -2.96,-16.49 z m 6.4,-22 c 0,0 -4.57,8.75 3.54,16.37 0,0 7.54,-8.23 -3.54,-16.37 z m 131.39,22.08 c 0,0 3.11,9.37 14.22,8.85 0,0 -0.66,-11.14 -14.22,-8.85 z m 3.43,9.26 c 0,0 -0.49,9.86 10.07,13.39 0,0 3.41,-10.63 -10.07,-13.39 z m 67.53,-62.23 c 0,0 3.11,9.37 14.22,8.85 0,0 -0.66,-11.14 -14.22,-8.85 z m 3.44,9.26 c 0,0 -0.49,9.86 10.07,13.39 0,0 3.41,-10.63 -10.07,-13.39 z m -63.97,33.28 c 0,0 3.11,9.37 14.22,8.85 0,0 -0.66,-11.14 -14.22,-8.85 z m 3.43,9.26 c 0,0 -0.49,9.86 10.07,13.39 0,0 3.41,-10.63 -10.07,-13.39 z m -17.94,4.25 c 0,0 -4.57,8.75 3.54,16.37 0,0 7.54,-8.23 -3.54,-16.37 z m 62.98,-46.64 c 0,0 3.11,9.38 14.22,8.85 0,0 -0.66,-11.14 -14.22,-8.85 z m 3.43,9.26 c 0,0 -0.49,9.86 10.07,13.39 0,0 3.41,-10.63 -10.07,-13.39 z m -7.51,-6.18 c 0,0 -4.57,8.75 3.54,16.37 0,0 7.54,-8.23 -3.54,-16.37 z m -6.81,6.81 c 0,0 -5.79,11.08 4.48,20.73 0,0 9.55,-10.42 -4.48,-20.73 z m -31.45,-74.62 c 0,0 3.11,9.37 14.22,8.85 0,0 -0.66,-11.14 -14.22,-8.85 z m 3.43,9.26 c 0,0 -0.49,9.86 10.07,13.39 0,0 3.41,-10.63 -10.07,-13.39 z m -7.51,-6.18 c 0,0 -4.57,8.75 3.54,16.37 0,0 7.54,-8.23 -3.54,-16.37 z M 382.06,85.53 c 0,0 4.56,8.76 15.45,6.48 0,0 -2.42,-10.9 -15.45,-6.48 z m 4.86,8.6 c 0,0 1.08,9.82 12.07,11.62 0,0 1.68,-11.04 -12.07,-11.62 z m -8.39,-4.91 c 0,0 -3.12,9.37 6.1,15.6 0,0 6.14,-9.32 -6.1,-15.6 z m -89.43,37.52 c 0,0 6.94,3.04 12.34,-3.56 0,0 -6.69,-5.34 -12.34,3.56 z m 7.03,2.8 c 0,0 5.37,5.34 12.8,1.14 0,0 -4.31,-7.4 -12.8,-1.14 z m -7.37,1.1 c 0,0 2.64,7.1 11.14,6.39 0,0 -0.82,-8.52 -11.14,-6.39 z m 7.3,-38.15 c 0,0 -1.39,-7.44 -9.89,-8.19 0,0 -0.64,8.53 9.89,8.19 z m -1.65,-7.39 c 0,0 1.39,-7.44 -6.27,-11.21 0,0 -3.68,7.73 6.27,11.21 z m 5.07,5.47 c 0,0 4.37,-6.18 -1,-12.8 0,0 -6.58,5.47 1,12.8 z m 9.26,-5.25 c 0,0 6.93,3.04 12.34,-3.56 0,0 -6.69,-5.34 -12.34,3.56 z m 7.03,2.79 c 0,0 5.37,5.34 12.8,1.14 0,0 -4.31,-7.4 -12.8,-1.14 z m -7.37,1.1 c 0,0 2.64,7.1 11.14,6.39 0,0 -0.82,-8.52 -11.14,-6.39 z m 9.55,19.26 c 0,0 7.51,-0.99 8.72,-9.43 0,0 -8.49,-1.11 -8.72,9.43 z m 7.47,-2.47 c 0,0 7.36,1.79 11.54,-5.65 0,0 -7.51,-4.1 -11.54,5.65 z m -5.74,5.99 c 0,0 5.93,4.71 12.84,-0.3 0,0 -5.11,-6.87 -12.84,0.3 z m 22.83,28.13 c 0,0 -2.24,-6.34 -9.8,-5.83 0,0 0.6,7.57 9.8,5.83 z m -2.77,-7.07 c 0,0 0.22,-7.57 -7.92,-10.11 0,0 -2.45,8.2 7.92,10.11 z m 5.85,4.62 c 0,0 3.37,-6.78 -2.96,-12.5 0,0 -5.66,6.42 2.96,12.5 z M 235.5,92.01 c 0,0 -4.11,6.36 1.55,12.75 0,0 6.34,-5.75 -1.55,-12.75 z m -13.88,-4.19 c 0,0 -6.13,4.45 -3.16,12.45 0,0 7.99,-3.07 3.16,-12.45 z m 0.05,0.15 c 0,0 -7.11,-2.6 -12.1,4.32 0,0 7,4.92 12.1,-4.32 z m -36.48,23.17 c 0,0 6.91,-3.09 5.66,-11.53 0,0 -8.45,1.36 -5.66,11.53 z m 6.42,-5.21 c 0,0 7.57,0.01 9.89,-8.2 0,0 -8.26,-2.22 -9.89,8.2 z m -10.58,-0.98 c 0,0 -0.31,-7.56 -8.62,-9.53 0,0 -1.87,8.35 8.62,9.53 z m 4.14,6.04 c 0,0 6.42,4.02 12.73,-1.73 0,0 -5.84,-6.26 -12.73,1.73 z m -0.73,16.36 c 0,0 -7.4,-1.62 -11.4,5.91 0,0 7.6,3.93 11.4,-5.91 z m -8.26,0.38 c 0,0 -6.08,-4.51 -12.82,0.72 0,0 5.33,6.7 12.82,-0.72 z m 8.18,-0.25 c 0,0 -2.77,-7.04 -11.26,-6.17 0,0 0.97,8.5 11.26,6.17 z m 4.05,-12.95 c 0,0 1.5,7.42 10.02,8.04 0,0 0.52,-8.54 -10.02,-8.04 z m 20.26,-11.69 c 0,0 1.5,7.42 10.01,8.04 0,0 0.52,-8.54 -10.01,-8.04 z M 231.7,91.06 c 0,0 -7.42,1.48 -8.08,9.98 0,0 8.54,0.55 8.08,-9.98 z m 5.05,154.91 c 0,0 -0.29,9.87 10.33,13.18 0,0 3.2,-10.7 -10.33,-13.18 z m -4.31,8.3 c 0,0 -6.96,7.01 -1.46,16.69 0,0 9.64,-5.63 1.46,-16.69 z m -3.86,-1.38 c 0,0 -9.86,-0.64 -13.55,9.86 0,0 10.58,3.57 13.55,-9.86 z m 2.3,-3.9 c 0,0 -6.24,-7.66 -16.44,-3.21 0,0 4.58,10.18 16.44,3.21 z m 2.61,-11.04 c 0,0 -6.24,-7.66 -16.44,-3.21 0,0 4.58,10.18 16.44,3.21 z m 9.09,-7.01 c 0,0 -4.68,-5.74 -12.33,-2.41 0,0 3.44,7.63 12.33,2.41 z m 3.85,-3.7 c 0,0 -1.38,-10.19 -12.87,-11.78 0,0 -1.46,11.54 12.87,11.78 z m -0.38,-7.68 c 0,0 3.33,-9.73 -6.22,-16.3 0,0 -6.47,9.66 6.22,16.3 z m -13.97,-8.17 c 0,0 2.56,-7.47 -4.77,-12.5 0,0 -4.96,7.41 4.77,12.5 z m -0.91,10.38 c 0,0 2.56,-7.47 -4.77,-12.5 0,0 -4.96,7.41 4.77,12.5 z m -11.28,-6.28 c 0,0 7.11,-6.49 2.23,-16.17 0,0 -9.65,5.01 -2.23,16.17 z m -13.77,-10.37 c 0,0 9.49,1.61 14.11,-8.2 0,0 -9.89,-4.52 -14.11,8.2 z m -11.45,-2.99 c 0,0 -5.13,8.14 2.15,16.18 0,0 7.98,-7.39 -2.15,-16.18 z m -12.03,9.89 c 0,0 -0.63,9.6 9.6,13.2 0,0 3.49,-10.3 -9.6,-13.2 z m -7.57,11.85 c 0,0 5.09,8.17 15.5,5.12 0,0 -3.18,-10.4 -15.5,-5.12 z m 4.64,12.83 c 0,0 7.09,6.51 16.3,0.79 0,0 -5.84,-9.17 -16.3,-0.79 z m -0.24,4.63 c 0,0 1.55,9.5 12.33,10.7 0,0 1.08,-10.82 -12.33,-10.7 z m -2.68,3.86 c 0,0 -4.24,7.42 2.53,14.27 0,0 6.79,-6.87 -2.53,-14.27 z m -9.17,7.84 c 0,0 -4.24,7.42 2.53,14.27 0,0 6.79,-6.87 -2.53,-14.27 z m -3.58,6.18 c 0,0 -5.72,2.65 -4.57,9.67 0,0 7.02,-1.23 4.57,-9.67 z m 2.08,-8.96 c 0,0 -8.54,0.11 -11.01,9.41 0,0 9.36,2.37 11.01,-9.41 z m 5,-9.45 c 0,0 -2.3,-8.23 -11.92,-8.23 0,0 0.11,9.65 11.92,8.23 z m -10.21,6.41 c 0,0 4.73,-7.12 -1.57,-14.4 0,0 -7.23,6.39 1.57,14.4 z m -17.38,8.98 c 0,0 4.73,-7.12 -1.57,-14.4 0,0 -7.23,6.39 1.57,14.4 z m -12.25,-0.57 c 0,0 7.73,-3.65 6.1,-13.14 0,0 -9.5,1.73 -6.1,13.14 z m -9.92,-8.29 c 0,0 8.44,1.31 12.42,-7.46 0,0 -8.83,-3.89 -12.42,7.46 z m 4.85,-14.61 c 0,0 4.26,7.41 13.59,5.03 0,0 -2.49,-9.33 -13.59,-5.03 z m 11.28,-10.74 c 0,0 -3.95,7.57 3.07,14.16 0,0 6.53,-7.11 -3.07,-14.16 z m 17.42,-8 c 0,0 -6.82,5.15 -3.29,14.11 0,0 8.94,-3.64 3.29,-14.11 z m 16.64,-19.25 c 0,0 -6.82,5.15 -3.29,14.11 0,0 8.94,-3.64 3.29,-14.11 z m -3.84,-1.46 c 0,0 -8.49,0.95 -10.04,10.45 0,0 9.55,1.44 10.04,-10.45 z m -24.39,4.91 c 0,0 -8.49,0.95 -10.03,10.45 0,0 9.54,1.44 10.03,-10.45 z m -0.39,0.2 c 0,0 -7.92,-3.21 -13.8,4.42 0,0 7.71,5.81 13.8,-4.42 z m -9.13,-6.06 c 0,0 -7.92,-3.21 -13.8,4.42 0,0 7.71,5.81 13.8,-4.42 z m -6.55,-12.68 c 0,0 -7.32,0.92 -8.54,9.14 0,0 8.25,1.13 8.54,-9.14 z m -0.99,-1.56 c 0,0 -7.26,-6.17 -16.15,-0.16 0,0 6.12,8.85 16.15,0.16 z m -12.42,-10.77 c 0,0 -9.48,-0.93 -13.36,9.07 0,0 10.08,3.78 13.36,-9.07 z m 11.49,-19.84 c 0,0 -8.76,3.73 -7.37,14.37 0,0 10.65,-1.52 7.37,-14.37 z m -20.04,0 c 0,0 -0.35,9.52 9.88,12.78 0,0 3.15,-10.29 -9.88,-12.78 z m -10.37,16.72 c 0,0 6.88,6.58 16.11,1.11 0,0 -5.59,-9.19 -16.11,-1.11 z m -2.43,-7.96 c 0,0 5.3,5.2 12.55,1.02 0,0 -4.27,-7.22 -12.55,-1.02 z m 31.66,7.8 c 0,0 7.42,0.09 9.77,-7.94 0,0 -8.08,-2.26 -9.77,7.94 z m 8.44,8.44 c 0,0 7.42,0.09 9.77,-7.94 0,0 -8.08,-2.26 -9.77,7.94 z m 3.28,4.62 c 0,0 7.7,4.66 15.09,-2.29 0,0 -7.05,-7.33 -15.09,2.29 z m 23.5,4.76 c 0,0 8.03,-4.06 6.04,-14.01 0,0 -9.95,2.1 -6.04,14.01 z m 28.78,8.71 c 0,0 -2.48,-8.65 -12.63,-8.57 0,0 0.19,10.17 12.63,8.57 z m -28.77,-8.77 c 0,0 8.91,1.27 12.99,-8.02 0,0 -9.36,-3.98 -12.99,8.02 z m 47.43,-0.47 c 0,0 -6.43,-6.3 -15.21,-1.22 0,0 5.18,8.75 15.21,1.22 z m -0.06,0 c 0,0 -1.65,-8.84 -11.76,-9.73 0,0 -0.77,10.14 11.76,9.73 z m -15.35,6.84 c 0,0 1.07,-7.43 -6.67,-10.84 0,0 -3.33,7.8 6.67,10.84 z m 22.85,-4.57 c 0,0 1.07,-7.43 -6.67,-10.84 0,0 -3.33,7.8 6.67,10.84 z m 37.03,7.79 c 0,0 1.71,-8.83 -7.37,-13.37 0,0 -4.44,9.15 7.37,13.37 z m 20.83,0.22 c 0,0 -2.88,-8.53 -13.01,-7.99 0,0 0.66,10.15 13.01,7.99 z m -0.06,-0.02 c 0,0 2.54,-8.63 -6.07,-14 0,0 -5.28,8.69 6.07,14 z m -16.78,-0.86 c 0,0 4.32,-6.14 -1.03,-12.69 0,0 -6.5,5.44 1.03,12.69 z m 22.42,6.3 c 0,0 3.88,-5.51 -0.93,-11.4 0,0 -5.85,4.89 0.93,11.4 z m 7.4,3.89 c 0,0 5.21,-7.39 -1.25,-15.29 0,0 -7.84,6.56 1.25,15.29 z m -34.51,-19.9 c 0,0 4.32,-6.14 -1.03,-12.69 0,0 -6.51,5.44 1.03,12.69 z M 228.1,80.77 c 0,0 2.85,-8.53 -5.55,-14.22 0,0 -5.6,8.49 5.55,14.22 z m 20.62,2.95 c 0,0 -1.73,-8.83 -11.85,-9.63 0,0 -0.68,10.15 11.85,9.63 z m -0.05,-0.03 c 0,0 3.65,-8.22 -4.18,-14.68 0,0 -6.38,7.92 4.18,14.68 z m -16.52,-3.06 c 0,0 5.09,-5.51 0.64,-12.71 0,0 -7.16,4.54 -0.64,12.71 z m 21.42,9.18 c 0,0 5.09,-5.51 0.64,-12.71 0,0 -7.17,4.54 -0.64,12.71 z m -39.31,68.39 c 0,0 1.07,-7.43 -6.67,-10.84 0,0 -3.33,7.8 6.67,10.84 z m -1.82,-10.45 c 0,0 0.86,-5.93 -5.33,-8.66 0,0 -2.66,6.23 5.33,8.66 z m 9.47,10.74 c 0,0 7.28,-1.82 7.51,-10.28 0,0 -8.48,-0.13 -7.51,10.28 z m 11.92,9.01 c 0,0 0.43,7.49 8.69,9.3 0,0 1.72,-8.31 -8.69,-9.3 z m 3.07,-2.33 c 0,0 5.11,5.5 12.63,1.61 0,0 -3.98,-7.49 -12.63,-1.61 z m 0.68,-3.33 c 0,0 7.5,0 9.78,-8.15 0,0 -8.19,-2.19 -9.78,8.15 z m 10.46,-0.79 c 0,0 3.14,3.38 7.77,0.99 0,0 -2.45,-4.61 -7.77,-0.99 z m 0.41,-2.05 c 0,0 4.62,0 6.02,-5.01 0,0 -5.04,-1.35 -6.02,5.01 z m 13.65,21.36 c 0,0 3.73,-2.72 1.9,-7.6 0,0 -4.87,1.89 -1.9,7.6 z m -1.98,-0.65 c 0,0 0.55,-4.58 -4.27,-6.57 0,0 -1.93,4.85 4.27,6.57 z m 5.43,-50.55 c 0,0 5.61,-1.64 5.53,-8.24 0,0 -6.61,0.16 -5.53,8.24 z m 6.07,12.1 c 0,0 4.07,-4.2 0.74,-9.89 0,0 -5.67,3.4 -0.74,9.89 z m 0,-0.04 c 0,0 5.74,-1.1 6.28,-7.68 0,0 -6.59,-0.47 -6.28,7.68 z m -4.5,-9.95 c 0,0 4.83,0.67 7.02,-4.37 0,0 -5.08,-2.14 -7.02,4.37 z m 5.44,-11.74 c 0,0 4.83,0.67 7.03,-4.37 0,0 -5.08,-2.14 -7.03,4.37 z m 46.15,49.8 c 0,0 3.27,-2.38 1.67,-6.66 0,0 -4.27,1.65 -1.67,6.66 z m -1.74,-0.57 c 0,0 0.48,-4.02 -3.74,-5.76 0,0 -1.7,4.25 3.74,5.76 z m -17.25,-21.99 c 0,0 2.85,2.87 6.83,0.64 0,0 -2.28,-3.97 -6.83,-0.64 z m 0.3,-1.81 c 0,0 4.04,-0.13 5.12,-4.57 0,0 -4.45,-1.03 -5.12,4.57 z m 1.26,-30.55 c 0,0 -2.28,3.34 0.67,6.83 0,0 3.46,-2.99 -0.67,-6.83 z m 1.83,-0.04 c 0,0 0.9,3.95 5.46,4.17 0,0 0.17,-4.57 -5.46,-4.17 z m 6.4,-11.54 c 0,0 3.94,-0.93 4.11,-5.49 0,0 -4.57,-0.13 -4.11,5.49 z m -1.38,0.02 c 0,0 2,-3.52 -1.22,-6.76 0,0 -3.21,3.26 1.22,6.76 z m 7.74,47.26 c 0,0 1.85,-9.57 -7.98,-14.49 0,0 -4.81,9.91 7.98,14.49 z m 22.57,0.23 c 0,0 -3.11,-9.24 -14.1,-8.66 0,0 0.71,11 14.1,8.66 z m -18.25,-0.96 c 0,0 4.68,-6.65 -1.12,-13.75 0,0 -7.05,5.9 1.12,13.75 z m -5.08,-10.52 c 0,0 4.68,-6.65 -1.12,-13.75 0,0 -7.05,5.9 1.12,13.75 z m 12.47,-0.71 c 0,0 4.04,-2.95 2.06,-8.23 0,0 -5.27,2.04 -2.06,8.23 z m -2.15,-0.71 c 0,0 0.59,-4.97 -4.62,-7.12 0,0 -2.1,5.25 4.62,7.12 z M 357.22,69.3 c 0,0 -5.98,-4.75 -12.95,0.3 0,0 5.15,6.93 12.95,-0.3 z m 8.33,-15.6 c 0,0 -7.55,-1.18 -11.12,6.66 0,0 7.9,3.49 11.12,-6.66 z m -7.27,12.33 c 0,0 -2.92,-5.66 -9.96,-4.2 0,0 1.55,7.03 9.96,4.2 z m -9.15,-0.28 c 0,0 -2.92,-5.66 -9.96,-4.2 0,0 1.54,7.03 9.96,4.2 z m 4.02,-8.92 c 0,0 -0.59,-3.88 -4.97,-4.41 0,0 -0.49,4.4 4.97,4.41 z m -1.27,1.24 c 0,0 -3.24,-2.21 -6.62,0.63 0,0 2.89,3.36 6.62,-0.63 z m -7.61,60.65 c 0,0 -5.11,-5.18 -12.28,-1.2 0,0 4.07,7.14 12.28,1.2 z m 9.67,-13.78 c 0,0 -7,-1.98 -11.27,5.02 0,0 7.07,4.2 11.27,-5.02 z m -8.29,10.82 c 0,0 -2.11,-5.69 -8.93,-5.11 0,0 0.65,6.82 8.93,5.11 z m -3.79,-9.28 c 0,0 -0.11,-3.73 -4.19,-4.74 0,0 -0.97,4.11 4.19,4.74 z m -1.34,1.02 c 0,0 -2.81,-2.46 -6.33,-0.16 0,0 2.35,3.51 6.33,0.16 z m -60.79,76.54 c 0,0 3.73,-2.72 1.9,-7.6 0,0 -4.87,1.89 -1.9,7.6 z m -1.98,-0.65 c 0,0 0.55,-4.58 -4.27,-6.57 0,0 -1.93,4.85 4.27,6.57 z M 234.7,163.92 c 0,0 4.68,-7.79 -2.37,-15.23 0,0 -7.38,7.15 2.37,15.23 z m -60.13,-21.2 c 0,0 -1.61,-7.33 -10.06,-7.8 0,0 -0.38,8.47 10.06,7.8 z m -2.66,2.79 c 0,0 -5.92,-4.62 -12.72,0.41 0,0 5.12,6.77 12.72,-0.41 z m -19.38,37.58 c 0,0 -5.92,-4.62 -12.72,0.41 0,0 5.12,6.77 12.72,-0.41 z m 23.02,-36.95 c 0,0 -7.41,1.18 -8.37,9.59 0,0 8.44,0.86 8.37,-9.59 z m 83.8,7.71 c 0,0 4.68,-7.79 -2.37,-15.23 0,0 -7.38,7.15 2.37,15.23 z m -10.76,-5.89 c 0,0 7.95,-4.4 5.58,-14.37 0,0 -9.96,2.49 -5.58,14.37 z m -10.03,5.44 c 0,0 7.95,-4.4 5.58,-14.37 0,0 -9.97,2.49 -5.58,14.37 z m -8.55,-7.75 c 0,0 7.34,0.26 9.85,-7.64 0,0 -7.94,-2.42 -9.85,7.64 z m -3.98,-5.13 c 0,0 7.81,-4 5.83,-13.71 0,0 -9.7,2.1 -5.83,13.71 z m -4.62,-2.77 c 0,0 8.72,-1.04 10.23,-10.82 0,0 -9.82,-1.41 -10.23,10.82 z m -6.04,-6.04 c 0,0 8.72,-1.04 10.23,-10.82 0,0 -9.82,-1.41 -10.23,10.82 z m -5.75,-1.14 c 0,0 6.18,-6.24 1.27,-14.84 0,0 -8.56,5.02 -1.27,14.84 z m -9.36,-13.8 c 0,0 4.73,2.46 8.83,-1.94 0,0 -4.45,-4.06 -8.83,1.94 z m -7.99,30.31 c 0,0 8.39,1.18 12.21,-7.59 0,0 -8.83,-3.73 -12.21,7.59 z m -3.84,4.72 c 0,0 5.73,6.25 14.25,1.91 0,0 -4.44,-8.49 -14.25,-1.91 z m -2.31,-3.92 c 0,0 5.33,-0.61 6.29,-6.59 0,0 -6,-0.89 -6.29,6.59 z m -13.64,-34.14 c 0,0 -6.68,-5.22 -14.37,0.46 0,0 5.78,7.65 14.37,-0.46 z m 5.69,-2.16 c 0,0 -1.84,-8.27 -11.39,-8.78 0,0 -0.4,9.57 11.39,8.78 z m 0.04,4.55 c 0,0 -4.92,-2.14 -8.74,2.56 0,0 4.76,3.77 8.74,-2.56 z m 19.57,22 c 0,0 6.35,-5.85 1.92,-14.53 0,0 -8.64,4.54 -1.92,14.53 z M 183.26,98.96 c 0,0 6.35,-5.85 1.92,-14.53 0,0 -8.64,4.54 -1.92,14.53 z m 36.53,58.33 c 0,0 4.78,-8.92 -3.46,-16.81 0,0 -7.82,8.35 3.46,16.81 z M 95.17,144.51 c 0,0 0.44,7.41 8.62,9.18 0,0 1.68,-8.22 -8.62,-9.18 z M 144,198.8 c 0,0 -1.77,4.57 2.65,7.88 0,0 3.27,-4.47 -2.65,-7.88 z m 1.42,-0.9 c 0,0 3.6,5.54 10.71,3.31 0,0 -2.32,-7.1 -10.71,-3.31 z m -19.81,27.14 c 0,0 1.78,5.61 8.42,5.38 0,0 -0.31,-6.65 -8.42,-5.38 z m 58.7,-64.17 c 0,0 -6.01,4.5 -2.95,12.39 0,0 7.87,-3.16 2.95,-12.39 z m -6.1,8.67 c 0,0 -4.8,3.59 -2.35,9.89 0,0 6.29,-2.52 2.35,-9.89 z m -16.11,-3.42 c 0,0 -7.13,-2.33 -11.82,4.72 0,0 7.11,4.62 11.82,-4.72 z m -10.6,0 c 0,0 -5.7,-1.86 -9.44,3.77 0,0 5.68,3.69 9.44,-3.77 z m 27.76,-11.31 c 0,0 -7.11,-2.4 -11.87,4.59 0,0 7.06,4.7 11.87,-4.59 z m 0.52,2.81 c 0,0 -9.69,2.93 -9.44,14.34 0,0 11.43,-0.38 9.44,-14.34 z m 69.52,-39.8 c 0,0 -6.61,-3.55 -12.47,2.56 0,0 6.19,5.8 12.47,-2.56 z m -16.91,-8.4 c 0,0 -5.28,-2.83 -9.96,2.05 0,0 4.94,4.63 9.96,-2.05 z m 20.26,1.25 c 0,0 -0.83,-7.46 -9.18,-8.82 0,0 -1.27,8.39 9.18,8.82 z m -2.33,1.66 c 0,0 -6.75,-7.54 -16.98,-2.5 0,0 5.17,10.2 16.98,2.5 z m 82.7,47.98 c 0,0 -5.44,-5.17 -12.7,-0.82 0,0 4.44,7.23 12.7,0.82 z m -9.58,-4.56 c 0,0 -4.35,-4.13 -10.15,-0.66 0,0 3.54,5.77 10.15,0.66 z m -11.87,14.4 c 0,0 -1.48,-5.81 -8.23,-5.96 0,0 -0.08,6.77 8.23,5.96 z m -16.18,-29.2 c 0,0 -1.12,-4.39 -6.23,-4.51 0,0 -0.06,5.12 6.23,4.51 z m 40.07,14.42 c 0,0 -3.35,-6.73 -11.67,-5.12 0,0 1.7,8.32 11.67,5.12 z M 320.87,54.27 c 0,0 -3.82,6.54 2.12,12.67 0,0 6.07,-6.03 -2.12,-12.67 z m 21.92,5.8 c 0,0 0.22,-7.57 -7.92,-10.11 0,0 -2.45,8.2 7.92,10.11 z m -32.63,15.1 c 0,0 1.85,-9.57 -7.98,-14.49 0,0 -4.81,9.91 7.98,14.49 z m -7.23,-0.29 c 0,0 -3.11,-9.24 -14.1,-8.66 0,0 0.71,11 14.1,8.66 z m 12.43,2.2 c 0,0 4.68,-6.65 -1.12,-13.75 0,0 -7.05,5.9 1.12,13.75 z m 16.48,-8.95 c 0,0 4.68,-6.65 -1.12,-13.75 0,0 -7.05,5.9 1.12,13.75 z m -6.29,6.13 c 0,0 4.04,-2.95 2.06,-8.23 0,0 -5.27,2.04 -2.06,8.23 z m -2.15,-0.71 c 0,0 0.59,-4.97 -4.62,-7.12 0,0 -2.1,5.25 4.62,7.12 z m -11.63,5.36 c 0,0 -4.35,-4.13 -10.15,-0.66 0,0 3.54,5.77 10.15,0.66 z m 17.46,1.72 c 0,0 -3.35,-6.73 -11.67,-5.12 0,0 1.7,8.32 11.67,5.12 z m 1.34,14.99 c 0,0 10.56,-1.31 12.33,-13.18 0,0 -11.91,-1.64 -12.33,13.18 z m 5.01,-19.3 c 0,0 6.08,6.46 14.94,1.8 0,0 -4.77,-8.82 -14.94,-1.8 z m -0.53,-1.43 c 0,0 5.36,-3.75 2.92,-10.7 0,0 -6.94,2.53 -2.92,10.7 z m -5.95,11.8 c 0,0 4.68,-1.25 4.74,-6.72 0,0 -5.48,0 -4.74,6.72 z m 34.27,4.65 c 0,0 -8.52,-1.64 -12.88,7.11 0,0 8.82,4.27 12.88,-7.11 z m -12.16,1.53 c 0,0 -6.8,-1.31 -10.29,5.68 0,0 7.05,3.41 10.29,-5.68 z m 13.4,-10.56 c 0,0 -3.47,-7.95 -13.16,-6.58 0,0 1.48,9.69 13.16,6.58 z m -2,2.63 c 0,0 -10.03,-6.01 -19.6,3.08 0,0 9.21,9.48 19.6,-3.08 z m -80.22,29.16 c 0,0 0,-8.67 -9.42,-11.3 0,0 -2.52,9.47 9.42,11.3 z m -5.85,-12.47 c 0,0 0,-6.93 -7.53,-9.02 0,0 -2.01,7.57 7.53,9.02 z m 14.14,8.29 c 0,0 7.15,-4.92 3.97,-14.17 0,0 -9.24,3.29 -3.97,14.17 z m -3.78,0.58 c 0,0 3.99,-10.99 -6.74,-18.66 0,0 -7.56,10.85 6.74,18.66 z m 82.2,23.86 c 0,0 4.09,7.32 13.29,5.1 0,0 -2.34,-9.19 -13.29,-5.1 z m 8.71,8.04 c 0,0 3.27,5.85 10.61,4.07 0,0 -1.87,-7.34 -10.61,-4.07 z m -15.59,-0.33 c 0,0 -3.72,7.52 3.33,13.84 0,0 6.25,-7.13 -3.33,-13.84 z m 2.62,-3.17 c 0,0 1.81,11.17 14.49,12.58 0,0 1.27,-12.72 -14.49,-12.58 z m 20.26,59.24 c 0,0 -11.27,-1.57 -16.39,10.21 0,0 11.86,4.99 16.39,-10.21 z m -1.13,-26.33 c 0,0 -10.58,4.2 -9.22,16.97 0,0 12.78,-1.51 9.22,-16.97 z m -0.02,0.07 c 0,0 -11.08,-2.62 -17.28,8.62 0,0 11.34,6.09 17.28,-8.62 z m 0.04,21.27 c 0,0 -8.04,-5.05 -15.97,2.16 0,0 7.31,7.85 15.97,-2.16 z m 6.45,-28.76 c 0,0 -7.23,-4.54 -14.35,1.94 0,0 6.57,7.06 14.35,-1.94 z m 4.42,-9.61 c 0,0 -9.7,-6.08 -19.24,2.6 0,0 8.82,9.47 19.24,-2.6 z m -22.83,44.96 c 0,0 -8.04,-5.05 -15.97,2.16 0,0 7.32,7.86 15.97,-2.16 z m -26.53,37.75 c 0,0 -2.79,-9.08 -13.5,-8.8 0,0 0.41,10.73 13.5,8.8 z m 10.58,-15.67 c 0,0 9.44,-1.04 11.16,-11.61 0,0 -10.61,-1.61 -11.16,11.61 z m -3.15,-3.72 c 0,0 6.6,-6.83 1.19,-16.07 0,0 -9.2,5.53 -1.19,16.07 z m -4.25,-0.63 c 0,0 -0.5,-9.48 -10.95,-11.81 0,0 -2.22,10.5 10.95,11.81 z m -1.71,-13.17 c 0,0 4.06,-4.2 0.73,-9.88 0,0 -5.66,3.4 -0.73,9.88 z m -2.62,-0.38 c 0,0 -0.31,-5.84 -6.74,-7.27 0,0 -1.37,6.46 6.74,7.27 z m 26.07,-18.68 c 0,0 -3.69,-4.53 -9.73,-1.89 0,0 2.71,6.02 9.73,1.89 z m -0.69,2.55 c 0,0 -5.83,-0.39 -8.01,5.83 0,0 6.25,2.12 8.01,-5.83 z m 4.16,-25.06 c 0,0 -3.69,-4.53 -9.73,-1.9 0,0 2.71,6.02 9.73,1.9 z m -0.69,2.55 c 0,0 -5.83,-0.39 -8.02,5.83 0,0 6.26,2.12 8.02,-5.83 z m -21.7,55.71 c 0,0 -10.16,-5.38 -19.09,4.03 0,0 9.53,8.84 19.09,-4.03 z M 337.11,190.5 c 0,0 -10.16,-5.39 -19.09,4.03 0,0 9.53,8.84 19.09,-4.03 z m -6.72,13.99 c 0,0 -6.1,-9.75 -18.54,-6.08 0,0 3.82,12.43 18.54,6.08 z m 7.55,12.31 c 0,0 -6.09,-9.75 -18.54,-6.08 0,0 3.82,12.43 18.54,6.08 z m -9.21,11.32 c 0,0 -0.16,-9.3 -10.31,-11.94 0,0 -2.53,10.2 10.31,11.94 z m 15.18,-55.13 c 0,0 -7.52,5.8 -3.51,15.72 0,0 9.91,-4.14 3.51,-15.72 z m 4.62,1.54 c 0,0 -2.1,9.26 7.33,14.35 0,0 4.99,-9.5 -7.33,-14.35 z m 2.4,-1.63 c 0,0 4.53,6.65 13.13,3.74 0,0 -3.02,-8.59 -13.13,-3.74 z m -2.68,-1.58 c 0,0 11.48,-0.67 14.22,-13.35 0,0 -12.74,-2.6 -14.22,13.35 z m 42.94,19.04 c 0,0 7.85,-5.11 4.68,-15.18 0,0 -10.06,3.29 -4.68,15.18 z m 0,-0.06 c 0,0 9.36,0.32 12.54,-9.75 0,0 -10.13,-3.07 -12.54,9.75 z m -3.48,-17.14 c 0,0 7.31,2.76 12.52,-4.33 0,0 -7.17,-5.15 -12.52,4.33 z m -0.54,24.24 c 0,0 6.57,2.49 11.26,-3.89 0,0 -6.45,-4.63 -11.26,3.89 z m -2.01,8.47 c 0,0 8.81,3.33 15.09,-5.22 0,0 -8.65,-6.21 -15.09,5.22 z m 14.76,-28.53 c 0,0 3.71,3.05 8.15,-0.05 0,0 -3.16,-4.42 -8.15,0.05 z m 0.14,-2.17 c 0,0 4.77,-0.64 5.52,-6 0,0 -5.39,-0.69 -5.52,6 z m 65.71,4.62 c 0,0 3.71,3.05 8.15,-0.05 0,0 -3.16,-4.42 -8.15,0.05 z m 0.14,-2.17 c 0,0 4.77,-0.64 5.52,-6 0,0 -5.39,-0.69 -5.52,6 z m -43.5,42.8 c 0,0 4.45,3.67 9.79,-0.06 0,0 -3.8,-5.3 -9.79,0.06 z m 0.17,-2.61 c 0,0 5.72,-0.76 6.62,-7.21 0,0 -6.47,-0.83 -6.62,7.21 z m 16.29,20.07 c 0,0 -0.91,5.7 5,8.42 0,0 2.66,-5.96 -5,-8.42 z m 2.34,-1.17 c 0,0 3.55,4.55 9.57,2.07 0,0 -2.55,-6 -9.57,-2.07 z m -40.44,-40.67 c 0,0 3.71,3.06 8.15,-0.05 0,0 -3.16,-4.42 -8.15,0.05 z m 0.14,-2.17 c 0,0 4.77,-0.63 5.52,-6 0,0 -5.39,-0.69 -5.52,6 z m -7.08,-45.33 c 0,0 5.12,-5.89 0.28,-13.25 0,0 -7.32,4.94 -0.28,13.25 z m 25.47,33.86 c 0,0 0.19,-7.81 -8.24,-10.38 0,0 -2.48,8.47 8.24,10.38 z m -1.67,1.7 c 0,0 -4.74,-4.63 -11.2,-0.88 0,0 3.83,6.43 11.2,0.88 z m 2.41,0.84 c 0,0 -9.15,2.41 -9.3,13.08 0,0 10.69,0.03 9.3,-13.08 z m -10.68,-67.57 c 0,0 1.07,-7.43 -6.67,-10.84 0,0 -3.33,7.8 6.67,10.84 z m -1.82,-10.45 c 0,0 0.86,-5.93 -5.33,-8.66 0,0 -2.66,6.23 5.33,8.66 z m 10.9,11.16 c 0,0 6.73,-3.33 5.15,-11.64 0,0 -8.31,1.67 -5.15,11.64 z m -3.58,-1.62 c 0,0 4.78,-8.92 -3.46,-16.81 0,0 -7.82,8.35 3.46,16.81 z M 223.32,101.03 c 0,0 -5.43,3.42 -3.37,10.36 0,0 6.93,-2.15 3.37,-10.36 z m 49.53,58.9 c 0,0 -4.26,-6.18 -12.26,-3.43 0,0 2.85,7.99 12.26,3.43 z m -1.41,3.58 c 0,0 -7.22,-2.05 -11.63,5.18 0,0 7.29,4.34 11.63,-5.18 z m 1.19,1.96 c 0,0 -5.44,3.3 -3.5,10.21 0,0 6.9,-2.02 3.5,-10.21 z m 1.36,-2.04 c 0,0 0.05,9.09 9.94,11.78 0,0 2.59,-9.94 -9.94,-11.78 z m 21.66,-2.26 c 0,0 -0.43,7.49 7.58,10.23 0,0 2.65,-8.06 -7.58,-10.23 z m 3.32,-1.96 c 0,0 4.45,6.05 12.36,3.04 0,0 -3.1,-7.9 -12.36,-3.04 z m 0.26,-2.27 c 0,0 6.32,0.73 9.03,-5.91 0,0 -6.69,-2.64 -9.03,5.91 z M 403.59,79.52 c 0,0 1.41,3.79 5.96,3.41 0,0 -0.44,-4.55 -5.96,-3.41 z M 404.61,78 c 0,0 3.74,1.55 6.55,-2.04 0,0 -3.63,-2.78 -6.55,2.04 z m 12.3,11.24 c 0,0 5.65,-7.95 -1.28,-16.49 0,0 -8.48,7.04 1.28,16.49 z m 20.45,9.54 c 0,0 0.98,-9.7 -9.26,-13.71 0,0 -3.9,10.31 9.26,13.71 z m -16.22,-8.42 c 0,0 7.01,-4.12 4.66,-12.98 0,0 -8.86,2.46 -4.66,12.98 z m 11.37,-7.17 c 0,0 4.9,-1.01 5.28,-6.64 0,0 -5.65,-0.32 -5.28,6.64 z m -1.67,-1.53 c 0,0 2.59,-4.28 -1.27,-8.39 0,0 -4.08,3.92 1.27,8.39 z m -9.39,15.87 c 0,0 -2.25,-5.55 -8.97,-4.79 0,0 0.84,6.72 8.97,4.79 z m 11.1,4.62 c 0,0 -0.27,-7.51 -8.51,-9.49 0,0 -1.89,8.28 8.51,9.49 z M 398.94,88.6 c 0,0 5.45,3.28 10.67,-1.65 0,0 -5,-5.17 -10.67,1.65 z m -13.37,30.91 c 0,0 2.87,-2.85 0.65,-6.83 0,0 -3.97,2.28 -0.65,6.83 z m -1.81,-0.31 c 0,0 -0.13,-4.04 -4.56,-5.13 0,0 -1.04,4.45 4.56,5.13 z m 11.99,0.79 c 0,0 0.74,-6.32 -5.9,-9.04 0,0 -2.65,6.69 5.9,9.04 z m -98.87,37.72 c 0,0 5.54,-7.21 -0.62,-15.4 0,0 -8.14,6.26 0.62,15.4 z M 375.74,37.28 c 0,0 5.37,5.34 12.8,1.14 0,0 -4.31,-7.4 -12.8,-1.14 z m -7.37,1.1 c 0,0 2.64,7.1 11.14,6.39 0,0 -0.82,-8.52 -11.14,-6.39 z m 10.96,16.1 c 0,0 2.85,2.87 6.83,0.64 0,0 -2.28,-3.97 -6.83,-0.64 z m 0.3,-1.81 c 0,0 4.04,-0.13 5.12,-4.57 0,0 -4.45,-1.03 -5.12,4.57 z m 15.85,5.15 c 0,0 1.85,-9.57 -7.98,-14.49 0,0 -4.81,9.91 7.98,14.49 z m 22.57,0.23 c 0,0 -3.11,-9.24 -14.1,-8.66 0,0 0.71,11 14.1,8.66 z M 399.8,57.09 c 0,0 4.68,-6.65 -1.12,-13.75 0,0 -7.05,5.9 1.12,13.75 z m -5.08,-10.52 c 0,0 4.68,-6.65 -1.12,-13.75 0,0 -7.05,5.9 1.12,13.75 z m 12.47,-0.71 c 0,0 4.04,-2.95 2.06,-8.23 0,0 -5.27,2.04 -2.06,8.23 z m -2.15,-0.71 c 0,0 0.6,-4.97 -4.62,-7.12 0,0 -2.1,5.25 4.62,7.12 z m 23.51,22.89 c 0,0 -5.44,-5.17 -12.7,-0.82 0,0 4.44,7.23 12.7,0.82 z m -25.5,-4.56 c 0,0 -4.35,-4.13 -10.15,-0.66 0,0 3.54,5.77 10.15,0.66 z M 375,48.68 c 0,0 -1.12,-4.39 -6.23,-4.51 0,0 -0.06,5.12 6.23,4.51 z m 3.6,18.25 c 0,0 4.45,6.05 12.36,3.04 0,0 -3.1,-7.9 -12.36,-3.04 z m 0.26,-2.27 c 0,0 6.32,0.73 9.03,-5.91 0,0 -6.69,-2.64 -9.03,5.91 z m -2.33,0.78 c 0,0 5.54,-7.21 -0.62,-15.4 0,0 -8.14,6.26 0.62,15.4 z m 2.76,188.34 c 0,0 -3.07,-4.97 -9.4,-3.13 0,0 1.91,6.32 9.4,3.13 z m -1.02,2.44 c 0,0 -5.73,-1.13 -8.7,4.75 0,0 5.93,2.91 8.7,-4.75 z M 347,257.23 c 0,0 -8.21,4.78 -5.51,15.14 0,0 10.36,-2.83 5.51,-15.14 z m 3.57,4.58 c 0,0 -3.28,8.91 5.42,15.17 0,0 6.17,-8.78 -5.42,-15.17 z m 4.63,-0.9 c 0,0 3.64,7.18 12.54,5.4 0,0 -1.89,-8.9 -12.54,-5.4 z m -2.45,-1.92 c 0,0 11.47,0.81 15.83,-11.41 0,0 -12.29,-4.22 -15.83,11.41 z m 70.47,-85.84 c 0,0 3.06,-9.39 -6.21,-15.56 0,0 -6.08,9.37 6.21,15.56 z m 0,77.31 c 0,0 3.06,-9.39 -6.21,-15.56 0,0 -6.08,9.36 6.21,15.56 z m -25.57,-90.27 c 0,0 3.85,4.39 9.79,1.53 0,0 -2.93,-5.92 -9.79,-1.53 z m 0.59,-2.57 c 0,0 5.84,0.17 7.8,-6.12 0,0 -6.33,-1.89 -7.8,6.12 z m 55.99,9.61 c 0,0 7.3,-6.07 2.93,-15.84 0,0 -9.75,4.5 -2.93,15.84 z m -4.67,-1.37 c 0,0 1.75,-9.33 -7.85,-14.07 0,0 -4.63,9.68 7.85,14.07 z m -2.34,1.72 c 0,0 -4.78,-6.48 -13.27,-3.25 0,0 3.34,8.47 13.27,3.25 z m 2.73,1.49 c 0,0 -11.45,1.1 -13.72,13.87 0,0 12.83,2.13 13.72,-13.87 z M 219.37,373.35 c -8.42,-0.31 -14.34,0.93 -19.64,6.55 -5.3,5.61 -11.22,6.55 -11.22,6.55 0,0 3.74,1.87 17.15,-4.99 13.41,-6.86 23.16,9.38 43.74,1.59 20.58,-7.79 14.87,-15.62 17.99,-21.85 3.12,-6.24 6.23,-5.3 9.98,-11.54 3.74,-6.23 4.36,-10.91 10.29,-18.39 5.92,-7.48 0.63,-29.93 -5.3,-39.91 -5.92,-9.98 6.23,-43.02 7.48,-53 1.25,-9.98 1.87,-18.4 -5.61,-29 -7.48,-10.6 -19.64,-9.04 -28.37,-9.98 -8.73,-0.94 -14.65,-4.68 -18.71,-6.86 -4.05,-2.18 -5.3,-20.27 -8.73,-24.32 -3.43,-4.05 -7.17,-4.05 -20.27,-4.37 -13.09,-0.31 -19.33,-2.18 -24.01,-10.29 -4.68,-8.11 7.91,-12.45 8.42,-22.14 0.26,-5.03 -6.55,-10.91 -9.35,-14.03 -2.81,-3.12 -0.31,-14.65 -0.94,-12.47 -0.62,2.18 -1.56,6.86 -2.8,10.6 -1.25,3.74 4.99,8.73 6.86,13.72 1.87,4.99 -4.37,8.73 -6.55,11.85 -2.18,3.12 -4.05,11.22 4.37,23.07 8.42,11.85 33.67,3.74 39.28,8.73 5.61,4.99 5.61,17.46 5.61,17.46 0,0 -8.42,-1.25 -18.08,-3.12 -9.66,-1.87 -23.7,10.29 -26.5,10.91 -2.81,0.62 -13.72,-9.04 -19.95,-10.91 -6.23,-1.87 -13.1,3.74 -18.39,4.37 -5.3,0.62 -10.6,-4.05 -12.16,-7.79 -1.56,-3.74 -5.61,-9.98 -7.17,-11.85 -1.56,-1.87 -4.48,-4.15 -9.77,-5.09 -5.29,-0.94 -11.43,-4.89 -11.43,-4.89 0,0 7.26,6.98 14.5,10.37 5.78,2.7 9.03,12.3 13.39,20.41 4.36,8.11 12.01,3.21 19.81,2.27 7.8,-0.94 8.11,-3.43 16.21,1.25 8.11,4.68 10.6,5.61 10.6,5.61 0,0 -0.94,2.81 -2.18,4.36 -1.25,1.56 -9.04,11.54 -11.22,12.47 -2.18,0.93 -7.17,6.23 -7.17,9.04 0,2.81 -4.99,4.99 -9.04,4.68 -4.05,-0.31 -5.92,3.12 -6.55,6.24 -0.62,3.12 -7.48,4.99 -7.48,4.99 0,0 -2.49,0.31 1.25,0.62 3.74,0.31 9.04,-2.81 9.35,-6.55 0.31,-3.74 7.79,-0.94 12.47,-3.12 4.68,-2.18 3.74,-4.99 6.86,-4.99 3.12,0 7.21,8.28 7.75,12.26 0.3,2.23 -2.68,4.52 -6.11,6.7 -3.43,2.18 -1.33,6.91 -1.33,6.91 -0.07,-5 5.61,-5.92 8.42,-7.79 2.81,-1.87 4.05,-9.04 -0.93,-14.65 -4.99,-5.61 2.81,-12.47 4.99,-17.15 2.18,-4.68 19.33,-16.84 24.32,-19.33 4.99,-2.49 18.71,-0.62 21.82,0.62 3.12,1.25 15.9,8.11 19.64,8.73 3.74,0.62 15.9,0.62 15.9,0.62 0,0 -10.6,4.37 -11.85,6.86 -1.25,2.49 -1.87,6.86 -1.25,12.16 0.62,5.3 -1.25,11.85 -2.49,13.41 -1.25,1.56 -8.73,1.56 -12.16,6.23 -3.43,4.68 -0.62,10.91 -0.62,10.91 v -5.3 c 0,-5.3 4.05,-6.86 9.98,-8.73 5.92,-1.87 6.86,-3.12 7.48,-10.6 0.62,-7.48 1.87,-16.52 7.48,-19.64 5.61,-3.12 15.28,-4.68 22.45,9.67 7.17,14.34 -4.37,31.8 -7.48,41.47 -3.12,9.67 2.18,20.89 3.43,28.68 1.25,7.79 2.18,9.35 -1.25,19.02 -3.43,9.66 -4.99,13.72 -3.43,24.32 1.56,10.6 -4.05,11.22 -10.91,17.77 -6.86,6.55 -7.17,16.84 -7.17,16.84 -1.87,8.11 -25.25,4.05 -33.67,3.74 z m 65.16,-87.4 c 0.5,4.76 3.76,7.52 7.77,17.54 4.01,10.02 3.26,20.3 3.26,20.3 l 3.26,-6.52 c 3.26,-6.52 -1.25,-21.8 -3.76,-32.58 -2.5,-10.78 -2.37,-16.41 1.75,-27.07 5.76,-14.89 -4.01,-32.58 -4.01,-32.58 0,0 0.41,10.17 0.16,17.69 -0.25,7.52 -4.17,15.14 -4.17,15.14 -5.76,14.28 -4.76,23.31 -4.26,28.07 z m 107.01,106.51 c 6.26,3.51 30.83,-1.25 20.05,-2.01 -0.52,-0.04 -1.02,-0.07 -1.51,-0.09 -9.74,-0.5 -14.5,0.91 -23.8,-7.68 -9.77,-9.02 -25.56,-9.77 -44.61,-12.03 -19.05,-2.26 -25.56,-13.03 -23.56,-22.3 2,-9.27 -7.52,-21.8 -6.01,-30.07 1.5,-8.27 -2.01,-14.53 -4.26,-19.55 -2.26,-5.01 -3.26,-15.54 -3.01,-27.57 0.25,-12.03 7.27,-25.81 7.77,-34.33 0.5,-8.52 -2.51,-12.03 -7.02,-28.82 -4.51,-16.79 10.28,-21.05 16.29,-22.05 6.02,-1 16.79,-10.78 20.8,-13.28 4.01,-2.51 11.28,-19.3 12.78,-22.05 1.5,-2.76 2.76,-16.29 0.75,-23.06 -2,-6.77 10.27,3.01 11.03,2.76 0.75,-0.25 11.03,3.01 17.79,4.76 6.76,1.75 13.78,-2 21.8,-6.77 8.02,-4.76 10.53,-3.26 10.53,-3.26 0,0 1.25,1.25 -0.5,-1 -1.75,-2.26 -7.77,-1.75 -14.03,1.5 -6.26,3.26 -13.53,5.76 -17.79,3.76 -4.26,-2 -14.79,-5.76 -15.79,-5.76 -1,0 -9.77,-4.26 -3.51,-10.27 6.26,-6.01 8.27,-21.8 8.27,-21.8 0,0 1.75,-5.76 6.02,-8.27 4.26,-2.51 10.78,1 16.54,0.75 5.76,-0.25 4.26,-5.51 5.01,-8.02 0.75,-2.51 1.5,-3.51 5.76,-4.76 4.26,-1.25 5.51,-5.76 5.51,-5.76 -0.75,2.51 -8.02,3.51 -11.53,4.51 -3.51,1 -1.75,6.01 -5.51,8.27 -3.76,2.25 -10.27,-0.75 -15.03,-0.5 -4.76,0.25 -10.27,4.01 -10.27,4.01 0,0 -2.76,-5.51 -6.02,-8.77 -3.26,-3.26 3.76,-4.51 4.76,-7.27 1,-2.76 -1.51,-6.01 -1.51,-6.01 2.76,2.76 -2.25,7.02 -6.76,9.77 -4.51,2.76 -1,6.77 4.26,11.03 5.26,4.26 1.25,16.29 1.25,22.3 0,6.01 -10.27,8.27 -13.78,12.03 -3.51,3.76 -7.52,7.52 -5.26,16.29 2.26,8.77 -4.01,21.3 -11.28,31.08 -7.27,9.77 -12.03,10.53 -23.06,12.53 -11.03,2 -10.27,3.01 -15.04,2.51 -4.76,-0.5 -7.52,-23.31 -11.53,-39.85 -4.01,-16.54 13.28,-21.55 16.29,-23.06 3.01,-1.5 6.26,-3.01 8.27,1.25 2,4.26 5.26,7.52 9.02,8.77 3.76,1.25 6.77,5.01 6.52,3.76 -0.25,-1.25 0.25,-5.76 -5.52,-6.77 -5.76,-1 -5.26,-7.52 -8.27,-11.53 -3.01,-4.01 -8.77,1 -10.78,0.5 -2.01,-0.5 -0.25,-3.26 2.01,-11.78 2.25,-8.52 -1.25,-11.53 -1.25,-11.53 0,0 0.25,12.28 -3.26,20.05 -3.51,7.77 -9.27,6.26 -17.79,12.78 -8.52,6.52 -5.26,11.53 -3.01,18.79 2.26,7.27 1.5,12.28 -4.51,10.78 -6.02,-1.5 -10.28,-17.54 -12.28,-23.56 -2,-6.01 -4.76,-18.29 -4.76,-18.29 0,0 -1.25,-5.01 -0.5,-9.02 0.75,-4.01 5.01,-4.76 6.02,-10.02 1,-5.26 -1.5,-7.02 -1.5,-7.02 1.75,3.01 1.5,7.02 -3.76,10.78 -5.26,3.76 -4.26,10.53 -4.26,10.53 0,0 0,-3.76 -7.77,-10.02 -7.77,-6.27 -19.3,-5.51 -23.56,-6.52 -4.26,-1 -2.01,-7.27 -2.01,-7.27 -4.26,8.02 -3.01,11.78 12.53,13.28 15.54,1.5 17.79,12.53 20.3,19.55 2.51,7.02 1.5,13.28 1.5,13.28 -9.02,1 -11.28,9.52 -13.28,9.77 -2,0.25 -5.51,-7.27 -6.76,-12.03 -1.25,-4.76 -13.03,-5.76 -19.8,-7.27 -6.77,-1.5 -7.02,-6.77 -7.02,-6.77 -3.76,2 -1.51,7.27 5.01,9.27 6.52,2 9.27,2.76 16.79,6.27 7.52,3.51 3.26,8.27 9.02,13.03 5.76,4.76 12.28,-6.01 16.29,-7.52 4.01,-1.5 4.76,8.27 7.77,19.05 3.01,10.78 13.53,8.77 19.04,13.28 5.51,4.51 9.77,27.06 11.28,40.35 1.5,13.28 9.77,33.58 10.27,41.35 0.5,7.77 -6.52,26.06 -7.27,31.58 -0.75,5.51 7.77,28.57 8.27,34.08 0.5,5.51 -3.01,12.28 -3.26,18.55 -0.25,6.27 4.76,10.78 6.76,18.29 2.01,7.52 -1.75,11.53 0.25,20.05 2,8.52 11.78,18.54 28.57,13.28 16.79,-5.26 35.59,6.52 35.59,6.52 7.27,4.51 13.53,2.76 19.8,6.27 z m -83.7,-111.52 c -1,9.52 3.26,17.54 8.27,27.32 5.01,9.77 -0.75,14.03 1,17.79 1.75,3.76 4.26,11.28 4.26,21.8 0,10.52 1.5,14.28 13.03,18.54 11.53,4.26 26.56,-1.5 43.86,-0.75 17.29,0.75 24.56,8.77 30.07,12.03 5.51,3.26 26.31,0 33.33,-1.5 7.02,-1.5 22.34,-2 22.34,-2 0,0 6.48,1 0.97,-0.76 -5.51,-1.75 -27.07,2.26 -40.85,2.26 -13.78,0 -17.04,-2.26 -26.81,-9.52 -9.78,-7.27 -23.81,-3.51 -36.09,-4.26 -12.28,-0.75 -12.78,-2.51 -21.05,-4.51 -8.27,-2 -13.78,-25.31 -14.03,-33.58 -0.25,-8.27 -3.51,-15.04 -5.51,-24.56 -2,-9.52 9.02,-23.56 11.28,-32.58 2.25,-9.02 5.51,-3.51 16.29,-13.03 10.78,-9.52 13.78,-4.51 26.31,-8.27 12.53,-3.76 12.28,-7.52 17.29,-17.04 5.01,-9.52 19.55,-7.27 19.55,-7.27 0,0 0.75,3.51 0.5,5.01 -0.25,1.5 1.5,3.26 2.76,7.77 1.25,4.51 10.27,1.75 16.04,0 5.76,-1.75 7.77,3.76 7.77,3.76 0,0 -0.25,-3.76 -3.26,-7.27 -3.01,-3.51 -5.76,-0.5 -13.03,0 -7.27,0.5 -2,-3.26 -3.26,-5.76 -1.25,-2.51 -2.01,-9.02 -1,-12.03 1,-3.01 8.77,-7.02 13.03,-10.02 4.26,-3 14.28,-7.52 18.54,-9.52 4.26,-2 8.27,-7.02 10.78,-12.78 2.51,-5.76 6.77,-8.02 5.01,-7.77 -1.75,0.25 -7.77,1.75 -9.27,7.02 -1.5,5.26 -7.52,10.02 -13.78,11.78 -6.27,1.75 -7.52,3.01 -7.52,3.01 0,0 -1.75,-3.26 -5.76,-6.52 -4.01,-3.26 -4.76,-1.75 -2.76,-4.01 2.01,-2.26 -0.25,-8.02 -0.25,-8.02 0,0 -2.01,6.77 -3.76,9.02 -1.75,2.26 7.77,8.02 8.52,10.53 0.75,2.51 2.76,3.26 -9.02,6.77 -11.78,3.51 -9.77,9.52 -15.54,11.03 -5.76,1.5 -9.02,1 -16.54,4.26 -7.52,3.26 -12.78,16.79 -21.3,20.8 -8.52,4.01 -26.07,5.76 -35.09,7.27 -9.02,1.5 -17.69,21.12 -17.69,21.12 0,0 -0.53,-2.3 1.23,-9.82 1.75,-7.52 1.18,-20.57 1.18,-20.57 0,0 -1.18,8.51 -6.52,17.54 -4.97,8.42 -3.51,27.32 -3.51,27.32 m -30.71,94.13 c 4.16,-1.33 8,0.17 9.83,2.33 1.83,2.17 1.83,5.66 1.83,5.66 3,-5.66 -3.16,-13.66 -5,-17.33 -1.83,-3.66 2.67,-13.83 3.83,-16.49 1.16,-2.67 0.33,-4.5 0.33,-6.83 0,-2.33 6.16,-14.49 6.16,-14.49 0,0 -1,2.17 -3.66,5.16 -2.67,3 -5.67,6.33 -5.67,10.83 0,4.5 -6.5,11.33 -9.83,13.83 -3.33,2.5 -6.33,5.83 -6.16,9.66 0.17,3.83 -3,10.83 -3,10.83 3.17,-1.17 7.16,-1.83 11.33,-3.17 z m 18.49,-44.65 c 0,0 -4,7.16 -4.33,10.33 -0.33,3.17 0.67,8.83 -1.83,13.83 -2.5,5 -3.16,7.83 -1,11.66 2.17,3.83 3.33,9.83 3.33,9.83 0,0 8.33,-1.33 13.66,0.33 5.33,1.67 7.33,1.67 7.33,1.67 0,0 -7.5,-2.83 -8.33,-6.83 -0.83,-4 0.5,-13.66 0.33,-17.66 -0.17,-4 -3,-14.33 -4.16,-15.33 -1.17,-1 -2.83,-5.17 -5,-7.83 z"
         id="path4" />
    </clipPath>
  </defs>
  <path
     class="d"
     d="m 414.36,326.84 c 0.39,1.81 0.77,3.53 1.14,5.25 h 0.23 l 0.92,-1.16 c 0.21,0.49 0.73,1.01 0.29,1.77 -0.07,0.12 -0.01,0.32 0.02,0.48 0.06,0.31 0.15,0.61 0.27,1.09 l 0.4,-1.01 0.31,0.13 0.71,1.81 0.12,-0.45 c 0.09,0.04 0.17,0.05 0.21,0.09 0.19,0.25 0.37,0.51 0.56,0.76 0.76,1.02 1.87,1.49 3.02,1.81 1.04,0.29 2.12,0.4 3.18,0.59 0.09,0.02 0.24,0 0.27,0.06 0.2,0.32 0.46,0.48 0.85,0.52 0.34,0.03 0.64,0.48 1.01,0.03 0.04,-0.05 0.21,-0.07 0.27,-0.03 0.66,0.47 0.88,-0.01 1.09,-0.47 l 1.04,0.33 0.31,-1.88 c 0.37,0.53 0.62,0.49 0.81,-0.15 0.14,-0.47 0.35,-0.91 0.55,-1.4 l 0.55,1.03 c 0.67,-0.61 0.87,-1.34 0.9,-2.16 0.02,-0.67 0.04,-0.67 0.75,-0.6 -0.3,-0.5 -0.44,-0.93 0.08,-1.41 0.2,-0.18 0.03,-0.71 0.13,-1.04 0.25,-0.82 0.16,-1.7 0.77,-2.46 0.26,-0.33 0.01,-1.07 -0.01,-1.63 -0.05,-1.21 -0.09,-2.43 -0.16,-3.64 -0.04,-0.69 -0.16,-1.39 -0.21,-2.08 -0.03,-0.45 0,-0.91 0.02,-1.36 l 0.31,-0.06 c 0.31,0.74 0.62,1.48 0.92,2.22 0.97,2.42 2.06,4.8 2.88,7.28 1.57,4.78 3.8,9.27 5.77,13.87 0.74,1.73 1.24,3.56 1.85,5.35 0.15,0.44 -0.02,0.7 -0.35,0.99 -0.37,0.34 -0.79,0.74 -0.92,1.19 -0.34,1.23 -1.56,1.62 -2.23,2.52 -0.09,0.12 -0.39,0.04 -0.54,0.14 -0.27,0.19 -0.65,0.41 -0.7,0.67 -0.04,0.22 0.25,0.68 0.49,0.76 0.41,0.14 0.92,0.19 1.33,0.07 0.67,-0.2 1.29,-0.54 1.92,-0.85 1.19,-0.58 2.36,-1.22 3.58,-1.73 0.34,-0.15 0.89,-0.07 1.23,0.1 0.9,0.46 1.14,0.42 1.67,-0.4 0.1,-0.15 0.6,-0.22 0.76,-0.11 0.78,0.54 1.5,0.73 2.43,0.29 0.4,-0.19 0.99,0.05 1.49,0.03 0.26,-0.01 0.51,-0.16 0.76,-0.25 -0.17,-0.21 -0.29,-0.49 -0.5,-0.61 -1.16,-0.66 -2.32,-1.29 -3.18,-2.37 -0.31,-0.39 -0.73,-0.73 -1.17,-0.97 -0.73,-0.39 -1.07,-0.95 -1.2,-1.76 -0.46,-2.85 -1.02,-5.68 -1.46,-8.53 -0.39,-2.53 -1.01,-4.96 -2.11,-7.3 -0.86,-1.84 -1.46,-3.79 -2.2,-5.69 -0.39,-1.01 -0.85,-2 -1.25,-3.02 -0.11,-0.3 -0.21,-0.68 -0.11,-0.96 0.37,-1.05 0.05,-1.93 -0.43,-2.85 -0.69,-1.3 -1.34,-2.63 -1.95,-3.97 -0.17,-0.38 -0.16,-0.86 -0.16,-1.29 0,-1.65 -0.48,-3.14 -1.38,-4.52 -0.21,-0.32 -0.38,-0.7 -0.43,-1.07 -0.27,-2.32 -1.15,-4.45 -1.98,-6.59 -0.39,-1 -0.67,-1.99 -0.7,-3.09 -0.07,-2.22 -0.12,-4.47 -1.04,-6.57 -0.28,-0.64 -0.65,-1.26 -0.84,-1.93 -0.32,-1.16 -0.72,-2.34 -0.75,-3.52 -0.14,-4.84 -1.05,-9.48 -3.12,-13.88 -0.21,-0.44 -0.19,-0.83 0.2,-1.1 1.05,-0.72 2.09,-1.49 3.21,-2.07 0.9,-0.46 1.63,-1.03 2.15,-1.88 0.23,-0.37 0.46,-0.74 0.72,-1.09 0.16,-0.21 0.34,-0.46 0.56,-0.55 1.3,-0.53 2.61,-1.05 3.93,-1.5 0.75,-0.26 1.19,-0.99 1.01,-1.78 -0.04,-0.18 0.16,-0.52 0.35,-0.63 1.13,-0.71 2.3,-1.35 3.42,-2.07 0.74,-0.48 1.41,-1.05 1.34,-2.09 -0.01,-0.16 0.26,-0.37 0.45,-0.49 0.51,-0.32 1.05,-0.6 1.57,-0.9 1.08,-0.61 1.43,-1.54 1.17,-2.71 -0.17,-0.75 -0.43,-1.49 -0.6,-2.24 -0.05,-0.21 0,-0.55 0.14,-0.67 4.55,-4 8.7,-8.37 12.14,-13.37 0.87,-1.27 2.23,-1.95 3.32,-2.95 0.35,-0.31 1.08,-0.22 1.64,-0.26 1.22,-0.1 2.46,-0.31 3.67,-0.2 1.54,0.14 3.05,0.52 4.57,0.84 1.08,0.23 2.12,0.24 3.1,-0.32 0.04,-0.02 0.09,-0.04 0.13,-0.06 1.85,-0.77 2.21,-1.39 1.95,-3.38 -0.37,-2.83 -2.98,-5.2 -5.83,-5.33 -2.6,-0.12 -5.14,-0.58 -7.62,-1.43 -3,-1.03 -2.84,-0.68 -4.68,1.7 -0.49,0.63 -0.94,1.3 -1.31,2 -0.41,0.78 -0.71,1.62 -1.04,2.44 -0.38,0.94 -0.76,1.9 -1.64,2.51 -2.18,1.5 -4.33,3.02 -6.56,4.45 -2.95,1.89 -5.47,4.24 -7.72,6.9 -0.23,0.27 -0.67,0.35 -1.01,0.52 -0.57,0.29 -1.22,0.48 -1.68,0.89 -0.77,0.67 -1.59,1.22 -2.49,1.71 -1.14,0.62 -2.25,1.36 -3.18,2.26 -1.86,1.81 -4,3.09 -6.38,4.09 -1.43,0.6 -2.85,1.39 -4.04,2.38 -1.44,1.2 -3.11,1.96 -4.64,2.96 -2.19,1.44 -4.36,2.89 -6.49,4.41 -0.83,0.59 -1.7,0.79 -2.67,0.76 -1.99,-0.07 -3.97,-0.21 -5.95,-0.25 -3.56,-0.08 -7.08,0.26 -10.52,1.19 -1.87,0.51 -3.73,0.78 -5.67,0.69 -0.84,-0.04 -1.69,0.24 -2.52,0.22 -0.98,-0.03 -1.96,-0.19 -2.93,-0.35 -1.65,-0.29 -3.29,-0.43 -4.98,-0.39 -1.33,0.04 -2.62,0.28 -3.93,0.36 -0.49,0.03 -1.03,-0.03 -1.48,-0.2 -3.44,-1.3 -7.03,-1.85 -10.68,-1.93 -3.47,-0.07 -6.94,-0.02 -10.4,-0.08 -0.51,0 -1.02,-0.33 -1.52,-0.52 -0.25,-0.09 -0.49,-0.21 -0.73,-0.33 -0.15,-0.07 -0.31,-0.14 -0.42,-0.25 -0.52,-0.52 -1.03,-1.04 -1.53,-1.57 -0.3,-0.31 -0.55,-0.67 -0.87,-0.95 -0.72,-0.63 -1.39,-1.4 -2.24,-1.78 -0.49,-0.22 -1.31,0.09 -1.91,0.33 -1.49,0.62 -2.91,1.45 -4.42,1.99 -0.96,0.34 -2.05,0.32 -3.08,0.46 -1.94,0.26 -3.79,0.8 -5.44,1.89 -1.17,0.78 -2.05,1.81 -2.45,3.15 -0.76,2.58 0.36,3.95 3.08,4.89 2.58,0.89 4.9,-0.12 7.24,-0.98 0.76,-0.28 1.59,-0.37 2.34,-0.68 1.03,-0.44 2.12,-0.38 3.18,-0.54 1.36,-0.19 2.69,-0.1 4.04,0.18 1.29,0.27 2.67,0.15 3.94,0.48 2.32,0.6 4.55,1.51 6.87,2.1 3.16,0.81 6.36,1.52 9.56,2.13 1.58,0.3 3.23,0.29 4.84,0.38 1.07,0.06 1.15,0.12 1.22,1.16 0.05,0.77 0.15,1.55 0.19,2.32 0.04,0.8 0.5,1.19 1.21,1.31 1.35,0.24 2.7,0.64 4.1,0.24 0.18,-0.05 0.41,-0.05 0.57,0.03 1.57,0.76 3.26,0.69 4.93,0.65 0.48,-0.01 0.81,0.1 0.9,0.6 0.08,0.44 0.39,0.52 0.76,0.48 0.89,-0.09 1.8,-0.11 2.67,-0.29 0.97,-0.2 1.85,-0.06 2.77,0.24 3.3,1.07 6.66,1.72 10.15,1.4 0.22,-0.02 0.55,0.2 0.7,0.4 0.51,0.7 0.94,1.46 1.44,2.17 0.44,0.63 0.94,1.23 1.4,1.86 1.07,1.44 0.93,3.05 0.61,4.67 -0.26,1.31 -0.59,2.6 -0.75,3.92 -0.12,1.07 -0.17,2.19 0,3.24 0.19,1.12 0.07,2.16 -0.14,3.23 -0.57,3.02 -1.17,6.04 -1.65,9.07 -0.15,0.91 0.07,1.88 0.08,2.82 0.01,0.76 -0.05,1.52 -0.04,2.28 0.01,1.25 -0.2,2.58 0.14,3.73 0.56,1.9 0.26,3.67 -0.07,5.51 -0.21,1.19 -0.57,2.38 -0.09,3.65 0.18,0.47 -0.14,1.13 -0.19,1.7 -0.15,1.54 -0.39,3.09 -0.37,4.63 0.02,1.57 -0.19,3.06 -0.61,4.57 -0.75,2.71 -0.49,5.49 -0.36,8.25 0.1,2.13 0.29,4.26 0.4,6.39 0.04,0.8 0,1.6 -0.07,2.4 -0.02,0.23 -0.18,0.48 -0.35,0.65 -0.54,0.52 -1.11,1.01 -1.66,1.52 -0.54,0.49 -1.16,0.76 -1.91,0.72 -0.35,-0.02 -0.88,-0.21 -0.93,0.38 -0.05,0.57 0.46,0.73 0.9,0.72 1.85,-0.04 3.69,-0.15 5.54,-0.19 0.56,-0.01 1.13,0.13 1.7,0.17 0.81,0.06 1.63,0.22 2.42,0.14 1.73,-0.18 3.45,-0.45 5.16,-0.75 0.43,-0.08 0.95,-0.29 1.21,-0.61 0.46,-0.59 0.07,-1.26 -0.68,-1.23 -1.83,0.08 -3.48,-0.72 -5.23,-1.04 -0.4,-0.07 -0.6,-0.34 -0.54,-0.8 0.61,-4.29 0.76,-8.64 1.9,-12.85 0.8,-2.96 1.13,-5.99 1.31,-9.04 0.08,-1.37 0.33,-2.74 0.62,-4.09 0.15,-0.69 0.56,-1.33 0.91,-2.12 z m 16.95,-11.92 -0.07,0.08 c -0.58,-0.4 -1.17,-0.79 -1.74,-1.2 -0.13,-0.09 -0.21,-0.25 -0.31,-0.38 0.19,-0.02 0.46,-0.13 0.55,-0.04 0.55,0.49 1.05,1.02 1.57,1.54 z m -15.04,15.15 -0.22,0.06 -0.19,-1.36 0.3,-0.04 z"
     id="path55" />
  <g
     id="g73"
     transform="translate(-92.49,-32.82)">
    <path
       class="d"
       d="m 275.3,220.84 c -11.12,0.52 -14.22,-8.85 -14.22,-8.85 13.56,-2.29 14.22,8.85 14.22,8.85 z m -10.79,0.41 c 0,0 -0.49,9.86 10.07,13.39 0,0 3.41,-10.63 -10.07,-13.39 z m -10.43,10.43 c 0,0 -0.49,9.86 10.07,13.39 0,0 3.41,-10.63 -10.07,-13.39 z m -3.48,5.39 c 0,0 -4.88,8.59 2.96,16.49 0,0 7.83,-7.96 -2.96,-16.49 z m 6.4,-22 c 0,0 -4.57,8.75 3.54,16.37 0,0 7.54,-8.23 -3.54,-16.37 z m 131.39,22.08 c 0,0 3.11,9.37 14.22,8.85 0,0 -0.66,-11.14 -14.22,-8.85 z m 3.43,9.26 c 0,0 -0.49,9.86 10.07,13.39 0,0 3.41,-10.63 -10.07,-13.39 z m 67.53,-62.23 c 0,0 3.11,9.37 14.22,8.85 0,0 -0.66,-11.14 -14.22,-8.85 z m 3.44,9.26 c 0,0 -0.49,9.86 10.07,13.39 0,0 3.41,-10.63 -10.07,-13.39 z m -63.97,33.28 c 0,0 3.11,9.37 14.22,8.85 0,0 -0.66,-11.14 -14.22,-8.85 z m 3.43,9.26 c 0,0 -0.49,9.86 10.07,13.39 0,0 3.41,-10.63 -10.07,-13.39 z m -17.94,4.25 c 0,0 -4.57,8.75 3.54,16.37 0,0 7.54,-8.23 -3.54,-16.37 z m 62.98,-46.64 c 0,0 3.11,9.38 14.22,8.85 0,0 -0.66,-11.14 -14.22,-8.85 z m 3.43,9.26 c 0,0 -0.49,9.86 10.07,13.39 0,0 3.41,-10.63 -10.07,-13.39 z m -7.51,-6.18 c 0,0 -4.57,8.75 3.54,16.37 0,0 7.54,-8.23 -3.54,-16.37 z m -6.81,6.81 c 0,0 -5.79,11.08 4.48,20.73 0,0 9.55,-10.42 -4.48,-20.73 z m -31.45,-74.62 c 0,0 3.11,9.37 14.22,8.85 0,0 -0.66,-11.14 -14.22,-8.85 z m 3.43,9.26 c 0,0 -0.49,9.86 10.07,13.39 0,0 3.41,-10.63 -10.07,-13.39 z m -7.51,-6.18 c 0,0 -4.57,8.75 3.54,16.37 0,0 7.54,-8.23 -3.54,-16.37 z M 382.06,85.53 c 0,0 4.56,8.76 15.45,6.48 0,0 -2.42,-10.9 -15.45,-6.48 z m 4.86,8.6 c 0,0 1.08,9.82 12.07,11.62 0,0 1.68,-11.04 -12.07,-11.62 z m -8.39,-4.91 c 0,0 -3.12,9.37 6.1,15.6 0,0 6.14,-9.32 -6.1,-15.6 z m -89.43,37.52 c 0,0 6.94,3.04 12.34,-3.56 0,0 -6.69,-5.34 -12.34,3.56 z m 7.03,2.8 c 0,0 5.37,5.34 12.8,1.14 0,0 -4.31,-7.4 -12.8,-1.14 z m -7.37,1.1 c 0,0 2.64,7.1 11.14,6.39 0,0 -0.82,-8.52 -11.14,-6.39 z m 7.3,-38.15 c 0,0 -1.39,-7.44 -9.89,-8.19 0,0 -0.64,8.53 9.89,8.19 z m -1.65,-7.39 c 0,0 1.39,-7.44 -6.27,-11.21 0,0 -3.68,7.73 6.27,11.21 z m 5.07,5.47 c 0,0 4.37,-6.18 -1,-12.8 0,0 -6.58,5.47 1,12.8 z m 9.26,-5.25 c 0,0 6.93,3.04 12.34,-3.56 0,0 -6.69,-5.34 -12.34,3.56 z m 7.03,2.79 c 0,0 5.37,5.34 12.8,1.14 0,0 -4.31,-7.4 -12.8,-1.14 z m -7.37,1.1 c 0,0 2.64,7.1 11.14,6.39 0,0 -0.82,-8.52 -11.14,-6.39 z m 9.55,19.26 c 0,0 7.51,-0.99 8.72,-9.43 0,0 -8.49,-1.11 -8.72,9.43 z m 7.47,-2.47 c 0,0 7.36,1.79 11.54,-5.65 0,0 -7.51,-4.1 -11.54,5.65 z m -5.74,5.99 c 0,0 5.93,4.71 12.84,-0.3 0,0 -5.11,-6.87 -12.84,0.3 z m 22.83,28.13 c 0,0 -2.24,-6.34 -9.8,-5.83 0,0 0.6,7.57 9.8,5.83 z m -2.77,-7.07 c 0,0 0.22,-7.57 -7.92,-10.11 0,0 -2.45,8.2 7.92,10.11 z m 5.85,4.62 c 0,0 3.37,-6.78 -2.96,-12.5 0,0 -5.66,6.42 2.96,12.5 z M 235.5,92.01 c 0,0 -4.11,6.36 1.55,12.75 0,0 6.34,-5.75 -1.55,-12.75 z m -13.88,-4.19 c 0,0 -6.13,4.45 -3.16,12.45 0,0 7.99,-3.07 3.16,-12.45 z m 0.05,0.15 c 0,0 -7.11,-2.6 -12.1,4.32 0,0 7,4.92 12.1,-4.32 z m -36.48,23.17 c 0,0 6.91,-3.09 5.66,-11.53 0,0 -8.45,1.36 -5.66,11.53 z m 6.42,-5.21 c 0,0 7.57,0.01 9.89,-8.2 0,0 -8.26,-2.22 -9.89,8.2 z m -10.58,-0.98 c 0,0 -0.31,-7.56 -8.62,-9.53 0,0 -1.87,8.35 8.62,9.53 z m 4.14,6.04 c 0,0 6.42,4.02 12.73,-1.73 0,0 -5.84,-6.26 -12.73,1.73 z m -0.73,16.36 c 0,0 -7.4,-1.62 -11.4,5.91 0,0 7.6,3.93 11.4,-5.91 z m -8.26,0.38 c 0,0 -6.08,-4.51 -12.82,0.72 0,0 5.33,6.7 12.82,-0.72 z m 8.18,-0.25 c 0,0 -2.77,-7.04 -11.26,-6.17 0,0 0.97,8.5 11.26,6.17 z m 4.05,-12.95 c 0,0 1.5,7.42 10.02,8.04 0,0 0.52,-8.54 -10.02,-8.04 z m 20.26,-11.69 c 0,0 1.5,7.42 10.01,8.04 0,0 0.52,-8.54 -10.01,-8.04 z M 231.7,91.06 c 0,0 -7.42,1.48 -8.08,9.98 0,0 8.54,0.55 8.08,-9.98 z m 5.05,154.91 c 0,0 -0.29,9.87 10.33,13.18 0,0 3.2,-10.7 -10.33,-13.18 z m -4.31,8.3 c 0,0 -6.96,7.01 -1.46,16.69 0,0 9.64,-5.63 1.46,-16.69 z m -3.86,-1.38 c 0,0 -9.86,-0.64 -13.55,9.86 0,0 10.58,3.57 13.55,-9.86 z m 2.3,-3.9 c 0,0 -6.24,-7.66 -16.44,-3.21 0,0 4.58,10.18 16.44,3.21 z m 2.61,-11.04 c 0,0 -6.24,-7.66 -16.44,-3.21 0,0 4.58,10.18 16.44,3.21 z m 9.09,-7.01 c 0,0 -4.68,-5.74 -12.33,-2.41 0,0 3.44,7.63 12.33,2.41 z m 3.85,-3.7 c 0,0 -1.38,-10.19 -12.87,-11.78 0,0 -1.46,11.54 12.87,11.78 z m -0.38,-7.68 c 0,0 3.33,-9.73 -6.22,-16.3 0,0 -6.47,9.66 6.22,16.3 z m -13.97,-8.17 c 0,0 2.56,-7.47 -4.77,-12.5 0,0 -4.96,7.41 4.77,12.5 z m -0.91,10.38 c 0,0 2.56,-7.47 -4.77,-12.5 0,0 -4.96,7.41 4.77,12.5 z m -11.28,-6.28 c 0,0 7.11,-6.49 2.23,-16.17 0,0 -9.65,5.01 -2.23,16.17 z m -13.77,-10.37 c 0,0 9.49,1.61 14.11,-8.2 0,0 -9.89,-4.52 -14.11,8.2 z m -11.45,-2.99 c 0,0 -5.13,8.14 2.15,16.18 0,0 7.98,-7.39 -2.15,-16.18 z m -12.03,9.89 c 0,0 -0.63,9.6 9.6,13.2 0,0 3.49,-10.3 -9.6,-13.2 z m -7.57,11.85 c 0,0 5.09,8.17 15.5,5.12 0,0 -3.18,-10.4 -15.5,-5.12 z m 4.64,12.83 c 0,0 7.09,6.51 16.3,0.79 0,0 -5.84,-9.17 -16.3,-0.79 z m -0.24,4.63 c 0,0 1.55,9.5 12.33,10.7 0,0 1.08,-10.82 -12.33,-10.7 z m -2.68,3.86 c 0,0 -4.24,7.42 2.53,14.27 0,0 6.79,-6.87 -2.53,-14.27 z m -9.17,7.84 c 0,0 -4.24,7.42 2.53,14.27 0,0 6.79,-6.87 -2.53,-14.27 z m -3.58,6.18 c 0,0 -5.72,2.65 -4.57,9.67 0,0 7.02,-1.23 4.57,-9.67 z m 2.08,-8.96 c 0,0 -8.54,0.11 -11.01,9.41 0,0 9.36,2.37 11.01,-9.41 z m 5,-9.45 c 0,0 -2.3,-8.23 -11.92,-8.23 0,0 0.11,9.65 11.92,8.23 z m -10.21,6.41 c 0,0 4.73,-7.12 -1.57,-14.4 0,0 -7.23,6.39 1.57,14.4 z m -17.38,8.98 c 0,0 4.73,-7.12 -1.57,-14.4 0,0 -7.23,6.39 1.57,14.4 z m -12.25,-0.57 c 0,0 7.73,-3.65 6.1,-13.14 0,0 -9.5,1.73 -6.1,13.14 z m -9.92,-8.29 c 0,0 8.44,1.31 12.42,-7.46 0,0 -8.83,-3.89 -12.42,7.46 z m 4.85,-14.61 c 0,0 4.26,7.41 13.59,5.03 0,0 -2.49,-9.33 -13.59,-5.03 z m 11.28,-10.74 c 0,0 -3.95,7.57 3.07,14.16 0,0 6.53,-7.11 -3.07,-14.16 z m 17.42,-8 c 0,0 -6.82,5.15 -3.29,14.11 0,0 8.94,-3.64 3.29,-14.11 z m 16.64,-19.25 c 0,0 -6.82,5.15 -3.29,14.11 0,0 8.94,-3.64 3.29,-14.11 z m -3.84,-1.46 c 0,0 -8.49,0.95 -10.04,10.45 0,0 9.55,1.44 10.04,-10.45 z m -24.39,4.91 c 0,0 -8.49,0.95 -10.03,10.45 0,0 9.54,1.44 10.03,-10.45 z m -0.39,0.2 c 0,0 -7.92,-3.21 -13.8,4.42 0,0 7.71,5.81 13.8,-4.42 z m -9.13,-6.06 c 0,0 -7.92,-3.21 -13.8,4.42 0,0 7.71,5.81 13.8,-4.42 z m -6.55,-12.68 c 0,0 -7.32,0.92 -8.54,9.14 0,0 8.25,1.13 8.54,-9.14 z m -0.99,-1.56 c 0,0 -7.26,-6.17 -16.15,-0.16 0,0 6.12,8.85 16.15,0.16 z m -12.42,-10.77 c 0,0 -9.48,-0.93 -13.36,9.07 0,0 10.08,3.78 13.36,-9.07 z m 11.49,-19.84 c 0,0 -8.76,3.73 -7.37,14.37 0,0 10.65,-1.52 7.37,-14.37 z m -20.04,0 c 0,0 -0.35,9.52 9.88,12.78 0,0 3.15,-10.29 -9.88,-12.78 z m -10.37,16.72 c 0,0 6.88,6.58 16.11,1.11 0,0 -5.59,-9.19 -16.11,-1.11 z m -2.43,-7.96 c 0,0 5.3,5.2 12.55,1.02 0,0 -4.27,-7.22 -12.55,-1.02 z m 31.66,7.8 c 0,0 7.42,0.09 9.77,-7.94 0,0 -8.08,-2.26 -9.77,7.94 z m 8.44,8.44 c 0,0 7.42,0.09 9.77,-7.94 0,0 -8.08,-2.26 -9.77,7.94 z m 3.28,4.62 c 0,0 7.7,4.66 15.09,-2.29 0,0 -7.05,-7.33 -15.09,2.29 z m 23.5,4.76 c 0,0 8.03,-4.06 6.04,-14.01 0,0 -9.95,2.1 -6.04,14.01 z m 28.78,8.71 c 0,0 -2.48,-8.65 -12.63,-8.57 0,0 0.19,10.17 12.63,8.57 z m -28.77,-8.77 c 0,0 8.91,1.27 12.99,-8.02 0,0 -9.36,-3.98 -12.99,8.02 z m 47.43,-0.47 c 0,0 -6.43,-6.3 -15.21,-1.22 0,0 5.18,8.75 15.21,1.22 z m -0.06,0 c 0,0 -1.65,-8.84 -11.76,-9.73 0,0 -0.77,10.14 11.76,9.73 z m -15.35,6.84 c 0,0 1.07,-7.43 -6.67,-10.84 0,0 -3.33,7.8 6.67,10.84 z m 22.85,-4.57 c 0,0 1.07,-7.43 -6.67,-10.84 0,0 -3.33,7.8 6.67,10.84 z m 37.03,7.79 c 0,0 1.71,-8.83 -7.37,-13.37 0,0 -4.44,9.15 7.37,13.37 z m 20.83,0.22 c 0,0 -2.88,-8.53 -13.01,-7.99 0,0 0.66,10.15 13.01,7.99 z m -0.06,-0.02 c 0,0 2.54,-8.63 -6.07,-14 0,0 -5.28,8.69 6.07,14 z m -16.78,-0.86 c 0,0 4.32,-6.14 -1.03,-12.69 0,0 -6.5,5.44 1.03,12.69 z m 22.42,6.3 c 0,0 3.88,-5.51 -0.93,-11.4 0,0 -5.85,4.89 0.93,11.4 z m 7.4,3.89 c 0,0 5.21,-7.39 -1.25,-15.29 0,0 -7.84,6.56 1.25,15.29 z m -34.51,-19.9 c 0,0 4.32,-6.14 -1.03,-12.69 0,0 -6.51,5.44 1.03,12.69 z M 228.1,80.77 c 0,0 2.85,-8.53 -5.55,-14.22 0,0 -5.6,8.49 5.55,14.22 z m 20.62,2.95 c 0,0 -1.73,-8.83 -11.85,-9.63 0,0 -0.68,10.15 11.85,9.63 z m -0.05,-0.03 c 0,0 3.65,-8.22 -4.18,-14.68 0,0 -6.38,7.92 4.18,14.68 z m -16.52,-3.06 c 0,0 5.09,-5.51 0.64,-12.71 0,0 -7.16,4.54 -0.64,12.71 z m 21.42,9.18 c 0,0 5.09,-5.51 0.64,-12.71 0,0 -7.17,4.54 -0.64,12.71 z m -39.31,68.39 c 0,0 1.07,-7.43 -6.67,-10.84 0,0 -3.33,7.8 6.67,10.84 z m -1.82,-10.45 c 0,0 0.86,-5.93 -5.33,-8.66 0,0 -2.66,6.23 5.33,8.66 z m 9.47,10.74 c 0,0 7.28,-1.82 7.51,-10.28 0,0 -8.48,-0.13 -7.51,10.28 z m 11.92,9.01 c 0,0 0.43,7.49 8.69,9.3 0,0 1.72,-8.31 -8.69,-9.3 z m 3.07,-2.33 c 0,0 5.11,5.5 12.63,1.61 0,0 -3.98,-7.49 -12.63,-1.61 z m 0.68,-3.33 c 0,0 7.5,0 9.78,-8.15 0,0 -8.19,-2.19 -9.78,8.15 z m 10.46,-0.79 c 0,0 3.14,3.38 7.77,0.99 0,0 -2.45,-4.61 -7.77,-0.99 z m 0.41,-2.05 c 0,0 4.62,0 6.02,-5.01 0,0 -5.04,-1.35 -6.02,5.01 z m 13.65,21.36 c 0,0 3.73,-2.72 1.9,-7.6 0,0 -4.87,1.89 -1.9,7.6 z m -1.98,-0.65 c 0,0 0.55,-4.58 -4.27,-6.57 0,0 -1.93,4.85 4.27,6.57 z m 5.43,-50.55 c 0,0 5.61,-1.64 5.53,-8.24 0,0 -6.61,0.16 -5.53,8.24 z m 6.07,12.1 c 0,0 4.07,-4.2 0.74,-9.89 0,0 -5.67,3.4 -0.74,9.89 z m 0,-0.04 c 0,0 5.74,-1.1 6.28,-7.68 0,0 -6.59,-0.47 -6.28,7.68 z m -4.5,-9.95 c 0,0 4.83,0.67 7.02,-4.37 0,0 -5.08,-2.14 -7.02,4.37 z m 5.44,-11.74 c 0,0 4.83,0.67 7.03,-4.37 0,0 -5.08,-2.14 -7.03,4.37 z m 46.15,49.8 c 0,0 3.27,-2.38 1.67,-6.66 0,0 -4.27,1.65 -1.67,6.66 z m -1.74,-0.57 c 0,0 0.48,-4.02 -3.74,-5.76 0,0 -1.7,4.25 3.74,5.76 z m -17.25,-21.99 c 0,0 2.85,2.87 6.83,0.64 0,0 -2.28,-3.97 -6.83,-0.64 z m 0.3,-1.81 c 0,0 4.04,-0.13 5.12,-4.57 0,0 -4.45,-1.03 -5.12,4.57 z m 1.26,-30.55 c 0,0 -2.28,3.34 0.67,6.83 0,0 3.46,-2.99 -0.67,-6.83 z m 1.83,-0.04 c 0,0 0.9,3.95 5.46,4.17 0,0 0.17,-4.57 -5.46,-4.17 z m 6.4,-11.54 c 0,0 3.94,-0.93 4.11,-5.49 0,0 -4.57,-0.13 -4.11,5.49 z m -1.38,0.02 c 0,0 2,-3.52 -1.22,-6.76 0,0 -3.21,3.26 1.22,6.76 z m 7.74,47.26 c 0,0 1.85,-9.57 -7.98,-14.49 0,0 -4.81,9.91 7.98,14.49 z m 22.57,0.23 c 0,0 -3.11,-9.24 -14.1,-8.66 0,0 0.71,11 14.1,8.66 z m -18.25,-0.96 c 0,0 4.68,-6.65 -1.12,-13.75 0,0 -7.05,5.9 1.12,13.75 z m -5.08,-10.52 c 0,0 4.68,-6.65 -1.12,-13.75 0,0 -7.05,5.9 1.12,13.75 z m 12.47,-0.71 c 0,0 4.04,-2.95 2.06,-8.23 0,0 -5.27,2.04 -2.06,8.23 z m -2.15,-0.71 c 0,0 0.59,-4.97 -4.62,-7.12 0,0 -2.1,5.25 4.62,7.12 z M 357.22,69.3 c 0,0 -5.98,-4.75 -12.95,0.3 0,0 5.15,6.93 12.95,-0.3 z m 8.33,-15.6 c 0,0 -7.55,-1.18 -11.12,6.66 0,0 7.9,3.49 11.12,-6.66 z m -7.27,12.33 c 0,0 -2.92,-5.66 -9.96,-4.2 0,0 1.55,7.03 9.96,4.2 z m -9.15,-0.28 c 0,0 -2.92,-5.66 -9.96,-4.2 0,0 1.54,7.03 9.96,4.2 z m 4.02,-8.92 c 0,0 -0.59,-3.88 -4.97,-4.41 0,0 -0.49,4.4 4.97,4.41 z m -1.27,1.24 c 0,0 -3.24,-2.21 -6.62,0.63 0,0 2.89,3.36 6.62,-0.63 z m -7.61,60.65 c 0,0 -5.11,-5.18 -12.28,-1.2 0,0 4.07,7.14 12.28,1.2 z m 9.67,-13.78 c 0,0 -7,-1.98 -11.27,5.02 0,0 7.07,4.2 11.27,-5.02 z m -8.29,10.82 c 0,0 -2.11,-5.69 -8.93,-5.11 0,0 0.65,6.82 8.93,5.11 z m -3.79,-9.28 c 0,0 -0.11,-3.73 -4.19,-4.74 0,0 -0.97,4.11 4.19,4.74 z m -1.34,1.02 c 0,0 -2.81,-2.46 -6.33,-0.16 0,0 2.35,3.51 6.33,0.16 z m -60.79,76.54 c 0,0 3.73,-2.72 1.9,-7.6 0,0 -4.87,1.89 -1.9,7.6 z m -1.98,-0.65 c 0,0 0.55,-4.58 -4.27,-6.57 0,0 -1.93,4.85 4.27,6.57 z M 234.7,163.92 c 0,0 4.68,-7.79 -2.37,-15.23 0,0 -7.38,7.15 2.37,15.23 z m -60.13,-21.2 c 0,0 -1.61,-7.33 -10.06,-7.8 0,0 -0.38,8.47 10.06,7.8 z m -2.66,2.79 c 0,0 -5.92,-4.62 -12.72,0.41 0,0 5.12,6.77 12.72,-0.41 z m -19.38,37.58 c 0,0 -5.92,-4.62 -12.72,0.41 0,0 5.12,6.77 12.72,-0.41 z m 23.02,-36.95 c 0,0 -7.41,1.18 -8.37,9.59 0,0 8.44,0.86 8.37,-9.59 z m 83.8,7.71 c 0,0 4.68,-7.79 -2.37,-15.23 0,0 -7.38,7.15 2.37,15.23 z m -10.76,-5.89 c 0,0 7.95,-4.4 5.58,-14.37 0,0 -9.96,2.49 -5.58,14.37 z m -10.03,5.44 c 0,0 7.95,-4.4 5.58,-14.37 0,0 -9.97,2.49 -5.58,14.37 z m -8.55,-7.75 c 0,0 7.34,0.26 9.85,-7.64 0,0 -7.94,-2.42 -9.85,7.64 z m -3.98,-5.13 c 0,0 7.81,-4 5.83,-13.71 0,0 -9.7,2.1 -5.83,13.71 z m -4.62,-2.77 c 0,0 8.72,-1.04 10.23,-10.82 0,0 -9.82,-1.41 -10.23,10.82 z m -6.04,-6.04 c 0,0 8.72,-1.04 10.23,-10.82 0,0 -9.82,-1.41 -10.23,10.82 z m -5.75,-1.14 c 0,0 6.18,-6.24 1.27,-14.84 0,0 -8.56,5.02 -1.27,14.84 z m -9.36,-13.8 c 0,0 4.73,2.46 8.83,-1.94 0,0 -4.45,-4.06 -8.83,1.94 z m -7.99,30.31 c 0,0 8.39,1.18 12.21,-7.59 0,0 -8.83,-3.73 -12.21,7.59 z m -3.84,4.72 c 0,0 5.73,6.25 14.25,1.91 0,0 -4.44,-8.49 -14.25,-1.91 z m -2.31,-3.92 c 0,0 5.33,-0.61 6.29,-6.59 0,0 -6,-0.89 -6.29,6.59 z m -13.64,-34.14 c 0,0 -6.68,-5.22 -14.37,0.46 0,0 5.78,7.65 14.37,-0.46 z m 5.69,-2.16 c 0,0 -1.84,-8.27 -11.39,-8.78 0,0 -0.4,9.57 11.39,8.78 z m 0.04,4.55 c 0,0 -4.92,-2.14 -8.74,2.56 0,0 4.76,3.77 8.74,-2.56 z m 19.57,22 c 0,0 6.35,-5.85 1.92,-14.53 0,0 -8.64,4.54 -1.92,14.53 z M 183.26,98.96 c 0,0 6.35,-5.85 1.92,-14.53 0,0 -8.64,4.54 -1.92,14.53 z m 36.53,58.33 c 0,0 4.78,-8.92 -3.46,-16.81 0,0 -7.82,8.35 3.46,16.81 z M 95.17,144.51 c 0,0 0.44,7.41 8.62,9.18 0,0 1.68,-8.22 -8.62,-9.18 z M 144,198.8 c 0,0 -1.77,4.57 2.65,7.88 0,0 3.27,-4.47 -2.65,-7.88 z m 1.42,-0.9 c 0,0 3.6,5.54 10.71,3.31 0,0 -2.32,-7.1 -10.71,-3.31 z m -19.81,27.14 c 0,0 1.78,5.61 8.42,5.38 0,0 -0.31,-6.65 -8.42,-5.38 z m 58.7,-64.17 c 0,0 -6.01,4.5 -2.95,12.39 0,0 7.87,-3.16 2.95,-12.39 z m -6.1,8.67 c 0,0 -4.8,3.59 -2.35,9.89 0,0 6.29,-2.52 2.35,-9.89 z m -16.11,-3.42 c 0,0 -7.13,-2.33 -11.82,4.72 0,0 7.11,4.62 11.82,-4.72 z m -10.6,0 c 0,0 -5.7,-1.86 -9.44,3.77 0,0 5.68,3.69 9.44,-3.77 z m 27.76,-11.31 c 0,0 -7.11,-2.4 -11.87,4.59 0,0 7.06,4.7 11.87,-4.59 z m 0.52,2.81 c 0,0 -9.69,2.93 -9.44,14.34 0,0 11.43,-0.38 9.44,-14.34 z m 69.52,-39.8 c 0,0 -6.61,-3.55 -12.47,2.56 0,0 6.19,5.8 12.47,-2.56 z m -16.91,-8.4 c 0,0 -5.28,-2.83 -9.96,2.05 0,0 4.94,4.63 9.96,-2.05 z m 20.26,1.25 c 0,0 -0.83,-7.46 -9.18,-8.82 0,0 -1.27,8.39 9.18,8.82 z m -2.33,1.66 c 0,0 -6.75,-7.54 -16.98,-2.5 0,0 5.17,10.2 16.98,2.5 z m 82.7,47.98 c 0,0 -5.44,-5.17 -12.7,-0.82 0,0 4.44,7.23 12.7,0.82 z m -9.58,-4.56 c 0,0 -4.35,-4.13 -10.15,-0.66 0,0 3.54,5.77 10.15,0.66 z m -11.87,14.4 c 0,0 -1.48,-5.81 -8.23,-5.96 0,0 -0.08,6.77 8.23,5.96 z m -16.18,-29.2 c 0,0 -1.12,-4.39 -6.23,-4.51 0,0 -0.06,5.12 6.23,4.51 z m 40.07,14.42 c 0,0 -3.35,-6.73 -11.67,-5.12 0,0 1.7,8.32 11.67,5.12 z M 320.87,54.27 c 0,0 -3.82,6.54 2.12,12.67 0,0 6.07,-6.03 -2.12,-12.67 z m 21.92,5.8 c 0,0 0.22,-7.57 -7.92,-10.11 0,0 -2.45,8.2 7.92,10.11 z m -32.63,15.1 c 0,0 1.85,-9.57 -7.98,-14.49 0,0 -4.81,9.91 7.98,14.49 z m -7.23,-0.29 c 0,0 -3.11,-9.24 -14.1,-8.66 0,0 0.71,11 14.1,8.66 z m 12.43,2.2 c 0,0 4.68,-6.65 -1.12,-13.75 0,0 -7.05,5.9 1.12,13.75 z m 16.48,-8.95 c 0,0 4.68,-6.65 -1.12,-13.75 0,0 -7.05,5.9 1.12,13.75 z m -6.29,6.13 c 0,0 4.04,-2.95 2.06,-8.23 0,0 -5.27,2.04 -2.06,8.23 z m -2.15,-0.71 c 0,0 0.59,-4.97 -4.62,-7.12 0,0 -2.1,5.25 4.62,7.12 z m -11.63,5.36 c 0,0 -4.35,-4.13 -10.15,-0.66 0,0 3.54,5.77 10.15,0.66 z m 17.46,1.72 c 0,0 -3.35,-6.73 -11.67,-5.12 0,0 1.7,8.32 11.67,5.12 z m 1.34,14.99 c 0,0 10.56,-1.31 12.33,-13.18 0,0 -11.91,-1.64 -12.33,13.18 z m 5.01,-19.3 c 0,0 6.08,6.46 14.94,1.8 0,0 -4.77,-8.82 -14.94,-1.8 z m -0.53,-1.43 c 0,0 5.36,-3.75 2.92,-10.7 0,0 -6.94,2.53 -2.92,10.7 z m -5.95,11.8 c 0,0 4.68,-1.25 4.74,-6.72 0,0 -5.48,0 -4.74,6.72 z m 34.27,4.65 c 0,0 -8.52,-1.64 -12.88,7.11 0,0 8.82,4.27 12.88,-7.11 z m -12.16,1.53 c 0,0 -6.8,-1.31 -10.29,5.68 0,0 7.05,3.41 10.29,-5.68 z m 13.4,-10.56 c 0,0 -3.47,-7.95 -13.16,-6.58 0,0 1.48,9.69 13.16,6.58 z m -2,2.63 c 0,0 -10.03,-6.01 -19.6,3.08 0,0 9.21,9.48 19.6,-3.08 z m -80.22,29.16 c 0,0 0,-8.67 -9.42,-11.3 0,0 -2.52,9.47 9.42,11.3 z m -5.85,-12.47 c 0,0 0,-6.93 -7.53,-9.02 0,0 -2.01,7.57 7.53,9.02 z m 14.14,8.29 c 0,0 7.15,-4.92 3.97,-14.17 0,0 -9.24,3.29 -3.97,14.17 z m -3.78,0.58 c 0,0 3.99,-10.99 -6.74,-18.66 0,0 -7.56,10.85 6.74,18.66 z m 82.2,23.86 c 0,0 4.09,7.32 13.29,5.1 0,0 -2.34,-9.19 -13.29,-5.1 z m 8.71,8.04 c 0,0 3.27,5.85 10.61,4.07 0,0 -1.87,-7.34 -10.61,-4.07 z m -15.59,-0.33 c 0,0 -3.72,7.52 3.33,13.84 0,0 6.25,-7.13 -3.33,-13.84 z m 2.62,-3.17 c 0,0 1.81,11.17 14.49,12.58 0,0 1.27,-12.72 -14.49,-12.58 z m 20.26,59.24 c 0,0 -11.27,-1.57 -16.39,10.21 0,0 11.86,4.99 16.39,-10.21 z m -1.13,-26.33 c 0,0 -10.58,4.2 -9.22,16.97 0,0 12.78,-1.51 9.22,-16.97 z m -0.02,0.07 c 0,0 -11.08,-2.62 -17.28,8.62 0,0 11.34,6.09 17.28,-8.62 z m 0.04,21.27 c 0,0 -8.04,-5.05 -15.97,2.16 0,0 7.31,7.85 15.97,-2.16 z m 6.45,-28.76 c 0,0 -7.23,-4.54 -14.35,1.94 0,0 6.57,7.06 14.35,-1.94 z m 4.42,-9.61 c 0,0 -9.7,-6.08 -19.24,2.6 0,0 8.82,9.47 19.24,-2.6 z m -22.83,44.96 c 0,0 -8.04,-5.05 -15.97,2.16 0,0 7.32,7.86 15.97,-2.16 z m -26.53,37.75 c 0,0 -2.79,-9.08 -13.5,-8.8 0,0 0.41,10.73 13.5,8.8 z m 10.58,-15.67 c 0,0 9.44,-1.04 11.16,-11.61 0,0 -10.61,-1.61 -11.16,11.61 z m -3.15,-3.72 c 0,0 6.6,-6.83 1.19,-16.07 0,0 -9.2,5.53 -1.19,16.07 z m -4.25,-0.63 c 0,0 -0.5,-9.48 -10.95,-11.81 0,0 -2.22,10.5 10.95,11.81 z m -1.71,-13.17 c 0,0 4.06,-4.2 0.73,-9.88 0,0 -5.66,3.4 -0.73,9.88 z m -2.62,-0.38 c 0,0 -0.31,-5.84 -6.74,-7.27 0,0 -1.37,6.46 6.74,7.27 z m 26.07,-18.68 c 0,0 -3.69,-4.53 -9.73,-1.89 0,0 2.71,6.02 9.73,1.89 z m -0.69,2.55 c 0,0 -5.83,-0.39 -8.01,5.83 0,0 6.25,2.12 8.01,-5.83 z m 4.16,-25.06 c 0,0 -3.69,-4.53 -9.73,-1.9 0,0 2.71,6.02 9.73,1.9 z m -0.69,2.55 c 0,0 -5.83,-0.39 -8.02,5.83 0,0 6.26,2.12 8.02,-5.83 z m -21.7,55.71 c 0,0 -10.16,-5.38 -19.09,4.03 0,0 9.53,8.84 19.09,-4.03 z M 337.11,190.5 c 0,0 -10.16,-5.39 -19.09,4.03 0,0 9.53,8.84 19.09,-4.03 z m -6.72,13.99 c 0,0 -6.1,-9.75 -18.54,-6.08 0,0 3.82,12.43 18.54,6.08 z m 7.55,12.31 c 0,0 -6.09,-9.75 -18.54,-6.08 0,0 3.82,12.43 18.54,6.08 z m -9.21,11.32 c 0,0 -0.16,-9.3 -10.31,-11.94 0,0 -2.53,10.2 10.31,11.94 z m 15.18,-55.13 c 0,0 -7.52,5.8 -3.51,15.72 0,0 9.91,-4.14 3.51,-15.72 z m 4.62,1.54 c 0,0 -2.1,9.26 7.33,14.35 0,0 4.99,-9.5 -7.33,-14.35 z m 2.4,-1.63 c 0,0 4.53,6.65 13.13,3.74 0,0 -3.02,-8.59 -13.13,-3.74 z m -2.68,-1.58 c 0,0 11.48,-0.67 14.22,-13.35 0,0 -12.74,-2.6 -14.22,13.35 z m 42.94,19.04 c 0,0 7.85,-5.11 4.68,-15.18 0,0 -10.06,3.29 -4.68,15.18 z m 0,-0.06 c 0,0 9.36,0.32 12.54,-9.75 0,0 -10.13,-3.07 -12.54,9.75 z m -3.48,-17.14 c 0,0 7.31,2.76 12.52,-4.33 0,0 -7.17,-5.15 -12.52,4.33 z m -0.54,24.24 c 0,0 6.57,2.49 11.26,-3.89 0,0 -6.45,-4.63 -11.26,3.89 z m -2.01,8.47 c 0,0 8.81,3.33 15.09,-5.22 0,0 -8.65,-6.21 -15.09,5.22 z m 14.76,-28.53 c 0,0 3.71,3.05 8.15,-0.05 0,0 -3.16,-4.42 -8.15,0.05 z m 0.14,-2.17 c 0,0 4.77,-0.64 5.52,-6 0,0 -5.39,-0.69 -5.52,6 z m 65.71,4.62 c 0,0 3.71,3.05 8.15,-0.05 0,0 -3.16,-4.42 -8.15,0.05 z m 0.14,-2.17 c 0,0 4.77,-0.64 5.52,-6 0,0 -5.39,-0.69 -5.52,6 z m -43.5,42.8 c 0,0 4.45,3.67 9.79,-0.06 0,0 -3.8,-5.3 -9.79,0.06 z m 0.17,-2.61 c 0,0 5.72,-0.76 6.62,-7.21 0,0 -6.47,-0.83 -6.62,7.21 z m 16.29,20.07 c 0,0 -0.91,5.7 5,8.42 0,0 2.66,-5.96 -5,-8.42 z m 2.34,-1.17 c 0,0 3.55,4.55 9.57,2.07 0,0 -2.55,-6 -9.57,-2.07 z m -40.44,-40.67 c 0,0 3.71,3.06 8.15,-0.05 0,0 -3.16,-4.42 -8.15,0.05 z m 0.14,-2.17 c 0,0 4.77,-0.63 5.52,-6 0,0 -5.39,-0.69 -5.52,6 z m -7.08,-45.33 c 0,0 5.12,-5.89 0.28,-13.25 0,0 -7.32,4.94 -0.28,13.25 z m 25.47,33.86 c 0,0 0.19,-7.81 -8.24,-10.38 0,0 -2.48,8.47 8.24,10.38 z m -1.67,1.7 c 0,0 -4.74,-4.63 -11.2,-0.88 0,0 3.83,6.43 11.2,0.88 z m 2.41,0.84 c 0,0 -9.15,2.41 -9.3,13.08 0,0 10.69,0.03 9.3,-13.08 z m -10.68,-67.57 c 0,0 1.07,-7.43 -6.67,-10.84 0,0 -3.33,7.8 6.67,10.84 z m -1.82,-10.45 c 0,0 0.86,-5.93 -5.33,-8.66 0,0 -2.66,6.23 5.33,8.66 z m 10.9,11.16 c 0,0 6.73,-3.33 5.15,-11.64 0,0 -8.31,1.67 -5.15,11.64 z m -3.58,-1.62 c 0,0 4.78,-8.92 -3.46,-16.81 0,0 -7.82,8.35 3.46,16.81 z M 223.32,101.03 c 0,0 -5.43,3.42 -3.37,10.36 0,0 6.93,-2.15 3.37,-10.36 z m 49.53,58.9 c 0,0 -4.26,-6.18 -12.26,-3.43 0,0 2.85,7.99 12.26,3.43 z m -1.41,3.58 c 0,0 -7.22,-2.05 -11.63,5.18 0,0 7.29,4.34 11.63,-5.18 z m 1.19,1.96 c 0,0 -5.44,3.3 -3.5,10.21 0,0 6.9,-2.02 3.5,-10.21 z m 1.36,-2.04 c 0,0 0.05,9.09 9.94,11.78 0,0 2.59,-9.94 -9.94,-11.78 z m 21.66,-2.26 c 0,0 -0.43,7.49 7.58,10.23 0,0 2.65,-8.06 -7.58,-10.23 z m 3.32,-1.96 c 0,0 4.45,6.05 12.36,3.04 0,0 -3.1,-7.9 -12.36,-3.04 z m 0.26,-2.27 c 0,0 6.32,0.73 9.03,-5.91 0,0 -6.69,-2.64 -9.03,5.91 z M 403.59,79.52 c 0,0 1.41,3.79 5.96,3.41 0,0 -0.44,-4.55 -5.96,-3.41 z M 404.61,78 c 0,0 3.74,1.55 6.55,-2.04 0,0 -3.63,-2.78 -6.55,2.04 z m 12.3,11.24 c 0,0 5.65,-7.95 -1.28,-16.49 0,0 -8.48,7.04 1.28,16.49 z m 20.45,9.54 c 0,0 0.98,-9.7 -9.26,-13.71 0,0 -3.9,10.31 9.26,13.71 z m -16.22,-8.42 c 0,0 7.01,-4.12 4.66,-12.98 0,0 -8.86,2.46 -4.66,12.98 z m 11.37,-7.17 c 0,0 4.9,-1.01 5.28,-6.64 0,0 -5.65,-0.32 -5.28,6.64 z m -1.67,-1.53 c 0,0 2.59,-4.28 -1.27,-8.39 0,0 -4.08,3.92 1.27,8.39 z m -9.39,15.87 c 0,0 -2.25,-5.55 -8.97,-4.79 0,0 0.84,6.72 8.97,4.79 z m 11.1,4.62 c 0,0 -0.27,-7.51 -8.51,-9.49 0,0 -1.89,8.28 8.51,9.49 z M 398.94,88.6 c 0,0 5.45,3.28 10.67,-1.65 0,0 -5,-5.17 -10.67,1.65 z m -13.37,30.91 c 0,0 2.87,-2.85 0.65,-6.83 0,0 -3.97,2.28 -0.65,6.83 z m -1.81,-0.31 c 0,0 -0.13,-4.04 -4.56,-5.13 0,0 -1.04,4.45 4.56,5.13 z m 11.99,0.79 c 0,0 0.74,-6.32 -5.9,-9.04 0,0 -2.65,6.69 5.9,9.04 z m -98.87,37.72 c 0,0 5.54,-7.21 -0.62,-15.4 0,0 -8.14,6.26 0.62,15.4 z M 375.74,37.28 c 0,0 5.37,5.34 12.8,1.14 0,0 -4.31,-7.4 -12.8,-1.14 z m -7.37,1.1 c 0,0 2.64,7.1 11.14,6.39 0,0 -0.82,-8.52 -11.14,-6.39 z m 10.96,16.1 c 0,0 2.85,2.87 6.83,0.64 0,0 -2.28,-3.97 -6.83,-0.64 z m 0.3,-1.81 c 0,0 4.04,-0.13 5.12,-4.57 0,0 -4.45,-1.03 -5.12,4.57 z m 15.85,5.15 c 0,0 1.85,-9.57 -7.98,-14.49 0,0 -4.81,9.91 7.98,14.49 z m 22.57,0.23 c 0,0 -3.11,-9.24 -14.1,-8.66 0,0 0.71,11 14.1,8.66 z M 399.8,57.09 c 0,0 4.68,-6.65 -1.12,-13.75 0,0 -7.05,5.9 1.12,13.75 z m -5.08,-10.52 c 0,0 4.68,-6.65 -1.12,-13.75 0,0 -7.05,5.9 1.12,13.75 z m 12.47,-0.71 c 0,0 4.04,-2.95 2.06,-8.23 0,0 -5.27,2.04 -2.06,8.23 z m -2.15,-0.71 c 0,0 0.6,-4.97 -4.62,-7.12 0,0 -2.1,5.25 4.62,7.12 z m 23.51,22.89 c 0,0 -5.44,-5.17 -12.7,-0.82 0,0 4.44,7.23 12.7,0.82 z m -25.5,-4.56 c 0,0 -4.35,-4.13 -10.15,-0.66 0,0 3.54,5.77 10.15,0.66 z M 375,48.68 c 0,0 -1.12,-4.39 -6.23,-4.51 0,0 -0.06,5.12 6.23,4.51 z m 3.6,18.25 c 0,0 4.45,6.05 12.36,3.04 0,0 -3.1,-7.9 -12.36,-3.04 z m 0.26,-2.27 c 0,0 6.32,0.73 9.03,-5.91 0,0 -6.69,-2.64 -9.03,5.91 z m -2.33,0.78 c 0,0 5.54,-7.21 -0.62,-15.4 0,0 -8.14,6.26 0.62,15.4 z m 2.76,188.34 c 0,0 -3.07,-4.97 -9.4,-3.13 0,0 1.91,6.32 9.4,3.13 z m -1.02,2.44 c 0,0 -5.73,-1.13 -8.7,4.75 0,0 5.93,2.91 8.7,-4.75 z M 347,257.23 c 0,0 -8.21,4.78 -5.51,15.14 0,0 10.36,-2.83 5.51,-15.14 z m 3.57,4.58 c 0,0 -3.28,8.91 5.42,15.17 0,0 6.17,-8.78 -5.42,-15.17 z m 4.63,-0.9 c 0,0 3.64,7.18 12.54,5.4 0,0 -1.89,-8.9 -12.54,-5.4 z m -2.45,-1.92 c 0,0 11.47,0.81 15.83,-11.41 0,0 -12.29,-4.22 -15.83,11.41 z m 70.47,-85.84 c 0,0 3.06,-9.39 -6.21,-15.56 0,0 -6.08,9.37 6.21,15.56 z m 0,77.31 c 0,0 3.06,-9.39 -6.21,-15.56 0,0 -6.08,9.36 6.21,15.56 z m -25.57,-90.27 c 0,0 3.85,4.39 9.79,1.53 0,0 -2.93,-5.92 -9.79,-1.53 z m 0.59,-2.57 c 0,0 5.84,0.17 7.8,-6.12 0,0 -6.33,-1.89 -7.8,6.12 z m 55.99,9.61 c 0,0 7.3,-6.07 2.93,-15.84 0,0 -9.75,4.5 -2.93,15.84 z m -4.67,-1.37 c 0,0 1.75,-9.33 -7.85,-14.07 0,0 -4.63,9.68 7.85,14.07 z m -2.34,1.72 c 0,0 -4.78,-6.48 -13.27,-3.25 0,0 3.34,8.47 13.27,3.25 z m 2.73,1.49 c 0,0 -11.45,1.1 -13.72,13.87 0,0 12.83,2.13 13.72,-13.87 z M 219.37,373.35 c -8.42,-0.31 -14.34,0.93 -19.64,6.55 -5.3,5.61 -11.22,6.55 -11.22,6.55 0,0 3.74,1.87 17.15,-4.99 13.41,-6.86 23.16,9.38 43.74,1.59 20.58,-7.79 14.87,-15.62 17.99,-21.85 3.12,-6.24 6.23,-5.3 9.98,-11.54 3.74,-6.23 4.36,-10.91 10.29,-18.39 5.92,-7.48 0.63,-29.93 -5.3,-39.91 -5.92,-9.98 6.23,-43.02 7.48,-53 1.25,-9.98 1.87,-18.4 -5.61,-29 -7.48,-10.6 -19.64,-9.04 -28.37,-9.98 -8.73,-0.94 -14.65,-4.68 -18.71,-6.86 -4.05,-2.18 -5.3,-20.27 -8.73,-24.32 -3.43,-4.05 -7.17,-4.05 -20.27,-4.37 -13.09,-0.31 -19.33,-2.18 -24.01,-10.29 -4.68,-8.11 7.91,-12.45 8.42,-22.14 0.26,-5.03 -6.55,-10.91 -9.35,-14.03 -2.81,-3.12 -0.31,-14.65 -0.94,-12.47 -0.62,2.18 -1.56,6.86 -2.8,10.6 -1.25,3.74 4.99,8.73 6.86,13.72 1.87,4.99 -4.37,8.73 -6.55,11.85 -2.18,3.12 -4.05,11.22 4.37,23.07 8.42,11.85 33.67,3.74 39.28,8.73 5.61,4.99 5.61,17.46 5.61,17.46 0,0 -8.42,-1.25 -18.08,-3.12 -9.66,-1.87 -23.7,10.29 -26.5,10.91 -2.81,0.62 -13.72,-9.04 -19.95,-10.91 -6.23,-1.87 -13.1,3.74 -18.39,4.37 -5.3,0.62 -10.6,-4.05 -12.16,-7.79 -1.56,-3.74 -5.61,-9.98 -7.17,-11.85 -1.56,-1.87 -4.48,-4.15 -9.77,-5.09 -5.29,-0.94 -11.43,-4.89 -11.43,-4.89 0,0 7.26,6.98 14.5,10.37 5.78,2.7 9.03,12.3 13.39,20.41 4.36,8.11 12.01,3.21 19.81,2.27 7.8,-0.94 8.11,-3.43 16.21,1.25 8.11,4.68 10.6,5.61 10.6,5.61 0,0 -0.94,2.81 -2.18,4.36 -1.25,1.56 -9.04,11.54 -11.22,12.47 -2.18,0.93 -7.17,6.23 -7.17,9.04 0,2.81 -4.99,4.99 -9.04,4.68 -4.05,-0.31 -5.92,3.12 -6.55,6.24 -0.62,3.12 -7.48,4.99 -7.48,4.99 0,0 -2.49,0.31 1.25,0.62 3.74,0.31 9.04,-2.81 9.35,-6.55 0.31,-3.74 7.79,-0.94 12.47,-3.12 4.68,-2.18 3.74,-4.99 6.86,-4.99 3.12,0 7.21,8.28 7.75,12.26 0.3,2.23 -2.68,4.52 -6.11,6.7 -3.43,2.18 -1.33,6.91 -1.33,6.91 -0.07,-5 5.61,-5.92 8.42,-7.79 2.81,-1.87 4.05,-9.04 -0.93,-14.65 -4.99,-5.61 2.81,-12.47 4.99,-17.15 2.18,-4.68 19.33,-16.84 24.32,-19.33 4.99,-2.49 18.71,-0.62 21.82,0.62 3.12,1.25 15.9,8.11 19.64,8.73 3.74,0.62 15.9,0.62 15.9,0.62 0,0 -10.6,4.37 -11.85,6.86 -1.25,2.49 -1.87,6.86 -1.25,12.16 0.62,5.3 -1.25,11.85 -2.49,13.41 -1.25,1.56 -8.73,1.56 -12.16,6.23 -3.43,4.68 -0.62,10.91 -0.62,10.91 v -5.3 c 0,-5.3 4.05,-6.86 9.98,-8.73 5.92,-1.87 6.86,-3.12 7.48,-10.6 0.62,-7.48 1.87,-16.52 7.48,-19.64 5.61,-3.12 15.28,-4.68 22.45,9.67 7.17,14.34 -4.37,31.8 -7.48,41.47 -3.12,9.67 2.18,20.89 3.43,28.68 1.25,7.79 2.18,9.35 -1.25,19.02 -3.43,9.66 -4.99,13.72 -3.43,24.32 1.56,10.6 -4.05,11.22 -10.91,17.77 -6.86,6.55 -7.17,16.84 -7.17,16.84 -1.87,8.11 -25.25,4.05 -33.67,3.74 z m 65.16,-87.4 c 0.5,4.76 3.76,7.52 7.77,17.54 4.01,10.02 3.26,20.3 3.26,20.3 l 3.26,-6.52 c 3.26,-6.52 -1.25,-21.8 -3.76,-32.58 -2.5,-10.78 -2.37,-16.41 1.75,-27.07 5.76,-14.89 -4.01,-32.58 -4.01,-32.58 0,0 0.41,10.17 0.16,17.69 -0.25,7.52 -4.17,15.14 -4.17,15.14 -5.76,14.28 -4.76,23.31 -4.26,28.07 z m 107.01,106.51 c 6.26,3.51 30.83,-1.25 20.05,-2.01 -0.52,-0.04 -1.02,-0.07 -1.51,-0.09 -9.74,-0.5 -14.5,0.91 -23.8,-7.68 -9.77,-9.02 -25.56,-9.77 -44.61,-12.03 -19.05,-2.26 -25.56,-13.03 -23.56,-22.3 2,-9.27 -7.52,-21.8 -6.01,-30.07 1.5,-8.27 -2.01,-14.53 -4.26,-19.55 -2.26,-5.01 -3.26,-15.54 -3.01,-27.57 0.25,-12.03 7.27,-25.81 7.77,-34.33 0.5,-8.52 -2.51,-12.03 -7.02,-28.82 -4.51,-16.79 10.28,-21.05 16.29,-22.05 6.02,-1 16.79,-10.78 20.8,-13.28 4.01,-2.51 11.28,-19.3 12.78,-22.05 1.5,-2.76 2.76,-16.29 0.75,-23.06 -2,-6.77 10.27,3.01 11.03,2.76 0.75,-0.25 11.03,3.01 17.79,4.76 6.76,1.75 13.78,-2 21.8,-6.77 8.02,-4.76 10.53,-3.26 10.53,-3.26 0,0 1.25,1.25 -0.5,-1 -1.75,-2.26 -7.77,-1.75 -14.03,1.5 -6.26,3.26 -13.53,5.76 -17.79,3.76 -4.26,-2 -14.79,-5.76 -15.79,-5.76 -1,0 -9.77,-4.26 -3.51,-10.27 6.26,-6.01 8.27,-21.8 8.27,-21.8 0,0 1.75,-5.76 6.02,-8.27 4.26,-2.51 10.78,1 16.54,0.75 5.76,-0.25 4.26,-5.51 5.01,-8.02 0.75,-2.51 1.5,-3.51 5.76,-4.76 4.26,-1.25 5.51,-5.76 5.51,-5.76 -0.75,2.51 -8.02,3.51 -11.53,4.51 -3.51,1 -1.75,6.01 -5.51,8.27 -3.76,2.25 -10.27,-0.75 -15.03,-0.5 -4.76,0.25 -10.27,4.01 -10.27,4.01 0,0 -2.76,-5.51 -6.02,-8.77 -3.26,-3.26 3.76,-4.51 4.76,-7.27 1,-2.76 -1.51,-6.01 -1.51,-6.01 2.76,2.76 -2.25,7.02 -6.76,9.77 -4.51,2.76 -1,6.77 4.26,11.03 5.26,4.26 1.25,16.29 1.25,22.3 0,6.01 -10.27,8.27 -13.78,12.03 -3.51,3.76 -7.52,7.52 -5.26,16.29 2.26,8.77 -4.01,21.3 -11.28,31.08 -7.27,9.77 -12.03,10.53 -23.06,12.53 -11.03,2 -10.27,3.01 -15.04,2.51 -4.76,-0.5 -7.52,-23.31 -11.53,-39.85 -4.01,-16.54 13.28,-21.55 16.29,-23.06 3.01,-1.5 6.26,-3.01 8.27,1.25 2,4.26 5.26,7.52 9.02,8.77 3.76,1.25 6.77,5.01 6.52,3.76 -0.25,-1.25 0.25,-5.76 -5.52,-6.77 -5.76,-1 -5.26,-7.52 -8.27,-11.53 -3.01,-4.01 -8.77,1 -10.78,0.5 -2.01,-0.5 -0.25,-3.26 2.01,-11.78 2.25,-8.52 -1.25,-11.53 -1.25,-11.53 0,0 0.25,12.28 -3.26,20.05 -3.51,7.77 -9.27,6.26 -17.79,12.78 -8.52,6.52 -5.26,11.53 -3.01,18.79 2.26,7.27 1.5,12.28 -4.51,10.78 -6.02,-1.5 -10.28,-17.54 -12.28,-23.56 -2,-6.01 -4.76,-18.29 -4.76,-18.29 0,0 -1.25,-5.01 -0.5,-9.02 0.75,-4.01 5.01,-4.76 6.02,-10.02 1,-5.26 -1.5,-7.02 -1.5,-7.02 1.75,3.01 1.5,7.02 -3.76,10.78 -5.26,3.76 -4.26,10.53 -4.26,10.53 0,0 0,-3.76 -7.77,-10.02 -7.77,-6.27 -19.3,-5.51 -23.56,-6.52 -4.26,-1 -2.01,-7.27 -2.01,-7.27 -4.26,8.02 -3.01,11.78 12.53,13.28 15.54,1.5 17.79,12.53 20.3,19.55 2.51,7.02 1.5,13.28 1.5,13.28 -9.02,1 -11.28,9.52 -13.28,9.77 -2,0.25 -5.51,-7.27 -6.76,-12.03 -1.25,-4.76 -13.03,-5.76 -19.8,-7.27 -6.77,-1.5 -7.02,-6.77 -7.02,-6.77 -3.76,2 -1.51,7.27 5.01,9.27 6.52,2 9.27,2.76 16.79,6.27 7.52,3.51 3.26,8.27 9.02,13.03 5.76,4.76 12.28,-6.01 16.29,-7.52 4.01,-1.5 4.76,8.27 7.77,19.05 3.01,10.78 13.53,8.77 19.04,13.28 5.51,4.51 9.77,27.06 11.28,40.35 1.5,13.28 9.77,33.58 10.27,41.35 0.5,7.77 -6.52,26.06 -7.27,31.58 -0.75,5.51 7.77,28.57 8.27,34.08 0.5,5.51 -3.01,12.28 -3.26,18.55 -0.25,6.27 4.76,10.78 6.76,18.29 2.01,7.52 -1.75,11.53 0.25,20.05 2,8.52 11.78,18.54 28.57,13.28 16.79,-5.26 35.59,6.52 35.59,6.52 7.27,4.51 13.53,2.76 19.8,6.27 z m -83.7,-111.52 c -1,9.52 3.26,17.54 8.27,27.32 5.01,9.77 -0.75,14.03 1,17.79 1.75,3.76 4.26,11.28 4.26,21.8 0,10.52 1.5,14.28 13.03,18.54 11.53,4.26 26.56,-1.5 43.86,-0.75 17.29,0.75 24.56,8.77 30.07,12.03 5.51,3.26 26.31,0 33.33,-1.5 7.02,-1.5 22.34,-2 22.34,-2 0,0 6.48,1 0.97,-0.76 -5.51,-1.75 -27.07,2.26 -40.85,2.26 -13.78,0 -17.04,-2.26 -26.81,-9.52 -9.78,-7.27 -23.81,-3.51 -36.09,-4.26 -12.28,-0.75 -12.78,-2.51 -21.05,-4.51 -8.27,-2 -13.78,-25.31 -14.03,-33.58 -0.25,-8.27 -3.51,-15.04 -5.51,-24.56 -2,-9.52 9.02,-23.56 11.28,-32.58 2.25,-9.02 5.51,-3.51 16.29,-13.03 10.78,-9.52 13.78,-4.51 26.31,-8.27 12.53,-3.76 12.28,-7.52 17.29,-17.04 5.01,-9.52 19.55,-7.27 19.55,-7.27 0,0 0.75,3.51 0.5,5.01 -0.25,1.5 1.5,3.26 2.76,7.77 1.25,4.51 10.27,1.75 16.04,0 5.76,-1.75 7.77,3.76 7.77,3.76 0,0 -0.25,-3.76 -3.26,-7.27 -3.01,-3.51 -5.76,-0.5 -13.03,0 -7.27,0.5 -2,-3.26 -3.26,-5.76 -1.25,-2.51 -2.01,-9.02 -1,-12.03 1,-3.01 8.77,-7.02 13.03,-10.02 4.26,-3 14.28,-7.52 18.54,-9.52 4.26,-2 8.27,-7.02 10.78,-12.78 2.51,-5.76 6.77,-8.02 5.01,-7.77 -1.75,0.25 -7.77,1.75 -9.27,7.02 -1.5,5.26 -7.52,10.02 -13.78,11.78 -6.27,1.75 -7.52,3.01 -7.52,3.01 0,0 -1.75,-3.26 -5.76,-6.52 -4.01,-3.26 -4.76,-1.75 -2.76,-4.01 2.01,-2.26 -0.25,-8.02 -0.25,-8.02 0,0 -2.01,6.77 -3.76,9.02 -1.75,2.26 7.77,8.02 8.52,10.53 0.75,2.51 2.76,3.26 -9.02,6.77 -11.78,3.51 -9.77,9.52 -15.54,11.03 -5.76,1.5 -9.02,1 -16.54,4.26 -7.52,3.26 -12.78,16.79 -21.3,20.8 -8.52,4.01 -26.07,5.76 -35.09,7.27 -9.02,1.5 -17.69,21.12 -17.69,21.12 0,0 -0.53,-2.3 1.23,-9.82 1.75,-7.52 1.18,-20.57 1.18,-20.57 0,0 -1.18,8.51 -6.52,17.54 -4.97,8.42 -3.51,27.32 -3.51,27.32 m -30.71,94.13 c 4.16,-1.33 8,0.17 9.83,2.33 1.83,2.17 1.83,5.66 1.83,5.66 3,-5.66 -3.16,-13.66 -5,-17.33 -1.83,-3.66 2.67,-13.83 3.83,-16.49 1.16,-2.67 0.33,-4.5 0.33,-6.83 0,-2.33 6.16,-14.49 6.16,-14.49 0,0 -1,2.17 -3.66,5.16 -2.67,3 -5.67,6.33 -5.67,10.83 0,4.5 -6.5,11.33 -9.83,13.83 -3.33,2.5 -6.33,5.83 -6.16,9.66 0.17,3.83 -3,10.83 -3,10.83 3.17,-1.17 7.16,-1.83 11.33,-3.17 z m 18.49,-44.65 c 0,0 -4,7.16 -4.33,10.33 -0.33,3.17 0.67,8.83 -1.83,13.83 -2.5,5 -3.16,7.83 -1,11.66 2.17,3.83 3.33,9.83 3.33,9.83 0,0 8.33,-1.33 13.66,0.33 5.33,1.67 7.33,1.67 7.33,1.67 0,0 -7.5,-2.83 -8.33,-6.83 -0.83,-4 0.5,-13.66 0.33,-17.66 -0.17,-4 -3,-14.33 -4.16,-15.33 -1.17,-1 -2.83,-5.17 -5,-7.83 z"
       id="path57" />
    <g
       class="e"
       clip-path="url(#b)"
       id="g71">
      <g
         id="g69">
        <rect
           class="d"
           y="323.25"
           width="593.13"
           height="86.150002"
           id="rect59"
           x="0" />
        <rect
           class="d"
           y="242.44"
           width="593.13"
           height="86.150002"
           id="rect61"
           x="0" />
        <rect
           class="d"
           y="161.63"
           width="593.13"
           height="86.150002"
           id="rect63"
           x="0" />
        <rect
           class="d"
           y="80.809998"
           width="593.13"
           height="86.150002"
           id="rect65"
           x="0" />
        <rect
           class="d"
           width="593.13"
           height="86.150002"
           id="rect67"
           x="0"
           y="0" />
      </g>
    </g>
  </g>
</svg>
