<?xml version="1.0" encoding="UTF-8" standalone="no"?>
<!-- Created with Inkscape (http://www.inkscape.org/) -->

<svg
   version="1.1"
   id="svg2"
   xml:space="preserve"
   width="310.66666"
   height="102.66667"
   viewBox="0 0 310.66666 102.66667"
   sodipodi:docname="logo_la-societe-nouvelle.svg"
   inkscape:version="1.1 (c68e22c387, 2021-05-23)"
   xmlns:inkscape="http://www.inkscape.org/namespaces/inkscape"
   xmlns:sodipodi="http://sodipodi.sourceforge.net/DTD/sodipodi-0.dtd"
   xmlns="http://www.w3.org/2000/svg"
   xmlns:svg="http://www.w3.org/2000/svg"><defs
     id="defs6"><clipPath
       clipPathUnits="userSpaceOnUse"
       id="clipPath20"><path
         d="M 0,77 H 233 V 0 H 0 Z"
         id="path18" /></clipPath></defs><sodipodi:namedview
     id="namedview4"
     pagecolor="#ffffff"
     bordercolor="#666666"
     borderopacity="1.0"
     inkscape:pageshadow="2"
     inkscape:pageopacity="0.0"
     inkscape:pagecheckerboard="0"
     showgrid="false"
     inkscape:zoom="4.1169529"
     inkscape:cx="155.33333"
     inkscape:cy="51.372946"
     inkscape:window-width="1920"
     inkscape:window-height="1001"
     inkscape:window-x="-9"
     inkscape:window-y="-9"
     inkscape:window-maximized="1"
     inkscape:current-layer="g8" /><g
     id="g8"
     inkscape:groupmode="layer"
     inkscape:label="logo"
     transform="matrix(1.3333333,0,0,-1.3333333,0,102.66667)"><g
       id="g10"
       transform="translate(106.677,66.5157)"><path
         d="m 0,0 v -21.013 h 8.848 v -2.343 H -2.834 l 0,23.356 z"
         style="fill:#191558;fill-opacity:1;fill-rule:nonzero;stroke:none"
         id="path12" /></g><g
       id="g14"><g
         id="g16"
         clip-path="url(#clipPath20)"><g
           id="g22"
           transform="translate(126.368,51.7037)"><path
             d="m 0,0 c -0.131,0.024 -0.261,0.059 -0.387,0.103 -0.531,0.089 -1.069,0.135 -1.607,0.139 -3.464,0 -5.154,-1.367 -5.154,-4.163 0,-1.857 1.124,-2.977 2.907,-2.977 2.551,0 4.303,2.342 4.303,5.675 z m -9.163,4.762 c 0.135,1.117 0.687,2.142 1.546,2.868 1.28,1.05 2.891,1.61 4.545,1.579 2.062,0 3.85,-0.805 4.726,-2.136 0.665,-0.98 0.84,-2.063 0.84,-5.009 v -5.077 c 0,-3.642 0.031,-4.2 0.314,-5.531 H 0.355 c -0.129,1.027 -0.197,2.061 -0.206,3.096 -1.293,-2.58 -2.659,-3.57 -4.931,-3.57 -3.046,0 -5.107,2.099 -5.107,5.216 10e-4,1.378 0.462,2.716 1.309,3.802 1.257,1.469 3.356,2.203 6.297,2.203 0.759,-0.005 1.518,-0.052 2.273,-0.139 v 0.737 c 0,2.905 -1.031,4.272 -3.252,4.272 -1.752,0 -2.907,-0.949 -3.396,-2.734 z"
             style="fill:#191558;fill-opacity:1;fill-rule:nonzero;stroke:none"
             id="path24" /></g><g
           id="g26"
           transform="translate(151.063,60.4227)"><path
             d="m 0,0 c -1.031,3.096 -2.273,4.2 -4.638,4.2 -2.273,0 -3.917,-1.548 -3.917,-3.643 0.007,-0.829 0.319,-1.626 0.876,-2.239 0.732,-0.738 1.469,-1.119 4.298,-2.208 2.448,-0.944 3.674,-1.61 4.69,-2.518 0.609,-0.584 1.093,-1.285 1.424,-2.062 0.33,-0.777 0.5,-1.613 0.498,-2.457 0,-3.993 -3.092,-6.826 -7.452,-6.826 -2.164,0 -4.406,0.769 -5.736,1.992 -1.221,1.124 -1.819,2.311 -2.308,4.643 l 2.576,0.702 c 0.418,-1.749 0.804,-2.58 1.546,-3.4 0.522,-0.51 1.141,-0.91 1.82,-1.176 0.679,-0.266 1.404,-0.393 2.133,-0.372 2.659,0 4.442,1.61 4.442,4.029 0,2.1 -1.118,3.256 -4.545,4.587 -3.427,1.331 -3.917,1.609 -5.004,2.518 -0.638,0.595 -1.149,1.313 -1.503,2.111 -0.355,0.798 -0.544,1.659 -0.558,2.532 0,3.57 2.901,6.191 6.89,6.191 0.926,0.038 1.851,-0.119 2.712,-0.463 C -0.894,5.796 -0.115,5.274 0.53,4.607 1.443,3.627 1.932,2.714 2.489,0.753 Z"
             style="fill:#191558;fill-opacity:1;fill-rule:nonzero;stroke:none"
             id="path28" /></g><g
           id="g30"
           transform="translate(159.875,51.8069)"><path
             d="m 0,0 c 0,-4.587 1.293,-7.001 3.777,-7.001 2.484,0 3.778,2.378 3.778,7.001 0,4.623 -1.294,6.97 -3.742,6.97 C 1.365,6.97 0,4.592 0,0 m 7.941,7.563 c 1.644,-1.506 2.448,-3.993 2.448,-7.599 0,-3.606 -0.804,-6.057 -2.448,-7.564 -1.155,-1.026 -2.655,-1.579 -4.2,-1.547 -4.195,0 -6.576,3.291 -6.576,9.07 0,5.948 2.345,9.173 6.648,9.173 1.52,0.028 2.995,-0.519 4.128,-1.533"
             style="fill:#191558;fill-opacity:1;fill-rule:nonzero;stroke:none"
             id="path32" /></g><g
           id="g34"
           transform="translate(182.683,54.5361)"><path
             d="m 0,0 c -0.283,1.754 -0.458,2.451 -0.84,3.049 -0.265,0.382 -0.622,0.692 -1.038,0.9 -0.416,0.208 -0.878,0.309 -1.342,0.292 -2.577,0 -3.499,-2.064 -3.499,-7.563 0,-2.735 0.314,-4.205 1.123,-5.222 0.305,-0.363 0.683,-0.657 1.111,-0.862 0.427,-0.205 0.894,-0.315 1.368,-0.324 0.571,-0.014 1.132,0.151 1.606,0.472 0.473,0.32 0.834,0.781 1.032,1.318 0.287,0.765 0.461,1.568 0.516,2.384 l 2.576,-0.315 c -0.35,-2.275 -0.701,-3.219 -1.469,-4.2 -0.876,-1.124 -2.576,-1.821 -4.442,-1.821 -4.06,0 -6.225,3.147 -6.225,8.998 0,6.057 2.201,9.245 6.431,9.245 0.751,0.036 1.499,-0.093 2.195,-0.377 0.695,-0.285 1.32,-0.717 1.83,-1.269 0.84,-0.98 1.227,-1.929 1.68,-4.204 z"
             style="fill:#191558;fill-opacity:1;fill-rule:nonzero;stroke:none"
             id="path36" /></g><g
           id="g38"
           transform="translate(190.831,60.4073)"><path
             d="M 0,0 V -17.247 H -2.577 V 0.016 Z M -2.659,6.072 H 0.103 V 3.095 h -2.762 z"
             style="fill:#191558;fill-opacity:1;fill-rule:nonzero;stroke:none"
             id="path40" /></g><g
           id="g42"
           transform="translate(204.157,68.4041)"><path
             d="m 0,0 1.82,-1.888 -5.808,-3.679 -1.186,1.228 z m 0.387,-14.812 c 0,3.292 -1.294,5.159 -3.535,5.159 -2.062,0 -3.324,-1.79 -3.608,-5.159 z m -7.277,-2.1 c -0.053,-1.189 0.065,-2.379 0.351,-3.534 0.556,-1.966 1.922,-3.152 3.669,-3.152 1.747,0 2.731,1.032 3.499,3.498 l 2.381,-0.557 c -0.876,-3.364 -2.906,-5.077 -6.019,-5.077 -4.195,0 -6.576,3.255 -6.576,8.894 0,5.743 2.577,9.349 6.7,9.349 0.905,0.016 1.801,-0.19 2.609,-0.599 0.808,-0.409 1.505,-1.009 2.029,-1.749 1.03,-1.547 1.468,-3.539 1.571,-7.073 z"
             style="fill:#191558;fill-opacity:1;fill-rule:nonzero;stroke:none"
             id="path44" /></g><g
           id="g46"
           transform="translate(213.882,64.6946)"><path
             d="M 0,0 V -4.272 H 3.391 V -6.377 H 0 v -8.683 c 0,-2.693 0.103,-3.467 0.561,-3.993 0.459,-0.526 1.15,-0.733 2.134,-0.733 0.52,0.011 1.037,0.07 1.546,0.176 v -2.136 c -0.78,-0.176 -1.576,-0.269 -2.376,-0.279 -2.03,0 -3.36,0.697 -3.921,2.064 -0.382,0.877 -0.49,2.064 -0.49,4.901 v 8.683 h -2.489 v 2.105 h 2.479 v 4.024 z"
             style="fill:#191558;fill-opacity:1;fill-rule:nonzero;stroke:none"
             id="path48" /></g><g
           id="g50"
           transform="translate(228.744,68.4041)"><path
             d="m 0,0 1.819,-1.888 -5.803,-3.679 -1.19,1.228 z m 0.386,-14.812 c 0,3.292 -1.293,5.159 -3.53,5.159 -2.061,0 -3.324,-1.79 -3.607,-5.159 z m -7.276,-2.1 c -0.054,-1.189 0.064,-2.379 0.35,-3.534 0.562,-1.966 1.928,-3.152 3.675,-3.152 1.747,0 2.726,1.032 3.499,3.498 l 2.375,-0.557 c -0.876,-3.364 -2.901,-5.077 -6.014,-5.077 -4.199,0 -6.575,3.255 -6.575,8.894 0,5.743 2.551,9.349 6.699,9.349 0.906,0.016 1.802,-0.189 2.61,-0.598 0.808,-0.409 1.504,-1.01 2.028,-1.75 1.031,-1.547 1.469,-3.539 1.572,-7.073 z"
             style="fill:#191558;fill-opacity:1;fill-rule:nonzero;stroke:none"
             id="path52" /></g><g
           id="g54"
           transform="translate(76.3228,13.762)"><path
             d="m 0,0 -0.044,-0.012 -0.037,0.269 0.059,0.008 z M 2.957,2.988 2.942,2.971 C 2.828,3.049 2.713,3.122 2.6,3.207 2.577,3.23 2.556,3.255 2.539,3.282 c 0.037,0 0.09,0.026 0.109,0.01 C 2.752,3.195 2.851,3.095 2.952,2.988 Z M -0.376,0.636 -0.151,-0.4 h 0.045 l 0.181,0.232 c 0.042,-0.097 0.15,-0.199 0.057,-0.351 -0.009,-0.031 -0.009,-0.063 0,-0.094 0.012,-0.061 0.028,-0.121 0.052,-0.217 l 0.08,0.2 0.06,-0.027 0.139,-0.356 0.024,0.088 c 0.02,-0.007 0.034,-0.009 0.042,-0.018 0.037,-0.048 0.072,-0.099 0.109,-0.15 0.153,-0.185 0.365,-0.311 0.6,-0.356 0.202,-0.058 0.417,-0.079 0.625,-0.116 0.018,0 0.046,0 0.054,-0.014 0.017,-0.029 0.042,-0.054 0.071,-0.072 0.029,-0.018 0.062,-0.028 0.097,-0.03 0.066,0 0.126,-0.095 0.198,0 0.007,0.005 0.016,0.007 0.026,0.007 0.009,0 0.018,-0.002 0.026,-0.007 0.13,-0.092 0.174,0 0.214,0.093 l 0.206,-0.064 0.061,0.369 c 0.072,-0.103 0.121,-0.096 0.159,0.03 0.031,0.094 0.066,0.186 0.106,0.276 L 3.189,-1.18 c 0.058,0.054 0.104,0.12 0.134,0.193 0.031,0.074 0.045,0.153 0.043,0.232 0,0.133 0.009,0.133 0.15,0.118 -0.059,0.099 -0.085,0.183 0.016,0.279 0.039,0.036 0,0.14 0.027,0.206 0.048,0.161 0.032,0.336 0.15,0.486 0.053,0.064 0,0.212 0,0.32 C 3.699,0.895 3.691,1.134 3.676,1.373 3.669,1.51 3.645,1.646 3.636,1.783 v 0.27 l 0.061,0.01 c 0.06,-0.15 0.122,-0.292 0.18,-0.438 0.19,-0.478 0.406,-0.947 0.565,-1.434 0.309,-0.943 0.749,-1.828 1.135,-2.737 0.15,-0.341 0.242,-0.703 0.365,-1.052 0.03,-0.087 0,-0.138 -0.069,-0.197 C 5.794,-3.856 5.732,-3.936 5.693,-4.028 5.626,-4.27 5.394,-4.348 5.256,-4.524 5.238,-4.547 5.178,-4.533 5.15,-4.553 5.096,-4.59 5.022,-4.634 5.012,-4.685 5.013,-4.716 5.023,-4.747 5.04,-4.773 c 0.017,-0.026 0.04,-0.048 0.067,-0.063 0.084,-0.03 0.175,-0.035 0.261,-0.013 0.131,0.045 0.258,0.1 0.379,0.167 0.234,0.114 0.464,0.24 0.703,0.341 0.081,0.026 0.168,0.019 0.243,-0.019 0.177,-0.092 0.223,-0.083 0.328,0.078 0.021,0.016 0.046,0.027 0.072,0.031 0.027,0.004 0.053,0.001 0.078,-0.009 0.066,-0.055 0.145,-0.09 0.231,-0.101 0.085,-0.01 0.171,0.004 0.247,0.043 0.078,0.037 0.195,-0.009 0.3,0 0.052,0.009 0.102,0.025 0.15,0.048 C 8.067,-4.23 8.042,-4.174 8,-4.15 7.763,-4.036 7.55,-3.877 7.375,-3.681 7.312,-3.602 7.234,-3.537 7.146,-3.49 7.08,-3.457 7.024,-3.408 6.983,-3.347 6.941,-3.286 6.916,-3.216 6.909,-3.143 6.819,-2.582 6.708,-2.022 6.621,-1.462 6.553,-0.964 6.414,-0.479 6.208,-0.021 6.038,0.341 5.921,0.731 5.776,1.101 5.698,1.301 5.608,1.496 5.532,1.702 5.504,1.761 5.496,1.828 5.509,1.892 5.537,1.986 5.544,2.085 5.53,2.181 5.515,2.278 5.48,2.371 5.425,2.452 5.29,2.71 5.161,2.971 5.042,3.236 5.015,3.318 5.004,3.404 5.01,3.49 5.01,3.807 4.916,4.118 4.74,4.382 4.698,4.445 4.669,4.517 4.656,4.592 4.582,5.04 4.451,5.478 4.267,5.893 4.186,6.087 4.139,6.293 4.129,6.503 4.115,6.941 4.106,7.384 3.925,7.798 3.86,7.92 3.805,8.048 3.759,8.178 3.681,8.403 3.631,8.636 3.609,8.873 3.596,9.818 3.387,10.75 2.996,11.609 c -0.012,0.017 -0.021,0.036 -0.025,0.056 -0.005,0.02 -0.006,0.04 -0.002,0.06 0.004,0.021 0.011,0.04 0.023,0.057 0.011,0.017 0.026,0.031 0.043,0.043 0.202,0.148 0.413,0.285 0.631,0.408 0.173,0.08 0.32,0.209 0.422,0.37 0.045,0.074 0.092,0.151 0.143,0.215 0.027,0.046 0.065,0.083 0.111,0.109 0.256,0.105 0.512,0.207 0.773,0.3 0.071,0.024 0.131,0.073 0.168,0.138 0.036,0.065 0.048,0.141 0.031,0.214 0,0.025 0.007,0.049 0.019,0.071 0.011,0.022 0.028,0.04 0.049,0.054 0.222,0.14 0.449,0.265 0.671,0.408 0.079,0.036 0.146,0.094 0.193,0.167 0.047,0.073 0.072,0.159 0.071,0.246 0,0.03 0.051,0.074 0.087,0.096 0.102,0.063 0.207,0.119 0.31,0.178 0.095,0.047 0.17,0.127 0.212,0.225 0.042,0.097 0.048,0.207 0.017,0.308 -0.033,0.151 -0.085,0.301 -0.118,0.443 -0.005,0.022 -0.005,0.046 -0.001,0.069 0.005,0.023 0.014,0.045 0.028,0.064 0.902,0.777 1.704,1.663 2.387,2.638 0.171,0.249 0.438,0.385 0.654,0.58 0.067,0.062 0.211,0.044 0.322,0.051 0.239,0.034 0.48,0.047 0.721,0.041 0.303,-0.037 0.603,-0.093 0.899,-0.166 0.204,-0.057 0.422,-0.034 0.61,0.064 0.009,0.005 0.018,0.009 0.027,0.013 0.363,0.15 0.433,0.275 0.382,0.666 -0.044,0.28 -0.182,0.536 -0.39,0.727 -0.208,0.191 -0.475,0.306 -0.756,0.326 -0.51,0.023 -1.015,0.118 -1.499,0.282 -0.59,0.203 -0.557,0.134 -0.92,-0.335 C 9.191,20.672 9.106,20.54 9.033,20.401 8.952,20.251 8.893,20.082 8.827,19.92 8.771,19.727 8.659,19.554 8.505,19.425 8.076,19.125 7.652,18.824 7.216,18.547 6.644,18.174 6.132,17.715 5.698,17.186 5.653,17.132 5.566,17.117 5.499,17.083 5.382,17.037 5.271,16.978 5.168,16.907 5.017,16.777 4.853,16.664 4.677,16.57 4.45,16.448 4.24,16.297 4.052,16.119 3.69,15.772 3.265,15.499 2.799,15.313 2.513,15.196 2.246,15.037 2.005,14.842 1.713,14.631 1.409,14.436 1.094,14.259 0.664,13.975 0.237,13.687 -0.183,13.39 -0.335,13.28 -0.52,13.227 -0.707,13.239 c -0.39,0.014 -0.78,0.041 -1.171,0.05 -0.697,0.022 -1.393,-0.057 -2.068,-0.235 -0.362,-0.104 -0.738,-0.15 -1.114,-0.136 -0.165,0.007 -0.331,-0.048 -0.496,-0.044 -0.193,0.009 -0.386,0.033 -0.577,0.071 -0.323,0.057 -0.65,0.082 -0.978,0.075 -0.263,0 -0.516,-0.054 -0.774,-0.071 -0.098,-0.008 -0.197,0.005 -0.29,0.039 -0.673,0.246 -1.383,0.374 -2.099,0.379 -0.681,0.015 -1.363,0 -2.045,0.017 -0.105,0.017 -0.206,0.052 -0.3,0.102 -0.048,0.018 -0.096,0.042 -0.142,0.065 -0.03,0.012 -0.058,0.029 -0.083,0.049 -0.102,0.103 -0.202,0.206 -0.3,0.31 -0.058,0.062 -0.107,0.132 -0.17,0.188 -0.129,0.138 -0.277,0.257 -0.44,0.352 -0.128,0.022 -0.261,-10e-4 -0.374,-0.066 -0.3,-0.122 -0.571,-0.286 -0.869,-0.393 -0.197,-0.05 -0.398,-0.08 -0.6,-0.09 -0.38,-0.041 -0.747,-0.169 -1.07,-0.374 -0.23,-0.143 -0.402,-0.364 -0.483,-0.623 -0.149,-0.508 0.071,-0.779 0.6,-0.962 0.508,-0.176 0.962,0.022 1.424,0.194 0.149,0.054 0.313,0.072 0.458,0.134 0.204,0.062 0.414,0.097 0.627,0.105 0.264,0.036 0.533,0.024 0.794,-0.035 0.253,-0.054 0.524,-0.03 0.775,-0.094 0.449,-0.119 0.899,-0.301 1.349,-0.415 0.622,-0.16 1.25,-0.301 1.879,-0.42 0.316,-0.045 0.634,-0.07 0.953,-0.074 0.21,-0.013 0.225,-0.024 0.24,-0.23 0.011,-0.15 0.03,-0.3 0.037,-0.451 -0.001,-0.066 0.023,-0.129 0.067,-0.178 0.045,-0.048 0.106,-0.077 0.172,-0.08 0.265,-0.049 0.53,-0.127 0.805,-0.049 0.036,0.013 0.076,0.013 0.112,0 0.309,-0.15 0.64,-0.136 0.968,-0.129 0.094,0 0.159,-0.018 0.178,-0.119 0.02,-0.1 0.077,-0.1 0.15,-0.094 0.177,0.01 0.352,0.029 0.526,0.057 0.183,0.033 0.371,0.017 0.546,-0.047 C -3.851,9.789 -3.172,9.696 -2.495,9.742 -2.468,9.739 -2.442,9.731 -2.418,9.717 -2.394,9.703 -2.373,9.685 -2.357,9.662 -2.259,9.524 -2.173,9.375 -2.076,9.235 -1.978,9.095 -1.891,8.992 -1.8,8.87 -1.59,8.584 -1.619,8.268 -1.682,7.948 -1.731,7.69 -1.797,7.434 -1.831,7.174 -1.862,6.962 -1.862,6.747 -1.831,6.535 -1.802,6.323 -1.811,6.107 -1.858,5.899 -1.971,5.297 -2.089,4.708 -2.184,4.109 -2.194,3.923 -2.188,3.737 -2.167,3.552 c 0,-0.151 -0.009,-0.301 0,-0.451 0,-0.247 -0.039,-0.507 0.028,-0.736 C -2.029,1.991 -2.088,1.641 -2.152,1.278 -2.194,1.044 -2.265,0.808 -2.169,0.558 -2.134,0.466 -2.197,0.337 -2.208,0.223 -2.249,-0.08 -2.273,-0.385 -2.28,-0.69 c 0.004,-0.305 -0.036,-0.609 -0.119,-0.902 -0.15,-0.534 -0.098,-1.083 -0.072,-1.627 0.019,-0.42 0.057,-0.839 0.078,-1.259 0.006,-0.158 10e-4,-0.316 -0.014,-0.473 -0.008,-0.05 -0.032,-0.095 -0.069,-0.128 -0.105,-0.104 -0.217,-0.2 -0.327,-0.301 -0.049,-0.049 -0.108,-0.086 -0.173,-0.111 -0.064,-0.025 -0.134,-0.035 -0.203,-0.032 -0.069,0 -0.172,0.042 -0.183,-0.073 -0.01,-0.116 0.09,-0.151 0.177,-0.142 0.364,0.009 0.727,0.029 1.09,0.038 0.111,0 0.223,-0.026 0.334,-0.035 0.157,-0.022 0.316,-0.031 0.475,-0.025 0.34,0.034 0.679,0.088 1.015,0.15 0.09,0.012 0.174,0.055 0.238,0.12 0.018,0.024 0.029,0.052 0.031,0.081 0.003,0.029 -0.004,0.059 -0.018,0.085 -0.014,0.025 -0.036,0.046 -0.062,0.06 -0.026,0.014 -0.055,0.019 -0.084,0.016 -0.36,-0.015 -0.685,0.142 -1.027,0.205 -0.018,0.002 -0.035,0.008 -0.051,0.018 -0.015,0.009 -0.029,0.022 -0.039,0.037 -0.01,0.015 -0.017,0.032 -0.019,0.05 -0.003,0.018 -0.002,0.037 0.003,0.054 0.12,0.845 0.15,1.705 0.373,2.534 0.141,0.577 0.225,1.167 0.25,1.761 0.02,0.271 0.061,0.54 0.121,0.806 0.047,0.145 0.106,0.285 0.179,0.419"
             style="fill:#191558;fill-opacity:1;fill-rule:nonzero;stroke:none"
             id="path56" /></g><g
           id="g58"
           transform="translate(40.5639,15.9846)"><path
             d="m 0,0 c 0,0 -0.798,-1.468 -0.865,-2.118 -0.067,-0.651 0.133,-1.811 -0.365,-2.835 -0.498,-1.024 -0.632,-1.607 -0.199,-2.392 0.432,-0.785 0.665,-2.015 0.665,-2.015 0,0 1.662,0.272 2.728,-0.069 1.065,-0.341 1.462,-0.342 1.462,-0.342 0,0 -1.496,0.581 -1.663,1.407 -0.168,0.825 0.1,2.801 0.067,3.622 C 1.796,-3.921 1.231,-1.804 0.999,-1.599 0.766,-1.395 0.432,-0.547 0,0 m -3.691,-9.155 c 0.831,0.272 1.595,-0.035 1.962,-0.479 0.367,-0.444 0.365,-1.161 0.365,-1.161 0.6,1.161 -0.632,2.801 -0.997,3.552 -0.365,0.75 0.531,2.836 0.761,3.383 0.23,0.547 0.067,0.922 0.067,1.407 0,0.485 1.232,2.971 1.232,2.971 -0.198,-0.385 -0.444,-0.742 -0.733,-1.061 -0.532,-0.614 -1.131,-1.297 -1.131,-2.22 0,-0.922 -1.298,-2.323 -1.962,-2.836 -0.663,-0.512 -1.265,-1.196 -1.231,-1.98 0.033,-0.785 -0.598,-2.222 -0.598,-2.222 0.634,0.234 1.432,0.372 2.265,0.646 m 6.131,19.3 C 2.239,8.192 3.09,6.549 4.092,4.543 5.093,2.537 3.939,1.665 4.291,0.894 c 0.352,-0.77 0.851,-2.312 0.851,-4.471 0,-2.159 0.304,-2.928 2.601,-3.802 2.297,-0.874 5.305,0.312 8.758,0.156 3.452,-0.156 4.903,-1.798 6.005,-2.466 1.102,-0.667 5.253,0 6.653,0.313 1.401,0.313 4.461,0.41 4.461,0.41 0,0 1.295,-0.205 0.194,0.156 -1.1,0.361 -5.405,-0.469 -8.157,-0.469 -2.752,0 -3.402,0.469 -5.354,1.954 -1.951,1.486 -4.754,0.72 -7.204,0.873 -2.451,0.153 -2.553,0.514 -4.203,0.925 -1.65,0.411 -2.752,5.191 -2.803,6.887 -0.05,1.696 -0.7,3.083 -1.1,5.036 -0.401,1.953 1.801,4.831 2.251,6.682 0.451,1.851 1.101,0.719 3.252,2.672 2.15,1.952 2.752,0.925 5.254,1.696 2.503,0.771 2.453,1.54 3.456,3.486 1.003,1.947 3.903,1.491 3.903,1.491 0,0 0.152,-0.72 0.1,-1.028 -0.052,-0.308 0.305,-0.667 0.55,-1.593 0.245,-0.925 2.052,-0.359 3.196,0 1.145,0.36 1.551,-0.771 1.551,-0.771 -0.068,0.552 -0.294,1.071 -0.65,1.49 -0.609,0.719 -1.15,0.103 -2.603,0 -1.452,-0.103 -0.398,0.668 -0.65,1.182 -0.251,0.515 -0.4,1.851 -0.199,2.467 0.201,0.616 1.751,1.439 2.601,2.056 0.851,0.618 2.853,1.542 3.704,1.953 0.851,0.411 1.65,1.438 2.151,2.62 0.501,1.182 1.352,1.645 1,1.593 -0.352,-0.051 -1.551,-0.359 -1.851,-1.438 -0.3,-1.079 -1.501,-2.056 -2.752,-2.416 -1.251,-0.359 -1.501,-0.615 -1.501,-0.615 -0.302,0.512 -0.692,0.964 -1.151,1.335 -0.8,0.669 -0.951,0.359 -0.551,0.822 0.4,0.463 -0.049,1.645 -0.049,1.645 0,0 -0.4,-1.387 -0.752,-1.85 -0.351,-0.463 1.553,-1.645 1.702,-2.159 0.149,-0.514 0.551,-0.667 -1.801,-1.387 C 22.803,25.61 23.203,24.375 22.052,24.067 20.901,23.759 20.25,23.862 18.749,23.193 17.248,22.524 16.198,19.754 14.496,18.928 12.794,18.103 9.292,17.746 7.494,17.438 5.696,17.13 3.961,13.115 3.961,13.115 c 0,0 -0.105,0.47 0.245,2.014 0.35,1.545 0.236,4.221 0.236,4.221 C 4.221,18.081 3.78,16.864 3.14,15.755 2.148,14.035 2.44,10.153 2.44,10.153 Z m 16.712,-22.868 c 1.252,-0.719 6.155,0.256 4.004,0.411 l -0.305,0.019 c -1.943,0.101 -2.892,-0.188 -4.752,1.574 -1.951,1.85 -5.104,2.004 -8.906,2.467 -3.803,0.463 -5.104,2.672 -4.704,4.573 0.4,1.901 -1.501,4.472 -1.201,6.168 0.3,1.696 -0.4,2.98 -0.851,4.008 -0.451,1.029 -0.65,3.187 -0.6,5.654 0.05,2.467 1.451,5.294 1.551,7.035 0.101,1.742 -0.5,2.467 -1.402,5.91 -0.901,3.442 2.052,4.318 3.253,4.523 1.201,0.205 3.349,2.21 4.153,2.723 0.804,0.513 2.251,3.959 2.553,4.523 0.301,0.565 0.549,3.341 0.152,4.728 -0.397,1.387 2.052,-0.616 2.203,-0.564 0.15,0.051 2.201,-0.618 3.552,-0.978 1.352,-0.359 2.751,0.412 4.352,1.389 1.602,0.977 2.103,0.667 2.103,0.667 0,0 0.249,-0.256 -0.101,0.205 -0.35,0.461 -1.551,0.361 -2.802,-0.313 -1.252,-0.673 -2.702,-1.181 -3.552,-0.77 -0.849,0.411 -2.953,1.182 -3.152,1.182 -0.199,0 -1.951,0.874 -0.702,2.107 1.25,1.234 1.652,4.472 1.652,4.472 0,0 0.35,1.181 1.201,1.696 0.851,0.514 2.152,-0.207 3.303,-0.157 1.151,0.05 0.851,1.131 1,1.645 0.149,0.515 0.305,0.719 1.151,0.976 0.846,0.256 1.101,1.182 1.101,1.182 -0.153,-0.513 -1.602,-0.719 -2.302,-0.924 -0.7,-0.205 -0.35,-1.234 -1.101,-1.697 -0.75,-0.462 -2.052,0.157 -3.002,0.104 -0.949,-0.054 -2.058,-0.812 -2.058,-0.812 0,0 -0.55,1.131 -1.201,1.798 -0.65,0.668 0.751,0.926 0.952,1.492 0.201,0.566 -0.305,1.232 -0.305,1.232 0.551,-0.565 -0.456,-1.439 -1.35,-2.005 -0.893,-0.566 -0.201,-1.386 0.851,-2.26 1.052,-0.874 0.25,-3.341 0.25,-4.573 0,-1.232 -2.052,-1.697 -2.752,-2.467 C 10.687,43.449 9.887,42.678 10.337,40.878 10.788,39.079 9.537,36.51 8.086,34.506 6.635,32.502 5.693,32.345 3.49,31.936 1.288,31.526 1.44,31.32 0.489,31.423 c -0.952,0.103 -1.501,4.779 -2.302,8.17 -0.801,3.391 2.652,4.42 3.253,4.728 0.601,0.308 1.25,0.626 1.65,-0.256 0.4,-0.882 1.046,-1.542 1.807,-1.798 0.761,-0.257 1.35,-1.029 1.301,-0.771 -0.048,0.258 0.049,1.182 -1.102,1.387 -1.151,0.205 -1.05,1.541 -1.651,2.364 -0.602,0.822 -1.751,-0.205 -2.151,-0.104 -0.401,0.102 -0.05,0.67 0.4,2.416 0.451,1.746 -0.249,2.365 -0.249,2.365 0,0 0.05,-2.518 -0.652,-4.111 -0.702,-1.593 -1.851,-1.286 -3.553,-2.622 -1.702,-1.337 -1.05,-2.364 -0.6,-3.854 0.451,-1.49 0.305,-2.519 -0.901,-2.211 -1.205,0.308 -2.052,3.596 -2.451,4.831 -0.398,1.235 -0.951,3.753 -0.951,3.753 0,0 -0.25,1.027 -0.1,1.849 0.149,0.822 1.001,0.977 1.201,2.056 0.199,1.079 -0.305,1.44 -0.305,1.44 0.35,-0.626 0.305,-1.44 -0.75,-2.211 -1.055,-0.771 -0.851,-2.157 -0.851,-2.157 0,0 0,0.77 -1.551,2.054 -1.551,1.284 -3.853,1.132 -4.704,1.337 -0.851,0.205 -0.4,1.49 -0.4,1.49 -0.851,-1.644 -0.6,-2.414 2.502,-2.724 3.103,-0.309 3.553,-2.569 4.052,-4.009 0.302,-0.872 0.406,-1.803 0.305,-2.723 -1.802,-0.205 -2.253,-1.953 -2.653,-2.004 -0.401,-0.052 -1.101,1.49 -1.351,2.467 -0.249,0.977 -2.602,1.182 -3.957,1.49 -1.355,0.308 -1.401,1.388 -1.401,1.388 -0.75,-0.411 -0.304,-1.49 1,-1.901 1.305,-0.411 1.851,-0.566 3.349,-1.285 1.498,-0.719 0.652,-1.697 1.802,-2.672 1.151,-0.976 2.451,1.232 3.252,1.541 0.801,0.31 0.951,-1.696 1.553,-3.908 0.601,-2.212 2.702,-1.798 3.805,-2.723 1.104,-0.926 1.952,-5.551 2.252,-8.274 0.299,-2.724 1.951,-6.879 2.051,-8.48 0.101,-1.601 -1.301,-5.344 -1.452,-6.476 -0.15,-1.132 1.551,-5.858 1.652,-6.988 0.1,-1.131 -0.6,-2.519 -0.65,-3.804 -0.05,-1.285 0.95,-2.209 1.35,-3.752 0.4,-1.543 -0.35,-2.364 0.05,-4.112 0.401,-1.748 2.357,-3.799 5.706,-2.72 3.348,1.078 7.104,-1.337 7.104,-1.337 1.452,-0.93 2.703,-0.566 3.954,-1.285 M -2.213,9.112 c 0.1,-0.978 0.75,-1.544 1.551,-3.596 0.488,-1.329 0.709,-2.745 0.65,-4.164 l 0.651,1.337 c 0.65,1.335 -0.251,4.47 -0.752,6.68 -0.5,2.211 -0.472,3.365 0.352,5.551 1.149,3.053 -0.801,6.68 -0.801,6.68 0,0 0.081,-2.086 0.031,-3.627 -0.05,-1.541 -0.831,-3.105 -0.831,-3.105 -1.151,-2.922 -0.952,-4.773 -0.851,-5.749 z M -15.224,-8.813 c -1.674,0.064 -2.863,-0.191 -3.921,-1.341 -0.595,-0.673 -1.378,-1.142 -2.241,-1.343 0,0 0.748,-0.385 3.424,1.022 2.676,1.407 4.624,-1.924 8.733,-0.325 4.108,1.599 2.97,3.202 3.592,4.481 0.623,1.278 1.245,1.094 1.993,2.365 0.747,1.271 0.871,2.239 2.053,3.773 1.183,1.533 0.125,6.138 -1.058,8.184 -1.182,2.047 1.245,8.822 1.495,10.869 0.25,2.046 0.373,3.773 -1.12,5.941 -1.494,2.168 -3.923,1.867 -5.666,2.061 -1.743,0.193 -2.926,0.958 -3.735,1.407 -0.81,0.448 -1.058,4.155 -1.743,4.985 -0.685,0.83 -1.431,0.832 -4.046,0.896 -2.615,0.064 -3.859,0.447 -4.794,2.111 -0.934,1.663 1.58,2.551 1.675,4.534 0.053,1.032 -1.308,2.237 -1.867,2.876 -0.558,0.64 -0.062,3.005 -0.187,2.558 -0.125,-0.447 -0.304,-1.407 -0.56,-2.173 -0.256,-0.766 0.995,-1.79 1.37,-2.814 0.375,-1.024 -0.872,-1.79 -1.308,-2.43 -0.435,-0.639 -0.809,-2.301 0.871,-4.731 1.681,-2.429 6.724,-0.767 7.844,-1.79 1.12,-1.022 1.12,-3.58 1.12,-3.58 0,0 -1.674,0.256 -3.61,0.639 -1.936,0.383 -4.725,-2.107 -5.288,-2.234 -0.564,-0.126 -2.74,1.854 -3.984,2.238 -1.244,0.383 -2.615,-0.768 -3.673,-0.896 -1.058,-0.129 -2.116,0.831 -2.436,1.599 -0.389,0.86 -0.866,1.675 -1.421,2.433 -0.305,0.383 -0.894,0.85 -1.952,1.043 -1.058,0.192 -2.283,1.002 -2.283,1.002 0,0 1.449,-1.431 2.892,-2.126 1.152,-0.554 1.802,-2.522 2.673,-4.184 0.871,-1.662 2.399,-0.658 3.958,-0.469 1.558,0.189 1.618,0.703 3.236,-0.255 1.618,-0.958 2.117,-1.151 2.117,-1.151 -0.104,-0.318 -0.251,-0.62 -0.437,-0.896 -0.248,-0.312 -1.805,-2.365 -2.24,-2.557 -0.436,-0.193 -1.431,-1.278 -1.431,-1.854 0,-0.577 -0.997,-1.023 -1.807,-0.959 -0.81,0.064 -1.181,-0.639 -1.306,-1.279 -0.125,-0.639 -1.495,-1.022 -1.495,-1.022 0,0 -0.498,-0.064 0.25,-0.128 0.747,-0.065 1.805,0.575 1.868,1.342 0.062,0.768 1.555,0.193 2.49,0.64 0.934,0.447 0.746,1.022 1.37,1.022 0.624,0 1.44,-1.697 1.548,-2.513 0.061,-0.459 -0.536,-0.928 -1.218,-1.375 -0.682,-0.447 -0.265,-1.418 -0.265,-1.418 -0.013,1.026 1.121,1.215 1.675,1.598 0.554,0.383 0.81,1.854 -0.188,3.005 -0.997,1.151 0.562,2.558 0.998,3.516 0.435,0.958 3.858,3.454 4.855,3.965 0.997,0.511 3.734,0.128 4.357,-0.128 0.623,-0.257 3.175,-1.662 3.923,-1.79 0.747,-0.129 3.173,-0.129 3.173,-0.129 0,0 -2.115,-0.894 -2.365,-1.407 -0.25,-0.513 -0.373,-1.407 -0.248,-2.493 0.125,-1.087 -0.244,-2.43 -0.492,-2.758 -0.248,-0.329 -1.743,-0.313 -2.428,-1.279 -0.685,-0.966 -0.125,-2.237 -0.125,-2.237 v 1.086 c 0,1.087 0.81,1.407 1.993,1.79 1.183,0.383 1.37,0.64 1.493,2.175 0.124,1.535 0.373,3.388 1.495,4.027 1.122,0.64 3.045,0.959 4.482,-1.982 C -1.71,19.383 -4.019,15.803 -4.641,13.821 -5.264,11.838 -4.204,9.537 -3.956,7.939 -3.708,6.341 -3.519,6.021 -4.204,4.038 -4.889,2.056 -5.2,1.224 -4.889,-0.949 c 0.31,-2.173 -0.81,-2.301 -2.179,-3.643 -1.368,-1.341 -1.431,-3.446 -1.431,-3.446 -0.374,-1.661 -5.043,-0.831 -6.725,-0.767 z m 46.04,41.9 c 0,0 -2.284,-0.226 -2.74,-2.844 0.001,0 2.561,-0.438 2.74,2.844 m -0.545,0.304 c 0,0 -0.955,1.329 -2.649,0.666 0,0 0.667,-1.737 2.649,-0.666 m 0.465,0.352 c 0,0 0.351,1.915 -1.567,2.885 0,0 -0.926,-1.986 1.567,-2.885 m 0.934,-0.28 c 0,0 1.458,1.251 0.584,3.249 0,0 -1.945,-0.927 -0.584,-3.249 m -11.178,1.97 c 0.356,0.007 0.701,0.133 0.981,0.359 0.281,0.225 0.482,0.538 0.575,0.892 0,0 -1.264,0.392 -1.556,-1.251 m -0.119,-0.527 c 0.249,-0.263 0.574,-0.436 0.926,-0.493 0.353,-0.056 0.714,0.007 1.029,0.181 0,0 -0.586,1.211 -1.955,0.312 m 5.109,-18.507 c 0,0 0.609,1.926 -1.239,3.19 -0.003,-0.004 -1.217,-1.924 1.236,-3.19 z m 0,15.853 c 0,0 0.609,1.926 -1.239,3.191 -0.003,-0.005 -1.217,-1.925 1.236,-3.196 z M 11.41,14.651 c 0,0 2.291,-0.168 3.161,2.345 -0.003,-0.011 -2.457,0.855 -3.164,-2.35 z m 0.491,-0.394 c 0,0 0.726,-1.473 2.504,-1.109 -0.003,-0.004 -0.375,1.822 -2.506,1.104 z m -0.926,-0.185 c 0,0 -0.655,-1.827 1.081,-3.111 -0.005,-0.005 1.23,1.796 -1.084,3.107 z m -0.712,0.938 c 0,0 -1.638,-0.98 -1.099,-3.105 -0.005,-0.003 2.064,0.577 1.096,3.102 z m 6.241,0.208 c -0.353,0.053 -0.714,-0.013 -1.027,-0.189 -0.313,-0.175 -0.563,-0.451 -0.71,-0.785 0,0 1.184,-0.6 1.737,0.971 z m 0.202,0.5 c -0.202,0.302 -0.495,0.528 -0.834,0.644 -0.338,0.116 -0.704,0.116 -1.043,-10e-4 0,0 0.382,-1.301 1.877,-0.646 z m -0.551,38.617 c 0,0 1.105,1.477 -0.125,3.158 0,0.003 -1.625,-1.281 0.131,-3.155 z m 0.464,0.156 c 0.388,-0.026 0.774,0.078 1.1,0.296 0.325,0.219 0.572,0.54 0.704,0.916 0,0 -1.336,0.547 -1.805,-1.206 z m -0.051,-0.469 c 0.289,-0.365 0.686,-0.624 1.131,-0.737 0.446,-0.113 0.915,-0.074 1.336,0.112 0,0 -0.619,1.629 -2.467,0.633 z m -0.72,3.752 c -0.081,0.272 -0.246,0.509 -0.471,0.676 -0.224,0.167 -0.495,0.254 -0.771,0.248 0,0 -0.013,-1.05 1.242,-0.924 m 5.6,-3.036 c -0.278,0.245 -0.626,0.391 -0.991,0.415 -0.366,0.024 -0.729,-0.074 -1.035,-0.28 0,0 0.708,-1.182 2.026,-0.133 z M 26.54,53.8 c 0,0 -1.086,1.06 -2.536,0.169 0,0.005 0.886,-1.477 2.536,-0.164 z m -4.695,4.69 c 0.022,0.314 -0.056,0.626 -0.223,0.889 -0.166,0.264 -0.412,0.465 -0.699,0.572 0,0 -0.419,-1.07 0.922,-1.453 z m 0.431,-0.145 c 0.238,0.197 0.406,0.469 0.481,0.774 0.074,0.304 0.049,0.625 -0.07,0.914 0,0 -1.046,-0.411 -0.411,-1.68 z m -2.49,-0.144 c 0,0 0.934,1.363 -0.224,2.814 0,0.013 -1.408,-1.196 0.224,-2.806 z m 1.015,-2.159 c 0,0 0.935,1.363 -0.224,2.814 -0.001,0.014 -1.408,-1.196 0.224,-2.806 z m 3.643,-0.197 c 0,0 -0.621,1.895 -2.815,1.776 0,0.008 0.143,-2.248 2.815,-1.768 z m -4.506,0.049 c 0,0 0.37,1.963 -1.594,2.97 0,0.008 -0.965,-2.025 1.594,-2.963 z m -3.165,1.055 c 0.247,0.021 0.48,0.124 0.665,0.293 0.184,0.169 0.31,0.396 0.358,0.645 0,0 -0.889,0.219 -1.026,-0.93 z m -0.059,-0.371 c 0.183,-0.172 0.416,-0.278 0.663,-0.302 0.248,-0.024 0.496,0.036 0.707,0.171 0,0 -0.461,0.822 -1.37,0.131 m -2.189,3.315 c 0.182,-0.437 0.498,-0.801 0.899,-1.037 0.402,-0.236 0.867,-0.331 1.326,-0.272 0,0 -0.163,1.747 -2.225,1.304 z m 1.472,0.226 c 0.343,-0.318 0.779,-0.513 1.24,-0.555 0.461,-0.042 0.923,0.071 1.316,0.323 0,0 -0.86,1.511 -2.556,0.228 z M 0.251,35.417 c 0,0 1.105,1.479 -0.123,3.16 0,0 -1.624,-1.283 0.123,-3.16 m 19.742,7.741 c 0.025,0.398 -0.076,0.794 -0.288,1.128 -0.213,0.334 -0.525,0.588 -0.891,0.723 0,0 -0.522,-1.374 1.179,-1.856 z m -2.396,0.156 c -0.021,0.254 -0.121,0.494 -0.286,0.683 -0.164,0.19 -0.385,0.32 -0.628,0.37 0,0 -0.204,-0.921 0.914,-1.053 m 0.361,-0.062 c 0.168,0.188 0.272,0.427 0.295,0.681 0.023,0.254 -0.035,0.509 -0.166,0.726 0,0 -0.792,-0.472 -0.129,-1.407 m 2.668,6.338 c 0.343,-0.189 0.736,-0.258 1.12,-0.197 0.385,0.061 0.74,0.248 1.011,0.535 0,0 -0.999,1.061 -2.131,-0.337 z m 6.711,-2.778 c -0.038,0.47 -0.225,0.915 -0.531,1.267 -0.307,0.351 -0.716,0.591 -1.167,0.682 0,0 -0.378,-1.701 1.698,-1.948 z m -2.216,0.949 c -0.154,0.341 -0.412,0.621 -0.735,0.798 -0.323,0.178 -0.693,0.242 -1.055,0.183 0,0 0.167,-1.375 1.79,-0.98 z m 1.875,3.253 c 0.145,0.276 0.199,0.593 0.154,0.903 -0.046,0.31 -0.188,0.597 -0.406,0.817 0,0 -0.815,-0.801 0.252,-1.718 z m 0.332,-0.313 c 0.296,0.079 0.559,0.255 0.749,0.5 0.191,0.246 0.298,0.548 0.306,0.862 0,0 -1.128,0.066 -1.055,-1.362 M 25.059,49.23 c 0,0 1.4,0.844 0.931,2.658 0,0 -1.761,-0.499 -0.931,-2.658 m 3.239,-1.72 c 0,0 0.196,1.989 -1.85,2.815 0,-0.01 -0.777,-2.123 1.85,-2.815 m -4.084,1.952 c 0,0 1.126,1.63 -0.256,3.381 0,0 -1.693,-1.444 0.256,-3.381 m -2.457,2.304 c 0.233,-0.086 0.486,-0.091 0.722,-0.016 0.237,0.075 0.442,0.227 0.587,0.434 0,0 -0.725,0.57 -1.309,-0.418 m -0.204,-0.313 c 0.097,-0.233 0.266,-0.427 0.481,-0.553 0.214,-0.126 0.463,-0.177 0.708,-0.145 0,0 -0.087,0.935 -1.189,0.698 M 0.725,35.588 c 0.388,-0.027 0.773,0.078 1.099,0.296 0.325,0.219 0.572,0.541 0.703,0.917 0,0 -1.343,0.53 -1.81,-1.224 z M 0.671,35.119 c 0.289,-0.366 0.687,-0.624 1.132,-0.737 0.445,-0.113 0.914,-0.074 1.336,0.112 0,0 -0.626,1.613 -2.475,0.617 z M 0.009,34.716 c -0.004,-0.471 0.142,-0.93 0.415,-1.309 0.273,-0.378 0.659,-0.655 1.098,-0.788 0,0 0.522,1.645 -1.521,2.089 z m -4.323,-0.47 c 0,0 0.009,-1.863 1.979,-2.417 -0.002,-0.001 0.514,2.038 -1.987,2.416 z m -0.273,-0.42 c -0.322,-0.224 -0.564,-0.549 -0.69,-0.927 -0.126,-0.377 -0.129,-0.787 -0.008,-1.166 0,0 1.37,0.412 0.691,2.091 z m -0.237,0.402 c -0.447,0.106 -0.915,0.06 -1.334,-0.132 -0.419,-0.191 -0.765,-0.518 -0.987,-0.93 0,0 1.447,-0.891 2.314,1.055 z m 0.283,0.735 c -0.279,0.374 -0.668,0.645 -1.11,0.772 -0.442,0.127 -0.912,0.103 -1.339,-0.069 0,0 0.562,-1.64 2.449,-0.705 z m -9.894,12.079 c -0.321,-0.232 -0.561,-0.564 -0.682,-0.947 -0.121,-0.384 -0.118,-0.797 0.009,-1.178 0,0 1.379,0.439 0.673,2.125 m 38.241,-3.171 c 0,0 0.956,1.829 -0.69,3.449 -0.001,0.003 -1.563,-1.711 0.688,-3.446 z m 0.717,-0.333 c 0.4,0.23 0.717,0.587 0.903,1.018 0.185,0.431 0.229,0.912 0.124,1.371 0,0 -1.661,-0.341 -1.029,-2.386 z m -2.179,2.289 c 0.035,0.374 -0.051,0.75 -0.243,1.07 -0.192,0.32 -0.481,0.568 -0.822,0.704 0,0 -0.531,-1.274 1.064,-1.771 z m 0.364,-2.144 c 0.043,0.469 -0.063,0.94 -0.304,1.341 -0.24,0.402 -0.601,0.712 -1.028,0.884 0,0 -0.666,-1.598 1.331,-2.222 z m 2.131,-13.856 c 0,0 -1.826,-0.494 -1.857,-2.682 0,0.004 2.134,-0.004 1.856,2.685 z M 24.357,30 c -0.303,0.276 -0.685,0.443 -1.089,0.475 -0.403,0.033 -0.806,-0.07 -1.147,-0.293 0,0 0.764,-1.317 2.236,-0.182 m 0.329,0.352 c 0,0 0.038,1.603 -1.646,2.129 0.005,0 -0.485,-1.738 1.646,-2.129 m -5.075,6.945 c 0,0 1.022,1.208 0.054,2.717 -0.003,-0.008 -1.466,-1.013 -0.061,-2.717 z m 1.412,-9.296 c 0.289,0.054 0.553,0.203 0.752,0.425 0.199,0.222 0.322,0.505 0.35,0.805 0,0 -1.082,0.144 -1.108,-1.23 z m -0.029,-0.446 c 0.236,-0.18 0.523,-0.276 0.817,-0.274 0.293,0.002 0.578,0.102 0.812,0.285 0,0 -0.638,0.905 -1.635,-0.011 z m 8.068,-8.341 c 0.23,-0.274 0.541,-0.464 0.886,-0.54 0.345,-0.076 0.704,-0.035 1.024,0.117 0,0 -0.502,1.23 -1.91,0.422 z m -0.466,-0.239 c -0.037,-0.359 0.04,-0.721 0.22,-1.031 0.18,-0.31 0.454,-0.552 0.779,-0.689 0,0 0.529,1.215 -0.999,1.72 m -3.251,4.117 c 0.346,0.065 0.663,0.244 0.901,0.511 0.239,0.267 0.386,0.606 0.42,0.966 0,0 -1.291,0.17 -1.321,-1.477 M 25.31,22.557 c 0.283,-0.216 0.626,-0.332 0.979,-0.33 0.353,0.003 0.695,0.123 0.975,0.342 0,0 -0.752,1.089 -1.954,-0.012 M 34,31.334 c 0.289,0.055 0.552,0.205 0.751,0.427 0.198,0.222 0.321,0.505 0.35,0.805 0,0 -1.08,0.142 -1.106,-1.232 z M 33.971,30.89 c 0.236,-0.18 0.522,-0.277 0.816,-0.275 0.294,0.002 0.579,0.103 0.813,0.286 0,0 -0.636,0.905 -1.629,-0.011 m -13.124,0.946 c 0.288,0.055 0.552,0.204 0.75,0.427 0.199,0.222 0.322,0.505 0.35,0.805 0,0 -1.067,0.144 -1.1,-1.231 z m -0.029,-0.444 c 0.235,-0.18 0.522,-0.277 0.816,-0.275 0.294,10e-4 0.579,0.101 0.813,0.284 0,0 -0.632,0.908 -1.629,-0.008 z m -2.947,-5.85 c 0,0 1.758,-0.684 3.014,1.07 -0.005,0.002 -1.727,1.275 -3.014,-1.069 z m 0.4,1.736 c 0.409,-0.135 0.849,-0.13 1.254,0.014 0.406,0.144 0.755,0.42 0.994,0.785 0,0 -1.287,0.951 -2.248,-0.797 z m 0.108,4.971 c 0,0 1.458,-0.567 2.5,0.889 10e-4,0.002 -1.431,1.057 -2.5,-0.888 z m 0.694,-3.515 c 0,0 1.87,-0.066 2.504,2 0,10e-4 -2.023,0.631 -2.504,-1.998 z m 0,-0.013 c 0,0 1.567,1.048 0.933,3.113 0,0.002 -2.007,-0.674 -0.933,-3.111 z m -8.574,3.909 c 0,0 2.292,0.138 2.839,2.737 0,-10e-4 -2.542,0.534 -2.839,-2.739 z m 0.534,-0.325 c 0,0 0.906,-1.365 2.623,-0.768 0,-10e-4 -0.603,1.759 -2.623,0.766 z M 10.555,31.97 c 0,0 -0.42,-1.899 1.463,-2.942 0,-0.002 0.995,1.948 -1.463,2.941 z m -0.924,0.313 c 0,0 -1.501,-1.188 -0.7,-3.224 0,0.003 1.977,0.849 0.7,3.226 z M 6.6,20.976 c 0,0 -0.033,1.908 -2.059,2.449 0,10e-4 -0.506,-2.091 2.059,-2.447 z m 1.839,2.323 c 0,0 -1.218,2 -3.7,1.251 0.006,-0.003 0.767,-2.55 3.7,-1.249 z m -1.507,2.525 c 0,0 -1.218,2 -3.7,1.251 0,-10e-4 0.761,-2.547 3.7,-1.249 z m 1.341,2.869 c 0,0 -2.029,1.104 -3.805,-0.825 -0.006,0.001 1.896,-1.812 3.805,0.827 z m 2.874,-6.253 c 0,0 -2.029,1.103 -3.805,-0.826 -0.01,0.003 1.896,-1.81 3.805,0.829 z m 4.334,11.423 c -0.357,0.007 -0.707,-0.105 -0.996,-0.32 -0.289,-0.216 -0.502,-0.522 -0.607,-0.872 0,0 1.251,-0.433 1.603,1.196 z m 0.138,0.524 c -0.239,0.273 -0.557,0.458 -0.907,0.528 -0.351,0.071 -0.714,0.022 -1.035,-0.138 0,0 0.54,-1.234 1.942,-0.387 z m -0.831,-5.139 c -0.357,0.006 -0.706,-0.107 -0.994,-0.323 -0.289,-0.216 -0.502,-0.522 -0.606,-0.873 0,0 1.249,-0.431 1.603,1.199 z m 0.139,0.522 c -0.239,0.273 -0.558,0.458 -0.909,0.528 -0.35,0.069 -0.713,0.02 -1.034,-0.141 0,0 0.541,-1.229 1.943,-0.383 z M 9.721,25.94 c -0.036,0.365 -0.187,0.708 -0.43,0.977 -0.243,0.269 -0.564,0.45 -0.916,0.515 0,0 -0.272,-1.323 1.346,-1.497 z m 0.522,-0.078 c 0.238,0.275 0.381,0.623 0.409,0.99 0.027,0.367 -0.063,0.733 -0.257,1.042 0,0 -1.135,-0.708 -0.152,-2.029 z m 0.341,-2.702 c 0,0 -0.099,1.945 -2.186,2.424 0,0.003 -0.443,-2.15 2.186,-2.421 z m 0.849,-0.128 c 0,0 1.318,1.399 0.236,3.294 0,0.003 -1.836,-1.13 -0.236,-3.291 z m 0.629,-0.763 c 0,0 1.885,0.214 2.228,2.383 0,0.003 -2.118,0.333 -2.228,-2.38 z M 9.949,19.056 c 0,0 -0.557,1.861 -2.694,1.803 0,0.003 0.078,-2.197 2.694,-1.803 m 5.294,7.741 c 0,0 -1.606,1.035 -3.187,-0.443 -0.005,0.005 1.463,-1.607 3.192,0.448 z m 4.559,9.224 c 0,0 -1.936,1.251 -3.842,-0.535 0.002,0 1.763,-1.941 3.844,0.535 z M 18.919,34.05 c 0,0 -1.442,0.93 -2.864,-0.399 0.001,0 1.315,-1.448 2.866,0.399 z m -1.287,-5.899 c 0,0 -1.606,1.035 -3.188,-0.443 0.002,0 1.462,-1.616 3.189,0.443 z m -0.008,4.362 c 0,0 -2.212,0.537 -3.451,-1.767 0.009,0 2.265,-1.251 3.453,1.767 z m 0,0.014 c 0,0 -2.113,-0.862 -1.84,-3.48 0.006,0 2.557,0.309 1.846,3.48 z m 0.225,-5.4 c 0,0 -2.251,0.322 -3.274,-2.094 0.006,0 2.375,-1.024 3.28,2.094 z m -4.046,12.147 c 0,0 0.361,-2.288 2.893,-2.579 0.006,0 0.26,2.609 -2.887,2.579 z m -0.523,-0.65 c 0,0 -0.742,-1.541 0.665,-2.838 0.006,-0.001 1.254,1.464 -0.659,2.838 z m 3.114,-0.067 c 0.217,-0.357 0.541,-0.631 0.923,-0.782 0.382,-0.15 0.801,-0.169 1.195,-0.053 0,0 -0.372,1.503 -2.112,0.835 z m -1.738,1.651 c 0,0 0.816,-1.503 2.651,-1.046 0.007,0 -0.459,1.884 -2.645,1.046 z M -1.757,45.1 c 0,0 0.798,2.254 -1.345,3.827 0.006,0 -1.504,-2.225 1.351,-3.827 z m 0.761,0.119 c 0,0 1.427,1.008 0.792,2.906 0,0 -1.843,-0.675 -0.792,-2.906 m -2.823,1.701 c -0.021,0.434 -0.179,0.849 -0.45,1.183 -0.271,0.334 -0.641,0.569 -1.053,0.668 0,0 -0.402,-1.553 1.503,-1.851 m 1.169,-2.557 c 0,0 0,1.78 -1.882,2.317 0,0 -0.504,-1.943 1.882,-2.317 m 16.017,5.979 c 0,0 -2.004,1.232 -3.914,-0.625 0,-0.004 1.837,-1.949 3.914,0.626 z m 0.398,0.539 c 0,0 -0.692,1.632 -2.627,1.353 0,0 0.295,-1.987 2.627,-1.351 z m -2.676,-2.165 c -0.419,0.061 -0.846,-0.02 -1.217,-0.23 -0.371,-0.21 -0.665,-0.538 -0.838,-0.935 0,0 1.408,-0.699 2.055,1.166 z m 2.428,0.313 c 0,0 -1.7,0.336 -2.571,-1.459 0,0.003 1.761,-0.874 2.571,1.462 z m -6.842,0.952 c 0.282,0.093 0.526,0.278 0.697,0.526 0.171,0.249 0.259,0.547 0.251,0.851 0,0 -1.094,0.003 -0.948,-1.374 z m 1.187,2.418 c 0.315,0.251 0.542,0.6 0.647,0.995 0.105,0.395 0.082,0.814 -0.064,1.194 0,0 -1.386,-0.511 -0.583,-2.186 z m 0.105,-0.294 c 0,0 1.218,-1.324 2.984,-0.37 0,-0.003 -0.952,1.813 -2.984,0.374 z m -1,-3.957 c 0,0 2.108,0.269 2.463,2.704 0,0.003 -2.379,0.339 -2.463,-2.7 z m -0.268,3.074 c -0.225,0.411 -0.574,0.736 -0.994,0.926 -0.42,0.189 -0.89,0.233 -1.336,0.125 0,0 0.339,-1.704 2.33,-1.048 z M 3.213,51.575 C 2.936,51.821 2.588,51.966 2.222,51.99 1.857,52.015 1.493,51.916 1.187,51.71 c 0,0 0.708,-1.181 2.026,-0.135 m 2.323,1.095 c 0.022,0.313 -0.057,0.625 -0.223,0.888 -0.167,0.263 -0.412,0.463 -0.699,0.57 0,0 -0.419,-1.067 0.922,-1.458 m 0.429,-0.132 c 0.238,0.198 0.407,0.469 0.482,0.774 0.074,0.304 0.05,0.626 -0.069,0.915 0,0 -1.053,-0.425 -0.416,-1.695 z m 1.256,1.251 c 0,0 0.935,1.363 -0.223,2.814 0,0.007 -1.409,-1.203 0.223,-2.814 M 3.93,51.954 c 0,0 0.937,1.363 -0.224,2.814 0,0.006 -1.406,-1.204 0.224,-2.814 m -2.481,0.45 c 0,0 -0.623,1.896 -2.815,1.776 0,0 0.142,-2.256 2.815,-1.776 m 1.445,-0.059 c 0,0 0.37,1.963 -1.596,2.97 0,0 -0.959,-2.032 1.596,-2.97 m 6.515,3.097 C 9.4,55.917 9.241,56.377 8.955,56.751 8.67,57.126 8.273,57.394 7.826,57.516 c 0,0 -0.493,-1.682 1.583,-2.074 M 5.032,56.631 C 4.819,56.21 4.744,55.728 4.821,55.26 c 0.076,-0.469 0.299,-0.9 0.635,-1.227 0,0 1.213,1.237 -0.424,2.598 M 7.941,35.897 c -0.224,0.412 -0.574,0.737 -0.994,0.927 -0.421,0.189 -0.891,0.233 -1.338,0.124 0,0 0.353,-1.707 2.332,-1.051 m -7.996,2.96 c -0.081,0.272 -0.246,0.51 -0.471,0.677 -0.224,0.167 -0.495,0.254 -0.773,0.249 0,0 -0.012,-1.054 1.244,-0.929 z m 3.23,-5.986 C 3.068,33.23 2.849,33.544 2.552,33.764 2.256,33.985 1.897,34.1 1.531,34.093 c 0,0 -0.015,-1.391 1.644,-1.225 z m 2.37,2.951 c -0.277,0.246 -0.625,0.392 -0.99,0.416 -0.366,0.025 -0.729,-0.073 -1.036,-0.28 0,0 0.708,-1.188 2.026,-0.139 z m 1.912,-0.938 c -0.348,0.308 -0.783,0.49 -1.241,0.521 -0.458,0.03 -0.913,-0.093 -1.296,-0.352 0,0 0.89,-1.48 2.537,-0.167 z m -16.513,9.841 c 0,0 -1.345,1.546 -3.39,0.512 0,0.002 1.032,-2.092 3.39,-0.511 z m 0.466,0.339 c -0.072,0.464 -0.29,0.892 -0.619,1.218 -0.329,0.327 -0.753,0.534 -1.208,0.592 0,0 -0.26,-1.718 1.827,-1.809 z m -4.044,0.258 c -0.331,0.161 -0.704,0.207 -1.063,0.131 -0.359,-0.075 -0.684,-0.268 -0.927,-0.55 0,0 0.988,-0.949 1.99,0.419 m 3.374,-1.72 c 0,0 -1.319,0.727 -2.49,-0.527 0,0 1.236,-1.193 2.49,0.527 m -13.882,-8.163 c 0,0 -1.935,-0.598 -1.886,-2.939 0.003,0.002 2.286,0.075 1.889,2.938 z m -0.104,0.577 c -0.441,0.13 -0.911,0.108 -1.338,-0.061 -0.428,-0.169 -0.791,-0.477 -1.033,-0.877 0,0 1.414,-0.966 2.374,0.937 z m -5.542,-2.318 c -0.354,0.099 -0.729,0.077 -1.069,-0.062 -0.34,-0.14 -0.627,-0.389 -0.817,-0.711 0,0 1.138,-0.758 1.889,0.771 z m 2.117,0 c -0.442,0.124 -0.912,0.097 -1.338,-0.077 -0.426,-0.175 -0.785,-0.487 -1.023,-0.889 0,0 1.424,-0.949 2.364,0.964 z m 3.217,-0.702 c -0.284,-0.24 -0.483,-0.568 -0.568,-0.935 -0.085,-0.367 -0.051,-0.752 0.097,-1.098 0,0 1.258,0.521 0.474,2.031 z m 1.218,1.779 c -0.354,-0.301 -0.602,-0.711 -0.708,-1.169 -0.107,-0.458 -0.065,-0.94 0.118,-1.372 0,0 1.576,0.648 0.593,2.539 z M -33.958,21.616 c 0.126,-0.345 0.357,-0.639 0.659,-0.838 0.302,-0.199 0.658,-0.292 1.016,-0.264 0,0 -0.053,1.357 -1.671,1.1 z M -30,27.182 c 0.237,-0.337 0.573,-0.585 0.959,-0.707 0.386,-0.123 0.8,-0.113 1.18,0.028 0,0 -0.464,1.455 -2.139,0.683 z m -0.283,-0.185 c -0.095,-0.292 -0.094,-0.608 0.001,-0.899 0.096,-0.292 0.281,-0.544 0.529,-0.718 0,0 0.651,0.917 -0.53,1.615 z m -9.751,11.133 c 0.05,-0.462 0.245,-0.895 0.556,-1.233 0.31,-0.338 0.719,-0.564 1.165,-0.643 0,0 0.335,1.678 -1.721,1.876 m 24.899,-2.628 c 0,0 0.954,1.829 -0.692,3.449 -0.016,0.004 -1.577,-1.709 0.675,-3.444 z m -7.293,11.963 c 0,0 1.268,1.199 0.382,2.971 -0.017,0.012 -1.743,-0.918 -0.399,-2.966 z m 2.892,-8.033 c 0,0 1.269,1.201 0.384,2.98 -0.011,0.005 -1.737,-0.927 -0.395,-2.975 z m -3.908,4.512 c -0.307,0.119 -0.643,0.132 -0.958,0.038 -0.315,-0.095 -0.591,-0.293 -0.788,-0.563 0,0 0.94,-0.769 1.736,0.53 z m -0.009,0.938 c 0,0 -0.365,1.697 -2.272,1.802 -0.011,0 -0.092,-1.964 2.262,-1.802 z m -1.134,-0.444 c 0,0 -1.333,1.071 -2.871,-0.093 -0.01,0 1.15,-1.568 2.861,0.093 z m 2.723,-7 c 0.324,0.054 0.622,0.216 0.848,0.459 0.227,0.244 0.37,0.557 0.408,0.891 0,0 -1.21,0.183 -1.266,-1.35 z m 0.457,-0.804 c 0,0 1.143,-1.281 2.845,-0.392 -0.006,0 -0.896,1.741 -2.851,0.392 z m 0.761,0.968 c 0,0 1.675,-0.243 2.436,1.555 0.003,0 -1.76,0.765 -2.436,-1.555 m 1.595,6.214 c 0.296,-0.139 0.628,-0.176 0.946,-0.104 0.317,0.072 0.604,0.248 0.816,0.501 0,0 -0.888,0.834 -1.762,-0.397 m 1.868,-2.83 c 0,0 1.235,1.281 0.253,3.043 0,0 -1.708,-1.029 -0.245,-3.043 z m 1.149,-0.234 c 0,0 1.742,0.212 2.043,2.22 0,0.005 -1.966,0.288 -2.043,-2.22 m 1.208,-1.24 c 0,0 1.741,0.213 2.042,2.22 0,-0.006 -1.956,0.288 -2.042,-2.22 m 0.922,-0.567 c 0,0 1.56,0.822 1.165,2.814 0,-0.003 -1.937,-0.433 -1.165,-2.814 m 0.796,-1.051 c 0.449,0.006 0.883,0.162 1.238,0.444 0.355,0.282 0.611,0.675 0.729,1.119 0,0 -1.586,0.499 -1.967,-1.563 m 1.707,-1.59 c 0,0 1.587,0.904 1.114,2.949 0,0 -1.991,-0.512 -1.114,-2.949 m 2.003,1.116 c 0,0 1.587,0.902 1.114,2.947 0,0 -1.989,-0.517 -1.114,-2.947 m 2.148,-1.207 c 0,0 0.933,1.598 -0.474,3.127 0,-0.003 -1.473,-1.47 0.474,-3.127 m -16.731,1.581 c -0.449,-0.096 -0.856,-0.34 -1.158,-0.695 -0.302,-0.355 -0.484,-0.802 -0.516,-1.272 0,0 1.686,-0.177 1.671,1.967 z m -4.596,-7.576 c -0.375,0.271 -0.825,0.409 -1.284,0.394 -0.458,-0.016 -0.899,-0.184 -1.256,-0.479 0,0 1.018,-1.383 2.538,0.085 z m 3.87,7.706 c -0.375,0.271 -0.826,0.409 -1.284,0.394 -0.458,-0.015 -0.9,-0.183 -1.257,-0.479 0,0 1.019,-1.387 2.538,0.085 z m 0.53,0.57 c -0.12,0.455 -0.381,0.857 -0.743,1.146 -0.363,0.289 -0.807,0.449 -1.265,0.455 0,0 -0.079,-1.738 2.008,-1.601 m 11.995,-4.346 c 0,0 0.933,1.598 -0.474,3.127 0.008,-0.005 -1.466,-1.471 0.481,-3.129 z m 8.596,-3.991 c 0.019,0.289 -0.053,0.577 -0.207,0.82 -0.154,0.243 -0.381,0.428 -0.646,0.527 0,0 -0.377,-0.996 0.86,-1.347 z m 0.395,-0.135 c 0.221,0.183 0.377,0.434 0.446,0.716 0.069,0.282 0.046,0.58 -0.065,0.848 0,0 -0.97,-0.394 -0.373,-1.565 z M 8.946,45.719 C 8.767,45.864 8.547,45.946 8.319,45.951 8.091,45.957 7.868,45.887 7.683,45.75 c 0,0 0.476,-0.719 1.271,-0.033 z m 0.269,0.209 c -0.018,0.234 -0.109,0.455 -0.261,0.631 -0.151,0.175 -0.354,0.295 -0.577,0.342 0,0 -0.186,-0.844 0.846,-0.974 z m 0.762,-1.904 c -0.147,0.35 -0.4,0.642 -0.722,0.831 -0.321,0.189 -0.695,0.266 -1.062,0.218 0,0 0.133,-1.401 1.787,-1.05 z m 1.654,2.22 c -0.433,0.103 -0.887,0.058 -1.293,-0.128 -0.406,-0.186 -0.742,-0.503 -0.957,-0.902 0,0 1.413,-0.863 2.253,1.029 z m -1.93,-2.827 c -0.327,0.309 -0.743,0.5 -1.185,0.545 -0.443,0.044 -0.887,-0.061 -1.266,-0.299 0,0 0.815,-1.468 2.454,-0.247 z m 1.522,12.437 c -0.204,0.129 -0.443,0.186 -0.681,0.162 -0.239,-0.023 -0.463,-0.125 -0.64,-0.291 0,0 0.577,-0.69 1.321,0.128 z m 0.254,0.255 c -0.047,0.241 -0.17,0.46 -0.349,0.623 -0.18,0.164 -0.406,0.263 -0.645,0.283 0,0 -0.097,-0.906 0.994,-0.906 m -0.796,-1.83 c -0.196,0.345 -0.495,0.616 -0.854,0.772 -0.359,0.155 -0.757,0.186 -1.135,0.089 0,0 0.301,-1.443 1.989,-0.861 m 1.827,-0.058 c -0.195,0.346 -0.495,0.617 -0.854,0.772 -0.358,0.156 -0.757,0.187 -1.134,0.089 0,0 0.301,-1.443 1.988,-0.861 m 1.444,2.529 c 0,0 -1.506,0.243 -2.219,-1.366 0,0 1.577,-0.715 2.219,1.366 m -1.663,-3.198 c 0,0 -1.194,0.975 -2.588,-0.063 10e-4,0 1.029,-1.421 2.588,0.063 M 5.943,39.579 c 0.021,0.314 -0.057,0.625 -0.224,0.889 -0.166,0.263 -0.412,0.464 -0.699,0.572 0,0 -0.418,-1.078 0.923,-1.461 m 0.429,-0.145 c 0.238,0.197 0.406,0.469 0.48,0.774 0.075,0.304 0.05,0.625 -0.069,0.914 0,0 -1.052,-0.419 -0.411,-1.688 m -2.49,-0.145 c 0,0 0.936,1.363 -0.224,2.814 0,0.006 -1.408,-1.204 0.224,-2.814 m 1.015,-2.158 c 0,0 0.936,1.363 -0.224,2.814 0,0.005 -1.408,-1.204 0.224,-2.814 m 3.644,-0.208 c 0,0 -0.622,1.895 -2.814,1.775 0,0.01 0.141,-2.244 2.814,-1.764 z m -4.507,0.049 c 0,0 0.371,1.962 -1.594,2.97 0,0.011 -0.961,-2.023 1.594,-2.96 z m -1.545,9.693 c 0.111,0.226 0.148,0.484 0.104,0.734 -0.044,0.25 -0.166,0.479 -0.348,0.651 0,0 -0.639,-0.66 0.244,-1.376 z m 0.277,0 c 0.237,0.07 0.446,0.218 0.594,0.421 0.148,0.203 0.227,0.451 0.226,0.704 0,0 -0.912,0.033 -0.82,-1.111 z M 1.487,44.298 c 0.067,-0.245 0.209,-0.46 0.405,-0.614 0.197,-0.154 0.436,-0.238 0.684,-0.24 0,0 0.038,0.951 -1.089,0.868 z m -0.365,0 C 0.991,44.08 0.934,43.825 0.958,43.571 c 0.023,-0.254 0.128,-0.493 0.296,-0.68 0,0 0.691,0.625 -0.132,1.413 z M 0.871,38.032 c 0.246,0.02 0.48,0.123 0.664,0.292 0.185,0.17 0.311,0.396 0.359,0.646 0,0 -0.889,0.215 -1.023,-0.932 z M 0.81,37.661 c 0.183,-0.173 0.416,-0.279 0.663,-0.303 0.248,-0.024 0.496,0.037 0.707,0.172 0,0 -0.462,0.819 -1.37,0.131 m 3.446,-4.52 c 0.017,0.253 -0.046,0.506 -0.181,0.718 -0.134,0.213 -0.333,0.376 -0.565,0.463 0,0 -0.341,-0.854 0.743,-1.164 z m 0.347,-0.117 c 0.193,0.159 0.329,0.379 0.389,0.625 0.061,0.246 0.041,0.506 -0.056,0.74 0,0 -0.853,-0.324 -0.336,-1.348 z m -9.212,10.211 c 0.297,-0.028 0.594,0.045 0.847,0.207 0.253,0.162 0.448,0.404 0.555,0.69 0,0 -1.019,0.457 -1.405,-0.88 z m -1.087,-2.407 c 0.297,-0.027 0.594,0.046 0.847,0.208 0.253,0.162 0.448,0.404 0.555,0.69 0,0 -1.017,0.455 -1.405,-0.88 z m 0.898,-2.041 c 0.347,0.087 0.657,0.287 0.884,0.571 0.226,0.284 0.356,0.636 0.37,1.003 0,0 -1.319,0.114 -1.257,-1.557 z m 0,-0.008 c 0.237,0.276 0.38,0.623 0.408,0.99 0.027,0.367 -0.063,0.733 -0.256,1.042 0,0 -1.138,-0.683 -0.155,-2.015 z m -1.218,2.481 c 0.338,0.12 0.628,0.35 0.827,0.654 0.199,0.305 0.296,0.668 0.277,1.035 0,0 -1.317,-0.016 -1.101,-1.672 z M -7.1,30.893 c 0.02,0.289 -0.052,0.576 -0.206,0.819 -0.153,0.243 -0.38,0.428 -0.645,0.527 0,0 -0.383,-0.975 0.854,-1.329 z m 0.396,-0.134 c 0.22,0.182 0.377,0.434 0.446,0.716 0.068,0.282 0.045,0.579 -0.065,0.847 0,0 -0.968,-0.375 -0.378,-1.54 z m -2.723,4.377 c 0.282,0.014 0.551,0.123 0.768,0.308 0.216,0.186 0.369,0.439 0.433,0.721 0,0 -1.003,0.294 -1.198,-1.005 z m -0.084,-0.419 c 0.202,-0.203 0.463,-0.332 0.743,-0.369 0.28,-0.036 0.564,0.022 0.808,0.166 0,0 -0.485,0.958 -1.548,0.222 z m -2.088,-0.156 c 0.458,0.023 0.896,0.198 1.248,0.499 0.352,0.301 0.6,0.712 0.705,1.17 0,0 -1.634,0.462 -1.95,-1.657 z m -0.136,-0.683 c 0.329,-0.329 0.753,-0.539 1.208,-0.599 0.455,-0.059 0.916,0.035 1.314,0.269 0,0 -0.791,1.547 -2.519,0.342 z m -0.609,-0.469 c 0.049,-0.469 0.245,-0.908 0.558,-1.253 0.313,-0.344 0.727,-0.574 1.179,-0.655 0,0 0.343,1.709 -1.737,1.912 z m -2.379,1.846 c 0,0 1.452,0.374 1.498,2.109 0.008,0.005 -1.693,0.031 -1.498,-2.104 z m -1.89,2.203 c 0.034,0.375 -0.052,0.75 -0.244,1.071 -0.192,0.32 -0.481,0.568 -0.822,0.705 0,0 -0.53,-1.274 1.066,-1.772 z m 0.362,-2.142 c 0,0 0.215,1.523 -1.332,2.223 0,0.005 -0.658,-1.598 1.332,-2.223 m 7.844,14.027 c 0.294,0.361 0.465,0.811 0.488,1.281 0.023,0.47 -0.103,0.935 -0.36,1.325 0,0 -1.425,-0.927 -0.122,-2.603 z m -4.278,1.876 c 0.294,0.362 0.466,0.812 0.488,1.282 0.024,0.47 -0.103,0.936 -0.36,1.326 0,0 -1.422,-0.923 -0.121,-2.6 z m 3.299,-0.625 c 0,0 0.735,1.693 -0.828,3.014 0,0 -1.274,-1.623 0.834,-3.008 z m 0.011,0 c 0,0 -0.341,1.81 -2.36,1.974 0,0 -0.135,-2.087 2.366,-1.974 z m -4.11,0.605 c 0,0 0.572,1.749 -1.102,2.915 0,0 -1.125,-1.74 1.102,-2.915 m 4.489,-20.558 c 0.245,0.398 0.358,0.868 0.32,1.337 -0.037,0.47 -0.221,0.914 -0.526,1.266 0,0 -1.301,-1.116 0.204,-2.603 z m 6.891,-4.08 c 0,0 1.039,1.516 -0.248,3.136 -0.002,0 -1.567,-1.346 0.248,-3.136 m -1.472,0.789 c 0.222,0.359 0.323,0.782 0.29,1.205 -0.034,0.423 -0.201,0.824 -0.476,1.14 0,0 -1.174,-1 0.18,-2.337 z m -4.477,1.293 c 0,0 0.861,1.251 -0.207,2.602 -0.006,0.006 -1.303,-1.109 0.201,-2.594 z m 3.349,-0.176 c 0,0 0.507,1.769 -1.218,2.87 0,0.008 -1.053,-1.774 1.213,-2.863 z m 0.01,0 c 0,0 -0.573,1.747 -2.596,1.637 -0.005,0.003 0.126,-2.078 2.598,-1.634 z m -4.158,0.043 c 0,0 0.338,1.816 -1.472,2.741 0,0 -0.889,-1.876 1.467,-2.737 z m -7.394,1.598 c 0,0 0.215,1.523 -1.332,2.223 -0.004,0.004 -0.662,-1.596 1.328,-2.22 z m -4.566,-0.938 c 0,0 0.213,1.523 -1.334,2.223 0,0.003 -0.66,-1.596 1.334,-2.22 z m 3.064,1.407 c 0,0 -0.33,1.814 -2.347,1.995 0,-0.001 -0.154,-2.081 2.347,-1.996 z m 0.012,0 c 0,0 -1.283,1.292 -3.037,0.25 0,0 1.035,-1.793 3.037,-0.25 m -9.469,-0.097 c 0,0 1.777,-0.262 2.587,1.643 0.006,0 -1.863,0.816 -2.587,-1.643 m 5.743,-1.798 c 0,0 -0.495,1.775 -2.521,1.759 0,-10e-4 0.038,-2.087 2.521,-1.76 z m -5.747,1.787 c 0,0 1.603,0.834 1.208,2.874 -0.002,-0.002 -1.981,-0.432 -1.208,-2.874 m -4.693,0.963 c 0,0 1.538,-0.955 3.013,0.469 -0.006,0.013 -1.407,1.517 -3.013,-0.456 z m -0.656,0.948 c 0.454,0.017 0.889,0.185 1.241,0.479 0.352,0.294 0.602,0.698 0.711,1.15 0,0 -1.614,0.475 -1.952,-1.617 z m -1.683,1.729 c 0.453,0.017 0.889,0.185 1.241,0.479 0.352,0.294 0.601,0.698 0.71,1.15 0,0 -1.613,0.477 -1.951,-1.617 z m -6.322,1.599 c 0.339,-0.309 0.767,-0.497 1.22,-0.535 0.452,-0.038 0.904,0.076 1.287,0.326 0,0 -0.854,1.493 -2.507,0.222 z m 0.484,-1.632 c 0,0 1.37,-1.351 3.218,-0.228 0,0.012 -1.117,1.898 -3.218,0.241 z m 2.07,3.429 c 0,0 -0.07,-1.953 1.979,-2.621 -0.006,0.013 0.623,2.122 -1.979,2.633 z m 4.001,0 c 0,0 -1.749,-0.765 -1.471,-2.947 0,0.011 2.127,0.322 1.471,2.958 z m -2.294,-4.065 c 0,0 -1.892,0.192 -2.667,-1.861 0,0.008 2.006,-0.767 2.667,1.861 m 2.473,-2.206 c 0,0 -1.449,1.265 -3.224,0.033 0.006,0.006 1.229,-1.809 3.23,-0.027 z m 0.198,-0.313 c -0.444,-0.08 -0.85,-0.307 -1.157,-0.645 -0.307,-0.339 -0.499,-0.771 -0.546,-1.231 0,0 1.653,-0.23 1.709,1.876 z m 1.308,-2.601 c 0,0 -1.582,0.658 -2.755,-0.906 0.006,0 1.545,-1.191 2.761,0.906 z m 1.827,-1.243 c 0,0 -1.582,0.658 -2.756,-0.906 0.002,0 1.542,-1.191 2.757,0.906 z m 0.079,0.042 c 0,0 -1.696,-0.196 -2.005,-2.144 0.001,0 1.907,-0.29 2.005,2.144 m 4.871,1.005 c 0,0 -1.696,-0.194 -2.005,-2.142 0,0 1.906,-0.295 2.005,2.142 m 0.761,-0.298 c 0,0 -1.363,-1.056 -0.658,-2.894 0.006,0 1.792,0.746 0.658,2.894 m -3.311,-3.95 c 0,0 -1.37,-1.055 -0.658,-2.894 -0.006,0.002 1.78,0.748 0.652,2.896 z m -3.478,-1.64 c 0,0 -0.79,-1.552 0.609,-2.903 -0.003,0.002 1.3,1.46 -0.615,2.905 z m -2.253,-2.201 c 0,0 0.851,-1.519 2.714,-1.032 -0.006,0.002 -0.504,1.915 -2.72,1.034 z m -0.968,-2.997 c 0,0 1.685,-0.269 2.479,1.529 -0.006,0.002 -1.77,0.802 -2.485,-1.527 z m 1.979,-1.701 c 0,0 1.543,0.749 1.217,2.695 -0.003,0.002 -1.899,-0.354 -1.222,-2.693 z m 2.446,-0.116 c 0,0 0.944,1.459 -0.314,2.954 -0.004,10e-4 -1.449,-1.307 0.309,-2.952 z m 3.471,1.842 c 0,0 0.943,1.459 -0.314,2.953 -0.008,0.002 -1.449,-1.308 0.309,-2.951 z m 2.036,1.315 c 0,0 -0.457,1.687 -2.381,1.687 -0.004,10e-4 0.023,-1.978 2.377,-1.685 z m -0.997,-1.939 c 0,0 -1.706,-0.022 -2.2,-1.931 -0.004,0.002 1.865,-0.484 2.196,1.933 z m -0.414,-1.837 c -0.341,-0.183 -0.615,-0.476 -0.78,-0.834 -0.164,-0.358 -0.211,-0.761 -0.133,-1.148 0,0 1.396,0.253 0.908,1.984 z m 0.714,1.268 c 0,0 -0.846,-1.521 0.505,-2.925 -0.004,0.002 1.351,1.409 -0.51,2.927 z m 1.827,1.607 c 0,0 -0.847,-1.519 0.505,-2.925 -0.001,0.002 1.353,1.41 -0.507,2.927 z m 0.535,0.793 c 0,0 0.305,-1.948 2.462,-2.189 -0.002,-0.003 0.213,2.216 -2.463,2.194 z m 0.048,0.951 c 0,0 1.415,-1.336 3.254,-0.157 -0.001,-0.008 -1.167,1.868 -3.256,0.158 z m -0.927,2.629 c 0,0 1.016,-1.674 3.094,-1.05 0.003,10e-4 -0.634,2.135 -3.096,1.052 z m 1.513,2.43 c 0,0 -0.127,-1.969 1.916,-2.706 -10e-4,10e-4 0.694,2.115 -1.918,2.707 z m 2.402,2.032 c 0,0 -1.026,-1.669 0.427,-3.319 -10e-4,-10e-4 1.591,1.515 -0.429,3.318 z m 2.283,-0.614 c 0,0 1.895,-0.329 2.818,1.682 10e-4,-0.002 -1.975,0.926 -2.816,-1.684 z m 2.749,-2.126 c 0,0 1.42,1.33 0.445,3.316 10e-4,-0.002 -1.926,-1.029 -0.443,-3.318 z m 2.253,-1.289 c 0.133,0.475 0.112,0.98 -0.059,1.442 -0.171,0.461 -0.483,0.852 -0.889,1.116 0,0 -0.994,-1.513 0.95,-2.559 z m 0.181,2.13 c 0,0 0.51,1.53 -0.953,2.564 0.002,-0.002 -0.989,-1.521 0.955,-2.566 z m 2.787,-1.676 c 0,0 0.667,1.996 -1.242,3.342 0.002,-0.001 -1.289,-1.981 1.244,-3.344 z m 0.077,-1.575 c 0,0 -0.278,2.091 -2.57,2.416 0.001,-0.002 -0.289,-2.367 2.571,-2.417 z m -0.769,-0.758 c -0.303,0.345 -0.708,0.58 -1.152,0.668 -0.444,0.089 -0.904,0.027 -1.311,-0.177 0,0 0.688,-1.565 2.464,-0.493 z m -1.816,-1.438 c 0,0 -1.245,1.563 -3.282,0.658 10e-4,-0.002 0.916,-2.089 3.283,-0.66 z M -12.939,16.7 c 0,0 -1.245,1.572 -3.282,0.66 0.002,-10e-4 0.917,-2.09 3.284,-0.661 z m -0.457,-0.798 c 0,0 -1.968,0.131 -2.705,-2.022 0,-0.002 2.113,-0.735 2.705,2.02 z m 0.771,-0.285 c 0,0 -1.39,-1.437 -0.292,-3.421 0.004,-10e-4 1.925,1.152 0.292,3.421 m 0.86,1.704 c 0,0 -0.06,-2.025 2.062,-2.703 0,-0.003 0.638,2.19 -2.062,2.7 z m -1.008,31.767 c -0.449,-0.115 -0.849,-0.377 -1.14,-0.746 -0.291,-0.369 -0.457,-0.826 -0.473,-1.3 0,0 1.704,-0.118 1.613,2.043 z m -4.599,-2.415 c 0.114,-0.461 0.371,-0.871 0.731,-1.168 0.361,-0.298 0.806,-0.467 1.268,-0.482 0,0 0.105,1.75 -1.999,1.646 z m -4.045,-2.399 c 0.113,-0.46 0.37,-0.87 0.731,-1.168 0.361,-0.298 0.806,-0.467 1.269,-0.481 0,0 0.111,1.749 -2,1.646 z m -0.809,-2.657 c 0,0 -0.552,1.442 -2.248,1.266 0,0 0.195,-1.745 2.248,-1.266 m -1.633,-0.052 c -0.384,0.264 -0.842,0.393 -1.304,0.367 -0.462,-0.026 -0.903,-0.206 -1.257,-0.513 0,0 1.065,-1.374 2.561,0.151 z m 1.65,0.078 c -0.457,0.081 -0.927,0.007 -1.339,-0.212 -0.412,-0.218 -0.744,-0.569 -0.944,-0.998 0,0 1.523,-0.807 2.283,1.21 M -22.064,45 c 0.403,-0.232 0.869,-0.323 1.328,-0.259 0.458,0.064 0.883,0.279 1.212,0.614 0,0 -1.164,1.282 -2.54,-0.355 m -0.829,1.236 c -0.041,0.474 -0.231,0.92 -0.541,1.273 -0.311,0.353 -0.724,0.592 -1.179,0.682 0,0 -0.371,-1.714 1.72,-1.955 m 2.113,-0.198 c 0.463,0.021 0.907,0.196 1.264,0.5 0.357,0.303 0.608,0.717 0.715,1.18 0,0 -1.655,0.457 -1.979,-1.68 m -1.28,-1.071 c 0.413,0.215 0.746,0.562 0.95,0.988 0.204,0.427 0.267,0.91 0.18,1.377 0,0 -1.687,-0.278 -1.13,-2.365 m 7.282,4.751 c -0.441,0.142 -0.916,0.132 -1.352,-0.027 -0.436,-0.16 -0.809,-0.461 -1.063,-0.858 0,0 1.398,-1.01 2.415,0.885 m -0.009,0.031 c -0.36,-0.297 -0.617,-0.707 -0.731,-1.167 -0.114,-0.46 -0.079,-0.946 0.099,-1.384 0,0 1.593,0.625 0.632,2.551 m 2.772,-0.86 c -0.232,-0.41 -0.329,-0.888 -0.274,-1.36 0.055,-0.472 0.258,-0.912 0.579,-1.255 0,0 1.269,1.18 -0.305,2.615 M 9.966,39.528 c 0.186,0.435 0.228,0.92 0.122,1.382 -0.107,0.463 -0.357,0.877 -0.713,1.18 0,0 -1.129,-1.318 0.591,-2.564 z M 8.8,40.475 c -0.009,0.476 -0.168,0.935 -0.454,1.31 -0.285,0.374 -0.682,0.643 -1.129,0.765 0,0 -0.493,-1.684 1.583,-2.075 m 0.557,-1.451 c -0.156,0.39 -0.431,0.718 -0.783,0.934 -0.353,0.216 -0.765,0.308 -1.173,0.262 0,0 0.116,-1.554 1.951,-1.196 z m -4.558,5.768 c 0.376,-0.277 0.83,-0.421 1.292,-0.409 0.463,0.011 0.909,0.177 1.272,0.471 0,0 -1.025,1.406 -2.568,-0.062 z m 1.145,1.227 c 0.454,-0.089 0.924,-0.025 1.339,0.184 0.416,0.209 0.753,0.551 0.963,0.974 0,0 -1.503,0.842 -2.306,-1.158 z m -1.49,-0.507 c 0.455,0.085 0.872,0.319 1.186,0.668 0.314,0.349 0.509,0.794 0.555,1.266 0,0 -1.698,0.221 -1.746,-1.934 z m -1.907,3.95 c 0.182,-0.437 0.497,-0.801 0.898,-1.037 0.401,-0.237 0.867,-0.333 1.326,-0.273 0,0 -0.166,1.747 -2.229,1.31 z m 1.472,0.226 c 0.343,-0.318 0.778,-0.512 1.238,-0.554 0.46,-0.042 0.922,0.071 1.314,0.321 0,0 -0.863,1.517 -2.557,0.233 z m -1.405,0.573 c 0.432,-0.17 0.906,-0.191 1.351,-0.059 0.444,0.132 0.835,0.409 1.113,0.789 0,0 -1.34,1.096 -2.464,-0.73 m -1.853,-1.09 c 0.249,0.4 0.364,0.873 0.328,1.347 -0.036,0.473 -0.221,0.922 -0.527,1.278 0,0 -1.316,-1.109 0.197,-2.611 z m -1.011,1.121 c 0.067,0.472 -0.019,0.954 -0.244,1.372 -0.225,0.418 -0.577,0.748 -1.002,0.942 0,0 -0.743,-1.586 1.245,-2.3 z m 0.331,-1.513 c -0.108,0.462 -0.359,0.876 -0.716,1.179 -0.357,0.303 -0.801,0.479 -1.263,0.5 0,0 -0.127,-1.737 1.977,-1.666 z m -1.457,-7.818 c 0.182,-0.436 0.497,-0.8 0.899,-1.037 0.401,-0.236 0.866,-0.332 1.325,-0.273 0,0 -0.165,1.762 -2.226,1.318 z m 1.472,0.227 c 0.343,-0.318 0.778,-0.514 1.239,-0.556 0.461,-0.042 0.922,0.071 1.315,0.322 0,0 -0.861,1.525 -2.556,0.242 z m -1.405,0.572 c 0.432,-0.169 0.906,-0.19 1.351,-0.058 0.445,0.132 0.835,0.408 1.113,0.788 0,0 -1.338,1.104 -2.466,-0.722 z m 17.855,7.695 c 0,0 -0.624,-1.921 1.218,-3.2 -0.003,0.005 1.224,1.92 -1.219,3.208 z m 1.675,-1.006 c 0,0 0.216,-2.014 2.408,-2.385 0,0.008 0.335,2.272 -2.408,2.385 m -0.971,1.769 c 0,0 0.913,-1.796 3.084,-1.329 0,0 -0.483,2.236 -3.084,1.329 m 3.757,-9.516 c 0,0 -0.914,-1.795 0.706,-3.358 0,0.004 1.507,1.688 -0.706,3.358 m 1.497,-1.268 c 0,0 -0.097,-2.023 2.011,-2.745 0,0 0.681,2.179 -2.011,2.745 m -0.685,1.899 c 0,0 0.62,-1.923 2.841,-1.815 0,0 -0.127,2.286 -2.841,1.815 M 28.1,26.031 c 0,0 -1.157,-2.272 0.895,-4.251 0,0 1.907,2.137 -0.895,4.251 m 1.359,1.396 c 0,0 -0.913,-1.795 0.707,-3.357 0,0 1.507,1.687 -0.707,3.357 m 1.5,-1.266 c 0,0 -0.098,-2.024 2.009,-2.747 0,0 0.68,2.181 -2.009,2.747 m -0.687,1.898 c 0,0 0.62,-1.923 2.841,-1.816 0,0.005 -0.133,2.286 -2.841,1.816 M 17.699,18.494 c 0,0 -0.914,-1.795 0.706,-3.357 0,0 1.507,1.687 -0.706,3.357 m 3.582,0.875 c 0,0 -0.096,-2.032 2.009,-2.748 0,0 0.68,2.179 -2.009,2.748 m -0.679,1.895 c 0,0 0.619,-1.923 2.84,-1.815 -0.008,0 -0.14,2.285 -2.848,1.815 z m 12.772,6.826 c 0,0 -0.097,-2.023 2.011,-2.747 -0.007,0 0.673,2.181 -2.023,2.747 z m -0.685,1.898 c 0,0 0.62,-1.923 2.839,-1.815 -0.007,0 -0.138,2.285 -2.846,1.815 z M 19.206,17.227 c 0,0 -0.099,-2.023 2.009,-2.747 -0.008,0 0.673,2.181 -2.009,2.747 m -0.694,1.892 c 0,0 0.619,-1.923 2.84,-1.815 0,0.006 -0.132,2.292 -2.84,1.821 z m -26.234,4.534 c 0,0 -0.913,-1.795 0.708,-3.358 0,0 1.505,1.688 -0.708,3.358 m -1.279,-4.512 c 0,0 -0.974,-1.762 0.592,-3.382 0,0 1.562,1.632 -0.592,3.382 m 0.696,1.105 c 0,0 -0.098,-2.023 2.009,-2.745 0,-0.008 0.68,2.181 -2.009,2.745 m 2.082,2.139 c 0,0 -0.097,-2.023 2.011,-2.745 0,0 0.68,2.179 -2.003,2.745 z m 2.154,0.084 c -2.219,-0.108 -2.839,1.816 -2.839,1.816 2.707,0.47 2.839,-1.816 2.839,-1.816"
             style="fill:#191558;fill-opacity:1;fill-rule:nonzero;stroke:none"
             id="path60" /></g><g
           id="g62"
           transform="translate(103.549,35)"><path
             d="M 0,0 H 128.951 V -35 H -0.327 Z"
             style="fill:#191558;fill-opacity:1;fill-rule:nonzero;stroke:none"
             id="path64" /></g><g
           id="g66"
           transform="translate(117.431,28.5157)"><path
             d="M 0,0 8.92,-18.454 V 0 h 2.448 V -23.356 H 8.57 l -9.72,19.889 v -19.889 h -2.447 l 0,23.356 z"
             style="fill:#ffffff;fill-opacity:1;fill-rule:nonzero;stroke:none"
             id="path68" /></g><g
           id="g70"
           transform="translate(135.411,13.8069)"><path
             d="m 0,0 c 0,-4.587 1.293,-7.001 3.777,-7.001 2.484,0 3.777,2.378 3.777,7.001 0,4.623 -1.293,6.97 -3.741,6.97 C 1.365,6.97 0,4.592 0,0 m 7.941,7.563 c 1.644,-1.506 2.448,-3.993 2.448,-7.599 0,-3.606 -0.804,-6.057 -2.448,-7.564 -1.156,-1.026 -2.655,-1.579 -4.2,-1.547 -4.195,0 -6.576,3.291 -6.576,9.07 0,5.948 2.345,9.173 6.648,9.173 1.52,0.028 2.994,-0.519 4.128,-1.533"
             style="fill:#ffffff;fill-opacity:1;fill-rule:nonzero;stroke:none"
             id="path72" /></g><g
           id="g74"
           transform="translate(152.097,22.4227)"><path
             d="m 0,0 v -10.891 c 0,-1.924 0.067,-2.802 0.278,-3.328 0.351,-0.908 1.155,-1.398 2.345,-1.398 1.33,0 2.376,0.769 3.041,2.167 0.561,1.264 0.7,2.384 0.7,5.572 V 0 H 8.915 V -17.263 H 6.54 v 2.58 c -1.119,-2.244 -2.381,-3.096 -4.479,-3.096 -2.097,0 -3.53,0.981 -4.158,2.627 -0.32,0.804 -0.459,2.202 -0.459,4.235 l 0,10.917 z"
             style="fill:#ffffff;fill-opacity:1;fill-rule:nonzero;stroke:none"
             id="path76" /></g><g
           id="g78"
           transform="translate(166.155,22.4227)"><path
             d="M 0,0 3.917,-14.183 7.694,0 h 2.345 L 5.04,-17.263 H 2.417 L -2.587,0 Z"
             style="fill:#ffffff;fill-opacity:1;fill-rule:nonzero;stroke:none"
             id="path80" /></g><g
           id="g82"
           transform="translate(188.528,15.592)"><path
             d="M 0,0 C 0,3.292 -1.293,5.159 -3.53,5.159 -5.591,5.159 -6.854,3.369 -7.137,0 Z m -7.271,-2.1 c -0.056,-1.189 0.062,-2.379 0.35,-3.534 0.557,-1.966 1.923,-3.152 3.67,-3.152 1.747,0 2.731,1.032 3.499,3.498 l 2.381,-0.557 c -0.877,-3.364 -2.907,-5.077 -6.02,-5.077 -4.194,0 -6.575,3.255 -6.575,8.894 0,5.743 2.576,9.349 6.699,9.349 0.906,0.017 1.802,-0.188 2.61,-0.597 C 0.152,6.315 0.848,5.714 1.371,4.973 2.402,3.426 2.84,1.434 2.948,-2.1 Z"
             style="fill:#ffffff;fill-opacity:1;fill-rule:nonzero;stroke:none"
             id="path84" /></g><g
           id="g86"
           transform="translate(219.64,15.592)"><path
             d="M 0,0 C 0,3.292 -1.294,5.159 -3.536,5.159 -5.597,5.159 -6.854,3.369 -7.143,0 Z m -7.277,-2.1 c -0.053,-1.189 0.065,-2.379 0.351,-3.534 0.561,-1.966 1.927,-3.152 3.674,-3.152 1.747,0 2.726,1.032 3.494,3.498 l 2.381,-0.557 c -0.876,-3.364 -2.902,-5.077 -6.014,-5.077 -4.2,0 -6.576,3.255 -6.576,8.894 0,5.743 2.577,9.349 6.699,9.349 0.906,0.016 1.802,-0.189 2.61,-0.598 C 0.151,6.314 0.847,5.713 1.37,4.974 2.401,3.426 2.839,1.434 2.916,-2.1 Z"
             style="fill:#ffffff;fill-opacity:1;fill-rule:nonzero;stroke:none"
             id="path88" /></g><path
           d="m 196,30 h 2.51 V 5 H 196 Z"
           style="fill:#ffffff;fill-opacity:1;fill-rule:nonzero;stroke:none"
           id="path90" /><path
           d="m 203,30 h 2.51 V 5 H 203 Z"
           style="fill:#ffffff;fill-opacity:1;fill-rule:nonzero;stroke:none"
           id="path92" /></g></g></g></svg>
