<?xml version="1.0" encoding="UTF-8" standalone="no"?>
<svg
   id="Calque_1"
   data-name="Calque 1"
   viewBox="0 0 778 598"
   version="1.1"
   sodipodi:docname="logo_la-societe-nouvelle_s.svg"
   inkscape:version="1.1.2 (b8e25be833, 2022-02-05)"
   xmlns:inkscape="http://www.inkscape.org/namespaces/inkscape"
   xmlns:sodipodi="http://sodipodi.sourceforge.net/DTD/sodipodi-0.dtd"
   xmlns="http://www.w3.org/2000/svg"
   xmlns:svg="http://www.w3.org/2000/svg">
  <sodipodi:namedview
     id="namedview30"
     pagecolor="#ffffff"
     bordercolor="#666666"
     borderopacity="1.0"
     inkscape:pageshadow="2"
     inkscape:pageopacity="0.0"
     inkscape:pagecheckerboard="0"
     showgrid="false"
     inkscape:zoom="1.4598662"
     inkscape:cx="388.73425"
     inkscape:cy="298.6575"
     inkscape:window-width="2560"
     inkscape:window-height="1334"
     inkscape:window-x="-11"
     inkscape:window-y="-11"
     inkscape:window-maximized="1"
     inkscape:current-layer="Calque_1" />
  <defs
     id="defs7">
    <style
       id="style2">.cls-1{fill:#25244f;}.cls-2{fill:#fff;}.cls-3{clip-path:url(#clip-path);}</style>
    <clipPath
       id="clip-path"
       transform="translate(58 -14.5)">
      <path
         class="cls-1"
         d="M303.1,304.17c-14.58.69-18.65-11.61-18.65-11.61C302.23,289.55,303.1,304.17,303.1,304.17Zm-14.15.54s-.64,12.94,13.21,17.56C302.16,322.27,306.63,308.33,289,304.71Zm-13.68,13.68s-.64,12.94,13.2,17.56C288.47,336,292.94,322,275.27,318.39Zm-4.57,7.07s-6.4,11.27,3.89,21.63C274.59,347.09,284.85,336.65,270.7,325.46Zm8.4-28.86s-6,11.48,4.65,21.48C283.75,318.08,293.64,307.28,279.1,296.6Zm172.34,29s4.07,12.3,18.66,11.61C470.1,337.17,469.23,322.55,451.44,325.56ZM456,337.7s-.65,12.94,13.2,17.57C469.15,355.27,473.62,341.32,456,337.7Zm88.58-81.62s4.07,12.3,18.65,11.61C563.18,267.69,562.32,253.07,544.53,256.08Zm4.5,12.14s-.64,12.94,13.21,17.57C562.24,285.79,566.71,271.84,549,268.22Zm-83.91,43.66s4.07,12.3,18.66,11.61C483.78,323.49,482.91,308.87,465.12,311.88ZM469.63,324S469,337,482.83,341.58C482.83,341.58,487.3,327.64,469.63,324ZM446.1,329.6s-6,11.48,4.64,21.47C450.74,351.07,460.64,340.28,446.1,329.6Zm82.6-61.18s4.07,12.3,18.66,11.61C547.36,280,546.49,265.41,528.7,268.42Zm4.51,12.14s-.64,12.94,13.2,17.57C546.41,298.13,550.88,284.18,533.21,280.56Zm-9.85-8.1s-6,11.48,4.64,21.47C528,293.93,537.9,283.14,523.36,272.46Zm-8.93,8.93s-7.6,14.53,5.88,27.19C520.31,308.58,532.84,294.91,514.43,281.39Zm-41.26-97.88s4.07,12.3,18.66,11.61C491.83,195.12,491,180.5,473.17,183.51Zm4.5,12.15s-.64,12.94,13.21,17.56C490.88,213.22,495.35,199.28,477.67,195.66Zm-9.84-8.11s-6,11.48,4.64,21.48C472.47,209,482.37,198.23,467.83,187.55Zm-24.68-60.87s6,11.49,20.26,8.5C463.41,135.18,460.24,120.88,443.15,126.68ZM449.53,138s1.42,12.88,15.82,15.25C465.35,153.2,467.55,138.72,449.53,138Zm-11-6.44s-4.1,12.29,8,20.47C446.51,152,454.57,139.75,438.52,131.51Zm-117.3,49.22a14,14,0,0,0,16.19-4.67S328.63,169.05,321.22,180.73Zm9.23,3.66a14,14,0,0,0,16.78,1.5S341.58,176.18,330.45,184.39Zm-9.67,1.45a14,14,0,0,0,14.61,8.38S334.32,183,320.78,185.84Zm9.57-50a14,14,0,0,0-13-10.74S316.53,136.26,330.35,135.8Zm-2.17-9.68A14,14,0,0,0,320,111.41S315.12,121.55,328.18,126.12Zm6.64,7.17a14,14,0,0,0-1.31-16.79S324.88,123.68,334.82,133.29ZM347,126.41a14,14,0,0,0,16.19-4.67S354.39,114.73,347,126.41Zm9.23,3.66A14,14,0,0,0,373,131.56S367.33,121.86,356.2,130.07Zm-9.67,1.45a14,14,0,0,0,14.61,8.38S360.08,128.72,346.53,131.52Zm12.53,25.26a14,14,0,0,0,11.44-12.37S359.37,143,359.06,156.78Zm9.79-3.24A14,14,0,0,0,384,146.13S374.13,140.75,368.85,153.54Zm-7.52,7.85a14,14,0,0,0,16.84-.4S371.47,152,361.33,161.39Zm29.94,36.89a12.44,12.44,0,0,0-12.85-7.65S379.21,200.57,391.27,198.28ZM387.64,189a14,14,0,0,0-10.4-13.27S374,186.5,387.64,189Zm7.66,6.06a14,14,0,0,0-3.88-16.39S384,187.1,395.3,195.07ZM250.9,135.18a14,14,0,0,0,2,16.73S261.24,144.36,250.9,135.18Zm-18.21-5.5A14,14,0,0,0,228.54,146S239,142,232.69,129.68Zm.06.2a14,14,0,0,0-15.87,5.66S226.07,142,232.75,129.88Zm-47.84,30.39a14,14,0,0,0,7.42-15.13S181.25,146.92,184.91,160.27Zm8.41-6.85a14,14,0,0,0,13-10.75S195.45,139.75,193.32,153.42Zm-13.88-1.27a14,14,0,0,0-11.3-12.5S165.7,150.61,179.44,152.15Zm5.44,7.91a14,14,0,0,0,16.69-2.27S193.92,149.59,184.88,160.06Zm-.95,21.47a14,14,0,0,0-15,7.74S178.94,194.43,183.93,181.53Zm-10.84.5a14,14,0,0,0-16.82.93S163.26,191.75,173.09,182Zm10.73-.33s-3.63-9.23-14.77-8.1C169.05,173.6,170.33,184.76,183.82,181.7Zm5.31-17a14,14,0,0,0,13.14,10.55S203,164.06,189.13,164.72Zm26.58-15.34a14,14,0,0,0,13.13,10.55S229.53,148.72,215.71,149.38Zm30.21-15.45A14,14,0,0,0,235.32,147S246.52,147.75,245.92,133.93Zm6.62,203.19s-.39,12.95,13.55,17.29C266.09,354.41,270.28,340.38,252.54,337.12ZM246.89,348s-9.13,9.19-1.92,21.88C245,369.89,257.62,362.51,246.89,348Zm-5.06-1.82s-12.93-.84-17.77,12.93C224.06,359.12,237.94,363.81,241.83,346.19Zm3-5.11s-8.18-10.05-21.56-4.22C223.28,336.86,229.29,350.22,244.84,341.08Zm3.42-14.49s-8.18-10-21.56-4.21C226.7,322.38,232.71,335.73,248.26,326.59Zm11.93-9.2A13.7,13.7,0,0,0,244,314.24S248.52,324.25,260.19,317.39Zm5.05-4.85s-1.82-13.37-16.88-15.45C248.36,297.09,246.45,312.22,265.24,312.54Zm-.5-10.07s4.38-12.77-8.16-21.38C256.58,281.09,248.1,293.75,264.74,302.47Zm-18.31-10.72s3.35-9.79-6.26-16.4C240.17,275.35,233.66,285.07,246.43,291.75Zm-1.19,13.62A14.59,14.59,0,0,0,239,289S232.47,298.68,245.24,305.37Zm-14.8-8.24s9.33-8.51,2.92-21.21C233.36,275.92,220.7,282.49,230.44,297.13Zm-18.06-13.6s12.45,2.1,18.51-10.76C230.89,272.77,217.91,266.84,212.38,283.53Zm-15-3.93s-6.74,10.68,2.81,21.23C200.17,300.83,210.63,291.13,197.36,279.6Zm-15.78,13s-.83,12.59,12.59,17.31C194.17,309.89,198.74,296.37,181.58,292.58Zm-9.94,15.54s6.68,10.71,20.33,6.72C192,314.84,187.81,301.19,171.64,308.12Zm6.09,16.82s9.3,8.54,21.38,1C199.11,326,191.45,314,177.73,324.94Zm-.31,6.08s2,12.46,16.17,14C193.59,345.05,195,330.86,177.42,331Zm-3.52,5.07s-5.56,9.72,3.32,18.71C177.22,354.8,186.12,345.79,173.9,336.09Zm-12,10.28s-5.56,9.73,3.32,18.71C165.2,365.08,174.1,356.08,161.88,346.37Zm-4.69,8.11a11.65,11.65,0,0,0-6,12.68S160.39,365.55,157.19,354.48Zm2.72-11.75s-11.21.14-14.45,12.35C145.46,355.08,157.74,358.19,159.91,342.73Zm6.55-12.4s-3-10.79-15.64-10.79C150.82,319.54,151,332.2,166.46,330.33Zm-13.38,8.41s6.2-9.33-2.06-18.89C151,319.85,141.53,328.23,153.08,338.74Zm-22.8,11.78s6.2-9.33-2.06-18.89C128.22,331.63,118.73,340,130.28,350.52Zm-16.07-.74s10.14-4.79,8-17.24C122.22,332.54,109.76,334.82,114.21,349.78Zm-13-10.88s11.07,1.72,16.29-9.78C117.49,329.12,105.9,324,101.2,338.9Zm6.36-19.17s5.59,9.72,17.83,6.6C125.39,326.33,122.12,314.09,107.56,319.73Zm14.8-14.08s-5.19,9.93,4,18.57C126.38,324.22,134.94,314.89,122.36,305.65Zm22.85-10.49s-9,6.75-4.32,18.51C140.89,313.67,152.62,308.9,145.21,295.16ZM167,269.91s-8.95,6.75-4.32,18.51C162.72,288.42,174.45,283.65,167,269.91ZM162,268s-11.14,1.24-13.17,13.7C148.83,281.7,161.35,283.59,162,268Zm-32,6.43s-11.14,1.25-13.17,13.71C116.84,288.14,129.36,290,130,274.43Zm-.52.27s-10.39-4.21-18.1,5.79C111.39,280.49,121.51,288.11,129.49,274.7Zm-12-7.95s-10.39-4.21-18.1,5.79C99.42,272.54,109.53,280.16,117.52,266.75Zm-8.59-16.64a13.63,13.63,0,0,0-11.19,12S108.56,263.58,108.93,250.11Zm-1.3-2s-9.52-8.09-21.18-.21C86.45,247.86,94.48,259.47,107.63,248.07ZM91.34,234s-12.43-1.23-17.52,11.9C73.82,245.85,87,250.81,91.34,234Zm15.07-26s-11.49,4.89-9.66,18.85C96.75,226.78,110.72,224.79,106.41,207.93Zm-26.28,0s-.46,12.49,13,16.76C93.09,224.68,97.22,211.19,80.13,207.92Zm-13.6,21.93s9,8.64,21.14,1.46C87.67,231.31,80.33,219.25,66.53,229.85Zm-3.18-10.44a13.73,13.73,0,0,0,16.47,1.34S74.21,211.28,63.35,219.41Zm41.53,10.23a13.73,13.73,0,0,0,12.82-10.42S107.1,216.25,104.88,229.64Zm11.06,11.06a13.73,13.73,0,0,0,12.82-10.42S118.16,227.32,115.94,240.7Zm4.31,6.06s10.1,6.11,19.79-3C140,243.76,130.8,234.14,120.25,246.76ZM151.08,253s10.53-5.33,7.93-18.38C159,234.63,146,237.38,151.08,253Zm37.75,11.43s-3.25-11.35-16.56-11.25C172.27,253.19,172.52,266.53,188.83,264.44ZM151.1,252.93s11.68,1.68,17-10.51C168.14,242.42,155.86,237.2,151.1,252.93Zm62.21-.62s-8.43-8.26-19.95-1.6C193.36,250.71,200.16,262.18,213.31,252.31Zm-.08,0s-2.17-11.6-15.42-12.76C197.81,239.56,196.8,252.86,213.23,252.32Zm-20.13,9s1.4-9.74-8.76-14.22C184.34,247.07,180,257.3,193.1,261.29Zm30-6s1.41-9.74-8.75-14.22C214.32,241.07,210,251.3,223.07,255.29Zm48.57,10.22S273.89,253.92,262,248C262,248,256.16,260,271.64,265.51Zm27.32.28s-3.77-11.18-17.06-10.47C281.9,255.32,282.76,268.63,299,265.79Zm-.07,0s3.33-11.32-8-18.36C290.92,247.4,284,258.8,298.89,265.76Zm-22-1.13s5.66-8-1.36-16.64C275.52,248,267,255.13,276.88,264.63Zm29.41,8.27a12.48,12.48,0,0,0-1.22-15S297.4,264.35,306.29,272.9ZM316,278s6.83-9.7-1.63-20.06C314.36,257.94,304.08,266.55,316,278Zm-45.27-26.1a13.89,13.89,0,0,0-1.35-16.65S260.83,242.39,270.72,251.9ZM241.24,120.41S245,109.22,234,101.76C234,101.76,226.61,112.89,241.24,120.41Zm27,3.87S266,112.7,252.74,111.65C252.74,111.65,251.85,125,268.28,124.28Zm-.07,0S273,113.45,262.73,105C262.73,105,254.36,115.38,268.21,124.24Zm-21.67-4a13.89,13.89,0,0,0,.84-16.68S238,109.5,246.54,120.23Zm28.1,12a13.87,13.87,0,0,0,.84-16.67S266.08,121.54,274.64,132.26ZM223.07,222s1.41-9.74-8.75-14.22C214.32,207.75,210,218,223.07,222Zm-2.38-13.7a11.09,11.09,0,0,0-7-11.36S210.21,205.09,220.69,208.27Zm12.42,14.09s9.54-2.39,9.84-13.49C243,208.87,231.83,208.7,233.11,222.36Zm15.63,11.81a13.88,13.88,0,0,0,11.41,12.2S262.4,235.47,248.74,234.17Zm4-3a13.88,13.88,0,0,0,16.57,2.11S264.11,223.41,252.76,231.12Zm.89-4.37a13.87,13.87,0,0,0,12.83-10.68S255.73,213.2,253.65,226.75Zm13.72-1a8.52,8.52,0,0,0,10.19,1.3S274.35,221,267.37,225.71Zm.55-2.68a8.54,8.54,0,0,0,7.89-6.58S269.2,214.69,267.92,223Zm17.89,28a8.55,8.55,0,0,0,2.5-10S281.93,243.55,285.81,251Zm-2.6-.86a8.53,8.53,0,0,0-5.59-8.61S275.08,247.92,283.21,250.18Zm7.12-66.31a10.8,10.8,0,0,0,7.25-10.8S288.91,173.28,290.33,183.87Zm8,15.87a10.82,10.82,0,0,0,1-13S291.83,191.22,298.29,199.74Zm0-.05a10.81,10.81,0,0,0,8.24-10.07S297.88,189,298.29,199.69Zm-5.9-13.06a9,9,0,0,0,9.21-5.74S294.94,178.09,292.39,186.63Zm7.14-15.39a9,9,0,0,0,9.21-5.74S302.07,162.69,299.53,171.24Zm60.52,65.31a7.47,7.47,0,0,0,2.19-8.73S356.65,230,360.05,236.55Zm-2.28-.75a7.48,7.48,0,0,0-4.9-7.55S350.65,233.82,357.77,235.8ZM335.15,207a7.46,7.46,0,0,0,9,.84S341.12,202.6,335.15,207Zm.4-2.37a7.47,7.47,0,0,0,6.72-6S336.43,197.25,335.55,204.59Zm1.65-40.08a7.48,7.48,0,0,0,.87,9S342.61,169.55,337.2,164.51Zm2.4,0a7.48,7.48,0,0,0,7.15,5.46S347,163.93,339.6,164.46Zm8.4-15.14a7.46,7.46,0,0,0,5.39-7.2S347.4,142,348,149.32Zm-1.82,0a7.48,7.48,0,0,0-1.6-8.86S340.38,144.77,346.18,149.35Zm10.15,62s2.44-12.55-10.47-19C345.86,192.34,339.55,205.35,356.33,211.34Zm29.61.31s-4.09-12.12-18.49-11.35C367.45,200.3,368.38,214.72,385.94,211.65ZM362,210.39s6.15-8.72-1.47-18C360.53,192.36,351.28,200.09,362,210.39Zm-6.67-13.8s6.15-8.72-1.47-18C353.86,178.55,344.61,186.29,355.33,196.59Zm16.36-.93a9.25,9.25,0,0,0,2.7-10.8S367.48,187.54,371.69,195.66Zm-2.82-.93a9.25,9.25,0,0,0-6.06-9.34S360.06,192.28,368.87,194.73Zm41.69-89.37s-7.84-6.24-17,.4C393.57,105.76,400.32,114.85,410.56,105.36ZM421.49,84.9s-9.9-1.55-14.58,8.74C406.91,93.64,417.27,98.21,421.49,84.9ZM412,101.08a11.77,11.77,0,0,0-13.06-5.51S400.92,104.8,412,101.08Zm-12-.37a11.8,11.8,0,0,0-13.07-5.51S388.91,104.43,400,100.71ZM405.23,89a7.26,7.26,0,0,0-6.53-5.79S398.06,89,405.23,89Zm-1.67,1.63a7.25,7.25,0,0,0-8.68.83S398.67,95.87,403.56,90.64Zm-10,79.55a13.43,13.43,0,0,0-16.1-1.57S382.81,178,393.58,170.19Zm12.68-18.08a13.44,13.44,0,0,0-14.78,6.59S400.74,164.21,406.26,152.11Zm-10.87,14.2a11.22,11.22,0,0,0-11.72-6.71S384.53,168.55,395.39,166.31Zm-5-12.18a6.91,6.91,0,0,0-5.51-6.22S383.64,153.3,390.42,154.13Zm-1.77,1.34a6.9,6.9,0,0,0-8.3-.2S383.43,159.86,388.65,155.47Zm-79.73,100.4a8.55,8.55,0,0,0,2.5-10S305,248.38,308.92,255.87Zm-2.6-.86a8.54,8.54,0,0,0-5.6-8.62S298.19,252.75,306.32,255Zm-56.47-25.53s6.13-10.22-3.11-20C246.74,209.5,237.06,218.88,249.85,229.48ZM171,201.67a13.87,13.87,0,0,0-13.19-10.24S157.29,202.55,171,201.67Zm-3.48,3.65a13.87,13.87,0,0,0-16.69.54S157.52,214.73,167.5,205.32Zm-25.42,49.29a13.88,13.88,0,0,0-16.69.54S132.1,264,142.08,254.61Zm30.19-48.46a13.86,13.86,0,0,0-11,12.58S172.37,219.86,172.27,206.15ZM282.2,216.26s6.13-10.22-3.11-20C279.09,196.28,269.41,205.66,282.2,216.26Zm-14.11-7.72s10.43-5.77,7.32-18.85C275.41,189.69,262.34,193,268.09,208.54Zm-13.16,7.14s10.43-5.78,7.32-18.86C262.25,196.82,249.17,200.09,254.93,215.68Zm-11.21-10.17a13.57,13.57,0,0,0,12.92-10S246.22,192.32,243.72,205.51Zm-5.23-6.72s10.25-5.26,7.65-18C246.14,180.81,233.42,183.56,238.49,198.79Zm-6.06-3.63s11.44-1.36,13.42-14.2C245.85,181,233,179.12,232.43,195.16Zm-7.93-7.93s11.44-1.36,13.42-14.2C237.92,173,225,171.19,224.5,187.23Zm-7.55-1.5s8.11-8.19,1.66-19.46C218.61,166.27,207.39,172.85,217,185.73Zm-12.27-18.1a9.84,9.84,0,0,0,11.57-2.54S210.42,159.76,204.68,167.63ZM194.2,207.38s11,1.55,16-9.95C210.22,197.43,198.64,192.54,194.2,207.38Zm-5,6.19s7.51,8.19,18.69,2.51C207.85,216.08,202,204.94,189.16,213.57Zm-3-5.14a9.93,9.93,0,0,0,8.25-8.64S186.5,198.62,186.13,208.43Zm-17.89-44.78s-8.76-6.85-18.86.6C149.38,164.25,157,174.28,168.24,163.65Zm7.45-2.84s-2.4-10.85-14.93-11.52C160.76,149.29,160.23,161.85,175.69,160.81Zm.06,6a9.93,9.93,0,0,0-11.47,3.36S170.52,175.09,175.75,166.78Zm25.67,28.86s8.34-7.68,2.52-19.06C203.94,176.58,192.6,182.54,201.42,195.64Zm-19-51.38s8.33-7.67,2.51-19C184.89,125.21,173.55,131.16,182.38,144.26Zm47.91,76.52s6.27-11.7-4.54-22.06C225.75,198.72,215.5,209.68,230.29,220.78ZM66.83,204a13.73,13.73,0,0,0,11.31,12S80.34,205.27,66.83,204Zm64.06,71.21a9.06,9.06,0,0,0,3.48,10.34S138.65,279.69,130.89,275.22Zm1.86-1.18a12.22,12.22,0,0,0,14.05,4.34S143.75,269.06,132.75,274Zm-26,35.6a10.89,10.89,0,0,0,11,7.05S117.4,308,106.77,309.64Zm77-84.17a13.89,13.89,0,0,0-3.87,16.25S190.23,237.57,183.77,225.47Zm-8,11.38a11.07,11.07,0,0,0-3.09,13S180.92,246.51,175.77,236.85Zm-21.13-4.49a13.86,13.86,0,0,0-15.51,6.18S148.46,244.6,154.64,232.36Zm-13.91,0a11.08,11.08,0,0,0-12.39,4.94S135.8,242.14,140.73,232.36Zm36.41-14.83a13.87,13.87,0,0,0-15.58,6S170.83,229.7,177.14,217.53Zm.68,3.69s-12.71,3.83-12.39,18.8C165.43,240,180.43,239.53,177.82,221.22ZM269,169s-8.67-4.65-16.36,3.37C252.64,172.37,260.76,180,269,169Zm-22.17-11a11.1,11.1,0,0,0-13.07,2.68S240.25,166.75,246.83,158Zm26.57,1.65a13.88,13.88,0,0,0-12-11.58S259.69,159.06,273.4,159.64Zm-3.06,2.17s-8.84-9.89-22.27-3.28C248.07,158.53,254.85,171.92,270.34,161.81Zm108.48,62.94a13.88,13.88,0,0,0-16.67-1.08S368,233.15,378.82,224.75Zm-12.56-6a11.09,11.09,0,0,0-13.31-.87S357.6,225.49,366.26,218.78Zm-15.57,18.88a11.08,11.08,0,0,0-10.8-7.82S339.79,238.72,350.69,237.66Zm-21.22-38.29a8.38,8.38,0,0,0-8.17-5.92S321.22,200.17,329.47,199.37ZM382,218.28a13.89,13.89,0,0,0-15.32-6.72S369,222.48,382,218.28ZM362.89,85.66a14,14,0,0,0,2.78,16.62S373.64,94.37,362.89,85.66Zm28.75,7.61A14,14,0,0,0,381.24,80S378,90.76,391.64,93.27Zm-42.8,19.81s2.43-12.56-10.48-19C338.36,94.08,332.06,107.08,348.84,113.08Zm-9.49-.38s-4.09-12.13-18.49-11.36C320.86,101.34,321.79,115.77,339.35,112.7Zm16.3,2.88s6.15-8.72-1.47-18C354.18,97.54,344.94,105.28,355.65,115.58Zm21.62-11.74s6.14-8.72-1.47-18C375.8,85.8,366.55,93.54,377.27,103.84Zm-8.25,8a9.25,9.25,0,0,0,2.71-10.8S364.81,103.76,369,111.88ZM366.2,111a9.24,9.24,0,0,0-6.06-9.33S357.39,108.5,366.2,111Zm-15.26,7a11.09,11.09,0,0,0-13.31-.86S342.28,124.69,350.94,118Zm22.9,2.26a13.9,13.9,0,0,0-15.31-6.72S360.76,124.44,373.84,120.24Zm1.76,19.66s13.85-1.72,16.18-17.29C391.78,122.61,376.15,120.46,375.6,139.9Zm6.57-25.31s8,8.47,19.6,2.37C401.77,117,395.52,105.38,382.17,114.59Zm-.69-1.88a12.1,12.1,0,0,0,3.83-14S376.2,102,381.48,112.71Zm-7.8,15.47a9,9,0,0,0,6.23-8.81S372.72,119.37,373.68,128.18Zm44.95,6.09s-11.17-2.15-16.89,9.33C401.74,143.6,413.31,149.21,418.63,134.27Zm-15.95,2a12.82,12.82,0,0,0-13.5,7.45S398.43,148.21,402.68,136.28Zm17.58-13.85S415.71,112,403,113.79C403,113.79,404.94,126.5,420.26,122.43Zm-2.62,3.45s-13.16-7.88-25.71,4C391.93,129.91,404,142.35,417.64,125.88ZM312.42,164.13s0-11.38-12.36-14.82C300.06,149.31,296.75,161.74,312.42,164.13Zm-7.68-16.35a12.8,12.8,0,0,0-9.87-11.84S292.23,145.87,304.74,147.78Zm18.55,10.88s9.37-6.45,5.2-18.59C328.49,140.07,316.38,144.39,323.29,158.66Zm-5,.76s5.24-14.42-8.84-24.48C309.49,134.94,299.57,149.17,318.33,159.42Zm107.82,31.29s5.36,9.61,17.42,6.69C443.57,197.4,440.51,185.35,426.15,190.71Zm11.42,10.56a12.37,12.37,0,0,0,13.91,5.34S449,197,437.57,201.27Zm-20.46-.43s-4.87,9.86,4.37,18.15C421.48,219,429.68,209.63,417.11,200.84Zm3.44-4.16s2.37,14.64,19,16.5C439.55,213.18,441.22,196.49,420.55,196.68Zm26.58,77.7s-14.79-2.06-21.51,13.39C425.62,287.77,441.18,294.32,447.13,274.38Zm-1.48-34.54s-13.88,5.51-12.09,22.26C433.56,262.1,450.32,260.12,445.65,239.84Zm0,.09s-14.53-3.44-22.67,11.3C423,251.23,437.82,259.23,445.62,239.93Zm.05,27.9s-10.55-6.62-20.94,2.83C424.73,270.66,434.32,281,445.67,267.83Zm8.46-37.73s-9.48-5.95-18.82,2.55C435.31,232.65,443.94,241.91,454.13,230.1Zm5.8-12.61s-12.72-8-25.24,3.42C434.69,220.91,446.26,233.33,459.93,217.49Zm-29.95,59s-10.55-6.62-20.94,2.83C409,279.29,418.64,289.6,430,276.46ZM395.19,326s-3.66-11.9-17.7-11.53C377.49,314.45,378,328.52,395.19,326Zm13.88-20.55s12.38-1.37,14.64-15.24C423.71,290.19,409.79,288.08,409.07,305.43Zm-4.13-4.88s8.66-8.95,1.55-21.07C406.49,279.48,394.43,286.73,404.94,300.55Zm-5.58-.82s-.65-12.44-14.36-15.5C385,284.23,382.09,298,399.36,299.73Zm-2.24-17.28a10.79,10.79,0,0,0,1-13S390.66,274,397.12,282.45Zm-3.43-.5a10.8,10.8,0,0,0-8.84-9.54S383.06,280.89,393.69,282Zm34.2-24.5A10.79,10.79,0,0,0,415.13,255S418.68,262.86,427.89,257.45Zm-.91,3.34a10.8,10.8,0,0,0-10.51,7.65S424.67,271.22,427,260.79Zm5.46-32.87a10.81,10.81,0,0,0-12.76-2.49S423.23,233.34,432.44,227.92Zm-.91,3.35A10.8,10.8,0,0,0,421,238.92S429.22,241.69,431.53,231.27Zm-28.47,73.07s-13.33-7.06-25,5.28C378,309.62,390.52,321.22,403.06,304.34Zm-18.88-40s-13.33-7.06-25,5.28C359.14,269.63,371.64,281.23,384.18,264.35Zm-8.81,18.35s-8-12.79-24.31-8C351.06,274.72,356.06,291,375.37,282.7Zm9.9,16.15s-8-12.79-24.31-8C361,290.88,366,307.17,385.27,298.85Zm-12.08,14.86s-.22-12.2-13.53-15.66C359.66,298.05,356.34,311.43,373.19,313.71Zm19.91-72.32s-9.86,7.6-4.6,20.62C388.5,262,401.49,256.59,393.1,241.39Zm6.07,2s-2.76,12.15,9.61,18.82C408.78,262.23,415.32,249.76,399.17,243.41Zm3.14-2.14s5.95,8.73,17.23,4.91C419.54,246.18,415.58,234.92,402.31,241.27Zm-3.51-2.08s15.06-.88,18.65-17.51C417.45,221.68,400.75,218.26,398.8,239.19Zm56.33,25s10.29-6.7,6.13-19.91C461.26,244.26,448.07,248.58,455.13,264.17Zm0-.08s12.28.42,16.45-12.79C471.58,251.3,458.29,247.27,455.13,264.09Zm-4.56-22.48s9.58,3.62,16.42-5.69C467,235.92,457.59,229.17,450.57,241.61Zm-.71,31.79a13,13,0,0,0,14.77-5.11S456.17,262.22,449.86,273.4Zm-2.63,11.11s11.55,4.37,19.8-6.85C467,277.66,455.69,269.52,447.23,284.51Zm19.36-37.42a8.89,8.89,0,0,0,10.7-.06S473.14,241.23,466.59,247.09Zm.19-2.84a8.89,8.89,0,0,0,7.23-7.88S467,235.46,466.78,244.25ZM553,250.31a8.89,8.89,0,0,0,10.7-.07S559.52,244.45,553,250.31Zm.19-2.84a8.89,8.89,0,0,0,7.23-7.88S553.33,238.68,553.16,247.47ZM496.1,303.61a10.67,10.67,0,0,0,12.84-.08S504,296.57,496.1,303.61Zm.23-3.42a10.65,10.65,0,0,0,8.68-9.45S496.53,289.65,496.33,300.19Zm21.36,26.33a10.67,10.67,0,0,0,6.56,11S527.73,329.75,517.69,326.52Zm3.06-1.53a10.66,10.66,0,0,0,12.55,2.71S530,319.83,520.75,325Zm-53-53.35a8.89,8.89,0,0,0,10.7-.07S474.26,265.78,467.71,271.64Zm.19-2.85a8.88,8.88,0,0,0,7.24-7.87S468.07,260,467.9,268.79Zm-9.28-59.46s6.72-7.73.36-17.38C459,192,449.39,198.43,458.62,209.33ZM492,253.75s.25-10.25-10.81-13.62C481.22,240.13,478,251.25,492,253.75ZM489.84,256a12.24,12.24,0,0,0-14.69-1.16S480.17,263.26,489.84,256Zm3.17,1.11s-12,3.16-12.2,17.15C480.81,274.24,494.83,274.29,493,257.09Zm-14-88.63a13.89,13.89,0,0,0-8.75-14.23S465.88,164.47,479,168.46Zm-2.39-13.71a11.07,11.07,0,0,0-7-11.35S466.13,151.57,476.61,154.75Zm14.31,14.64a13.88,13.88,0,0,0,6.75-15.28S486.77,156.31,490.92,169.39Zm-4.71-2.13s6.28-11.7-4.53-22.06C481.68,145.2,471.42,156.16,486.21,167.26ZM235,147a11.89,11.89,0,0,0-4.42,13.59S239.64,157.78,235,147Zm65,77.26a13.89,13.89,0,0,0-16.09-4.5S287.6,230.25,300,224.27Zm-1.86,4.7a13.86,13.86,0,0,0-15.25,6.79S292.4,241.45,298.09,229Zm1.56,2.57a11.75,11.75,0,0,0-4.59,13.39S304.11,242.28,299.65,231.54Zm1.79-2.69s.06,11.92,13,15.46C314.48,244.31,317.87,231.27,301.44,228.85Zm28.4-3a13.87,13.87,0,0,0,9.94,13.41S343.26,228.73,329.84,225.89Zm4.35-2.58a13.86,13.86,0,0,0,16.21,4S346.34,216.94,334.19,223.31Zm.35-3a11.75,11.75,0,0,0,11.84-7.76S337.61,209.11,334.54,220.33ZM471.42,118.78a7.48,7.48,0,0,0,7.81,4.47S478.66,117.27,471.42,118.78Zm1.34-2a7.48,7.48,0,0,0,8.6-2.67S476.6,110.46,472.76,116.78Zm16.14,14.74s7.4-10.43-1.68-21.63C487.22,109.89,476.1,119.13,488.9,131.52ZM515.73,144s1.29-12.72-12.15-18C503.58,126.06,498.47,139.58,515.73,144Zm-21.28-11s9.2-5.4,6.12-17C500.57,116,489,119.19,494.45,133Zm14.91-9.41a9.25,9.25,0,0,0,6.93-8.71S508.88,114.46,509.36,123.59Zm-2.18-2a9.26,9.26,0,0,0-1.66-11S500.17,115.71,507.18,121.58Zm-12.32,20.81a11.07,11.07,0,0,0-11.76-6.28S484.2,144.92,494.86,142.39Zm14.56,6.07A13.89,13.89,0,0,0,498.26,136S495.78,146.88,509.42,148.46Zm-44.09-17.77a11.78,11.78,0,0,0,14-2.16S472.77,121.75,465.33,130.69ZM447.8,171.24a7.47,7.47,0,0,0,.85-9S443.45,165.26,447.8,171.24Zm-2.37-.4a7.49,7.49,0,0,0-6-6.73S438.09,170,445.43,170.84Zm15.74,1A11.76,11.76,0,0,0,453.43,160S450,168.79,461.17,171.87ZM331.48,221.35s7.26-9.46-.81-20.21C330.67,201.14,320,209.35,331.48,221.35Zm103.44-158a14,14,0,0,0,16.79,1.49S446.06,55.17,434.92,63.38Zm-9.67,1.45a14,14,0,0,0,14.62,8.37S438.8,62,425.25,64.83ZM439.63,86a7.48,7.48,0,0,0,9,.84S445.6,81.58,439.63,86Zm.39-2.37a7.48,7.48,0,0,0,6.72-6S440.9,76.23,440,83.58Zm20.79,6.75s2.43-12.56-10.47-19C450.34,71.33,444,84.33,460.81,90.33Zm29.6.31s-4.08-12.12-18.49-11.36C471.92,79.28,472.86,93.71,490.41,90.64Zm-23.93-1.26s6.14-8.72-1.47-18C465,71.34,455.76,79.08,466.48,89.38Zm-6.67-13.81s6.14-8.72-1.47-18C458.34,57.54,449.09,65.27,459.81,75.57Zm16.36-.92a9.25,9.25,0,0,0,2.7-10.8S472,66.53,476.17,74.65Zm-2.83-.93a9.23,9.23,0,0,0-6.06-9.34S464.53,71.27,473.34,73.72Zm30.84,30s-7.13-6.78-16.66-1.08C487.52,102.66,493.34,112.14,504.18,103.74Zm-33.45-6a11.09,11.09,0,0,0-13.31-.86S462.07,104.47,470.73,97.76ZM433.94,78.35a8.36,8.36,0,0,0-8.16-5.91S425.7,79.16,433.94,78.35Zm4.73,24a13.86,13.86,0,0,0,16.21,4S450.81,95.93,438.67,102.3Zm.34-3a11.77,11.77,0,0,0,11.85-7.75S442.08,88.1,439,99.31Zm-3.05,1s7.26-9.45-.82-20.2C435.14,80.13,424.46,88.34,436,100.33Zm3.62,247a10.8,10.8,0,0,0-12.33-4.11S429.76,351.56,439.58,347.37Zm-1.33,3.2a10.81,10.81,0,0,0-11.41,6.23S434.62,360.62,438.25,350.57Zm-41,1.33s-10.76,6.27-7.22,19.86C390,371.76,403.59,368.05,397.23,351.9Zm4.68,6s-4.3,11.69,7.1,19.9C409,377.81,417.11,366.29,401.91,357.91Zm6.08-1.18s4.77,9.42,16.45,7.09C424.44,363.82,422,352.14,408,356.73Zm-3.22-2.52s15.05,1.07,20.76-15C425.53,339.25,409.41,333.71,404.77,354.21Zm92.44-112.58s4-12.32-8.14-20.41C489.07,221.22,481.1,233.5,497.21,241.63Zm0,101.4s4-12.32-8.14-20.41C489.07,322.62,481.1,334.9,497.21,343ZM463.67,224.62a10.78,10.78,0,0,0,12.84,2S472.66,218.87,463.67,224.62Zm.78-3.37a10.8,10.8,0,0,0,10.22-8S466.37,210.74,464.45,221.25Zm73.43,12.6s9.58-8,3.84-20.78C541.72,213.07,528.94,219,537.88,233.85Zm-6.13-1.79s2.3-12.25-10.3-18.45C521.45,213.61,515.37,226.31,531.75,232.06Zm-3.06,2.25s-6.27-8.5-17.4-4.26C511.29,230.05,515.67,241.16,528.69,234.31Zm3.58,1.95s-15,1.44-18,18.19C514.28,254.45,531.1,257.25,532.27,236.26Zm-302.45,268c-11-.41-18.81,1.22-25.76,8.58a28.41,28.41,0,0,1-14.72,8.59s4.91,2.46,22.49-6.54,30.38,12.31,57.37,2.08,19.51-20.48,23.6-28.66,8.18-7,13.09-15.13,5.72-14.32,13.49-24.13.82-39.26-6.95-52.35,8.18-56.43,9.82-69.52,2.45-24.13-7.36-38S289.12,277.24,277.67,276s-19.22-6.13-24.54-9-6.95-26.58-11.45-31.89-9.4-5.32-26.58-5.73-25.35-2.86-31.49-13.5,10.38-16.32,11-29c.35-6.6-8.59-14.31-12.26-18.4s-.41-19.22-1.23-16.36-2,9-3.68,13.9,6.54,11.45,9,18-5.73,11.45-8.59,15.54-5.32,14.72,5.72,30.26,44.17,4.91,51.53,11.45,7.36,22.9,7.36,22.9-11-1.64-23.72-4.09S187.7,273.56,184,274.37s-18-11.86-26.17-14.31-17.18,4.91-24.13,5.73-13.9-5.32-16-10.23A86.64,86.64,0,0,0,108.36,240c-2-2.45-5.87-5.44-12.82-6.67s-15-6.41-15-6.41,9.52,9.15,19,13.6c7.57,3.54,11.84,16.13,17.56,26.76s15.76,4.21,26,3,10.63-4.5,21.26,1.63,13.91,7.36,13.91,7.36a22.84,22.84,0,0,1-2.87,5.73c-1.63,2-11.86,15.13-14.72,16.36s-9.4,8.17-9.4,11.86-6.55,6.54-11.87,6.13-7.76,4.09-8.58,8.18-9.82,6.54-9.82,6.54-3.27.41,1.64.82,11.86-3.68,12.27-8.59,10.22-1.23,16.36-4.09,4.9-6.54,9-6.54,9.46,10.86,10.17,16.08c.4,2.93-3.52,5.93-8,8.79s-1.74,9.07-1.74,9.07c-.09-6.56,7.36-7.77,11-10.22s5.32-11.86-1.23-19.22,3.69-16.36,6.55-22.49,25.35-22.09,31.9-25.36,24.53-.82,28.62.82,20.86,10.63,25.77,11.45,20.85.82,20.85.82-13.9,5.72-15.54,9-2.45,9-1.63,15.95S265.4,325.9,263.77,328s-11.45,2-15.95,8.18-.82,14.31-.82,14.31v-6.95c0-6.95,5.32-9,13.09-11.45s9-4.09,9.81-13.91,2.45-21.67,9.82-25.76,20-6.13,29.44,12.68-5.73,41.71-9.82,54.39,2.87,27.4,4.5,37.62,2.87,12.27-1.63,24.95-6.54,18-4.5,31.9-5.32,14.72-14.31,23.3S274,499.3,274,499.3C271.54,509.93,240.87,504.62,229.82,504.21Zm85.47-114.65c.66,6.25,4.93,9.87,10.19,23a67.2,67.2,0,0,1,4.27,26.63l4.28-8.55c4.27-8.54-1.65-28.59-4.94-42.73s-3.1-21.52,2.31-35.5c7.55-19.53-5.26-42.73-5.26-42.73s.53,13.34.2,23.2-5.46,19.86-5.46,19.86C313.32,371.48,314.63,383.32,315.29,389.56ZM455.65,529.27c8.22,4.6,40.43-1.64,26.3-2.63l-2-.12c-12.77-.65-19,1.2-31.22-10.07-12.82-11.83-33.53-12.82-58.51-15.78s-33.53-17.09-30.9-29.25-9.86-28.6-7.89-39.45-2.63-19.06-5.59-25.64-4.27-20.38-3.94-36.16,9.53-33.86,10.19-45-3.29-15.78-9.21-37.8,13.48-27.62,21.37-28.93,22-14.14,27.28-17.42,14.79-25.32,16.77-28.93,3.61-21.37,1-30.24,13.48,3.94,14.47,3.61,14.46,3.95,23.34,6.25,18.07-2.63,28.59-8.88,13.81-4.27,13.81-4.27,1.64,1.64-.66-1.31-10.19-2.31-18.41,2-17.75,7.56-23.33,4.93-19.4-7.56-20.71-7.56-12.82-5.59-4.61-13.48,10.85-28.6,10.85-28.6,2.3-7.56,7.89-10.85,14.14,1.32,21.7,1,5.59-7.23,6.57-10.52,2-4.6,7.56-6.24,7.23-7.56,7.23-7.56c-1,3.28-10.52,4.6-15.12,5.91s-2.3,7.89-7.23,10.85-13.48-1-19.72-.66S428,121.66,428,121.66s-3.62-7.23-7.89-11.5,4.93-5.92,6.25-9.54-2-7.88-2-7.88c3.62,3.61-3,9.2-8.87,12.82s-1.32,8.87,5.59,14.46,1.64,21.37,1.64,29.25-13.48,10.85-18.08,15.78-9.86,9.86-6.9,21.37-5.26,27.94-14.79,40.76S367.23,241,352.76,243.62s-13.47,3.94-19.72,3.28-9.86-30.57-15.12-52.26,17.42-28.27,21.37-30.24,8.21-4,10.84,1.64S357,175.9,362,177.54s8.87,6.58,8.55,4.93.32-7.56-7.24-8.87-6.9-9.86-10.85-15.12-11.5,1.31-14.13.66-.33-4.28,2.63-15.45-1.64-15.13-1.64-15.13.33,16.11-4.28,26.3-12.16,8.22-23.34,16.77-6.9,15.12-3.94,24.65,2,16.11-5.92,14.14-13.48-23-16.1-30.9-6.25-24-6.25-24-1.64-6.57-.66-11.83,6.58-6.25,7.89-13.15-2-9.21-2-9.21c2.3,4,2,9.21-4.93,14.14s-5.59,13.8-5.59,13.8,0-4.93-10.19-13.14-25.31-7.24-30.9-8.55-2.63-9.53-2.63-9.53c-5.59,10.51-3.94,15.44,16.44,17.42s23.34,16.43,26.62,25.64a38.92,38.92,0,0,1,2,17.42c-11.84,1.31-14.8,12.49-17.43,12.82s-7.23-9.53-8.87-15.78-17.1-7.56-26-9.53-9.2-8.88-9.2-8.88c-4.93,2.63-2,9.53,6.57,12.16s12.16,3.62,22,8.22,4.28,10.85,11.84,17.09,16.1-7.88,21.36-9.86,6.25,10.85,10.2,25,17.75,11.5,25,17.42,12.82,35.5,14.79,52.92,12.82,44,13.48,54.24-8.55,34.18-9.54,41.42,10.19,37.47,10.85,44.7-3.94,16.11-4.27,24.33,6.24,14.13,8.87,24-2.3,15.12.33,26.3S361,519.4,383,512.5s46.67,8.55,46.67,8.55C439.21,527,447.43,524.67,455.65,529.27ZM345.86,383c-1.32,12.49,4.27,23,10.85,35.83s-1,18.41,1.31,23.34,5.59,14.79,5.59,28.6,2,18.73,17.09,24.32,34.85-2,57.53-1,32.21,11.5,39.45,15.77,34.51,0,43.71-2,29.3-2.62,29.3-2.62,8.51,1.31,1.28-1-35.51,3-53.59,3-22.35-3-35.17-12.5-31.23-4.6-47.33-5.58-16.77-3.29-27.61-5.92-18.08-33.2-18.41-44.05-4.6-19.72-7.23-32.21,11.83-30.9,14.79-42.74,7.23-4.6,21.36-17.09,18.08-5.92,34.52-10.85S449.41,326.45,456,314s25.64-9.53,25.64-9.53,1,4.6.66,6.57,2,4.27,3.61,10.19,13.48,2.3,21,0,10.19,4.93,10.19,4.93a18,18,0,0,0-4.27-9.53c-4-4.6-7.56-.66-17.1,0s-2.62-4.27-4.27-7.56-2.63-11.84-1.31-15.78,11.5-9.2,17.09-13.15,18.74-9.86,24.33-12.49,10.84-9.2,14.13-16.76,8.88-10.52,6.57-10.19-10.19,2.3-12.16,9.2-9.86,13.15-18.08,15.45-9.86,3.94-9.86,3.94a31.88,31.88,0,0,0-7.56-8.54c-5.26-4.28-6.25-2.3-3.62-5.26s-.32-10.52-.32-10.52-2.63,8.87-4.94,11.83,10.2,10.52,11.18,13.81,3.62,4.27-11.83,8.87-12.82,12.5-20.38,14.47-11.84,1.31-21.7,5.59-16.76,22-27.94,27.28-34.19,7.56-46,9.53S355.85,364,355.85,364s-.69-3,1.61-12.88,1.55-27,1.55-27a69,69,0,0,1-8.55,23c-6.52,11-4.6,35.83-4.6,35.83M305.58,506.45c5.46-1.74,10.48.22,12.89,3.06s2.4,7.43,2.4,7.43c3.94-7.43-4.15-17.92-6.55-22.72s3.49-18.14,5-21.64.44-5.9.44-9,8.09-19,8.09-19a31.76,31.76,0,0,1-4.81,6.78c-3.5,3.93-7.43,8.3-7.43,14.2s-8.53,14.86-12.89,18.14-8.31,7.65-8.09,12.67-3.93,14.21-3.93,14.21C294.87,509.08,300.11,508.2,305.58,506.45Zm24.25-58.56s-5.24,9.39-5.68,13.55.87,11.58-2.4,18.13-4.15,10.28-1.31,15.3,4.37,12.89,4.37,12.89,10.92-1.74,17.92.44,9.61,2.19,9.61,2.19-9.83-3.72-10.93-9,.66-17.92.44-23.17-3.93-18.79-5.46-20.1S332.67,451.39,329.83,447.89Z"
         id="path4" />
    </clipPath>
  </defs>
  <path
     class="cls-2"
     d="M601,545.5v66H518.61v-66H601m1-1H517.61v68H602v-68Z"
     transform="translate(58 -14.5)"
     id="path11" />
  <path
     class="cls-1"
     d="M554,463.35l1.5,6.89.3,0,1.21-1.54c.28.64,1,1.32.38,2.33a1.14,1.14,0,0,0,0,.63c.08.4.19.8.35,1.44l.53-1.33.4.18.93,2.37.16-.59c.13.05.23.06.28.12.25.32.48.66.73,1a6.87,6.87,0,0,0,4,2.37c1.35.38,2.78.52,4.17.77.12,0,.31,0,.36.09a1.38,1.38,0,0,0,1.12.68c.44,0,.84.63,1.32,0a.36.36,0,0,1,.35,0c.87.61,1.16,0,1.43-.62l1.37.43.41-2.46c.48.69.81.64,1.06-.2a19.08,19.08,0,0,1,.71-1.83l.72,1.35a3.73,3.73,0,0,0,1.18-2.83c0-.88.06-.88,1-.78-.39-.66-.57-1.22.11-1.86.26-.24,0-.93.18-1.37.32-1.07.21-2.23,1-3.23.35-.43,0-1.41,0-2.13-.07-1.6-.12-3.19-.22-4.78-.05-.91-.21-1.82-.27-2.73,0-.59,0-1.19,0-1.79l.41-.07c.4,1,.81,1.94,1.2,2.91,1.27,3.18,2.71,6.3,3.77,9.54,2.06,6.27,5,12.16,7.57,18.2,1,2.27,1.62,4.68,2.44,7,.2.58,0,.92-.46,1.31a3.86,3.86,0,0,0-1.2,1.55c-.45,1.61-2,2.13-2.92,3.3-.12.15-.52.06-.71.19-.36.25-.85.54-.92.88a1.21,1.21,0,0,0,.64,1,3,3,0,0,0,1.74.09,16.19,16.19,0,0,0,2.53-1.11c1.56-.76,3.09-1.6,4.69-2.27a2.14,2.14,0,0,1,1.62.13c1.18.61,1.49.55,2.19-.52a1,1,0,0,1,1-.15,2.92,2.92,0,0,0,3.19.39c.52-.25,1.3.06,2,0a3.81,3.81,0,0,0,1-.32c-.21-.27-.38-.64-.66-.8a13.27,13.27,0,0,1-4.17-3.12,5,5,0,0,0-1.53-1.27,2.9,2.9,0,0,1-1.58-2.31c-.6-3.73-1.34-7.45-1.92-11.18a34.59,34.59,0,0,0-2.76-9.58c-1.13-2.41-1.91-5-2.88-7.46-.52-1.33-1.12-2.63-1.63-4a2,2,0,0,1-.15-1.26,4.43,4.43,0,0,0-.56-3.73c-.9-1.71-1.76-3.45-2.56-5.21a4.52,4.52,0,0,1-.21-1.69,10.71,10.71,0,0,0-1.8-5.93,3.53,3.53,0,0,1-.56-1.4,35.68,35.68,0,0,0-2.6-8.65,12.14,12.14,0,0,1-.92-4.06c-.09-2.91-.15-5.86-1.36-8.61a18.86,18.86,0,0,1-1.11-2.53,19.74,19.74,0,0,1-1-4.62,45.38,45.38,0,0,0-4.09-18.2,1,1,0,0,1,.26-1.43,41.9,41.9,0,0,1,4.21-2.72,6.61,6.61,0,0,0,2.82-2.46c.3-.49.61-1,.95-1.43a2,2,0,0,1,.74-.72c1.71-.7,3.42-1.38,5.16-2a2,2,0,0,0,1.33-2.34,1,1,0,0,1,.45-.83c1.48-.93,3-1.76,4.48-2.71a3,3,0,0,0,1.76-2.75c0-.2.34-.49.58-.64.68-.42,1.38-.79,2.07-1.18a3,3,0,0,0,1.53-3.55c-.22-1-.57-2-.79-2.94a1.11,1.11,0,0,1,.18-.89,95.77,95.77,0,0,0,15.93-17.54c1.14-1.66,2.92-2.56,4.36-3.86.45-.41,1.41-.29,2.15-.34a28.87,28.87,0,0,1,4.81-.27,51.25,51.25,0,0,1,6,1.1,5.57,5.57,0,0,0,4.07-.42,1.51,1.51,0,0,1,.18-.09c2.42-1,2.89-1.83,2.55-4.43a8.34,8.34,0,0,0-7.65-7,36.31,36.31,0,0,1-10-1.88c-3.94-1.35-3.72-.89-6.14,2.23a16.85,16.85,0,0,0-1.71,2.62c-.54,1-.93,2.12-1.37,3.2a6.73,6.73,0,0,1-2.15,3.29c-2.86,2-5.69,4-8.6,5.84a44.82,44.82,0,0,0-10.13,9.05c-.3.36-.88.46-1.33.69a10.56,10.56,0,0,0-2.21,1.17,17.86,17.86,0,0,1-3.27,2.24,19.26,19.26,0,0,0-4.17,3,26.17,26.17,0,0,1-8.36,5.36,21.1,21.1,0,0,0-5.3,3.13,63,63,0,0,1-6.08,3.88c-2.87,1.89-5.72,3.8-8.52,5.78a5.42,5.42,0,0,1-3.5,1c-2.6-.09-5.2-.27-7.81-.33a48.6,48.6,0,0,0-13.8,1.56,23.64,23.64,0,0,1-7.43.91c-1.1-.05-2.21.32-3.31.29a26.45,26.45,0,0,1-3.85-.47,33.07,33.07,0,0,0-6.53-.5c-1.75,0-3.44.36-5.16.47a4.57,4.57,0,0,1-1.94-.26,41.93,41.93,0,0,0-14-2.52c-4.55-.1-9.1,0-13.65-.11a6.53,6.53,0,0,1-2-.68c-.32-.12-.64-.28-.95-.43a2.17,2.17,0,0,1-.55-.33c-.68-.68-1.35-1.37-2-2.06-.39-.41-.72-.88-1.14-1.25a12.94,12.94,0,0,0-2.93-2.34,3.75,3.75,0,0,0-2.5.44c-2,.81-3.81,1.9-5.8,2.61a19.89,19.89,0,0,1-4,.6,16.68,16.68,0,0,0-7.14,2.49,7.48,7.48,0,0,0-3.22,4.14c-1,3.38.47,5.18,4,6.4,3.39,1.17,6.42-.15,9.5-1.29,1-.36,2.09-.48,3.06-.89a16.19,16.19,0,0,1,4.18-.7,15,15,0,0,1,5.3.23c1.69.36,3.5.2,5.17.63,3,.79,6,2,9,2.76,4.15,1.06,8.34,2,12.54,2.79a49.87,49.87,0,0,0,6.36.49c1.4.09,1.5.16,1.6,1.53.07,1,.2,2,.25,3a1.68,1.68,0,0,0,1.59,1.72c1.77.32,3.54.84,5.37.32a1.13,1.13,0,0,1,.75,0c2.06,1,4.27.91,6.46.86.63,0,1.06.12,1.19.79s.51.67,1,.63a34.23,34.23,0,0,0,3.51-.38,7,7,0,0,1,3.64.31,33.07,33.07,0,0,0,13.31,1.83,1.28,1.28,0,0,1,.92.53c.66.92,1.23,1.91,1.88,2.84s1.23,1.62,1.84,2.43c1.4,1.9,1.21,4,.79,6.13-.33,1.72-.77,3.42-1,5.15a14.76,14.76,0,0,0,0,4.25,11.76,11.76,0,0,1-.18,4.23c-.75,4-1.54,7.92-2.17,11.9a22,22,0,0,0,.11,3.71c0,1-.06,2,0,3,0,1.64-.26,3.37.19,4.89.73,2.49.34,4.82-.09,7.23-.28,1.56-.75,3.13-.11,4.79.23.61-.19,1.47-.26,2.23a53.94,53.94,0,0,0-.48,6.07,20.92,20.92,0,0,1-.8,6c-1,3.55-.65,7.2-.48,10.82.13,2.79.38,5.58.52,8.37a23.68,23.68,0,0,1-.09,3.15,1.44,1.44,0,0,1-.46.85c-.7.69-1.45,1.33-2.18,2a3.33,3.33,0,0,1-2.51.95c-.46,0-1.15-.28-1.22.49s.6,1,1.18.94c2.43-.06,4.85-.19,7.27-.25.74,0,1.49.17,2.23.23a17.84,17.84,0,0,0,3.17.17c2.27-.23,4.53-.59,6.77-1a2.75,2.75,0,0,0,1.59-.8,1,1,0,0,0-.89-1.61c-2.4.1-4.57-.94-6.85-1.36a.84.84,0,0,1-.71-1.06c.8-5.62,1-11.34,2.49-16.85A59.44,59.44,0,0,0,552,471.5a35.94,35.94,0,0,1,.81-5.36A16.39,16.39,0,0,1,554,463.35Zm22.24-15.64-.1.11c-.76-.52-1.53-1-2.28-1.57a2.55,2.55,0,0,1-.41-.5c.25,0,.6-.17.73-.06C574.87,446.33,575.53,447,576.21,447.71Zm-19.73,19.87-.29.08-.25-1.79.39-.05Z"
     transform="translate(58 -14.5)"
     id="path13" />
  <path
     class="cls-1"
     d="M303.1,304.17c-14.58.69-18.65-11.61-18.65-11.61C302.23,289.55,303.1,304.17,303.1,304.17Zm-14.15.54s-.64,12.94,13.21,17.56C302.16,322.27,306.63,308.33,289,304.71Zm-13.68,13.68s-.64,12.94,13.2,17.56C288.47,336,292.94,322,275.27,318.39Zm-4.57,7.07s-6.4,11.27,3.89,21.63C274.59,347.09,284.85,336.65,270.7,325.46Zm8.4-28.86s-6,11.48,4.65,21.48C283.75,318.08,293.64,307.28,279.1,296.6Zm172.34,29s4.07,12.3,18.66,11.61C470.1,337.17,469.23,322.55,451.44,325.56ZM456,337.7s-.65,12.94,13.2,17.57C469.15,355.27,473.62,341.32,456,337.7Zm88.58-81.62s4.07,12.3,18.65,11.61C563.18,267.69,562.32,253.07,544.53,256.08Zm4.5,12.14s-.64,12.94,13.21,17.57C562.24,285.79,566.71,271.84,549,268.22Zm-83.91,43.66s4.07,12.3,18.66,11.61C483.78,323.49,482.91,308.87,465.12,311.88ZM469.63,324S469,337,482.83,341.58C482.83,341.58,487.3,327.64,469.63,324ZM446.1,329.6s-6,11.48,4.64,21.47C450.74,351.07,460.64,340.28,446.1,329.6Zm82.6-61.18s4.07,12.3,18.66,11.61C547.36,280,546.49,265.41,528.7,268.42Zm4.51,12.14s-.64,12.94,13.2,17.57C546.41,298.13,550.88,284.18,533.21,280.56Zm-9.85-8.1s-6,11.48,4.64,21.47C528,293.93,537.9,283.14,523.36,272.46Zm-8.93,8.93s-7.6,14.53,5.88,27.19C520.31,308.58,532.84,294.91,514.43,281.39Zm-41.26-97.88s4.07,12.3,18.66,11.61C491.83,195.12,491,180.5,473.17,183.51Zm4.5,12.15s-.64,12.94,13.21,17.56C490.88,213.22,495.35,199.28,477.67,195.66Zm-9.84-8.11s-6,11.48,4.64,21.48C472.47,209,482.37,198.23,467.83,187.55Zm-24.68-60.87s6,11.49,20.26,8.5C463.41,135.18,460.24,120.88,443.15,126.68ZM449.53,138s1.42,12.88,15.82,15.25C465.35,153.2,467.55,138.72,449.53,138Zm-11-6.44s-4.1,12.29,8,20.47C446.51,152,454.57,139.75,438.52,131.51Zm-117.3,49.22a14,14,0,0,0,16.19-4.67S328.63,169.05,321.22,180.73Zm9.23,3.66a14,14,0,0,0,16.78,1.5S341.58,176.18,330.45,184.39Zm-9.67,1.45a14,14,0,0,0,14.61,8.38S334.32,183,320.78,185.84Zm9.57-50a14,14,0,0,0-13-10.74S316.53,136.26,330.35,135.8Zm-2.17-9.68A14,14,0,0,0,320,111.41S315.12,121.55,328.18,126.12Zm6.64,7.17a14,14,0,0,0-1.31-16.79S324.88,123.68,334.82,133.29ZM347,126.41a14,14,0,0,0,16.19-4.67S354.39,114.73,347,126.41Zm9.23,3.66A14,14,0,0,0,373,131.56S367.33,121.86,356.2,130.07Zm-9.67,1.45a14,14,0,0,0,14.61,8.38S360.08,128.72,346.53,131.52Zm12.53,25.26a14,14,0,0,0,11.44-12.37S359.37,143,359.06,156.78Zm9.79-3.24A14,14,0,0,0,384,146.13S374.13,140.75,368.85,153.54Zm-7.52,7.85a14,14,0,0,0,16.84-.4S371.47,152,361.33,161.39Zm29.94,36.89a12.44,12.44,0,0,0-12.85-7.65S379.21,200.57,391.27,198.28ZM387.64,189a14,14,0,0,0-10.4-13.27S374,186.5,387.64,189Zm7.66,6.06a14,14,0,0,0-3.88-16.39S384,187.1,395.3,195.07ZM250.9,135.18a14,14,0,0,0,2,16.73S261.24,144.36,250.9,135.18Zm-18.21-5.5A14,14,0,0,0,228.54,146S239,142,232.69,129.68Zm.06.2a14,14,0,0,0-15.87,5.66S226.07,142,232.75,129.88Zm-47.84,30.39a14,14,0,0,0,7.42-15.13S181.25,146.92,184.91,160.27Zm8.41-6.85a14,14,0,0,0,13-10.75S195.45,139.75,193.32,153.42Zm-13.88-1.27a14,14,0,0,0-11.3-12.5S165.7,150.61,179.44,152.15Zm5.44,7.91a14,14,0,0,0,16.69-2.27S193.92,149.59,184.88,160.06Zm-.95,21.47a14,14,0,0,0-15,7.74S178.94,194.43,183.93,181.53Zm-10.84.5a14,14,0,0,0-16.82.93S163.26,191.75,173.09,182Zm10.73-.33s-3.63-9.23-14.77-8.1C169.05,173.6,170.33,184.76,183.82,181.7Zm5.31-17a14,14,0,0,0,13.14,10.55S203,164.06,189.13,164.72Zm26.58-15.34a14,14,0,0,0,13.13,10.55S229.53,148.72,215.71,149.38Zm30.21-15.45A14,14,0,0,0,235.32,147S246.52,147.75,245.92,133.93Zm6.62,203.19s-.39,12.95,13.55,17.29C266.09,354.41,270.28,340.38,252.54,337.12ZM246.89,348s-9.13,9.19-1.92,21.88C245,369.89,257.62,362.51,246.89,348Zm-5.06-1.82s-12.93-.84-17.77,12.93C224.06,359.12,237.94,363.81,241.83,346.19Zm3-5.11s-8.18-10.05-21.56-4.22C223.28,336.86,229.29,350.22,244.84,341.08Zm3.42-14.49s-8.18-10-21.56-4.21C226.7,322.38,232.71,335.73,248.26,326.59Zm11.93-9.2A13.7,13.7,0,0,0,244,314.24S248.52,324.25,260.19,317.39Zm5.05-4.85s-1.82-13.37-16.88-15.45C248.36,297.09,246.45,312.22,265.24,312.54Zm-.5-10.07s4.38-12.77-8.16-21.38C256.58,281.09,248.1,293.75,264.74,302.47Zm-18.31-10.72s3.35-9.79-6.26-16.4C240.17,275.35,233.66,285.07,246.43,291.75Zm-1.19,13.62A14.59,14.59,0,0,0,239,289S232.47,298.68,245.24,305.37Zm-14.8-8.24s9.33-8.51,2.92-21.21C233.36,275.92,220.7,282.49,230.44,297.13Zm-18.06-13.6s12.45,2.1,18.51-10.76C230.89,272.77,217.91,266.84,212.38,283.53Zm-15-3.93s-6.74,10.68,2.81,21.23C200.17,300.83,210.63,291.13,197.36,279.6Zm-15.78,13s-.83,12.59,12.59,17.31C194.17,309.89,198.74,296.37,181.58,292.58Zm-9.94,15.54s6.68,10.71,20.33,6.72C192,314.84,187.81,301.19,171.64,308.12Zm6.09,16.82s9.3,8.54,21.38,1C199.11,326,191.45,314,177.73,324.94Zm-.31,6.08s2,12.46,16.17,14C193.59,345.05,195,330.86,177.42,331Zm-3.52,5.07s-5.56,9.72,3.32,18.71C177.22,354.8,186.12,345.79,173.9,336.09Zm-12,10.28s-5.56,9.73,3.32,18.71C165.2,365.08,174.1,356.08,161.88,346.37Zm-4.69,8.11a11.65,11.65,0,0,0-6,12.68S160.39,365.55,157.19,354.48Zm2.72-11.75s-11.21.14-14.45,12.35C145.46,355.08,157.74,358.19,159.91,342.73Zm6.55-12.4s-3-10.79-15.64-10.79C150.82,319.54,151,332.2,166.46,330.33Zm-13.38,8.41s6.2-9.33-2.06-18.89C151,319.85,141.53,328.23,153.08,338.74Zm-22.8,11.78s6.2-9.33-2.06-18.89C128.22,331.63,118.73,340,130.28,350.52Zm-16.07-.74s10.14-4.79,8-17.24C122.22,332.54,109.76,334.82,114.21,349.78Zm-13-10.88s11.07,1.72,16.29-9.78C117.49,329.12,105.9,324,101.2,338.9Zm6.36-19.17s5.59,9.72,17.83,6.6C125.39,326.33,122.12,314.09,107.56,319.73Zm14.8-14.08s-5.19,9.93,4,18.57C126.38,324.22,134.94,314.89,122.36,305.65Zm22.85-10.49s-9,6.75-4.32,18.51C140.89,313.67,152.62,308.9,145.21,295.16ZM167,269.91s-8.95,6.75-4.32,18.51C162.72,288.42,174.45,283.65,167,269.91ZM162,268s-11.14,1.24-13.17,13.7C148.83,281.7,161.35,283.59,162,268Zm-32,6.43s-11.14,1.25-13.17,13.71C116.84,288.14,129.36,290,130,274.43Zm-.52.27s-10.39-4.21-18.1,5.79C111.39,280.49,121.51,288.11,129.49,274.7Zm-12-7.95s-10.39-4.21-18.1,5.79C99.42,272.54,109.53,280.16,117.52,266.75Zm-8.59-16.64a13.63,13.63,0,0,0-11.19,12S108.56,263.58,108.93,250.11Zm-1.3-2s-9.52-8.09-21.18-.21C86.45,247.86,94.48,259.47,107.63,248.07ZM91.34,234s-12.43-1.23-17.52,11.9C73.82,245.85,87,250.81,91.34,234Zm15.07-26s-11.49,4.89-9.66,18.85C96.75,226.78,110.72,224.79,106.41,207.93Zm-26.28,0s-.46,12.49,13,16.76C93.09,224.68,97.22,211.19,80.13,207.92Zm-13.6,21.93s9,8.64,21.14,1.46C87.67,231.31,80.33,219.25,66.53,229.85Zm-3.18-10.44a13.73,13.73,0,0,0,16.47,1.34S74.21,211.28,63.35,219.41Zm41.53,10.23a13.73,13.73,0,0,0,12.82-10.42S107.1,216.25,104.88,229.64Zm11.06,11.06a13.73,13.73,0,0,0,12.82-10.42S118.16,227.32,115.94,240.7Zm4.31,6.06s10.1,6.11,19.79-3C140,243.76,130.8,234.14,120.25,246.76ZM151.08,253s10.53-5.33,7.93-18.38C159,234.63,146,237.38,151.08,253Zm37.75,11.43s-3.25-11.35-16.56-11.25C172.27,253.19,172.52,266.53,188.83,264.44ZM151.1,252.93s11.68,1.68,17-10.51C168.14,242.42,155.86,237.2,151.1,252.93Zm62.21-.62s-8.43-8.26-19.95-1.6C193.36,250.71,200.16,262.18,213.31,252.31Zm-.08,0s-2.17-11.6-15.42-12.76C197.81,239.56,196.8,252.86,213.23,252.32Zm-20.13,9s1.4-9.74-8.76-14.22C184.34,247.07,180,257.3,193.1,261.29Zm30-6s1.41-9.74-8.75-14.22C214.32,241.07,210,251.3,223.07,255.29Zm48.57,10.22S273.89,253.92,262,248C262,248,256.16,260,271.64,265.51Zm27.32.28s-3.77-11.18-17.06-10.47C281.9,255.32,282.76,268.63,299,265.79Zm-.07,0s3.33-11.32-8-18.36C290.92,247.4,284,258.8,298.89,265.76Zm-22-1.13s5.66-8-1.36-16.64C275.52,248,267,255.13,276.88,264.63Zm29.41,8.27a12.48,12.48,0,0,0-1.22-15S297.4,264.35,306.29,272.9ZM316,278s6.83-9.7-1.63-20.06C314.36,257.94,304.08,266.55,316,278Zm-45.27-26.1a13.89,13.89,0,0,0-1.35-16.65S260.83,242.39,270.72,251.9ZM241.24,120.41S245,109.22,234,101.76C234,101.76,226.61,112.89,241.24,120.41Zm27,3.87S266,112.7,252.74,111.65C252.74,111.65,251.85,125,268.28,124.28Zm-.07,0S273,113.45,262.73,105C262.73,105,254.36,115.38,268.21,124.24Zm-21.67-4a13.89,13.89,0,0,0,.84-16.68S238,109.5,246.54,120.23Zm28.1,12a13.87,13.87,0,0,0,.84-16.67S266.08,121.54,274.64,132.26ZM223.07,222s1.41-9.74-8.75-14.22C214.32,207.75,210,218,223.07,222Zm-2.38-13.7a11.09,11.09,0,0,0-7-11.36S210.21,205.09,220.69,208.27Zm12.42,14.09s9.54-2.39,9.84-13.49C243,208.87,231.83,208.7,233.11,222.36Zm15.63,11.81a13.88,13.88,0,0,0,11.41,12.2S262.4,235.47,248.74,234.17Zm4-3a13.88,13.88,0,0,0,16.57,2.11S264.11,223.41,252.76,231.12Zm.89-4.37a13.87,13.87,0,0,0,12.83-10.68S255.73,213.2,253.65,226.75Zm13.72-1a8.52,8.52,0,0,0,10.19,1.3S274.35,221,267.37,225.71Zm.55-2.68a8.54,8.54,0,0,0,7.89-6.58S269.2,214.69,267.92,223Zm17.89,28a8.55,8.55,0,0,0,2.5-10S281.93,243.55,285.81,251Zm-2.6-.86a8.53,8.53,0,0,0-5.59-8.61S275.08,247.92,283.21,250.18Zm7.12-66.31a10.8,10.8,0,0,0,7.25-10.8S288.91,173.28,290.33,183.87Zm8,15.87a10.82,10.82,0,0,0,1-13S291.83,191.22,298.29,199.74Zm0-.05a10.81,10.81,0,0,0,8.24-10.07S297.88,189,298.29,199.69Zm-5.9-13.06a9,9,0,0,0,9.21-5.74S294.94,178.09,292.39,186.63Zm7.14-15.39a9,9,0,0,0,9.21-5.74S302.07,162.69,299.53,171.24Zm60.52,65.31a7.47,7.47,0,0,0,2.19-8.73S356.65,230,360.05,236.55Zm-2.28-.75a7.48,7.48,0,0,0-4.9-7.55S350.65,233.82,357.77,235.8ZM335.15,207a7.46,7.46,0,0,0,9,.84S341.12,202.6,335.15,207Zm.4-2.37a7.47,7.47,0,0,0,6.72-6S336.43,197.25,335.55,204.59Zm1.65-40.08a7.48,7.48,0,0,0,.87,9S342.61,169.55,337.2,164.51Zm2.4,0a7.48,7.48,0,0,0,7.15,5.46S347,163.93,339.6,164.46Zm8.4-15.14a7.46,7.46,0,0,0,5.39-7.2S347.4,142,348,149.32Zm-1.82,0a7.48,7.48,0,0,0-1.6-8.86S340.38,144.77,346.18,149.35Zm10.15,62s2.44-12.55-10.47-19C345.86,192.34,339.55,205.35,356.33,211.34Zm29.61.31s-4.09-12.12-18.49-11.35C367.45,200.3,368.38,214.72,385.94,211.65ZM362,210.39s6.15-8.72-1.47-18C360.53,192.36,351.28,200.09,362,210.39Zm-6.67-13.8s6.15-8.72-1.47-18C353.86,178.55,344.61,186.29,355.33,196.59Zm16.36-.93a9.25,9.25,0,0,0,2.7-10.8S367.48,187.54,371.69,195.66Zm-2.82-.93a9.25,9.25,0,0,0-6.06-9.34S360.06,192.28,368.87,194.73Zm41.69-89.37s-7.84-6.24-17,.4C393.57,105.76,400.32,114.85,410.56,105.36ZM421.49,84.9s-9.9-1.55-14.58,8.74C406.91,93.64,417.27,98.21,421.49,84.9ZM412,101.08a11.77,11.77,0,0,0-13.06-5.51S400.92,104.8,412,101.08Zm-12-.37a11.8,11.8,0,0,0-13.07-5.51S388.91,104.43,400,100.71ZM405.23,89a7.26,7.26,0,0,0-6.53-5.79S398.06,89,405.23,89Zm-1.67,1.63a7.25,7.25,0,0,0-8.68.83S398.67,95.87,403.56,90.64Zm-10,79.55a13.43,13.43,0,0,0-16.1-1.57S382.81,178,393.58,170.19Zm12.68-18.08a13.44,13.44,0,0,0-14.78,6.59S400.74,164.21,406.26,152.11Zm-10.87,14.2a11.22,11.22,0,0,0-11.72-6.71S384.53,168.55,395.39,166.31Zm-5-12.18a6.91,6.91,0,0,0-5.51-6.22S383.64,153.3,390.42,154.13Zm-1.77,1.34a6.9,6.9,0,0,0-8.3-.2S383.43,159.86,388.65,155.47Zm-79.73,100.4a8.55,8.55,0,0,0,2.5-10S305,248.38,308.92,255.87Zm-2.6-.86a8.54,8.54,0,0,0-5.6-8.62S298.19,252.75,306.32,255Zm-56.47-25.53s6.13-10.22-3.11-20C246.74,209.5,237.06,218.88,249.85,229.48ZM171,201.67a13.87,13.87,0,0,0-13.19-10.24S157.29,202.55,171,201.67Zm-3.48,3.65a13.87,13.87,0,0,0-16.69.54S157.52,214.73,167.5,205.32Zm-25.42,49.29a13.88,13.88,0,0,0-16.69.54S132.1,264,142.08,254.61Zm30.19-48.46a13.86,13.86,0,0,0-11,12.58S172.37,219.86,172.27,206.15ZM282.2,216.26s6.13-10.22-3.11-20C279.09,196.28,269.41,205.66,282.2,216.26Zm-14.11-7.72s10.43-5.77,7.32-18.85C275.41,189.69,262.34,193,268.09,208.54Zm-13.16,7.14s10.43-5.78,7.32-18.86C262.25,196.82,249.17,200.09,254.93,215.68Zm-11.21-10.17a13.57,13.57,0,0,0,12.92-10S246.22,192.32,243.72,205.51Zm-5.23-6.72s10.25-5.26,7.65-18C246.14,180.81,233.42,183.56,238.49,198.79Zm-6.06-3.63s11.44-1.36,13.42-14.2C245.85,181,233,179.12,232.43,195.16Zm-7.93-7.93s11.44-1.36,13.42-14.2C237.92,173,225,171.19,224.5,187.23Zm-7.55-1.5s8.11-8.19,1.66-19.46C218.61,166.27,207.39,172.85,217,185.73Zm-12.27-18.1a9.84,9.84,0,0,0,11.57-2.54S210.42,159.76,204.68,167.63ZM194.2,207.38s11,1.55,16-9.95C210.22,197.43,198.64,192.54,194.2,207.38Zm-5,6.19s7.51,8.19,18.69,2.51C207.85,216.08,202,204.94,189.16,213.57Zm-3-5.14a9.93,9.93,0,0,0,8.25-8.64S186.5,198.62,186.13,208.43Zm-17.89-44.78s-8.76-6.85-18.86.6C149.38,164.25,157,174.28,168.24,163.65Zm7.45-2.84s-2.4-10.85-14.93-11.52C160.76,149.29,160.23,161.85,175.69,160.81Zm.06,6a9.93,9.93,0,0,0-11.47,3.36S170.52,175.09,175.75,166.78Zm25.67,28.86s8.34-7.68,2.52-19.06C203.94,176.58,192.6,182.54,201.42,195.64Zm-19-51.38s8.33-7.67,2.51-19C184.89,125.21,173.55,131.16,182.38,144.26Zm47.91,76.52s6.27-11.7-4.54-22.06C225.75,198.72,215.5,209.68,230.29,220.78ZM66.83,204a13.73,13.73,0,0,0,11.31,12S80.34,205.27,66.83,204Zm64.06,71.21a9.06,9.06,0,0,0,3.48,10.34S138.65,279.69,130.89,275.22Zm1.86-1.18a12.22,12.22,0,0,0,14.05,4.34S143.75,269.06,132.75,274Zm-26,35.6a10.89,10.89,0,0,0,11,7.05S117.4,308,106.77,309.64Zm77-84.17a13.89,13.89,0,0,0-3.87,16.25S190.23,237.57,183.77,225.47Zm-8,11.38a11.07,11.07,0,0,0-3.09,13S180.92,246.51,175.77,236.85Zm-21.13-4.49a13.86,13.86,0,0,0-15.51,6.18S148.46,244.6,154.64,232.36Zm-13.91,0a11.08,11.08,0,0,0-12.39,4.94S135.8,242.14,140.73,232.36Zm36.41-14.83a13.87,13.87,0,0,0-15.58,6S170.83,229.7,177.14,217.53Zm.68,3.69s-12.71,3.83-12.39,18.8C165.43,240,180.43,239.53,177.82,221.22ZM269,169s-8.67-4.65-16.36,3.37C252.64,172.37,260.76,180,269,169Zm-22.17-11a11.1,11.1,0,0,0-13.07,2.68S240.25,166.75,246.83,158Zm26.57,1.65a13.88,13.88,0,0,0-12-11.58S259.69,159.06,273.4,159.64Zm-3.06,2.17s-8.84-9.89-22.27-3.28C248.07,158.53,254.85,171.92,270.34,161.81Zm108.48,62.94a13.88,13.88,0,0,0-16.67-1.08S368,233.15,378.82,224.75Zm-12.56-6a11.09,11.09,0,0,0-13.31-.87S357.6,225.49,366.26,218.78Zm-15.57,18.88a11.08,11.08,0,0,0-10.8-7.82S339.79,238.72,350.69,237.66Zm-21.22-38.29a8.38,8.38,0,0,0-8.17-5.92S321.22,200.17,329.47,199.37ZM382,218.28a13.89,13.89,0,0,0-15.32-6.72S369,222.48,382,218.28ZM362.89,85.66a14,14,0,0,0,2.78,16.62S373.64,94.37,362.89,85.66Zm28.75,7.61A14,14,0,0,0,381.24,80S378,90.76,391.64,93.27Zm-42.8,19.81s2.43-12.56-10.48-19C338.36,94.08,332.06,107.08,348.84,113.08Zm-9.49-.38s-4.09-12.13-18.49-11.36C320.86,101.34,321.79,115.77,339.35,112.7Zm16.3,2.88s6.15-8.72-1.47-18C354.18,97.54,344.94,105.28,355.65,115.58Zm21.62-11.74s6.14-8.72-1.47-18C375.8,85.8,366.55,93.54,377.27,103.84Zm-8.25,8a9.25,9.25,0,0,0,2.71-10.8S364.81,103.76,369,111.88ZM366.2,111a9.24,9.24,0,0,0-6.06-9.33S357.39,108.5,366.2,111Zm-15.26,7a11.09,11.09,0,0,0-13.31-.86S342.28,124.69,350.94,118Zm22.9,2.26a13.9,13.9,0,0,0-15.31-6.72S360.76,124.44,373.84,120.24Zm1.76,19.66s13.85-1.72,16.18-17.29C391.78,122.61,376.15,120.46,375.6,139.9Zm6.57-25.31s8,8.47,19.6,2.37C401.77,117,395.52,105.38,382.17,114.59Zm-.69-1.88a12.1,12.1,0,0,0,3.83-14S376.2,102,381.48,112.71Zm-7.8,15.47a9,9,0,0,0,6.23-8.81S372.72,119.37,373.68,128.18Zm44.95,6.09s-11.17-2.15-16.89,9.33C401.74,143.6,413.31,149.21,418.63,134.27Zm-15.95,2a12.82,12.82,0,0,0-13.5,7.45S398.43,148.21,402.68,136.28Zm17.58-13.85S415.71,112,403,113.79C403,113.79,404.94,126.5,420.26,122.43Zm-2.62,3.45s-13.16-7.88-25.71,4C391.93,129.91,404,142.35,417.64,125.88ZM312.42,164.13s0-11.38-12.36-14.82C300.06,149.31,296.75,161.74,312.42,164.13Zm-7.68-16.35a12.8,12.8,0,0,0-9.87-11.84S292.23,145.87,304.74,147.78Zm18.55,10.88s9.37-6.45,5.2-18.59C328.49,140.07,316.38,144.39,323.29,158.66Zm-5,.76s5.24-14.42-8.84-24.48C309.49,134.94,299.57,149.17,318.33,159.42Zm107.82,31.29s5.36,9.61,17.42,6.69C443.57,197.4,440.51,185.35,426.15,190.71Zm11.42,10.56a12.37,12.37,0,0,0,13.91,5.34S449,197,437.57,201.27Zm-20.46-.43s-4.87,9.86,4.37,18.15C421.48,219,429.68,209.63,417.11,200.84Zm3.44-4.16s2.37,14.64,19,16.5C439.55,213.18,441.22,196.49,420.55,196.68Zm26.58,77.7s-14.79-2.06-21.51,13.39C425.62,287.77,441.18,294.32,447.13,274.38Zm-1.48-34.54s-13.88,5.51-12.09,22.26C433.56,262.1,450.32,260.12,445.65,239.84Zm0,.09s-14.53-3.44-22.67,11.3C423,251.23,437.82,259.23,445.62,239.93Zm.05,27.9s-10.55-6.62-20.94,2.83C424.73,270.66,434.32,281,445.67,267.83Zm8.46-37.73s-9.48-5.95-18.82,2.55C435.31,232.65,443.94,241.91,454.13,230.1Zm5.8-12.61s-12.72-8-25.24,3.42C434.69,220.91,446.26,233.33,459.93,217.49Zm-29.95,59s-10.55-6.62-20.94,2.83C409,279.29,418.64,289.6,430,276.46ZM395.19,326s-3.66-11.9-17.7-11.53C377.49,314.45,378,328.52,395.19,326Zm13.88-20.55s12.38-1.37,14.64-15.24C423.71,290.19,409.79,288.08,409.07,305.43Zm-4.13-4.88s8.66-8.95,1.55-21.07C406.49,279.48,394.43,286.73,404.94,300.55Zm-5.58-.82s-.65-12.44-14.36-15.5C385,284.23,382.09,298,399.36,299.73Zm-2.24-17.28a10.79,10.79,0,0,0,1-13S390.66,274,397.12,282.45Zm-3.43-.5a10.8,10.8,0,0,0-8.84-9.54S383.06,280.89,393.69,282Zm34.2-24.5A10.79,10.79,0,0,0,415.13,255S418.68,262.86,427.89,257.45Zm-.91,3.34a10.8,10.8,0,0,0-10.51,7.65S424.67,271.22,427,260.79Zm5.46-32.87a10.81,10.81,0,0,0-12.76-2.49S423.23,233.34,432.44,227.92Zm-.91,3.35A10.8,10.8,0,0,0,421,238.92S429.22,241.69,431.53,231.27Zm-28.47,73.07s-13.33-7.06-25,5.28C378,309.62,390.52,321.22,403.06,304.34Zm-18.88-40s-13.33-7.06-25,5.28C359.14,269.63,371.64,281.23,384.18,264.35Zm-8.81,18.35s-8-12.79-24.31-8C351.06,274.72,356.06,291,375.37,282.7Zm9.9,16.15s-8-12.79-24.31-8C361,290.88,366,307.17,385.27,298.85Zm-12.08,14.86s-.22-12.2-13.53-15.66C359.66,298.05,356.34,311.43,373.19,313.71Zm19.91-72.32s-9.86,7.6-4.6,20.62C388.5,262,401.49,256.59,393.1,241.39Zm6.07,2s-2.76,12.15,9.61,18.82C408.78,262.23,415.32,249.76,399.17,243.41Zm3.14-2.14s5.95,8.73,17.23,4.91C419.54,246.18,415.58,234.92,402.31,241.27Zm-3.51-2.08s15.06-.88,18.65-17.51C417.45,221.68,400.75,218.26,398.8,239.19Zm56.33,25s10.29-6.7,6.13-19.91C461.26,244.26,448.07,248.58,455.13,264.17Zm0-.08s12.28.42,16.45-12.79C471.58,251.3,458.29,247.27,455.13,264.09Zm-4.56-22.48s9.58,3.62,16.42-5.69C467,235.92,457.59,229.17,450.57,241.61Zm-.71,31.79a13,13,0,0,0,14.77-5.11S456.17,262.22,449.86,273.4Zm-2.63,11.11s11.55,4.37,19.8-6.85C467,277.66,455.69,269.52,447.23,284.51Zm19.36-37.42a8.89,8.89,0,0,0,10.7-.06S473.14,241.23,466.59,247.09Zm.19-2.84a8.89,8.89,0,0,0,7.23-7.88S467,235.46,466.78,244.25ZM553,250.31a8.89,8.89,0,0,0,10.7-.07S559.52,244.45,553,250.31Zm.19-2.84a8.89,8.89,0,0,0,7.23-7.88S553.33,238.68,553.16,247.47ZM496.1,303.61a10.67,10.67,0,0,0,12.84-.08S504,296.57,496.1,303.61Zm.23-3.42a10.65,10.65,0,0,0,8.68-9.45S496.53,289.65,496.33,300.19Zm21.36,26.33a10.67,10.67,0,0,0,6.56,11S527.73,329.75,517.69,326.52Zm3.06-1.53a10.66,10.66,0,0,0,12.55,2.71S530,319.83,520.75,325Zm-53-53.35a8.89,8.89,0,0,0,10.7-.07S474.26,265.78,467.71,271.64Zm.19-2.85a8.88,8.88,0,0,0,7.24-7.87S468.07,260,467.9,268.79Zm-9.28-59.46s6.72-7.73.36-17.38C459,192,449.39,198.43,458.62,209.33ZM492,253.75s.25-10.25-10.81-13.62C481.22,240.13,478,251.25,492,253.75ZM489.84,256a12.24,12.24,0,0,0-14.69-1.16S480.17,263.26,489.84,256Zm3.17,1.11s-12,3.16-12.2,17.15C480.81,274.24,494.83,274.29,493,257.09Zm-14-88.63a13.89,13.89,0,0,0-8.75-14.23S465.88,164.47,479,168.46Zm-2.39-13.71a11.07,11.07,0,0,0-7-11.35S466.13,151.57,476.61,154.75Zm14.31,14.64a13.88,13.88,0,0,0,6.75-15.28S486.77,156.31,490.92,169.39Zm-4.71-2.13s6.28-11.7-4.53-22.06C481.68,145.2,471.42,156.16,486.21,167.26ZM235,147a11.89,11.89,0,0,0-4.42,13.59S239.64,157.78,235,147Zm65,77.26a13.89,13.89,0,0,0-16.09-4.5S287.6,230.25,300,224.27Zm-1.86,4.7a13.86,13.86,0,0,0-15.25,6.79S292.4,241.45,298.09,229Zm1.56,2.57a11.75,11.75,0,0,0-4.59,13.39S304.11,242.28,299.65,231.54Zm1.79-2.69s.06,11.92,13,15.46C314.48,244.31,317.87,231.27,301.44,228.85Zm28.4-3a13.87,13.87,0,0,0,9.94,13.41S343.26,228.73,329.84,225.89Zm4.35-2.58a13.86,13.86,0,0,0,16.21,4S346.34,216.94,334.19,223.31Zm.35-3a11.75,11.75,0,0,0,11.84-7.76S337.61,209.11,334.54,220.33ZM471.42,118.78a7.48,7.48,0,0,0,7.81,4.47S478.66,117.27,471.42,118.78Zm1.34-2a7.48,7.48,0,0,0,8.6-2.67S476.6,110.46,472.76,116.78Zm16.14,14.74s7.4-10.43-1.68-21.63C487.22,109.89,476.1,119.13,488.9,131.52ZM515.73,144s1.29-12.72-12.15-18C503.58,126.06,498.47,139.58,515.73,144Zm-21.28-11s9.2-5.4,6.12-17C500.57,116,489,119.19,494.45,133Zm14.91-9.41a9.25,9.25,0,0,0,6.93-8.71S508.88,114.46,509.36,123.59Zm-2.18-2a9.26,9.26,0,0,0-1.66-11S500.17,115.71,507.18,121.58Zm-12.32,20.81a11.07,11.07,0,0,0-11.76-6.28S484.2,144.92,494.86,142.39Zm14.56,6.07A13.89,13.89,0,0,0,498.26,136S495.78,146.88,509.42,148.46Zm-44.09-17.77a11.78,11.78,0,0,0,14-2.16S472.77,121.75,465.33,130.69ZM447.8,171.24a7.47,7.47,0,0,0,.85-9S443.45,165.26,447.8,171.24Zm-2.37-.4a7.49,7.49,0,0,0-6-6.73S438.09,170,445.43,170.84Zm15.74,1A11.76,11.76,0,0,0,453.43,160S450,168.79,461.17,171.87ZM331.48,221.35s7.26-9.46-.81-20.21C330.67,201.14,320,209.35,331.48,221.35Zm103.44-158a14,14,0,0,0,16.79,1.49S446.06,55.17,434.92,63.38Zm-9.67,1.45a14,14,0,0,0,14.62,8.37S438.8,62,425.25,64.83ZM439.63,86a7.48,7.48,0,0,0,9,.84S445.6,81.58,439.63,86Zm.39-2.37a7.48,7.48,0,0,0,6.72-6S440.9,76.23,440,83.58Zm20.79,6.75s2.43-12.56-10.47-19C450.34,71.33,444,84.33,460.81,90.33Zm29.6.31s-4.08-12.12-18.49-11.36C471.92,79.28,472.86,93.71,490.41,90.64Zm-23.93-1.26s6.14-8.72-1.47-18C465,71.34,455.76,79.08,466.48,89.38Zm-6.67-13.81s6.14-8.72-1.47-18C458.34,57.54,449.09,65.27,459.81,75.57Zm16.36-.92a9.25,9.25,0,0,0,2.7-10.8S472,66.53,476.17,74.65Zm-2.83-.93a9.23,9.23,0,0,0-6.06-9.34S464.53,71.27,473.34,73.72Zm30.84,30s-7.13-6.78-16.66-1.08C487.52,102.66,493.34,112.14,504.18,103.74Zm-33.45-6a11.09,11.09,0,0,0-13.31-.86S462.07,104.47,470.73,97.76ZM433.94,78.35a8.36,8.36,0,0,0-8.16-5.91S425.7,79.16,433.94,78.35Zm4.73,24a13.86,13.86,0,0,0,16.21,4S450.81,95.93,438.67,102.3Zm.34-3a11.77,11.77,0,0,0,11.85-7.75S442.08,88.1,439,99.31Zm-3.05,1s7.26-9.45-.82-20.2C435.14,80.13,424.46,88.34,436,100.33Zm3.62,247a10.8,10.8,0,0,0-12.33-4.11S429.76,351.56,439.58,347.37Zm-1.33,3.2a10.81,10.81,0,0,0-11.41,6.23S434.62,360.62,438.25,350.57Zm-41,1.33s-10.76,6.27-7.22,19.86C390,371.76,403.59,368.05,397.23,351.9Zm4.68,6s-4.3,11.69,7.1,19.9C409,377.81,417.11,366.29,401.91,357.91Zm6.08-1.18s4.77,9.42,16.45,7.09C424.44,363.82,422,352.14,408,356.73Zm-3.22-2.52s15.05,1.07,20.76-15C425.53,339.25,409.41,333.71,404.77,354.21Zm92.44-112.58s4-12.32-8.14-20.41C489.07,221.22,481.1,233.5,497.21,241.63Zm0,101.4s4-12.32-8.14-20.41C489.07,322.62,481.1,334.9,497.21,343ZM463.67,224.62a10.78,10.78,0,0,0,12.84,2S472.66,218.87,463.67,224.62Zm.78-3.37a10.8,10.8,0,0,0,10.22-8S466.37,210.74,464.45,221.25Zm73.43,12.6s9.58-8,3.84-20.78C541.72,213.07,528.94,219,537.88,233.85Zm-6.13-1.79s2.3-12.25-10.3-18.45C521.45,213.61,515.37,226.31,531.75,232.06Zm-3.06,2.25s-6.27-8.5-17.4-4.26C511.29,230.05,515.67,241.16,528.69,234.31Zm3.58,1.95s-15,1.44-18,18.19C514.28,254.45,531.1,257.25,532.27,236.26Zm-302.45,268c-11-.41-18.81,1.22-25.76,8.58a28.41,28.41,0,0,1-14.72,8.59s4.91,2.46,22.49-6.54,30.38,12.31,57.37,2.08,19.51-20.48,23.6-28.66,8.18-7,13.09-15.13,5.72-14.32,13.49-24.13.82-39.26-6.95-52.35,8.18-56.43,9.82-69.52,2.45-24.13-7.36-38S289.12,277.24,277.67,276s-19.22-6.13-24.54-9-6.95-26.58-11.45-31.89-9.4-5.32-26.58-5.73-25.35-2.86-31.49-13.5,10.38-16.32,11-29c.35-6.6-8.59-14.31-12.26-18.4s-.41-19.22-1.23-16.36-2,9-3.68,13.9,6.54,11.45,9,18-5.73,11.45-8.59,15.54-5.32,14.72,5.72,30.26,44.17,4.91,51.53,11.45,7.36,22.9,7.36,22.9-11-1.64-23.72-4.09S187.7,273.56,184,274.37s-18-11.86-26.17-14.31-17.18,4.91-24.13,5.73-13.9-5.32-16-10.23A86.64,86.64,0,0,0,108.36,240c-2-2.45-5.87-5.44-12.82-6.67s-15-6.41-15-6.41,9.52,9.15,19,13.6c7.57,3.54,11.84,16.13,17.56,26.76s15.76,4.21,26,3,10.63-4.5,21.26,1.63,13.91,7.36,13.91,7.36a22.84,22.84,0,0,1-2.87,5.73c-1.63,2-11.86,15.13-14.72,16.36s-9.4,8.17-9.4,11.86-6.55,6.54-11.87,6.13-7.76,4.09-8.58,8.18-9.82,6.54-9.82,6.54-3.27.41,1.64.82,11.86-3.68,12.27-8.59,10.22-1.23,16.36-4.09,4.9-6.54,9-6.54,9.46,10.86,10.17,16.08c.4,2.93-3.52,5.93-8,8.79s-1.74,9.07-1.74,9.07c-.09-6.56,7.36-7.77,11-10.22s5.32-11.86-1.23-19.22,3.69-16.36,6.55-22.49,25.35-22.09,31.9-25.36,24.53-.82,28.62.82,20.86,10.63,25.77,11.45,20.85.82,20.85.82-13.9,5.72-15.54,9-2.45,9-1.63,15.95S265.4,325.9,263.77,328s-11.45,2-15.95,8.18-.82,14.31-.82,14.31v-6.95c0-6.95,5.32-9,13.09-11.45s9-4.09,9.81-13.91,2.45-21.67,9.82-25.76,20-6.13,29.44,12.68-5.73,41.71-9.82,54.39,2.87,27.4,4.5,37.62,2.87,12.27-1.63,24.95-6.54,18-4.5,31.9-5.32,14.72-14.31,23.3S274,499.3,274,499.3C271.54,509.93,240.87,504.62,229.82,504.21Zm85.47-114.65c.66,6.25,4.93,9.87,10.19,23a67.2,67.2,0,0,1,4.27,26.63l4.28-8.55c4.27-8.54-1.65-28.59-4.94-42.73s-3.1-21.52,2.31-35.5c7.55-19.53-5.26-42.73-5.26-42.73s.53,13.34.2,23.2-5.46,19.86-5.46,19.86C313.32,371.48,314.63,383.32,315.29,389.56ZM455.65,529.27c8.22,4.6,40.43-1.64,26.3-2.63l-2-.12c-12.77-.65-19,1.2-31.22-10.07-12.82-11.83-33.53-12.82-58.51-15.78s-33.53-17.09-30.9-29.25-9.86-28.6-7.89-39.45-2.63-19.06-5.59-25.64-4.27-20.38-3.94-36.16,9.53-33.86,10.19-45-3.29-15.78-9.21-37.8,13.48-27.62,21.37-28.93,22-14.14,27.28-17.42,14.79-25.32,16.77-28.93,3.61-21.37,1-30.24,13.48,3.94,14.47,3.61,14.46,3.95,23.34,6.25,18.07-2.63,28.59-8.88,13.81-4.27,13.81-4.27,1.64,1.64-.66-1.31-10.19-2.31-18.41,2-17.75,7.56-23.33,4.93-19.4-7.56-20.71-7.56-12.82-5.59-4.61-13.48,10.85-28.6,10.85-28.6,2.3-7.56,7.89-10.85,14.14,1.32,21.7,1,5.59-7.23,6.57-10.52,2-4.6,7.56-6.24,7.23-7.56,7.23-7.56c-1,3.28-10.52,4.6-15.12,5.91s-2.3,7.89-7.23,10.85-13.48-1-19.72-.66S428,121.66,428,121.66s-3.62-7.23-7.89-11.5,4.93-5.92,6.25-9.54-2-7.88-2-7.88c3.62,3.61-3,9.2-8.87,12.82s-1.32,8.87,5.59,14.46,1.64,21.37,1.64,29.25-13.48,10.85-18.08,15.78-9.86,9.86-6.9,21.37-5.26,27.94-14.79,40.76S367.23,241,352.76,243.62s-13.47,3.94-19.72,3.28-9.86-30.57-15.12-52.26,17.42-28.27,21.37-30.24,8.21-4,10.84,1.64S357,175.9,362,177.54s8.87,6.58,8.55,4.93.32-7.56-7.24-8.87-6.9-9.86-10.85-15.12-11.5,1.31-14.13.66-.33-4.28,2.63-15.45-1.64-15.13-1.64-15.13.33,16.11-4.28,26.3-12.16,8.22-23.34,16.77-6.9,15.12-3.94,24.65,2,16.11-5.92,14.14-13.48-23-16.1-30.9-6.25-24-6.25-24-1.64-6.57-.66-11.83,6.58-6.25,7.89-13.15-2-9.21-2-9.21c2.3,4,2,9.21-4.93,14.14s-5.59,13.8-5.59,13.8,0-4.93-10.19-13.14-25.31-7.24-30.9-8.55-2.63-9.53-2.63-9.53c-5.59,10.51-3.94,15.44,16.44,17.42s23.34,16.43,26.62,25.64a38.92,38.92,0,0,1,2,17.42c-11.84,1.31-14.8,12.49-17.43,12.82s-7.23-9.53-8.87-15.78-17.1-7.56-26-9.53-9.2-8.88-9.2-8.88c-4.93,2.63-2,9.53,6.57,12.16s12.16,3.62,22,8.22,4.28,10.85,11.84,17.09,16.1-7.88,21.36-9.86,6.25,10.85,10.2,25,17.75,11.5,25,17.42,12.82,35.5,14.79,52.92,12.82,44,13.48,54.24-8.55,34.18-9.54,41.42,10.19,37.47,10.85,44.7-3.94,16.11-4.27,24.33,6.24,14.13,8.87,24-2.3,15.12.33,26.3S361,519.4,383,512.5s46.67,8.55,46.67,8.55C439.21,527,447.43,524.67,455.65,529.27ZM345.86,383c-1.32,12.49,4.27,23,10.85,35.83s-1,18.41,1.31,23.34,5.59,14.79,5.59,28.6,2,18.73,17.09,24.32,34.85-2,57.53-1,32.21,11.5,39.45,15.77,34.51,0,43.71-2,29.3-2.62,29.3-2.62,8.51,1.31,1.28-1-35.51,3-53.59,3-22.35-3-35.17-12.5-31.23-4.6-47.33-5.58-16.77-3.29-27.61-5.92-18.08-33.2-18.41-44.05-4.6-19.72-7.23-32.21,11.83-30.9,14.79-42.74,7.23-4.6,21.36-17.09,18.08-5.92,34.52-10.85S449.41,326.45,456,314s25.64-9.53,25.64-9.53,1,4.6.66,6.57,2,4.27,3.61,10.19,13.48,2.3,21,0,10.19,4.93,10.19,4.93a18,18,0,0,0-4.27-9.53c-4-4.6-7.56-.66-17.1,0s-2.62-4.27-4.27-7.56-2.63-11.84-1.31-15.78,11.5-9.2,17.09-13.15,18.74-9.86,24.33-12.49,10.84-9.2,14.13-16.76,8.88-10.52,6.57-10.19-10.19,2.3-12.16,9.2-9.86,13.15-18.08,15.45-9.86,3.94-9.86,3.94a31.88,31.88,0,0,0-7.56-8.54c-5.26-4.28-6.25-2.3-3.62-5.26s-.32-10.52-.32-10.52-2.63,8.87-4.94,11.83,10.2,10.52,11.18,13.81,3.62,4.27-11.83,8.87-12.82,12.5-20.38,14.47-11.84,1.31-21.7,5.59-16.76,22-27.94,27.28-34.19,7.56-46,9.53S355.85,364,355.85,364s-.69-3,1.61-12.88,1.55-27,1.55-27a69,69,0,0,1-8.55,23c-6.52,11-4.6,35.83-4.6,35.83M305.58,506.45c5.46-1.74,10.48.22,12.89,3.06s2.4,7.43,2.4,7.43c3.94-7.43-4.15-17.92-6.55-22.72s3.49-18.14,5-21.64.44-5.9.44-9,8.09-19,8.09-19a31.76,31.76,0,0,1-4.81,6.78c-3.5,3.93-7.43,8.3-7.43,14.2s-8.53,14.86-12.89,18.14-8.31,7.65-8.09,12.67-3.93,14.21-3.93,14.21C294.87,509.08,300.11,508.2,305.58,506.45Zm24.25-58.56s-5.24,9.39-5.68,13.55.87,11.58-2.4,18.13-4.15,10.28-1.31,15.3,4.37,12.89,4.37,12.89,10.92-1.74,17.92.44,9.61,2.19,9.61,2.19-9.83-3.72-10.93-9,.66-17.92.44-23.17-3.93-18.79-5.46-20.1S332.67,451.39,329.83,447.89Z"
     transform="translate(58 -14.5)"
     id="path15" />
  <g
     class="cls-3"
     clip-path="url(#clip-path)"
     id="g27">
    <rect
       class="cls-1"
       y="424"
       width="778"
       height="113"
       id="rect17" />
    <rect
       class="cls-1"
       y="318"
       width="778"
       height="113"
       id="rect19" />
    <rect
       class="cls-1"
       y="212"
       width="778"
       height="113"
       id="rect21" />
    <rect
       class="cls-1"
       y="106"
       width="778"
       height="113"
       id="rect23" />
    <rect
       class="cls-1"
       width="778"
       height="113"
       id="rect25" />
  </g>
</svg>
