<?xml version="1.0" encoding="UTF-8"?><svg id="a" xmlns="http://www.w3.org/2000/svg" viewBox="0 0 815.21 785.03"><defs><style>.b{fill:none;stroke:#d96664;stroke-miterlimit:10;stroke-width:12px;}.c{fill:#e9aeb6;}.d{fill:#d96664;}</style></defs><circle class="c" cx="433.45" cy="403.26" r="381.76"/><circle class="b" cx="387.76" cy="387.76" r="381.76"/><g><path class="d" d="M174.26,346.11c1.98,49.2,4.19,101.91,5.27,150.81,.17,7.01,.29,14,.39,20.99l-5.66-5.66c34.1-.53,74.74-.82,108.84-.84l-6.5,6.5c.02-42.14,.37-86.65,1.16-128.85,.26-14.32,.59-28.63,.97-42.95l4.37,4.37c-30.69-1-77.72-2.95-108.84-4.37h0Zm0,0c35.15-1.6,73.61-3.42,108.84-4.37l4.25-.13c.64,22.25,1.08,46.56,1.45,68.93,.58,37.27,.79,76.69,.82,113.89-16.6,.01-44.28-.13-60.94-.23-16.31-.19-43.88-.42-60.15-.7l.08-5.58c.78-56.45,3.25-115.39,5.66-171.8h0Z"/><path class="d" d="M283.1,360.51c11.66-.45,27.25-1.03,38.68-1.36l-1.3,.96c7.01-22.5,20.22-44.12,40.98-56.37,11.85-6.69,25.98-9.24,39.44-7.42,5.31,.51,10.69,1.98,15.81,3.44l-.9-.2c.62,.07,.99,.13,1.47,.2,10.66,1.59,21.89,8.59,23.37,20.22,.54,3.97,.1,7.83-.8,11.34l.16-1.58,1.21,16.07-5.12-4.81c11.53-.16,34.75-.49,46.28-.54l46.28-.4h.49l.56,.09c13.21,2.11,24.14,13.9,24.19,27.59,.28,13.8-10.88,25.84-24.2,27.9l-.16-12.69c13.26,1.76,26.54,10.5,29.38,24.41,2.36,11.75-5.05,23.28-14.37,29.57-5.4,3.74-12.16,5.73-18.55,6.15-4.39,.24-8.38,.01-12.75-.97l2.29-12.67c20.83,2.3,38.45,22.71,33.96,44.01-3.92,18.53-24.77,29.28-42.52,26.14l3.56-11.11c2.93,1.52,5.88,3.26,8.69,5.43,7.01,5.09,12.74,14.15,7.14,23.07-6.15,9.33-17.02,13.25-26.7,16.13-6.41,1.76-12.88,2.82-19.36,3.47h-.22l-28.01-.41c-17.67-.24-67.77-1.13-83.39-1.67-5.6,.95-11.01,.75-16.49-.43-16.65-3.38-28.54-18.09-29.17-34.9l1.45,1.35c-10.25-.35-31.12-1.01-41.38-1.45,10.38-.45,31.02-1.11,41.38-1.45l1.29-.04c.45,5.35,1.98,10.68,4.64,15.29,5.92,10.69,17.89,16.86,29.97,16.35,2.48-.06,4.99-.34,7.26-.89h.39c19.84-.39,64.87-1.41,84.04-1.61l28.01-.4-.58,.03c5.85-.77,11.64-1.91,17.17-3.61,7-2.28,17.4-6.05,20.41-12.56,.93-4.29-8.39-9.4-11.92-11.17l-32.87-16.37,36.43,5.25c9.84,1.45,20.45-2.62,25.94-10.84,5.38-8.18,2.9-18.74-3.58-25.94-4.38-4.96-10.6-7.96-17.16-8.87l2.29-12.67c6.96,1.46,15.1,.74,21.02-3.36,4.39-3.08,8.31-7.77,9.07-12.99,.91-9.86-9.73-16.4-18.53-17.54l-42.12-6.19,41.96-6.5c7.34-1.03,13.83-7.68,13.71-15.14,.05-7.52-6.28-14.44-13.72-15.72-20.23,.06-67.42-.53-91.52-.85l-4.9-.07-.22-4.74-.75-16.1-.04-.88c4.26-12.85-4.16-19.37-16-21.45-15.18-5.44-31.3-6.7-46.34-.1-21.82,9.67-36.37,31.25-44.76,53l-.36,.99-.94-.03c-11.47-.33-27.13-.92-38.68-1.36h0Z"/><path class="d" d="M431.51,531.41c5.1,9.47,9.32,18.99,13.83,28.14,2.25,4.55,4.53,9.04,7.03,13.06,1.87,2.81,3.76,6.04,6.43,7.46-.09-.04-.46,.06-.29,.02,.04-.05,.07,.02,.16-.07,.17-.1,.46-.34,.61-.49,4.48-4.85,7.03-12.58,9.57-18.83,3.73-9.7,6.94-19.64,11.24-29.29,1.68,15.47-.44,53.25-16.54,60.64-13.5,5.11-21.52-11.04-25.23-21.14-4.52-12.69-6.95-26.02-6.8-39.5h0Z"/><path class="d" d="M436.09,346.11c-.97-14.83-1.84-31.7-2.46-46.56l.92,1.92c-17.13-13.62-30.1-34.48-29.05-56.99,.03-1.25,.14-3.03,.34-4.25,.17-1.21,.34-3.04,.64-4.22,.46-2.87,1.61-6.46,2.5-9.25,1.83-4.82,4.18-9.81,6.97-14.16,7.91-13.16,19.89-23.44,31.23-33.29l.16,12.98c.17,11.23,.37,33.75,.44,44.97l-2.05-4.68c7.86,7.12,15.64,14.34,23.46,21.5l-8.57-.2,22.51-18.86-2.3,4.93c.07-17.72,.24-39.6,.5-57.18,5.24,2.45,12.35,5.68,17.09,8.85,13.7,8.8,26,20.68,32.33,36.02,10,24.14-.46,48.96-16.69,67.44-4.59,5.64-11.01,11.54-16.39,16.49l.62-1.51-.47,18.01c-.19,5.13-.4,12.92-.65,18.02-.5-5.08-1.1-12.77-1.55-17.96l-1.37-17.97-.06-.79,.68-.72c31.29-32.62,47.12-70.94,4.49-102.16-4.59-3.26-9.48-6.33-14.58-8.68l8.56-5.53c.11,7.95,.19,15.89,.24,23.84,0,1.55,.16,26.37,.16,26.82l-2.32,1.95-22.46,18.92-4.39,3.69c-9.13-8.52-18.4-17.02-27.49-25.57l-2.07-1.95,.02-2.73c.08-11.19,.28-33.78,.44-44.97l9.77,4.51c-14.66,12.23-28.7,28.66-30.47,48.29-1.97,20.3,9.25,39.96,23.81,53.41-.63,15.22-1.51,32.4-2.5,47.6h0Z"/></g></svg>