<?xml version="1.0" encoding="UTF-8"?><svg id="a" xmlns="http://www.w3.org/2000/svg" viewBox="0 0 815.21 785.03"><defs><style>.b{fill:none;stroke:#d96664;stroke-miterlimit:10;stroke-width:12px;}.c{fill:#e9aeb6;}.d{fill:#d96664;}</style></defs><circle class="c" cx="433.45" cy="403.26" r="381.76"/><circle class="b" cx="387.76" cy="387.76" r="381.76"/><path class="d" d="M414.04,206.65c-9.39,2.47-19.09,5.98-26.11,12.88-4.33,4.43-5.63,9.42-3.76,15.25,1.26,5.74,1.25,12.37-2.21,17.46-2.99,4.5-8.59,6.48-13.68,6.91l.48-.13c-8.03,4.41-16.66,8.94-23.28,15.27-.58,.73-1.46,1.55-1.52,2.36-.08-.13,.12,.16,.69,.33,.75,.31,1.99,.38,2.87,.51l.42,.85c2.84,7.2-7,9.8-12.12,10.38-3.14,.47-6.29,.53-9.44,.64l-.27-.06c-7.63-1.89-26.73-6.42-25.18-16.62,.1-.46,.25-.91,.4-1.35l.88-1.09c-.16,.12-.1,.08-.16,.13-.03,.03-.09,.1-.15,.2-.2,.34-.31,.97-.15,1.41,.17,.55,.47,.75,.49,.78,.08,.06,.04,.03-.03,0-5.05-1.2-10.77-.6-16.04-.42l-1.51,.08-.89-1.3-3.26-4.76,5.12-1.67c.6,6.56,2.16,13.69,6.33,18.94,1.05,3.12,1.91,6.16,2.69,9.3,1.78,8.04,5.84,25.17-5.13,28.49l-1.32,.44-1.48-.98c-.77-.5-2.05-1.24-2.98-1.65-5.19-2.45-11.31-3.44-16.75-1.45-3.52,1.04-6.83,4.1-9.88,6.08l-1.74-4.49c-3.59-8.68-10.74-17.23-20.46-10.18l-3.18,.55c.48,.1,.19,.04,.19,.05-6.94,.19-13.83,2-20.62,3.5-2.69,.65-6.91,1.61-9.3,3.29-.93,.63-1.57,1.14-1.85,1.79,0,.03,.02,.03,0,.04,.04,.02,0,.02,.02,.06,.03,.12,.17,.63,.72,1.26,.09,.15,.27,.31,.41,.47,1.24,1.34,2.69,2.34,4.26,3.37,3.37,2.2,12.2,6.32,16,8.29-6.05,1.86-18.31,5.77-24.39,7.65l1.05-8.18c3.1,1.99,5.76,4.11,8.27,6.84,2.84,3.12,5.11,6.74,5.26,11.42l-6.09-4.43c8.88-2.56,18.47-3.64,27.27,.28,3.5,1.58,7.12,4.79,8.71,7.88,4.48,6.41,12.86,8.75,20.3,9.97l3.76,.44,2.92,8.86c.1-.09-.03,.04-.07,.08-.06,.07-.12,.13-.18,.21-.12,.14-.23,.29-.3,.42-.17,.26-.23,.46-.23,.46,.02,0,.05-.27-.02-.46-.11-.22-.07-.23-.03-.12l-2.68-1.41c9.94,2.04,16.79,10.36,14.47,20.63-.57,2.84-1.61,5.31-2.76,7.6l.26-4.2c1.03,2.5,2.33,5.1,3.75,7.44,4.43,7.5,10.75,14.09,18.89,17.28,4.73,5.85,6.41,14.97,.32,20.66-1.52,1.56-3.52,2.65-5.45,3.57l2.89-7.09c1.04,2.38,2.4,5.15,3.94,7.21l.32,.4c.08,.12,.28,.27,.36,.36,0-.01-.15-.14-.25-.15l2.99,5.71-5.96,42.43-6.03,42.42-.13,.93c-1.73,3.45-3.49,6.64-5.58,9.88-1.81,2.67-3.63,5.52-6.69,7.54-2.58,1.76-6.36,1.76-8.77-.32l7.57-8.8,9.61,8.52,2.4,2.13c-.52,3.05-1.1,6.75-1.58,9.58l-2.23-5.61s.13,.09,.21,.14l.34,.21c.23,.14,.46,.27,.69,.39,.45,.23,.87,.38,1.11,.44,.14,.05,.17,.02,.2,.05-.03-.02-.06-.02-.09,0-.04,0-.16,0-.24,.03-.42,.05-1.12,.46-1.33,.82l7.78-1.23,7.33,4.81-5.28-.59,.35-.12c4.24-1.34,9.01-.79,12.6,2.06,3.32,2.76,4.72,6.17,5.58,10.09l-7.07-4.6c4.58-.88,8.95-.87,13.54,.26,4.78,1.15,9.41,4.3,12.16,8.49l-4.94-2.67,23.21-.03-5.76,7.36c-.11-.47-.15-.68-.21-1.01-.84-4.35-.46-9.79,3.91-12.45,6.93-3.83,14.09,2.66,19.07,6.88l-4.48-1.5c2.33-.23,9.29-.78,11.46-.99,1.56,1.91,4.41,5.15,5.94,7l-5.69-2.01c7.11-1.35,16.28,.62,18.59,8.72l.18,.83c.11,.56,.2,1.12,.28,1.68l-.76-2.43,.35,.55c.41,.63,.91,1.29,1.39,1.82,.59,.69,1.29,1.18,1.25,1.13-.02-.01-.39-.16-.97-.1-.58,.05-1.08,.33-1.2,.46-.2,.18,.32-.34,.67-1.19l.36-.88c.55-.6,1.12-1.19,1.77-1.63,4.41-2.93,9.59,.39,13.15,2.96,.74,.53,1.41,1.07,2.1,1.6l-5.92-.88c2.22-.83,4.2-1.53,6.43-2.19,7.26-1.93,16.37-4.62,23.45-.11l-9.03,6.69c-3.37-11.76-6.72-26.38-1.74-38.26l.65-.71c4.41-4.66,10.51-8.12,17.17-7.46l-5.78,3.04c7.7-13.47,22.13-20.32,35.58-10.09l-4.85-.99,7.32-1.78,5.56-1.35c.43,1.75,2.02,7.73,2.5,9.63l-5.48-4.33,7.85,.19h.29l.27,.04,13.39,1.62,5.08,5.53c0-.05,.02,.21,.03,.34l.07,.49c.06,.32,.13,.63,.21,.89,.14,.52,.38,.84,.22,.63-.04-.03-.12-.16-.22-.2-.09-.04-.24-.2-.39-.23-.17-.02-.28-.15-.44-.15-.19,0-.24-.03-.32-.04-.24,.06-.1-.03-.07,0,.12-.04,.36-.18,.55-.22l3.46-.81c3.37,1.56,12.12,5.43,15.06,6.79l-3.9-.28c3.42-.94,6.7-1.78,10.16-2.54,3.12-.66,6.35-1.36,9.66-1.43,1.48-.03,3.2,.29,4.51,1.1l-7.35,1.29,21.53-26.87,4.45-2.07c-.1,0,0,0,.03,0h.14l.33-.02c.63-.04,1.36-.17,1.91-.35,.72-.23,1.08-.52,1.1-.57,.11-.14,.1-.24,.12-.6,.02-.53-.14-1.43-.49-2.42l-1.41-3.97,3.67-2.45,.57-.38,.64-.47c1.02-.61,2.3-2.05,2.76-2.73,.12-.18,.11-.26,.07-.05-.05,.19-.02,.72,.15,1.07,.43,.72,.27,.28-.39-.03l4.34,.23c-14.47,5.11-29.22,.82-30.82-16.1l-.19-1.79c2.12-3.33,4.8-7.91,4.74-11.75-.05-.08,.16,.31,.31,.38,0,.03,.07,.03,.05,.03-.03,0-.04-.01-.06-.03-.73-.22-1.62-.15-2.44-.11l-2.95,.06-1.52-1.94c-2.74-3.78-5.43-7.62-5.24-12.62,.71-7,7.61-8.28,13.31-7.16l-3.2,.54c-.08,.04-.06,.03-.06,.03,8.22-5.67-3.69-16.14-8.5-20.4-.8-6.69,2.27-13.11,9.26-14.47,1.65-.34,3.17-.31,4.8-.2l-4.14,7.62-10.02-12.85-.9-1.15c-.13-2.9-.56-6.43-1.93-8.94-.29-.51-.52-.57-.23-.45,.13,.08,.34,.07,.38,.07-2.05,.86-3.97,3.28-5.62,5.39l-7.81,10.23-.17-12.75c-.04-4.42,.07-8.64,.45-13.04,.42-3.87,.75-7.97,2.67-11.67,1.02-1.94,2.93-3.47,5.2-3.62l-3.1,1.65,15.81-20.22-.13,4.79c-3.34-4.85-1.88-11,4.31-12.07,3.15-.54,6.13-.02,9.11,.57,3.26,.71,4.49-2.85,4.59-5.89,.27-5.87-1.3-11.8-3-17.55,1.35-7.46,3-14.69,5.19-21.95,2.06-6.27,4.05-13.02,8.65-18.12,.78-.83,1.85-1.66,3.2-2.28l-1.92,3.43c-2.91-9.27-15.89-9.39-23.94-8.42-1.24,.21-4.53,.66-5.58,.83l-.86-.55-8.41-5.4,.83,.34-6.87-1.67-1.47-4.18-.08,.11-.02,.03h0s.02-.02,.02-.04c0-.03,.02-.09-.04-.22-1.08-1.65-3.36-2.73-5.51-3.52-3.39-1.27-7.12-2.1-10.85-2.79-7.81-1.41-15.85-2.12-23.86-2.66-5.49-7.54-10.47-15.61-11.23-25.21l1.89,1.63c-3.78,.4-8.85,2.5-8.21,7.09l.25,6.01-3.04-5.03c-3.7-5.81-11.33-17.84-18.03-19.17-1.03-.1-1.93,.24-2.67,1.07l-.88,.98c-2.37-3.37-7.29-9.24-11.55-5.83l-2.05,1.75,.73-2.58c3.01-11.48-1.58-15.95-13.08-11-4.22-4.85-9.61-11.59-7.99-18.35h0Zm0,0c-.84,3.37,.5,6.78,2.15,9.67,1.68,2.92,3.83,5.61,6.19,8l-.4-.08c11.71-5.55,17.67-.49,14.69,12.2l-1.32-.83c4.68-4.18,10.6,.85,13.57,4.76l-1.64-.07c.29-.28,.56-.58,.87-.84,7.79-5.64,20.24,13.25,23.98,18.74l-2.78,.99c-.13-1.43-.14-2.97,.49-4.42,2.06-4.71,7.42-6.23,12.11-6.73,.36,8.92,5.41,17.02,10.64,23.97l-1.51-.78c8.51,.47,51.05,1.66,43.26,16.4l-1.47-4.18,6.9,1.51,.41,.09,.41,.25,8.54,5.19-2.04-.38c6.25-1.18,13.12-2.08,19.45-.92,8.36,1.37,15.88,6.56,16.72,15.61-2.1,1.01-3.11,1.17-4.62,3.62-2.59,4.21-4.08,9.07-5.51,13.91-1.87,6.64-3.34,13.6-4.46,20.4l-.11-1.66c2.4,8.21,5.54,18.36,1.57,26.75-2.13,4.25-7.17,6.64-11.86,5.66-2-.36-4.52-.81-6.32-.33,.05-.02,.36-.23,.57-.61,.21-.38,.2-.7,.2-.72,0-.04,.03,.11,.11,.31,.04,.1,.09,.21,.16,.32l.09,.16s.09,.14,.04,.06l-.13,4.79-15.52,20.44-3.1,1.65c.45,0,.93-.17,1.3-.4,.19-.15,.21-.14,.3-.22,.04-.03,.07-.07,.1-.11,.03-.03,.02-.02,.04-.03,.02-.01,.03-.03,.03-.05,0,.03-.02,.06-.04,.09-1.05,2.44-1.19,5.41-1.48,8.23-.29,3.96-.35,8.14-.25,12.1l-7.97-2.52c10.52-15.07,22.21-10.65,23.6,7.21l-.98-2.57c3.57,4.54,12.68,15.75,16.22,20.23l-10.16,.11c-.85-.03-2.36-.07-2.96,.51-.29,.25-.64,1.01-.67,1.56-.02,.23-.07,.47-.05,.71v-.08l-1.66-3.31c8.7,7.17,18.76,20.01,10.09,31.1-1.55,2.05-3.7,3.59-5.95,4.78l-1.85-.24c-.74-.12-2.38-.27-2.92-.1,.25-.09,.44-.23,.79-.59,.33-.39,.58-.91,.58-1.38,.34,1.78,1.97,4,3.07,5.48l-4.47-1.88c1.8-.14,3.57-.17,5.39,.22,5.66,1.01,8.87,6.56,7.99,11.99-.75,5.33-2.67,9.09-5.21,13.51l.78-3.33c.51,3.68,1.47,6.68,4.91,7.96,3.33,1.19,8.2,.48,11.7-.77l2.39-.82,1.95,1.05c5.37,2.49,7.95,8.58,4.6,13.97-2.13,3.47-4.48,5.24-7.58,7.37l2.26-6.41c3.78,9.9-2.01,18.15-12.74,18.53h-.92l4.45-2.06-21.31,27.04-7.36,1.29c.25,.16,.52,.3,.8,.4l.21,.07c.13,.05,.28,.08,.42,.1,.05,.02,.17,.02,.07,.02h-.25c-2.33,.14-4.67,.72-7.06,1.22-3.81,.88-7.74,1.93-11.48,3.03l-1.91-.85-13.58-6.03,4.97-.13c-6.78,3.58-13.63,.45-15.61-6.69-.5-1.67-.69-2.92-.81-4.66l5.08,5.53-13.39-1.59,.56,.04c-2.96-.09-9.38-.18-12.22-.26-.54-2.11-1.65-6.25-2.19-8.34l6.99,4.17c-2,.47-8.09,2-9.95,2.44-2.11-1.59-4.92-3.7-7.24-4.08-5.73-1.14-10.5,4.21-13.3,8.78l-1.86,3.11-3.93-.07c-2.68-.15-5.24,1.76-7.11,3.61l1.02-1.61c-1.52,3.89-1.32,9.29-.8,13.74,.6,5.1,1.81,10.45,3.33,15.36l-9.03,6.69c-2.08-.49-5.11-.15-7.68,.39-4.74,.97-9.67,2.68-14.15,4.52-2.35-1.66-4.91-4.1-7.47-5.27h-.04c-.05-.04,0-.01,.06,0,.11,.02,.23,.06,.65,.07,1.16,0,2.29-.41,3.21-1.13,.22-.17,.44-.36,.63-.57l1.15-1.7c-2.33,5.63-7.98,9.71-14.23,6.88-3.97-1.87-6.35-4.97-8.56-8.51l-.76-2.44c-.1-.31-.1-.33,0-.2,.07,.12,.02,0-.42-.16-.42-.16-1.16-.29-2-.31-1.71-.07-4.35,.41-6.05,.6-1.22-1.39-4.73-5.64-6.01-7.12l5.07,2.09-8.39,.7-2.54,.21-1.94-1.71c-2.25-1.89-4.42-3.98-7.04-5.06-.01,0-.03,0-.03-.02l.05,.02c.99,.12,2.22-.43,2.93-1.25,.45-.5,.56-.94,.6-1.02,.04-.13,.01-.09,0,.05-.02,.12-.01,.35,0,.58,.01,.5,.11,1.05,.21,1.55l1.44,7.37h-7.21c-1.51,0-25.1-.06-26.07-.04l-2.08-2.67c-2.79-4.15-8.63-4.51-13.22-3.75l-5.49,1.07-1.57-5.67c-.17-.97-.7-2.55-1.34-3.16-.15-.1-.23-.15-.55-.21-.37-.03-.76-.01-1.11,.09-.03,0,.12-.04,.12-.04l-5.28-.59-7.31-4.83,7.78-1.23c-4.13,5.19-11.4,3.93-16.26,.49-.26-.17-.43-.29-.81-.57l-2.82-2.1c.29-1.96,1.34-7.82,1.67-9.91l1.88,5.31-9.59-8.55,7.57-8.8c-.89-.79-2.4-1.24-3.6-1.01l-.31,.05c-.31,.07-.6,.18-.86,.33-.03,.01-.06,.03-.09,.05,0,0,.04-.04,.07-.06,3.13-3.26,5.48-7.88,7.64-11.9l-.55,1.76c3.14-21.16,9.34-63.63,12.54-84.77l2.99,5.71c-1.75-.9-3.06-2.28-4.22-3.79-3.22-4.23-5.06-9.27-7.12-14.11l4.72-2.71c.62-.34,1.23-.58,1.77-1.01,1.69-1.03,1.16-2.97,.4-4.6-.09-.23-.23-.44-.34-.66-.1-.18-.3-.49-.28-.47l2.25,1.77c-13.59-6.03-22.61-18.92-27.64-32.48,3.66-6.59,5.81-12.98-3.23-15.45l-2.68-1.41c-2.15-1.97-3.52-5.99-2.66-8.91,.73-2.8,2.01-4.61,3.97-6.5l2.92,8.86-4.36-.55c-9.87-1.65-20.26-5.34-26.4-13.81-.59-.84-1.15-1.78-1.56-2.73l.51,.94c-1.08-1.55-2.48-2.73-4.2-3.57-6.07-2.79-13.84-1.85-20.23-.12l-5.99,1.8-.11-6.23c.06-1.63-1.52-3.85-2.78-5.27-3.73-4.29-10-7.58-14.58-10.64,5.38-1.54,17.87-5.39,23.38-6.99l-.65,8.21c-4.94-2.57-10.21-5.39-13.79-9.88-4.27-5.25-2.81-12.03,3.44-15.64,3.51-2.34,7.88-3.3,11.95-4.23,7.02-1.51,14.06-3.09,21.3-3.38,1.3,.02,1.53-.06,2.95,.21l-3.18,.55c2.74-1.77,5.95-3.29,9.65-3.7,9.2-1.12,16.45,6.22,20.19,13.66,.8,1.51,1.34,2.75,1.97,4.4l-5.72-1.67c2.48-1.74,5.11-3.39,8.11-4.28,8.74-2.94,18.52-.63,25.99,4.45l-2.8-.54c4.53-1.95,1.6-16.28,.68-20.52-.63-2.79-1.38-5.64-2.21-8.31l.49,.92c-4.7-6.41-6.28-14.25-6.8-22.03l-.48-10.3c2.18,3.37,6.67,10.26,8.75,13.47l-2.4-1.21c3.34-.11,6.68-.17,10.09-.04,2.97,.28,9.27-.01,10.55,3.66,.49,1.53-.29,2.95-1.47,3.82l.88-1.09c-.59,1.5,.47,2.59,1.66,3.72,5.38,4.31,12.79,6.38,19.43,8.18l-.46-.05c2.92-.03,5.85-.02,8.73-.38,2.52-.31,9.5-1.24,9.42-4.41-.01-.08-.08-.28-.04-.2l1.39,.96c-5.91-.64-7.59-4.83-3.05-9.11,7.28-6.62,15.96-10.75,24.57-15.21l.24-.12,.24-.02c6.26-.23,12.38-3.31,14.13-9.68,1.14-3.72,1.09-7.89,.36-11.77-.57-2.47-1.02-5.09-.44-7.61,2.84-12.71,20.77-18.32,31.91-20.86h0Z"/></svg>