<?xml version="1.0" encoding="UTF-8"?><svg id="a" xmlns="http://www.w3.org/2000/svg" viewBox="0 0 807.21 785.03"><defs><style>.b{fill:none;stroke:#d96664;stroke-miterlimit:10;stroke-width:12px;}.c{fill:#e9aeb6;}.d{fill:#d96664;}</style></defs><circle class="c" cx="425.45" cy="403.26" r="381.76"/><circle class="b" cx="387.76" cy="387.76" r="381.76"/><g><polygon class="d" points="409.61 329.16 402.61 434.6 395.61 329.16 409.61 329.16 409.61 329.16"/><circle class="d" cx="402.61" cy="455.42" r="9.64"/></g><path class="d" d="M237.41,388.36c47.74-49.73,116.79-123.02,164.77-171.29l4.37-4.45c12.48,12.32,33.46,33.28,45.9,45.71,39.01,39.05,90.07,90.69,128.64,130.1-39.26,39.1-91.24,90.41-130.95,129.12-12.66,12.24-33.97,33.11-46.66,45.29l-4.3-4.43c-46.91-47.68-115.21-120.86-161.76-170.05h0Zm0,0c49.33,45.92,122.77,115.04,170.63,161.15h-8.87l20.48-21c44.4-45.37,99.47-100.93,144.51-145.81l-.07,11.26c-44.26-45.22-98.26-101.15-141.89-146.84l-20.1-21.14,8.93,.08c-48.47,46.2-123.78,116.24-173.62,162.31h0Z"/></svg>