<?xml version="1.0" encoding="UTF-8"?><svg id="a" xmlns="http://www.w3.org/2000/svg" viewBox="0 0 815.21 785.03"><defs><style>.b{stroke-width:12px;}.b,.c{fill:none;stroke:#d96664;stroke-miterlimit:10;}.d{fill:#e9aeb6;}.e{fill:#fff;}.f{fill:#d96664;}.c{stroke-width:4px;}</style></defs><circle class="d" cx="433.45" cy="403.26" r="381.76"/><circle class="b" cx="387.76" cy="387.76" r="381.76"/><g><polygon class="f" points="373.79 357.27 515.8 276.26 438.6 418.26 293.74 499.27 373.79 357.27"/><path class="f" d="M602.05,387.76c.87,78.35-48.77,153.75-120.98,184.22-132.18,57.37-280.63-39.97-280.58-184.22-.88-80.83,51.51-157.88,126.89-186.82,131.32-51.98,274.87,45.74,274.67,186.83h0Zm0,0c.83-78.06-49.79-152.43-122.59-180.33-126.88-49.97-265,44.07-264.98,180.33-.36,135.97,138.47,230.53,264.99,180.35,72.8-27.92,123.41-102.29,122.58-180.35h0Z"/><circle class="e" cx="404.77" cy="387.76" r="17"/><line class="c" x1="404.77" y1="218.12" x2="404.77" y2="236.23"/><line class="c" x1="575.84" y1="387.76" x2="557.73" y2="387.76"/><line class="c" x1="404.77" y1="537.39" x2="404.77" y2="555.5"/><line class="c" x1="235.6" y1="384.91" x2="251.8" y2="384.91"/></g></svg>