<?xml version="1.0" encoding="UTF-8"?>
<svg id="crayon" xmlns="http://www.w3.org/2000/svg" viewBox="0 0 1246 793.88">
  <defs>
    <style>
      .cls-1 {
        fill: #ffe4cc;
      }

      .cls-2 {
        fill: #ffd3b0;
      }

      .cls-3 {
        fill: #b7916e;
      }
    </style>
  </defs>
  <g id="Calque_2-2" data-name="Calque 2">
    <path class="cls-2" d="m398.79,579.36c-2.89,2.64-5.66,5.53-5.66,5.53-2.89,3.02-5.41,5.66-8.05,9.43-1.89,2.77-4.9,7.29-6.16,13.7-.75,3.39-.5,5.15-.38,5.78.75,4.65,3.77,7.54,4.9,8.67,2.64,2.51,5.41,3.52,7.17,4.15.88.38,2.14.75,11.57,1.76,2.89.38,4.4.5,6.03.63,1.38.13,9.18.75,10.56.25.13,0,.5-.25.75,0,.13.13.13.38.13.5-.25,1.26,1.76,4.78,1.76,4.78,2.26,4.02,3.14,4.4,4.15,6.91.63,1.76.88,3.02,1.01,3.77,1.26,7.54,10.69,16.85,12.19,18.35,4.15,4.02,9.93,9.68,17.47,11.06,3.77.75,7.04.13,8.17,0,2.39-.38,5.28-1.26,6.03-2.39,0-.13.25-.5.5-.5.38,0,.63.88.75,1.26.5,2.01,1.51,3.9,1.89,5.91.5,3.65,3.52,7.42,7.04,12.19,3.27,4.27,6.41,7.17,8.55,9.05,3.27,2.77,5.53,4.65,9.18,5.66,1.38.38,3.27.5,6.91.63,4.53.25,9.18,1.26,13.58.75.38,0,1.51-.25,2.14.38.25.38.38.75.38.88.13,1.63.5,3.14.5,4.78.13,2.26,2.64,3.9,7.67,7.29,2.64,1.76,4.27,2.77,6.66,3.9,3.14,1.38,7.79,3.39,12.7,3.14.88,0,3.27-.25,5.78.88,1.01.5,1.63.88,1.89,1.13,3.52,2.51,11.31,5.28,12.95,5.91,1.63.5,6.41,1.89,23.26-.5,7.42-1.13,13.95-2.01,21.62-4.27,10.56-3.14,34.32-11.82,41.61-22.5,16.47-24.01-22.63-99.07-86.75-133.26-81.72-43.75-165.07-.38-170.47,4.4Z"/>
    <path class="cls-3" d="m49.8,86.05c4.15,3.65,10.81,9.18,19.23,15.46,24.39,18.48,34.7,21.87,69.27,44.63,10.94,7.17,20.37,13.45,33.06,22.63,18.98,13.83,19.49,15.59,29.17,20.74,12.19,6.54,11.06,6.29,24.26,14.21,7.67,4.65,18.1,10.56,22.38,13.58,31.3,21.87,61.48,39.1,68.26,42.12,13.58,6.16,16.09,5.91,30.55,13.07,15.97,7.92,16.09,9.81,31.18,17.98,28.41,15.21,37.34,13.45,62.98,26.02,2.64,1.38,9.05,4.53,18.1,6.29,3.77.75,7.79,1.13,17.1,1.26,10.94,0,21.5-.5,33.57-1.63,10.94-1.01,18.61-2.14,25.27-3.02,20.11-2.89,25.4-4.65,28.92-6.66,1.13-.63,3.27-2.01,6.54-2.89,4.27-1.13,6.29-.5,10.18-1.26,3.77-.75,5.15-2.01,9.18-4.02,6.79-3.39,7.42-2.01,16.97-5.66,7.42-2.89,7.79-3.9,18.35-8.17,5.78-2.26,8.05-2.89,10.56-3.27,5.15-.75,9.18-.13,12.82.38,6.16.88,10.69,2.51,12.82,3.27,11.06,4.02,22.63,9.81,26.9,12.45,24.89,15.46,92.15,103.59,137.16,144.95,31.56,28.92,76.06,42.24,73.29,49.28-1.76,4.27-6.16.75-6.16,2.77,0,1.89,2.89,8.55,5.03,10.94.13.13.63.75,1.38,1.38,1.01.88,1.89,1.38,2.14,1.51,2.39,1.38,3.39,5.91,4.4,9.93.5,2.39.88,4.27,1.01,5.03.5,3.39,1.26,9.18.63,16.34-.25,3.27-.5,5.78-1.51,9.05-1.63,5.53-4.4,9.05-7.79,13.58-5.53,7.17-8.3,10.81-12.95,12.95-6.03,2.89-11.94,2.26-15.21,1.89-4.4-.5-7.79-1.76-14.46-4.53-7.67-3.14-11.44-4.65-14.83-7.29-1.26-.88-5.41-4.15-9.18-5.28-.25-.13-3.65-1.13-3.65-1.13-.25.38-.5.75-.38,1.38.13,1.13,1.51,1.76,2.51,2.51,1.01.63-13.95,1.51-12.19,4.15,2.89,4.27,15.34,9.05,16.59,10.06,1.51,1.13,6.54,4.15,7.54,11.19.88,6.29,1.51,9.68,1.63,14.33.25,9.43-1.51,15.97-4.4,23.76-1.26,3.27-5.15,13.33-15.84,20.11-8.55,5.41-16.72,5.78-18.48,5.78-7.29.25-15.21-1.89-19.11-4.4-.38-.25-1.89-1.26-2.14-1.01-.25.38,1.76,2.51,2.77,3.77,3.52,4.53,2.89,10.43,2.39,15.21-.88,9.18-5.15,15.59-6.91,18.35-2.64,3.77-6.54,9.55-14.08,12.95-5.15,2.26-9.68,2.26-13.45,2.26-10.43.13-18.35-3.52-21.37-4.9-1.26-.63-8.17-3.65-13.07-6.79-1.13-.75-2.77-1.63-5.91-3.27-2.14-1.13-3.39-1.76-3.65-1.51-.25.38.75,1.51,1.01,1.89,2.89,3.52,4.78,10.94,4.65,17.22-.25,6.29-2.51,10.81-3.65,13.07-2.77,5.28-6.29,8.8-8.67,10.69-1.89,1.51-5.53,4.53-10.81,5.91-3.14.88-6.66,1.13-17.22-1.26-6.79-1.51-15.34-3.9-28.92-8.93-1.89-.63-7.29-2.77-12.07-4.78-34.7-14.46-70.78-38.72-70.78-38.72,0,0-34.7-23.38-40.48-25.77-.13,0-.38-.13-.88-.5-1.26-1.01-1.51-2.64-1.63-3.02-.63-3.02-3.77-9.93-6.54-13.33-2.01-2.39-4.02-3.52-7.67-5.53-1.38-.75-5.15-1.89-12.7-4.4-7.17-2.26-10.81-3.39-11.57-3.39-.25,0-1.38.13-2.01-.5-.63-.5-.63-1.38-.63-1.63,0-.75-1.26-3.77-3.65-9.93-2.64-6.66-8.42-11.19-8.8-11.44-4.27-3.27-8.3-4.15-13.58-5.28-6.29-1.38-13.45-2.89-20.37.25-1.89.88-2.64,1.63-4.53,1.63-4.02.13-6.54-3.65-10.94-7.79-4.4-4.02-5.15-3.27-11.19-7.79-8.55-6.41-7.67-8.42-17.73-17.47-7.17-6.54-13.58-10.81-17.47-13.33-4.9-3.14-6.16-3.39-10.56-5.91-8.93-5.28-12.45-9.05-24.89-19.49-11.31-9.55-16.97-14.21-21.5-17.1-11.06-7.04-14.83-6.41-27.03-13.33-10.94-6.16-16.85-11.57-22.5-15.97-14.71-11.57-27.91-16.47-53.68-26.9,0,0-23.13-9.3-79.08-32.81-14.83-6.29-65-27.41-81.34-38.6-66-45.51-18.73-231.95,0-298.58Z"/>
    <path class="cls-2" d="m1102.43,76.37c-12.19,1.89-13.07,9.3-43.62,42.62-55.82,61.1-113.65,102.71-131.5,114.91-18.23,12.45-38.09,23.38-53.43,38.09-2.14,2.01-7.29,7.04-15.34,11.69-9.05,5.28-17.73,7.54-25.27,9.55-9.3,2.51-16.59,3.52-19.99,4.02-17.22,2.26-32.69,2.26-53.56,1.63-31.93-.88-47.9-1.26-57.58-2.51-12.82-1.63-25.9-1.51-38.85-2.77-4.65-.38-11.69-1.13-19.99,1.51-8.05,2.51-13.2,6.79-16.09,9.05,0,0-17.47,14.08-42.49,27.41-11.57,6.16-23.51,11.06-36.58,20.11-1.01.75-5.78,4.15-10.43,10.06,0,0-6.66,8.42-7.54,16.22-.25,1.76-.13,3.52-.13,3.52.13,2.77.75,4.9.88,5.41,1.13,4.02,1.63,11.19,2.14,20.11.5,8.93.75,13.33.25,18.35-.75,8.55-2.64,9.81-5.66,21.75-4.15,16.09-6.29,25.14-1.51,31.68,3.39,4.78,8.93,6.16,12.19,7.04,13.33,3.39,25.4-3.77,32.31-7.92,4.65-2.77,19.74-12.45,28.66-31.43,8.42-17.98,7.92-36.58,7.29-38.34,0-.13-.5-1.51,0-1.89.25-.13.63,0,.75,0,1.51.5,7.79-.88,9.05-1.13,7.42-1.89,12.95-9.3,23.76-12.07,0,0,11.31-2.77,13.33-6.03,0,0,.25-.38.5-.38.38-.13.63.13.75.25.63.5,4.02,1.13,5.91,1.51,2.01.38,1.63,2.51,9.68,3.27,3.9.38,3.9.13,4.53.38,3.77,1.01,4.4,1.89,6.91,3.77,5.91,4.4,1.89,1.76,8.3,6.16,3.39,2.39,4.78,3.02,10.18,6.16,1.76,1.01,6.66,3.65,7.42,4.02,6.79,3.27,11.31,7.54,18.1,10.94,2.64,1.26,15.46,7.79,29.8,15.59,15.21,8.42,21.62,13.45,32.31,19.11,12.45,6.66,28.41,10.69,36.71,13.7,5.91,1.89,12.32,4.65,20.99,8.8,6.91,3.27,15.34,7.17,26.9,15.59,10.56,7.79,23.13,13.83,23.63,14.71,0,0,.25.5.5.5s.38-.38.38-.38c.5-.88,4.15-2.89,4.53-3.14,8.42-4.78,16.34-10.18,24.77-14.83,6.54-3.65,2.64-2.01,30.55-20.87,10.81-7.29,14.71-9.81,20.49-12.57,7.04-3.39,8.8-3.52,14.96-6.91,6.91-3.9,11.44-7.67,17.6-12.7,8.55-7.17,8.67-8.42,18.73-16.97,6.66-5.78,12.07-9.93,15.21-12.32,5.41-4.15,10.81-8.05,22.5-15.84,11.19-7.54,17.6-11.57,25.4-16.72,0,0,14.96-9.81,33.44-22.38,13.58-9.3,21.75-15.21,44.76-31.93,50.92-36.96,50.92-36.84,51.67-37.84,37.59-51.04-57.33-219.13-119.18-209.32Z"/>
    <path class="cls-1" d="m830.38,566.04c-4.4-3.52-10.06-2.01-25.52-8.8-12.45-5.53-15.46-7.17-25.02-10.43-20.49-6.91-19.11-11.31-20.49-9.55-1.63,2.14,8.55,8.8,22.38,18.35,16.47,11.44,11.82,7.42,27.78,17.1,1.76,1.01,10.31,6.54,13.45,4.78,1.51-.88,1.76-3.39,5.66-8.67,1.63-2.14,2.01-2.51,1.76-2.77Z"/>
  </g>
</svg>