<svg width="142" height="182" xmlns="http://www.w3.org/2000/svg" xmlns:xlink="http://www.w3.org/1999/xlink" overflow="hidden"><defs><clipPath id="clip0"><rect x="623" y="215" width="142" height="182"/></clipPath></defs><g clip-path="url(#clip0)" transform="translate(-623 -215)"><path d="M49.0327 174.812 49.0327 29.846 102.329 29.846 102.329 74.6149 155.625 74.6149 155.625 174.812 49.0327 174.812ZM115.12 35.1756 141.768 61.8238 115.12 61.8238 115.12 35.1756ZM115.12 17.0548 36.2415 17.0548 36.2415 187.603 168.417 187.603 168.417 63.9557 115.12 17.0548Z" fill="#595959" transform="matrix(1 0 0 1.00086 592.011 202.9)"/><path d="M61.8238 95.9335 142.834 95.9335 142.834 104.461 61.8238 104.461Z" fill="#595959" transform="matrix(1 0 0 1.00086 592.011 202.9)"/><path d="M61.8238 78.8787 89.5379 78.8787 89.5379 87.4061 61.8238 87.4061Z" fill="#595959" transform="matrix(1 0 0 1.00086 592.011 202.9)"/><path d="M61.8238 112.988 142.834 112.988 142.834 121.516 61.8238 121.516Z" fill="#595959" transform="matrix(1 0 0 1.00086 592.011 202.9)"/><path d="M61.8238 130.043 142.834 130.043 142.834 138.571 61.8238 138.571Z" fill="#595959" transform="matrix(1 0 0 1.00086 592.011 202.9)"/><path d="M61.8238 147.098 142.834 147.098 142.834 155.625 61.8238 155.625Z" fill="#595959" transform="matrix(1 0 0 1.00086 592.011 202.9)"/></g></svg>