<?xml version="1.0" encoding="UTF-8" standalone="no"?>
<!-- Created with Inkscape (http://www.inkscape.org/) -->

<svg
   version="1.1"
   id="svg2"
   xml:space="preserve"
   width="2320.2261"
   height="1164.2272"
   viewBox="0 0 2320.226 1164.2272"
   sodipodi:docname="illustrations_societe_nouvelle.svg"
   inkscape:version="1.1 (c68e22c387, 2021-05-23)"
   xmlns:inkscape="http://www.inkscape.org/namespaces/inkscape"
   xmlns:sodipodi="http://sodipodi.sourceforge.net/DTD/sodipodi-0.dtd"
   xmlns="http://www.w3.org/2000/svg"
   xmlns:svg="http://www.w3.org/2000/svg"><defs
     id="defs6"><clipPath
       clipPathUnits="userSpaceOnUse"
       id="clipPath16"><path
         d="M 0,1543.849 H 2034.609 V 0 H 0 Z"
         id="path14" /></clipPath></defs><sodipodi:namedview
     id="namedview4"
     pagecolor="#ffffff"
     bordercolor="#666666"
     borderopacity="1.0"
     inkscape:pageshadow="2"
     inkscape:pageopacity="0.0"
     inkscape:pagecheckerboard="0"
     showgrid="false"
     inkscape:zoom="0.39446835"
     inkscape:cx="1270.0639"
     inkscape:cy="693.33826"
     inkscape:window-width="1920"
     inkscape:window-height="1001"
     inkscape:window-x="-9"
     inkscape:window-y="-9"
     inkscape:window-maximized="1"
     inkscape:current-layer="g8" /><g
     id="g8"
     inkscape:groupmode="layer"
     inkscape:label="illustrations_societe_nouvelle"
     transform="matrix(1.3333333,0,0,-1.3333333,-84.934531,1521.9248)"><g
       id="g10"
       inkscape:export-filename="C:\laragon\www\LaSocieteNouvelle-METRIZ-WebApp\public\resources\illu_societe-nouvelle.png"
       inkscape:export-xdpi="96"
       inkscape:export-ydpi="96"><g
         id="g12"
         clip-path="url(#clipPath16)"><g
           id="g18"
           transform="translate(199.5249,268.2758)"><path
             d="m 0,0 1083.875,3.249 48.847,0.135 63.841,0.175 6.285,0.016 h 0.01 l 20.24,0.055 11.491,0.032 20.071,0.055 8.682,0.025 168.606,0.469 c 0,0 4.396,53.538 -1.061,126.95 -1.504,20.121 -3.737,41.735 -7.007,64.151 -1.097,7.474 -2.303,15.036 -3.632,22.662 -2.297,13.154 -4.967,26.491 -8.074,39.883 -0.222,0.97 -0.45,1.947 -0.677,2.924 -3.486,14.759 -7.497,29.574 -12.114,44.268 -39.52,125.926 -128.037,390.718 -296.518,327.819 C 792.952,517.168 874.081,850.765 611.587,872.39 443.113,886.269 320.063,712.22 339.304,525.174 371.853,208.766 4.765,438.148 0,0"
             style="fill:#eaeaea;fill-opacity:1;fill-rule:nonzero;stroke:none"
             id="path20" /></g><g
           id="g22"
           transform="translate(1072.6412,402.3196)"><path
             d="m 0,0 36.864,364.058 h 72.756 c 44.998,0 78.963,-41.142 70.069,-85.251 -0.166,-0.828 -0.34,-1.663 -0.52,-2.507 C 161.134,191.943 108.208,51.714 126.244,0 Z"
             style="fill:#657285;fill-opacity:1;fill-rule:nonzero;stroke:none"
             id="path24" /></g><g
           id="g26"
           transform="translate(856.6229,488.3865)"><path
             d="m 0,0 c 15.004,73.649 32.819,167.152 45.625,233.34 5.018,25.929 27.717,44.651 54.126,44.651 h 178.251 c 34.217,0 60.17,-30.844 54.32,-64.556 L 289.286,-40.355 C 284.307,-69.048 257.874,-88.92 228.929,-85.732 L 47.986,-65.797 C 15.75,-62.245 -6.474,-31.779 0,0"
             style="fill:#b8c1c9;fill-opacity:1;fill-rule:nonzero;stroke:none"
             id="path28" /></g><g
           id="g30"
           transform="translate(1328.8655,346.2519)"><path
             d="m 0,0 c 2.347,-26.85 17.512,-35.143 24.177,-34.428 6.669,0.711 45.663,15.6 46.507,10.138 0.851,-5.463 -22.621,-23.312 -39.056,-24.146 0,0 31.034,-34.225 51.655,-24.347 20.627,9.878 22.384,25.534 35.242,31.406 12.857,5.872 23.829,5.856 18.522,-0.135 -5.307,-5.986 -28.577,-11.806 -35.926,-24.814 -1.735,-3.068 -3.43,-5.902 -4.726,-8.401 l 43.425,0.088 c 13.769,6.841 25.368,16.279 26.234,26.452 0.067,0.777 0.129,1.519 0.186,2.229 l 1.338,15.65 c 0,0 22.3,26.012 10.707,47.592 -1.923,3.587 -4.784,7.049 -8.837,10.251 0,0 -20.782,12.584 -37.729,11.557 0,0 13.133,-22.02 16.828,-35.106 1.306,-4.613 1.436,-8.116 -0.585,-9.158 -2.214,-1.145 -5.079,2.177 -8.044,7.505 -7.426,13.34 -15.475,39.289 -15.475,39.289 0,0 -12.494,1.213 -26.716,1.394 -6.38,0.083 -13.106,-0.042 -19.206,-0.576 -6.737,-0.59 -12.703,-1.684 -16.585,-3.55 0,0 0.85,-0.694 2.275,-1.886 2.12,-1.778 5.52,-4.659 9.298,-8.002 C 84.724,19.082 99.298,5.095 93.85,3.836 89.44,2.815 75.598,11.04 63.279,19.202 51.81,26.794 41.667,34.34 41.667,34.34 41.667,34.34 -2.348,26.851 0,0"
             style="fill:#b8c1c9;fill-opacity:1;fill-rule:nonzero;stroke:none"
             id="path32" /></g><g
           id="g34"
           transform="translate(1350.4908,345.5271)"><path
             d="m 0,0 c 0,0 119.552,4.607 145.953,-29.584 0,0 5.839,-17.486 23.806,-33.41 l 2.801,-7.633 c 0,0 -20.716,21.843 -28.129,23.165 0,0 11.593,42.358 -144.431,47.462"
             style="fill:#b8c1c9;fill-opacity:1;fill-rule:nonzero;stroke:none"
             id="path36" /></g><g
           id="g38"
           transform="translate(1515.2246,282.7295)"><path
             d="m 0,0 c 1.026,-1.124 2.561,-2.653 4.757,-4.68 l 0.047,-0.046 c 0.762,-0.705 1.503,-1.467 2.223,-2.275 1.11,-1.229 2.172,-2.571 3.188,-4.002 l 5.587,0.011 C 10.049,-3.913 5.027,-0.196 5.027,-0.196 c 0,0 -0.005,0.005 -0.016,0.01 C 4.576,0.078 -5.721,6.302 0,0"
             style="fill:#82b378;fill-opacity:1;fill-rule:nonzero;stroke:none"
             id="path40" /></g><g
           id="g42"
           transform="translate(1626.9509,360.4303)"><path
             d="m 0,0 c 0,0 -48.232,27.01 -25.723,63.667 0,0 18.006,22.508 37.3,28.297 0,0 -10.291,-54.664 0,-55.95 10.289,-1.286 7.073,61.738 7.073,61.738 0,0 50.805,24.438 70.742,22.509 0,0 -31.512,-53.378 -21.223,-52.092 10.29,1.286 45.661,55.307 45.661,55.307 0,0 52.091,9.647 60.452,-21.222 8.36,-30.869 -5.145,-46.304 -12.862,-48.233 -7.718,-1.93 -57.237,-1.287 -55.951,-7.718 1.287,-6.43 34.729,-16.72 53.378,-10.932 0,0 -20.578,-50.806 -47.589,-48.233 C 84.247,-10.29 75.887,6.431 59.166,7.717 42.445,9.004 30.226,4.501 38.587,0 c 8.36,-4.502 36.657,-1.475 50.162,-12.957 13.505,-11.481 24.438,-18.555 -0.643,-23.7 -25.081,-5.145 -70.099,-1.93 -79.102,17.364 z"
             style="fill:#d5d6da;fill-opacity:1;fill-rule:nonzero;stroke:none"
             id="path44" /></g><g
           id="g46"
           transform="translate(1777.4376,453.0372)"><path
             d="m 0,0 c 0,0 -135.051,-43.731 -150.487,-92.607 0,0 0.644,-21.866 -12.861,-46.947 v -9.647 c 0,0 14.148,32.799 21.865,37.301 0,0 -30.226,42.445 141.483,111.9"
             style="fill:#b8c1c9;fill-opacity:1;fill-rule:nonzero;stroke:none"
             id="path48" /></g><g
           id="g50"
           transform="translate(1601.5786,271.8305)"><path
             d="m 0,0 7.717,0.016 c 0.243,11.163 1.534,23.695 5.343,33.24 v 0.006 c 0.476,1.197 0.99,2.342 1.549,3.436 0.005,0.01 0.01,0.026 0.016,0.037 1.602,3.135 2.684,5.446 3.368,7.12 l 0.006,0.005 C 21.947,53.541 12.511,41.652 12.511,41.652 12.511,41.652 1.192,24.462 0,0"
             style="fill:#b8c1c9;fill-opacity:1;fill-rule:nonzero;stroke:none"
             id="path52" /></g><g
           id="g54"
           transform="translate(1550.2164,397.6812)"><path
             d="m 0,0 c 0,0 63.58,35.605 33.909,83.926 0,0 -23.736,29.67 -49.168,37.3 0,0 13.563,-72.058 0,-73.753 -13.564,-1.696 -9.325,81.382 -9.325,81.382 0,0 -66.971,32.214 -93.251,29.671 0,0 41.539,-70.362 27.976,-68.666 -13.565,1.695 -60.19,72.905 -60.19,72.905 0,0 -68.666,12.715 -79.686,-27.975 -11.021,-40.692 6.782,-61.037 16.954,-63.58 10.173,-2.544 75.448,-1.696 73.753,-10.173 -1.696,-8.478 -45.777,-22.042 -70.362,-14.412 0,0 27.128,-66.971 62.732,-63.58 35.605,3.391 46.625,25.433 68.667,27.128 22.041,1.696 38.147,-4.238 27.127,-10.173 -11.02,-5.934 -48.321,-1.944 -66.123,-17.079 -17.802,-15.135 -32.214,-24.46 0.848,-31.241 33.061,-6.783 92.402,-2.544 104.271,22.888 z"
             style="fill:#d5d6da;fill-opacity:1;fill-rule:nonzero;stroke:none"
             id="path56" /></g><g
           id="g58"
           transform="translate(1351.8468,519.7549)"><path
             d="m 0,0 c 0,0 178.024,-57.646 198.37,-122.074 0,0 -0.848,-28.823 16.954,-61.884 v -12.717 c 0,0 -18.65,43.235 -28.822,49.169 0,0 39.843,55.951 -186.502,147.506"
             style="fill:#b8c1c9;fill-opacity:1;fill-rule:nonzero;stroke:none"
             id="path60" /></g><g
           id="g62"
           transform="translate(1559.9312,338.7221)"><path
             d="m 0,0 c 0.005,-0.01 0.011,-0.015 0.011,-0.021 0.901,-2.212 2.332,-5.271 4.446,-9.411 0.006,-0.01 0.011,-0.016 0.016,-0.026 0.736,-1.436 1.409,-2.95 2.037,-4.519 0.005,0 0.005,-0.005 0.005,-0.011 6.094,-15.273 7.302,-36.35 7.074,-52.96 l 10.215,0.02 C 25.022,-29.93 7.24,-2.923 7.24,-2.923 L 7.235,-2.917 C 6.965,-2.581 -5.136,12.594 0,0"
             style="fill:#b8c1c9;fill-opacity:1;fill-rule:nonzero;stroke:none"
             id="path64" /></g><g
           id="g66"
           transform="translate(973.455,979.4539)"><path
             d="m 0,0 c 2.043,3.695 25.482,42.783 88.338,13.637 0,0 -32.214,11.752 -44.223,1.052 0,0 29.039,6.035 43.2,-7.798 14.161,-13.834 9.12,-48.356 4.306,-58.115 -4.814,-9.758 -30.01,-36.317 -42.049,-33.567 -4.56,1.041 -9.088,3.671 -12.958,6.537 0.597,-5.881 0.905,-12.193 0.802,-19.013 -0.956,-63.083 -51.408,-99.676 -69.514,-83.65 -11.613,10.278 -26.958,-10.647 -26.958,-10.647 l -76.77,171.09 c 0,0 97.781,74.666 135.826,20.474"
             style="fill:#131f2d;fill-opacity:1;fill-rule:nonzero;stroke:none"
             id="path68" /></g><g
           id="g70"
           transform="translate(794.4811,624.0484)"><path
             d="m 0,0 c 16.092,-11.164 36.271,-20.372 61.602,-26.216 94.953,-21.939 131.342,58.314 145.008,113.402 -12.948,7.41 -25.133,9.044 -32.17,9.883 -6.863,0.81 -14.08,1.348 -20.058,1.643 -10.662,8.168 -26.55,41.591 -30.064,93.487 L 119.852,191 45.017,170.519 c 0,0 3.428,-23.79 5.108,-46.273 1.299,-17.595 1.503,-34.408 -1.829,-38.523 -5.839,-1.268 -9.344,-2.095 -9.344,-2.095 0,0 -0.005,-0.025 -0.038,-0.07 C 37.909,81.912 16.199,46.207 0,0"
             style="fill:#e6b180;fill-opacity:1;fill-rule:nonzero;stroke:none"
             id="path72" /></g><g
           id="g74"
           transform="translate(839.4938,794.5528)"><path
             d="m 0,0 c 0,0 3.441,-23.768 5.107,-46.271 42.398,4.244 62.073,44.61 69.734,66.751 z"
             style="fill:#bc906c;fill-opacity:1;fill-rule:nonzero;stroke:none"
             id="path76" /></g><g
           id="g78"
           transform="translate(816.3561,786.3197)"><path
             d="m 0,0 c 0,0 97.873,-24.058 111.917,37.122 14.044,61.181 36.135,99.279 -25.76,117.227 C 24.261,172.297 6.718,151.748 -2.937,132.467 -12.592,113.186 -25.097,7.835 0,0"
             style="fill:#e6b180;fill-opacity:1;fill-rule:nonzero;stroke:none"
             id="path80" /></g><g
           id="g82"
           transform="translate(824.1118,952.1457)"><path
             d="m 0,0 c 19.39,14.938 29.944,8.278 35.11,1.276 60.44,17.256 94.613,-33.012 94.613,-33.012 -3.457,-45.409 12.922,-79.077 12.922,-79.077 0,0 -20.433,-6.971 -59.289,13.073 -11.869,6.122 -21.08,17.656 -28.167,30.711 10.31,-31.819 28.44,-57.188 28.44,-57.188 -44.102,34.056 -48.241,107.159 -48.556,114.861 -7.229,-4.016 -21.722,-13.016 -27.944,-23.66 -8.457,-14.465 -17.987,-46.041 -27.088,-42.815 0,0 -9.12,53.427 19.959,75.831"
             style="fill:#131f2d;fill-opacity:1;fill-rule:nonzero;stroke:none"
             id="path84" /></g><g
           id="g86"
           transform="translate(794.4847,699.8464)"><path
             d="m 0,0 c 13.672,7.272 31.252,12.664 50.383,16.636 0,0 9.856,-25.392 39.91,-24.842 28.552,0.524 56.801,32.105 59.55,35.249 32.714,1.05 56.76,0.016 56.76,0.016 0,0 68.898,-107.816 60.371,-132.781 -5.622,-16.455 -10.046,-32.713 -13.493,-48.529 -16.028,-73.55 -10.956,-137.606 -6.877,-167.603 1.576,-11.597 3.004,-18.105 3.004,-18.105 L 32.59,-344.998 c 0,0 -17.981,64.007 -31.31,118.616 -0.402,1.643 -0.796,3.276 -1.189,4.892 -9.037,-18.622 -34.675,-46.624 -46.28,-48.824 -0.698,-0.131 -3.948,-0.205 -8.634,-0.246 -17.374,-0.14 -50.993,-0.374 -50.993,-0.374 C -112.275,-219.475 -28.224,-12.244 0,0"
             style="fill:#5262bc;fill-opacity:1;fill-rule:nonzero;stroke:none"
             id="path88" /></g><g
           id="g90"
           transform="translate(1041.0887,377.9928)"><path
             d="m 0,0 c -4.079,29.996 -9.151,94.053 6.877,167.603 -0.065,0.854 -0.098,1.305 -0.098,1.305 0,0 -59.37,-56.718 -69.628,-116.022 C -69.85,12.401 -27.108,1.847 0,0"
             style="fill:#3f4d89;fill-opacity:1;fill-rule:nonzero;stroke:none"
             id="path92" /></g><g
           id="g94"
           transform="translate(872.3027,429.3111)"><path
             d="m 0,0 c 1.232,3.911 21.405,25.557 32.073,28.018 10.67,2.463 45.892,-5.64 45.892,-5.64 l 0.002,-0.002 c 21.853,2.911 71.692,10.731 130.065,27.679 10.283,2.987 20.829,6.253 31.539,9.832 l -88.906,80.157 -78.64,157.534 c 0,0 61.426,-4.863 78.308,-14.924 60.731,-36.193 178.506,-237.335 176.372,-281.086 0,0 -28.503,-1.575 -80.56,-2.232 -40.001,-0.518 -93.642,-1.979 -159.216,-0.297 0,0 -7.328,-1.293 -14.904,-0.296 z"
             style="fill:#e6b180;fill-opacity:1;fill-rule:nonzero;stroke:none"
             id="path96" /></g><g
           id="g98"
           transform="translate(983.9832,606.1963)"><path
             d="m 0,0 117.403,-117.943 c -7.728,-2.924 -15.794,-7.099 -21.051,-8.888 0,0 7.164,-30.842 38.113,-50.719 52.057,0.657 81.254,0.664 81.254,0.664 2.135,43.751 -111.078,256.585 -171.81,292.778 -16.882,10.062 -83.564,4.801 -83.564,4.801 z"
             style="fill:#5262bc;fill-opacity:1;fill-rule:nonzero;stroke:none"
             id="path100" /></g><g
           id="g102"
           transform="translate(688.6688,428.9127)"><path
             d="m 0,0 c 4.686,0.042 58.929,0.489 59.627,0.62 11.605,2.199 37.243,30.202 46.28,48.824 0.393,-1.617 -2.874,17.628 -5.91,25.433 -6.557,16.824 -15.29,31.096 -15.29,31.096 C 53.537,110.668 -0.082,29.603 0,0"
             style="fill:#3f4d89;fill-opacity:1;fill-rule:nonzero;stroke:none"
             id="path104" /></g><g
           id="g106"
           transform="translate(690.5178,477.8227)"><path
             d="m 0,0 c 6.911,52.353 21.667,143.04 50.695,247.417 l 0.179,0.014 c 1.708,6.587 15.176,58.022 20.808,63.655 6.019,6.018 37.753,18.629 43.224,19.984 0,0 0.889,-3.639 -2.393,-6.511 -0.96,-0.839 -2.796,-2.134 -5.015,-3.597 l 7.517,-4.044 c 0,0 -2.821,-2.462 -7.026,-1.846 -2.008,0.293 -4.736,1.043 -7.044,1.747 -1.559,-0.953 -3.093,-1.87 -4.492,-2.686 -2.366,-2.239 -5.168,-5.058 -5.411,-6.072 -0.286,-1.194 -1.305,-6.46 -1.943,-9.79 1.163,1.029 2.165,2.08 2.817,3.088 3.01,4.65 9.301,4.172 9.301,4.172 0,0 -8.613,-10.821 -9.428,-17.835 -1.241,-10.685 -7.205,-16.282 -7.205,-16.282 v 0.001 C 82.39,268.834 79.307,266.521 76.699,261.11 74.79,257.15 74.04,249.57 73.513,245.201 l -0.003,0.001 C 72.219,229.426 67.795,171.282 69.005,128.464 70.63,70.843 76.088,19.196 69.612,-12.852 67.938,-21.15 65.468,-28.133 61.922,-33.566 47.798,-55.233 -1.849,-48.91 -1.849,-48.91 c 0,0 -2.131,18.741 1.849,48.91"
             style="fill:#e6b180;fill-opacity:1;fill-rule:nonzero;stroke:none"
             id="path108" /></g><g
           id="g110"
           transform="translate(688.6688,428.9127)"><path
             d="m 0,0 c 0,0 49.647,-6.323 63.771,15.343 3.546,5.434 6.016,12.417 7.69,20.714 C 60.817,33.39 31.682,28.885 1.849,48.91 -2.131,18.741 0,0 0,0"
             style="fill:#5262bc;fill-opacity:1;fill-rule:nonzero;stroke:none"
             id="path112" /></g><g
           id="g114"
           transform="translate(840.1478,443.6189)"><path
             d="m 0,0 c 7.902,0 14.308,-6.405 14.308,-14.308 h -179.5 V 0 Z"
             style="fill:#131f2d;fill-opacity:1;fill-rule:nonzero;stroke:none"
             id="path116" /></g><g
           id="g118"
           transform="translate(675.473,624.8027)"><path
             d="m 0,0 h -277.52 l 66.566,-195.492 H 68.365 Z"
             style="fill:#131f2d;fill-opacity:1;fill-rule:nonzero;stroke:none"
             id="path120" /></g><g
           id="g122"
           transform="translate(671.3848,624.806)"><path
             d="M 0,0 68.368,-195.494 H -210.953 L -277.517,0 Z"
             style="fill:#131f2d;fill-opacity:1;fill-rule:nonzero;stroke:none"
             id="path124" /></g><g
           id="g126"
           transform="translate(411.7104,272.4909)"><path
             d="m 0,0 h 985.056 l -25.415,79.603 c -14.8,46.346 -53.646,77.216 -97.164,77.216 H 93.829 c -32.022,0 -60.177,-24.018 -69.021,-58.892 z"
             style="fill:#364154;fill-opacity:1;fill-rule:nonzero;stroke:none"
             id="path128" /></g><g
           id="g130"
           transform="translate(214.9277,272.4909)"><path
             d="m 0,0 h 950.107 l 1.836,40.121 c 2.921,63.443 -41.712,116.698 -97.802,116.698 H 93.816 c -32.022,0 -60.177,-24.018 -69.009,-58.892 z"
             style="fill:#657285;fill-opacity:1;fill-rule:nonzero;stroke:none"
             id="path132" /></g><g
           id="g134"
           transform="translate(1794.7899,268.2732)"><path
             d="m 0,0 h -1728.429 c -1.463,0 -2.66,1.197 -2.66,2.659 V 5.77 c 0,1.463 1.197,2.66 2.66,2.66 H -0.001 c 1.463,0 2.66,-1.197 2.66,-2.66 V 2.659 C 2.659,1.197 1.463,0 0,0"
             style="fill:#131f2d;fill-opacity:1;fill-rule:nonzero;stroke:none"
             id="path136" /></g></g></g></g></svg>
