<?xml version="1.0" encoding="UTF-8" standalone="no"?>
<!-- Created with Inkscape (http://www.inkscape.org/) -->

<svg
   version="1.1"
   id="svg2"
   xml:space="preserve"
   width="3680"
   height="2453.3333"
   viewBox="0 0 3680 2453.3333"
   sodipodi:docname="illu_etape_1.svg"
   inkscape:version="1.1 (c68e22c387, 2021-05-23)"
   xmlns:inkscape="http://www.inkscape.org/namespaces/inkscape"
   xmlns:sodipodi="http://sodipodi.sourceforge.net/DTD/sodipodi-0.dtd"
   xmlns="http://www.w3.org/2000/svg"
   xmlns:svg="http://www.w3.org/2000/svg"><defs
     id="defs6"><clipPath
       clipPathUnits="userSpaceOnUse"
       id="clipPath16"><path
         d="M 0,1840 H 2760 V 0 H 0 Z"
         id="path14" /></clipPath></defs><sodipodi:namedview
     id="namedview4"
     pagecolor="#ffffff"
     bordercolor="#666666"
     borderopacity="1.0"
     inkscape:pageshadow="2"
     inkscape:pageopacity="0.0"
     inkscape:pagecheckerboard="0"
     showgrid="false"
     inkscape:zoom="0.33097827"
     inkscape:cx="1839.9999"
     inkscape:cy="1228.1773"
     inkscape:window-width="1920"
     inkscape:window-height="1001"
     inkscape:window-x="-9"
     inkscape:window-y="-9"
     inkscape:window-maximized="1"
     inkscape:current-layer="g8" /><g
     id="g8"
     inkscape:groupmode="layer"
     inkscape:label="illu_etape_1"
     transform="matrix(1.3333333,0,0,-1.3333333,0,2453.3333)"><g
       id="g10"><g
         id="g12"
         clip-path="url(#clipPath16)"><g
           id="g18"
           transform="translate(573.0735,348.4589)"><path
             d="m 0,0 c 0.448,8.213 -182.983,254.824 30.628,482.514 96.428,102.784 259.541,47.093 233.738,347.35 -22.277,259.246 362.5,411.578 601.634,180.115 154.499,-149.544 310.908,49.953 556.014,-63.241 245.105,-113.193 83.704,-420.851 184.281,-449.841 198.125,-57.105 296.526,-308.406 138.567,-494.109 z"
             style="fill:#ebf3fa;fill-opacity:1;fill-rule:nonzero;stroke:none"
             id="path20" /></g><g
           id="g22"
           transform="translate(1332.5181,1488.8057)"><path
             d="m 0,0 c -0.025,-0.002 -3.669,-0.3 -9.823,-1.151 l -0.735,5.295 c 6.35,0.881 10.018,1.177 10.13,1.186 z m -29.482,-4.493 -1.048,5.244 c 3.327,0.665 6.676,1.285 9.956,1.844 l 0.898,-5.271 c -3.23,-0.551 -6.529,-1.162 -9.806,-1.817 m -19.436,-4.448 -1.339,5.177 c 3.234,0.836 6.54,1.642 9.831,2.395 l 1.194,-5.213 c -3.243,-0.741 -6.502,-1.535 -9.686,-2.359 m -19.129,-5.547 -1.642,5.089 c 3.174,1.024 6.43,2.02 9.674,2.96 l 1.49,-5.134 c -3.194,-0.927 -6.398,-1.908 -9.522,-2.915 m -18.721,-6.72 -1.974,4.969 c 3.082,1.225 6.269,2.429 9.471,3.578 l 1.806,-5.033 c -3.146,-1.129 -6.276,-2.311 -9.303,-3.514 m -18.17,-8.008 -2.344,4.805 c 2.979,1.453 6.073,2.887 9.194,4.262 l 2.155,-4.893 c -3.057,-1.347 -6.088,-2.751 -9.005,-4.174 m -17.418,-9.445 -2.76,4.579 c 2.842,1.713 5.807,3.407 8.813,5.035 l 2.547,-4.703 c -2.934,-1.588 -5.828,-3.241 -8.6,-4.911 m -16.361,-11.019 -3.22,4.269 c 2.653,2.001 5.435,3.981 8.269,5.887 l 2.985,-4.437 c -2.756,-1.853 -5.459,-3.775 -8.034,-5.719 m -14.97,-12.757 -3.716,3.845 c 2.397,2.318 4.933,4.616 7.535,6.828 l 3.465,-4.071 c -2.516,-2.14 -4.966,-4.361 -7.284,-6.602 m 8.886,-12.093 -0.867,5.276 c 3.394,0.556 6.783,1.015 10.087,1.361 l 0.557,-5.318 c -3.205,-0.336 -6.488,-0.779 -9.777,-1.319 m 29.424,2.085 c -3.187,0.101 -6.495,0.086 -9.825,-0.048 l -0.215,5.342 c 3.458,0.139 6.895,0.156 10.211,0.05 z m -48.72,-6.329 -1.059,3.854 c -0.566,-0.697 -1.123,-1.399 -1.669,-2.101 l -4.221,3.282 c 2.058,2.645 4.262,5.275 6.556,7.818 l 3.97,-3.581 c -1.073,-1.191 -2.126,-2.4 -3.153,-3.622 2.677,0.708 5.367,1.361 8.021,1.946 l 1.153,-5.221 c -3.177,-0.701 -6.405,-1.5 -9.598,-2.375 m 68.118,4.044 c -3.072,0.664 -6.31,1.194 -9.628,1.577 l 0.613,5.311 c 3.49,-0.401 6.902,-0.96 10.141,-1.659 z m -105.098,-18.048 -2.339,4.808 c 3.03,1.475 6.132,2.898 9.217,4.232 l 2.121,-4.908 c -3.012,-1.302 -6.04,-2.694 -8.999,-4.132 m 123.306,11.72 c -2.74,1.41 -5.72,2.672 -8.86,3.748 l 1.735,5.059 c 3.382,-1.161 6.604,-2.523 9.573,-4.052 z m -99.841,-12.294 -4.681,2.584 c 1.444,2.617 3.007,5.224 4.654,7.764 -1.76,-0.616 -3.522,-1.258 -5.264,-1.919 l -1.897,4.999 c 3.161,1.2 6.379,2.338 9.567,3.38 l 1.663,-5.082 c -0.894,-0.292 -1.789,-0.592 -2.685,-0.898 l 3.713,-2.456 c -1.803,-2.726 -3.509,-5.544 -5.07,-8.372 m -40.88,-8.857 -2.75,4.586 c 2.888,1.73 5.85,3.419 8.807,5.022 l 2.547,-4.703 c -2.888,-1.564 -5.784,-3.215 -8.604,-4.905 m -16.529,-10.91 -3.136,4.33 c 2.73,1.976 5.534,3.917 8.337,5.766 l 2.945,-4.461 c -2.737,-1.808 -5.479,-3.704 -8.146,-5.635 m 172.132,20.502 c -1.969,2.338 -4.265,4.521 -6.824,6.488 l 3.258,4.239 c 2.862,-2.2 5.437,-4.65 7.656,-7.281 z m -122.744,-18.555 -5.039,1.79 c 1.139,3.204 2.421,6.393 3.809,9.478 l 4.877,-2.196 c -1.33,-2.952 -2.557,-6.005 -3.647,-9.072 m -64.896,-14.254 -3.506,4.037 c 2.536,2.201 5.16,4.379 7.801,6.475 l 3.324,-4.189 c -2.58,-2.046 -5.143,-4.174 -7.619,-6.323 m 195.934,16.188 c -0.722,3.094 -1.786,6.06 -3.156,8.814 l 4.786,2.384 c 1.556,-3.125 2.76,-6.484 3.576,-9.982 z m -136.087,-20.821 -5.257,0.973 c 0.62,3.352 1.374,6.7 2.243,9.953 l 5.166,-1.379 c -0.832,-3.119 -1.557,-6.331 -2.152,-9.547 m -74.204,-8.994 -3.85,3.71 c 2.337,2.426 4.757,4.828 7.195,7.142 l 3.681,-3.88 c -2.38,-2.258 -4.744,-4.605 -7.026,-6.972 m -13.069,-14.857 -4.17,3.344 c 2.101,2.622 4.295,5.234 6.521,7.764 l 4.014,-3.532 c -2.173,-2.469 -4.313,-5.018 -6.365,-7.576 m 229.637,25.133 -5.328,0.459 c 0.275,3.192 0.356,6.446 0.24,9.675 l 5.343,0.194 c 0.125,-3.447 0.038,-6.921 -0.255,-10.328 m -144.503,-20.766 -5.343,0.208 c 0.133,3.417 0.384,6.838 0.748,10.164 l 5.315,-0.58 c -0.349,-3.204 -0.592,-6.498 -0.72,-9.792 m -96.786,-20.353 -4.463,2.948 c 1.848,2.799 3.794,5.6 5.783,8.328 l 4.321,-3.15 c -1.94,-2.661 -3.84,-5.394 -5.641,-8.126 m 236.996,20.937 -5.055,1.742 c 1.054,3.059 1.926,6.196 2.593,9.327 l 5.229,-1.112 c -0.711,-3.344 -1.641,-6.693 -2.767,-9.957 m -144.615,-20.875 c -0.144,0.931 -0.276,1.876 -0.392,2.839 -0.288,2.389 -0.486,4.891 -0.584,7.435 l 5.344,0.208 c 0.093,-2.399 0.278,-4.756 0.549,-7.004 0.108,-0.899 0.232,-1.784 0.367,-2.655 z m -102.51,-17.051 -4.715,2.523 c 1.587,2.966 3.266,5.937 4.988,8.827 l 4.594,-2.739 c -1.682,-2.819 -3.318,-5.716 -4.867,-8.611 m 238.189,19.365 -4.525,2.849 c 1.735,2.758 3.32,5.614 4.707,8.491 l 4.816,-2.325 c -1.474,-3.055 -3.156,-6.088 -4.998,-9.015 m -129.374,-22.144 c -1.572,2.993 -2.911,6.256 -3.98,9.697 l 5.106,1.588 c 0.973,-3.132 2.188,-6.093 3.608,-8.8 z m -117.333,-15.07 -4.927,2.078 c 1.311,3.106 2.709,6.217 4.155,9.247 l 4.826,-2.303 c -1.411,-2.957 -2.775,-5.991 -4.054,-9.022 m 233.996,21.066 -3.845,3.716 c 2.27,2.348 4.428,4.817 6.415,7.337 l 4.2,-3.313 c -2.099,-2.659 -4.376,-5.263 -6.77,-7.74 m -103.066,-22.057 c -2.838,2.107 -5.438,4.555 -7.725,7.275 l 4.091,3.441 c 2.021,-2.402 4.316,-4.562 6.82,-6.424 z m -137.791,-17.565 -5.093,1.629 c 1.026,3.214 2.138,6.436 3.299,9.581 l 5.014,-1.855 c -1.133,-3.069 -2.216,-6.216 -3.22,-9.355 m 225.256,26.298 -3.076,4.375 c 2.664,1.873 5.262,3.885 7.716,5.982 l 3.473,-4.066 c -2.582,-2.205 -5.313,-4.322 -8.113,-6.291 m -17.807,-10.183 -2.204,4.871 c 2.938,1.33 5.863,2.825 8.694,4.445 l 2.657,-4.64 c -2.977,-1.704 -6.053,-3.277 -9.147,-4.676 m -50.468,-7.083 c -3.514,0.767 -6.886,1.854 -10.021,3.23 l 2.148,4.897 c 2.813,-1.234 5.845,-2.21 9.014,-2.903 z m 30.97,0.543 -1.149,5.223 c 3.102,0.682 6.255,1.561 9.37,2.611 l 1.708,-5.066 c -3.298,-1.113 -6.638,-2.042 -9.929,-2.768 m -10.214,-1.615 c -3.529,-0.335 -7.024,-0.425 -10.386,-0.267 l 0.251,5.341 c 3.111,-0.146 6.352,-0.062 9.63,0.249 z m -182.929,-27.057 -5.215,1.178 c 0.743,3.289 1.565,6.598 2.442,9.83 l 5.161,-1.401 c -0.858,-3.161 -1.662,-6.392 -2.388,-9.607 m -3.459,-19.456 -5.309,0.643 c 0.398,3.283 0.904,6.622 1.504,9.924 l 5.289,-0.805 -0.039,-0.208 c -0.57,-3.142 -1.06,-6.375 -1.445,-9.554 m -1.133,-19.656 -5.347,-0.041 c -0.024,3.358 0.063,6.786 0.261,10.193 l 5.338,-0.31 c -0.192,-3.29 -0.276,-6.602 -0.252,-9.842 m -3.799,-20.378 c -0.18,1.226 -0.346,2.457 -0.494,3.694 -0.258,2.139 -0.471,4.309 -0.633,6.451 l 5.332,0.404 c 0.155,-2.065 0.36,-4.156 0.608,-6.215 0.144,-1.191 0.303,-2.374 0.478,-3.553 z m 4.447,-19.916 c -0.979,3.225 -1.851,6.549 -2.594,9.88 l 5.219,1.163 c 0.713,-3.201 1.552,-6.393 2.491,-9.49 z m 476.661,51.99 -0.946,5.263 c 3.328,0.599 6.691,1.136 9.996,1.597 l 0.74,-5.295 c -3.237,-0.453 -6.531,-0.98 -9.79,-1.565 m 29.504,3.515 c -3.27,-0.189 -6.593,-0.448 -9.874,-0.774 l -0.527,5.322 c 3.354,0.332 6.75,0.598 10.093,0.79 z m -48.884,-7.747 -1.33,5.178 c 3.261,0.838 6.571,1.625 9.84,2.34 l 1.143,-5.221 c -3.205,-0.703 -6.454,-1.476 -9.653,-2.297 m 68.675,8.037 c -3.264,0.094 -6.593,0.117 -9.897,0.068 l -0.079,5.346 c 3.381,0.051 6.791,0.027 10.13,-0.068 z m -87.722,-13.635 -1.678,5.077 c 3.21,1.061 6.456,2.075 9.647,3.014 l 1.51,-5.13 c -3.136,-0.923 -6.324,-1.918 -9.479,-2.961 m 107.454,12.182 c -3.259,0.389 -6.573,0.708 -9.849,0.949 l 0.391,5.333 c 3.357,-0.247 6.753,-0.573 10.09,-0.973 z m -126.109,-19.016 -1.993,4.962 c 3.132,1.258 6.304,2.477 9.43,3.622 l 1.84,-5.02 c -3.074,-1.128 -6.195,-2.327 -9.277,-3.564 m 145.616,15.766 c -3.199,0.687 -6.468,1.311 -9.716,1.851 l 0.878,5.275 c 3.329,-0.555 6.681,-1.194 9.961,-1.898 z m -557.778,-70.123 c -1.474,3.051 -2.846,6.204 -4.079,9.373 l 4.981,1.941 c 1.184,-3.039 2.5,-6.063 3.913,-8.989 z m 393.938,46.413 -2.275,4.84 c 3.052,1.433 6.145,2.835 9.194,4.166 l 2.137,-4.903 c -3.002,-1.309 -6.05,-2.689 -9.056,-4.103 m 182.956,18.653 c -3.127,0.988 -6.323,1.914 -9.498,2.754 l 1.368,5.17 c 3.257,-0.861 6.535,-1.813 9.741,-2.826 z m -200.732,-27.59 -2.525,4.713 c 2.96,1.586 5.971,3.149 8.952,4.65 l 2.404,-4.777 c -2.941,-1.479 -5.911,-3.022 -8.831,-4.586 m 219.283,20.742 c -3.026,1.284 -6.119,2.509 -9.194,3.644 l 1.853,5.017 c 3.153,-1.164 6.326,-2.422 9.428,-3.738 z m -236.598,-30.567 -2.747,4.588 c 2.88,1.726 5.81,3.434 8.707,5.079 l 2.64,-4.65 c -2.861,-1.624 -5.754,-3.312 -8.6,-5.017 m -348.521,-45.299 c -1.941,2.781 -3.797,5.68 -5.514,8.616 l 4.615,2.701 c 1.645,-2.815 3.424,-5.592 5.282,-8.257 z m 331.664,34.688 -2.945,4.463 c 2.82,1.861 5.67,3.698 8.467,5.461 l 2.85,-4.526 c -2.766,-1.741 -5.583,-3.557 -8.372,-5.398 m 271.273,32.598 c -2.884,1.563 -5.847,3.077 -8.807,4.502 l 2.32,4.819 c 3.036,-1.462 6.076,-3.016 9.034,-4.619 z M 8.751,-335.1 l -3.123,4.34 c 2.73,1.963 5.5,3.916 8.232,5.802 l 3.037,-4.401 c -2.704,-1.867 -5.446,-3.798 -8.146,-5.741 m -302.269,-39.138 c -2.363,2.44 -4.653,5.005 -6.808,7.622 l 4.126,3.4 c 2.065,-2.508 4.262,-4.965 6.526,-7.304 z m 606.874,72.82 c -2.723,1.828 -5.53,3.617 -8.341,5.317 l 2.765,4.575 c 2.886,-1.743 5.764,-3.578 8.558,-5.454 z m -320.581,-45.631 -3.263,4.237 0.793,0.611 c 2.405,1.861 4.809,3.691 7.205,5.484 l 3.204,-4.28 c -2.372,-1.777 -4.753,-3.589 -7.143,-5.437 z m 336.461,33.839 c -2.535,2.077 -5.159,4.123 -7.799,6.085 l 3.188,4.292 c 2.707,-2.011 5.4,-4.11 8.001,-6.243 z m -607.449,-74.542 c -2.718,2.049 -5.382,4.223 -7.92,6.461 l 3.538,4.01 c 2.435,-2.15 4.991,-4.234 7.6,-6.199 z m 254.754,28.756 -3.071,4.377 c 2.684,1.883 5.404,3.838 8.086,5.812 l 3.169,-4.306 c -2.713,-1.998 -5.467,-3.978 -8.184,-5.883 m -16.781,-11.185 -2.856,4.522 c 2.766,1.745 5.574,3.568 8.349,5.418 l 2.966,-4.45 c -2.811,-1.875 -5.658,-3.721 -8.459,-5.49 m -220.786,-28.584 c -2.994,1.617 -5.953,3.362 -8.798,5.182 l 2.883,4.503 c 2.734,-1.75 5.579,-3.426 8.458,-4.981 z m 604.941,72.297 c -2.324,2.313 -4.739,4.603 -7.179,6.805 l 3.584,3.97 c 2.503,-2.261 4.981,-4.612 7.367,-6.985 z m -401.494,-54.035 -2.61,4.666 c 2.859,1.6 5.756,3.275 8.613,4.975 l 2.735,-4.594 c -2.896,-1.727 -5.837,-3.423 -8.738,-5.047 m -184.861,-26.651 c -3.195,1.18 -6.371,2.481 -9.439,3.865 l 2.198,4.873 c 2.956,-1.332 6.016,-2.586 9.094,-3.724 z m 166.963,17.303 -2.335,4.811 c 2.944,1.428 5.93,2.931 8.877,4.474 l 2.477,-4.74 c -2.994,-1.565 -6.029,-3.093 -9.019,-4.545 m 432.687,48.754 c -2.071,2.525 -4.245,5.042 -6.463,7.481 l 3.956,3.597 c 2.278,-2.507 4.513,-5.091 6.642,-7.687 z m -580.118,-71.837 c -3.327,0.755 -6.645,1.618 -9.858,2.569 l 1.516,5.128 c 3.103,-0.917 6.309,-1.752 9.524,-2.482 z m 128.984,14.837 -2.021,4.95 c 3.027,1.239 6.099,2.552 9.13,3.907 l 2.182,-4.88 c -3.082,-1.379 -6.209,-2.717 -9.291,-3.977 m -18.975,-6.995 -1.667,5.081 c 3.102,1.019 6.254,2.117 9.368,3.268 l 1.85,-5.018 c -3.173,-1.171 -6.387,-2.292 -9.551,-3.331 m -89.934,-11.114 c -3.382,0.346 -6.774,0.795 -10.084,1.334 l 0.859,5.277 c 3.205,-0.522 6.494,-0.957 9.772,-1.293 z m 70.478,5.537 -1.269,5.194 c 3.169,0.775 6.393,1.632 9.578,2.546 l 1.476,-5.139 c -3.254,-0.935 -6.546,-1.81 -9.785,-2.601 m -50.184,-6.482 c -3.401,-0.025 -6.818,0.04 -10.156,0.193 l 0.246,5.342 c 3.242,-0.15 6.562,-0.212 9.87,-0.187 z m 30.313,2.507 -0.819,5.285 c 3.217,0.499 6.496,1.082 9.748,1.734 l 1.051,-5.244 c -3.329,-0.666 -6.687,-1.264 -9.98,-1.775 m -10.055,-1.323 c -3.382,-0.363 -6.783,-0.648 -10.111,-0.843 l -0.314,5.337 c 3.241,0.191 6.557,0.468 9.852,0.824 z m 531.175,58.952 c -1.771,2.716 -3.661,5.447 -5.623,8.116 l 4.311,3.165 c 2.02,-2.75 3.968,-5.563 5.792,-8.361 z m 9.722,-17.13 c -1.399,2.89 -2.944,5.823 -4.589,8.712 l 4.649,2.643 c 1.701,-2.991 3.301,-6.026 4.752,-9.022 z"
             style="fill:#8c9df4;fill-opacity:1;fill-rule:nonzero;stroke:none"
             id="path24" /></g><path
           d="m 1358.515,353.637 h -212.718 v 546.246 h 212.718 z"
           style="fill:#bdd1f9;fill-opacity:1;fill-rule:nonzero;stroke:none"
           id="path26" /><path
           d="m 1689.439,353.637 h -212.718 v 724.792 h 212.718 z"
           style="fill:#bdd1f9;fill-opacity:1;fill-rule:nonzero;stroke:none"
           id="path28" /><path
           d="m 2010.532,353.637 h -232.921 v 917.484 h 232.921 z"
           style="fill:#bdd1f9;fill-opacity:1;fill-rule:nonzero;stroke:none"
           id="path30" /><g
           id="g32"
           transform="translate(1584.7075,1457.6093)"><path
             d="m 0,0 c -12.342,-3.083 -24.126,-6.026 -35.146,-7.912 -35.69,-6.104 -63.262,-1.069 -75.146,46.507 -11.884,47.582 10.083,64.99 44.449,76.385 10.614,3.517 22.399,6.46 34.739,9.543 26.382,6.59 55.58,3.681 78.833,-3.954 C 70.604,113.051 87.721,100.96 90.755,88.811 94.211,74.977 84.792,56.243 68.033,39.277 50.998,22.017 26.381,6.589 0,0"
             style="fill:#739af0;fill-opacity:1;fill-rule:nonzero;stroke:none"
             id="path34" /></g><g
           id="g36"
           transform="translate(1518.8647,1572.5894)"><path
             d="m 0,0 -40.538,26.473 -63.996,-13.636 66.471,-46.699 z"
             style="fill:#163560;fill-opacity:1;fill-rule:nonzero;stroke:none"
             id="path38" /></g><g
           id="g40"
           transform="translate(1549.4644,1450.0858)"><path
             d="m 0,0 -23.33,-42.426 -62.892,-18.056 36.706,72.469 z"
             style="fill:#163560;fill-opacity:1;fill-rule:nonzero;stroke:none"
             id="path42" /></g><g
           id="g44"
           transform="translate(1549.561,1449.6971)"><path
             d="m 0,0 c -35.689,-6.103 -63.262,-1.069 -75.146,46.507 -11.883,47.582 10.083,64.99 44.45,76.385 z"
             style="fill:#163560;fill-opacity:1;fill-rule:nonzero;stroke:none"
             id="path46" /></g><g
           id="g48"
           transform="translate(1391.0874,1475.3936)"><path
             d="M 0,0 C 0,0 17.814,41.51 49.001,35.117 80.814,28.598 76.806,-5.68 52.932,-8.825 29.058,-11.97 13.927,3.478 0,0"
             style="fill:#f77d48;fill-opacity:1;fill-rule:nonzero;stroke:none"
             id="path50" /></g><g
           id="g52"
           transform="translate(1580.8003,1556.433)"><path
             d="m 0,0 c 16.482,4.117 33.181,-5.907 37.297,-22.389 4.117,-16.482 -5.907,-33.18 -22.389,-37.297 -16.481,-4.116 -33.18,5.907 -37.297,22.389 C -26.505,-20.815 -16.481,-4.117 0,0"
             style="fill:#163560;fill-opacity:1;fill-rule:nonzero;stroke:none"
             id="path54" /></g><g
           id="g56"
           transform="translate(1588.2515,1555.3026)"><path
             d="m 0,0 c -2.297,0 -4.628,-0.278 -6.954,-0.86 -7.44,-1.858 -13.71,-6.502 -17.658,-13.077 -3.945,-6.574 -5.097,-14.292 -3.238,-21.733 3.836,-15.357 19.454,-24.734 34.81,-20.895 7.44,1.857 13.711,6.502 17.658,13.077 3.946,6.575 5.097,14.293 3.238,21.733 C 24.601,-8.724 12.864,0 0,0 m 0.005,-61.526 c -14.701,0 -28.113,9.968 -31.835,24.863 -4.384,17.552 6.329,35.399 23.883,39.783 17.548,4.385 35.398,-6.329 39.782,-23.882 2.124,-8.502 0.811,-17.323 -3.701,-24.838 -4.511,-7.513 -11.678,-12.821 -20.18,-14.945 -2.658,-0.664 -5.325,-0.981 -7.949,-0.981"
             style="fill:#bdd1f9;fill-opacity:1;fill-rule:nonzero;stroke:none"
             id="path58" /></g><g
           id="g60"
           transform="translate(1652.7407,1496.8866)"><path
             d="M 0,0 -20.304,81.292 C 2.57,73.774 19.687,61.683 22.722,49.534 26.178,35.7 16.759,16.966 0,0"
             style="fill:#f77d48;fill-opacity:1;fill-rule:nonzero;stroke:none"
             id="path62" /></g><g
           id="g64"
           transform="translate(1485.1011,1159.0653)"><path
             d="m 0,0 c -15.354,7.965 -27.657,2.959 -27.657,2.959 -46.977,5.518 -60.682,-49.27 -60.044,-68.122 0.628,-18.849 2.787,-39.098 -18.193,-63.588 -60.601,-70.741 66.319,-73.861 66.319,-73.861 1.072,56.519 68.825,35.896 65.855,30.17 C 113.133,-193.286 34.916,-18.115 0,0"
             style="fill:#163560;fill-opacity:1;fill-rule:nonzero;stroke:none"
             id="path66" /></g><g
           id="g68"
           transform="translate(1303.8853,923.4355)"><path
             d="m 0,0 c 0,0 -8.262,12.577 -14.92,12.823 -6.659,0.247 -18.989,3.699 -18.003,1.234 0.987,-2.466 8.633,-2.713 9.371,-4.193 0.74,-1.479 -11.343,-3.699 -14.796,-3.945 -3.452,-0.247 -11.59,0 -11.343,-1.727 0.247,-1.726 14.668,-8.878 24.841,-7.891 10.176,0.986 22.752,-2.959 22.752,-2.959 z"
             style="fill:#ffb27d;fill-opacity:1;fill-rule:nonzero;stroke:none"
             id="path70" /></g><g
           id="g72"
           transform="translate(1423.3647,919.3661)"><path
             d="m 0,0 c 0,0 -4.491,-8.892 -12.637,-19.108 -9.817,-12.296 -24.954,-26.501 -43.96,-29.305 -9.077,-1.339 -17.955,0.614 -26.115,4.239 -0.021,0.008 -0.029,0.008 -0.029,0.008 -23.082,10.246 -40.439,33.809 -40.439,33.809 -4.067,11.097 2.59,18.621 2.59,18.621 0,0 46.609,-10.483 51.047,-8.264 4.439,2.22 30.333,76.815 36.495,86.189 6.17,9.373 27.181,14.241 27.181,14.241 z"
             style="fill:#f99746;fill-opacity:1;fill-rule:nonzero;stroke:none"
             id="path74" /></g><g
           id="g76"
           transform="translate(1410.728,900.2577)"><path
             d="m 0,0 c -9.817,-12.296 -24.954,-26.501 -43.96,-29.305 -9.077,-1.338 -17.955,0.615 -26.115,4.24 0.902,-0.119 23.956,-2.966 33.144,13.472 9.373,16.772 19.508,43.405 33.432,34.528 C 2.508,19.102 2.242,9.581 0,0"
             style="fill:#ed7d2b;fill-opacity:1;fill-rule:nonzero;stroke:none"
             id="path78" /></g><g
           id="g80"
           transform="translate(1597.2505,416.2577)"><path
             d="m 0,0 c 0,0 14.222,-12.979 11.446,-22.202 -2.774,-9.221 -15.608,-15.369 -17.342,-26.64 -1.736,-11.272 -8.672,-17.42 -14.916,-17.42 H -50.58 c 0,0 -4.596,7.931 6.504,10.324 11.1,2.39 15.285,15.634 14.592,27.929 -0.694,12.297 1.04,28.692 1.04,28.692 l 23.588,5.465 z"
             style="fill:#36599e;fill-opacity:1;fill-rule:nonzero;stroke:none"
             id="path82" /></g><g
           id="g84"
           transform="translate(1476.8774,410.747)"><path
             d="m 0,0 c 0,0 5.115,-54.983 -1.128,-58.057 l -79.905,0.163 c 0,0 0,9.223 12.834,11.272 12.834,2.05 35.381,9.563 39.197,26.3 C -25.187,-3.586 0,0 0,0"
             style="fill:#2b478b;fill-opacity:1;fill-rule:nonzero;stroke:none"
             id="path86" /></g><g
           id="g88"
           transform="translate(1533.819,805.2089)"><path
             d="m 0,0 c -16.443,36.876 -26.504,47.46 -24.583,58.905 1.429,8.519 -4.354,158.829 -4.354,158.829 -1.951,0.605 -5.862,1.147 -8,1.622 -6.746,1.497 -12.328,6.235 -14.651,12.741 -2.799,7.838 -5.023,19.412 -4.972,33.914 l -2.106,-0.414 -35.416,-7.013 c 0,0 0.806,-11.147 0.829,-21.647 0,-0.086 0.001,-0.173 0.001,-0.26 0.044,-9.119 -5.939,-17.168 -14.7,-19.698 -4.474,-1.291 -8.366,-2.393 -8.366,-2.393 0,0 -13.005,-37.129 -15.489,-75.273 -2.484,-38.142 23.649,-54.711 -0.197,-130.933 C -156.348,-69.468 9.084,-20.377 0,0"
             style="fill:#ffb27d;fill-opacity:1;fill-rule:nonzero;stroke:none"
             id="path90" /></g><g
           id="g92"
           transform="translate(1439.7368,1063.7928)"><path
             d="m 0,0 c 0,0 0.806,-11.146 0.829,-21.646 19.819,0.559 30.295,18.638 34.587,28.659 z"
             style="fill:#e8945b;fill-opacity:1;fill-rule:nonzero;stroke:none"
             id="path94" /></g><g
           id="g96"
           transform="translate(1433.1177,1053.8495)"><path
             d="M 0,0 C 0,0 46.891,-0.772 46.923,28.436 46.955,57.644 53.029,77.216 23.092,78.944 -6.845,80.673 -12.674,69.534 -15.056,59.788 -17.438,50.041 -12.195,0.954 0,0"
             style="fill:#ffb27d;fill-opacity:1;fill-rule:nonzero;stroke:none"
             id="path98" /></g><g
           id="g100"
           transform="translate(1434.854,1133.5087)"><path
             d="m 0,0 c 0,0 12.839,-34.267 32.541,-39.334 19.703,-5.065 28.249,0.213 28.249,0.213 0,0 -15.112,12.006 -18.249,32.963 0,0 -32.856,22.469 -42.541,6.158"
             style="fill:#163560;fill-opacity:1;fill-rule:nonzero;stroke:none"
             id="path102" /></g><g
           id="g104"
           transform="translate(1438.0356,1130.7274)"><path
             d="m 0,0 c 0,0 -9.521,-3.56 -13.438,-10.503 -3.833,-6.79 -7.096,-15.782 -6.339,-26.814 0,0 -9.673,23.292 1.198,36.467 C -7.053,13.12 0,0 0,0"
             style="fill:#163560;fill-opacity:1;fill-rule:nonzero;stroke:none"
             id="path106" /></g><g
           id="g108"
           transform="translate(1443.3208,1071.9706)"><path
             d="m 0,0 c 0,0 -3.235,-4.258 -9.709,-3.951 -5.214,0.247 -7.225,4.77 -7.225,4.77 0,0 9.578,2.303 16.934,-0.819"
             style="fill:#ebf3fa;fill-opacity:1;fill-rule:nonzero;stroke:none"
             id="path110" /></g><g
           id="g112"
           transform="translate(1538.3452,956.453)"><path
             d="M 0,0 C 0,0 1.19,-16.788 0,-36.934 -0.793,-50.287 -14.3,-68.173 -16.217,-72.598 -21.025,-83.694 -26.448,-85.5 -26.448,-85.5 l -41.955,-10.282 -14.751,-3.611 -46.52,13.893 c 0,0 -21.188,59.141 -12.68,92.433 8.508,33.291 21.506,56.41 21.506,56.41 0,0 37.959,-37.168 87.386,3.151 z"
             style="fill:#f99746;fill-opacity:1;fill-rule:nonzero;stroke:none"
             id="path114" /></g><g
           id="g116"
           transform="translate(1411.6304,861.9765)"><path
             d="m 0,0 c 0,0 -23.037,-71.707 -24.518,-96.121 -1.478,-24.413 44.039,-346.818 45.87,-358.068 1.726,-10.603 14.893,-17.363 14.893,-17.363 0,0 6.056,-3.572 14.699,-1.132 11.992,3.386 15.782,7.44 15.782,7.44 0,0 17.931,229.938 6.836,312.076 C 62.464,-71.03 62.333,0 62.333,0 Z"
             style="fill:#233862;fill-opacity:1;fill-rule:nonzero;stroke:none"
             id="path118" /></g><g
           id="g120"
           transform="translate(1509.2358,864.1142)"><path
             d="m 0,0 c 0,0 35.141,-47.15 38.416,-79.023 3.276,-31.873 5.14,-143.831 12.119,-174.904 6.98,-31.071 32.623,-90.866 32.623,-187.782 0,0 -2.666,-5.555 -10.895,-8.514 -2.632,-0.946 -6.159,-1.864 -9.582,-2.649 -6.787,-1.556 -13.751,1.761 -16.848,7.998 -17.338,34.906 -72.562,147.488 -75.394,170.857 -2.003,16.539 -19.441,125.996 -57.476,190.223 -9.131,15.419 5.604,76.739 5.604,76.739 z"
             style="fill:#2b478b;fill-opacity:1;fill-rule:nonzero;stroke:none"
             id="path122" /></g><g
           id="g124"
           transform="translate(1442.2788,1071.1884)"><path
             d="m 0,0 c 0,0 -0.811,-3.441 -9.374,-2.911 0,0 -7.188,0.445 -6.969,4.227 0,0 6.97,2.692 16.343,-1.316"
             style="fill:#ffffff;fill-opacity:1;fill-rule:nonzero;stroke:none"
             id="path126" /></g><g
           id="g128"
           transform="translate(1407.9497,873.0458)"><path
             d="m 0,0 c 0,0 9.249,-7.315 27.621,-7.685 21.945,-0.442 76.324,5.594 76.324,5.594 0,0 2.416,-6.75 2.319,-13.878 0,0 -66.415,-16.753 -104.896,-2.447 0,0 -4.963,9.339 -1.368,18.416"
             style="fill:#233862;fill-opacity:1;fill-rule:nonzero;stroke:none"
             id="path130" /></g><g
           id="g132"
           transform="translate(1430.3062,865.7968)"><path
             d="m 0,0 c -3.691,0 -6.695,-3.595 -6.695,-8.014 0,-4.42 3.004,-8.015 6.695,-8.015 3.69,0 6.695,3.595 6.695,8.015 C 6.695,-3.595 3.69,0 0,0 m 0,-19.348 c -5.521,0 -10.014,5.084 -10.014,11.334 0,6.249 4.493,11.333 10.014,11.333 5.521,0 10.014,-5.084 10.014,-11.333 0,-6.25 -4.493,-11.334 -10.014,-11.334"
             style="fill:#ffffff;fill-opacity:1;fill-rule:nonzero;stroke:none"
             id="path134" /></g><g
           id="g136"
           transform="translate(1583.3911,860.0741)"><path
             d="m 0,0 -68.043,-59.25 -81.103,93.142 68.043,59.248 z"
             style="fill:#b5453c;fill-opacity:1;fill-rule:nonzero;stroke:none"
             id="path138" /></g><g
           id="g140"
           transform="translate(1496.5474,859.8573)"><path
             d="m 0,0 c 0,0 -24.931,-2.915 -24.852,-8.833 0.078,-5.918 6.211,-18.076 9.291,-18.616 3.08,-0.541 20.29,16.441 20.29,16.441 z"
             style="fill:#ffb27d;fill-opacity:1;fill-rule:nonzero;stroke:none"
             id="path142" /></g><g
           id="g144"
           transform="translate(1504.8833,1022.9472)"><path
             d="m 0,0 c 0,0 33.285,-2.333 46.045,-33.351 12.759,-31.015 36.968,-83.092 36.968,-91.853 0,-8.76 -13.524,-35.767 -86.148,-51.294 0,0 -7.511,7.901 -7.055,14.15 0,0 45.334,38.939 45.211,43.49 -0.23,8.609 -7.431,19.973 -47.233,59.788 C -23.034,-48.246 0,0 0,0"
             style="fill:#f99746;fill-opacity:1;fill-rule:nonzero;stroke:none"
             id="path146" /></g><g
           id="g148"
           transform="translate(784.8843,350.0702)"><path
             d="M 0,0 H -0.329 C -2.267,0 -3.825,1.595 -3.78,3.532 L 1.454,230.396 16.872,232.195 3.724,3.517 C 3.61,1.543 1.977,0 0,0"
             style="fill:#95c0f4;fill-opacity:1;fill-rule:nonzero;stroke:none"
             id="path150" /></g><g
           id="g152"
           transform="translate(1032.814,350.0702)"><path
             d="M 0,0 H 0.329 C 2.267,0 3.825,1.595 3.78,3.532 L -1.454,230.396 -16.873,232.195 -3.724,3.517 C -3.61,1.543 -1.977,0 0,0"
             style="fill:#b0d4ff;fill-opacity:1;fill-rule:nonzero;stroke:none"
             id="path154" /></g><g
           id="g156"
           transform="translate(774.6685,594.537)"><path
             d="m 0,0 v 155.458 c 0,27.354 22.175,49.529 49.528,49.529 h 112.005 c 27.354,0 49.528,-22.175 49.528,-49.529 V -5.94 Z"
             style="fill:#b0d4ff;fill-opacity:1;fill-rule:nonzero;stroke:none"
             id="path158" /></g><g
           id="g160"
           transform="translate(1005.7983,569.994)"><path
             d="m 0,0 h -216.259 c -8.213,0 -14.871,6.659 -14.871,14.871 v 9.672 H 0 Z"
             style="fill:#95c0f4;fill-opacity:1;fill-rule:nonzero;stroke:none"
             id="path162" /></g><g
           id="g164"
           transform="translate(1031.7124,569.994)"><path
             d="m 0,0 h -163.607 c -6.074,0 -10.997,4.924 -10.997,10.996 v 2.55 c 0,6.073 4.923,10.997 10.997,10.997 H 0 c 6.073,0 10.997,-4.924 10.997,-10.997 v -2.55 C 10.997,4.924 6.073,0 0,0"
             style="fill:#b0d4ff;fill-opacity:1;fill-rule:nonzero;stroke:none"
             id="path166" /></g><g
           id="g168"
           transform="translate(1025.3608,633.2724)"><path
             d="m 0,0 c -16.046,-27.926 -36.228,-38.706 -36.228,-38.706 h -83.959 c 0,0 132.427,60.011 120.187,38.706"
             style="fill:#233862;fill-opacity:1;fill-rule:nonzero;stroke:none"
             id="path170" /></g><g
           id="g172"
           transform="translate(960.8774,417.2021)"><path
             d="m 0,0 c -2.188,-2.508 -2.467,-5.311 -1.384,-8.302 10e-4,-0.013 0.008,-0.03 0.021,-0.042 2.003,-5.533 8.618,-11.713 16.303,-17.884 0.983,-0.794 1.856,-1.513 2.616,-2.181 0.2,-0.175 0.401,-0.351 0.588,-0.527 0.154,-0.135 0.303,-0.277 0.453,-0.408 7.165,-6.605 4.468,-8.119 17.343,-21.523 14.679,-15.274 24.786,-15.549 27.661,-14.158 2.433,1.187 -2.509,9.288 -7.986,18.392 -0.265,0.439 -0.525,0.883 -0.798,1.328 -0.729,1.21 -1.453,2.439 -2.177,3.655 -6.417,10.958 -4.769,16.101 -3.248,32.408 1.236,13.252 20.617,74.035 20.617,74.035 L 41.877,69.64 c 0,0 -8.473,-48.403 -17.807,-55.856 C 19.08,9.811 13.492,9.761 8.695,6.816 8.356,6.611 8.023,6.4 7.696,6.185 4.971,4.379 2.193,2.514 0,0"
             style="fill:#ffb27d;fill-opacity:1;fill-rule:nonzero;stroke:none"
             id="path174" /></g><g
           id="g176"
           transform="translate(960.8774,417.2021)"><path
             d="m 0,0 c -2.188,-2.508 -2.467,-5.311 -1.384,-8.302 10e-4,-0.013 0.008,-0.03 0.021,-0.042 2.452,-5.527 8.901,-11.677 16.33,-17.827 0.97,-0.806 1.827,-1.546 2.589,-2.238 0.2,-0.175 0.401,-0.351 0.588,-0.527 0.154,-0.135 0.303,-0.277 0.453,-0.408 7.165,-6.605 4.468,-8.119 17.343,-21.523 14.679,-15.274 24.786,-15.549 27.661,-14.158 2.433,1.187 -2.509,9.288 -7.986,18.392 -2.857,1.047 -16.131,6.44 -26.168,19.281 C 20.608,-16.071 14.714,-1.579 8.695,6.816 8.356,6.611 8.023,6.4 7.696,6.185 4.971,4.379 2.193,2.514 0,0"
             style="fill:#233862;fill-opacity:1;fill-rule:nonzero;stroke:none"
             id="path178" /></g><g
           id="g180"
           transform="translate(1187.7153,434.7714)"><path
             d="m 0,0 c 1.736,-8.684 14.114,-7.235 27.943,-3.856 13.828,3.38 10.542,-0.638 30.224,1.541 19.682,2.178 25.644,9.518 26.244,12.444 0.538,2.597 -9.187,3.512 -19.619,4.714 -1.312,0.146 -2.629,0.309 -3.946,0.471 C 49.068,16.793 40.444,24.392 29.745,30.633 19.613,36.545 4.492,60.631 4.492,60.631 L -22.5,58.494 c 0,0 14.164,-21.514 19.643,-30.867 C 0.365,22.125 0.194,14.851 -0.208,9.233 -0.417,6.18 -0.616,3.059 0,0"
             style="fill:#ffb27d;fill-opacity:1;fill-rule:nonzero;stroke:none"
             id="path182" /></g><g
           id="g184"
           transform="translate(1215.6587,430.9149)"><path
             d="m 0,0 c 13.828,3.381 10.542,-0.638 30.224,1.541 19.681,2.179 25.643,9.519 26.244,12.444 0.538,2.597 -9.188,3.512 -19.619,4.714 l -0.098,-0.2 c 0,0 -11.803,-8.369 -28.186,-8.762 C -4.787,9.413 -18.931,13.239 -28.151,13.09 -28.36,10.036 -28.56,6.915 -27.943,3.856 -26.207,-4.827 -13.829,-3.379 0,0"
             style="fill:#233862;fill-opacity:1;fill-rule:nonzero;stroke:none"
             id="path186" /></g><g
           id="g188"
           transform="translate(1084.2769,607.3612)"><path
             d="m 0,0 -25.232,-67.896 -32.942,-88.654 c 0,0 -8.939,-0.862 -17.5,1.599 -7.882,2.278 -16.926,8.239 -16.926,8.239 0,0 9.147,95.189 26.21,149.83 4.373,14.026 9.274,25.37 14.683,31.757 C -25.256,66.136 0,0 0,0"
             style="fill:#233862;fill-opacity:1;fill-rule:nonzero;stroke:none"
             id="path190" /></g><g
           id="g192"
           transform="translate(1058.6226,715.1903)"><path
             d="m 0,0 c -16.53,5.332 -63.678,-1.515 -111.039,-10.786 l -9.916,16.356 -102.298,7.99 c 0,0 -33.757,-74.86 -15.276,-122.559 2.717,-7.011 8.114,-11.507 17.314,-11.654 0.003,-0.005 1.49,0.004 1.495,0 0,0 60.885,0.035 80.656,0.035 50.874,0 107.667,34.971 115.012,36.44 12.028,2.406 16.836,-21.646 28.863,-46.899 12.024,-25.252 113.037,-111.836 113.037,-111.836 0,0 15.525,-0.153 21.939,2.252 6.897,2.587 9.42,5.946 9.42,5.946 0,0 -111.929,222.689 -149.207,234.715"
             style="fill:#2b478b;fill-opacity:1;fill-rule:nonzero;stroke:none"
             id="path194" /></g><g
           id="g196"
           transform="translate(933.6431,1018.6337)"><path
             d="m 0,0 c -13.106,6.881 -33.044,7.811 -36.284,8.248 -38.764,5.21 -62.095,-51.119 -63.467,-68.188 -2.529,-31.458 -19.172,-36.255 -42.597,-55.958 -46.97,-39.504 -33.196,-85.411 -7.512,-102.466 15.409,-10.236 42.571,0.001 42.571,0.001 0.385,-0.269 74.284,41.311 110.713,61.369 C 58.034,-149.231 33.394,-17.536 0,0"
             style="fill:#b5453c;fill-opacity:1;fill-rule:nonzero;stroke:none"
             id="path198" /></g><g
           id="g200"
           transform="translate(906.5327,878.7118)"><path
             d="m 0,0 c 0.161,-0.104 -17.922,-6.276 -30.014,-0.922 -11.376,5.028 -19.993,23.743 -19.824,23.753 5.175,0.239 10.856,4.763 15.231,34.448 l 2.204,-0.791 37.049,-13.331 c 0,0 -2.685,-11.887 -4.421,-23.206 C -1.236,10.448 -2.022,1.344 0,0"
             style="fill:#ffb27d;fill-opacity:1;fill-rule:nonzero;stroke:none"
             id="path202" /></g><g
           id="g204"
           transform="translate(911.1782,921.869)"><path
             d="m 0,0 c 0,0 -2.685,-11.888 -4.421,-23.206 -21.28,3.83 -29.632,25.032 -32.628,36.537 z"
             style="fill:#ed975d;fill-opacity:1;fill-rule:nonzero;stroke:none"
             id="path206" /></g><g
           id="g208"
           transform="translate(916.6958,910.0702)"><path
             d="m 0,0 c 0,0 -50.69,6.804 -45.967,38.306 4.722,31.502 1.361,53.595 33.925,50.584 C 20.521,85.877 24.993,72.916 25.975,62.019 26.955,51.12 13.308,-0.958 0,0"
             style="fill:#ffb27d;fill-opacity:1;fill-rule:nonzero;stroke:none"
             id="path210" /></g><g
           id="g212"
           transform="translate(940.8228,989.3564)"><path
             d="m 0,0 c 0,0 -32.449,-27.964 -54.521,-30.218 -22.072,-2.255 -30.428,4.829 -30.428,4.829 0,0 13.01,10.803 20.839,28.235 2.307,5.138 7.182,8.665 12.794,9.149 C -35.555,13.355 -5.678,13.976 0,0"
             style="fill:#b5453c;fill-opacity:1;fill-rule:nonzero;stroke:none"
             id="path214" /></g><g
           id="g216"
           transform="translate(920.5376,991.8603)"><path
             d="m 0,0 c 0,0 10.856,-10.496 14.274,-18.281 3.3,-7.513 4.29,-25.481 1.663,-32.617 0,0 16.913,32.887 7.337,48.866 C 13.12,14.911 0,0 0,0"
             style="fill:#b5453c;fill-opacity:1;fill-rule:nonzero;stroke:none"
             id="path218" /></g><g
           id="g220"
           transform="translate(949.2183,804.0419)"><path
             d="m 0,0 c -1.533,-102.608 -0.422,-81.168 -11.646,-90.904 -2.705,-2.344 -10.307,-3.743 -20.314,-4.403 -31.463,-2.089 -86.772,3.096 -88.875,8.91 -7.258,20.12 -2.134,26.37 -8.189,57.171 -0.631,3.277 -1.413,6.823 -2.33,10.684 -5.047,21.156 -9.962,28.352 7.949,62.341 16.243,30.787 33.116,55.774 34.633,54.873 42.853,-25.439 46.31,-4.057 46.31,-4.057 0,0 43.213,-44.566 42.462,-94.615"
             style="fill:#8c9df4;fill-opacity:1;fill-rule:nonzero;stroke:none"
             id="path222" /></g><g
           id="g224"
           transform="translate(1059.0444,539.4648)"><path
             d="m 0,0 -32.941,-88.653 c 0,0 -8.94,-0.863 -17.5,1.598 -7.882,2.279 -16.926,8.24 -16.926,8.24 0,0 9.146,95.188 26.21,149.83 z"
             style="fill:#2b478b;fill-opacity:1;fill-rule:nonzero;stroke:none"
             id="path226" /></g><g
           id="g228"
           transform="translate(906.7573,898.663)"><path
             d="m 0,0 c 0,0 44.094,-7.476 49.272,-26.46 5.177,-18.985 35.648,-130.593 35.648,-130.593 0,0 -22.416,-4.027 -32.772,6.328 -10.355,10.356 -36.032,96.075 -36.032,96.075 z"
             style="fill:#8c9df4;fill-opacity:1;fill-rule:nonzero;stroke:none"
             id="path230" /></g><g
           id="g232"
           transform="translate(917.2583,708.7353)"><path
             d="m 0,0 c -31.463,-2.089 -86.771,3.096 -88.875,8.91 -7.258,20.119 -2.134,26.369 -8.189,57.171 l 15.175,42.733 c 0,0 -2.509,-47.585 11.525,-60.101 C -56.346,36.196 -12.906,24.552 -6.086,14.094 -2.795,9.075 -0.63,4.041 0,0"
             style="fill:#6980e2;fill-opacity:1;fill-rule:nonzero;stroke:none"
             id="path234" /></g><g
           id="g236"
           transform="translate(881.2095,728.7499)"><path
             d="M 0,0 C 0,0 31.04,6.911 36.049,4.156 41.057,1.401 53.298,-8.63 54.83,-12.122 c 1.533,-3.49 -11.149,2.65 -15.275,3.757 -2.672,0.717 -9.705,-1.727 -13.186,-2.888 C 11.72,-16.136 2.742,-13.624 2.742,-13.624 Z"
             style="fill:#ffb27d;fill-opacity:1;fill-rule:nonzero;stroke:none"
             id="path238" /></g><g
           id="g240"
           transform="translate(860.4204,902.7362)"><path
             d="m 0,0 c 0,0 -41.679,-2.567 -56.107,-22.691 -20.31,-28.327 -60.601,-149.055 -37.51,-165.157 26.004,-18.132 118.351,-4.743 118.351,-4.743 0,0 3.074,14.364 -1.203,21.313 -4.275,6.948 -73.759,18.173 -76.966,21.379 -3.207,3.207 40.087,62.535 40.087,72.155 C -13.348,-68.122 0,0 0,0"
             style="fill:#8c9df4;fill-opacity:1;fill-rule:nonzero;stroke:none"
             id="path242" /></g><g
           id="g244"
           transform="translate(918.7612,724.2665)"><path
             d="m 0,0 c 0,0 6.504,-8.39 8.636,-9.391 2.133,-1.002 3.509,-0.752 3.509,-0.752 l -4.383,7.889 z"
             style="fill:#ffb27d;fill-opacity:1;fill-rule:nonzero;stroke:none"
             id="path246" /></g><g
           id="g248"
           transform="translate(917.2583,732.9062)"><path
             d="m 0,0 18.91,-9.183 c 0,0 -0.805,-1.316 -3.133,-1.211 -2.329,0.108 -8.201,2.255 -8.201,2.255 z"
             style="fill:#ffb27d;fill-opacity:1;fill-rule:nonzero;stroke:none"
             id="path250" /></g><g
           id="g252"
           transform="translate(920.5571,702.0243)"><path
             d="m 0,0 h 159.534 l 47.991,111.894 H 48.236 Z"
             style="fill:#f77d48;fill-opacity:1;fill-rule:nonzero;stroke:none"
             id="path254" /></g><g
           id="g256"
           transform="translate(1081.9604,709.2743)"><path
             d="M 0,0 H -210.666 V -7.067 H -1.869 Z"
             style="fill:#f77d48;fill-opacity:1;fill-rule:nonzero;stroke:none"
             id="path258" /></g><g
           id="g260"
           transform="translate(1039.8188,757.9706)"><path
             d="m 0,0 c 1.203,3.934 -1.223,7.122 -5.417,7.122 -4.195,0 -8.57,-3.188 -9.774,-7.122 -1.203,-3.933 1.223,-7.122 5.418,-7.122 4.195,0 8.57,3.189 9.773,7.122"
             style="fill:#ebf3fa;fill-opacity:1;fill-rule:nonzero;stroke:none"
             id="path262" /></g><g
           id="g264"
           transform="translate(1315.9771,346.9521)"><path
             d="M 0,0 H 0.436 C 2.998,0 5.06,2.327 5,5.153 L -1.923,336.167 -22.312,338.792 -4.924,5.13 C -4.775,2.25 -2.613,0 0,0"
             style="fill:#233862;fill-opacity:1;fill-rule:nonzero;stroke:none"
             id="path266" /></g><g
           id="g268"
           transform="translate(886.1655,346.9521)"><path
             d="M 0,0 H -0.434 C -2.997,0 -5.059,2.327 -4.999,5.153 L 1.923,336.167 22.314,338.792 4.925,5.13 C 4.775,2.25 2.614,0 0,0"
             style="fill:#233862;fill-opacity:1;fill-rule:nonzero;stroke:none"
             id="path270" /></g><g
           id="g272"
           transform="translate(1324.0065,678.3378)"><path
             d="m 0,0 h -464.482 c -4.103,0 -7.429,3.327 -7.429,7.431 v 8.825 c 0,4.103 3.326,7.43 7.429,7.43 H 0 c 4.104,0 7.43,-3.327 7.43,-7.43 V 7.431 C 7.43,3.327 4.104,0 0,0"
             style="fill:#233862;fill-opacity:1;fill-rule:nonzero;stroke:none"
             id="path274" /></g><g
           id="g276"
           transform="translate(2372.7263,342.4394)"><path
             d="m 0,0 h -1868.556 c -1.995,0 -3.628,1.633 -3.628,3.628 v 3.514 c 0,1.995 1.633,3.628 3.628,3.628 H 0 c 1.995,0 3.628,-1.633 3.628,-3.628 V 3.628 C 3.628,1.633 1.995,0 0,0"
             style="fill:#2e3552;fill-opacity:1;fill-rule:nonzero;stroke:none"
             id="path278" /></g></g></g></g></svg>
