<?xml version="1.0" encoding="UTF-8"?>
<svg id="Calque_1" data-name="Calque 1" xmlns="http://www.w3.org/2000/svg" viewBox="0 0 5099.4 2871.1">
  <defs>
    <style>
      .cls-1 {
        fill: #003280;
      }

      .cls-2 {
        fill: #f0f0f8;
      }

      .cls-3, .cls-4, .cls-5 {
        fill: #fff;
      }

      .cls-6 {
        fill: #ffecd8;
      }

      .cls-7 {
        fill: #ecedff;
      }

      .cls-8 {
        fill: #ffcb98;
      }

      .cls-9 {
        fill: #fbe0b5;
      }

      .cls-10 {
        fill: #e5e5e5;
      }

      .cls-11 {
        fill: #fbb03b;
      }

      .cls-12, .cls-13, .cls-14 {
        fill: #efeff8;
      }

      .cls-15 {
        fill: #8cb2ff;
      }

      .cls-16 {
        fill: #8da6c4;
      }

      .cls-17 {
        fill: #cecfda;
      }

      .cls-18 {
        fill: #cad9ff;
      }

      .cls-19 {
        fill: #ddebf9;
      }

      .cls-20 {
        fill: #dddff0;
      }

      .cls-21 {
        fill: #c8e0ff;
      }

      .cls-22 {
        fill: #d6d6d6;
      }

      .cls-23, .cls-24 {
        fill: #d9e7ff;
      }

      .cls-25 {
        fill: #110045;
      }

      .cls-26 {
        fill: #1c1468;
      }

      .cls-27, .cls-28 {
        fill: #191558;
      }

      .cls-29 {
        fill: #5366ac;
      }

      .cls-30 {
        fill: #5b69c2;
      }

      .cls-4, .cls-5 {
        font-family: ArialMT, Arial;
        font-size: 12px;
      }

      .cls-4, .cls-5, .cls-13, .cls-14 {
        isolation: isolate;
      }

      .cls-28, .cls-24, .cls-31, .cls-32, .cls-33, .cls-34, .cls-35, .cls-36 {
        stroke-miterlimit: 10;
      }

      .cls-28, .cls-24, .cls-31, .cls-32, .cls-34, .cls-35, .cls-36 {
        stroke: #191558;
      }

      .cls-28, .cls-31 {
        stroke-width: 4px;
      }

      .cls-5 {
        letter-spacing: -.02em;
      }

      .cls-13 {
        opacity: .92;
      }

      .cls-14 {
        opacity: .81;
      }

      .cls-24, .cls-35 {
        stroke-width: 7px;
      }

      .cls-31, .cls-32, .cls-33, .cls-34, .cls-35, .cls-36 {
        fill: none;
      }

      .cls-33 {
        stroke: #000;
      }

      .cls-34 {
        stroke-width: 11px;
      }

      .cls-37 {
        opacity: .75;
      }

      .cls-36 {
        stroke-width: 9px;
      }
    </style>
  </defs>
  <g>
    <path class="cls-15" d="m4927.1,1997.6c.4-26.2,40.1-53.9,77.1-67,30.8-10.9,46.6-35.6,44-40.1-18.7-33.2-141,7.6-128.1-21.1,7.8-17.3,49.4-40.8,128.8-93.8-33.5-7-48.4-.1-170.1,9.3-72.7,5.6-45.9,2.4-185.9,8.9-16.8.8-147.1,23.4-176.9,16.5-24.4-5.7-135.7,13.9-140.5,9.6-59.5-53.9-200.1,30.8-386.4,30.8-42.1,0-94.5-10.7-145.5-27.5v258.9c0,92.9,75.3,168.3,168.3,168.3h1087.5v-122.4c-91.6-27.3-173-88.7-172.3-130.4Z"/>
    <path class="cls-21" d="m4410.1,1417.2c154.5-26.6,309.5-60.9,391.8-109.3,46.7-27.5,96.7-48.9,144.4-74.5,11.2-6,20.3-11,28-15-8.8-5.8-17.9-12.1-27.7-19.1-18.6-13.3-46.1-33-76.9-60.6-68.4-61.3-65.5-83.2-121.1-121.1-48.5-33-78.9-35.5-95.5-34.9-6.2.2-28.4,1.4-53.6,14-40.6,20.3-57.5,54.3-76.9,83.9-21.5,32.7-57.8,66.1-130.5,132.8-82.2,75.5-90,88.8-117.4,109.5-40.1,30.3-210.3,100.1-259.4,147.5,125.1-37.3,266.1-60.5,394.8-53.2h0Z"/>
    <path class="cls-16" d="m5099.4,1294v-65.3c-35.8-19.4-53-27.2-78.6-25.6-15.9,1-26.9,5.2-46.5,15.3,23.2,15.4,43.3,27.4,63.2,39.1,23.7,14,44.2,26.1,61.9,36.5Z"/>
    <path class="cls-16" d="m5060.8,1541.7c-26.5,15.1-56.4,28.5-89.1,40.2,45.4,16.7,84.4,34.6,98.8,50.4,2.3,2.5,14.2,16.5,25.6,14,1.2-.3,2.3-.7,3.3-1.3v-127.6c-20.4,13.8-36,22.9-38.6,24.3h0Z"/>
    <path class="cls-16" d="m4801.9,1307.9c-82.3,48.4-237.3,82.7-391.8,109.3,15.1.9,30.1,2.1,44.8,3.9,127.6,15,230.2,56.6,301.7,93.6h342.8v-220.8c-17.7-10.4-38.2-22.4-61.9-36.5-19.9-11.7-40-23.6-63.2-39.1-7.7,4-16.8,8.9-28,15-47.7,25.7-97.7,47.1-144.4,74.6Z"/>
    <path class="cls-16" d="m4971.7,1581.9c32.6-11.7,62.6-25.1,89.1-40.2,2.6-1.4,18.2-10.5,38.6-24.2v-2.8h-342.8c3.8,1.9,7.5,3.9,11.1,5.8,0,0,114.5,28.5,204,61.4h0Z"/>
    <path class="cls-23" d="m3857.5,1615.9c-236.5-7.9,109.2-94.7,106.8-111.6-.9-6.7,13.7-13.3,39.8-19.9,2.2-4.4,6-9.1,11.1-14-206.9,61.6-370.7,161.4-364.9,224.6,3.9,42.4,95.9,96.2,193.2,128.2v-140.2c.1-23.9,5.1-46.6,14-67.1Z"/>
    <path class="cls-23" d="m4375.5,1819.9c4.8,4.3,116.1-15.3,140.5-9.6,29.8,6.9,160.1-15.7,176.9-16.5,140-6.5,113.2-3.3,185.9-8.9,121.7-9.4,136.6-16.3,170.1-9.3,15.4-10.3,32.2-21.6,50.5-34.3v-78.4c-43.7,1-82.3-38.6-163.2-69.3-228.6,70.1-562.6,68.2-764.5,10.1-153.9,10.9-253.3,14.1-314.2,12.1-9,20.6-13.9,43.3-13.9,67.1v140.2c51,16.8,103.4,27.5,145.5,27.5,186.3.1,326.9-84.6,386.4-30.7h0Z"/>
    <path class="cls-23" d="m4004.1,1484.4c73.9-18.8,239.6-38.5,406-67.2-128.7-7.3-269.7,15.9-394.8,53.2-5.1,4.9-8.9,9.6-11.2,14Z"/>
    <path class="cls-23" d="m4624.8,1564.2c-187.2,18.4-335.9,31.3-453.1,39.6,201.8,58.1,535.9,60,764.5-10.1-66.5-25.2-161.5-44.3-311.4-29.5Z"/>
    <path class="cls-23" d="m4011.9,1514.7h.5c-4-5.7-7.2-11.6-9.6-17.7-1.5-3.8-1-8,1.3-12.6-26.2,6.6-40.8,13.2-39.8,19.9,2.4,16.9-343.2,103.6-106.8,111.6,26-59.5,85.4-101.2,154.4-101.2Z"/>
    <path class="cls-23" d="m4012.4,1514.7h-.5c-69,0-128.4,41.7-154.4,101.2,60.9,2,160.3-1.1,314.2-12.1-76.3-22-133.7-51.9-159.3-89.1h0Z"/>
    <path class="cls-23" d="m5096.1,1646.3c-11.4,2.5-23.3-11.5-25.6-14-14.3-15.9-53.3-33.7-98.8-50.4-11.5,4.1-23.4,8.1-35.5,11.8,80.9,30.6,119.5,70.3,163.2,69.3v-17.9c-1,.5-2.1.9-3.3,1.2h0Z"/>
    <path class="cls-23" d="m4002.8,1497c2.4,6.1,5.6,12,9.6,17.7h744.3c-71.5-37-174.2-78.6-301.7-93.6-14.7-1.7-29.7-3-44.8-3.9-166.3,28.7-332.1,48.4-406,67.2-2.4,4.6-2.9,8.8-1.4,12.6Z"/>
    <path class="cls-23" d="m4767.7,1520.5c-3.6-1.9-7.3-3.9-11.1-5.8h-744.3c25.7,37.2,83.1,67.1,159.4,89.1,117.1-8.3,265.8-21.2,453.1-39.6,149.9-14.8,244.9,4.3,311.4,29.5,12.2-3.7,24-7.7,35.5-11.8-89.5-32.9-204-61.4-204-61.4Z"/>
    <path class="cls-23" d="m5048.9,1775.6c-79.5,53-121,76.5-128.8,93.8-12.9,28.7,109.4-12.1,128.1,21.1,2.6,4.5-13.2,29.2-44,40.1-37,13.1-76.7,40.8-77.1,67-.7,41.7,80.7,103.1,172.3,130.4v-338.5c-23.4-6.9-38.2-11.3-50.5-13.9h0Z"/>
    <path class="cls-23" d="m5099.4,1741.3c-18.3,12.6-35.1,24-50.5,34.3,12.3,2.6,27,7,50.5,13.9v-48.2Z"/>
    <path class="cls-2" d="m3326.1,1483.5c202.7-74,769,182,896.8,274.2,22,15.8,75.4,58.1,152.6,64.7,61.9,5.3,77.1-19.7,149.1-16.3,62.3,3,48.5,17.2,177,46.6,22,5,76,24.3,184,62.9,8.6,3.1,26.9,9.8,28,21,1.7,18.2-43.3,36.4-62.9,44.3-83.4,33.6-144.7,25.8-149.1,46.6-1.3,6.4,5.3,13.6,18.6,28,28.9,31.2,47.4,33.3,74.5,62.9,20.1,22,21,33,21,37.3,0,13.6-8.2,24.8-21,37.3-11,10.8-26.5,26-49.8,38.6,0,0-14.5,7.7-29.4,12.6-50.7,16.9-1763.7-6.7-1857.2,2.6-350,34.8-278.1-490.8,467.8-763.3h0Z"/>
  </g>
  <g>
    <path class="cls-7" d="m2390.9,2189.7h-1224.7V778.2c0-6.1,4.9-11,11-11h1202.6c6.1,0,11,4.9,11,11v1411.5h.1Z"/>
    <path class="cls-17" d="m1284.6,885.2h-43.3c-.9,0-1.6-.7-1.6-1.6v-61.2c0-.9.7-1.6,1.6-1.6h43.2c.9,0,1.6.7,1.6,1.6v61.2c.1.9-.6,1.6-1.5,1.6h0Z"/>
    <path class="cls-17" d="m1340.4,885.2h-43.2c-.9,0-1.6-.7-1.6-1.6v-61.2c0-.9.7-1.6,1.6-1.6h43.2c.9,0,1.6.7,1.6,1.6v61.2c0,.9-.7,1.6-1.6,1.6Z"/>
    <path class="cls-17" d="m1395,885.2h-43.2c-.9,0-1.6-.7-1.6-1.6v-61.2c0-.9.7-1.6,1.6-1.6h43.2c.9,0,1.6.7,1.6,1.6v61.2c0,.9-.7,1.6-1.6,1.6Z"/>
    <path class="cls-17" d="m1230.8,961.2h-43.2c-.9,0-1.6-.7-1.6-1.6v-61.2c0-.9.7-1.6,1.6-1.6h43.2c.9,0,1.6.7,1.6,1.6v61.2c.1.9-.7,1.6-1.6,1.6Z"/>
    <path class="cls-9" d="m1284.6,961.2h-43.3c-.9,0-1.6-.7-1.6-1.6v-61.2c0-.9.7-1.6,1.6-1.6h43.2c.9,0,1.6.7,1.6,1.6v61.2c.1.9-.6,1.6-1.5,1.6h0Z"/>
    <path class="cls-17" d="m1340.4,961.2h-43.2c-.9,0-1.6-.7-1.6-1.6v-61.2c0-.9.7-1.6,1.6-1.6h43.2c.9,0,1.6.7,1.6,1.6v61.2c0,.9-.7,1.6-1.6,1.6Z"/>
    <path class="cls-17" d="m1395,961.2h-43.2c-.9,0-1.6-.7-1.6-1.6v-61.2c0-.9.7-1.6,1.6-1.6h43.2c.9,0,1.6.7,1.6,1.6v61.2c0,.9-.7,1.6-1.6,1.6Z"/>
    <path class="cls-17" d="m1230.8,1037.2h-43.2c-.9,0-1.6-.7-1.6-1.6v-61.2c0-.9.7-1.6,1.6-1.6h43.2c.9,0,1.6.7,1.6,1.6v61.2c.1.9-.7,1.6-1.6,1.6Z"/>
    <path class="cls-17" d="m1284.6,1037.2h-43.3c-.9,0-1.6-.7-1.6-1.6v-61.2c0-.9.7-1.6,1.6-1.6h43.2c.9,0,1.6.7,1.6,1.6v61.2c.1.9-.6,1.6-1.5,1.6h0Z"/>
    <path class="cls-17" d="m1340.4,1037.2h-43.2c-.9,0-1.6-.7-1.6-1.6v-61.2c0-.9.7-1.6,1.6-1.6h43.2c.9,0,1.6.7,1.6,1.6v61.2c0,.9-.7,1.6-1.6,1.6Z"/>
    <path class="cls-17" d="m1395,1037.2h-43.2c-.9,0-1.6-.7-1.6-1.6v-61.2c0-.9.7-1.6,1.6-1.6h43.2c.9,0,1.6.7,1.6,1.6v61.2c0,.9-.7,1.6-1.6,1.6Z"/>
    <path class="cls-17" d="m1230.8,1113.2h-43.2c-.9,0-1.6-.7-1.6-1.6v-61.2c0-.9.7-1.6,1.6-1.6h43.2c.9,0,1.6.7,1.6,1.6v61.2c.1.9-.7,1.6-1.6,1.6Z"/>
    <path class="cls-17" d="m1284.6,1113.2h-43.3c-.9,0-1.6-.7-1.6-1.6v-61.2c0-.9.7-1.6,1.6-1.6h43.2c.9,0,1.6.7,1.6,1.6v61.2c.1.9-.6,1.6-1.5,1.6h0Z"/>
    <path class="cls-7" d="m2958,2189.7h-371.5V452.2c0-5.4,4.9-9.7,11-9.7h349.5c6.1,0,11,4.3,11,9.7v1737.5Z"/>
    <path class="cls-9" d="m1340.4,1113.2h-43.2c-.9,0-1.6-.7-1.6-1.6v-61.2c0-.9.7-1.6,1.6-1.6h43.2c.9,0,1.6.7,1.6,1.6v61.2c0,.9-.7,1.6-1.6,1.6Z"/>
    <path class="cls-17" d="m1395,1113.2h-43.2c-.9,0-1.6-.7-1.6-1.6v-61.2c0-.9.7-1.6,1.6-1.6h43.2c.9,0,1.6.7,1.6,1.6v61.2c0,.9-.7,1.6-1.6,1.6Z"/>
    <path class="cls-20" d="m1823.7,2189.7h-467.9V584.8c0-6.1,4.9-11,11-11h445.9c6.1,0,11,4.9,11,11v1604.9Z"/>
    <path class="cls-17" d="m2357.6,855.8h-170.3c-.9,0-1.6-.7-1.6-1.6v-44.9c0-.9.7-1.6,1.6-1.6h170.3c.9,0,1.6.7,1.6,1.6v44.9c0,.9-.7,1.6-1.6,1.6Z"/>
    <path class="cls-17" d="m2357.6,926h-170.3c-.9,0-1.6-.7-1.6-1.6v-44.9c0-.9.7-1.6,1.6-1.6h170.3c.9,0,1.6.7,1.6,1.6v44.9c0,.9-.7,1.6-1.6,1.6Z"/>
    <path class="cls-17" d="m2357.6,996.3h-170.3c-.9,0-1.6-.7-1.6-1.6v-44.9c0-.9.7-1.6,1.6-1.6h170.3c.9,0,1.6.7,1.6,1.6v44.9c0,.9-.7,1.6-1.6,1.6Z"/>
    <path class="cls-17" d="m2357.6,1161h-170.3c-.9,0-1.6-.7-1.6-1.6v-44.9c0-.9.7-1.6,1.6-1.6h170.3c.9,0,1.6.7,1.6,1.6v44.9c0,.9-.7,1.6-1.6,1.6Z"/>
    <path class="cls-7" d="m2195.3,2176.5h-371.5V354.3c0-6.1,4.9-11,11-11h349.5c6.1,0,11,4.9,11,11v1822.2Z"/>
    <path class="cls-17" d="m2163.2,456.2h-67.5c-.9,0-1.6-.7-1.6-1.6v-44.9c0-.9.7-1.6,1.6-1.6h67.5c.9,0,1.6.7,1.6,1.6v44.9c0,.9-.7,1.6-1.6,1.6Z"/>
    <path class="cls-17" d="m2163.2,530.8h-67.5c-.9,0-1.6-.7-1.6-1.6v-44.9c0-.9.7-1.6,1.6-1.6h67.5c.9,0,1.6.7,1.6,1.6v44.9c0,.9-.7,1.6-1.6,1.6Z"/>
    <path class="cls-17" d="m2163.2,605.4h-67.5c-.9,0-1.6-.7-1.6-1.6v-44.9c0-.9.7-1.6,1.6-1.6h67.5c.9,0,1.6.7,1.6,1.6v44.9c0,.9-.7,1.6-1.6,1.6Z"/>
    <path class="cls-17" d="m1459.4,653.5h-67.5c-.9,0-1.6-.7-1.6-1.6v-44.9c0-.9.7-1.6,1.6-1.6h67.5c.9,0,1.6.7,1.6,1.6v44.9c0,.9-.7,1.6-1.6,1.6Z"/>
    <path class="cls-9" d="m1459.4,720.3h-67.5c-.9,0-1.6-.7-1.6-1.6v-44.9c0-.9.7-1.6,1.6-1.6h67.5c.9,0,1.6.7,1.6,1.6v44.9c0,.8-.7,1.6-1.6,1.6Z"/>
    <path class="cls-17" d="m1459.4,787h-67.5c-.9,0-1.6-.7-1.6-1.6v-44.9c0-.9.7-1.6,1.6-1.6h67.5c.9,0,1.6.7,1.6,1.6v44.9c0,.9-.7,1.6-1.6,1.6Z"/>
    <path class="cls-17" d="m1544,653.5h-67.5c-.9,0-1.6-.7-1.6-1.6v-44.9c0-.9.7-1.6,1.6-1.6h67.5c.9,0,1.6.7,1.6,1.6v44.9c0,.9-.7,1.6-1.6,1.6Z"/>
    <path class="cls-17" d="m1230.8,885.2h-43.2c-.9,0-1.6-.7-1.6-1.6v-61.2c0-.9.7-1.6,1.6-1.6h43.2c.9,0,1.6.7,1.6,1.6v61.2c.1.9-.7,1.6-1.6,1.6Z"/>
    <path class="cls-17" d="m1799.8,1161h-67.5c-.9,0-1.6-.7-1.6-1.6v-44.9c0-.9.7-1.6,1.6-1.6h67.5c.9,0,1.6.7,1.6,1.6v44.9c0,.9-.7,1.6-1.6,1.6Z"/>
    <path class="cls-17" d="m1799.8,1228.2h-67.5c-.9,0-1.6-.7-1.6-1.6v-44.9c0-.9.7-1.6,1.6-1.6h67.5c.9,0,1.6.7,1.6,1.6v44.9c0,.9-.7,1.6-1.6,1.6Z"/>
    <path class="cls-17" d="m1799.8,1295.4h-67.5c-.9,0-1.6-.7-1.6-1.6v-44.9c0-.9.7-1.6,1.6-1.6h67.5c.9,0,1.6.7,1.6,1.6v44.9c0,.9-.7,1.6-1.6,1.6Z"/>
    <path class="cls-10" d="m2219.9,2189.7h-371.6V1007.3c0-6.1,4.9-11,11-11h349.5c6.1,0,11,4.9,11,11v1182.4h.1Z"/>
    <path class="cls-22" d="m1846.4,2189.7h-371.5v-848.6c0-6.1,4.9-11,11-11h349.5c6.1,0,11,4.9,11,11v848.6Z"/>
    <path class="cls-10" d="m2854.8,2189.7h-412.5V777.5c0-6.1,4.9-11,11-11h390.5c6.1,0,11,4.9,11,11v1412.2Z"/>
    <path class="cls-22" d="m2576.7,2189.7h-371.5v-950.5c0-6.1,4.9-11,11-11h349.5c6.1,0,11,4.9,11,11v950.5Z"/>
    <path class="cls-29" d="m2544.3,850.5h-66.9c-1.1,0-1.9-.9-1.9-1.9v-44.3c0-1.1.9-1.9,1.9-1.9h66.9c1.1,0,1.9.9,1.9,1.9v44.3c0,1-.9,1.9-1.9,1.9Z"/>
    <path class="cls-11" d="m2544.3,906.4h-66.9c-1.1,0-1.9-.9-1.9-1.9v-44.3c0-1.1.9-1.9,1.9-1.9h66.9c1.1,0,1.9.9,1.9,1.9v44.3c0,1-.9,1.9-1.9,1.9Z"/>
    <path class="cls-29" d="m2544.3,962.2h-66.9c-1.1,0-1.9-.9-1.9-1.9v-44.3c0-1.1.9-1.9,1.9-1.9h66.9c1.1,0,1.9.9,1.9,1.9v44.3c0,1-.9,1.9-1.9,1.9Z"/>
    <path class="cls-29" d="m2837,1163.6h-66.9c-1.1,0-1.9-.9-1.9-1.9v-44.3c0-1.1.9-1.9,1.9-1.9h66.9c1.1,0,1.9.9,1.9,1.9v44.3c0,1-.8,1.9-1.9,1.9Z"/>
    <path class="cls-11" d="m2837,1221.3h-66.9c-1.1,0-1.9-.9-1.9-1.9v-44.3c0-1.1.9-1.9,1.9-1.9h66.9c1.1,0,1.9.9,1.9,1.9v44.3c0,1.1-.8,1.9-1.9,1.9Z"/>
    <path class="cls-11" d="m2837,1279.1h-66.9c-1.1,0-1.9-.9-1.9-1.9v-44.3c0-1.1.9-1.9,1.9-1.9h66.9c1.1,0,1.9.9,1.9,1.9v44.3c0,1-.8,1.9-1.9,1.9Z"/>
    <path class="cls-29" d="m2837,1336.8h-66.9c-1.1,0-1.9-.9-1.9-1.9v-44.3c0-1.1.9-1.9,1.9-1.9h66.9c1.1,0,1.9.9,1.9,1.9v44.3c0,1-.8,1.9-1.9,1.9Z"/>
    <path class="cls-29" d="m2737.6,1411.1h-66.9c-1.1,0-1.9-.9-1.9-1.9v-44.3c0-1.1.9-1.9,1.9-1.9h66.9c1.1,0,1.9.9,1.9,1.9v44.3c0,1-.8,1.9-1.9,1.9Z"/>
    <path class="cls-29" d="m2737.6,1468.8h-66.9c-1.1,0-1.9-.9-1.9-1.9v-44.3c0-1.1.9-1.9,1.9-1.9h66.9c1.1,0,1.9.9,1.9,1.9v44.3c0,1.1-.8,1.9-1.9,1.9Z"/>
    <path class="cls-29" d="m2737.6,1526.6h-66.9c-1.1,0-1.9-.9-1.9-1.9v-44.3c0-1.1.9-1.9,1.9-1.9h66.9c1.1,0,1.9.9,1.9,1.9v44.3c0,1-.8,1.9-1.9,1.9Z"/>
    <path class="cls-29" d="m1660.4,1423.2h-164.8c-1.1,0-1.9-.9-1.9-1.9v-44.3c0-1.1.9-1.9,1.9-1.9h164.8c1.1,0,1.9.9,1.9,1.9v44.3c0,1.1-.9,1.9-1.9,1.9Z"/>
    <path class="cls-29" d="m1660.4,1481h-164.8c-1.1,0-1.9-.9-1.9-1.9v-44.3c0-1.1.9-1.9,1.9-1.9h164.8c1.1,0,1.9.9,1.9,1.9v44.3c0,1-.9,1.9-1.9,1.9Z"/>
    <path class="cls-29" d="m1660.4,1538.7h-164.8c-1.1,0-1.9-.9-1.9-1.9v-44.3c0-1.1.9-1.9,1.9-1.9h164.8c1.1,0,1.9.9,1.9,1.9v44.3c0,1.1-.9,1.9-1.9,1.9Z"/>
    <path class="cls-29" d="m2364.2,1305.2h-55.9c-1.1,0-1.9-.9-1.9-1.9v-44.3c0-1.1.9-1.9,1.9-1.9h55.8c1.1,0,1.9.9,1.9,1.9v44.3c.1,1.1-.8,1.9-1.8,1.9Z"/>
    <path class="cls-29" d="m2364.2,1363h-55.9c-1.1,0-1.9-.9-1.9-1.9v-44.3c0-1.1.9-1.9,1.9-1.9h55.8c1.1,0,1.9.9,1.9,1.9v44.3c.1,1-.8,1.9-1.8,1.9Z"/>
    <path class="cls-29" d="m2364.2,1420.7h-55.9c-1.1,0-1.9-.9-1.9-1.9v-44.3c0-1.1.9-1.9,1.9-1.9h55.8c1.1,0,1.9.9,1.9,1.9v44.3c.1,1.1-.8,1.9-1.8,1.9Z"/>
    <path class="cls-29" d="m2431.6,1305.2h-55.8c-1.1,0-1.9-.9-1.9-1.9v-44.3c0-1.1.9-1.9,1.9-1.9h55.8c1.1,0,1.9.9,1.9,1.9v44.3c.1,1.1-.8,1.9-1.9,1.9Z"/>
    <path class="cls-29" d="m2431.6,1363h-55.8c-1.1,0-1.9-.9-1.9-1.9v-44.3c0-1.1.9-1.9,1.9-1.9h55.8c1.1,0,1.9.9,1.9,1.9v44.3c.1,1-.8,1.9-1.9,1.9Z"/>
    <path class="cls-29" d="m2431.6,1420.7h-55.8c-1.1,0-1.9-.9-1.9-1.9v-44.3c0-1.1.9-1.9,1.9-1.9h55.8c1.1,0,1.9.9,1.9,1.9v44.3c.1,1.1-.8,1.9-1.9,1.9Z"/>
    <path class="cls-29" d="m2296.5,1305.2h-55.8c-1.1,0-1.9-.9-1.9-1.9v-44.3c0-1.1.9-1.9,1.9-1.9h55.8c1.1,0,1.9.9,1.9,1.9v44.3c0,1.1-.9,1.9-1.9,1.9Z"/>
    <path class="cls-11" d="m2296.5,1363h-55.8c-1.1,0-1.9-.9-1.9-1.9v-44.3c0-1.1.9-1.9,1.9-1.9h55.8c1.1,0,1.9.9,1.9,1.9v44.3c0,1-.9,1.9-1.9,1.9Z"/>
    <path class="cls-29" d="m2296.5,1420.7h-55.8c-1.1,0-1.9-.9-1.9-1.9v-44.3c0-1.1.9-1.9,1.9-1.9h55.8c1.1,0,1.9.9,1.9,1.9v44.3c0,1.1-.9,1.9-1.9,1.9Z"/>
  </g>
  <path class="cls-27" d="m260.5,1081.7H47c-16.2,0-29.4-13.2-29.4-29.4v-97.2c0-16.2,13.2-29.4,29.4-29.4h213.5c16.2,0,29.4,13.2,29.4,29.4v97.2c.1,16.2-13.1,29.4-29.4,29.4Z"/>
  <ellipse class="cls-12" cx="18.9" cy="885.2" rx="18.9" ry="35.2"/>
  <rect class="cls-9" x="212" y="17.5" width="55.7" height="874.6"/>
  <path class="cls-27" d="m204.8,17.5h68c2.9,0,5.2-2.2,5.2-5v-7c0-3-2.6-5.5-5.7-5.5h-75.1c-3.5,0-5.9,3.5-4.4,6.6l2.1,4.7c1.6,3.7,5.5,6.2,9.9,6.2Z"/>
  <circle class="cls-27" cx="153.8" cy="945.5" r="136.2"/>
  <line class="cls-33" x1="261.6" y1="28.7" x2="244.8" y2="28.7"/>
  <ellipse class="cls-13" cx="153.8" cy="945.5" rx="91.4" ry="88.3"/>
  <ellipse class="cls-14" cx="153.8" cy="945.5" rx="73.8" ry="68.6"/>
  <line class="cls-33" x1="261.6" y1="42.6" x2="244.8" y2="42.6"/>
  <line class="cls-33" x1="261.6" y1="54.1" x2="244.8" y2="54.1"/>
  <line class="cls-33" x1="261.6" y1="67.4" x2="244.8" y2="67.4"/>
  <line class="cls-33" x1="261.6" y1="80.1" x2="244.8" y2="80.1"/>
  <line class="cls-33" x1="261.6" y1="93.3" x2="228.8" y2="93.3"/>
  <line class="cls-33" x1="261.6" y1="93.3" x2="244.8" y2="93.3"/>
  <line class="cls-33" x1="261.6" y1="107.3" x2="244.8" y2="107.3"/>
  <line class="cls-33" x1="261.6" y1="118.7" x2="244.8" y2="118.7"/>
  <line class="cls-33" x1="261.6" y1="132" x2="244.8" y2="132"/>
  <line class="cls-33" x1="261.6" y1="144.7" x2="244.8" y2="144.7"/>
  <line class="cls-33" x1="261.6" y1="157.9" x2="228.8" y2="157.9"/>
  <line class="cls-33" x1="261.6" y1="157.9" x2="244.8" y2="157.9"/>
  <line class="cls-33" x1="261.6" y1="171.9" x2="244.8" y2="171.9"/>
  <line class="cls-33" x1="261.6" y1="183.4" x2="244.8" y2="183.4"/>
  <line class="cls-33" x1="261.6" y1="196.7" x2="244.8" y2="196.7"/>
  <line class="cls-33" x1="261.6" y1="209.4" x2="244.8" y2="209.4"/>
  <line class="cls-33" x1="261.6" y1="222.6" x2="228.8" y2="222.6"/>
  <line class="cls-33" x1="261.6" y1="222.6" x2="244.8" y2="222.6"/>
  <line class="cls-33" x1="261.6" y1="236.6" x2="244.8" y2="236.6"/>
  <line class="cls-33" x1="261.6" y1="248" x2="244.8" y2="248"/>
  <line class="cls-33" x1="261.6" y1="261.3" x2="244.8" y2="261.3"/>
  <line class="cls-33" x1="261.6" y1="274" x2="244.8" y2="274"/>
  <line class="cls-33" x1="261.6" y1="287.2" x2="228.8" y2="287.2"/>
  <line class="cls-33" x1="261.6" y1="287.2" x2="244.8" y2="287.2"/>
  <line class="cls-33" x1="261.6" y1="301.2" x2="244.8" y2="301.2"/>
  <line class="cls-33" x1="261.6" y1="312.6" x2="244.8" y2="312.6"/>
  <line class="cls-33" x1="261.6" y1="326" x2="244.8" y2="326"/>
  <line class="cls-33" x1="261.6" y1="338.7" x2="244.8" y2="338.7"/>
  <line class="cls-33" x1="261.6" y1="351.9" x2="228.8" y2="351.9"/>
  <line class="cls-33" x1="261.6" y1="351.9" x2="244.8" y2="351.9"/>
  <line class="cls-33" x1="261.6" y1="365.8" x2="244.8" y2="365.8"/>
  <line class="cls-33" x1="261.6" y1="377.3" x2="244.8" y2="377.3"/>
  <line class="cls-33" x1="261.6" y1="390.6" x2="244.8" y2="390.6"/>
  <line class="cls-33" x1="261.6" y1="403.3" x2="244.8" y2="403.3"/>
  <line class="cls-33" x1="261.6" y1="416.5" x2="228.8" y2="416.5"/>
  <line class="cls-33" x1="261.6" y1="416.5" x2="244.8" y2="416.5"/>
  <line class="cls-33" x1="261.6" y1="430.5" x2="244.8" y2="430.5"/>
  <line class="cls-33" x1="261.6" y1="441.9" x2="244.8" y2="441.9"/>
  <line class="cls-33" x1="261.6" y1="455.3" x2="244.8" y2="455.3"/>
  <line class="cls-33" x1="261.6" y1="467.9" x2="244.8" y2="467.9"/>
  <line class="cls-33" x1="261.6" y1="481.2" x2="228.8" y2="481.2"/>
  <line class="cls-33" x1="261.6" y1="481.2" x2="244.8" y2="481.2"/>
  <line class="cls-33" x1="261.6" y1="495.1" x2="244.8" y2="495.1"/>
  <line class="cls-33" x1="261.6" y1="506.6" x2="244.8" y2="506.6"/>
  <line class="cls-33" x1="261.6" y1="519.9" x2="244.8" y2="519.9"/>
  <line class="cls-33" x1="261.6" y1="532.6" x2="244.8" y2="532.6"/>
  <line class="cls-33" x1="261.6" y1="545.8" x2="228.8" y2="545.8"/>
  <line class="cls-33" x1="261.6" y1="545.8" x2="244.8" y2="545.8"/>
  <line class="cls-33" x1="261.6" y1="559.8" x2="244.8" y2="559.8"/>
  <line class="cls-33" x1="261.6" y1="571.2" x2="244.8" y2="571.2"/>
  <line class="cls-33" x1="261.6" y1="584.5" x2="244.8" y2="584.5"/>
  <line class="cls-33" x1="261.6" y1="597.2" x2="244.8" y2="597.2"/>
  <line class="cls-33" x1="261.6" y1="610.5" x2="228.8" y2="610.5"/>
  <line class="cls-33" x1="261.6" y1="610.5" x2="244.8" y2="610.5"/>
  <line class="cls-33" x1="261.6" y1="624.4" x2="244.8" y2="624.4"/>
  <line class="cls-33" x1="261.6" y1="635.9" x2="244.8" y2="635.9"/>
  <line class="cls-33" x1="261.6" y1="649.2" x2="244.8" y2="649.2"/>
  <line class="cls-33" x1="261.6" y1="661.9" x2="244.8" y2="661.9"/>
  <line class="cls-33" x1="261.6" y1="675.1" x2="228.8" y2="675.1"/>
  <line class="cls-33" x1="261.6" y1="675.1" x2="244.8" y2="675.1"/>
  <line class="cls-33" x1="261.6" y1="689.1" x2="244.8" y2="689.1"/>
  <line class="cls-33" x1="261.6" y1="700.5" x2="244.8" y2="700.5"/>
  <line class="cls-33" x1="261.6" y1="713.8" x2="244.8" y2="713.8"/>
  <line class="cls-33" x1="261.6" y1="726.5" x2="244.8" y2="726.5"/>
  <line class="cls-33" x1="261.6" y1="739.7" x2="228.8" y2="739.7"/>
  <line class="cls-33" x1="261.6" y1="739.7" x2="244.8" y2="739.7"/>
  <line class="cls-33" x1="261.6" y1="753.7" x2="244.8" y2="753.7"/>
  <line class="cls-33" x1="261.6" y1="765.2" x2="244.8" y2="765.2"/>
  <line class="cls-33" x1="261.6" y1="778.5" x2="244.8" y2="778.5"/>
  <line class="cls-33" x1="261.6" y1="791.2" x2="244.8" y2="791.2"/>
  <line class="cls-33" x1="261.6" y1="804.4" x2="228.8" y2="804.4"/>
  <line class="cls-33" x1="261.6" y1="814.9" x2="244.8" y2="814.9"/>
  <path class="cls-19" d="m1090.6,1352.8h-105.1c-.7,0-1.2-.5-1.2-1.2v-18.4c0-.7.5-1.2,1.2-1.2h105.1c.7,0,1.2.5,1.2,1.2v18.4c0,.6-.5,1.2-1.2,1.2Z"/>
  <path class="cls-19" d="m1258.2,1352.8h-105.1c-.7,0-1.2-.5-1.2-1.2v-18.4c0-.7.5-1.2,1.2-1.2h105.1c.7,0,1.2.5,1.2,1.2v18.4c0,.6-.5,1.2-1.2,1.2Z"/>
  <g>
    <rect class="cls-27" x="993.6" y="1393" width="88.9" height="23.4"/>
    <rect class="cls-27" x="993.6" y="1436.5" width="88.9" height="302"/>
    <rect class="cls-27" x="993.6" y="1351.2" width="88.9" height="25.1"/>
    <rect class="cls-27" x="1161.2" y="1351.2" width="88.9" height="25.1"/>
    <rect class="cls-27" x="1161.2" y="1436.5" width="88.9" height="302"/>
    <rect class="cls-27" x="1161.2" y="1393" width="88.9" height="23.4"/>
  </g>
  <path class="cls-29" d="m714.4,1860.3H236.3c-6.3,0-20.9,4.9-20.6,11.4l3.6,307.1c.3,6.1,5.1,10.9,11,10.9h484.1c6.1,0,11-5.1,11-11.4v-306.6c0-6.3-4.9-11.4-11-11.4Z"/>
  <polygon class="cls-19" points="827.1 1409.2 443.2 1408.1 455 1185.6 815.3 1185.6 827.1 1409.2"/>
  <path class="cls-19" d="m316.8,1860.3h318.4v-443.9h-191.9c-11.1,46.3-22.1,92.5-33.2,138.8-24.4,101.7-69,203.4-93.3,305.1h0Z"/>
  <polygon class="cls-19" points="933.7 1860.3 635.1 1860.3 635.1 1416.4 829.9 1416.4 933.7 1860.3"/>
  <polygon class="cls-27" points="823.2 1334.3 447.1 1333.8 450 1280.7 820.3 1280.7 823.2 1334.3"/>
  <polygon class="cls-27" points="829.9 1416.4 442.7 1418.4 444.2 1389.9 826.1 1389.9 829.9 1416.4"/>
  <path class="cls-2" d="m584.7,1123.6c3.5-14.2,2.9-28-1.7-52.7-2.3-12.1-3.4-18.1-4.2-37.5-.6-13.8,4.8-39-27-58.5-27-16.6-40.4-24.9-46.1-31.2-22.1-24.4-25.9-56.2-28.1-74.8-1.9-15.9-4.3-36.2,3-60.2,12.4-40.6,44.1-63.6,65.2-78.9,11.6-8.4,8-4.1,43.1-26,29-18,43.5-27.1,60.2-40.5,23.5-18.9,38-30.6,49.1-50.9,3.5-6.5,11.1-21.8,15-62.3,4.2-43.2-.7-64.5-3-149.5-.6-21.5-.8-38.7,7-59.2,3.7-9.7,12.6-32.3,35.1-46.7,16-10.3,31.3-11.6,43.1-12.5,45.9-3.4,82.1,17.2,95.2,24.9,42.6,25,64.3,60,75.2,77.9,20.1,33.2,27.5,63,30.1,74.8,4.7,21.4,11.1,51.2,2,87.2-7.6,29.8-22.2,50-29.1,59.2-16.9,22.7-15.5,25.8-42.5,48-12.1,10-50.7,42.3-58.5,49.9-6.7,6.4-20.2,17.2-26.2,21.9-11.7,9.2-25.7,21.9-36.5,35.5-6.1,7.7-12.6,19.2-33.7,55.2-7.9,13.5-9.6,25.8-13.2,37.3-6.1,19.2-6.2,22.9-9.6,33.5-8,25-19.6,42.2-34.8,64.6-18.2,26.7-18.2,20.8-31.8,41.6-9.5,14.5-26.8,43.8-37.8,84.5-4.3,15.8-7.9,35.7-9.1,45.5"/>
  <path class="cls-27" d="m848.3,1185.2h-437.4c-2,0-3.6-1.6-3.6-3.6v-54.4c0-2,1.6-3.6,3.6-3.6h437.4c2,0,3.6,1.6,3.6,3.6v54.4c0,2-1.6,3.6-3.6,3.6Z"/>
  <path class="cls-27" d="m689.4,1738.5h648.8c3.1,0,5.6,2.5,5.6,5.6v440.1c0,3.1-2.5,5.6-5.6,5.6h-648.8c-3.1,0-5.6-2.5-5.6-5.6v-440.1c0-3.1,2.5-5.6,5.6-5.6h0Z"/>
  <path class="cls-2" d="m812.3,79.1c-1.5-.2-8.2-.8-16.8,1.1-11.4,2.5-19.2,7.9-23.7,11.2-3.8,2.7-16.7,12.5-26.2,30.7-9.2,17.7-10.1,33.6-10.5,40.9-.4,7.4-.9,21.1,4.9,37.3,2.5,6.9,9.7,26.4,28.3,38,3.7,2.3,8.8,5.4,16.1,6.5,13.1,1.9,23.6-4.1,29.3-7.6,14.7-8.8,21.8-21.4,27.2-31.1,2.2-3.9,10.4-19,14-41.2,2-12.4,4.9-31.9-3.1-53.2-2.7-7-6.1-15.7-14.7-22.8-9.8-8.1-20.7-9.4-24.8-9.8h0Z"/>
  <path class="cls-2" d="m922.7,155.8c-5.7-1.2-10.3,1.1-16.8,4.3-16.9,8.5-25.7,22.9-30,30-6.2,10.3-12.2,20.3-12.6,34.7-.1,4.8-.7,26.8,13.3,35.1,9,5.4,19.3,2.3,24.4.7,15.7-4.7,24.3-17.2,30.4-26,3.7-5.4,9.5-14,11.9-26.8.7-3.6,2-11,.3-20.3-.2-1.5-5.2-28.3-20.9-31.7h0Z"/>
  <path class="cls-2" d="m989.4,219.4c-7.8-1.1-13.9,2.1-16.8,3.6-16.1,8.6-21.1,27.9-23.7,38-3.1,11.8-6,23.1-.3,34.7,1,2,6.4,12.6,18.5,17,13.5,4.8,25.3-1.7,28.6-3.6,11.9-6.7,16.7-17.6,18.9-22.4,6.8-15.4,4.3-29.4,3.5-33.3-.9-4.5-2.6-12.9-9.1-21-3-3.6-9.3-11.6-19.6-13Z"/>
  <path class="cls-2" d="m1048.4,309.1c-4.7-.5-9.6.5-17.1,4.3-10.7,5.6-24.1,12.5-30.4,28.6-1.9,4.9-6.1,15.8-1.4,27.1,5.4,12.9,18.4,16.9,21.3,17.7,12.8,3.9,23.4-1,26.5-2.5,14.1-6.7,19.5-19.8,21-23.5,5.2-13.1,2.9-24.7,2.1-28.2-1.2-5.6-2.9-13.1-9.4-18.4-5.3-4.3-10.9-4.9-12.6-5.1h0Z"/>
  <path class="cls-2" d="m1063.4,407.9c-11.9.6-20.1,7.8-24.8,11.9-6.1,5.4-13.7,12-15.7,23.5-.4,2.3-2.6,14.7,5.2,24.2,6.3,7.7,15.2,8.8,19.9,9.4,12.8,1.6,22.5-4.1,25.1-5.8,10.7-6.7,15.2-16.4,16.1-18.4,1.6-3.7,7.4-17,1-29.7-3.9-7.8-10.5-11.4-12.2-12.3-6.2-3.2-11.9-3-14.6-2.8h0Z"/>
  <g id="route">
    <path class="cls-2" d="m4994.1,2871.1H326.5c-58.1,0-105.2-65.4-105.2-145.9v-535.4h4878.1v535.4c-.1,80.5-47.1,145.9-105.3,145.9Z"/>
  </g>
  <g id="grue" class="cls-37">
    <polyline class="cls-34" points="3593.3 439.6 2816.2 439.9 2845.2 396.6 2848.2 396.6 3351.8 396.8 3372 439.9"/>
    <polyline class="cls-34" points="2845.4 394.1 2845.4 433.1 2884 396.2"/>
    <polyline class="cls-34" points="2888.2 394.3 2888.2 433.4 2926.8 396.5"/>
    <polyline class="cls-34" points="2931 394.3 2931 433.4 2969.6 396.5"/>
    <polyline class="cls-34" points="2973.5 394.2 2973.5 433.3 3012.1 396.4"/>
    <polyline class="cls-34" points="3016.3 394.5 3016.3 433.5 3054.9 396.6"/>
    <polyline class="cls-34" points="3059.1 394.5 3059.1 433.5 3097.7 396.6"/>
    <polyline class="cls-34" points="3100.2 394.3 3100.2 431.5 3138.8 396.3"/>
    <polyline class="cls-34" points="3143 394.5 3143 432.3 3181.6 396.6"/>
    <polyline class="cls-34" points="3185.9 394.5 3185.9 431.5 3224.5 396.6"/>
    <polyline class="cls-34" points="3228.3 394.4 3228.3 431.5 3266.9 396.5"/>
    <polyline class="cls-34" points="3271.1 394.7 3271.1 431.5 3309.7 396.7"/>
    <polyline class="cls-34" points="3314 394.7 3314 431.5 3352.6 396.7"/>
    <line class="cls-31" x1="3412.6" y1="281.5" x2="2915.9" y2="394.1"/>
    <line class="cls-31" x1="3196.8" y1="393" x2="3412.6" y2="281.5"/>
    <line class="cls-31" x1="2995.6" y1="526.1" x2="2992.8" y2="1184.9"/>
    <line class="cls-31" x1="3027.1" y1="523.1" x2="3033.5" y2="1187.5"/>
    <polygon class="cls-28" points="3059.1 522.1 2959.7 522.1 2960.7 441.2 3060.2 441.2 3059.1 522.1"/>
    <path class="cls-28" d="m3473.6,545.9h-86.3c-7.4,0-13.4-6-13.4-13.4v-52.9c0-7.4,6-13.4,13.4-13.4h86.3c7.4,0,13.4,6,13.4,13.4v52.9c-.1,7.4-6,13.4-13.4,13.4Z"/>
    <rect class="cls-28" x="3392.8" y="545.9" width="75.2" height="75.2"/>
    <path class="cls-28" d="m3479.5,645.7h-98.2c-.1,0-.2.1-.2.2v33.7c0,.1.1.2.2.2h98.2c.1,0,.2-.1.2-.2v-33.7c.1-.1,0-.2-.2-.2Z"/>
    <path class="cls-28" d="m3479.2,645.7h-97.4c-.3,0-.5-.3-.4-.6l11.8-23.7c.1-.1.2-.2.4-.2h75.4c.2,0,.3.1.4.3l10.2,23.7c.1.2-.1.5-.4.5h0Z"/>
    <path class="cls-28" d="m3534.4,1556.4h-205.5v-15.5c0-10,8.1-18.1,18.1-18.1h169.3c10,0,18.1,8.1,18.1,18.1v15.5h0Z"/>
    <path class="cls-28" d="m3609.1,1584.7h-355.8c-3.1,0-5.6-2.5-5.6-5.6v-16.3c0-3.1,2.5-5.6,5.6-5.6h355.9c3.1,0,5.6,2.5,5.6,5.6v16.3c0,3.1-2.6,5.6-5.7,5.6Z"/>
    <polyline class="cls-34" points="3467.8 1447.9 3407.4 1447.9 3455 1393.3"/>
    <polyline class="cls-34" points="3467.8 1393.4 3407.4 1393.4 3455 1338.8"/>
    <polyline class="cls-34" points="3467.8 1338.9 3407.4 1338.9 3455 1284.3"/>
    <polyline class="cls-34" points="3467.8 1284.4 3407.4 1284.4 3455 1229.8"/>
    <polyline class="cls-34" points="3467.8 1229.9 3407.4 1229.9 3455 1175.3"/>
    <polyline class="cls-34" points="3467.8 1175.4 3407.4 1175.4 3455 1120.8"/>
    <polyline class="cls-34" points="3467.8 1120.9 3407.4 1120.9 3455 1066.4"/>
    <polyline class="cls-34" points="3467.8 1066.4 3407.4 1066.4 3455 1011.9"/>
    <polyline class="cls-34" points="3467.8 1011.9 3407.4 1011.9 3455 957.4"/>
    <polyline class="cls-34" points="3467.8 957.4 3407.4 957.4 3455 902.9"/>
    <polyline class="cls-34" points="3467.8 902.9 3407.4 902.9 3455 848.4"/>
    <polyline class="cls-34" points="3467.8 848.4 3407.4 848.4 3448 796.5"/>
    <polyline class="cls-34" points="3465.7 796.5 3409 796.5 3453.7 742"/>
    <polyline class="cls-34" points="3465.7 742 3409 742 3465.6 680.4"/>
    <line class="cls-34" x1="3401" y1="679.1" x2="3401" y2="1522.2"/>
    <line class="cls-34" x1="3465.6" y1="680.4" x2="3471.1" y2="1523.1"/>
    <line class="cls-34" x1="3401" y1="1522.2" x2="3467.8" y2="1447.9"/>
    <circle class="cls-28" cx="3430.4" cy="274.8" r="20"/>
    <line class="cls-34" x1="3394.6" y1="469.8" x2="3427.7" y2="280.7"/>
    <line class="cls-34" x1="3467" y1="474.6" x2="3435.1" y2="287.1"/>
    <line class="cls-34" x1="3440.1" y1="318.6" x2="3415.3" y2="351.6"/>
    <line class="cls-34" x1="3401" y1="433.5" x2="3451.7" y2="384.6"/>
    <line class="cls-34" x1="3415.3" y1="351.6" x2="3451.7" y2="384.6"/>
    <path class="cls-28" d="m3745.9,466.8h-122.6c-2.9,0-5.2-2.4-5.2-5.2v-9.1c0-2.9,2.4-5.2,5.2-5.2h122.6c2.9,0,5.2,2.4,5.2,5.2v9.1c0,2.8-2.3,5.2-5.2,5.2Z"/>
    <path class="cls-28" d="m3704.2,513.3h-39.2c-7.2,0-13.1-5.9-13.1-13.1v-30.1c0-7.2,5.9-13.1,13.1-13.1h39.2c7.2,0,13.1,5.9,13.1,13.1v30.1c0,7.2-5.9,13.1-13.1,13.1Z"/>
    <rect class="cls-28" x="2992.9" y="1129.6" width="40.6" height="57.9"/>
    <path class="cls-36" d="m3035.4,1237.5c.9,2.8,1.9,7.1,1.8,12.4-.2,5.8-.4,14-6.4,18.5-6.1,4.5-15.4,3.1-21.2-1-5-3.6-6.6-8.8-7.9-12.7-.7-2.3-3.5-11.7.4-21.6,3.2-8.2,7.9-8.8,10.5-17.1,1.6-5.1,1.3-9.7.8-12.7"/>
    <path class="cls-28" d="m3016.4,1187.5h-4.8c-2.3,0-4.2,1.9-4.2,4.2v7.3c0,2.3,1.9,4.2,4.2,4.2h4.8c2.3,0,4.2-1.9,4.2-4.2v-7.3c0-2.3-1.9-4.2-4.2-4.2Z"/>
    <rect class="cls-28" x="3593.7" y="418.3" width="181.7" height="38.7"/>
    <line class="cls-31" x1="3450.5" y1="281.4" x2="3735.5" y2="418.3"/>
    <line class="cls-31" x1="3681.8" y1="433.5" x2="3450.5" y2="281.4"/>
  </g>
  <g>
    <path class="cls-19" d="m3587.9,1056.3c-19.7.3-39.3,12-73,55.1-76.8,98.6-99.7,198.3-104.5,220.6-13.1,60.3-19.4,91.7-5.9,130.7,21.7,62.9,76.4,91.7,84.8,96,33.4,17,63.9,17.6,96.6,18.4,11.7.3,44.2.3,84.8-10.2,30.9-8,46.3-12,63.1-24.5,41.5-30.9,50.5-82.4,53.2-98,1.1-6.4,4.7-29.1-2-75.6-4.2-29-15.1-86-49.3-155.2-32-64.8-64.4-100.1-80.8-116.4-39.5-39.3-58.9-41-67-40.9h0Z"/>
    <path class="cls-26" d="m3663.2,1322.6c1.5,1-8.3,19.1-14.7,33.2-14.1,31.1-21.4,58.8-25.7,114-7.5,96.2-8.4,140.1-9.6,170.5-.2,4.7,1.3,22.8,1.4,34.4,0,0-2.3.5-6.4.7-11,.5-20.8.3-20.8.3l-4.6.2h-4.7c-.4-2.2-.2-8.7-.1-9.6,1.7-25,1.1-41.8,3.2-63.6,4.7-48.7.5-43.7,5-67.9,2.5-13.1,5.2-22.6,5.5-38.9.2-13.2-1.2-22.7-3.2-35.1-2.4-15.1-5.9-36.3-16.5-61.3,0,0-9.6-22.6-22-34.7-6-5.8-8.3-7.1-8.3-7.1-1.4-.7-2.8-1.4-2.7-1.9.1-.9,6.5,2.2,8.9,3.3,7.2,3.5,9.7,7.3,12.4,10.1,11.1,11.6,11.7,12.7,16.5,21.3,6.3,11.3,5.8,7.9,17.3,32.8,2.5,5.4,4.1,11.4,5.8,17.2,1.9,6.6,4.3,5.5,5.2,5.5,1.2,0,1.7-8.7,2.8-15.7,1.6-10.9,5-19.1,11.9-35.6,8-19.1,16-33.1,19.3-38.5,9.5-16.2,22.5-34.6,24.1-33.6h0Z"/>
  </g>
  <g>
    <path class="cls-19" d="m4851.9,1204.5c-7,.1-14,4.3-26,19.6-27.4,35.1-35.5,70.7-37.2,78.6-4.7,21.5-6.9,32.7-2.1,46.6,7.7,22.4,27.2,32.7,30.2,34.2,11.9,6,22.8,6.3,34.4,6.5,4.2.1,15.8.1,30.2-3.6,11-2.9,16.5-4.3,22.5-8.7,14.8-11,18-29.4,19-34.9.4-2.3,1.7-10.4-.7-26.9-1.5-10.3-5.4-30.6-17.6-55.3-11.4-23.1-23-35.7-28.8-41.5-14.1-14-21-14.6-23.9-14.6h0Z"/>
    <path class="cls-26" d="m4878.8,1299.4c.5.3-2.9,6.8-5.2,11.8-5,11.1-7.6,20.9-9.1,40.6-2.7,34.3-3,49.9-3.4,60.7-.1,1.7.5,8.1.5,12.3,0,0-.8.2-2.3.3-3.9.2-7.4.1-7.4.1l-1.6.1h-1.7c-.1-.8-.1-3.1,0-3.4.6-8.9.4-14.9,1.1-22.6,1.7-17.4.2-15.6,1.8-24.2.9-4.7,1.9-8,2-13.9.1-4.7-.4-8.1-1.1-12.5-.9-5.4-2.1-12.9-5.9-21.8,0,0-3.4-8.1-7.8-12.3-2.1-2.1-3-2.5-3-2.5-.5-.3-1-.5-1-.7.1-.3,2.3.8,3.2,1.2,2.6,1.2,3.5,2.6,4.4,3.6,4,4.1,4.2,4.5,5.9,7.6,2.2,4,2,2.8,6.2,11.7.9,1.9,1.5,4.1,2.1,6.1.7,2.3,1.5,2,1.9,2s.6-3.1,1-5.6c.6-3.9,1.8-6.8,4.2-12.7,2.9-6.8,5.7-11.8,6.9-13.7,3.1-6,7.7-12.6,8.3-12.2h0Z"/>
  </g>
  <g>
    <path class="cls-27" d="m4418.3,1548.2h0c-10,0-24.9-7.8-24.9-18.2l14.8-683.2c0-10.5-1.7-19.8,8.3-19.8h1.6c7.5,0,7.2,7.3,7.7,17.6l18.5,688.4c.3,10.5-15.9,15.2-26,15.2Z"/>
    <path class="cls-27" d="m4419,738.6s12.4,60.2,0,60.2-42.1-27.6-31.5-76.5c9-41.2,23.1-93.1,35.6-93.1s-2.6,66.8-4.1,109.4Z"/>
    <path class="cls-27" d="m4464.7,846.1s-54.4-24.6-47.3-35.1c7.2-10.5,46.1-19.4,78.3,18.1,27.1,31.5,59.6,73.7,52.3,84.2-7.1,10.4-50.8-41.1-83.3-67.2Z"/>
    <path class="cls-27" d="m4349.6,822.6s54-25.8,56.8-13.3c2.7,12.5-16.7,48.6-65.2,48.6-40.8,0-92.7-3-95.5-15.5-2.7-12.5,63.5-12,103.9-19.8h0Z"/>
  </g>
  <g>
    <path class="cls-27" d="m4944.4,1420.3h0c-4.1,0-10.1-3.4-10.1-8.1l6-302.3c0-4.6-.7-8.8,3.4-8.8h.7c3,0,2.9,3.2,3.1,7.8l7.5,304.7c0,4.7-6.5,6.7-10.6,6.7h0Z"/>
    <path class="cls-27" d="m4944.6,1062.1s5,26.6,0,26.6-17.1-12.2-12.8-33.9c3.6-18.2,9.4-41.2,14.4-41.2,5.1.1-.9,29.6-1.6,48.5Z"/>
    <path class="cls-27" d="m4963.2,1109.6s-22.1-10.9-19.2-15.5,18.7-8.6,31.8,8c11,14,24.2,32.6,21.2,37.2-2.9,4.7-20.6-18.1-33.8-29.7Z"/>
    <path class="cls-27" d="m4916.5,1099.2s21.9-11.4,23-5.9-6.8,21.5-26.4,21.5c-16.6,0-37.7-1.3-38.8-6.9-1.1-5.4,25.8-5.2,42.2-8.7h0Z"/>
  </g>
  <g id="bus">
    <g>
      <rect class="cls-27" x="3130.5" y="2163.8" width="1167.1" height="112.6"/>
      <path class="cls-27" d="m4516,2190.4h-1443.5v-377.6c0-6.4,5.2-11.6,11.6-11.6h1420.4c6.4,0,11.6,5.2,11.6,11.6v377.6h-.1Z"/>
      <path class="cls-27" d="m4413.9,1825h-618.6c-10,0-15.6-14.5-9.4-24.4l20.2-32.1c2.3-3.6,5.7-5.7,9.4-5.7h598.4c6.6,0,12,6.7,12,15v32.1c0,8.4-5.4,15.1-12,15.1h0Z"/>
      <path class="cls-27" d="m3084,1843.3h-47.9c-1.3,0-2.4-1.1-2.4-2.4v-12.5c0-1.3,1.1-2.4,2.4-2.4h47.9v17.3h0Z"/>
      <path class="cls-27" d="m3028.7,1834.6h20.1c2.2,0,4,1.8,4,4v143.5c0,2.2-1.8,4-4,4h-20.1c-2.2,0-4-1.8-4-4v-143.5c.1-2.2,1.8-4,4-4Z"/>
      <path class="cls-27" d="m3167.6,2277.4c7.2,0,4.1-21.9,15.6-41.2,4.3-7.1,14.8-25.1,35.3-35.4,31.7-15.9,63.2-2.3,68.3,0,9.2,4.2,28.4,14.4,40,37.8,6.1,12.3,4.8,28.3,8.2,36.6.3.7,3.5.4,5.7.5,3,.1,5.2,0,5.7,0h60.8c64,0,236.4.4,236.4.4,298,.7,293.3.1,295.6.4,0,0,132.4-.9,149.9-.4.6,0-.3-2.5-.2-6,.1-1.6.3-4.6,2-11.7.6-2.3,1.5-6.2,2.8-10,4.8-14.4,13.5-25.3,13.5-25.3,1.5-1.8,8-9.9,19.3-17.2,10.5-6.8,19.8-9.5,23.4-10.5,4-1,14-3.3,27-2.2,17.9,1.6,30.3,8.7,33.1,10.3,2.1,1.2,10.8,6.5,19.5,16.5,7.2,8.3,15,17.1,17.3,30.1,2.1,11.7,3.6,21.2,4,25.9,0,.4,1.3.3,3.1.4,5.7.5,9.9.2,10.4.1,11.3-.9,22.7.1,34.1.1,35.6,0,49.9.3,53.6.4,3.2.1,12.8.4,25.3-.5,1-.1,1.9-.3,3.7-.6,11.2-1.7,17.9-3.3,30.3-5.9,3-.6,6.5-1.3,13.5-2.8,29-5.8,43.5-8.8,46.9-9.1,0,0,6.3-.6,22-4.3.5-.1,1.6-.4,2.9-1,3.4-1.5,5.5-3.8,6.9-5.4,1.7-1.9,5.3-6.3,5.4-10,0-.3.2-1.6.2-3.5,0-1.5-.1-2.5-.1-2.8.1-6,.1-13,0-16.3,0-.3.6-.4,1.4-.3,4.1.3,6,.3,7.1.2.5,0,.4-.7.4-2.8,0-1.4.1-2.2,0-2.9-.3-3.8-.1-15.9-.1-17.8-.1-2.9,0-.2,0-13.9-.1-29.2-.3-25.9-.2-31.1.4-18.8.2-23.4.1-32.2,0-.2,0-.3-.1-.4-.6-.8-2.7-.2-2.7-.2-2,.4-817.9-91.4-1307.4-17.5-11.9,1.8-64.3-10.9-95.2,17.2-11.3,10.2-34.4,38.8-31.9,54.7.4,2.5,2.5,12-2,16.4-2.1,2-5.8,3.3-5.9,6,0,1.2.7,2.1.9,2.4,4,5.4,13.9,47.1,7.4,67.2-6.1,19.3,57.2,17.6,86.8,17.6h0Z"/>
      <path class="cls-27" d="m3167.7,2277.4h-91.4c-2.1,0-3.8-1.7-3.8-3.8v-166.1c0-2.1,1.7-3.8,3.8-3.8h91.5c2.1,0,3.8,1.7,3.8,3.8v166.1c-.1,2.1-1.8,3.8-3.9,3.8h0Z"/>
      <ellipse class="cls-27" cx="3251.9" cy="2281" rx="72.2" ry="73.3"/>
      <ellipse class="cls-27" cx="4170.4" cy="2281" rx="72.2" ry="73.3"/>
      <path class="cls-19" d="m3219.8,2065.4h-64.2c-26.3,0-47.6-21.3-47.6-47.6v-141.8c0-7,5.7-12.7,12.7-12.7h99.1c7,0,12.7,5.7,12.7,12.7v176.8c-.1,6.9-5.7,12.6-12.7,12.6Z"/>
      <path class="cls-19" d="m3402.7,2065.4h-131.4c-7.9,0-14.4-6.4-14.4-14.4v-173.4c0-7.9,6.4-14.4,14.4-14.4h131.4c7.9,0,14.4,6.4,14.4,14.4v173.4c0,8-6.5,14.4-14.4,14.4Z"/>
      <path class="cls-19" d="m3644.6,2253.9h-167.6c-7.9,0-14.4-6.4-14.4-14.4v-361.9c0-7.9,6.4-14.4,14.4-14.4h167.6c7.9,0,14.4,6.4,14.4,14.4v361.9c0,7.9-6.4,14.4-14.4,14.4Z"/>
      <path class="cls-19" d="m4046.6,2065.4h-332.5c-7.9,0-14.4-6.4-14.4-14.4v-173.4c0-7.9,6.4-14.4,14.4-14.4h332.5c7.9,0,14.4,6.4,14.4,14.4v173.4c-.1,8-6.5,14.4-14.4,14.4Z"/>
      <path class="cls-19" d="m4444.4,2065.4h-332.5c-7.9,0-14.4-6.4-14.4-14.4v-173.4c0-7.9,6.4-14.4,14.4-14.4h332.5c7.9,0,14.4,6.4,14.4,14.4v173.4c0,8-6.4,14.4-14.4,14.4Z"/>
      <line class="cls-35" x1="3560.8" y1="1843" x2="3560.8" y2="2269.9"/>
    </g>
  </g>
  <g>
    <path d="m489.5,2681.4c-2,2.9-2,7.8-1.8,17.7.1,5.6.1,8.4,1.1,10.1,5.5,9.9,30.1,10.4,35,1.8.4-.8.8-1.7.4-9.4-.6-11.2-.9-16.8-2.5-19.1-6.2-8.9-26.4-9.4-32.2-1.1Z"/>
    <path class="cls-6" d="m486.1,2621.3c-4.5,9.3,5.5,14.7,5.6,34.9,0,14.8-5.3,21.1-.3,28.5,3.1,4.6,9.1,7.7,15.1,7.5,4.7-.1,11-2.3,13.4-7.3,2-4,.2-7.5-1.4-15.1-.7-3.4-1-9.3-1.7-21.2-1.4-26,4-32.9-.8-37.1-6.5-5.6-24.8-.7-29.9,9.8h0Z"/>
    <path class="cls-6" d="m681.6,2614c-5.4,5.1,10.6,26.5,16.5,34.3,5.3,7.1,7.4,19,17.4,28.2,17.5,16.1,43.3,34,45.9,31.7,1.8-1.6-7-15.8-19.8-36.1-16.6-26.3-14.4-37.4-29.9-48.9-11-8-26.2-12.9-30.1-9.2Z"/>
    <path d="m701.6,2653.1c-2.7,2.9-6.4,7.9-7.6,14.8-.8,4.9.3,6.8,2.2,16.2,3.6,18.6,5,23.8,6,27.2.9,3.1,7.6,3,10.1,1.7,1.2-.6.6-1.5.5-10.5-.2-12.9-.3-15,0-17.8.4-3.1,6.5,1.4,10.1,5.1,3.5,3.5,4.3,4.5,6.4,8.4,0,0,5,9.1,13.7,15.1,12.5,8.7,40.6,1.8,35.4-2.2-10.5-8.1-22.6-4.9-34.4-13"/>
    <path class="cls-18" d="m431.8,2230.6c-2.9,5.5-3.1,1-1.6,32.7,1.2,26.4,2.7,55.1,4.7,79.2,3.7,43.7,14.7,69.8,19.9,126.1,8.7,93.7,17.9,129.5,21.6,153.1,2.8,17.9,43.6,9.4,48.9,0,1.6-2.9.4-5.4-.7-16.5-.3-3.2-.4-10.7-.7-25.9-.6-33.6,5.7-103.2,5.8-171.1.1-40.3-2.1-60.8,2.9-61.8,4.7-1,11.9,16.4,27.3,56.1,33.1,85,38.8,104.5,51,130.9,31.7,68.2,40.8,70.1,59,92.8,13.6,16.9,42.3,6.5,52.5-.7,2.8-2-.8-6.2-5.8-16.5-5.1-10.5-8.7-21.8-13.7-32.4-11.8-25.1-26.7-88.8-39.5-138.1-23.4-90.1-26.8-81.9-36.7-133-8.1-42.2-13.3-70.9-22.4-83.8-38.5-55-152.1-30.4-172.5,8.9Z"/>
    <path class="cls-25" d="m548.9,1966.2c2.7-3.8,6.4-9.9,8.5-18.2,2.4-9.7,1.4-17.8-.4-30.9-2-14.8-3.6-13.4-4.1-23.4-.4-9.6.9-14-.9-24-1.1-6-1.7-9.6-4.3-13.7-4.1-6.4-10-9.2-17.9-12.7-6.6-3-14.5-6.5-25.2-7.4-20.1-1.6-36,.9-46.9,7.3-11.2,6.5-16.1,16.1-19.9,23.1-4.7,8.6-3.8,19.3-1.8,40.3,1.8,19.7,3.3,17.5,2.9,24.9-.3,5.2-1.4,14-17.7,44-8.9,16.3-17.1,29.5-18.8,32.2-14.4,23-17.6,24.9-21,34.8-5.3,15.6-3.5,29.2-2.4,37.9,3.7,28.6,18.5,48.1,27.2,59.3,10,12.8,20.1,21.5,27.1,26.9"/>
    <path class="cls-6" d="m480.5,1905.8c.3,2.5,1,6.3,2.6,10.6,2.2,5.7,4.3,7.4,6.1,10.9,2.6,5,2,8.5.9,29.5-.8,15.3-.7,16.1,0,17.1,8.9,13,54.5-1,53.8-6-.2-1.9-4.8-3.4-7.7-8.5-1.8-3.1.2-4.6-1.1-12.5-.8-4.7-2.1-7.9-.7-9,.7-.5,1.4-.1,3.1,0,0,0,2.9.2,7.4-1.3,7.9-2.7,6.9-28.7,6.6-38.5-.1-1.6-.2-4.8-2-8.3-.9-1.8-1.8-2.8-2.6-3.9-3.4-4.5-3.4-7-6.1-12.5-2.4-4.8-5-7.9-8.1-11.6-3.6-4.3-8.2-9.8-10.7-8.8-1,.4-1.2,1.8-1.8,4.4-.9,4.2-2.5,8.2-3.3,12.5,0,0-1.5,8-7.4,17.5-7.1,12-21.3,16.6-29,18.4h0Z"/>
    <path class="cls-6" d="m611.5,2108.6c-.8,4.2-2.4,10.5-5.9,17.5-6.4,12.8-12.8,15.1-15,25-1.8,8.2-.1,19.3,5.2,21.5,6.2,2.5,15.6-7.6,24.9-17.8,8.3-9.1,19.5-23,30.1-42.6"/>
    <path class="cls-1" d="m490.7,1959.2c-.6-2.9-3.6-1.4-7.5.1-11.5,4.4-11.5,1.2-20.8,5-4.3,1.7-13.7,5.7-20.1,14.9-3.7,5.2-5,10.2-5.7,12.9-8.6,33.7-10.9,54-10.9,54-5.2,46,.9,44.7-3.3,59.3-.8,2.9-3.3,11,.4,18.4.6,1.3,2.4,5,6.5,7.2,2.9,1.6,5.7,1.8,6.8,1.8,0,0,3.2.2,6.4-.9,7.4-2.3,15.2-11.6,18.8-21,3-7.7,4.4-11.5,4.1-14.6-.1-.6-.8.6,0,0,1.5-1.3,6-.9,9.3.9,10.2,5.6,15.1,1.2,19.6,5.5,7.9,7.5.4,28.2-4.1,29-.1,0,2.5-5.5-.9-5.1-2,.2-6.6,2.3-6.9,2.3-14.6,1.7-28.2,1.4-28.2,1.4-13.1.4-17.5-2.8-18.8-3.2-.4-.1-2.7-.4-3.8.3-2,1.2-3,12.8-2.9,13.9,1.3,16-2.6,32-2.6,48,.1,32.7-8.3,36-2.6,46.9,6.3,12.2,20.7,15.9,38.3,20.3,34.5,8.5,42.5-1.2,105.9-2.3,20.3-.3,31.3.5,39.4-7.9,5.9-6.1,8.4-15.1,6.8-41.7-1.9-30.3-6.9-45.1-12.4-76.6-4.3-24.7-10.7-61.1-4.5-63.1,3.6-1.2,12,9.1,14.6,20.3,3.3,13.8-4.4,19.9,0,28.2,5.2,9.8,23.6,15.1,34.9,7.9,8.3-5.2,10-15.3,11.3-22.5.6-3.7,2.2-13.5-2.3-23.7-2.6-6-4.9-6.4-11.3-15.8-4.7-6.9-5.6-9.8-10.1-18-7.8-14.1-15.4-24.3-19.1-29.3-7.5-9.9-13.5-16.3-21.4-24.8-8.9-9.6-12.4-12.4-15.8-14.6-5.1-3.5-10.7-7.4-18.9-9.2-7.3-1.7-10.2-.2-17.5-3.2-1.3-.5-4.6-1.5-5.2-.7-.9,1.2,4.9,4.6,4.3,8.1-.6,3.2-5.8,4.7-12,6.5-11,3-17.4,4.8-23.5,1.4-2.6-1.5-6.3-3-10.1-6-3.8-3.2-3.4-6.8-4.2-10.3h0Z"/>
    <path class="cls-11" d="m560.6,2163.5l-66.4-6.1c-3.5-.3-6.1-3.4-5.7-6.9l10.7-117.6c.3-3.5,3.4-6.1,6.9-5.7l66.4,6.1c3.5.3,6.1,3.4,5.7,6.9l-10.7,117.6c-.3,3.5-3.4,6-6.9,5.7Z"/>
    <path class="cls-6" d="m465.6,2094.4c39.1,8,67.6,13.9,72.7,15,.6.1,2.3.5,4.3.2,3.5-.6,5.4-2.7,8.2-5,5.1-4.1,11.8-7.5,12.9-6.3.6.7-1.1,2.2-1.8,3.5-.8,1.5-3.6,3.2-3.5,4.3.1.6,3.4.4,4,.1,1.8-1,4.2-1.9,10.4-6,2-1.3,2.8-3.5,3.7-3.1,3,1.1,2.2,10.1.7,15.6-.5,2-.8,3.4-2.1,4.1-3.3,1.9-6.4,2.4-7.8,2.3-9.2-.2-18.2,2.7-27.3,3.8-10.2,1.2-10.6,2.7-23,5.3-13.8,2.8-23.8,3.1-42.6,3.7-9.9.3-22.7.3-37.7-.4"/>
  </g>
  <g>
    <path class="cls-8" d="m2744,1942.6c-1.6,3.8.7,5.3.9,25.4,0,4.6-.1,6.7.7,9.9,2,8.2,6.3,10.3,8.4,16,2.4,6.8-1.2,11-3.5,21.5-1.7,7.4-5.9,25.8,2.3,36.3,8.5,10.8,30.3,13.7,40.4,4,10.3-9.8,7.4-32,1-41.1-1-1.5-4.2-5.5-4.7-11.4-.1-1.3-.5-5.2,1.4-9.5.8-2,1.4-2.3,3.3-5.8,0,0,1.8-3.2,3.3-6.7,2.4-5.5,2.1-11.3,2.1-15.8-.2-17,3.9-18.8,1.7-23.6-6.6-14.3-51-13.5-57.3.8h0Z"/>
    <path class="cls-8" d="m2690.2,2147.5c-3.1,3.3-10.6,11.8-9.2,21.7.2,1.8.9,4,2.8,7.4,6.2,11.5,16.2,18.1,19,20,27,17.7,40.5,26.4,61.3,28.5,7.7.8,38,3.9,59.6-12.9,2.5-2,1.3-1.4,16.8-15.7,18.6-17.1,21.3-18.9,22-22.8,2.3-12.9-21.2-28.7-37.7-36.8-58-28.4-120.3-5.2-134.6,10.6h0Z"/>
    <path d="m2745.4,1972.4c-.2,0-.6-.9-.6-.9-2.7-9.9-5-10.5-5.9-18.3-.8-7.3-1.7-15,2.9-21.7,6.7-9.7,20.4-10.8,24.6-11.1,1.2-.1,3.1.1,6.5,0,6.2-.2,7.6-.8,10.8-.6,4.6.2,8.1,1.8,9.6,2.5,2.7,1.2,8.9,4,11.7,9.9,1.3,2.8,1.5,5.4.5,13.2-1.8,13-5.7,26.5-6.8,26.3-.5-.1-.1-2,.1-10.8.2-12.6-.5-14.3-1-14.4-.6-.1-1,.9-1.8,1.8-3.6,4-10.8,3.1-14.8,2.7-11-1.4-12.9-6-18-4-2.8,1-4,3.1-8.1,3.7-3.3.5-4-.7-5.5,0-6,2.4-3,21.6-4.2,21.7h0Z"/>
    <path d="m2827.4,2526.6c2.1,8,4.6,8.1,7.3,17.5,2.2,7.6,3.6,12.8,1.2,16.7-5,8-24.1,8.1-30.1-.3-3.1-4.5-2.2-11.1-1.2-17.9,1-6.6,2.3-6.5,3-12.2,1.5-11.3-3-15.5,0-20.2,3.2-5,12.6-6.8,16.7-3.5,4.1,3.3.3,8.6,3.1,19.9Z"/>
    <path d="m2733.2,2516.7c2.7,3.1,2.4,6.7,2.7,12.2,1,19,7.4,22.7,4.2,28.1-5.5,9.3-30,8.9-34.6,0-1.4-2.7-.1-4.5,3-15.6,5.7-20.1,4.5-25.6,9.5-28.1,4.7-2.4,11.7-.4,15.2,3.4h0Z"/>
    <path class="cls-27" d="m2711.3,2523c-9.3-6-9.3-32.3-9.3-40.7.2-23.6.6-12.1-.7-90.2-1.2-70.8,2.8-50.6-.7-111.9-1.6-27.7-3.9-48.1,6.9-54.6,8.2-4.8,15.5,3.2,34.3,7.4,45.7,10.2,81-20.3,94.1-5.3,2.8,3.1,3.1,6.7,3.7,12.8,3.9,43.5,5.9,65.3,4.8,75.1-7.4,75.6,12.1,195.5-10.4,201.3-1.2.3-1.3,0-10,.9-17.3,1.8-22.3,3.6-25.6.2-1.5-1.4-2.1-3.8-3.3-8.7-1.8-6.9-1.8-12.5-1.8-13.3-.1-13-4.6-25.3-6.9-53.4-1.8-23.3,0-29.8-3.7-51.3-1.6-9.1-3.8-21.7-6.9-21.7s-5,11.4-9,30.7c-12.5,59-16.7,57.3-16.2,75.6.8,23.2,8,34,.3,41.5-6.6,6.5-20.3,6.7-30,6.8-7.2.2-8.9-.7-9.6-1.2h0Z"/>
    <path class="cls-30" d="m2751.9,2007.8c-8.2,1.8-12.2,2.8-14.9,4.2-8.3,4.3-12.5,6.3-12.8,9.5-.3,3.5,3.6,5.8,2.4,8.2-.9,2.2-5,2.4-5.8,2.4-12.9,1.3-31.6,50-40.4,70.9-13.2,31.7-21.7,44.1-16.5,56.5,6.1,14.9,17.3,19.4,17.3,19.4,1.2.5,2.2.8,3,1,0,0,.6.1,1.2.2,2.4.5,15.8-4,23.1-13.3.7-.9,2.8-3.7,5-3.3.7.1,1.2.5,1.3.7,5.2,4.5,22.3,29.3,31,39.9.8,1-.8,2.5-.8,2.5-1.4,3.1-4.6,6.2-8.1,6.3-2.3.1-5.1-.8-6.8-1.6-12-5.5-10-3.2-23.5-12.7-5.8-4-6.7-4.2-7-3.1-2.4,6.7-13.3,29.8.3,46.3,4.4,5.3,10.2,8.2,11.1,8.7,8.3,4,16,3.6,19.3,3.5,20.3-.9,54,.7,68.9,2,16.5,1.4,32.1,4.4,39.2-2.9,4.7-4.8,5.8-9.8,5.8-9.8.6-2.9,0-4.5,0-11,0-3.2.1-3.6.2-8.9.1-2.8-.1-11-.6-24.5-.1-4.3.6-6.2-.3-5.4-3.2,2.9-3.9,2.7-6.8,4.5-4.2,2.8-2.3,2.1-12.3,7.6-5,2.8-8.5,4.5-8.5,4.5-2.8,2-4.8,1.3-6.6.9-1.5-.3-2.3-1.7-3.7-4.3-1.5-2.7-3-5.4-2.3-8.3.5-2,2-3.1,2.9-4,3.7-3.3,6.1-8,9.2-11.8,7.2-9,10.7-13.5,11.5-14.7,2.5-4.2,4.3-8.1,6.3-7.7,1.3.1,2,1.8,2.3,2.5,3.7,8,15.9,16.8,23.9,15.2.7-.1,2.9-1.7,7.2-4.8,9.5-6.9,11.7-9.9,12.9-12.1.9-1.6,2.2-3.7,2.5-6.6.7-4.5-.9-8.1-1.4-9.2-4.3-9.9,9.3,13.3-12.1-38.3-11.1-26.8-16.6-40.1-19.8-45-10.8-16.3-27.3-32.5-27.3-32.5h0s.6-2.9.6-4.3c0-.9-.2-3-4.3-6.6-1.5-1.4-5.5-4.7-11.8-6.9,0,0-6.1-2.2-14-2.5h-.7s-.3,3.2-.3,4.5c-.1,2.7.5,3.8,1.6,8.7.7,2.9,1.3,5.4,1.6,8.5.5,3.8.7,6.2-.2,8.9-1,3-2.9,4.7-4.7,6.5-13.7,12.7-14,13.2-15.5,13.3-5.3.3-9.2-4.5-16.6-13.8-3.9-5-10.8-13.7-8.1-19.4.6-1,.8-.8,2.1-2.5,4.2-5.8,5-13.8,2.5-15.2-.7-1-1.4-.9-1.7-.8h0Z"/>
  </g>
  <g id="poubelle">
    <g>
      <rect x="2197.5" y="2186.8" width="10.8" height="33.4"/>
      <rect x="2313.6" y="2187.7" width="10.5" height="33.4"/>
      <polygon class="cls-27" points="2313.8 2203.5 2205.7 2203.5 2185.9 1956.1 2328.9 1956.1 2313.8 2203.5"/>
      <rect class="cls-27" x="2172.7" y="1950.8" width="169.4" height="23"/>
      <g>
        <path class="cls-3" d="m2250.1,2006c0-.1.1-.1.1-.2,2.2-4,4.6-8,6.8-12.1.4-.7.7-1.5,1.2-2.2.9-1.4,2.2-2.6,3.7-3.3.5-.2,1.1-.4,1.7-.6q.1,0,.2-.1v-.1h-.4c-2.6,0-5.1-.1-7.7-.1-2.4,0-4.8-.1-7.3-.1-.2,0-.5,0-.7.1-.9.2-1.7.7-2.3,1.4-.9.8-1.6,1.8-2.2,2.8-1.2,2.1-2.2,4.1-3.4,6.2-.3.5-.6,1.1-.9,1.6,3.6,2.6,7.4,4.7,11.2,6.7h0Zm17.7,5.8c0,.1.1.1.1.2,2.2,3.7,4.5,7.3,6.7,10.9.6.9,1.2,1.8,1.7,2.7,1.2,2.2,1.6,4.4.9,6.8v.1h0c0-.1.1-.1.1-.2,2.5-4.3,4.9-8.7,7.4-13.1.3-.6.4-1.2.5-1.8,0-.8-.1-1.6-.3-2.3-.4-1.2-1-2.2-1.7-3.2-1.4-2.2-2.8-4.6-4.2-6.8,0-.1-.1-.1-.1-.2l-11.1,6.9h0Zm-14.6,11.4h-.2c-1.9,0-3.8,0-5.8-.1h-9.3c-.7,0-1.5,0-2.2-.1-1.7-.2-3.2-.9-4.4-2-.2-.2-.3-.3-.5-.4q0,.1.1.2c2.4,4.4,4.7,8.8,7.2,13.2,0,.1.1.2.2.2.7.7,1.5,1.2,2.4,1.6,1.2.4,2.5.6,3.7.6h8.9c-.1-4.6-.1-8.9-.1-13.2h0Zm-23.1-18.4q.1.1.2.1c1,.8,2,1.6,3.1,2.4q.1.1.1.2c-1.1,2.1-2.2,4.2-3.2,6.2-.4.8-.6,1.7-.3,2.6.2.8.6,1.5,1.1,2.1.8,1,1.8,1.7,3,2.2,1,.4,2.1.6,3.2.6,1,.1,1.9.1,2.9.1.1,0,.2-.1.2-.2,1.5-2.4,2.9-4.8,4.4-7.2,0-.1.1-.1.1-.2,1.2.7,2.2,1.2,3.4,1.9,0-.1-.1-.1-.1-.2-1.9-3.6-3.9-7.2-5.8-10.8l-.2-.2c-1.8,0-3.6,0-5.4.1-2.3.1-4.5.1-6.7.3q.1,0,0,0h0Zm28.8.5s0,.1,0,0h.2c1.6,0,3.2.1,4.7.1,2.6,0,5.1.1,7.7.1.1,0,.2,0,.2-.2,1.9-3.5,3.8-7,5.7-10.5,0-.1.1-.1.1-.2-.1,0-.2.1-.2.1-1.2.5-2.5,1.1-3.7,1.6-.1.1-.2,0-.2-.1-1.3-2-2.6-3.9-3.9-5.9-.5-.7-1.2-1.2-2-1.5-.7-.2-1.3-.2-2-.2-1.2.2-2.3.5-3.3,1.2-.8.5-1.4,1.2-2,2-.8,1.1-1.5,2.2-2.2,3.4-.1.1-.1.2,0,.2,1.4,2.5,2.8,5,4.2,7.4,0,.1.1.1.1.2-1.2,1-2.3,1.6-3.4,2.3h0Zm5.3,14.5q-.1.1-.1.2c-2,3.6-4.1,7.2-6.1,10.7-.1.1-.1.2,0,.2,2.1,3.3,4.2,6.6,6.3,9.9l.1.1v-.1c.1-.6.1-1.2.2-1.7.1-.7.2-1.5.2-2.3l.1-.1c.7-.1,1.5-.1,2.2-.2.7-.1,1.4-.1,2.1-.2.8-.1,1.7-.2,2.6-.2.6,0,1.2-.2,1.7-.4.8-.4,1.3-1.1,1.7-1.9.4-.8.6-1.7.7-2.6.1-.6.1-1.1,0-1.7-.1-.8-.4-1.6-.7-2.4-.6-1.2-1.2-2.4-1.9-3.5l-.2-.2c-2,0-4,.1-6,.1h-2.5c-.1,0-.2,0-.2-.2v-.4c-.1-.9-.1-1.8-.2-2.7,0-.1,0-.3,0-.4h0Z"/>
        <path class="cls-3" d="m2250.1,2006c-3.8-2.1-7.6-4.2-11.4-6.3.3-.6.6-1.1.9-1.6,1.2-2.1,2.2-4.1,3.4-6.2.6-1.1,1.3-2,2.2-2.8.7-.7,1.4-1.2,2.3-1.4.2-.1.5-.1.7-.1,2.4,0,4.8.1,7.3.1s5.1.1,7.7.1h.4v.1c-.1,0-.1.1-.2.1-.6.2-1.1.3-1.7.6-1.6.7-2.7,1.8-3.7,3.3-.4.7-.8,1.4-1.2,2.2-2.1,4-4.4,8-6.7,11.9h0Z"/>
        <path class="cls-3" d="m2267.8,2011.8c3.7-2.3,7.3-4.6,11.1-6.9,0,.1.1.1.1.2,1.4,2.2,2.8,4.6,4.2,6.8.7,1,1.2,2.1,1.7,3.2.2.7.4,1.6.3,2.3,0,.7-.2,1.2-.5,1.8-2.5,4.3-5,8.7-7.4,13.1,0,.1-.1.1-.1.2h0v-.1c.7-2.4.3-4.7-.9-6.8-.5-.9-1.2-1.8-1.7-2.7-2.2-3.7-4.5-7.3-6.7-10.9q-.1-.1-.1-.2h0Z"/>
        <path class="cls-3" d="m2253.2,2023.2v13.1h-8.9c-1.2,0-2.6-.2-3.7-.6-.9-.3-1.7-.8-2.4-1.6-.1-.1-.1-.2-.2-.2-2.4-4.4-4.7-8.8-7.2-13.2,0,0,0-.1-.1-.2.2.2.3.3.5.4,1.2,1.1,2.7,1.7,4.4,2,.7.1,1.5.2,2.2.1h9.3c1.9,0,3.8,0,5.8.1.1.1.2.1.3.1h0Z"/>
        <path class="cls-3" d="m2230.1,2004.8h.2c2.2,0,4.3,0,6.5-.1,1.8,0,3.6,0,5.4-.1.1,0,.2.1.2.2,1.9,3.6,3.9,7.2,5.8,10.8,0,0,0,.1.1.2-1.2-.7-2.2-1.2-3.4-1.9,0,.1-.1.1-.1.2-1.5,2.4-3,4.8-4.4,7.2l-.2.2c-1,0-1.9,0-2.9-.1-1.1-.1-2.2-.2-3.2-.6-1.2-.5-2.2-1.2-3-2.2-.5-.7-.9-1.3-1.1-2.1-.2-.9-.1-1.7.3-2.6,1.1-2.1,2.2-4.2,3.2-6.2.1-.1,0-.2-.1-.2-1-.8-2.1-1.6-3.1-2.4-.1-.1-.1-.2-.2-.3h0Z"/>
        <path class="cls-3" d="m2258.9,2005.3c1.1-.7,2.2-1.3,3.2-2,0-.1-.1-.1-.1-.2-1.4-2.5-2.8-5-4.2-7.4-.1-.1-.1-.2,0-.2.7-1.2,1.3-2.3,2.2-3.4.6-.7,1.2-1.5,2-2,1-.7,2.1-1.1,3.3-1.2.7-.1,1.3-.1,2,.2.8.2,1.5.7,2,1.5,1.3,2,2.6,3.9,3.9,5.9.1.1.2.1.2.1,1.2-.5,2.5-1.1,3.7-1.6.1,0,.1-.1.2-.1,0,.1-.1.1-.1.2-1.9,3.5-3.8,7-5.7,10.5-.1.1-.1.2-.2.2-2.6,0-5.1-.1-7.7-.1-1.6,0-3.2-.1-4.7-.1.1-.2,0-.2,0-.3,0,.1,0,0,0,0h0Z"/>
        <path class="cls-3" d="m2264.2,2019.8c0,.2,0,.4.1.6.1.9.1,1.8.2,2.7v.4c0,.1.1.2.2.2h2.5c2,0,4,0,6-.1.1,0,.2.1.2.2.7,1.2,1.4,2.2,1.9,3.5.3.7.6,1.6.7,2.4.1.6.1,1.1,0,1.7-.1.9-.3,1.7-.7,2.6-.4.8-.9,1.5-1.7,1.9-.5.2-1.1.4-1.7.4-.8.1-1.7.2-2.6.2-.7.1-1.4.1-2.1.2-.7.1-1.5.1-2.2.2l-.1.1c-.1.7-.2,1.5-.2,2.3-.1.6-.1,1.2-.2,1.7v.1c0-.1-.1-.1-.1-.1-2.1-3.3-4.2-6.6-6.3-9.9-.1-.1-.1-.2,0-.2,2-3.6,4.1-7.2,6.1-10.7-.1-.3-.1-.4,0-.4h0Z"/>
      </g>
      <path class="cls-27" d="m2335.6,1947.4h-156.4c0-14.3,11.6-25.9,25.9-25.9h104.5c14.4-.1,26,11.5,26,25.9h0Z"/>
    </g>
  </g>
  <g id="shop">
    <path class="cls-16" d="m1899.3,1602.3h-486.5c-11,0-20,9-20,20v547.4c0,11,9,20,20,20h486.5c11,0,20-9,20-20v-547.4c0-11-8.9-20-20-20Z"/>
    <path class="cls-27" d="m1910.3,1631.3h-508.5c-11,0-20-9-20-20v-9.7c0-11,9-20,20-20h508.5c11,0,20,9,20,20v9.7c0,11.1-8.9,20-20,20Z"/>
    <path class="cls-27" d="m1387.4,1927.4h-16.6c-6.9,0-11.7-7.5-9.5-14.7l31.9-105.2h31.6l-27.6,111.7c-1.3,4.8-5.3,8.2-9.8,8.2Z"/>
    <path class="cls-27" d="m1462.1,1927.4h-15.8c-6.5,0-11.3-6.7-9.8-13.8l22.8-106.1h31.6l-18.9,110.8c-.9,5.3-5.1,9.1-9.9,9.1h0Z"/>
    <path class="cls-27" d="m1534.8,1927.4h-14.9c-6.1,0-10.8-6-10-12.8l14.1-107.1h31.6l-10.9,110c-.5,5.6-4.8,9.9-9.9,9.9h0Z"/>
    <path class="cls-27" d="m1610.3,1927.4h-15.4c-5.8,0-10.4-5.5-10-11.9l6.3-108h31.6l-2.4,109c-.1,6.1-4.6,10.9-10.1,10.9Z"/>
    <path class="cls-27" d="m1888.7,1927.4h16c6.9,0,11.7-7.5,9.6-14.7l-31.3-105.2h-31.1l27.1,111.6c1.1,4.9,5.1,8.3,9.7,8.3h0Z"/>
    <path class="cls-27" d="m1815.3,1927.4h15.2c6.5,0,11.3-6.7,9.8-13.7l-22.4-106.2h-31.1l18.5,110.8c1,5.3,5.1,9.1,10,9.1h0Z"/>
    <path class="cls-27" d="m1743.9,1927.4h14.2c6.1,0,10.8-6,10-12.8l-13.8-107.1h-31.1l10.7,109.9c.5,5.7,4.8,10,10,10h0Z"/>
    <path class="cls-27" d="m1669.6,1927.4h14.8c5.8,0,10.4-5.4,10-11.9l-6.2-108h-31.1l2.4,109c.2,6.1,4.7,10.9,10.1,10.9Z"/>
    <path class="cls-19" d="m1425.5,1927.4h-21.1c-6.8,0-11.6-7.3-9.6-14.5l29.9-105.4h34.5l-23.8,111.3c-1.1,5.1-5.2,8.6-9.9,8.6h0Z"/>
    <path class="cls-19" d="m1499.7,1927.4h-19.3c-6.4,0-11.2-6.5-9.9-13.5l20.3-106.4h34.9l-16.1,110.5c-.7,5.4-5,9.4-9.9,9.4Z"/>
    <path class="cls-19" d="m1574.7,1927.4h-20.1c-6,0-10.7-5.8-10-12.4l11-107.5h35.4l-6.2,109.4c-.3,5.9-4.7,10.5-10.1,10.5h0Z"/>
    <path class="cls-19" d="m1649.6,1927.4h-19.5c-5.7,0-10.2-5.2-10.1-11.5l2.7-108.4h35.9l1,108.6c.1,6.2-4.4,11.3-10,11.3h0Z"/>
    <path class="cls-19" d="m1925.9,1927.4h16.7c6.9,0,11.7-7.5,9.6-14.7l-31.5-105.2h-37.7l33.4,112.2c1.3,4.6,5.2,7.7,9.5,7.7Z"/>
    <path class="cls-19" d="m1851.2,1927.4h16.7c6.5,0,11.3-6.7,9.8-13.7l-22.5-106.2h-37.2l23.4,111.3c1,5,5.1,8.6,9.8,8.6h0Z"/>
    <path class="cls-19" d="m1778.5,1927.4h16.6c6.1,0,10.8-6,10-12.8l-13.9-107.1h-36.8l14.2,110.3c.6,5.5,4.8,9.6,9.9,9.6Z"/>
    <path class="cls-19" d="m1704.6,1927.4h19.2c5.9,0,10.6-5.7,10-12.2l-9.2-107.7h-36.3l6.3,109.4c.3,5.9,4.7,10.5,10,10.5Z"/>
    <path class="cls-24" d="m1868,1719.8h-429.1c-11,0-20-9-20-20v-20.2c0-11,9-20,20-20h429.1c11,0,20,9,20,20v20.2c0,11-9,20-20,20Z"/>
    <path class="cls-24" d="m1868,2152h-244.1c-11,0-20-9-20-20v-148.4c0-11,9-20,20-20h244.1c11,0,20,9,20,20v148.4c0,11-9,20-20,20Z"/>
    <path class="cls-24" d="m1564,2186.2h-108.4v-203c0-10.8,9-19.7,20-19.7h68.4c11,0,20,8.9,20,19.7v203Z"/>
    <path class="cls-27" d="m1520.2,2057.2l-38,11.2c-4.4,1.3-9-1.2-10.3-5.6l-1.6-5.4c-1.3-4.4,1.2-9,5.6-10.3l38-11.2c4.4-1.3,9,1.2,10.3,5.6l1.6,5.4c1.4,4.4-1.1,9-5.6,10.3Z"/>
    <text class="cls-4" transform="translate(1475.04 2063.36) rotate(-17.49)"><tspan x="0" y="0">OUVE</tspan></text>
    <text class="cls-5" transform="translate(1507.48 2053.14) rotate(-17.49)"><tspan x="0" y="0">RT</tspan></text>
    <line class="cls-32" x1="1474.3" y1="2049.3" x2="1487.8" y2="2015.7"/>
    <line class="cls-32" x1="1515.7" y1="2036.1" x2="1487.2" y2="2015.9"/>
    <rect class="cls-27" x="1392.4" y="1734" width="526.9" height="8.6"/>
    <rect class="cls-23" x="1459" y="2182.3" width="101.5" height="7.5"/>
  </g>
  <g id="arbre">
    <path class="cls-19" d="m2044.9,1115.7c-38.8-1.4-68.1,39.6-105.8,93.9-64,92.2-91.4,177.3-96.7,194.1-19.8,63-63.9,209.4-18.1,353.8,12.9,40.6,27.8,65.2,45.3,84.5,42.3,46.6,95.6,57.9,133,65.8,44.8,9.5,116.2,24.6,190.5-15.7,64.5-34.9,94.1-91.5,102.8-109.6,10.9-22.7,29.4-70.4,24.2-128.4-3.7-42-19.6-77-51.4-147.2-8.8-19.5-16.5-34.9-24.2-50.1-31.9-63.7-42.3-75.3-57.4-106.5-35-72.3-14.3-82.5-45.3-140.9-14.7-27.2-49.1-92-96.9-93.7h0Z"/>
    <path class="cls-26" d="m2172.3,1647.9c2.3,1.5-12.7,29.4-22.5,51-21.7,47.7-32.8,90.1-39.4,174.7-11.5,147.5-12.9,214.8-14.8,261.4-.3,7.3,1.9,34.9,2.1,52.8,0,0-3.6.8-9.9,1.1-16.9.7-32,.5-32,.5l-7.1.3h-7.2c-.6-3.4-.2-13.3-.1-14.7,2.6-38.3,1.7-64,4.9-97.4,7.2-74.7.8-67,7.7-104.1,3.8-20.1,8-34.6,8.4-59.7.4-20.2-1.9-34.9-4.9-53.9-3.7-23.1-9.1-55.7-25.3-93.9,0,0-14.7-34.6-33.7-53.1-9.2-9-12.7-10.9-12.7-10.9-2.1-1.1-4.3-2.1-4.1-3,.2-1.5,9.9,3.3,13.6,5.1,11,5.3,14.9,11.2,19,15.5,17,17.8,18,19.5,25.3,32.7,9.7,17.4,8.8,12.2,26.6,50.2,3.8,8.2,6.3,17.5,8.9,26.3,3,10.1,6.6,8.5,8,8.5,1.9,0,2.7-13.3,4.2-24,2.4-16.7,7.7-29.3,18.3-54.6,12.3-29.3,24.6-50.7,29.5-59,14.8-25.1,34.7-53.4,37.2-51.8h0Z"/>
  </g>
</svg>