<?xml version="1.0" encoding="UTF-8"?>
<svg id="crayon" xmlns="http://www.w3.org/2000/svg" viewBox="0 0 1246 793.88">
  <defs>
    <style>
      .cls-1 {
        fill: #ffd3b0;
      }

      .cls-2 {
        fill: #b7916e;
      }

      .cls-3 {
        fill: #191558;
      }
    </style>
  </defs>
  <path class="cls-2" d="m250.89,401.78c-5.07,6.48-13.13,14.35-13,26,.14,11.96,7.76,46.83,8.97,57.48,1.85,16.24-14.43.23-21.97,6.52-44.13,36.87-98.72,26.06-105,50-2.11,8.05,2.94,13.5-2,25-1.18,2.74-6.83,14.92-20,19-2.96.92-12.76,3.96-19-1-4.56-3.62-4.88-9.66-5-30-.1-16.63-.15-24.95,0-27,2.62-35.84-2.48-71.94,0-97,5.41-54.62,52.36-112.34,108-127,24.52-6.46,66.33-8.66,81,13,13.1,19.33,6.8,60.96-12,85Z"/>
  <path class="cls-1" d="m317.86,402.25c-4.25-6.76,30.24,45.86,14,70-4.87,7.24-13.73,9.13-30,14-32.82,9.82-38.17,6.86-63,11-6,1-14,3-17,3-3.19,0-5.06-1.88-9-4-13-7-46.13-12.56-81-1-13.35,4.43-27.86,9.43-41,23-4.25,4.39-22.71,23.46-17,38,3.03,7.72,11.69,10.82,29,17,17.65,6.3,22.4,4.61,38,10,18.36,6.35,20.27,11.64,34,17,21.48,8.39,40.62,4.73,54,3,57.32-7.4,59.45,14.15,121,8,37.5-3.74,53.51-13.42,119-19,6.43-.55,10.46-.81,13-1,83.66-6.2,160.66-50.2,228-61,37.89-6.08,83.26,6.62,174,32,139.43,39,160.49,72.63,201,57,36.91-14.24,268.39-247,78-260-410-28-405-13-467-36s-132.32-52.13-155-61-119-52-124-55c-4.42-2.65-22-13-26-14-1.14-.29-13-8-32,3"/>
  <path class="cls-1" d="m89.86,326.25c-22,3-35.05,100.9-50,130C21.25,492.49-.1,525.33,12.86,544.25c5.83,8.51,17.17,12.14,26,12,18.65-.3,23.59-17.39,66-72,0,0,46.39-59.74,42-80-.18-.82-1.98-8.36-.21-9.21.29-.14.68-.09,1.21.21,18,10,76,0,81-20,4.08-16.32,14,18,32,18,16.35,0,21.11-18.74,33-18,15.11.94,17.67,28.93,27,30,9.85,1.13,14.78-42.79,38-211"/>
  <path class="cls-3" d="m674.7,138.56c-6.96-10.12-20.81-12.69-30.93-5.73L52.86,539.25c11.18,16.18,6.04,8.88,13,19l11.85,17.24c.08-.01.15-.02.23-.03.11,0,.22,0,.33,0,3.61-2.48,7.23-4.97,10.84-7.45,37.19-25.56,74.38-51.12,111.56-76.68,156.1-107.29,312.2-214.57,468.3-321.85,9.22-9.34,11.48-22.57,5.73-30.93Z"/>
  <polyline class="cls-3" points="78.29 575.54 52.86 539.25 9.87 594.9"/>
  <path class="cls-1" d="m91.1,569.02s-48.87-12.51,0-45.51,79.76-40.26,111.56-31.16"/>
</svg>